<?xml version="1.0" encoding="utf-8"?>
<svg version="1.1" xmlns:xlink="http://www.w3.org/1999/xlink" width="12px" height="12px" viewBox="605 610.5  12 12" xmlns="http://www.w3.org/2000/svg">
  <path d="M 611 610.5  C 614.36 610.5  617 613.14  617 616.5  C 617 619.86  614.36 622.5  611 622.5  C 607.64 622.5  605 619.86  605 616.5  C 605 613.14  607.64 610.5  611 610.5  Z " fill-rule="nonzero" fill="#f0f0f0" stroke="none" />
  <path d="M 611 611  C 614.08 611  616.5 613.42  616.5 616.5  C 616.5 619.58  614.08 622  611 622  C 607.92 622  605.5 619.58  605.5 616.5  C 605.5 613.42  607.92 611  611 611  Z " stroke-width="1" stroke="#797979" fill="none" />
  <path d="M 611 619.5  C 609.32 619.5  608 618.18  608 616.5  C 608 614.82  609.32 613.5  611 613.5  C 612.68 613.5  614 614.82  614 616.5  C 614 618.18  612.68 619.5  611 619.5  " fill-rule="nonzero" fill="#797979" stroke="none" />
</svg>