<?xml version="1.0" encoding="utf-8"?>
<svg version="1.1" xmlns:xlink="http://www.w3.org/1999/xlink" width="12px" height="12px" viewBox="705 637.5  12 12" xmlns="http://www.w3.org/2000/svg">
  <path d="M 711 637.5  C 714.36 637.5  717 640.14  717 643.5  C 717 646.86  714.36 649.5  711 649.5  C 707.64 649.5  705 646.86  705 643.5  C 705 640.14  707.64 637.5  711 637.5  Z " fill-rule="nonzero" fill="#ffffff" stroke="none" />
  <path d="M 711 638  C 714.08 638  716.5 640.42  716.5 643.5  C 716.5 646.58  714.08 649  711 649  C 707.92 649  705.5 646.58  705.5 643.5  C 705.5 640.42  707.92 638  711 638  Z " stroke-width="1" stroke="#333333" fill="none" />
  <path d="M 711 646.5  C 709.32 646.5  708 645.18  708 643.5  C 708 641.82  709.32 640.5  711 640.5  C 712.68 640.5  714 641.82  714 643.5  C 714 645.18  712.68 646.5  711 646.5  " fill-rule="nonzero" fill="#333333" stroke="none" />
</svg>