<?xml version="1.0" encoding="utf-8"?>
<svg version="1.1" xmlns:xlink="http://www.w3.org/1999/xlink" width="12px" height="12px" viewBox="439 684.5  12 12" xmlns="http://www.w3.org/2000/svg">
  <path d="M 445 684.5  C 448.36 684.5  451 687.14  451 690.5  C 451 693.86  448.36 696.5  445 696.5  C 441.64 696.5  439 693.86  439 690.5  C 439 687.14  441.64 684.5  445 684.5  Z " fill-rule="nonzero" fill="#f0f0f0" stroke="none" />
  <path d="M 445 685  C 448.08 685  450.5 687.42  450.5 690.5  C 450.5 693.58  448.08 696  445 696  C 441.92 696  439.5 693.58  439.5 690.5  C 439.5 687.42  441.92 685  445 685  Z " stroke-width="1" stroke="#333333" fill="none" />
  <path d="M 445 693.5  C 443.32 693.5  442 692.18  442 690.5  C 442 688.82  443.32 687.5  445 687.5  C 446.68 687.5  448 688.82  448 690.5  C 448 692.18  446.68 693.5  445 693.5  " fill-rule="nonzero" fill="#333333" stroke="none" />
</svg>