<?xml version="1.0" encoding="utf-8"?>
<svg version="1.1" xmlns:xlink="http://www.w3.org/1999/xlink" width="12px" height="12px" viewBox="529 716.5  12 12" xmlns="http://www.w3.org/2000/svg">
  <path d="M 535 716.5  C 538.36 716.5  541 719.14  541 722.5  C 541 725.86  538.36 728.5  535 728.5  C 531.64 728.5  529 725.86  529 722.5  C 529 719.14  531.64 716.5  535 716.5  Z " fill-rule="nonzero" fill="#f0f0f0" stroke="none" />
  <path d="M 535 717  C 538.08 717  540.5 719.42  540.5 722.5  C 540.5 725.58  538.08 728  535 728  C 531.92 728  529.5 725.58  529.5 722.5  C 529.5 719.42  531.92 717  535 717  Z " stroke-width="1" stroke="#797979" fill="none" />
  <path d="M 535 725.5  C 533.32 725.5  532 724.18  532 722.5  C 532 720.82  533.32 719.5  535 719.5  C 536.68 719.5  538 720.82  538 722.5  C 538 724.18  536.68 725.5  535 725.5  " fill-rule="nonzero" fill="#797979" stroke="none" />
</svg>