<?xml version="1.0" encoding="utf-8"?>
<svg version="1.1" xmlns:xlink="http://www.w3.org/1999/xlink" width="12px" height="12px" viewBox="605 781.5  12 12" xmlns="http://www.w3.org/2000/svg">
  <path d="M 611 781.5  C 614.36 781.5  617 784.14  617 787.5  C 617 790.86  614.36 793.5  611 793.5  C 607.64 793.5  605 790.86  605 787.5  C 605 784.14  607.64 781.5  611 781.5  Z " fill-rule="nonzero" fill="#f0f0f0" stroke="none" />
  <path d="M 611 782  C 614.08 782  616.5 784.42  616.5 787.5  C 616.5 790.58  614.08 793  611 793  C 607.92 793  605.5 790.58  605.5 787.5  C 605.5 784.42  607.92 782  611 782  Z " stroke-width="1" stroke="#333333" fill="none" />
  <path d="M 611 790.5  C 609.32 790.5  608 789.18  608 787.5  C 608 785.82  609.32 784.5  611 784.5  C 612.68 784.5  614 785.82  614 787.5  C 614 789.18  612.68 790.5  611 790.5  " fill-rule="nonzero" fill="#333333" stroke="none" />
</svg>