<?xml version="1.0" encoding="utf-8"?>
<svg version="1.1" xmlns:xlink="http://www.w3.org/1999/xlink" width="12px" height="12px" viewBox="605 843.5  12 12" xmlns="http://www.w3.org/2000/svg">
  <path d="M 611 843.5  C 614.36 843.5  617 846.14  617 849.5  C 617 852.86  614.36 855.5  611 855.5  C 607.64 855.5  605 852.86  605 849.5  C 605 846.14  607.64 843.5  611 843.5  Z " fill-rule="nonzero" fill="#f0f0f0" stroke="none" />
  <path d="M 611 844  C 614.08 844  616.5 846.42  616.5 849.5  C 616.5 852.58  614.08 855  611 855  C 607.92 855  605.5 852.58  605.5 849.5  C 605.5 846.42  607.92 844  611 844  Z " stroke-width="1" stroke="#333333" fill="none" />
  <path d="M 611 852.5  C 609.32 852.5  608 851.18  608 849.5  C 608 847.82  609.32 846.5  611 846.5  C 612.68 846.5  614 847.82  614 849.5  C 614 851.18  612.68 852.5  611 852.5  " fill-rule="nonzero" fill="#333333" stroke="none" />
</svg>