<?xml version="1.0" encoding="utf-8"?>
<svg version="1.1" xmlns:xlink="http://www.w3.org/1999/xlink" width="12px" height="12px" viewBox="439 875.5  12 12" xmlns="http://www.w3.org/2000/svg">
  <path d="M 445 875.5  C 448.36 875.5  451 878.14  451 881.5  C 451 884.86  448.36 887.5  445 887.5  C 441.64 887.5  439 884.86  439 881.5  C 439 878.14  441.64 875.5  445 875.5  Z " fill-rule="nonzero" fill="#f0f0f0" stroke="none" />
  <path d="M 445 876  C 448.08 876  450.5 878.42  450.5 881.5  C 450.5 884.58  448.08 887  445 887  C 441.92 887  439.5 884.58  439.5 881.5  C 439.5 878.42  441.92 876  445 876  Z " stroke-width="1" stroke="#333333" fill="none" />
  <path d="M 445 884.5  C 443.32 884.5  442 883.18  442 881.5  C 442 879.82  443.32 878.5  445 878.5  C 446.68 878.5  448 879.82  448 881.5  C 448 883.18  446.68 884.5  445 884.5  " fill-rule="nonzero" fill="#333333" stroke="none" />
</svg>