<?xml version="1.0" encoding="utf-8"?>
<svg version="1.1" xmlns:xlink="http://www.w3.org/1999/xlink" width="18px" height="18px" xmlns="http://www.w3.org/2000/svg">
  <g transform="matrix(1 0 0 1 -13 -399 )">
    <path d="M 7.696875 10.8449744463373  C 8.165625 10.3339011925043  8.4 9.71720613287905  8.4 8.99488926746167  C 8.4 8.27257240204429  8.165625 7.65587734241908  7.696875 7.14480408858603  C 7.228125 6.63373083475298  6.6625 6.37819420783646  6 6.37819420783646  C 5.3375 6.37819420783646  4.771875 6.63373083475298  4.303125 7.14480408858603  C 3.834375 7.65587734241908  3.6 8.27257240204429  3.6 8.99488926746167  C 3.6 9.71720613287905  3.834375 10.3339011925043  4.303125 10.8449744463373  C 4.771875 11.3560477001704  5.3375 11.6115843270869  6 11.6115843270869  C 6.6625 11.6115843270869  7.228125 11.3560477001704  7.696875 10.8449744463373  Z M 15.2484375 15.1533219761499  C 15.4828125 14.8977853492334  15.6 14.5894378194208  15.6 14.2282793867121  C 15.6 13.8739352640545  15.48125 13.5672913117547  15.24375 13.3083475298126  C 15.00625 13.0494037478705  14.725 12.9199318568995  14.4 12.9199318568995  C 14.075 12.9199318568995  13.79375 13.0494037478705  13.55625 13.3083475298126  C 13.31875 13.5672913117547  13.2 13.8739352640545  13.2 14.2282793867121  C 13.2 14.5894378194208  13.3171875 14.8977853492334  13.5515625 15.1533219761499  C 13.7859375 15.4088586030664  14.06875 15.5366269165247  14.4 15.5366269165247  C 14.73125 15.5366269165247  15.0140625 15.4088586030664  15.2484375 15.1533219761499  Z M 15.2484375 4.68654173764906  C 15.4828125 4.43100511073254  15.6 4.12265758091993  15.6 3.76149914821124  C 15.6 3.40715502555366  15.48125 3.10051107325383  15.24375 2.84156729131175  C 15.00625 2.58262350936968  14.725 2.45315161839864  14.4 2.45315161839864  C 14.075 2.45315161839864  13.79375 2.58262350936968  13.55625 2.84156729131175  C 13.31875 3.10051107325383  13.2 3.40715502555366  13.2 3.76149914821124  C 13.2 4.12265758091993  13.3171875 4.43100511073254  13.5515625 4.68654173764906  C 13.7859375 4.94207836456559  14.06875 5.06984667802385  14.4 5.06984667802385  C 14.73125 5.06984667802385  15.0140625 4.94207836456559  15.2484375 4.68654173764906  Z M 11.934375 7.86541737649063  C 11.978125 7.92333901192504  12 7.98977853492334  12 8.06473594548552  L 12 9.9557069846678  C 12 10.0238500851789  11.978125 10.0902896081772  11.934375 10.1550255536627  C 11.890625 10.2197614991482  11.840625 10.2555366269165  11.784375 10.2623509369676  L 10.33125 10.5076660988075  C 10.2625 10.7461669505963  10.1625 11.0051107325383  10.03125 11.2844974446337  C 10.24375 11.6115843270869  10.525 12.0034071550256  10.875 12.4599659284497  C 10.91875 12.5349233390119  10.940625 12.603066439523  10.940625 12.664395229983  C 10.940625 12.7461669505963  10.91875 12.8109028960818  10.875 12.8586030664395  C 10.73125 13.0630323679727  10.4734375 13.3679727427598  10.1015625 13.7734241908007  C 9.7296875 14.1788756388416  9.484375 14.381601362862  9.365625 14.381601362862  C 9.296875 14.381601362862  9.23125 14.3577512776831  9.16875 14.3100511073254  L 8.090625 13.3901192504259  C 7.859375 13.5195911413969  7.61875 13.6252129471891  7.36875 13.7069846678024  C 7.3 14.442930153322  7.228125 14.9710391822828  7.153125 15.2913117546848  C 7.109375 15.4548551959114  7.015625 15.5366269165247  6.871875 15.5366269165247  L 5.128125 15.5366269165247  C 5.059375 15.5366269165247  4.996875 15.511073253833  4.940625 15.4599659284497  C 4.884375 15.4088586030664  4.853125 15.3492333901193  4.846875 15.2810902896082  L 4.63125 13.717206132879  C 4.41875 13.649063032368  4.184375 13.5434412265758  3.928125 13.4003407155026  L 2.821875 14.3100511073254  C 2.778125 14.3577512776831  2.715625 14.381601362862  2.634375 14.381601362862  C 2.565625 14.381601362862  2.5 14.3543441226576  2.4375 14.2998296422487  C 1.5375 13.3935264054514  1.0875 12.8483816013629  1.0875 12.664395229983  C 1.0875 12.603066439523  1.109375 12.5383304940375  1.153125 12.4701873935264  C 1.215625 12.3747870528109  1.34375 12.1942078364566  1.5375 11.9284497444634  C 1.73125 11.6626916524702  1.878125 11.4548551959114  1.978125 11.3049403747871  C 1.834375 11.0051107325383  1.725 10.7257240204429  1.65 10.4667802385009  L 0.225 10.221465076661  C 0.1625 10.2146507666099  0.109375 10.1822827938671  0.065625 10.1243611584327  C 0.021875 10.0664395229983  0 10  0 9.92504258943782  L 0 8.03407155025554  C 0 7.96592844974446  0.021875 7.89948892674617  0.065625 7.83475298126065  C 0.109375 7.77001703577513  0.159375 7.73424190800681  0.215625 7.72742759795571  L 1.66875 7.48211243611584  C 1.7375 7.24361158432709  1.8375 6.98466780238501  1.96875 6.70528109028961  C 1.75625 6.37819420783646  1.475 5.98637137989778  1.125 5.52981260647359  C 1.08125 5.45485519591141  1.059375 5.38671209540034  1.059375 5.32538330494037  C 1.059375 5.24361158432709  1.08125 5.17546848381601  1.125 5.12095400340715  C 1.2625 4.91652470187393  1.51875 4.61328790459966  1.89375 4.21124361158433  C 2.26875 3.80919931856899  2.515625 3.60817717206133  2.634375 3.60817717206133  C 2.703125 3.60817717206133  2.76875 3.6320272572402  2.83125 3.67972742759796  L 3.909375 4.59965928449744  C 4.121875 4.47700170357751  4.3625 4.3679727427598  4.63125 4.27257240204429  C 4.7 3.5366269165247  4.771875 3.01192504258944  4.846875 2.6984667802385  C 4.890625 2.53492333901193  4.984375 2.45315161839864  5.128125 2.45315161839864  L 6.871875 2.45315161839864  C 6.940625 2.45315161839864  7.003125 2.47870528109029  7.059375 2.5298126064736  C 7.115625 2.5809199318569  7.146875 2.64054514480409  7.153125 2.70868824531516  L 7.36875 4.27257240204429  C 7.58125 4.34071550255536  7.815625 4.44633730834753  8.071875 4.58943781942078  L 9.178125 3.67972742759796  C 9.228125 3.6320272572402  9.290625 3.60817717206133  9.365625 3.60817717206133  C 9.434375 3.60817717206133  9.5 3.63543441226576  9.5625 3.68994889267462  C 10.4625 4.59625212947189  10.9125 5.14139693356048  10.9125 5.32538330494037  C 10.9125 5.37989778534923  10.890625 5.44463373083475  10.846875 5.51959114139693  C 10.771875 5.62862010221465  10.640625 5.81260647359455  10.453125 6.07155025553663  C 10.265625 6.3304940374787  10.125 6.53492333901193  10.03125 6.68483816013629  C 10.175 7.01192504258944  10.28125 7.29131175468484  10.35 7.52299829642249  L 11.775 7.75809199318569  C 11.8375 7.7717206132879  11.890625 7.80749574105622  11.934375 7.86541737649063  Z M 16.603125 13.1959114139693  C 17.534375 13.2981260647359  18 13.4037478705281  18 13.5127768313458  L 18 14.9437819420784  C 18 15.0528109028961  17.534375 15.1584327086882  16.603125 15.2606473594549  C 16.528125 15.4446337308348  16.434375 15.6218057921635  16.321875 15.7921635434412  C 16.640625 16.5621805792164  16.8 17.0323679727428  16.8 17.2027257240204  C 16.8 17.2299829642249  16.7875 17.2538330494037  16.7625 17.2742759795571  C 16 17.7580919931857  15.6125 18  15.6 18  C 15.55 18  15.40625 17.839863713799  15.16875 17.5195911413969  C 14.93125 17.1993185689949  14.76875 16.9676320272572  14.68125 16.824531516184  C 14.55625 16.8381601362862  14.4625 16.8449744463373  14.4 16.8449744463373  C 14.3375 16.8449744463373  14.24375 16.8381601362862  14.11875 16.824531516184  C 14.03125 16.9676320272572  13.86875 17.1993185689949  13.63125 17.5195911413969  C 13.39375 17.839863713799  13.25 18  13.2 18  C 13.1875 18  12.8 17.7580919931857  12.0375 17.2742759795571  C 12.0125 17.2538330494037  12 17.2299829642249  12 17.2027257240204  C 12 17.0323679727428  12.159375 16.5621805792164  12.478125 15.7921635434412  C 12.365625 15.6218057921635  12.271875 15.4446337308348  12.196875 15.2606473594549  C 11.265625 15.1584327086882  10.8 15.0528109028961  10.8 14.9437819420784  L 10.8 13.5127768313458  C 10.8 13.4037478705281  11.265625 13.2981260647359  12.196875 13.1959114139693  C 12.278125 12.9982964224872  12.371875 12.8211243611584  12.478125 12.664395229983  C 12.159375 11.8943781942078  12 11.4241908006814  12 11.2538330494037  C 12 11.2265758091993  12.0125 11.2027257240204  12.0375 11.1822827938671  C 12.0625 11.1686541737649  12.171875 11.1005110732538  12.365625 10.9778534923339  C 12.559375 10.855195911414  12.74375 10.7393526405451  12.91875 10.6303236797274  C 13.09375 10.5212947189097  13.1875 10.4667802385009  13.2 10.4667802385009  C 13.25 10.4667802385009  13.39375 10.6252129471891  13.63125 10.9420783645656  C 13.86875 11.2589437819421  14.03125 11.488926746167  14.11875 11.6320272572402  C 14.24375 11.618398637138  14.3375 11.6115843270869  14.4 11.6115843270869  C 14.4625 11.6115843270869  14.55625 11.618398637138  14.68125 11.6320272572402  C 15 11.1482112436116  15.2875 10.7666098807496  15.54375 10.4872231686542  L 15.6 10.4667802385009  C 15.625 10.4667802385009  16.0125 10.7052810902896  16.7625 11.1822827938671  C 16.7875 11.2027257240204  16.8 11.2265758091993  16.8 11.2538330494037  C 16.8 11.4241908006814  16.640625 11.8943781942078  16.321875 12.664395229983  C 16.428125 12.8211243611584  16.521875 12.9982964224872  16.603125 13.1959114139693  Z M 16.603125 2.72913117546848  C 17.534375 2.83134582623509  18 2.93696763202726  18 3.04599659284497  L 18 4.47700170357751  C 18 4.58603066439523  17.534375 4.69165247018739  16.603125 4.793867120954  C 16.528125 4.9778534923339  16.434375 5.15502555366269  16.321875 5.32538330494037  C 16.640625 6.0954003407155  16.8 6.56558773424191  16.8 6.73594548551959  C 16.8 6.76320272572402  16.7875 6.7870528109029  16.7625 6.80749574105622  C 16 7.29131175468484  15.6125 7.53321976149915  15.6 7.53321976149915  C 15.55 7.53321976149915  15.40625 7.37308347529812  15.16875 7.05281090289608  C 14.93125 6.73253833049404  14.76875 6.50085178875639  14.68125 6.35775127768314  C 14.55625 6.37137989778535  14.4625 6.37819420783646  14.4 6.37819420783646  C 14.3375 6.37819420783646  14.24375 6.37137989778535  14.11875 6.35775127768314  C 14.03125 6.50085178875639  13.86875 6.73253833049404  13.63125 7.05281090289608  C 13.39375 7.37308347529812  13.25 7.53321976149915  13.2 7.53321976149915  C 13.1875 7.53321976149915  12.8 7.29131175468484  12.0375 6.80749574105622  C 12.0125 6.7870528109029  12 6.76320272572402  12 6.73594548551959  C 12 6.56558773424191  12.159375 6.0954003407155  12.478125 5.32538330494037  C 12.365625 5.15502555366269  12.271875 4.9778534923339  12.196875 4.793867120954  C 11.265625 4.69165247018739  10.8 4.58603066439523  10.8 4.47700170357751  L 10.8 3.04599659284497  C 10.8 2.93696763202726  11.265625 2.83134582623509  12.196875 2.72913117546848  C 12.278125 2.53151618398637  12.371875 2.35434412265758  12.478125 2.19761499148211  C 12.159375 1.42759795570698  12 0.957410562180577  12 0.787052810902897  C 12 0.759795570698466  12.0125 0.735945485519592  12.0375 0.71550255536627  C 12.0625 0.701873935264052  12.171875 0.633730834752982  12.365625 0.51107325383305  C 12.559375 0.388415672913118  12.74375 0.272572402044291  12.91875 0.163543441226576  C 13.09375 0.0545144804088573  13.1875 0  13.2 0  C 13.25 0  13.39375 0.158432708688244  13.63125 0.475298126064735  C 13.86875 0.792163543441226  14.03125 1.0221465076661  14.11875 1.16524701873935  C 14.24375 1.15161839863714  14.3375 1.14480408858603  14.4 1.14480408858603  C 14.4625 1.14480408858603  14.55625 1.15161839863714  14.68125 1.16524701873935  C 15 0.68143100511073  15.2875 0.299829642248721  15.54375 0.020442930153322  L 15.6 0  C 15.625 0  16.0125 0.238500851788755  16.7625 0.71550255536627  C 16.7875 0.735945485519592  16.8 0.759795570698466  16.8 0.787052810902897  C 16.8 0.957410562180577  16.640625 1.42759795570698  16.321875 2.19761499148211  C 16.428125 2.35434412265758  16.521875 2.53151618398637  16.603125 2.72913117546848  Z " fill-rule="nonzero" fill="#555555" stroke="none" fill-opacity="0.996078431372549" transform="matrix(1 0 0 1 13 399 )" />
  </g>
</svg>