<?xml version="1.0" encoding="utf-8"?>
<svg version="1.1" xmlns:xlink="http://www.w3.org/1999/xlink" width="12px" height="12px" viewBox="840 599.5  12 12" xmlns="http://www.w3.org/2000/svg">
  <path d="M 846 599.5  C 849.36 599.5  852 602.14  852 605.5  C 852 608.86  849.36 611.5  846 611.5  C 842.64 611.5  840 608.86  840 605.5  C 840 602.14  842.64 599.5  846 599.5  Z " fill-rule="nonzero" fill="#f0f0f0" stroke="none" />
  <path d="M 846 600  C 849.08 600  851.5 602.42  851.5 605.5  C 851.5 608.58  849.08 611  846 611  C 842.92 611  840.5 608.58  840.5 605.5  C 840.5 602.42  842.92 600  846 600  Z " stroke-width="1" stroke="#333333" fill="none" />
  <path d="M 846 608.5  C 844.32 608.5  843 607.18  843 605.5  C 843 603.82  844.32 602.5  846 602.5  C 847.68 602.5  849 603.82  849 605.5  C 849 607.18  847.68 608.5  846 608.5  " fill-rule="nonzero" fill="#333333" stroke="none" />
</svg>