<?xml version="1.0" encoding="utf-8"?>
<svg version="1.1" xmlns:xlink="http://www.w3.org/1999/xlink" width="12px" height="12px" viewBox="362 674.5  12 12" xmlns="http://www.w3.org/2000/svg">
  <path d="M 368 674.5  C 371.36 674.5  374 677.14  374 680.5  C 374 683.86  371.36 686.5  368 686.5  C 364.64 686.5  362 683.86  362 680.5  C 362 677.14  364.64 674.5  368 674.5  Z " fill-rule="nonzero" fill="#f0f0f0" stroke="none" />
  <path d="M 368 675  C 371.08 675  373.5 677.42  373.5 680.5  C 373.5 683.58  371.08 686  368 686  C 364.92 686  362.5 683.58  362.5 680.5  C 362.5 677.42  364.92 675  368 675  Z " stroke-width="1" stroke="#333333" fill="none" />
  <path d="M 368 683.5  C 366.32 683.5  365 682.18  365 680.5  C 365 678.82  366.32 677.5  368 677.5  C 369.68 677.5  371 678.82  371 680.5  C 371 682.18  369.68 683.5  368 683.5  " fill-rule="nonzero" fill="#333333" stroke="none" />
</svg>