<?xml version="1.0" encoding="utf-8"?>
<svg version="1.1" xmlns:xlink="http://www.w3.org/1999/xlink" width="12px" height="12px" viewBox="321 839.5  12 12" xmlns="http://www.w3.org/2000/svg">
  <path d="M 327 839.5  C 330.36 839.5  333 842.14  333 845.5  C 333 848.86  330.36 851.5  327 851.5  C 323.64 851.5  321 848.86  321 845.5  C 321 842.14  323.64 839.5  327 839.5  Z " fill-rule="nonzero" fill="#f0f0f0" stroke="none" />
  <path d="M 327 840  C 330.08 840  332.5 842.42  332.5 845.5  C 332.5 848.58  330.08 851  327 851  C 323.92 851  321.5 848.58  321.5 845.5  C 321.5 842.42  323.92 840  327 840  Z " stroke-width="1" stroke="#797979" fill="none" />
  <path d="M 327 848.5  C 325.32 848.5  324 847.18  324 845.5  C 324 843.82  325.32 842.5  327 842.5  C 328.68 842.5  330 843.82  330 845.5  C 330 847.18  328.68 848.5  327 848.5  " fill-rule="nonzero" fill="#797979" stroke="none" />
</svg>