<?xml version="1.0" encoding="utf-8"?>
<svg version="1.1" xmlns:xlink="http://www.w3.org/1999/xlink" width="12px" height="12px" viewBox="790 839.5  12 12" xmlns="http://www.w3.org/2000/svg">
  <path d="M 796 839.5  C 799.36 839.5  802 842.14  802 845.5  C 802 848.86  799.36 851.5  796 851.5  C 792.64 851.5  790 848.86  790 845.5  C 790 842.14  792.64 839.5  796 839.5  Z " fill-rule="nonzero" fill="#f0f0f0" stroke="none" />
  <path d="M 796 840  C 799.08 840  801.5 842.42  801.5 845.5  C 801.5 848.58  799.08 851  796 851  C 792.92 851  790.5 848.58  790.5 845.5  C 790.5 842.42  792.92 840  796 840  Z " stroke-width="1" stroke="#797979" fill="none" />
  <path d="M 796 848.5  C 794.32 848.5  793 847.18  793 845.5  C 793 843.82  794.32 842.5  796 842.5  C 797.68 842.5  799 843.82  799 845.5  C 799 847.18  797.68 848.5  796 848.5  " fill-rule="nonzero" fill="#797979" stroke="none" />
</svg>