<?xml version="1.0" encoding="utf-8"?>
<svg version="1.1" xmlns:xlink="http://www.w3.org/1999/xlink" width="12px" height="12px" viewBox="371 839.5  12 12" xmlns="http://www.w3.org/2000/svg">
  <path d="M 377 839.5  C 380.36 839.5  383 842.14  383 845.5  C 383 848.86  380.36 851.5  377 851.5  C 373.64 851.5  371 848.86  371 845.5  C 371 842.14  373.64 839.5  377 839.5  Z " fill-rule="nonzero" fill="#ffffff" stroke="none" />
  <path d="M 377 840  C 380.08 840  382.5 842.42  382.5 845.5  C 382.5 848.58  380.08 851  377 851  C 373.92 851  371.5 848.58  371.5 845.5  C 371.5 842.42  373.92 840  377 840  Z " stroke-width="1" stroke="#333333" fill="none" />
  <path d="M 377 848.5  C 375.32 848.5  374 847.18  374 845.5  C 374 843.82  375.32 842.5  377 842.5  C 378.68 842.5  380 843.82  380 845.5  C 380 847.18  378.68 848.5  377 848.5  " fill-rule="nonzero" fill="#333333" stroke="none" />
</svg>