<?xml version="1.0" encoding="utf-8"?>
<svg version="1.1" xmlns:xlink="http://www.w3.org/1999/xlink" width="12px" height="12px" viewBox="837 1443.5  12 12" xmlns="http://www.w3.org/2000/svg">
  <path d="M 843 1443.5  C 846.36 1443.5  849 1446.14  849 1449.5  C 849 1452.86  846.36 1455.5  843 1455.5  C 839.64 1455.5  837 1452.86  837 1449.5  C 837 1446.14  839.64 1443.5  843 1443.5  Z " fill-rule="nonzero" fill="#ffffff" stroke="none" />
  <path d="M 843 1444  C 846.08 1444  848.5 1446.42  848.5 1449.5  C 848.5 1452.58  846.08 1455  843 1455  C 839.92 1455  837.5 1452.58  837.5 1449.5  C 837.5 1446.42  839.92 1444  843 1444  Z " stroke-width="1" stroke="#333333" fill="none" />
  <path d="M 843 1452.5  C 841.32 1452.5  840 1451.18  840 1449.5  C 840 1447.82  841.32 1446.5  843 1446.5  C 844.68 1446.5  846 1447.82  846 1449.5  C 846 1451.18  844.68 1452.5  843 1452.5  " fill-rule="nonzero" fill="#333333" stroke="none" />
</svg>