<?xml version="1.0" encoding="utf-8"?>
<svg version="1.1" xmlns:xlink="http://www.w3.org/1999/xlink" width="12px" height="12px" viewBox="968 1929.5  12 12" xmlns="http://www.w3.org/2000/svg">
  <path d="M 974 1929.5  C 977.36 1929.5  980 1932.14  980 1935.5  C 980 1938.86  977.36 1941.5  974 1941.5  C 970.64 1941.5  968 1938.86  968 1935.5  C 968 1932.14  970.64 1929.5  974 1929.5  Z " fill-rule="nonzero" fill="#ffffff" stroke="none" />
  <path d="M 974 1930  C 977.08 1930  979.5 1932.42  979.5 1935.5  C 979.5 1938.58  977.08 1941  974 1941  C 970.92 1941  968.5 1938.58  968.5 1935.5  C 968.5 1932.42  970.92 1930  974 1930  Z " stroke-width="1" stroke="#797979" fill="none" />
  <path d="M 974 1938.5  C 972.32 1938.5  971 1937.18  971 1935.5  C 971 1933.82  972.32 1932.5  974 1932.5  C 975.68 1932.5  977 1933.82  977 1935.5  C 977 1937.18  975.68 1938.5  974 1938.5  " fill-rule="nonzero" fill="#797979" stroke="none" />
</svg>