<?xml version="1.0" encoding="utf-8"?>
<svg version="1.1" xmlns:xlink="http://www.w3.org/1999/xlink" width="12px" height="12px" viewBox="813 361.5  12 12" xmlns="http://www.w3.org/2000/svg">
  <path d="M 819 361.5  C 822.36 361.5  825 364.14  825 367.5  C 825 370.86  822.36 373.5  819 373.5  C 815.64 373.5  813 370.86  813 367.5  C 813 364.14  815.64 361.5  819 361.5  Z " fill-rule="nonzero" fill="#ffffff" stroke="none" />
  <path d="M 819 362  C 822.08 362  824.5 364.42  824.5 367.5  C 824.5 370.58  822.08 373  819 373  C 815.92 373  813.5 370.58  813.5 367.5  C 813.5 364.42  815.92 362  819 362  Z " stroke-width="1" stroke="#333333" fill="none" />
  <path d="M 819 370.5  C 817.32 370.5  816 369.18  816 367.5  C 816 365.82  817.32 364.5  819 364.5  C 820.68 364.5  822 365.82  822 367.5  C 822 369.18  820.68 370.5  819 370.5  " fill-rule="nonzero" fill="#333333" stroke="none" />
</svg>