<?xml version="1.0" encoding="utf-8"?>
<svg version="1.1" xmlns:xlink="http://www.w3.org/1999/xlink" width="12px" height="12px" viewBox="288 599.5  12 12" xmlns="http://www.w3.org/2000/svg">
  <path d="M 294 599.5  C 297.36 599.5  300 602.14  300 605.5  C 300 608.86  297.36 611.5  294 611.5  C 290.64 611.5  288 608.86  288 605.5  C 288 602.14  290.64 599.5  294 599.5  Z " fill-rule="nonzero" fill="#ffffff" stroke="none" />
  <path d="M 294 600  C 297.08 600  299.5 602.42  299.5 605.5  C 299.5 608.58  297.08 611  294 611  C 290.92 611  288.5 608.58  288.5 605.5  C 288.5 602.42  290.92 600  294 600  Z " stroke-width="1" stroke="#797979" fill="none" />
  <path d="M 294 608.5  C 292.32 608.5  291 607.18  291 605.5  C 291 603.82  292.32 602.5  294 602.5  C 295.68 602.5  297 603.82  297 605.5  C 297 607.18  295.68 608.5  294 608.5  " fill-rule="nonzero" fill="#797979" stroke="none" />
</svg>