<?xml version="1.0" encoding="utf-8"?>
<svg version="1.1" xmlns:xlink="http://www.w3.org/1999/xlink" width="12px" height="12px" viewBox="321 1081.5  12 12" xmlns="http://www.w3.org/2000/svg">
  <path d="M 327 1081.5  C 330.36 1081.5  333 1084.14  333 1087.5  C 333 1090.86  330.36 1093.5  327 1093.5  C 323.64 1093.5  321 1090.86  321 1087.5  C 321 1084.14  323.64 1081.5  327 1081.5  Z " fill-rule="nonzero" fill="#ffffff" stroke="none" />
  <path d="M 327 1082  C 330.08 1082  332.5 1084.42  332.5 1087.5  C 332.5 1090.58  330.08 1093  327 1093  C 323.92 1093  321.5 1090.58  321.5 1087.5  C 321.5 1084.42  323.92 1082  327 1082  Z " stroke-width="1" stroke="#797979" fill="none" />
  <path d="M 327 1090.5  C 325.32 1090.5  324 1089.18  324 1087.5  C 324 1085.82  325.32 1084.5  327 1084.5  C 328.68 1084.5  330 1085.82  330 1087.5  C 330 1089.18  328.68 1090.5  327 1090.5  " fill-rule="nonzero" fill="#797979" stroke="none" />
</svg>