<?xml version="1.0" encoding="utf-8"?>
<svg version="1.1" xmlns:xlink="http://www.w3.org/1999/xlink" width="12px" height="12px" viewBox="790 1081.5  12 12" xmlns="http://www.w3.org/2000/svg">
  <path d="M 796 1081.5  C 799.36 1081.5  802 1084.14  802 1087.5  C 802 1090.86  799.36 1093.5  796 1093.5  C 792.64 1093.5  790 1090.86  790 1087.5  C 790 1084.14  792.64 1081.5  796 1081.5  Z " fill-rule="nonzero" fill="#f0f0f0" stroke="none" />
  <path d="M 796 1082  C 799.08 1082  801.5 1084.42  801.5 1087.5  C 801.5 1090.58  799.08 1093  796 1093  C 792.92 1093  790.5 1090.58  790.5 1087.5  C 790.5 1084.42  792.92 1082  796 1082  Z " stroke-width="1" stroke="#797979" fill="none" />
  <path d="M 796 1090.5  C 794.32 1090.5  793 1089.18  793 1087.5  C 793 1085.82  794.32 1084.5  796 1084.5  C 797.68 1084.5  799 1085.82  799 1087.5  C 799 1089.18  797.68 1090.5  796 1090.5  " fill-rule="nonzero" fill="#797979" stroke="none" />
</svg>