<?xml version="1.0" encoding="utf-8"?>
<svg version="1.1" xmlns:xlink="http://www.w3.org/1999/xlink" width="12px" height="12px" viewBox="1068 1973.5  12 12" xmlns="http://www.w3.org/2000/svg">
  <path d="M 1074 1973.5  C 1077.36 1973.5  1080 1976.14  1080 1979.5  C 1080 1982.86  1077.36 1985.5  1074 1985.5  C 1070.64 1985.5  1068 1982.86  1068 1979.5  C 1068 1976.14  1070.64 1973.5  1074 1973.5  Z " fill-rule="nonzero" fill="#ffffff" stroke="none" />
  <path d="M 1074 1974  C 1077.08 1974  1079.5 1976.42  1079.5 1979.5  C 1079.5 1982.58  1077.08 1985  1074 1985  C 1070.92 1985  1068.5 1982.58  1068.5 1979.5  C 1068.5 1976.42  1070.92 1974  1074 1974  Z " stroke-width="1" stroke="#333333" fill="none" />
  <path d="M 1074 1982.5  C 1072.32 1982.5  1071 1981.18  1071 1979.5  C 1071 1977.82  1072.32 1976.5  1074 1976.5  C 1075.68 1976.5  1077 1977.82  1077 1979.5  C 1077 1981.18  1075.68 1982.5  1074 1982.5  " fill-rule="nonzero" fill="#333333" stroke="none" />
</svg>