<?xml version="1.0" encoding="utf-8"?>
<svg version="1.1" xmlns:xlink="http://www.w3.org/1999/xlink" width="12px" height="12px" viewBox="312 498.5  12 12" xmlns="http://www.w3.org/2000/svg">
  <path d="M 318 498.5  C 321.36 498.5  324 501.14  324 504.5  C 324 507.86  321.36 510.5  318 510.5  C 314.64 510.5  312 507.86  312 504.5  C 312 501.14  314.64 498.5  318 498.5  Z " fill-rule="nonzero" fill="#ffffff" stroke="none" />
  <path d="M 318 499  C 321.08 499  323.5 501.42  323.5 504.5  C 323.5 507.58  321.08 510  318 510  C 314.92 510  312.5 507.58  312.5 504.5  C 312.5 501.42  314.92 499  318 499  Z " stroke-width="1" stroke="#797979" fill="none" />
  <path d="M 318 507.5  C 316.32 507.5  315 506.18  315 504.5  C 315 502.82  316.32 501.5  318 501.5  C 319.68 501.5  321 502.82  321 504.5  C 321 506.18  319.68 507.5  318 507.5  " fill-rule="nonzero" fill="#797979" stroke="none" />
</svg>