<?xml version="1.0" encoding="utf-8"?>
<svg version="1.1" xmlns:xlink="http://www.w3.org/1999/xlink" width="12px" height="12px" viewBox="549 527.5  12 12" xmlns="http://www.w3.org/2000/svg">
  <path d="M 555 527.5  C 558.36 527.5  561 530.14  561 533.5  C 561 536.86  558.36 539.5  555 539.5  C 551.64 539.5  549 536.86  549 533.5  C 549 530.14  551.64 527.5  555 527.5  Z " fill-rule="nonzero" fill="#f0f0f0" stroke="none" />
  <path d="M 555 528  C 558.08 528  560.5 530.42  560.5 533.5  C 560.5 536.58  558.08 539  555 539  C 551.92 539  549.5 536.58  549.5 533.5  C 549.5 530.42  551.92 528  555 528  Z " stroke-width="1" stroke="#797979" fill="none" />
  <path d="M 555 536.5  C 553.32 536.5  552 535.18  552 533.5  C 552 531.82  553.32 530.5  555 530.5  C 556.68 530.5  558 531.82  558 533.5  C 558 535.18  556.68 536.5  555 536.5  " fill-rule="nonzero" fill="#797979" stroke="none" />
</svg>