<?xml version="1.0" encoding="utf-8"?>
<svg version="1.1" xmlns:xlink="http://www.w3.org/1999/xlink" width="12px" height="12px" viewBox="237 665.5  12 12" xmlns="http://www.w3.org/2000/svg">
  <path d="M 243 665.5  C 246.36 665.5  249 668.14  249 671.5  C 249 674.86  246.36 677.5  243 677.5  C 239.64 677.5  237 674.86  237 671.5  C 237 668.14  239.64 665.5  243 665.5  Z " fill-rule="nonzero" fill="#f0f0f0" stroke="none" />
  <path d="M 243 666  C 246.08 666  248.5 668.42  248.5 671.5  C 248.5 674.58  246.08 677  243 677  C 239.92 677  237.5 674.58  237.5 671.5  C 237.5 668.42  239.92 666  243 666  Z " stroke-width="1" stroke="#333333" fill="none" />
  <path d="M 243 674.5  C 241.32 674.5  240 673.18  240 671.5  C 240 669.82  241.32 668.5  243 668.5  C 244.68 668.5  246 669.82  246 671.5  C 246 673.18  244.68 674.5  243 674.5  " fill-rule="nonzero" fill="#333333" stroke="none" />
</svg>