<?xml version="1.0" encoding="utf-8"?>
<svg version="1.1" xmlns:xlink="http://www.w3.org/1999/xlink" width="12px" height="12px" viewBox="237 754.5  12 12" xmlns="http://www.w3.org/2000/svg">
  <path d="M 243 754.5  C 246.36 754.5  249 757.14  249 760.5  C 249 763.86  246.36 766.5  243 766.5  C 239.64 766.5  237 763.86  237 760.5  C 237 757.14  239.64 754.5  243 754.5  Z " fill-rule="nonzero" fill="#ffffff" stroke="none" />
  <path d="M 243 755  C 246.08 755  248.5 757.42  248.5 760.5  C 248.5 763.58  246.08 766  243 766  C 239.92 766  237.5 763.58  237.5 760.5  C 237.5 757.42  239.92 755  243 755  Z " stroke-width="1" stroke="#333333" fill="none" />
  <path d="M 243 763.5  C 241.32 763.5  240 762.18  240 760.5  C 240 758.82  241.32 757.5  243 757.5  C 244.68 757.5  246 758.82  246 760.5  C 246 762.18  244.68 763.5  243 763.5  " fill-rule="nonzero" fill="#333333" stroke="none" />
</svg>