<?xml version="1.0" encoding="utf-8"?>
<svg version="1.1" xmlns:xlink="http://www.w3.org/1999/xlink" width="12px" height="12px" viewBox="237 725.5  12 12" xmlns="http://www.w3.org/2000/svg">
  <path d="M 243 725.5  C 246.36 725.5  249 728.14  249 731.5  C 249 734.86  246.36 737.5  243 737.5  C 239.64 737.5  237 734.86  237 731.5  C 237 728.14  239.64 725.5  243 725.5  Z " fill-rule="nonzero" fill="#ffffff" stroke="none" />
  <path d="M 243 726  C 246.08 726  248.5 728.42  248.5 731.5  C 248.5 734.58  246.08 737  243 737  C 239.92 737  237.5 734.58  237.5 731.5  C 237.5 728.42  239.92 726  243 726  Z " stroke-width="1" stroke="#333333" fill="none" />
  <path d="M 243 734.5  C 241.32 734.5  240 733.18  240 731.5  C 240 729.82  241.32 728.5  243 728.5  C 244.68 728.5  246 729.82  246 731.5  C 246 733.18  244.68 734.5  243 734.5  " fill-rule="nonzero" fill="#333333" stroke="none" />
</svg>