<?xml version="1.0" encoding="utf-8"?>
<svg version="1.1" xmlns:xlink="http://www.w3.org/1999/xlink" width="12px" height="12px" viewBox="637 725.5  12 12" xmlns="http://www.w3.org/2000/svg">
  <path d="M 643 725.5  C 646.36 725.5  649 728.14  649 731.5  C 649 734.86  646.36 737.5  643 737.5  C 639.64 737.5  637 734.86  637 731.5  C 637 728.14  639.64 725.5  643 725.5  Z " fill-rule="nonzero" fill="#f0f0f0" stroke="none" />
  <path d="M 643 726  C 646.08 726  648.5 728.42  648.5 731.5  C 648.5 734.58  646.08 737  643 737  C 639.92 737  637.5 734.58  637.5 731.5  C 637.5 728.42  639.92 726  643 726  Z " stroke-width="1" stroke="#333333" fill="none" />
  <path d="M 643 734.5  C 641.32 734.5  640 733.18  640 731.5  C 640 729.82  641.32 728.5  643 728.5  C 644.68 728.5  646 729.82  646 731.5  C 646 733.18  644.68 734.5  643 734.5  " fill-rule="nonzero" fill="#333333" stroke="none" />
</svg>