<?xml version="1.0" encoding="utf-8"?>
<svg version="1.1" xmlns:xlink="http://www.w3.org/1999/xlink" width="12px" height="12px" viewBox="187 941.5  12 12" xmlns="http://www.w3.org/2000/svg">
  <path d="M 193 941.5  C 196.36 941.5  199 944.14  199 947.5  C 199 950.86  196.36 953.5  193 953.5  C 189.64 953.5  187 950.86  187 947.5  C 187 944.14  189.64 941.5  193 941.5  Z " fill-rule="nonzero" fill="#f0f0f0" stroke="none" />
  <path d="M 193 942  C 196.08 942  198.5 944.42  198.5 947.5  C 198.5 950.58  196.08 953  193 953  C 189.92 953  187.5 950.58  187.5 947.5  C 187.5 944.42  189.92 942  193 942  Z " stroke-width="1" stroke="#797979" fill="none" />
  <path d="M 193 950.5  C 191.32 950.5  190 949.18  190 947.5  C 190 945.82  191.32 944.5  193 944.5  C 194.68 944.5  196 945.82  196 947.5  C 196 949.18  194.68 950.5  193 950.5  " fill-rule="nonzero" fill="#797979" stroke="none" />
</svg>