<?xml version="1.0" encoding="utf-8"?>
<svg version="1.1" xmlns:xlink="http://www.w3.org/1999/xlink" width="12px" height="12px" viewBox="187 1045.5  12 12" xmlns="http://www.w3.org/2000/svg">
  <path d="M 193 1045.5  C 196.36 1045.5  199 1048.14  199 1051.5  C 199 1054.86  196.36 1057.5  193 1057.5  C 189.64 1057.5  187 1054.86  187 1051.5  C 187 1048.14  189.64 1045.5  193 1045.5  Z " fill-rule="nonzero" fill="#ffffff" stroke="none" />
  <path d="M 193 1046  C 196.08 1046  198.5 1048.42  198.5 1051.5  C 198.5 1054.58  196.08 1057  193 1057  C 189.92 1057  187.5 1054.58  187.5 1051.5  C 187.5 1048.42  189.92 1046  193 1046  Z " stroke-width="1" stroke="#797979" fill="none" />
  <path d="M 193 1054.5  C 191.32 1054.5  190 1053.18  190 1051.5  C 190 1049.82  191.32 1048.5  193 1048.5  C 194.68 1048.5  196 1049.82  196 1051.5  C 196 1053.18  194.68 1054.5  193 1054.5  " fill-rule="nonzero" fill="#797979" stroke="none" />
</svg>