<?xml version="1.0" encoding="utf-8"?>
<svg version="1.1" xmlns:xlink="http://www.w3.org/1999/xlink" width="12px" height="12px" viewBox="237 1075.5  12 12" xmlns="http://www.w3.org/2000/svg">
  <path d="M 243 1075.5  C 246.36 1075.5  249 1078.14  249 1081.5  C 249 1084.86  246.36 1087.5  243 1087.5  C 239.64 1087.5  237 1084.86  237 1081.5  C 237 1078.14  239.64 1075.5  243 1075.5  Z " fill-rule="nonzero" fill="#ffffff" stroke="none" />
  <path d="M 243 1076  C 246.08 1076  248.5 1078.42  248.5 1081.5  C 248.5 1084.58  246.08 1087  243 1087  C 239.92 1087  237.5 1084.58  237.5 1081.5  C 237.5 1078.42  239.92 1076  243 1076  Z " stroke-width="1" stroke="#333333" fill="none" />
  <path d="M 243 1084.5  C 241.32 1084.5  240 1083.18  240 1081.5  C 240 1079.82  241.32 1078.5  243 1078.5  C 244.68 1078.5  246 1079.82  246 1081.5  C 246 1083.18  244.68 1084.5  243 1084.5  " fill-rule="nonzero" fill="#333333" stroke="none" />
</svg>