<?xml version="1.0" encoding="utf-8"?>
<svg version="1.1" xmlns:xlink="http://www.w3.org/1999/xlink" width="12px" height="12px" viewBox="2577 467.5  12 12" xmlns="http://www.w3.org/2000/svg">
  <path d="M 2583 467.5  C 2586.36 467.5  2589 470.14  2589 473.5  C 2589 476.86  2586.36 479.5  2583 479.5  C 2579.64 479.5  2577 476.86  2577 473.5  C 2577 470.14  2579.64 467.5  2583 467.5  Z " fill-rule="nonzero" fill="#f0f0f0" stroke="none" />
  <path d="M 2583 468  C 2586.08 468  2588.5 470.42  2588.5 473.5  C 2588.5 476.58  2586.08 479  2583 479  C 2579.92 479  2577.5 476.58  2577.5 473.5  C 2577.5 470.42  2579.92 468  2583 468  Z " stroke-width="1" stroke="#333333" fill="none" />
  <path d="M 2583 476.5  C 2581.32 476.5  2580 475.18  2580 473.5  C 2580 471.82  2581.32 470.5  2583 470.5  C 2584.68 470.5  2586 471.82  2586 473.5  C 2586 475.18  2584.68 476.5  2583 476.5  " fill-rule="nonzero" fill="#333333" stroke="none" />
</svg>