<?xml version="1.0" encoding="utf-8"?>
<svg version="1.1" xmlns:xlink="http://www.w3.org/1999/xlink" width="12px" height="12px" viewBox="2652 498.5  12 12" xmlns="http://www.w3.org/2000/svg">
  <path d="M 2658 498.5  C 2661.36 498.5  2664 501.14  2664 504.5  C 2664 507.86  2661.36 510.5  2658 510.5  C 2654.64 510.5  2652 507.86  2652 504.5  C 2652 501.14  2654.64 498.5  2658 498.5  Z " fill-rule="nonzero" fill="#ffffff" stroke="none" />
  <path d="M 2658 499  C 2661.08 499  2663.5 501.42  2663.5 504.5  C 2663.5 507.58  2661.08 510  2658 510  C 2654.92 510  2652.5 507.58  2652.5 504.5  C 2652.5 501.42  2654.92 499  2658 499  Z " stroke-width="1" stroke="#797979" fill="none" />
  <path d="M 2658 507.5  C 2656.32 507.5  2655 506.18  2655 504.5  C 2655 502.82  2656.32 501.5  2658 501.5  C 2659.68 501.5  2661 502.82  2661 504.5  C 2661 506.18  2659.68 507.5  2658 507.5  " fill-rule="nonzero" fill="#797979" stroke="none" />
</svg>