<?xml version="1.0" encoding="utf-8"?>
<svg version="1.1" xmlns:xlink="http://www.w3.org/1999/xlink" width="12px" height="12px" viewBox="3205 468.5  12 12" xmlns="http://www.w3.org/2000/svg">
  <path d="M 3211 468.5  C 3214.36 468.5  3217 471.14  3217 474.5  C 3217 477.86  3214.36 480.5  3211 480.5  C 3207.64 480.5  3205 477.86  3205 474.5  C 3205 471.14  3207.64 468.5  3211 468.5  Z " fill-rule="nonzero" fill="#f0f0f0" stroke="none" />
  <path d="M 3211 469  C 3214.08 469  3216.5 471.42  3216.5 474.5  C 3216.5 477.58  3214.08 480  3211 480  C 3207.92 480  3205.5 477.58  3205.5 474.5  C 3205.5 471.42  3207.92 469  3211 469  Z " stroke-width="1" stroke="#797979" fill="none" />
  <path d="M 3211 477.5  C 3209.32 477.5  3208 476.18  3208 474.5  C 3208 472.82  3209.32 471.5  3211 471.5  C 3212.68 471.5  3214 472.82  3214 474.5  C 3214 476.18  3212.68 477.5  3211 477.5  " fill-rule="nonzero" fill="#797979" stroke="none" />
</svg>