<?xml version="1.0" encoding="utf-8"?>
<svg version="1.1" xmlns:xlink="http://www.w3.org/1999/xlink" width="12px" height="12px" viewBox="2577 665.5  12 12" xmlns="http://www.w3.org/2000/svg">
  <path d="M 2583 665.5  C 2586.36 665.5  2589 668.14  2589 671.5  C 2589 674.86  2586.36 677.5  2583 677.5  C 2579.64 677.5  2577 674.86  2577 671.5  C 2577 668.14  2579.64 665.5  2583 665.5  Z " fill-rule="nonzero" fill="#ffffff" stroke="none" />
  <path d="M 2583 666  C 2586.08 666  2588.5 668.42  2588.5 671.5  C 2588.5 674.58  2586.08 677  2583 677  C 2579.92 677  2577.5 674.58  2577.5 671.5  C 2577.5 668.42  2579.92 666  2583 666  Z " stroke-width="1" stroke="#333333" fill="none" />
  <path d="M 2583 674.5  C 2581.32 674.5  2580 673.18  2580 671.5  C 2580 669.82  2581.32 668.5  2583 668.5  C 2584.68 668.5  2586 669.82  2586 671.5  C 2586 673.18  2584.68 674.5  2583 674.5  " fill-rule="nonzero" fill="#333333" stroke="none" />
</svg>