<?xml version="1.0" encoding="utf-8"?>
<svg version="1.1" xmlns:xlink="http://www.w3.org/1999/xlink" width="12px" height="12px" viewBox="2527 666.5  12 12" xmlns="http://www.w3.org/2000/svg">
  <path d="M 2533 666.5  C 2536.36 666.5  2539 669.14  2539 672.5  C 2539 675.86  2536.36 678.5  2533 678.5  C 2529.64 678.5  2527 675.86  2527 672.5  C 2527 669.14  2529.64 666.5  2533 666.5  Z " fill-rule="nonzero" fill="#f0f0f0" stroke="none" />
  <path d="M 2533 667  C 2536.08 667  2538.5 669.42  2538.5 672.5  C 2538.5 675.58  2536.08 678  2533 678  C 2529.92 678  2527.5 675.58  2527.5 672.5  C 2527.5 669.42  2529.92 667  2533 667  Z " stroke-width="1" stroke="#797979" fill="none" />
  <path d="M 2533 675.5  C 2531.32 675.5  2530 674.18  2530 672.5  C 2530 670.82  2531.32 669.5  2533 669.5  C 2534.68 669.5  2536 670.82  2536 672.5  C 2536 674.18  2534.68 675.5  2533 675.5  " fill-rule="nonzero" fill="#797979" stroke="none" />
</svg>