<?xml version="1.0" encoding="utf-8"?>
<svg version="1.1" xmlns:xlink="http://www.w3.org/1999/xlink" width="12px" height="12px" viewBox="2577 696.5  12 12" xmlns="http://www.w3.org/2000/svg">
  <path d="M 2583 696.5  C 2586.36 696.5  2589 699.14  2589 702.5  C 2589 705.86  2586.36 708.5  2583 708.5  C 2579.64 708.5  2577 705.86  2577 702.5  C 2577 699.14  2579.64 696.5  2583 696.5  Z " fill-rule="nonzero" fill="#ffffff" stroke="none" />
  <path d="M 2583 697  C 2586.08 697  2588.5 699.42  2588.5 702.5  C 2588.5 705.58  2586.08 708  2583 708  C 2579.92 708  2577.5 705.58  2577.5 702.5  C 2577.5 699.42  2579.92 697  2583 697  Z " stroke-width="1" stroke="#333333" fill="none" />
  <path d="M 2583 705.5  C 2581.32 705.5  2580 704.18  2580 702.5  C 2580 700.82  2581.32 699.5  2583 699.5  C 2584.68 699.5  2586 700.82  2586 702.5  C 2586 704.18  2584.68 705.5  2583 705.5  " fill-rule="nonzero" fill="#333333" stroke="none" />
</svg>