<?xml version="1.0" encoding="utf-8"?>
<svg version="1.1" xmlns:xlink="http://www.w3.org/1999/xlink" width="12px" height="12px" viewBox="3293 696.5  12 12" xmlns="http://www.w3.org/2000/svg">
  <path d="M 3299 696.5  C 3302.36 696.5  3305 699.14  3305 702.5  C 3305 705.86  3302.36 708.5  3299 708.5  C 3295.64 708.5  3293 705.86  3293 702.5  C 3293 699.14  3295.64 696.5  3299 696.5  Z " fill-rule="nonzero" fill="#f0f0f0" stroke="none" />
  <path d="M 3299 697  C 3302.08 697  3304.5 699.42  3304.5 702.5  C 3304.5 705.58  3302.08 708  3299 708  C 3295.92 708  3293.5 705.58  3293.5 702.5  C 3293.5 699.42  3295.92 697  3299 697  Z " stroke-width="1" stroke="#333333" fill="none" />
  <path d="M 3299 705.5  C 3297.32 705.5  3296 704.18  3296 702.5  C 3296 700.82  3297.32 699.5  3299 699.5  C 3300.68 699.5  3302 700.82  3302 702.5  C 3302 704.18  3300.68 705.5  3299 705.5  " fill-rule="nonzero" fill="#333333" stroke="none" />
</svg>