<?xml version="1.0" encoding="utf-8"?>
<svg version="1.1" xmlns:xlink="http://www.w3.org/1999/xlink" width="12px" height="12px" viewBox="2977 754.5  12 12" xmlns="http://www.w3.org/2000/svg">
  <path d="M 2983 754.5  C 2986.36 754.5  2989 757.14  2989 760.5  C 2989 763.86  2986.36 766.5  2983 766.5  C 2979.64 766.5  2977 763.86  2977 760.5  C 2977 757.14  2979.64 754.5  2983 754.5  Z " fill-rule="nonzero" fill="#f0f0f0" stroke="none" />
  <path d="M 2983 755  C 2986.08 755  2988.5 757.42  2988.5 760.5  C 2988.5 763.58  2986.08 766  2983 766  C 2979.92 766  2977.5 763.58  2977.5 760.5  C 2977.5 757.42  2979.92 755  2983 755  Z " stroke-width="1" stroke="#333333" fill="none" />
  <path d="M 2983 763.5  C 2981.32 763.5  2980 762.18  2980 760.5  C 2980 758.82  2981.32 757.5  2983 757.5  C 2984.68 757.5  2986 758.82  2986 760.5  C 2986 762.18  2984.68 763.5  2983 763.5  " fill-rule="nonzero" fill="#333333" stroke="none" />
</svg>