<?xml version="1.0" encoding="utf-8"?>
<svg version="1.1" xmlns:xlink="http://www.w3.org/1999/xlink" width="12px" height="12px" viewBox="695 598.5  12 12" xmlns="http://www.w3.org/2000/svg">
  <path d="M 701 598.5  C 704.36 598.5  707 601.14  707 604.5  C 707 607.86  704.36 610.5  701 610.5  C 697.64 610.5  695 607.86  695 604.5  C 695 601.14  697.64 598.5  701 598.5  Z " fill-rule="nonzero" fill="#f0f0f0" stroke="none" />
  <path d="M 701 599  C 704.08 599  706.5 601.42  706.5 604.5  C 706.5 607.58  704.08 610  701 610  C 697.92 610  695.5 607.58  695.5 604.5  C 695.5 601.42  697.92 599  701 599  Z " stroke-width="1" stroke="#797979" fill="none" />
  <path d="M 701 607.5  C 699.32 607.5  698 606.18  698 604.5  C 698 602.82  699.32 601.5  701 601.5  C 702.68 601.5  704 602.82  704 604.5  C 704 606.18  702.68 607.5  701 607.5  " fill-rule="nonzero" fill="#797979" stroke="none" />
</svg>