<?xml version="1.0" encoding="utf-8"?>
<svg version="1.1" xmlns:xlink="http://www.w3.org/1999/xlink" width="12px" height="12px" viewBox="695 838.5  12 12" xmlns="http://www.w3.org/2000/svg">
  <path d="M 701 838.5  C 704.36 838.5  707 841.14  707 844.5  C 707 847.86  704.36 850.5  701 850.5  C 697.64 850.5  695 847.86  695 844.5  C 695 841.14  697.64 838.5  701 838.5  Z " fill-rule="nonzero" fill="#f0f0f0" stroke="none" />
  <path d="M 701 839  C 704.08 839  706.5 841.42  706.5 844.5  C 706.5 847.58  704.08 850  701 850  C 697.92 850  695.5 847.58  695.5 844.5  C 695.5 841.42  697.92 839  701 839  Z " stroke-width="1" stroke="#797979" fill="none" />
  <path d="M 701 847.5  C 699.32 847.5  698 846.18  698 844.5  C 698 842.82  699.32 841.5  701 841.5  C 702.68 841.5  704 842.82  704 844.5  C 704 846.18  702.68 847.5  701 847.5  " fill-rule="nonzero" fill="#797979" stroke="none" />
</svg>