<?xml version="1.0" encoding="utf-8"?>
<svg version="1.1" xmlns:xlink="http://www.w3.org/1999/xlink" width="12px" height="12px" viewBox="193 913.5  12 12" xmlns="http://www.w3.org/2000/svg">
  <path d="M 199 913.5  C 202.36 913.5  205 916.14  205 919.5  C 205 922.86  202.36 925.5  199 925.5  C 195.64 925.5  193 922.86  193 919.5  C 193 916.14  195.64 913.5  199 913.5  Z " fill-rule="nonzero" fill="#f0f0f0" stroke="none" />
  <path d="M 199 914  C 202.08 914  204.5 916.42  204.5 919.5  C 204.5 922.58  202.08 925  199 925  C 195.92 925  193.5 922.58  193.5 919.5  C 193.5 916.42  195.92 914  199 914  Z " stroke-width="1" stroke="#797979" fill="none" />
  <path d="M 199 922.5  C 197.32 922.5  196 921.18  196 919.5  C 196 917.82  197.32 916.5  199 916.5  C 200.68 916.5  202 917.82  202 919.5  C 202 921.18  200.68 922.5  199 922.5  " fill-rule="nonzero" fill="#797979" stroke="none" />
</svg>