<?xml version="1.0" encoding="utf-8"?>
<svg version="1.1" xmlns:xlink="http://www.w3.org/1999/xlink" width="12px" height="12px" viewBox="745 838.5  12 12" xmlns="http://www.w3.org/2000/svg">
  <path d="M 751 838.5  C 754.36 838.5  757 841.14  757 844.5  C 757 847.86  754.36 850.5  751 850.5  C 747.64 850.5  745 847.86  745 844.5  C 745 841.14  747.64 838.5  751 838.5  Z " fill-rule="nonzero" fill="#f0f0f0" stroke="none" />
  <path d="M 751 839  C 754.08 839  756.5 841.42  756.5 844.5  C 756.5 847.58  754.08 850  751 850  C 747.92 850  745.5 847.58  745.5 844.5  C 745.5 841.42  747.92 839  751 839  Z " stroke-width="1" stroke="#333333" fill="none" />
  <path d="M 751 847.5  C 749.32 847.5  748 846.18  748 844.5  C 748 842.82  749.32 841.5  751 841.5  C 752.68 841.5  754 842.82  754 844.5  C 754 846.18  752.68 847.5  751 847.5  " fill-rule="nonzero" fill="#333333" stroke="none" />
</svg>