<?xml version="1.0" encoding="utf-8"?>
<svg version="1.1" xmlns:xlink="http://www.w3.org/1999/xlink" width="12px" height="12px" viewBox="420 913.5  12 12" xmlns="http://www.w3.org/2000/svg">
  <path d="M 426 913.5  C 429.36 913.5  432 916.14  432 919.5  C 432 922.86  429.36 925.5  426 925.5  C 422.64 925.5  420 922.86  420 919.5  C 420 916.14  422.64 913.5  426 913.5  Z " fill-rule="nonzero" fill="#ffffff" stroke="none" />
  <path d="M 426 914  C 429.08 914  431.5 916.42  431.5 919.5  C 431.5 922.58  429.08 925  426 925  C 422.92 925  420.5 922.58  420.5 919.5  C 420.5 916.42  422.92 914  426 914  Z " stroke-width="1" stroke="#333333" fill="none" />
  <path d="M 426 922.5  C 424.32 922.5  423 921.18  423 919.5  C 423 917.82  424.32 916.5  426 916.5  C 427.68 916.5  429 917.82  429 919.5  C 429 921.18  427.68 922.5  426 922.5  " fill-rule="nonzero" fill="#333333" stroke="none" />
</svg>