<?xml version="1.0" encoding="utf-8"?>
<svg version="1.1" xmlns:xlink="http://www.w3.org/1999/xlink" width="12px" height="12px" viewBox="742 1442.5  12 12" xmlns="http://www.w3.org/2000/svg">
  <path d="M 748 1442.5  C 751.36 1442.5  754 1445.14  754 1448.5  C 754 1451.86  751.36 1454.5  748 1454.5  C 744.64 1454.5  742 1451.86  742 1448.5  C 742 1445.14  744.64 1442.5  748 1442.5  Z " fill-rule="nonzero" fill="#ffffff" stroke="none" />
  <path d="M 748 1443  C 751.08 1443  753.5 1445.42  753.5 1448.5  C 753.5 1451.58  751.08 1454  748 1454  C 744.92 1454  742.5 1451.58  742.5 1448.5  C 742.5 1445.42  744.92 1443  748 1443  Z " stroke-width="1" stroke="#333333" fill="none" />
  <path d="M 748 1451.5  C 746.32 1451.5  745 1450.18  745 1448.5  C 745 1446.82  746.32 1445.5  748 1445.5  C 749.68 1445.5  751 1446.82  751 1448.5  C 751 1450.18  749.68 1451.5  748 1451.5  " fill-rule="nonzero" fill="#333333" stroke="none" />
</svg>