<?xml version="1.0" encoding="utf-8"?>
<svg version="1.1" xmlns:xlink="http://www.w3.org/1999/xlink" width="12px" height="12px" viewBox="873 1972.5  12 12" xmlns="http://www.w3.org/2000/svg">
  <path d="M 879 1972.5  C 882.36 1972.5  885 1975.14  885 1978.5  C 885 1981.86  882.36 1984.5  879 1984.5  C 875.64 1984.5  873 1981.86  873 1978.5  C 873 1975.14  875.64 1972.5  879 1972.5  Z " fill-rule="nonzero" fill="#ffffff" stroke="none" />
  <path d="M 879 1973  C 882.08 1973  884.5 1975.42  884.5 1978.5  C 884.5 1981.58  882.08 1984  879 1984  C 875.92 1984  873.5 1981.58  873.5 1978.5  C 873.5 1975.42  875.92 1973  879 1973  Z " stroke-width="1" stroke="#797979" fill="none" />
  <path d="M 879 1981.5  C 877.32 1981.5  876 1980.18  876 1978.5  C 876 1976.82  877.32 1975.5  879 1975.5  C 880.68 1975.5  882 1976.82  882 1978.5  C 882 1980.18  880.68 1981.5  879 1981.5  " fill-rule="nonzero" fill="#797979" stroke="none" />
</svg>