<?xml version="1.0" encoding="utf-8"?>
<svg version="1.1" xmlns:xlink="http://www.w3.org/1999/xlink" width="12px" height="12px" viewBox="808 2318.5  12 12" xmlns="http://www.w3.org/2000/svg">
  <path d="M 814 2318.5  C 817.36 2318.5  820 2321.14  820 2324.5  C 820 2327.86  817.36 2330.5  814 2330.5  C 810.64 2330.5  808 2327.86  808 2324.5  C 808 2321.14  810.64 2318.5  814 2318.5  Z " fill-rule="nonzero" fill="#f0f0f0" stroke="none" />
  <path d="M 814 2319  C 817.08 2319  819.5 2321.42  819.5 2324.5  C 819.5 2327.58  817.08 2330  814 2330  C 810.92 2330  808.5 2327.58  808.5 2324.5  C 808.5 2321.42  810.92 2319  814 2319  Z " stroke-width="1" stroke="#333333" fill="none" />
  <path d="M 814 2327.5  C 812.32 2327.5  811 2326.18  811 2324.5  C 811 2322.82  812.32 2321.5  814 2321.5  C 815.68 2321.5  817 2322.82  817 2324.5  C 817 2326.18  815.68 2327.5  814 2327.5  " fill-rule="nonzero" fill="#333333" stroke="none" />
</svg>