<?xml version="1.0" encoding="utf-8"?>
<svg version="1.1" xmlns:xlink="http://www.w3.org/1999/xlink" width="12px" height="12px" viewBox="337 473.5  12 12" xmlns="http://www.w3.org/2000/svg">
  <path d="M 343 473.5  C 346.36 473.5  349 476.14  349 479.5  C 349 482.86  346.36 485.5  343 485.5  C 339.64 485.5  337 482.86  337 479.5  C 337 476.14  339.64 473.5  343 473.5  Z " fill-rule="nonzero" fill="#ffffff" stroke="none" />
  <path d="M 343 474  C 346.08 474  348.5 476.42  348.5 479.5  C 348.5 482.58  346.08 485  343 485  C 339.92 485  337.5 482.58  337.5 479.5  C 337.5 476.42  339.92 474  343 474  Z " stroke-width="1" stroke="#333333" fill="none" />
  <path d="M 343 482.5  C 341.32 482.5  340 481.18  340 479.5  C 340 477.82  341.32 476.5  343 476.5  C 344.68 476.5  346 477.82  346 479.5  C 346 481.18  344.68 482.5  343 482.5  " fill-rule="nonzero" fill="#333333" stroke="none" />
</svg>