<?xml version="1.0" encoding="utf-8"?>
<svg version="1.1" xmlns:xlink="http://www.w3.org/1999/xlink" width="12px" height="12px" viewBox="699 533.5  12 12" xmlns="http://www.w3.org/2000/svg">
  <path d="M 705 533.5  C 708.36 533.5  711 536.14  711 539.5  C 711 542.86  708.36 545.5  705 545.5  C 701.64 545.5  699 542.86  699 539.5  C 699 536.14  701.64 533.5  705 533.5  Z " fill-rule="nonzero" fill="#ffffff" stroke="none" />
  <path d="M 705 534  C 708.08 534  710.5 536.42  710.5 539.5  C 710.5 542.58  708.08 545  705 545  C 701.92 545  699.5 542.58  699.5 539.5  C 699.5 536.42  701.92 534  705 534  Z " stroke-width="1" stroke="#333333" fill="none" />
  <path d="M 705 542.5  C 703.32 542.5  702 541.18  702 539.5  C 702 537.82  703.32 536.5  705 536.5  C 706.68 536.5  708 537.82  708 539.5  C 708 541.18  706.68 542.5  705 542.5  " fill-rule="nonzero" fill="#333333" stroke="none" />
</svg>