<?xml version="1.0" encoding="utf-8"?>
<svg version="1.1" xmlns:xlink="http://www.w3.org/1999/xlink" width="12px" height="12px" viewBox="699 592.5  12 12" xmlns="http://www.w3.org/2000/svg">
  <path d="M 705 592.5  C 708.36 592.5  711 595.14  711 598.5  C 711 601.86  708.36 604.5  705 604.5  C 701.64 604.5  699 601.86  699 598.5  C 699 595.14  701.64 592.5  705 592.5  Z " fill-rule="nonzero" fill="#ffffff" stroke="none" />
  <path d="M 705 593  C 708.08 593  710.5 595.42  710.5 598.5  C 710.5 601.58  708.08 604  705 604  C 701.92 604  699.5 601.58  699.5 598.5  C 699.5 595.42  701.92 593  705 593  Z " stroke-width="1" stroke="#333333" fill="none" />
  <path d="M 705 601.5  C 703.32 601.5  702 600.18  702 598.5  C 702 596.82  703.32 595.5  705 595.5  C 706.68 595.5  708 596.82  708 598.5  C 708 600.18  706.68 601.5  705 601.5  " fill-rule="nonzero" fill="#333333" stroke="none" />
</svg>