<?xml version="1.0" encoding="utf-8"?>
<svg version="1.1" xmlns:xlink="http://www.w3.org/1999/xlink" width="12px" height="12px" viewBox="1015 473.5  12 12" xmlns="http://www.w3.org/2000/svg">
  <path d="M 1021 473.5  C 1024.36 473.5  1027 476.14  1027 479.5  C 1027 482.86  1024.36 485.5  1021 485.5  C 1017.64 485.5  1015 482.86  1015 479.5  C 1015 476.14  1017.64 473.5  1021 473.5  Z " fill-rule="nonzero" fill="#f0f0f0" stroke="none" />
  <path d="M 1021 474  C 1024.08 474  1026.5 476.42  1026.5 479.5  C 1026.5 482.58  1024.08 485  1021 485  C 1017.92 485  1015.5 482.58  1015.5 479.5  C 1015.5 476.42  1017.92 474  1021 474  Z " stroke-width="1" stroke="#333333" fill="none" />
  <path d="M 1021 482.5  C 1019.32 482.5  1018 481.18  1018 479.5  C 1018 477.82  1019.32 476.5  1021 476.5  C 1022.68 476.5  1024 477.82  1024 479.5  C 1024 481.18  1022.68 482.5  1021 482.5  " fill-rule="nonzero" fill="#333333" stroke="none" />
</svg>