<?xml version="1.0" encoding="utf-8"?>
<svg version="1.1" xmlns:xlink="http://www.w3.org/1999/xlink" width="12px" height="12px" viewBox="1003 702.5  12 12" xmlns="http://www.w3.org/2000/svg">
  <path d="M 1009 702.5  C 1012.36 702.5  1015 705.14  1015 708.5  C 1015 711.86  1012.36 714.5  1009 714.5  C 1005.64 714.5  1003 711.86  1003 708.5  C 1003 705.14  1005.64 702.5  1009 702.5  Z " fill-rule="nonzero" fill="#f0f0f0" stroke="none" />
  <path d="M 1009 703  C 1012.08 703  1014.5 705.42  1014.5 708.5  C 1014.5 711.58  1012.08 714  1009 714  C 1005.92 714  1003.5 711.58  1003.5 708.5  C 1003.5 705.42  1005.92 703  1009 703  Z " stroke-width="1" stroke="#797979" fill="none" />
  <path d="M 1009 711.5  C 1007.32 711.5  1006 710.18  1006 708.5  C 1006 706.82  1007.32 705.5  1009 705.5  C 1010.68 705.5  1012 706.82  1012 708.5  C 1012 710.18  1010.68 711.5  1009 711.5  " fill-rule="nonzero" fill="#797979" stroke="none" />
</svg>