<?xml version="1.0" encoding="utf-8"?>
<svg version="1.1" xmlns:xlink="http://www.w3.org/1999/xlink" width="12px" height="12px" viewBox="228 637.5  12 12" xmlns="http://www.w3.org/2000/svg">
  <path d="M 234 637.5  C 237.36 637.5  240 640.14  240 643.5  C 240 646.86  237.36 649.5  234 649.5  C 230.64 649.5  228 646.86  228 643.5  C 228 640.14  230.64 637.5  234 637.5  Z " fill-rule="nonzero" fill="#f0f0f0" stroke="none" />
  <path d="M 234 638  C 237.08 638  239.5 640.42  239.5 643.5  C 239.5 646.58  237.08 649  234 649  C 230.92 649  228.5 646.58  228.5 643.5  C 228.5 640.42  230.92 638  234 638  Z " stroke-width="1" stroke="#797979" fill="none" />
  <path d="M 234 646.5  C 232.32 646.5  231 645.18  231 643.5  C 231 641.82  232.32 640.5  234 640.5  C 235.68 640.5  237 641.82  237 643.5  C 237 645.18  235.68 646.5  234 646.5  " fill-rule="nonzero" fill="#797979" stroke="none" />
</svg>