<?xml version="1.0" encoding="utf-8"?>
<svg version="1.1" xmlns:xlink="http://www.w3.org/1999/xlink" width="12px" height="12px" viewBox="286 637.5  12 12" xmlns="http://www.w3.org/2000/svg">
  <path d="M 292 637.5  C 295.36 637.5  298 640.14  298 643.5  C 298 646.86  295.36 649.5  292 649.5  C 288.64 649.5  286 646.86  286 643.5  C 286 640.14  288.64 637.5  292 637.5  Z " fill-rule="nonzero" fill="#f0f0f0" stroke="none" />
  <path d="M 292 638  C 295.08 638  297.5 640.42  297.5 643.5  C 297.5 646.58  295.08 649  292 649  C 288.92 649  286.5 646.58  286.5 643.5  C 286.5 640.42  288.92 638  292 638  Z " stroke-width="1" stroke="#797979" fill="none" />
  <path d="M 292 646.5  C 290.32 646.5  289 645.18  289 643.5  C 289 641.82  290.32 640.5  292 640.5  C 293.68 640.5  295 641.82  295 643.5  C 295 645.18  293.68 646.5  292 646.5  " fill-rule="nonzero" fill="#797979" stroke="none" />
</svg>