<?xml version="1.0" encoding="utf-8"?>
<svg version="1.1" xmlns:xlink="http://www.w3.org/1999/xlink" width="12px" height="12px" viewBox="233 696.5  12 12" xmlns="http://www.w3.org/2000/svg">
  <path d="M 239 696.5  C 242.36 696.5  245 699.14  245 702.5  C 245 705.86  242.36 708.5  239 708.5  C 235.64 708.5  233 705.86  233 702.5  C 233 699.14  235.64 696.5  239 696.5  Z " fill-rule="nonzero" fill="#ffffff" stroke="none" />
  <path d="M 239 697  C 242.08 697  244.5 699.42  244.5 702.5  C 244.5 705.58  242.08 708  239 708  C 235.92 708  233.5 705.58  233.5 702.5  C 233.5 699.42  235.92 697  239 697  Z " stroke-width="1" stroke="#797979" fill="none" />
  <path d="M 239 705.5  C 237.32 705.5  236 704.18  236 702.5  C 236 700.82  237.32 699.5  239 699.5  C 240.68 699.5  242 700.82  242 702.5  C 242 704.18  240.68 705.5  239 705.5  " fill-rule="nonzero" fill="#797979" stroke="none" />
</svg>