<?xml version="1.0" encoding="utf-8"?>
<svg version="1.1" xmlns:xlink="http://www.w3.org/1999/xlink" width="12px" height="12px" viewBox="265 726.5  12 12" xmlns="http://www.w3.org/2000/svg">
  <path d="M 271 726.5  C 274.36 726.5  277 729.14  277 732.5  C 277 735.86  274.36 738.5  271 738.5  C 267.64 738.5  265 735.86  265 732.5  C 265 729.14  267.64 726.5  271 726.5  Z " fill-rule="nonzero" fill="#f0f0f0" stroke="none" />
  <path d="M 271 727  C 274.08 727  276.5 729.42  276.5 732.5  C 276.5 735.58  274.08 738  271 738  C 267.92 738  265.5 735.58  265.5 732.5  C 265.5 729.42  267.92 727  271 727  Z " stroke-width="1" stroke="#8080ff" fill="none" />
  <path d="M 271 735.5  C 269.32 735.5  268 734.18  268 732.5  C 268 730.82  269.32 729.5  271 729.5  C 272.68 729.5  274 730.82  274 732.5  C 274 734.18  272.68 735.5  271 735.5  " fill-rule="nonzero" fill="#8080ff" stroke="none" />
</svg>