<?xml version="1.0" encoding="utf-8"?>
<svg version="1.1" xmlns:xlink="http://www.w3.org/1999/xlink" width="12px" height="12px" viewBox="286 696.5  12 12" xmlns="http://www.w3.org/2000/svg">
  <path d="M 292 696.5  C 295.36 696.5  298 699.14  298 702.5  C 298 705.86  295.36 708.5  292 708.5  C 288.64 708.5  286 705.86  286 702.5  C 286 699.14  288.64 696.5  292 696.5  Z " fill-rule="nonzero" fill="#ffffff" stroke="none" />
  <path d="M 292 697  C 295.08 697  297.5 699.42  297.5 702.5  C 297.5 705.58  295.08 708  292 708  C 288.92 708  286.5 705.58  286.5 702.5  C 286.5 699.42  288.92 697  292 697  Z " stroke-width="1" stroke="#797979" fill="none" />
  <path d="M 292 705.5  C 290.32 705.5  289 704.18  289 702.5  C 289 700.82  290.32 699.5  292 699.5  C 293.68 699.5  295 700.82  295 702.5  C 295 704.18  293.68 705.5  292 705.5  " fill-rule="nonzero" fill="#797979" stroke="none" />
</svg>