<?xml version="1.0" encoding="utf-8"?>
<svg version="1.1" xmlns:xlink="http://www.w3.org/1999/xlink" width="12px" height="12px" viewBox="346 696.5  12 12" xmlns="http://www.w3.org/2000/svg">
  <path d="M 352 696.5  C 355.36 696.5  358 699.14  358 702.5  C 358 705.86  355.36 708.5  352 708.5  C 348.64 708.5  346 705.86  346 702.5  C 346 699.14  348.64 696.5  352 696.5  Z " fill-rule="nonzero" fill="#f0f0f0" stroke="none" />
  <path d="M 352 697  C 355.08 697  357.5 699.42  357.5 702.5  C 357.5 705.58  355.08 708  352 708  C 348.92 708  346.5 705.58  346.5 702.5  C 346.5 699.42  348.92 697  352 697  Z " stroke-width="1" stroke="#797979" fill="none" />
  <path d="M 352 705.5  C 350.32 705.5  349 704.18  349 702.5  C 349 700.82  350.32 699.5  352 699.5  C 353.68 699.5  355 700.82  355 702.5  C 355 704.18  353.68 705.5  352 705.5  " fill-rule="nonzero" fill="#797979" stroke="none" />
</svg>