<?xml version="1.0" encoding="utf-8"?>
<svg version="1.1" xmlns:xlink="http://www.w3.org/1999/xlink" width="12px" height="12px" viewBox="341 637.5  12 12" xmlns="http://www.w3.org/2000/svg">
  <path d="M 347 637.5  C 350.36 637.5  353 640.14  353 643.5  C 353 646.86  350.36 649.5  347 649.5  C 343.64 649.5  341 646.86  341 643.5  C 341 640.14  343.64 637.5  347 637.5  Z " fill-rule="nonzero" fill="#f0f0f0" stroke="none" />
  <path d="M 347 638  C 350.08 638  352.5 640.42  352.5 643.5  C 352.5 646.58  350.08 649  347 649  C 343.92 649  341.5 646.58  341.5 643.5  C 341.5 640.42  343.92 638  347 638  Z " stroke-width="1" stroke="#797979" fill="none" />
  <path d="M 347 646.5  C 345.32 646.5  344 645.18  344 643.5  C 344 641.82  345.32 640.5  347 640.5  C 348.68 640.5  350 641.82  350 643.5  C 350 645.18  348.68 646.5  347 646.5  " fill-rule="nonzero" fill="#797979" stroke="none" />
</svg>