<?xml version="1.0" encoding="utf-8"?>
<svg version="1.1" xmlns:xlink="http://www.w3.org/1999/xlink" width="12px" height="12px" viewBox="209 726.5  12 12" xmlns="http://www.w3.org/2000/svg">
  <path d="M 215 726.5  C 218.36 726.5  221 729.14  221 732.5  C 221 735.86  218.36 738.5  215 738.5  C 211.64 738.5  209 735.86  209 732.5  C 209 729.14  211.64 726.5  215 726.5  Z " fill-rule="nonzero" fill="#f0f0f0" stroke="none" />
  <path d="M 215 727  C 218.08 727  220.5 729.42  220.5 732.5  C 220.5 735.58  218.08 738  215 738  C 211.92 738  209.5 735.58  209.5 732.5  C 209.5 729.42  211.92 727  215 727  Z " stroke-width="1" stroke="#797979" fill="none" />
  <path d="M 215 735.5  C 213.32 735.5  212 734.18  212 732.5  C 212 730.82  213.32 729.5  215 729.5  C 216.68 729.5  218 730.82  218 732.5  C 218 734.18  216.68 735.5  215 735.5  " fill-rule="nonzero" fill="#797979" stroke="none" />
</svg>