<?xml version="1.0" encoding="utf-8"?>
<svg version="1.1" xmlns:xlink="http://www.w3.org/1999/xlink" width="12px" height="12px" viewBox="325 786.5  12 12" xmlns="http://www.w3.org/2000/svg">
  <path d="M 331 786.5  C 334.36 786.5  337 789.14  337 792.5  C 337 795.86  334.36 798.5  331 798.5  C 327.64 798.5  325 795.86  325 792.5  C 325 789.14  327.64 786.5  331 786.5  Z " fill-rule="nonzero" fill="#ffffff" stroke="none" />
  <path d="M 331 787  C 334.08 787  336.5 789.42  336.5 792.5  C 336.5 795.58  334.08 798  331 798  C 327.92 798  325.5 795.58  325.5 792.5  C 325.5 789.42  327.92 787  331 787  Z " stroke-width="1" stroke="#797979" fill="none" />
  <path d="M 331 795.5  C 329.32 795.5  328 794.18  328 792.5  C 328 790.82  329.32 789.5  331 789.5  C 332.68 789.5  334 790.82  334 792.5  C 334 794.18  332.68 795.5  331 795.5  " fill-rule="nonzero" fill="#797979" stroke="none" />
</svg>