<?xml version="1.0" encoding="utf-8"?>
<svg version="1.1" xmlns:xlink="http://www.w3.org/1999/xlink" width="12px" height="12px" viewBox="382 786.5  12 12" xmlns="http://www.w3.org/2000/svg">
  <path d="M 388 786.5  C 391.36 786.5  394 789.14  394 792.5  C 394 795.86  391.36 798.5  388 798.5  C 384.64 798.5  382 795.86  382 792.5  C 382 789.14  384.64 786.5  388 786.5  Z " fill-rule="nonzero" fill="#ffffff" stroke="none" />
  <path d="M 388 787  C 391.08 787  393.5 789.42  393.5 792.5  C 393.5 795.58  391.08 798  388 798  C 384.92 798  382.5 795.58  382.5 792.5  C 382.5 789.42  384.92 787  388 787  Z " stroke-width="1" stroke="#797979" fill="none" />
  <path d="M 388 795.5  C 386.32 795.5  385 794.18  385 792.5  C 385 790.82  386.32 789.5  388 789.5  C 389.68 789.5  391 790.82  391 792.5  C 391 794.18  389.68 795.5  388 795.5  " fill-rule="nonzero" fill="#797979" stroke="none" />
</svg>