<?xml version="1.0" encoding="utf-8"?>
<svg version="1.1" xmlns:xlink="http://www.w3.org/1999/xlink" width="12px" height="12px" viewBox="265 753.5  12 12" xmlns="http://www.w3.org/2000/svg">
  <path d="M 271 753.5  C 274.36 753.5  277 756.14  277 759.5  C 277 762.86  274.36 765.5  271 765.5  C 267.64 765.5  265 762.86  265 759.5  C 265 756.14  267.64 753.5  271 753.5  Z " fill-rule="nonzero" fill="#ffffff" stroke="none" />
  <path d="M 271 754  C 274.08 754  276.5 756.42  276.5 759.5  C 276.5 762.58  274.08 765  271 765  C 267.92 765  265.5 762.58  265.5 759.5  C 265.5 756.42  267.92 754  271 754  Z " stroke-width="1" stroke="#8080ff" fill="none" />
  <path d="M 271 762.5  C 269.32 762.5  268 761.18  268 759.5  C 268 757.82  269.32 756.5  271 756.5  C 272.68 756.5  274 757.82  274 759.5  C 274 761.18  272.68 762.5  271 762.5  " fill-rule="nonzero" fill="#8080ff" stroke="none" />
</svg>