<?xml version="1.0" encoding="utf-8"?>
<svg version="1.1" xmlns:xlink="http://www.w3.org/1999/xlink" width="12px" height="12px" viewBox="209 753.5  12 12" xmlns="http://www.w3.org/2000/svg">
  <path d="M 215 753.5  C 218.36 753.5  221 756.14  221 759.5  C 221 762.86  218.36 765.5  215 765.5  C 211.64 765.5  209 762.86  209 759.5  C 209 756.14  211.64 753.5  215 753.5  Z " fill-rule="nonzero" fill="#ffffff" stroke="none" />
  <path d="M 215 754  C 218.08 754  220.5 756.42  220.5 759.5  C 220.5 762.58  218.08 765  215 765  C 211.92 765  209.5 762.58  209.5 759.5  C 209.5 756.42  211.92 754  215 754  Z " stroke-width="1" stroke="#797979" fill="none" />
  <path d="M 215 762.5  C 213.32 762.5  212 761.18  212 759.5  C 212 757.82  213.32 756.5  215 756.5  C 216.68 756.5  218 757.82  218 759.5  C 218 761.18  216.68 762.5  215 762.5  " fill-rule="nonzero" fill="#797979" stroke="none" />
</svg>