<?xml version="1.0" encoding="utf-8"?>
<svg version="1.1" xmlns:xlink="http://www.w3.org/1999/xlink" width="12px" height="12px" viewBox="209 786.5  12 12" xmlns="http://www.w3.org/2000/svg">
  <path d="M 215 786.5  C 218.36 786.5  221 789.14  221 792.5  C 221 795.86  218.36 798.5  215 798.5  C 211.64 798.5  209 795.86  209 792.5  C 209 789.14  211.64 786.5  215 786.5  Z " fill-rule="nonzero" fill="#f0f0f0" stroke="none" />
  <path d="M 215 787  C 218.08 787  220.5 789.42  220.5 792.5  C 220.5 795.58  218.08 798  215 798  C 211.92 798  209.5 795.58  209.5 792.5  C 209.5 789.42  211.92 787  215 787  Z " stroke-width="1" stroke="#797979" fill="none" />
  <path d="M 215 795.5  C 213.32 795.5  212 794.18  212 792.5  C 212 790.82  213.32 789.5  215 789.5  C 216.68 789.5  218 790.82  218 792.5  C 218 794.18  216.68 795.5  215 795.5  " fill-rule="nonzero" fill="#797979" stroke="none" />
</svg>