<?xml version="1.0" encoding="utf-8"?>
<svg version="1.1" xmlns:xlink="http://www.w3.org/1999/xlink" width="12px" height="12px" viewBox="325 753.5  12 12" xmlns="http://www.w3.org/2000/svg">
  <path d="M 331 753.5  C 334.36 753.5  337 756.14  337 759.5  C 337 762.86  334.36 765.5  331 765.5  C 327.64 765.5  325 762.86  325 759.5  C 325 756.14  327.64 753.5  331 753.5  Z " fill-rule="nonzero" fill="#f0f0f0" stroke="none" />
  <path d="M 331 754  C 334.08 754  336.5 756.42  336.5 759.5  C 336.5 762.58  334.08 765  331 765  C 327.92 765  325.5 762.58  325.5 759.5  C 325.5 756.42  327.92 754  331 754  Z " stroke-width="1" stroke="#8080ff" fill="none" />
  <path d="M 331 762.5  C 329.32 762.5  328 761.18  328 759.5  C 328 757.82  329.32 756.5  331 756.5  C 332.68 756.5  334 757.82  334 759.5  C 334 761.18  332.68 762.5  331 762.5  " fill-rule="nonzero" fill="#8080ff" stroke="none" />
</svg>