<?xml version="1.0" encoding="utf-8"?>
<svg version="1.1" xmlns:xlink="http://www.w3.org/1999/xlink" width="12px" height="12px" viewBox="209 825.5  12 12" xmlns="http://www.w3.org/2000/svg">
  <path d="M 215 825.5  C 218.36 825.5  221 828.14  221 831.5  C 221 834.86  218.36 837.5  215 837.5  C 211.64 837.5  209 834.86  209 831.5  C 209 828.14  211.64 825.5  215 825.5  Z " fill-rule="nonzero" fill="#f0f0f0" stroke="none" />
  <path d="M 215 826  C 218.08 826  220.5 828.42  220.5 831.5  C 220.5 834.58  218.08 837  215 837  C 211.92 837  209.5 834.58  209.5 831.5  C 209.5 828.42  211.92 826  215 826  Z " stroke-width="1" stroke="#797979" fill="none" />
  <path d="M 215 834.5  C 213.32 834.5  212 833.18  212 831.5  C 212 829.82  213.32 828.5  215 828.5  C 216.68 828.5  218 829.82  218 831.5  C 218 833.18  216.68 834.5  215 834.5  " fill-rule="nonzero" fill="#797979" stroke="none" />
</svg>