<?xml version="1.0" encoding="utf-8"?>
<svg version="1.1" xmlns:xlink="http://www.w3.org/1999/xlink" width="12px" height="12px" viewBox="325 825.5  12 12" xmlns="http://www.w3.org/2000/svg">
  <path d="M 331 825.5  C 334.36 825.5  337 828.14  337 831.5  C 337 834.86  334.36 837.5  331 837.5  C 327.64 837.5  325 834.86  325 831.5  C 325 828.14  327.64 825.5  331 825.5  Z " fill-rule="nonzero" fill="#ffffff" stroke="none" />
  <path d="M 331 826  C 334.08 826  336.5 828.42  336.5 831.5  C 336.5 834.58  334.08 837  331 837  C 327.92 837  325.5 834.58  325.5 831.5  C 325.5 828.42  327.92 826  331 826  Z " stroke-width="1" stroke="#797979" fill="none" />
  <path d="M 331 834.5  C 329.32 834.5  328 833.18  328 831.5  C 328 829.82  329.32 828.5  331 828.5  C 332.68 828.5  334 829.82  334 831.5  C 334 833.18  332.68 834.5  331 834.5  " fill-rule="nonzero" fill="#797979" stroke="none" />
</svg>