<?xml version="1.0" encoding="utf-8"?>
<svg version="1.1" xmlns:xlink="http://www.w3.org/1999/xlink" width="12px" height="12px" viewBox="325 854.5  12 12" xmlns="http://www.w3.org/2000/svg">
  <path d="M 331 854.5  C 334.36 854.5  337 857.14  337 860.5  C 337 863.86  334.36 866.5  331 866.5  C 327.64 866.5  325 863.86  325 860.5  C 325 857.14  327.64 854.5  331 854.5  Z " fill-rule="nonzero" fill="#f0f0f0" stroke="none" />
  <path d="M 331 855  C 334.08 855  336.5 857.42  336.5 860.5  C 336.5 863.58  334.08 866  331 866  C 327.92 866  325.5 863.58  325.5 860.5  C 325.5 857.42  327.92 855  331 855  Z " stroke-width="1" stroke="#8080ff" fill="none" />
  <path d="M 331 863.5  C 329.32 863.5  328 862.18  328 860.5  C 328 858.82  329.32 857.5  331 857.5  C 332.68 857.5  334 858.82  334 860.5  C 334 862.18  332.68 863.5  331 863.5  " fill-rule="nonzero" fill="#8080ff" stroke="none" />
</svg>