<?xml version="1.0" encoding="utf-8"?>
<svg version="1.1" xmlns:xlink="http://www.w3.org/1999/xlink" width="12px" height="12px" viewBox="209 854.5  12 12" xmlns="http://www.w3.org/2000/svg">
  <path d="M 215 854.5  C 218.36 854.5  221 857.14  221 860.5  C 221 863.86  218.36 866.5  215 866.5  C 211.64 866.5  209 863.86  209 860.5  C 209 857.14  211.64 854.5  215 854.5  Z " fill-rule="nonzero" fill="#ffffff" stroke="none" />
  <path d="M 215 855  C 218.08 855  220.5 857.42  220.5 860.5  C 220.5 863.58  218.08 866  215 866  C 211.92 866  209.5 863.58  209.5 860.5  C 209.5 857.42  211.92 855  215 855  Z " stroke-width="1" stroke="#797979" fill="none" />
  <path d="M 215 863.5  C 213.32 863.5  212 862.18  212 860.5  C 212 858.82  213.32 857.5  215 857.5  C 216.68 857.5  218 858.82  218 860.5  C 218 862.18  216.68 863.5  215 863.5  " fill-rule="nonzero" fill="#797979" stroke="none" />
</svg>