<?xml version="1.0" encoding="utf-8"?>
<svg version="1.1" xmlns:xlink="http://www.w3.org/1999/xlink" width="12px" height="12px" viewBox="236 935.5  12 12" xmlns="http://www.w3.org/2000/svg">
  <path d="M 242 935.5  C 245.36 935.5  248 938.14  248 941.5  C 248 944.86  245.36 947.5  242 947.5  C 238.64 947.5  236 944.86  236 941.5  C 236 938.14  238.64 935.5  242 935.5  Z " fill-rule="nonzero" fill="#f0f0f0" stroke="none" />
  <path d="M 242 936  C 245.08 936  247.5 938.42  247.5 941.5  C 247.5 944.58  245.08 947  242 947  C 238.92 947  236.5 944.58  236.5 941.5  C 236.5 938.42  238.92 936  242 936  Z " stroke-width="1" stroke="#797979" fill="none" />
  <path d="M 242 944.5  C 240.32 944.5  239 943.18  239 941.5  C 239 939.82  240.32 938.5  242 938.5  C 243.68 938.5  245 939.82  245 941.5  C 245 943.18  243.68 944.5  242 944.5  " fill-rule="nonzero" fill="#797979" stroke="none" />
</svg>