<?xml version="1.0" encoding="utf-8"?>
<svg version="1.1" xmlns:xlink="http://www.w3.org/1999/xlink" width="12px" height="12px" viewBox="241 967.5  12 12" xmlns="http://www.w3.org/2000/svg">
  <path d="M 247 967.5  C 250.36 967.5  253 970.14  253 973.5  C 253 976.86  250.36 979.5  247 979.5  C 243.64 979.5  241 976.86  241 973.5  C 241 970.14  243.64 967.5  247 967.5  Z " fill-rule="nonzero" fill="#f0f0f0" stroke="none" />
  <path d="M 247 968  C 250.08 968  252.5 970.42  252.5 973.5  C 252.5 976.58  250.08 979  247 979  C 243.92 979  241.5 976.58  241.5 973.5  C 241.5 970.42  243.92 968  247 968  Z " stroke-width="1" stroke="#797979" fill="none" />
  <path d="M 247 976.5  C 245.32 976.5  244 975.18  244 973.5  C 244 971.82  245.32 970.5  247 970.5  C 248.68 970.5  250 971.82  250 973.5  C 250 975.18  248.68 976.5  247 976.5  " fill-rule="nonzero" fill="#797979" stroke="none" />
</svg>