<?xml version="1.0" encoding="utf-8"?>
<svg version="1.1" xmlns:xlink="http://www.w3.org/1999/xlink" width="12px" height="12px" viewBox="294 967.5  12 12" xmlns="http://www.w3.org/2000/svg">
  <path d="M 300 967.5  C 303.36 967.5  306 970.14  306 973.5  C 306 976.86  303.36 979.5  300 979.5  C 296.64 979.5  294 976.86  294 973.5  C 294 970.14  296.64 967.5  300 967.5  Z " fill-rule="nonzero" fill="#ffffff" stroke="none" />
  <path d="M 300 968  C 303.08 968  305.5 970.42  305.5 973.5  C 305.5 976.58  303.08 979  300 979  C 296.92 979  294.5 976.58  294.5 973.5  C 294.5 970.42  296.92 968  300 968  Z " stroke-width="1" stroke="#797979" fill="none" />
  <path d="M 300 976.5  C 298.32 976.5  297 975.18  297 973.5  C 297 971.82  298.32 970.5  300 970.5  C 301.68 970.5  303 971.82  303 973.5  C 303 975.18  301.68 976.5  300 976.5  " fill-rule="nonzero" fill="#797979" stroke="none" />
</svg>