<?xml version="1.0" encoding="utf-8"?>
<svg version="1.1" xmlns:xlink="http://www.w3.org/1999/xlink" width="12px" height="12px" viewBox="186 967.5  12 12" xmlns="http://www.w3.org/2000/svg">
  <path d="M 192 967.5  C 195.36 967.5  198 970.14  198 973.5  C 198 976.86  195.36 979.5  192 979.5  C 188.64 979.5  186 976.86  186 973.5  C 186 970.14  188.64 967.5  192 967.5  Z " fill-rule="nonzero" fill="#f0f0f0" stroke="none" />
  <path d="M 192 968  C 195.08 968  197.5 970.42  197.5 973.5  C 197.5 976.58  195.08 979  192 979  C 188.92 979  186.5 976.58  186.5 973.5  C 186.5 970.42  188.92 968  192 968  Z " stroke-width="1" stroke="#797979" fill="none" />
  <path d="M 192 976.5  C 190.32 976.5  189 975.18  189 973.5  C 189 971.82  190.32 970.5  192 970.5  C 193.68 970.5  195 971.82  195 973.5  C 195 975.18  193.68 976.5  192 976.5  " fill-rule="nonzero" fill="#797979" stroke="none" />
</svg>