<?xml version="1.0" encoding="utf-8"?>
<svg version="1.1" xmlns:xlink="http://www.w3.org/1999/xlink" width="12px" height="12px" viewBox="349 935.5  12 12" xmlns="http://www.w3.org/2000/svg">
  <path d="M 355 935.5  C 358.36 935.5  361 938.14  361 941.5  C 361 944.86  358.36 947.5  355 947.5  C 351.64 947.5  349 944.86  349 941.5  C 349 938.14  351.64 935.5  355 935.5  Z " fill-rule="nonzero" fill="#ffffff" stroke="none" />
  <path d="M 355 936  C 358.08 936  360.5 938.42  360.5 941.5  C 360.5 944.58  358.08 947  355 947  C 351.92 947  349.5 944.58  349.5 941.5  C 349.5 938.42  351.92 936  355 936  Z " stroke-width="1" stroke="#797979" fill="none" />
  <path d="M 355 944.5  C 353.32 944.5  352 943.18  352 941.5  C 352 939.82  353.32 938.5  355 938.5  C 356.68 938.5  358 939.82  358 941.5  C 358 943.18  356.68 944.5  355 944.5  " fill-rule="nonzero" fill="#797979" stroke="none" />
</svg>