<?xml version="1.0" encoding="utf-8"?>
<svg version="1.1" xmlns:xlink="http://www.w3.org/1999/xlink" width="12px" height="12px" viewBox="686 381.5  12 12" xmlns="http://www.w3.org/2000/svg">
  <path d="M 692 381.5  C 695.36 381.5  698 384.14  698 387.5  C 698 390.86  695.36 393.5  692 393.5  C 688.64 393.5  686 390.86  686 387.5  C 686 384.14  688.64 381.5  692 381.5  Z " fill-rule="nonzero" fill="#ffffff" stroke="none" />
  <path d="M 692 382  C 695.08 382  697.5 384.42  697.5 387.5  C 697.5 390.58  695.08 393  692 393  C 688.92 393  686.5 390.58  686.5 387.5  C 686.5 384.42  688.92 382  692 382  Z " stroke-width="1" stroke="#797979" fill="none" />
  <path d="M 692 390.5  C 690.32 390.5  689 389.18  689 387.5  C 689 385.82  690.32 384.5  692 384.5  C 693.68 384.5  695 385.82  695 387.5  C 695 389.18  693.68 390.5  692 390.5  " fill-rule="nonzero" fill="#797979" stroke="none" />
</svg>