<?xml version="1.0" encoding="utf-8"?>
<svg version="1.1" xmlns:xlink="http://www.w3.org/1999/xlink" width="12px" height="12px" viewBox="775 439.5  12 12" xmlns="http://www.w3.org/2000/svg">
  <path d="M 781 439.5  C 784.36 439.5  787 442.14  787 445.5  C 787 448.86  784.36 451.5  781 451.5  C 777.64 451.5  775 448.86  775 445.5  C 775 442.14  777.64 439.5  781 439.5  Z " fill-rule="nonzero" fill="#f0f0f0" stroke="none" />
  <path d="M 781 440  C 784.08 440  786.5 442.42  786.5 445.5  C 786.5 448.58  784.08 451  781 451  C 777.92 451  775.5 448.58  775.5 445.5  C 775.5 442.42  777.92 440  781 440  Z " stroke-width="1" stroke="#797979" fill="none" />
  <path d="M 781 448.5  C 779.32 448.5  778 447.18  778 445.5  C 778 443.82  779.32 442.5  781 442.5  C 782.68 442.5  784 443.82  784 445.5  C 784 447.18  782.68 448.5  781 448.5  " fill-rule="nonzero" fill="#797979" stroke="none" />
</svg>