<?xml version="1.0" encoding="utf-8"?>
<svg version="1.1" xmlns:xlink="http://www.w3.org/1999/xlink" width="12px" height="12px" viewBox="716 545.5  12 12" xmlns="http://www.w3.org/2000/svg">
  <path d="M 722 545.5  C 725.36 545.5  728 548.14  728 551.5  C 728 554.86  725.36 557.5  722 557.5  C 718.64 557.5  716 554.86  716 551.5  C 716 548.14  718.64 545.5  722 545.5  Z " fill-rule="nonzero" fill="#ffffff" stroke="none" />
  <path d="M 722 546  C 725.08 546  727.5 548.42  727.5 551.5  C 727.5 554.58  725.08 557  722 557  C 718.92 557  716.5 554.58  716.5 551.5  C 716.5 548.42  718.92 546  722 546  Z " stroke-width="1" stroke="#797979" fill="none" />
  <path d="M 722 554.5  C 720.32 554.5  719 553.18  719 551.5  C 719 549.82  720.32 548.5  722 548.5  C 723.68 548.5  725 549.82  725 551.5  C 725 553.18  723.68 554.5  722 554.5  " fill-rule="nonzero" fill="#797979" stroke="none" />
</svg>