<?xml version="1.0" encoding="utf-8"?>
<svg version="1.1" xmlns:xlink="http://www.w3.org/1999/xlink" width="12px" height="12px" viewBox="840 545.5  12 12" xmlns="http://www.w3.org/2000/svg">
  <path d="M 846 545.5  C 849.36 545.5  852 548.14  852 551.5  C 852 554.86  849.36 557.5  846 557.5  C 842.64 557.5  840 554.86  840 551.5  C 840 548.14  842.64 545.5  846 545.5  Z " fill-rule="nonzero" fill="#ffffff" stroke="none" />
  <path d="M 846 546  C 849.08 546  851.5 548.42  851.5 551.5  C 851.5 554.58  849.08 557  846 557  C 842.92 557  840.5 554.58  840.5 551.5  C 840.5 548.42  842.92 546  846 546  Z " stroke-width="1" stroke="#797979" fill="none" />
  <path d="M 846 554.5  C 844.32 554.5  843 553.18  843 551.5  C 843 549.82  844.32 548.5  846 548.5  C 847.68 548.5  849 549.82  849 551.5  C 849 553.18  847.68 554.5  846 554.5  " fill-rule="nonzero" fill="#797979" stroke="none" />
</svg>