<?xml version="1.0" encoding="utf-8"?>
<svg version="1.1" xmlns:xlink="http://www.w3.org/1999/xlink" width="12px" height="12px" viewBox="716 746.5  12 12" xmlns="http://www.w3.org/2000/svg">
  <path d="M 722 746.5  C 725.36 746.5  728 749.14  728 752.5  C 728 755.86  725.36 758.5  722 758.5  C 718.64 758.5  716 755.86  716 752.5  C 716 749.14  718.64 746.5  722 746.5  Z " fill-rule="nonzero" fill="#f0f0f0" stroke="none" />
  <path d="M 722 747  C 725.08 747  727.5 749.42  727.5 752.5  C 727.5 755.58  725.08 758  722 758  C 718.92 758  716.5 755.58  716.5 752.5  C 716.5 749.42  718.92 747  722 747  Z " stroke-width="1" stroke="#797979" fill="none" />
  <path d="M 722 755.5  C 720.32 755.5  719 754.18  719 752.5  C 719 750.82  720.32 749.5  722 749.5  C 723.68 749.5  725 750.82  725 752.5  C 725 754.18  723.68 755.5  722 755.5  " fill-rule="nonzero" fill="#797979" stroke="none" />
</svg>