<?xml version="1.0" encoding="utf-8"?>
<svg version="1.1" xmlns:xlink="http://www.w3.org/1999/xlink" width="12px" height="12px" viewBox="882 746.5  12 12" xmlns="http://www.w3.org/2000/svg">
  <path d="M 888 746.5  C 891.36 746.5  894 749.14  894 752.5  C 894 755.86  891.36 758.5  888 758.5  C 884.64 758.5  882 755.86  882 752.5  C 882 749.14  884.64 746.5  888 746.5  Z " fill-rule="nonzero" fill="#f0f0f0" stroke="none" />
  <path d="M 888 747  C 891.08 747  893.5 749.42  893.5 752.5  C 893.5 755.58  891.08 758  888 758  C 884.92 758  882.5 755.58  882.5 752.5  C 882.5 749.42  884.92 747  888 747  Z " stroke-width="1" stroke="#797979" fill="none" />
  <path d="M 888 755.5  C 886.32 755.5  885 754.18  885 752.5  C 885 750.82  886.32 749.5  888 749.5  C 889.68 749.5  891 750.82  891 752.5  C 891 754.18  889.68 755.5  888 755.5  " fill-rule="nonzero" fill="#797979" stroke="none" />
</svg>