<?xml version="1.0" encoding="utf-8"?>
<svg version="1.1" xmlns:xlink="http://www.w3.org/1999/xlink" width="12px" height="12px" viewBox="782 746.5  12 12" xmlns="http://www.w3.org/2000/svg">
  <path d="M 788 746.5  C 791.36 746.5  794 749.14  794 752.5  C 794 755.86  791.36 758.5  788 758.5  C 784.64 758.5  782 755.86  782 752.5  C 782 749.14  784.64 746.5  788 746.5  Z " fill-rule="nonzero" fill="#f0f0f0" stroke="none" />
  <path d="M 788 747  C 791.08 747  793.5 749.42  793.5 752.5  C 793.5 755.58  791.08 758  788 758  C 784.92 758  782.5 755.58  782.5 752.5  C 782.5 749.42  784.92 747  788 747  Z " stroke-width="1" stroke="#797979" fill="none" />
  <path d="M 788 755.5  C 786.32 755.5  785 754.18  785 752.5  C 785 750.82  786.32 749.5  788 749.5  C 789.68 749.5  791 750.82  791 752.5  C 791 754.18  789.68 755.5  788 755.5  " fill-rule="nonzero" fill="#797979" stroke="none" />
</svg>