<?xml version="1.0" encoding="utf-8"?>
<svg version="1.1" xmlns:xlink="http://www.w3.org/1999/xlink" width="12px" height="12px" viewBox="782 878.5  12 12" xmlns="http://www.w3.org/2000/svg">
  <path d="M 788 878.5  C 791.36 878.5  794 881.14  794 884.5  C 794 887.86  791.36 890.5  788 890.5  C 784.64 890.5  782 887.86  782 884.5  C 782 881.14  784.64 878.5  788 878.5  Z " fill-rule="nonzero" fill="#f0f0f0" stroke="none" />
  <path d="M 788 879  C 791.08 879  793.5 881.42  793.5 884.5  C 793.5 887.58  791.08 890  788 890  C 784.92 890  782.5 887.58  782.5 884.5  C 782.5 881.42  784.92 879  788 879  Z " stroke-width="1" stroke="#797979" fill="none" />
  <path d="M 788 887.5  C 786.32 887.5  785 886.18  785 884.5  C 785 882.82  786.32 881.5  788 881.5  C 789.68 881.5  791 882.82  791 884.5  C 791 886.18  789.68 887.5  788 887.5  " fill-rule="nonzero" fill="#797979" stroke="none" />
</svg>