<?xml version="1.0" encoding="utf-8"?>
<svg version="1.1" xmlns:xlink="http://www.w3.org/1999/xlink" width="12px" height="12px" viewBox="855 848.5  12 12" xmlns="http://www.w3.org/2000/svg">
  <path d="M 861 848.5  C 864.36 848.5  867 851.14  867 854.5  C 867 857.86  864.36 860.5  861 860.5  C 857.64 860.5  855 857.86  855 854.5  C 855 851.14  857.64 848.5  861 848.5  Z " fill-rule="nonzero" fill="#ffffff" stroke="none" />
  <path d="M 861 849  C 864.08 849  866.5 851.42  866.5 854.5  C 866.5 857.58  864.08 860  861 860  C 857.92 860  855.5 857.58  855.5 854.5  C 855.5 851.42  857.92 849  861 849  Z " stroke-width="1" stroke="#797979" fill="none" />
  <path d="M 861 857.5  C 859.32 857.5  858 856.18  858 854.5  C 858 852.82  859.32 851.5  861 851.5  C 862.68 851.5  864 852.82  864 854.5  C 864 856.18  862.68 857.5  861 857.5  " fill-rule="nonzero" fill="#797979" stroke="none" />
</svg>