<?xml version="1.0" encoding="utf-8"?>
<svg version="1.1" xmlns:xlink="http://www.w3.org/1999/xlink" width="12px" height="12px" viewBox="763 454.5  12 12" xmlns="http://www.w3.org/2000/svg">
  <path d="M 769 454.5  C 772.36 454.5  775 457.14  775 460.5  C 775 463.86  772.36 466.5  769 466.5  C 765.64 466.5  763 463.86  763 460.5  C 763 457.14  765.64 454.5  769 454.5  Z " fill-rule="nonzero" fill="#ffffff" stroke="none" />
  <path d="M 769 455  C 772.08 455  774.5 457.42  774.5 460.5  C 774.5 463.58  772.08 466  769 466  C 765.92 466  763.5 463.58  763.5 460.5  C 763.5 457.42  765.92 455  769 455  Z " stroke-width="1" stroke="#797979" fill="none" />
  <path d="M 769 463.5  C 767.32 463.5  766 462.18  766 460.5  C 766 458.82  767.32 457.5  769 457.5  C 770.68 457.5  772 458.82  772 460.5  C 772 462.18  770.68 463.5  769 463.5  " fill-rule="nonzero" fill="#797979" stroke="none" />
</svg>