<?xml version="1.0" encoding="utf-8"?>
<svg version="1.1" xmlns:xlink="http://www.w3.org/1999/xlink" width="12px" height="12px" viewBox="357 632.5  12 12" xmlns="http://www.w3.org/2000/svg">
  <path d="M 363 632.5  C 366.36 632.5  369 635.14  369 638.5  C 369 641.86  366.36 644.5  363 644.5  C 359.64 644.5  357 641.86  357 638.5  C 357 635.14  359.64 632.5  363 632.5  Z " fill-rule="nonzero" fill="#ffffff" stroke="none" />
  <path d="M 363 633  C 366.08 633  368.5 635.42  368.5 638.5  C 368.5 641.58  366.08 644  363 644  C 359.92 644  357.5 641.58  357.5 638.5  C 357.5 635.42  359.92 633  363 633  Z " stroke-width="1" stroke="#333333" fill="none" />
  <path d="M 363 641.5  C 361.32 641.5  360 640.18  360 638.5  C 360 636.82  361.32 635.5  363 635.5  C 364.68 635.5  366 636.82  366 638.5  C 366 640.18  364.68 641.5  363 641.5  " fill-rule="nonzero" fill="#333333" stroke="none" />
</svg>