<?xml version="1.0" encoding="utf-8"?>
<svg version="1.1" xmlns:xlink="http://www.w3.org/1999/xlink" width="12px" height="12px" viewBox="826 454.5  12 12" xmlns="http://www.w3.org/2000/svg">
  <path d="M 832 454.5  C 835.36 454.5  838 457.14  838 460.5  C 838 463.86  835.36 466.5  832 466.5  C 828.64 466.5  826 463.86  826 460.5  C 826 457.14  828.64 454.5  832 454.5  Z " fill-rule="nonzero" fill="#ffffff" stroke="none" />
  <path d="M 832 455  C 835.08 455  837.5 457.42  837.5 460.5  C 837.5 463.58  835.08 466  832 466  C 828.92 466  826.5 463.58  826.5 460.5  C 826.5 457.42  828.92 455  832 455  Z " stroke-width="1" stroke="#333333" fill="none" />
  <path d="M 832 463.5  C 830.32 463.5  829 462.18  829 460.5  C 829 458.82  830.32 457.5  832 457.5  C 833.68 457.5  835 458.82  835 460.5  C 835 462.18  833.68 463.5  832 463.5  " fill-rule="nonzero" fill="#333333" stroke="none" />
</svg>