<?xml version="1.0" encoding="utf-8"?>
<svg version="1.1" xmlns:xlink="http://www.w3.org/1999/xlink" width="12px" height="12px" viewBox="921 374.5  12 12" xmlns="http://www.w3.org/2000/svg">
  <path d="M 927 374.5  C 930.36 374.5  933 377.14  933 380.5  C 933 383.86  930.36 386.5  927 386.5  C 923.64 386.5  921 383.86  921 380.5  C 921 377.14  923.64 374.5  927 374.5  Z " fill-rule="nonzero" fill="#f0f0f0" stroke="none" />
  <path d="M 927 375  C 930.08 375  932.5 377.42  932.5 380.5  C 932.5 383.58  930.08 386  927 386  C 923.92 386  921.5 383.58  921.5 380.5  C 921.5 377.42  923.92 375  927 375  Z " stroke-width="1" stroke="#797979" fill="none" />
  <path d="M 927 383.5  C 925.32 383.5  924 382.18  924 380.5  C 924 378.82  925.32 377.5  927 377.5  C 928.68 377.5  930 378.82  930 380.5  C 930 382.18  928.68 383.5  927 383.5  " fill-rule="nonzero" fill="#797979" stroke="none" />
</svg>