<?xml version="1.0" encoding="utf-8"?>
<svg version="1.1" xmlns:xlink="http://www.w3.org/1999/xlink" width="12px" height="12px" viewBox="778 374.5  12 12" xmlns="http://www.w3.org/2000/svg">
  <path d="M 784 374.5  C 787.36 374.5  790 377.14  790 380.5  C 790 383.86  787.36 386.5  784 386.5  C 780.64 386.5  778 383.86  778 380.5  C 778 377.14  780.64 374.5  784 374.5  Z " fill-rule="nonzero" fill="#f0f0f0" stroke="none" />
  <path d="M 784 375  C 787.08 375  789.5 377.42  789.5 380.5  C 789.5 383.58  787.08 386  784 386  C 780.92 386  778.5 383.58  778.5 380.5  C 778.5 377.42  780.92 375  784 375  Z " stroke-width="1" stroke="#797979" fill="none" />
  <path d="M 784 383.5  C 782.32 383.5  781 382.18  781 380.5  C 781 378.82  782.32 377.5  784 377.5  C 785.68 377.5  787 378.82  787 380.5  C 787 382.18  785.68 383.5  784 383.5  " fill-rule="nonzero" fill="#797979" stroke="none" />
</svg>