<?xml version="1.0" encoding="utf-8"?>
<svg version="1.1" xmlns:xlink="http://www.w3.org/1999/xlink" width="12px" height="12px" viewBox="299 632.5  12 12" xmlns="http://www.w3.org/2000/svg">
  <path d="M 305 632.5  C 308.36 632.5  311 635.14  311 638.5  C 311 641.86  308.36 644.5  305 644.5  C 301.64 644.5  299 641.86  299 638.5  C 299 635.14  301.64 632.5  305 632.5  Z " fill-rule="nonzero" fill="#ffffff" stroke="none" />
  <path d="M 305 633  C 308.08 633  310.5 635.42  310.5 638.5  C 310.5 641.58  308.08 644  305 644  C 301.92 644  299.5 641.58  299.5 638.5  C 299.5 635.42  301.92 633  305 633  Z " stroke-width="1" stroke="#797979" fill="none" />
  <path d="M 305 641.5  C 303.32 641.5  302 640.18  302 638.5  C 302 636.82  303.32 635.5  305 635.5  C 306.68 635.5  308 636.82  308 638.5  C 308 640.18  306.68 641.5  305 641.5  " fill-rule="nonzero" fill="#797979" stroke="none" />
</svg>