<?xml version="1.0" encoding="utf-8"?>
<svg version="1.1" xmlns:xlink="http://www.w3.org/1999/xlink" width="12px" height="12px" viewBox="414 600.5  12 12" xmlns="http://www.w3.org/2000/svg">
  <path d="M 420 600.5  C 423.36 600.5  426 603.14  426 606.5  C 426 609.86  423.36 612.5  420 612.5  C 416.64 612.5  414 609.86  414 606.5  C 414 603.14  416.64 600.5  420 600.5  Z " fill-rule="nonzero" fill="#f0f0f0" stroke="none" />
  <path d="M 420 601  C 423.08 601  425.5 603.42  425.5 606.5  C 425.5 609.58  423.08 612  420 612  C 416.92 612  414.5 609.58  414.5 606.5  C 414.5 603.42  416.92 601  420 601  Z " stroke-width="1" stroke="#333333" fill="none" />
  <path d="M 420 609.5  C 418.32 609.5  417 608.18  417 606.5  C 417 604.82  418.32 603.5  420 603.5  C 421.68 603.5  423 604.82  423 606.5  C 423 608.18  421.68 609.5  420 609.5  " fill-rule="nonzero" fill="#333333" stroke="none" />
</svg>