<?xml version="1.0" encoding="utf-8"?>
<svg version="1.1" xmlns:xlink="http://www.w3.org/1999/xlink" width="12px" height="12px" viewBox="299 693.5  12 12" xmlns="http://www.w3.org/2000/svg">
  <path d="M 305 693.5  C 308.36 693.5  311 696.14  311 699.5  C 311 702.86  308.36 705.5  305 705.5  C 301.64 705.5  299 702.86  299 699.5  C 299 696.14  301.64 693.5  305 693.5  Z " fill-rule="nonzero" fill="#ffffff" stroke="none" />
  <path d="M 305 694  C 308.08 694  310.5 696.42  310.5 699.5  C 310.5 702.58  308.08 705  305 705  C 301.92 705  299.5 702.58  299.5 699.5  C 299.5 696.42  301.92 694  305 694  Z " stroke-width="1" stroke="#797979" fill="none" />
  <path d="M 305 702.5  C 303.32 702.5  302 701.18  302 699.5  C 302 697.82  303.32 696.5  305 696.5  C 306.68 696.5  308 697.82  308 699.5  C 308 701.18  306.68 702.5  305 702.5  " fill-rule="nonzero" fill="#797979" stroke="none" />
</svg>