<?xml version="1.0" encoding="utf-8"?>
<svg version="1.1" xmlns:xlink="http://www.w3.org/1999/xlink" width="12px" height="12px" viewBox="357 718.5  12 12" xmlns="http://www.w3.org/2000/svg">
  <path d="M 363 718.5  C 366.36 718.5  369 721.14  369 724.5  C 369 727.86  366.36 730.5  363 730.5  C 359.64 730.5  357 727.86  357 724.5  C 357 721.14  359.64 718.5  363 718.5  Z " fill-rule="nonzero" fill="#ffffff" stroke="none" />
  <path d="M 363 719  C 366.08 719  368.5 721.42  368.5 724.5  C 368.5 727.58  366.08 730  363 730  C 359.92 730  357.5 727.58  357.5 724.5  C 357.5 721.42  359.92 719  363 719  Z " stroke-width="1" stroke="#333333" fill="none" />
  <path d="M 363 727.5  C 361.32 727.5  360 726.18  360 724.5  C 360 722.82  361.32 721.5  363 721.5  C 364.68 721.5  366 722.82  366 724.5  C 366 726.18  364.68 727.5  363 727.5  " fill-rule="nonzero" fill="#333333" stroke="none" />
</svg>