<?xml version="1.0" encoding="utf-8"?>
<svg version="1.1" xmlns:xlink="http://www.w3.org/1999/xlink" width="12px" height="12px" viewBox="852 374.5  12 12" xmlns="http://www.w3.org/2000/svg">
  <path d="M 858 374.5  C 861.36 374.5  864 377.14  864 380.5  C 864 383.86  861.36 386.5  858 386.5  C 854.64 386.5  852 383.86  852 380.5  C 852 377.14  854.64 374.5  858 374.5  Z " fill-rule="nonzero" fill="#ffffff" stroke="none" />
  <path d="M 858 375  C 861.08 375  863.5 377.42  863.5 380.5  C 863.5 383.58  861.08 386  858 386  C 854.92 386  852.5 383.58  852.5 380.5  C 852.5 377.42  854.92 375  858 375  Z " stroke-width="1" stroke="#333333" fill="none" />
  <path d="M 858 383.5  C 856.32 383.5  855 382.18  855 380.5  C 855 378.82  856.32 377.5  858 377.5  C 859.68 377.5  861 378.82  861 380.5  C 861 382.18  859.68 383.5  858 383.5  " fill-rule="nonzero" fill="#333333" stroke="none" />
</svg>