<?xml version="1.0" encoding="utf-8"?>
<svg version="1.1" xmlns:xlink="http://www.w3.org/1999/xlink" width="12px" height="12px" viewBox="357 693.5  12 12" xmlns="http://www.w3.org/2000/svg">
  <path d="M 363 693.5  C 366.36 693.5  369 696.14  369 699.5  C 369 702.86  366.36 705.5  363 705.5  C 359.64 705.5  357 702.86  357 699.5  C 357 696.14  359.64 693.5  363 693.5  Z " fill-rule="nonzero" fill="#ffffff" stroke="none" />
  <path d="M 363 694  C 366.08 694  368.5 696.42  368.5 699.5  C 368.5 702.58  366.08 705  363 705  C 359.92 705  357.5 702.58  357.5 699.5  C 357.5 696.42  359.92 694  363 694  Z " stroke-width="1" stroke="#333333" fill="none" />
  <path d="M 363 702.5  C 361.32 702.5  360 701.18  360 699.5  C 360 697.82  361.32 696.5  363 696.5  C 364.68 696.5  366 697.82  366 699.5  C 366 701.18  364.68 702.5  363 702.5  " fill-rule="nonzero" fill="#333333" stroke="none" />
</svg>