<?xml version="1.0" encoding="utf-8"?>
<svg version="1.1" xmlns:xlink="http://www.w3.org/1999/xlink" width="12px" height="12px" viewBox="357 600.5  12 12" xmlns="http://www.w3.org/2000/svg">
  <path d="M 363 600.5  C 366.36 600.5  369 603.14  369 606.5  C 369 609.86  366.36 612.5  363 612.5  C 359.64 612.5  357 609.86  357 606.5  C 357 603.14  359.64 600.5  363 600.5  Z " fill-rule="nonzero" fill="#f0f0f0" stroke="none" />
  <path d="M 363 601  C 366.08 601  368.5 603.42  368.5 606.5  C 368.5 609.58  366.08 612  363 612  C 359.92 612  357.5 609.58  357.5 606.5  C 357.5 603.42  359.92 601  363 601  Z " stroke-width="1" stroke="#333333" fill="none" />
  <path d="M 363 609.5  C 361.32 609.5  360 608.18  360 606.5  C 360 604.82  361.32 603.5  363 603.5  C 364.68 603.5  366 604.82  366 606.5  C 366 608.18  364.68 609.5  363 609.5  " fill-rule="nonzero" fill="#333333" stroke="none" />
</svg>