<?xml version="1.0" encoding="utf-8"?>
<svg version="1.1" xmlns:xlink="http://www.w3.org/1999/xlink" width="12px" height="12px" viewBox="357 472.5  12 12" xmlns="http://www.w3.org/2000/svg">
  <path d="M 363 472.5  C 366.36 472.5  369 475.14  369 478.5  C 369 481.86  366.36 484.5  363 484.5  C 359.64 484.5  357 481.86  357 478.5  C 357 475.14  359.64 472.5  363 472.5  Z " fill-rule="nonzero" fill="#ffffff" stroke="none" />
  <path d="M 363 473  C 366.08 473  368.5 475.42  368.5 478.5  C 368.5 481.58  366.08 484  363 484  C 359.92 484  357.5 481.58  357.5 478.5  C 357.5 475.42  359.92 473  363 473  Z " stroke-width="1" stroke="#333333" fill="none" />
  <path d="M 363 481.5  C 361.32 481.5  360 480.18  360 478.5  C 360 476.82  361.32 475.5  363 475.5  C 364.68 475.5  366 476.82  366 478.5  C 366 480.18  364.68 481.5  363 481.5  " fill-rule="nonzero" fill="#333333" stroke="none" />
</svg>