<?xml version="1.0" encoding="utf-8"?>
<svg version="1.1" xmlns:xlink="http://www.w3.org/1999/xlink" width="12px" height="12px" viewBox="414 472.5  12 12" xmlns="http://www.w3.org/2000/svg">
  <path d="M 420 472.5  C 423.36 472.5  426 475.14  426 478.5  C 426 481.86  423.36 484.5  420 484.5  C 416.64 484.5  414 481.86  414 478.5  C 414 475.14  416.64 472.5  420 472.5  Z " fill-rule="nonzero" fill="#ffffff" stroke="none" />
  <path d="M 420 473  C 423.08 473  425.5 475.42  425.5 478.5  C 425.5 481.58  423.08 484  420 484  C 416.92 484  414.5 481.58  414.5 478.5  C 414.5 475.42  416.92 473  420 473  Z " stroke-width="1" stroke="#333333" fill="none" />
  <path d="M 420 481.5  C 418.32 481.5  417 480.18  417 478.5  C 417 476.82  418.32 475.5  420 475.5  C 421.68 475.5  423 476.82  423 478.5  C 423 480.18  421.68 481.5  420 481.5  " fill-rule="nonzero" fill="#333333" stroke="none" />
</svg>