<?xml version="1.0" encoding="utf-8"?>
<svg version="1.1" xmlns:xlink="http://www.w3.org/1999/xlink" width="12px" height="12px" viewBox="357 536.5  12 12" xmlns="http://www.w3.org/2000/svg">
  <path d="M 363 536.5  C 366.36 536.5  369 539.14  369 542.5  C 369 545.86  366.36 548.5  363 548.5  C 359.64 548.5  357 545.86  357 542.5  C 357 539.14  359.64 536.5  363 536.5  Z " fill-rule="nonzero" fill="#f0f0f0" stroke="none" />
  <path d="M 363 537  C 366.08 537  368.5 539.42  368.5 542.5  C 368.5 545.58  366.08 548  363 548  C 359.92 548  357.5 545.58  357.5 542.5  C 357.5 539.42  359.92 537  363 537  Z " stroke-width="1" stroke="#333333" fill="none" />
  <path d="M 363 545.5  C 361.32 545.5  360 544.18  360 542.5  C 360 540.82  361.32 539.5  363 539.5  C 364.68 539.5  366 540.82  366 542.5  C 366 544.18  364.68 545.5  363 545.5  " fill-rule="nonzero" fill="#333333" stroke="none" />
</svg>