<?xml version="1.0" encoding="utf-8"?>
<svg version="1.1" xmlns:xlink="http://www.w3.org/1999/xlink" width="12px" height="12px" viewBox="299 600.5  12 12" xmlns="http://www.w3.org/2000/svg">
  <path d="M 305 600.5  C 308.36 600.5  311 603.14  311 606.5  C 311 609.86  308.36 612.5  305 612.5  C 301.64 612.5  299 609.86  299 606.5  C 299 603.14  301.64 600.5  305 600.5  Z " fill-rule="nonzero" fill="#ffffff" stroke="none" />
  <path d="M 305 601  C 308.08 601  310.5 603.42  310.5 606.5  C 310.5 609.58  308.08 612  305 612  C 301.92 612  299.5 609.58  299.5 606.5  C 299.5 603.42  301.92 601  305 601  Z " stroke-width="1" stroke="#797979" fill="none" />
  <path d="M 305 609.5  C 303.32 609.5  302 608.18  302 606.5  C 302 604.82  303.32 603.5  305 603.5  C 306.68 603.5  308 604.82  308 606.5  C 308 608.18  306.68 609.5  305 609.5  " fill-rule="nonzero" fill="#797979" stroke="none" />
</svg>