<?xml version="1.0" encoding="utf-8"?>
<svg version="1.1" xmlns:xlink="http://www.w3.org/1999/xlink" width="12px" height="12px" viewBox="299 536.5  12 12" xmlns="http://www.w3.org/2000/svg">
  <path d="M 305 536.5  C 308.36 536.5  311 539.14  311 542.5  C 311 545.86  308.36 548.5  305 548.5  C 301.64 548.5  299 545.86  299 542.5  C 299 539.14  301.64 536.5  305 536.5  Z " fill-rule="nonzero" fill="#f0f0f0" stroke="none" />
  <path d="M 305 537  C 308.08 537  310.5 539.42  310.5 542.5  C 310.5 545.58  308.08 548  305 548  C 301.92 548  299.5 545.58  299.5 542.5  C 299.5 539.42  301.92 537  305 537  Z " stroke-width="1" stroke="#797979" fill="none" />
  <path d="M 305 545.5  C 303.32 545.5  302 544.18  302 542.5  C 302 540.82  303.32 539.5  305 539.5  C 306.68 539.5  308 540.82  308 542.5  C 308 544.18  306.68 545.5  305 545.5  " fill-rule="nonzero" fill="#797979" stroke="none" />
</svg>