<?xml version="1.0" encoding="utf-8"?>
<svg version="1.1" xmlns:xlink="http://www.w3.org/1999/xlink" width="12px" height="12px" viewBox="763 553.5  12 12" xmlns="http://www.w3.org/2000/svg">
  <path d="M 769 553.5  C 772.36 553.5  775 556.14  775 559.5  C 775 562.86  772.36 565.5  769 565.5  C 765.64 565.5  763 562.86  763 559.5  C 763 556.14  765.64 553.5  769 553.5  Z " fill-rule="nonzero" fill="#ffffff" stroke="none" />
  <path d="M 769 554  C 772.08 554  774.5 556.42  774.5 559.5  C 774.5 562.58  772.08 565  769 565  C 765.92 565  763.5 562.58  763.5 559.5  C 763.5 556.42  765.92 554  769 554  Z " stroke-width="1" stroke="#797979" fill="none" />
  <path d="M 769 562.5  C 767.32 562.5  766 561.18  766 559.5  C 766 557.82  767.32 556.5  769 556.5  C 770.68 556.5  772 557.82  772 559.5  C 772 561.18  770.68 562.5  769 562.5  " fill-rule="nonzero" fill="#797979" stroke="none" />
</svg>