<?xml version="1.0" encoding="utf-8"?>
<svg version="1.1" xmlns:xlink="http://www.w3.org/1999/xlink" width="12px" height="12px" viewBox="763 519.5  12 12" xmlns="http://www.w3.org/2000/svg">
  <path d="M 769 519.5  C 772.36 519.5  775 522.14  775 525.5  C 775 528.86  772.36 531.5  769 531.5  C 765.64 531.5  763 528.86  763 525.5  C 763 522.14  765.64 519.5  769 519.5  Z " fill-rule="nonzero" fill="#f0f0f0" stroke="none" />
  <path d="M 769 520  C 772.08 520  774.5 522.42  774.5 525.5  C 774.5 528.58  772.08 531  769 531  C 765.92 531  763.5 528.58  763.5 525.5  C 763.5 522.42  765.92 520  769 520  Z " stroke-width="1" stroke="#797979" fill="none" />
  <path d="M 769 528.5  C 767.32 528.5  766 527.18  766 525.5  C 766 523.82  767.32 522.5  769 522.5  C 770.68 522.5  772 523.82  772 525.5  C 772 527.18  770.68 528.5  769 528.5  " fill-rule="nonzero" fill="#797979" stroke="none" />
</svg>