<?xml version="1.0" encoding="utf-8"?>
<svg version="1.1" xmlns:xlink="http://www.w3.org/1999/xlink" width="12px" height="12px" viewBox="763 487.5  12 12" xmlns="http://www.w3.org/2000/svg">
  <path d="M 769 487.5  C 772.36 487.5  775 490.14  775 493.5  C 775 496.86  772.36 499.5  769 499.5  C 765.64 499.5  763 496.86  763 493.5  C 763 490.14  765.64 487.5  769 487.5  Z " fill-rule="nonzero" fill="#ffffff" stroke="none" />
  <path d="M 769 488  C 772.08 488  774.5 490.42  774.5 493.5  C 774.5 496.58  772.08 499  769 499  C 765.92 499  763.5 496.58  763.5 493.5  C 763.5 490.42  765.92 488  769 488  Z " stroke-width="1" stroke="#797979" fill="none" />
  <path d="M 769 496.5  C 767.32 496.5  766 495.18  766 493.5  C 766 491.82  767.32 490.5  769 490.5  C 770.68 490.5  772 491.82  772 493.5  C 772 495.18  770.68 496.5  769 496.5  " fill-rule="nonzero" fill="#797979" stroke="none" />
</svg>