<?xml version="1.0" encoding="utf-8"?>
<svg version="1.1" xmlns:xlink="http://www.w3.org/1999/xlink" width="12px" height="12px" viewBox="948 454.5  12 12" xmlns="http://www.w3.org/2000/svg">
  <path d="M 954 454.5  C 957.36 454.5  960 457.14  960 460.5  C 960 463.86  957.36 466.5  954 466.5  C 950.64 466.5  948 463.86  948 460.5  C 948 457.14  950.64 454.5  954 454.5  Z " fill-rule="nonzero" fill="#f0f0f0" stroke="none" />
  <path d="M 954 455  C 957.08 455  959.5 457.42  959.5 460.5  C 959.5 463.58  957.08 466  954 466  C 950.92 466  948.5 463.58  948.5 460.5  C 948.5 457.42  950.92 455  954 455  Z " stroke-width="1" stroke="#333333" fill="none" />
  <path d="M 954 463.5  C 952.32 463.5  951 462.18  951 460.5  C 951 458.82  952.32 457.5  954 457.5  C 955.68 457.5  957 458.82  957 460.5  C 957 462.18  955.68 463.5  954 463.5  " fill-rule="nonzero" fill="#333333" stroke="none" />
</svg>