<?xml version="1.0" encoding="utf-8"?>
<svg version="1.1" xmlns:xlink="http://www.w3.org/1999/xlink" width="12px" height="12px" viewBox="826 487.5  12 12" xmlns="http://www.w3.org/2000/svg">
  <path d="M 832 487.5  C 835.36 487.5  838 490.14  838 493.5  C 838 496.86  835.36 499.5  832 499.5  C 828.64 499.5  826 496.86  826 493.5  C 826 490.14  828.64 487.5  832 487.5  Z " fill-rule="nonzero" fill="#ffffff" stroke="none" />
  <path d="M 832 488  C 835.08 488  837.5 490.42  837.5 493.5  C 837.5 496.58  835.08 499  832 499  C 828.92 499  826.5 496.58  826.5 493.5  C 826.5 490.42  828.92 488  832 488  Z " stroke-width="1" stroke="#333333" fill="none" />
  <path d="M 832 496.5  C 830.32 496.5  829 495.18  829 493.5  C 829 491.82  830.32 490.5  832 490.5  C 833.68 490.5  835 491.82  835 493.5  C 835 495.18  833.68 496.5  832 496.5  " fill-rule="nonzero" fill="#333333" stroke="none" />
</svg>