<?xml version="1.0" encoding="utf-8"?>
<svg version="1.1" xmlns:xlink="http://www.w3.org/1999/xlink" width="12px" height="12px" viewBox="826 519.5  12 12" xmlns="http://www.w3.org/2000/svg">
  <path d="M 832 519.5  C 835.36 519.5  838 522.14  838 525.5  C 838 528.86  835.36 531.5  832 531.5  C 828.64 531.5  826 528.86  826 525.5  C 826 522.14  828.64 519.5  832 519.5  Z " fill-rule="nonzero" fill="#ffffff" stroke="none" />
  <path d="M 832 520  C 835.08 520  837.5 522.42  837.5 525.5  C 837.5 528.58  835.08 531  832 531  C 828.92 531  826.5 528.58  826.5 525.5  C 826.5 522.42  828.92 520  832 520  Z " stroke-width="1" stroke="#333333" fill="none" />
  <path d="M 832 528.5  C 830.32 528.5  829 527.18  829 525.5  C 829 523.82  830.32 522.5  832 522.5  C 833.68 522.5  835 523.82  835 525.5  C 835 527.18  833.68 528.5  832 528.5  " fill-rule="nonzero" fill="#333333" stroke="none" />
</svg>