<?xml version="1.0" encoding="utf-8"?>
<svg version="1.1" xmlns:xlink="http://www.w3.org/1999/xlink" width="12px" height="12px" viewBox="885 519.5  12 12" xmlns="http://www.w3.org/2000/svg">
  <path d="M 891 519.5  C 894.36 519.5  897 522.14  897 525.5  C 897 528.86  894.36 531.5  891 531.5  C 887.64 531.5  885 528.86  885 525.5  C 885 522.14  887.64 519.5  891 519.5  Z " fill-rule="nonzero" fill="#f0f0f0" stroke="none" />
  <path d="M 891 520  C 894.08 520  896.5 522.42  896.5 525.5  C 896.5 528.58  894.08 531  891 531  C 887.92 531  885.5 528.58  885.5 525.5  C 885.5 522.42  887.92 520  891 520  Z " stroke-width="1" stroke="#333333" fill="none" />
  <path d="M 891 528.5  C 889.32 528.5  888 527.18  888 525.5  C 888 523.82  889.32 522.5  891 522.5  C 892.68 522.5  894 523.82  894 525.5  C 894 527.18  892.68 528.5  891 528.5  " fill-rule="nonzero" fill="#333333" stroke="none" />
</svg>