<?xml version="1.0" encoding="utf-8"?>
<svg version="1.1" xmlns:xlink="http://www.w3.org/1999/xlink" width="12px" height="12px" viewBox="273 708  12 12" xmlns="http://www.w3.org/2000/svg">
  <path d="M 279 708  C 282.36 708  285 710.64  285 714  C 285 717.36  282.36 720  279 720  C 275.64 720  273 717.36  273 714  C 273 710.64  275.64 708  279 708  Z " fill-rule="nonzero" fill="#ffffff" stroke="none" />
  <path d="M 279 708.5  C 282.08 708.5  284.5 710.92  284.5 714  C 284.5 717.08  282.08 719.5  279 719.5  C 275.92 719.5  273.5 717.08  273.5 714  C 273.5 710.92  275.92 708.5  279 708.5  Z " stroke-width="1" stroke="#797979" fill="none" />
  <path d="M 279 717  C 277.32 717  276 715.68  276 714  C 276 712.32  277.32 711  279 711  C 280.68 711  282 712.32  282 714  C 282 715.68  280.68 717  279 717  " fill-rule="nonzero" fill="#797979" stroke="none" />
</svg>