<?xml version="1.0" encoding="utf-8"?>
<svg version="1.1" xmlns:xlink="http://www.w3.org/1999/xlink" width="12px" height="12px" viewBox="273 547  12 12" xmlns="http://www.w3.org/2000/svg">
  <path d="M 279 547  C 282.36 547  285 549.64  285 553  C 285 556.36  282.36 559  279 559  C 275.64 559  273 556.36  273 553  C 273 549.64  275.64 547  279 547  Z " fill-rule="nonzero" fill="#ffffff" stroke="none" />
  <path d="M 279 547.5  C 282.08 547.5  284.5 549.92  284.5 553  C 284.5 556.08  282.08 558.5  279 558.5  C 275.92 558.5  273.5 556.08  273.5 553  C 273.5 549.92  275.92 547.5  279 547.5  Z " stroke-width="1" stroke="#797979" fill="none" />
  <path d="M 279 556  C 277.32 556  276 554.68  276 553  C 276 551.32  277.32 550  279 550  C 280.68 550  282 551.32  282 553  C 282 554.68  280.68 556  279 556  " fill-rule="nonzero" fill="#797979" stroke="none" />
</svg>