<?xml version="1.0" encoding="utf-8"?>
<svg version="1.1" xmlns:xlink="http://www.w3.org/1999/xlink" width="12px" height="12px" viewBox="273 786  12 12" xmlns="http://www.w3.org/2000/svg">
  <path d="M 279 786  C 282.36 786  285 788.64  285 792  C 285 795.36  282.36 798  279 798  C 275.64 798  273 795.36  273 792  C 273 788.64  275.64 786  279 786  Z " fill-rule="nonzero" fill="#f0f0f0" stroke="none" />
  <path d="M 279 786.5  C 282.08 786.5  284.5 788.92  284.5 792  C 284.5 795.08  282.08 797.5  279 797.5  C 275.92 797.5  273.5 795.08  273.5 792  C 273.5 788.92  275.92 786.5  279 786.5  Z " stroke-width="1" stroke="#797979" fill="none" />
  <path d="M 279 795  C 277.32 795  276 793.68  276 792  C 276 790.32  277.32 789  279 789  C 280.68 789  282 790.32  282 792  C 282 793.68  280.68 795  279 795  " fill-rule="nonzero" fill="#797979" stroke="none" />
</svg>