<?xml version="1.0" encoding="utf-8"?>
<svg version="1.1" xmlns:xlink="http://www.w3.org/1999/xlink" width="12px" height="12px" viewBox="273 915  12 12" xmlns="http://www.w3.org/2000/svg">
  <path d="M 279 915  C 282.36 915  285 917.64  285 921  C 285 924.36  282.36 927  279 927  C 275.64 927  273 924.36  273 921  C 273 917.64  275.64 915  279 915  Z " fill-rule="nonzero" fill="#f0f0f0" stroke="none" />
  <path d="M 279 915.5  C 282.08 915.5  284.5 917.92  284.5 921  C 284.5 924.08  282.08 926.5  279 926.5  C 275.92 926.5  273.5 924.08  273.5 921  C 273.5 917.92  275.92 915.5  279 915.5  Z " stroke-width="1" stroke="#797979" fill="none" />
  <path d="M 279 924  C 277.32 924  276 922.68  276 921  C 276 919.32  277.32 918  279 918  C 280.68 918  282 919.32  282 921  C 282 922.68  280.68 924  279 924  " fill-rule="nonzero" fill="#797979" stroke="none" />
</svg>