<?xml version="1.0" encoding="utf-8"?>
<svg version="1.1" xmlns:xlink="http://www.w3.org/1999/xlink" width="12px" height="12px" viewBox="273 668  12 12" xmlns="http://www.w3.org/2000/svg">
  <path d="M 279 668  C 282.36 668  285 670.64  285 674  C 285 677.36  282.36 680  279 680  C 275.64 680  273 677.36  273 674  C 273 670.64  275.64 668  279 668  Z " fill-rule="nonzero" fill="#f0f0f0" stroke="none" />
  <path d="M 279 668.5  C 282.08 668.5  284.5 670.92  284.5 674  C 284.5 677.08  282.08 679.5  279 679.5  C 275.92 679.5  273.5 677.08  273.5 674  C 273.5 670.92  275.92 668.5  279 668.5  Z " stroke-width="1" stroke="#797979" fill="none" />
  <path d="M 279 677  C 277.32 677  276 675.68  276 674  C 276 672.32  277.32 671  279 671  C 280.68 671  282 672.32  282 674  C 282 675.68  280.68 677  279 677  " fill-rule="nonzero" fill="#797979" stroke="none" />
</svg>