<?xml version="1.0" encoding="utf-8"?>
<svg version="1.1" xmlns:xlink="http://www.w3.org/1999/xlink" width="12px" height="12px" viewBox="273 824  12 12" xmlns="http://www.w3.org/2000/svg">
  <path d="M 279 824  C 282.36 824  285 826.64  285 830  C 285 833.36  282.36 836  279 836  C 275.64 836  273 833.36  273 830  C 273 826.64  275.64 824  279 824  Z " fill-rule="nonzero" fill="#f0f0f0" stroke="none" />
  <path d="M 279 824.5  C 282.08 824.5  284.5 826.92  284.5 830  C 284.5 833.08  282.08 835.5  279 835.5  C 275.92 835.5  273.5 833.08  273.5 830  C 273.5 826.92  275.92 824.5  279 824.5  Z " stroke-width="1" stroke="#797979" fill="none" />
  <path d="M 279 833  C 277.32 833  276 831.68  276 830  C 276 828.32  277.32 827  279 827  C 280.68 827  282 828.32  282 830  C 282 831.68  280.68 833  279 833  " fill-rule="nonzero" fill="#797979" stroke="none" />
</svg>