<?xml version="1.0" encoding="utf-8"?>
<svg version="1.1" xmlns:xlink="http://www.w3.org/1999/xlink" width="12px" height="12px" viewBox="273 469  12 12" xmlns="http://www.w3.org/2000/svg">
  <path d="M 279 469  C 282.36 469  285 471.64  285 475  C 285 478.36  282.36 481  279 481  C 275.64 481  273 478.36  273 475  C 273 471.64  275.64 469  279 469  Z " fill-rule="nonzero" fill="#ffffff" stroke="none" />
  <path d="M 279 469.5  C 282.08 469.5  284.5 471.92  284.5 475  C 284.5 478.08  282.08 480.5  279 480.5  C 275.92 480.5  273.5 478.08  273.5 475  C 273.5 471.92  275.92 469.5  279 469.5  Z " stroke-width="1" stroke="#797979" fill="none" />
  <path d="M 279 478  C 277.32 478  276 476.68  276 475  C 276 473.32  277.32 472  279 472  C 280.68 472  282 473.32  282 475  C 282 476.68  280.68 478  279 478  " fill-rule="nonzero" fill="#797979" stroke="none" />
</svg>