<?xml version="1.0" encoding="utf-8"?>
<svg version="1.1" xmlns:xlink="http://www.w3.org/1999/xlink" width="12px" height="12px" viewBox="273 507  12 12" xmlns="http://www.w3.org/2000/svg">
  <path d="M 279 507  C 282.36 507  285 509.64  285 513  C 285 516.36  282.36 519  279 519  C 275.64 519  273 516.36  273 513  C 273 509.64  275.64 507  279 507  Z " fill-rule="nonzero" fill="#ffffff" stroke="none" />
  <path d="M 279 507.5  C 282.08 507.5  284.5 509.92  284.5 513  C 284.5 516.08  282.08 518.5  279 518.5  C 275.92 518.5  273.5 516.08  273.5 513  C 273.5 509.92  275.92 507.5  279 507.5  Z " stroke-width="1" stroke="#797979" fill="none" />
  <path d="M 279 516  C 277.32 516  276 514.68  276 513  C 276 511.32  277.32 510  279 510  C 280.68 510  282 511.32  282 513  C 282 514.68  280.68 516  279 516  " fill-rule="nonzero" fill="#797979" stroke="none" />
</svg>