<?xml version="1.0" encoding="utf-8"?>
<svg version="1.1" xmlns:xlink="http://www.w3.org/1999/xlink" width="12px" height="12px" viewBox="273 953  12 12" xmlns="http://www.w3.org/2000/svg">
  <path d="M 279 953  C 282.36 953  285 955.64  285 959  C 285 962.36  282.36 965  279 965  C 275.64 965  273 962.36  273 959  C 273 955.64  275.64 953  279 953  Z " fill-rule="nonzero" fill="#ffffff" stroke="none" />
  <path d="M 279 953.5  C 282.08 953.5  284.5 955.92  284.5 959  C 284.5 962.08  282.08 964.5  279 964.5  C 275.92 964.5  273.5 962.08  273.5 959  C 273.5 955.92  275.92 953.5  279 953.5  Z " stroke-width="1" stroke="#797979" fill="none" />
  <path d="M 279 962  C 277.32 962  276 960.68  276 959  C 276 957.32  277.32 956  279 956  C 280.68 956  282 957.32  282 959  C 282 960.68  280.68 962  279 962  " fill-rule="nonzero" fill="#797979" stroke="none" />
</svg>