<?xml version="1.0" encoding="utf-8"?>
<svg version="1.1" xmlns:xlink="http://www.w3.org/1999/xlink" width="12px" height="12px" viewBox="273 1989  12 12" xmlns="http://www.w3.org/2000/svg">
  <path d="M 279 1989  C 282.36 1989  285 1991.64  285 1995  C 285 1998.36  282.36 2001  279 2001  C 275.64 2001  273 1998.36  273 1995  C 273 1991.64  275.64 1989  279 1989  Z " fill-rule="nonzero" fill="#f0f0f0" stroke="none" />
  <path d="M 279 1989.5  C 282.08 1989.5  284.5 1991.92  284.5 1995  C 284.5 1998.08  282.08 2000.5  279 2000.5  C 275.92 2000.5  273.5 1998.08  273.5 1995  C 273.5 1991.92  275.92 1989.5  279 1989.5  Z " stroke-width="1" stroke="#797979" fill="none" />
  <path d="M 279 1998  C 277.32 1998  276 1996.68  276 1995  C 276 1993.32  277.32 1992  279 1992  C 280.68 1992  282 1993.32  282 1995  C 282 1996.68  280.68 1998  279 1998  " fill-rule="nonzero" fill="#797979" stroke="none" />
</svg>