<?xml version="1.0" encoding="utf-8"?>
<svg version="1.1" xmlns:xlink="http://www.w3.org/1999/xlink" width="12px" height="12px" viewBox="273 1348  12 12" xmlns="http://www.w3.org/2000/svg">
  <path d="M 279 1348  C 282.36 1348  285 1350.64  285 1354  C 285 1357.36  282.36 1360  279 1360  C 275.64 1360  273 1357.36  273 1354  C 273 1350.64  275.64 1348  279 1348  Z " fill-rule="nonzero" fill="#ffffff" stroke="none" />
  <path d="M 279 1348.5  C 282.08 1348.5  284.5 1350.92  284.5 1354  C 284.5 1357.08  282.08 1359.5  279 1359.5  C 275.92 1359.5  273.5 1357.08  273.5 1354  C 273.5 1350.92  275.92 1348.5  279 1348.5  Z " stroke-width="1" stroke="#797979" fill="none" />
  <path d="M 279 1357  C 277.32 1357  276 1355.68  276 1354  C 276 1352.32  277.32 1351  279 1351  C 280.68 1351  282 1352.32  282 1354  C 282 1355.68  280.68 1357  279 1357  " fill-rule="nonzero" fill="#797979" stroke="none" />
</svg>