<?xml version="1.0" encoding="utf-8"?>
<svg version="1.1" xmlns:xlink="http://www.w3.org/1999/xlink" width="12px" height="12px" viewBox="273 1791  12 12" xmlns="http://www.w3.org/2000/svg">
  <path d="M 279 1791  C 282.36 1791  285 1793.64  285 1797  C 285 1800.36  282.36 1803  279 1803  C 275.64 1803  273 1800.36  273 1797  C 273 1793.64  275.64 1791  279 1791  Z " fill-rule="nonzero" fill="#f0f0f0" stroke="none" />
  <path d="M 279 1791.5  C 282.08 1791.5  284.5 1793.92  284.5 1797  C 284.5 1800.08  282.08 1802.5  279 1802.5  C 275.92 1802.5  273.5 1800.08  273.5 1797  C 273.5 1793.92  275.92 1791.5  279 1791.5  Z " stroke-width="1" stroke="#797979" fill="none" />
  <path d="M 279 1800  C 277.32 1800  276 1798.68  276 1797  C 276 1795.32  277.32 1794  279 1794  C 280.68 1794  282 1795.32  282 1797  C 282 1798.68  280.68 1800  279 1800  " fill-rule="nonzero" fill="#797979" stroke="none" />
</svg>