<?xml version="1.0" encoding="utf-8"?>
<svg version="1.1" xmlns:xlink="http://www.w3.org/1999/xlink" width="12px" height="12px" viewBox="273 1427  12 12" xmlns="http://www.w3.org/2000/svg">
  <path d="M 279 1427  C 282.36 1427  285 1429.64  285 1433  C 285 1436.36  282.36 1439  279 1439  C 275.64 1439  273 1436.36  273 1433  C 273 1429.64  275.64 1427  279 1427  Z " fill-rule="nonzero" fill="#ffffff" stroke="none" />
  <path d="M 279 1427.5  C 282.08 1427.5  284.5 1429.92  284.5 1433  C 284.5 1436.08  282.08 1438.5  279 1438.5  C 275.92 1438.5  273.5 1436.08  273.5 1433  C 273.5 1429.92  275.92 1427.5  279 1427.5  Z " stroke-width="1" stroke="#797979" fill="none" />
  <path d="M 279 1436  C 277.32 1436  276 1434.68  276 1433  C 276 1431.32  277.32 1430  279 1430  C 280.68 1430  282 1431.32  282 1433  C 282 1434.68  280.68 1436  279 1436  " fill-rule="nonzero" fill="#797979" stroke="none" />
</svg>