<?xml version="1.0" encoding="utf-8"?>
<svg version="1.1" xmlns:xlink="http://www.w3.org/1999/xlink" width="12px" height="12px" viewBox="273 1149  12 12" xmlns="http://www.w3.org/2000/svg">
  <path d="M 279 1149  C 282.36 1149  285 1151.64  285 1155  C 285 1158.36  282.36 1161  279 1161  C 275.64 1161  273 1158.36  273 1155  C 273 1151.64  275.64 1149  279 1149  Z " fill-rule="nonzero" fill="#ffffff" stroke="none" />
  <path d="M 279 1149.5  C 282.08 1149.5  284.5 1151.92  284.5 1155  C 284.5 1158.08  282.08 1160.5  279 1160.5  C 275.92 1160.5  273.5 1158.08  273.5 1155  C 273.5 1151.92  275.92 1149.5  279 1149.5  Z " stroke-width="1" stroke="#797979" fill="none" />
  <path d="M 279 1158  C 277.32 1158  276 1156.68  276 1155  C 276 1153.32  277.32 1152  279 1152  C 280.68 1152  282 1153.32  282 1155  C 282 1156.68  280.68 1158  279 1158  " fill-rule="nonzero" fill="#797979" stroke="none" />
</svg>