<?xml version="1.0" encoding="utf-8"?>
<svg version="1.1" xmlns:xlink="http://www.w3.org/1999/xlink" width="12px" height="12px" viewBox="273 1229  12 12" xmlns="http://www.w3.org/2000/svg">
  <path d="M 279 1229  C 282.36 1229  285 1231.64  285 1235  C 285 1238.36  282.36 1241  279 1241  C 275.64 1241  273 1238.36  273 1235  C 273 1231.64  275.64 1229  279 1229  Z " fill-rule="nonzero" fill="#ffffff" stroke="none" />
  <path d="M 279 1229.5  C 282.08 1229.5  284.5 1231.92  284.5 1235  C 284.5 1238.08  282.08 1240.5  279 1240.5  C 275.92 1240.5  273.5 1238.08  273.5 1235  C 273.5 1231.92  275.92 1229.5  279 1229.5  Z " stroke-width="1" stroke="#797979" fill="none" />
  <path d="M 279 1238  C 277.32 1238  276 1236.68  276 1235  C 276 1233.32  277.32 1232  279 1232  C 280.68 1232  282 1233.32  282 1235  C 282 1236.68  280.68 1238  279 1238  " fill-rule="nonzero" fill="#797979" stroke="none" />
</svg>