<?xml version="1.0" encoding="utf-8"?>
<svg version="1.1" xmlns:xlink="http://www.w3.org/1999/xlink" width="12px" height="12px" viewBox="273 1668  12 12" xmlns="http://www.w3.org/2000/svg">
  <path d="M 279 1668  C 282.36 1668  285 1670.64  285 1674  C 285 1677.36  282.36 1680  279 1680  C 275.64 1680  273 1677.36  273 1674  C 273 1670.64  275.64 1668  279 1668  Z " fill-rule="nonzero" fill="#ffffff" stroke="none" />
  <path d="M 279 1668.5  C 282.08 1668.5  284.5 1670.92  284.5 1674  C 284.5 1677.08  282.08 1679.5  279 1679.5  C 275.92 1679.5  273.5 1677.08  273.5 1674  C 273.5 1670.92  275.92 1668.5  279 1668.5  Z " stroke-width="1" stroke="#797979" fill="none" />
  <path d="M 279 1677  C 277.32 1677  276 1675.68  276 1674  C 276 1672.32  277.32 1671  279 1671  C 280.68 1671  282 1672.32  282 1674  C 282 1675.68  280.68 1677  279 1677  " fill-rule="nonzero" fill="#797979" stroke="none" />
</svg>