<?xml version="1.0" encoding="utf-8"?>
<svg version="1.1" xmlns:xlink="http://www.w3.org/1999/xlink" width="12px" height="12px" viewBox="273 1267  12 12" xmlns="http://www.w3.org/2000/svg">
  <path d="M 279 1267  C 282.36 1267  285 1269.64  285 1273  C 285 1276.36  282.36 1279  279 1279  C 275.64 1279  273 1276.36  273 1273  C 273 1269.64  275.64 1267  279 1267  Z " fill-rule="nonzero" fill="#ffffff" stroke="none" />
  <path d="M 279 1267.5  C 282.08 1267.5  284.5 1269.92  284.5 1273  C 284.5 1276.08  282.08 1278.5  279 1278.5  C 275.92 1278.5  273.5 1276.08  273.5 1273  C 273.5 1269.92  275.92 1267.5  279 1267.5  Z " stroke-width="1" stroke="#797979" fill="none" />
  <path d="M 279 1276  C 277.32 1276  276 1274.68  276 1273  C 276 1271.32  277.32 1270  279 1270  C 280.68 1270  282 1271.32  282 1273  C 282 1274.68  280.68 1276  279 1276  " fill-rule="nonzero" fill="#797979" stroke="none" />
</svg>