<?xml version="1.0" encoding="utf-8"?>
<svg version="1.1" xmlns:xlink="http://www.w3.org/1999/xlink" width="12px" height="12px" viewBox="273 1630  12 12" xmlns="http://www.w3.org/2000/svg">
  <path d="M 279 1630  C 282.36 1630  285 1632.64  285 1636  C 285 1639.36  282.36 1642  279 1642  C 275.64 1642  273 1639.36  273 1636  C 273 1632.64  275.64 1630  279 1630  Z " fill-rule="nonzero" fill="#f0f0f0" stroke="none" />
  <path d="M 279 1630.5  C 282.08 1630.5  284.5 1632.92  284.5 1636  C 284.5 1639.08  282.08 1641.5  279 1641.5  C 275.92 1641.5  273.5 1639.08  273.5 1636  C 273.5 1632.92  275.92 1630.5  279 1630.5  Z " stroke-width="1" stroke="#797979" fill="none" />
  <path d="M 279 1639  C 277.32 1639  276 1637.68  276 1636  C 276 1634.32  277.32 1633  279 1633  C 280.68 1633  282 1634.32  282 1636  C 282 1637.68  280.68 1639  279 1639  " fill-rule="nonzero" fill="#797979" stroke="none" />
</svg>