<?xml version="1.0" encoding="utf-8"?>
<svg version="1.1" xmlns:xlink="http://www.w3.org/1999/xlink" width="12px" height="12px" viewBox="273 1829  12 12" xmlns="http://www.w3.org/2000/svg">
  <path d="M 279 1829  C 282.36 1829  285 1831.64  285 1835  C 285 1838.36  282.36 1841  279 1841  C 275.64 1841  273 1838.36  273 1835  C 273 1831.64  275.64 1829  279 1829  Z " fill-rule="nonzero" fill="#ffffff" stroke="none" />
  <path d="M 279 1829.5  C 282.08 1829.5  284.5 1831.92  284.5 1835  C 284.5 1838.08  282.08 1840.5  279 1840.5  C 275.92 1840.5  273.5 1838.08  273.5 1835  C 273.5 1831.92  275.92 1829.5  279 1829.5  Z " stroke-width="1" stroke="#797979" fill="none" />
  <path d="M 279 1838  C 277.32 1838  276 1836.68  276 1835  C 276 1833.32  277.32 1832  279 1832  C 280.68 1832  282 1833.32  282 1835  C 282 1836.68  280.68 1838  279 1838  " fill-rule="nonzero" fill="#797979" stroke="none" />
</svg>