<?xml version="1.0" encoding="utf-8"?>
<svg version="1.1" xmlns:xlink="http://www.w3.org/1999/xlink" width="12px" height="12px" viewBox="273 1708  12 12" xmlns="http://www.w3.org/2000/svg">
  <path d="M 279 1708  C 282.36 1708  285 1710.64  285 1714  C 285 1717.36  282.36 1720  279 1720  C 275.64 1720  273 1717.36  273 1714  C 273 1710.64  275.64 1708  279 1708  Z " fill-rule="nonzero" fill="#ffffff" stroke="none" />
  <path d="M 279 1708.5  C 282.08 1708.5  284.5 1710.92  284.5 1714  C 284.5 1717.08  282.08 1719.5  279 1719.5  C 275.92 1719.5  273.5 1717.08  273.5 1714  C 273.5 1710.92  275.92 1708.5  279 1708.5  Z " stroke-width="1" stroke="#797979" fill="none" />
  <path d="M 279 1717  C 277.32 1717  276 1715.68  276 1714  C 276 1712.32  277.32 1711  279 1711  C 280.68 1711  282 1712.32  282 1714  C 282 1715.68  280.68 1717  279 1717  " fill-rule="nonzero" fill="#797979" stroke="none" />
</svg>