<?xml version="1.0" encoding="utf-8"?>
<svg version="1.1" xmlns:xlink="http://www.w3.org/1999/xlink" width="12px" height="12px" viewBox="273 1505  12 12" xmlns="http://www.w3.org/2000/svg">
  <path d="M 279 1505  C 282.36 1505  285 1507.64  285 1511  C 285 1514.36  282.36 1517  279 1517  C 275.64 1517  273 1514.36  273 1511  C 273 1507.64  275.64 1505  279 1505  Z " fill-rule="nonzero" fill="#ffffff" stroke="none" />
  <path d="M 279 1505.5  C 282.08 1505.5  284.5 1507.92  284.5 1511  C 284.5 1514.08  282.08 1516.5  279 1516.5  C 275.92 1516.5  273.5 1514.08  273.5 1511  C 273.5 1507.92  275.92 1505.5  279 1505.5  Z " stroke-width="1" stroke="#797979" fill="none" />
  <path d="M 279 1514  C 277.32 1514  276 1512.68  276 1511  C 276 1509.32  277.32 1508  279 1508  C 280.68 1508  282 1509.32  282 1511  C 282 1512.68  280.68 1514  279 1514  " fill-rule="nonzero" fill="#797979" stroke="none" />
</svg>