<?xml version="1.0" encoding="utf-8"?>
<svg version="1.1" xmlns:xlink="http://www.w3.org/1999/xlink" width="12px" height="12px" viewBox="273 993  12 12" xmlns="http://www.w3.org/2000/svg">
  <path d="M 279 993  C 282.36 993  285 995.64  285 999  C 285 1002.36  282.36 1005  279 1005  C 275.64 1005  273 1002.36  273 999  C 273 995.64  275.64 993  279 993  Z " fill-rule="nonzero" fill="#ffffff" stroke="none" />
  <path d="M 279 993.5  C 282.08 993.5  284.5 995.92  284.5 999  C 284.5 1002.08  282.08 1004.5  279 1004.5  C 275.92 1004.5  273.5 1002.08  273.5 999  C 273.5 995.92  275.92 993.5  279 993.5  Z " stroke-width="1" stroke="#797979" fill="none" />
  <path d="M 279 1002  C 277.32 1002  276 1000.68  276 999  C 276 997.32  277.32 996  279 996  C 280.68 996  282 997.32  282 999  C 282 1000.68  280.68 1002  279 1002  " fill-rule="nonzero" fill="#797979" stroke="none" />
</svg>