<?xml version="1.0" encoding="utf-8"?>
<svg version="1.1" xmlns:xlink="http://www.w3.org/1999/xlink" width="12px" height="12px" viewBox="273 1307  12 12" xmlns="http://www.w3.org/2000/svg">
  <path d="M 279 1307  C 282.36 1307  285 1309.64  285 1313  C 285 1316.36  282.36 1319  279 1319  C 275.64 1319  273 1316.36  273 1313  C 273 1309.64  275.64 1307  279 1307  Z " fill-rule="nonzero" fill="#f0f0f0" stroke="none" />
  <path d="M 279 1307.5  C 282.08 1307.5  284.5 1309.92  284.5 1313  C 284.5 1316.08  282.08 1318.5  279 1318.5  C 275.92 1318.5  273.5 1316.08  273.5 1313  C 273.5 1309.92  275.92 1307.5  279 1307.5  Z " stroke-width="1" stroke="#797979" fill="none" />
  <path d="M 279 1316  C 277.32 1316  276 1314.68  276 1313  C 276 1311.32  277.32 1310  279 1310  C 280.68 1310  282 1311.32  282 1313  C 282 1314.68  280.68 1316  279 1316  " fill-rule="nonzero" fill="#797979" stroke="none" />
</svg>