<?xml version="1.0" encoding="utf-8"?>
<svg version="1.1" xmlns:xlink="http://www.w3.org/1999/xlink" width="12px" height="12px" viewBox="273 1951  12 12" xmlns="http://www.w3.org/2000/svg">
  <path d="M 279 1951  C 282.36 1951  285 1953.64  285 1957  C 285 1960.36  282.36 1963  279 1963  C 275.64 1963  273 1960.36  273 1957  C 273 1953.64  275.64 1951  279 1951  Z " fill-rule="nonzero" fill="#ffffff" stroke="none" />
  <path d="M 279 1951.5  C 282.08 1951.5  284.5 1953.92  284.5 1957  C 284.5 1960.08  282.08 1962.5  279 1962.5  C 275.92 1962.5  273.5 1960.08  273.5 1957  C 273.5 1953.92  275.92 1951.5  279 1951.5  Z " stroke-width="1" stroke="#797979" fill="none" />
  <path d="M 279 1960  C 277.32 1960  276 1958.68  276 1957  C 276 1955.32  277.32 1954  279 1954  C 280.68 1954  282 1955.32  282 1957  C 282 1958.68  280.68 1960  279 1960  " fill-rule="nonzero" fill="#797979" stroke="none" />
</svg>