<?xml version="1.0" encoding="utf-8"?>
<svg version="1.1" xmlns:xlink="http://www.w3.org/1999/xlink" width="12px" height="12px" viewBox="721 825.5  12 12" xmlns="http://www.w3.org/2000/svg">
  <path d="M 727 825.5  C 730.36 825.5  733 828.14  733 831.5  C 733 834.86  730.36 837.5  727 837.5  C 723.64 837.5  721 834.86  721 831.5  C 721 828.14  723.64 825.5  727 825.5  Z " fill-rule="nonzero" fill="#f0f0f0" stroke="none" />
  <path d="M 727 826  C 730.08 826  732.5 828.42  732.5 831.5  C 732.5 834.58  730.08 837  727 837  C 723.92 837  721.5 834.58  721.5 831.5  C 721.5 828.42  723.92 826  727 826  Z " stroke-width="1" stroke="#333333" fill="none" />
  <path d="M 727 834.5  C 725.32 834.5  724 833.18  724 831.5  C 724 829.82  725.32 828.5  727 828.5  C 728.68 828.5  730 829.82  730 831.5  C 730 833.18  728.68 834.5  727 834.5  " fill-rule="nonzero" fill="#333333" stroke="none" />
</svg>