<?xml version="1.0" encoding="utf-8"?>
<svg version="1.1" xmlns:xlink="http://www.w3.org/1999/xlink" width="12px" height="12px" viewBox="487 1116.5  12 12" xmlns="http://www.w3.org/2000/svg">
  <path d="M 493 1116.5  C 496.36 1116.5  499 1119.14  499 1122.5  C 499 1125.86  496.36 1128.5  493 1128.5  C 489.64 1128.5  487 1125.86  487 1122.5  C 487 1119.14  489.64 1116.5  493 1116.5  Z " fill-rule="nonzero" fill="#ffffff" stroke="none" />
  <path d="M 493 1117  C 496.08 1117  498.5 1119.42  498.5 1122.5  C 498.5 1125.58  496.08 1128  493 1128  C 489.92 1128  487.5 1125.58  487.5 1122.5  C 487.5 1119.42  489.92 1117  493 1117  Z " stroke-width="1" stroke="#333333" fill="none" />
  <path d="M 493 1125.5  C 491.32 1125.5  490 1124.18  490 1122.5  C 490 1120.82  491.32 1119.5  493 1119.5  C 494.68 1119.5  496 1120.82  496 1122.5  C 496 1124.18  494.68 1125.5  493 1125.5  " fill-rule="nonzero" fill="#333333" stroke="none" />
</svg>