<?xml version="1.0" encoding="utf-8"?>
<svg version="1.1" xmlns:xlink="http://www.w3.org/1999/xlink" width="12px" height="12px" viewBox="529 825.5  12 12" xmlns="http://www.w3.org/2000/svg">
  <path d="M 535 825.5  C 538.36 825.5  541 828.14  541 831.5  C 541 834.86  538.36 837.5  535 837.5  C 531.64 837.5  529 834.86  529 831.5  C 529 828.14  531.64 825.5  535 825.5  Z " fill-rule="nonzero" fill="#f0f0f0" stroke="none" />
  <path d="M 535 826  C 538.08 826  540.5 828.42  540.5 831.5  C 540.5 834.58  538.08 837  535 837  C 531.92 837  529.5 834.58  529.5 831.5  C 529.5 828.42  531.92 826  535 826  Z " stroke-width="1" stroke="#333333" fill="none" />
  <path d="M 535 834.5  C 533.32 834.5  532 833.18  532 831.5  C 532 829.82  533.32 828.5  535 828.5  C 536.68 828.5  538 829.82  538 831.5  C 538 833.18  536.68 834.5  535 834.5  " fill-rule="nonzero" fill="#333333" stroke="none" />
</svg>