<?xml version="1.0" encoding="utf-8"?>
<svg version="1.1" xmlns:xlink="http://www.w3.org/1999/xlink" width="12px" height="12px" viewBox="439 728.5  12 12" xmlns="http://www.w3.org/2000/svg">
  <path d="M 445 728.5  C 448.36 728.5  451 731.14  451 734.5  C 451 737.86  448.36 740.5  445 740.5  C 441.64 740.5  439 737.86  439 734.5  C 439 731.14  441.64 728.5  445 728.5  Z " fill-rule="nonzero" fill="#ffffff" stroke="none" />
  <path d="M 445 729  C 448.08 729  450.5 731.42  450.5 734.5  C 450.5 737.58  448.08 740  445 740  C 441.92 740  439.5 737.58  439.5 734.5  C 439.5 731.42  441.92 729  445 729  Z " stroke-width="1" stroke="#333333" fill="none" />
  <path d="M 445 737.5  C 443.32 737.5  442 736.18  442 734.5  C 442 732.82  443.32 731.5  445 731.5  C 446.68 731.5  448 732.82  448 734.5  C 448 736.18  446.68 737.5  445 737.5  " fill-rule="nonzero" fill="#333333" stroke="none" />
</svg>