<?xml version="1.0" encoding="utf-8"?>
<svg version="1.1" xmlns:xlink="http://www.w3.org/1999/xlink" width="12px" height="12px" viewBox="629 825.5  12 12" xmlns="http://www.w3.org/2000/svg">
  <path d="M 635 825.5  C 638.36 825.5  641 828.14  641 831.5  C 641 834.86  638.36 837.5  635 837.5  C 631.64 837.5  629 834.86  629 831.5  C 629 828.14  631.64 825.5  635 825.5  Z " fill-rule="nonzero" fill="#f0f0f0" stroke="none" />
  <path d="M 635 826  C 638.08 826  640.5 828.42  640.5 831.5  C 640.5 834.58  638.08 837  635 837  C 631.92 837  629.5 834.58  629.5 831.5  C 629.5 828.42  631.92 826  635 826  Z " stroke-width="1" stroke="#333333" fill="none" />
  <path d="M 635 834.5  C 633.32 834.5  632 833.18  632 831.5  C 632 829.82  633.32 828.5  635 828.5  C 636.68 828.5  638 829.82  638 831.5  C 638 833.18  636.68 834.5  635 834.5  " fill-rule="nonzero" fill="#333333" stroke="none" />
</svg>