<?xml version="1.0" encoding="utf-8"?>
<svg version="1.1" xmlns:xlink="http://www.w3.org/1999/xlink" width="12px" height="12px" viewBox="529 681.5  12 12" xmlns="http://www.w3.org/2000/svg">
  <path d="M 535 681.5  C 538.36 681.5  541 684.14  541 687.5  C 541 690.86  538.36 693.5  535 693.5  C 531.64 693.5  529 690.86  529 687.5  C 529 684.14  531.64 681.5  535 681.5  Z " fill-rule="nonzero" fill="#ffffff" stroke="none" />
  <path d="M 535 682  C 538.08 682  540.5 684.42  540.5 687.5  C 540.5 690.58  538.08 693  535 693  C 531.92 693  529.5 690.58  529.5 687.5  C 529.5 684.42  531.92 682  535 682  Z " stroke-width="1" stroke="#333333" fill="none" />
  <path d="M 535 690.5  C 533.32 690.5  532 689.18  532 687.5  C 532 685.82  533.32 684.5  535 684.5  C 536.68 684.5  538 685.82  538 687.5  C 538 689.18  536.68 690.5  535 690.5  " fill-rule="nonzero" fill="#333333" stroke="none" />
</svg>