<?xml version="1.0" encoding="utf-8"?>
<svg version="1.1" xmlns:xlink="http://www.w3.org/1999/xlink" width="12px" height="12px" viewBox="207 556.5  12 12" xmlns="http://www.w3.org/2000/svg">
  <path d="M 213 556.5  C 216.36 556.5  219 559.14  219 562.5  C 219 565.86  216.36 568.5  213 568.5  C 209.64 568.5  207 565.86  207 562.5  C 207 559.14  209.64 556.5  213 556.5  Z " fill-rule="nonzero" fill="#f0f0f0" stroke="none" />
  <path d="M 213 557  C 216.08 557  218.5 559.42  218.5 562.5  C 218.5 565.58  216.08 568  213 568  C 209.92 568  207.5 565.58  207.5 562.5  C 207.5 559.42  209.92 557  213 557  Z " stroke-width="1" stroke="#797979" fill="none" />
  <path d="M 213 565.5  C 211.32 565.5  210 564.18  210 562.5  C 210 560.82  211.32 559.5  213 559.5  C 214.68 559.5  216 560.82  216 562.5  C 216 564.18  214.68 565.5  213 565.5  " fill-rule="nonzero" fill="#797979" stroke="none" />
</svg>