<?xml version="1.0" encoding="utf-8"?>
<svg version="1.1" xmlns:xlink="http://www.w3.org/1999/xlink" width="12px" height="12px" viewBox="259 586.5  12 12" xmlns="http://www.w3.org/2000/svg">
  <path d="M 265 586.5  C 268.36 586.5  271 589.14  271 592.5  C 271 595.86  268.36 598.5  265 598.5  C 261.64 598.5  259 595.86  259 592.5  C 259 589.14  261.64 586.5  265 586.5  Z " fill-rule="nonzero" fill="#ffffff" stroke="none" />
  <path d="M 265 587  C 268.08 587  270.5 589.42  270.5 592.5  C 270.5 595.58  268.08 598  265 598  C 261.92 598  259.5 595.58  259.5 592.5  C 259.5 589.42  261.92 587  265 587  Z " stroke-width="1" stroke="#797979" fill="none" />
  <path d="M 265 595.5  C 263.32 595.5  262 594.18  262 592.5  C 262 590.82  263.32 589.5  265 589.5  C 266.68 589.5  268 590.82  268 592.5  C 268 594.18  266.68 595.5  265 595.5  " fill-rule="nonzero" fill="#797979" stroke="none" />
</svg>