<?xml version="1.0" encoding="utf-8"?>
<svg version="1.1" xmlns:xlink="http://www.w3.org/1999/xlink" width="12px" height="12px" viewBox="311 556.5  12 12" xmlns="http://www.w3.org/2000/svg">
  <path d="M 317 556.5  C 320.36 556.5  323 559.14  323 562.5  C 323 565.86  320.36 568.5  317 568.5  C 313.64 568.5  311 565.86  311 562.5  C 311 559.14  313.64 556.5  317 556.5  Z " fill-rule="nonzero" fill="#f0f0f0" stroke="none" />
  <path d="M 317 557  C 320.08 557  322.5 559.42  322.5 562.5  C 322.5 565.58  320.08 568  317 568  C 313.92 568  311.5 565.58  311.5 562.5  C 311.5 559.42  313.92 557  317 557  Z " stroke-width="1" stroke="#797979" fill="none" />
  <path d="M 317 565.5  C 315.32 565.5  314 564.18  314 562.5  C 314 560.82  315.32 559.5  317 559.5  C 318.68 559.5  320 560.82  320 562.5  C 320 564.18  318.68 565.5  317 565.5  " fill-rule="nonzero" fill="#797979" stroke="none" />
</svg>