<?xml version="1.0" encoding="utf-8"?>
<svg version="1.1" xmlns:xlink="http://www.w3.org/1999/xlink" width="12px" height="12px" viewBox="207 586.5  12 12" xmlns="http://www.w3.org/2000/svg">
  <path d="M 213 586.5  C 216.36 586.5  219 589.14  219 592.5  C 219 595.86  216.36 598.5  213 598.5  C 209.64 598.5  207 595.86  207 592.5  C 207 589.14  209.64 586.5  213 586.5  Z " fill-rule="nonzero" fill="#f0f0f0" stroke="none" />
  <path d="M 213 587  C 216.08 587  218.5 589.42  218.5 592.5  C 218.5 595.58  216.08 598  213 598  C 209.92 598  207.5 595.58  207.5 592.5  C 207.5 589.42  209.92 587  213 587  Z " stroke-width="1" stroke="#797979" fill="none" />
  <path d="M 213 595.5  C 211.32 595.5  210 594.18  210 592.5  C 210 590.82  211.32 589.5  213 589.5  C 214.68 589.5  216 590.82  216 592.5  C 216 594.18  214.68 595.5  213 595.5  " fill-rule="nonzero" fill="#797979" stroke="none" />
</svg>