<?xml version="1.0" encoding="utf-8"?>
<svg version="1.1" xmlns:xlink="http://www.w3.org/1999/xlink" width="12px" height="12px" viewBox="207 615.5  12 12" xmlns="http://www.w3.org/2000/svg">
  <path d="M 213 615.5  C 216.36 615.5  219 618.14  219 621.5  C 219 624.86  216.36 627.5  213 627.5  C 209.64 627.5  207 624.86  207 621.5  C 207 618.14  209.64 615.5  213 615.5  Z " fill-rule="nonzero" fill="#f0f0f0" stroke="none" />
  <path d="M 213 616  C 216.08 616  218.5 618.42  218.5 621.5  C 218.5 624.58  216.08 627  213 627  C 209.92 627  207.5 624.58  207.5 621.5  C 207.5 618.42  209.92 616  213 616  Z " stroke-width="1" stroke="#00bfbf" fill="none" />
  <path d="M 213 624.5  C 211.32 624.5  210 623.18  210 621.5  C 210 619.82  211.32 618.5  213 618.5  C 214.68 618.5  216 619.82  216 621.5  C 216 623.18  214.68 624.5  213 624.5  " fill-rule="nonzero" fill="#00bfbf" stroke="none" />
</svg>