<?xml version="1.0" encoding="utf-8"?>
<svg version="1.1" xmlns:xlink="http://www.w3.org/1999/xlink" width="12px" height="12px" viewBox="220 437.5  12 12" xmlns="http://www.w3.org/2000/svg">
  <path d="M 226 437.5  C 229.36 437.5  232 440.14  232 443.5  C 232 446.86  229.36 449.5  226 449.5  C 222.64 449.5  220 446.86  220 443.5  C 220 440.14  222.64 437.5  226 437.5  Z " fill-rule="nonzero" fill="#ffffff" stroke="none" />
  <path d="M 226 438  C 229.08 438  231.5 440.42  231.5 443.5  C 231.5 446.58  229.08 449  226 449  C 222.92 449  220.5 446.58  220.5 443.5  C 220.5 440.42  222.92 438  226 438  Z " stroke-width="1" stroke="#797979" fill="none" />
  <path d="M 226 446.5  C 224.32 446.5  223 445.18  223 443.5  C 223 441.82  224.32 440.5  226 440.5  C 227.68 440.5  229 441.82  229 443.5  C 229 445.18  227.68 446.5  226 446.5  " fill-rule="nonzero" fill="#797979" stroke="none" />
</svg>