<?xml version="1.0" encoding="utf-8"?>
<svg version="1.1" xmlns:xlink="http://www.w3.org/1999/xlink" width="12px" height="12px" viewBox="361 614.5  12 12" xmlns="http://www.w3.org/2000/svg">
  <path d="M 367 614.5  C 370.36 614.5  373 617.14  373 620.5  C 373 623.86  370.36 626.5  367 626.5  C 363.64 626.5  361 623.86  361 620.5  C 361 617.14  363.64 614.5  367 614.5  Z " fill-rule="nonzero" fill="#ffffff" stroke="none" />
  <path d="M 367 615  C 370.08 615  372.5 617.42  372.5 620.5  C 372.5 623.58  370.08 626  367 626  C 363.92 626  361.5 623.58  361.5 620.5  C 361.5 617.42  363.92 615  367 615  Z " stroke-width="1" stroke="#797979" fill="none" />
  <path d="M 367 623.5  C 365.32 623.5  364 622.18  364 620.5  C 364 618.82  365.32 617.5  367 617.5  C 368.68 617.5  370 618.82  370 620.5  C 370 622.18  368.68 623.5  367 623.5  " fill-rule="nonzero" fill="#797979" stroke="none" />
</svg>