<?xml version="1.0" encoding="utf-8"?>
<svg version="1.1" xmlns:xlink="http://www.w3.org/1999/xlink" width="12px" height="12px" viewBox="348 762.5  12 12" xmlns="http://www.w3.org/2000/svg">
  <path d="M 354 762.5  C 357.36 762.5  360 765.14  360 768.5  C 360 771.86  357.36 774.5  354 774.5  C 350.64 774.5  348 771.86  348 768.5  C 348 765.14  350.64 762.5  354 762.5  Z " fill-rule="nonzero" fill="#ffffff" stroke="none" />
  <path d="M 354 763  C 357.08 763  359.5 765.42  359.5 768.5  C 359.5 771.58  357.08 774  354 774  C 350.92 774  348.5 771.58  348.5 768.5  C 348.5 765.42  350.92 763  354 763  Z " stroke-width="1" stroke="#797979" fill="none" />
  <path d="M 354 771.5  C 352.32 771.5  351 770.18  351 768.5  C 351 766.82  352.32 765.5  354 765.5  C 355.68 765.5  357 766.82  357 768.5  C 357 770.18  355.68 771.5  354 771.5  " fill-rule="nonzero" fill="#797979" stroke="none" />
</svg>