<?xml version="1.0" encoding="utf-8"?>
<svg version="1.1" xmlns:xlink="http://www.w3.org/1999/xlink" width="12px" height="12px" viewBox="48 32.5  12 12" xmlns="http://www.w3.org/2000/svg">
  <path d="M 54 32.5  C 57.36 32.5  60 35.14  60 38.5  C 60 41.86  57.36 44.5  54 44.5  C 50.64 44.5  48 41.86  48 38.5  C 48 35.14  50.64 32.5  54 32.5  Z " fill-rule="nonzero" fill="#f0f0f0" stroke="none" />
  <path d="M 54 33  C 57.08 33  59.5 35.42  59.5 38.5  C 59.5 41.58  57.08 44  54 44  C 50.92 44  48.5 41.58  48.5 38.5  C 48.5 35.42  50.92 33  54 33  Z " stroke-width="1" stroke="#797979" fill="none" />
  <path d="M 54 41.5  C 52.32 41.5  51 40.18  51 38.5  C 51 36.82  52.32 35.5  54 35.5  C 55.68 35.5  57 36.82  57 38.5  C 57 40.18  55.68 41.5  54 41.5  " fill-rule="nonzero" fill="#797979" stroke="none" />
</svg>