<?xml version="1.0" encoding="utf-8"?>
<svg version="1.1" xmlns:xlink="http://www.w3.org/1999/xlink" width="12px" height="12px" viewBox="439 601.5  12 12" xmlns="http://www.w3.org/2000/svg">
  <path d="M 445 601.5  C 448.36 601.5  451 604.14  451 607.5  C 451 610.86  448.36 613.5  445 613.5  C 441.64 613.5  439 610.86  439 607.5  C 439 604.14  441.64 601.5  445 601.5  Z " fill-rule="nonzero" fill="#ffffff" stroke="none" />
  <path d="M 445 602  C 448.08 602  450.5 604.42  450.5 607.5  C 450.5 610.58  448.08 613  445 613  C 441.92 613  439.5 610.58  439.5 607.5  C 439.5 604.42  441.92 602  445 602  Z " stroke-width="1" stroke="#797979" fill="none" />
  <path d="M 445 610.5  C 443.32 610.5  442 609.18  442 607.5  C 442 605.82  443.32 604.5  445 604.5  C 446.68 604.5  448 605.82  448 607.5  C 448 609.18  446.68 610.5  445 610.5  " fill-rule="nonzero" fill="#797979" stroke="none" />
</svg>