<?xml version="1.0" encoding="utf-8"?>
<svg version="1.1" xmlns:xlink="http://www.w3.org/1999/xlink" width="12px" height="12px" viewBox="705 793.5  12 12" xmlns="http://www.w3.org/2000/svg">
  <path d="M 711 793.5  C 714.36 793.5  717 796.14  717 799.5  C 717 802.86  714.36 805.5  711 805.5  C 707.64 805.5  705 802.86  705 799.5  C 705 796.14  707.64 793.5  711 793.5  Z " fill-rule="nonzero" fill="#f0f0f0" stroke="none" />
  <path d="M 711 794  C 714.08 794  716.5 796.42  716.5 799.5  C 716.5 802.58  714.08 805  711 805  C 707.92 805  705.5 802.58  705.5 799.5  C 705.5 796.42  707.92 794  711 794  Z " stroke-width="1" stroke="#333333" fill="none" />
  <path d="M 711 802.5  C 709.32 802.5  708 801.18  708 799.5  C 708 797.82  709.32 796.5  711 796.5  C 712.68 796.5  714 797.82  714 799.5  C 714 801.18  712.68 802.5  711 802.5  " fill-rule="nonzero" fill="#333333" stroke="none" />
</svg>