<?xml version="1.0" encoding="utf-8"?>
<svg version="1.1" xmlns:xlink="http://www.w3.org/1999/xlink" width="12px" height="12px" viewBox="439 887.5  12 12" xmlns="http://www.w3.org/2000/svg">
  <path d="M 445 887.5  C 448.36 887.5  451 890.14  451 893.5  C 451 896.86  448.36 899.5  445 899.5  C 441.64 899.5  439 896.86  439 893.5  C 439 890.14  441.64 887.5  445 887.5  Z " fill-rule="nonzero" fill="#f0f0f0" stroke="none" />
  <path d="M 445 888  C 448.08 888  450.5 890.42  450.5 893.5  C 450.5 896.58  448.08 899  445 899  C 441.92 899  439.5 896.58  439.5 893.5  C 439.5 890.42  441.92 888  445 888  Z " stroke-width="1" stroke="#333333" fill="none" />
  <path d="M 445 896.5  C 443.32 896.5  442 895.18  442 893.5  C 442 891.82  443.32 890.5  445 890.5  C 446.68 890.5  448 891.82  448 893.5  C 448 895.18  446.68 896.5  445 896.5  " fill-rule="nonzero" fill="#333333" stroke="none" />
</svg>