<?xml version="1.0" encoding="utf-8"?>
<svg version="1.1" xmlns:xlink="http://www.w3.org/1999/xlink" width="12px" height="12px" viewBox="413 1217.5  12 12" xmlns="http://www.w3.org/2000/svg">
  <path d="M 419 1217.5  C 422.36 1217.5  425 1220.14  425 1223.5  C 425 1226.86  422.36 1229.5  419 1229.5  C 415.64 1229.5  413 1226.86  413 1223.5  C 413 1220.14  415.64 1217.5  419 1217.5  Z " fill-rule="nonzero" fill="#ffffff" stroke="none" />
  <path d="M 419 1218  C 422.08 1218  424.5 1220.42  424.5 1223.5  C 424.5 1226.58  422.08 1229  419 1229  C 415.92 1229  413.5 1226.58  413.5 1223.5  C 413.5 1220.42  415.92 1218  419 1218  Z " stroke-width="1" stroke="#333333" fill="none" />
  <path d="M 419 1226.5  C 417.32 1226.5  416 1225.18  416 1223.5  C 416 1221.82  417.32 1220.5  419 1220.5  C 420.68 1220.5  422 1221.82  422 1223.5  C 422 1225.18  420.68 1226.5  419 1226.5  " fill-rule="nonzero" fill="#333333" stroke="none" />
</svg>