<?xml version="1.0" encoding="utf-8"?>
<svg version="1.1" xmlns:xlink="http://www.w3.org/1999/xlink" width="12px" height="12px" viewBox="362 1326.5  12 12" xmlns="http://www.w3.org/2000/svg">
  <path d="M 368 1326.5  C 371.36 1326.5  374 1329.14  374 1332.5  C 374 1335.86  371.36 1338.5  368 1338.5  C 364.64 1338.5  362 1335.86  362 1332.5  C 362 1329.14  364.64 1326.5  368 1326.5  Z " fill-rule="nonzero" fill="#f0f0f0" stroke="none" />
  <path d="M 368 1327  C 371.08 1327  373.5 1329.42  373.5 1332.5  C 373.5 1335.58  371.08 1338  368 1338  C 364.92 1338  362.5 1335.58  362.5 1332.5  C 362.5 1329.42  364.92 1327  368 1327  Z " stroke-width="1" stroke="#8080ff" fill="none" />
  <path d="M 368 1335.5  C 366.32 1335.5  365 1334.18  365 1332.5  C 365 1330.82  366.32 1329.5  368 1329.5  C 369.68 1329.5  371 1330.82  371 1332.5  C 371 1334.18  369.68 1335.5  368 1335.5  " fill-rule="nonzero" fill="#8080ff" stroke="none" />
</svg>