<?xml version="1.0" encoding="utf-8"?>
<svg version="1.1" xmlns:xlink="http://www.w3.org/1999/xlink" width="12px" height="12px" viewBox="362 1385.5  12 12" xmlns="http://www.w3.org/2000/svg">
  <path d="M 368 1385.5  C 371.36 1385.5  374 1388.14  374 1391.5  C 374 1394.86  371.36 1397.5  368 1397.5  C 364.64 1397.5  362 1394.86  362 1391.5  C 362 1388.14  364.64 1385.5  368 1385.5  Z " fill-rule="nonzero" fill="#f0f0f0" stroke="none" />
  <path d="M 368 1386  C 371.08 1386  373.5 1388.42  373.5 1391.5  C 373.5 1394.58  371.08 1397  368 1397  C 364.92 1397  362.5 1394.58  362.5 1391.5  C 362.5 1388.42  364.92 1386  368 1386  Z " stroke-width="1" stroke="#797979" fill="none" />
  <path d="M 368 1394.5  C 366.32 1394.5  365 1393.18  365 1391.5  C 365 1389.82  366.32 1388.5  368 1388.5  C 369.68 1388.5  371 1389.82  371 1391.5  C 371 1393.18  369.68 1394.5  368 1394.5  " fill-rule="nonzero" fill="#797979" stroke="none" />
</svg>