<?xml version="1.0" encoding="utf-8"?>
<svg version="1.1" xmlns:xlink="http://www.w3.org/1999/xlink" width="12px" height="12px" viewBox="683 665.5  12 12" xmlns="http://www.w3.org/2000/svg">
  <path d="M 689 665.5  C 692.36 665.5  695 668.14  695 671.5  C 695 674.86  692.36 677.5  689 677.5  C 685.64 677.5  683 674.86  683 671.5  C 683 668.14  685.64 665.5  689 665.5  Z " fill-rule="nonzero" fill="#f0f0f0" stroke="none" />
  <path d="M 689 666  C 692.08 666  694.5 668.42  694.5 671.5  C 694.5 674.58  692.08 677  689 677  C 685.92 677  683.5 674.58  683.5 671.5  C 683.5 668.42  685.92 666  689 666  Z " stroke-width="1" stroke="#797979" fill="none" />
  <path d="M 689 674.5  C 687.32 674.5  686 673.18  686 671.5  C 686 669.82  687.32 668.5  689 668.5  C 690.68 668.5  692 669.82  692 671.5  C 692 673.18  690.68 674.5  689 674.5  " fill-rule="nonzero" fill="#797979" stroke="none" />
</svg>