<?xml version="1.0" encoding="utf-8"?>
<svg version="1.1" xmlns:xlink="http://www.w3.org/1999/xlink" width="12px" height="12px" viewBox="325 541.5  12 12" xmlns="http://www.w3.org/2000/svg">
  <path d="M 331 541.5  C 334.36 541.5  337 544.14  337 547.5  C 337 550.86  334.36 553.5  331 553.5  C 327.64 553.5  325 550.86  325 547.5  C 325 544.14  327.64 541.5  331 541.5  Z " fill-rule="nonzero" fill="#ffffff" stroke="none" />
  <path d="M 331 542  C 334.08 542  336.5 544.42  336.5 547.5  C 336.5 550.58  334.08 553  331 553  C 327.92 553  325.5 550.58  325.5 547.5  C 325.5 544.42  327.92 542  331 542  Z " stroke-width="1" stroke="#797979" fill="none" />
  <path d="M 331 550.5  C 329.32 550.5  328 549.18  328 547.5  C 328 545.82  329.32 544.5  331 544.5  C 332.68 544.5  334 545.82  334 547.5  C 334 549.18  332.68 550.5  331 550.5  " fill-rule="nonzero" fill="#797979" stroke="none" />
</svg>