<?xml version="1.0" encoding="utf-8"?>
<svg version="1.1" xmlns:xlink="http://www.w3.org/1999/xlink" width="12px" height="12px" viewBox="468 541.5  12 12" xmlns="http://www.w3.org/2000/svg">
  <path d="M 474 541.5  C 477.36 541.5  480 544.14  480 547.5  C 480 550.86  477.36 553.5  474 553.5  C 470.64 553.5  468 550.86  468 547.5  C 468 544.14  470.64 541.5  474 541.5  Z " fill-rule="nonzero" fill="#ffffff" stroke="none" />
  <path d="M 474 542  C 477.08 542  479.5 544.42  479.5 547.5  C 479.5 550.58  477.08 553  474 553  C 470.92 553  468.5 550.58  468.5 547.5  C 468.5 544.42  470.92 542  474 542  Z " stroke-width="1" stroke="#797979" fill="none" />
  <path d="M 474 550.5  C 472.32 550.5  471 549.18  471 547.5  C 471 545.82  472.32 544.5  474 544.5  C 475.68 544.5  477 545.82  477 547.5  C 477 549.18  475.68 550.5  474 550.5  " fill-rule="nonzero" fill="#797979" stroke="none" />
</svg>