<?xml version="1.0" encoding="utf-8"?>
<svg version="1.1" xmlns:xlink="http://www.w3.org/1999/xlink" width="12px" height="12px" viewBox="545 541.5  12 12" xmlns="http://www.w3.org/2000/svg">
  <path d="M 551 541.5  C 554.36 541.5  557 544.14  557 547.5  C 557 550.86  554.36 553.5  551 553.5  C 547.64 553.5  545 550.86  545 547.5  C 545 544.14  547.64 541.5  551 541.5  Z " fill-rule="nonzero" fill="#ffffff" stroke="none" />
  <path d="M 551 542  C 554.08 542  556.5 544.42  556.5 547.5  C 556.5 550.58  554.08 553  551 553  C 547.92 553  545.5 550.58  545.5 547.5  C 545.5 544.42  547.92 542  551 542  Z " stroke-width="1" stroke="#333333" fill="none" />
  <path d="M 551 550.5  C 549.32 550.5  548 549.18  548 547.5  C 548 545.82  549.32 544.5  551 544.5  C 552.68 544.5  554 545.82  554 547.5  C 554 549.18  552.68 550.5  551 550.5  " fill-rule="nonzero" fill="#333333" stroke="none" />
</svg>