<?xml version="1.0" encoding="utf-8"?>
<svg version="1.1" xmlns:xlink="http://www.w3.org/1999/xlink" width="12px" height="12px" viewBox="783 894.5  12 12" xmlns="http://www.w3.org/2000/svg">
  <path d="M 789 894.5  C 792.36 894.5  795 897.14  795 900.5  C 795 903.86  792.36 906.5  789 906.5  C 785.64 906.5  783 903.86  783 900.5  C 783 897.14  785.64 894.5  789 894.5  Z " fill-rule="nonzero" fill="#ffffff" stroke="none" />
  <path d="M 789 895  C 792.08 895  794.5 897.42  794.5 900.5  C 794.5 903.58  792.08 906  789 906  C 785.92 906  783.5 903.58  783.5 900.5  C 783.5 897.42  785.92 895  789 895  Z " stroke-width="1" stroke="#333333" fill="none" />
  <path d="M 789 903.5  C 787.32 903.5  786 902.18  786 900.5  C 786 898.82  787.32 897.5  789 897.5  C 790.68 897.5  792 898.82  792 900.5  C 792 902.18  790.68 903.5  789 903.5  " fill-rule="nonzero" fill="#333333" stroke="none" />
</svg>