<?xml version="1.0" encoding="utf-8"?>
<svg version="1.1" xmlns:xlink="http://www.w3.org/1999/xlink" width="12px" height="12px" viewBox="783 784.5  12 12" xmlns="http://www.w3.org/2000/svg">
  <path d="M 789 784.5  C 792.36 784.5  795 787.14  795 790.5  C 795 793.86  792.36 796.5  789 796.5  C 785.64 796.5  783 793.86  783 790.5  C 783 787.14  785.64 784.5  789 784.5  Z " fill-rule="nonzero" fill="#ffffff" stroke="none" />
  <path d="M 789 785  C 792.08 785  794.5 787.42  794.5 790.5  C 794.5 793.58  792.08 796  789 796  C 785.92 796  783.5 793.58  783.5 790.5  C 783.5 787.42  785.92 785  789 785  Z " stroke-width="1" stroke="#333333" fill="none" />
  <path d="M 789 793.5  C 787.32 793.5  786 792.18  786 790.5  C 786 788.82  787.32 787.5  789 787.5  C 790.68 787.5  792 788.82  792 790.5  C 792 792.18  790.68 793.5  789 793.5  " fill-rule="nonzero" fill="#333333" stroke="none" />
</svg>