<?xml version="1.0" encoding="utf-8"?>
<svg version="1.1" xmlns:xlink="http://www.w3.org/1999/xlink" width="12px" height="12px" viewBox="843 784.5  12 12" xmlns="http://www.w3.org/2000/svg">
  <path d="M 849 784.5  C 852.36 784.5  855 787.14  855 790.5  C 855 793.86  852.36 796.5  849 796.5  C 845.64 796.5  843 793.86  843 790.5  C 843 787.14  845.64 784.5  849 784.5  Z " fill-rule="nonzero" fill="#f0f0f0" stroke="none" />
  <path d="M 849 785  C 852.08 785  854.5 787.42  854.5 790.5  C 854.5 793.58  852.08 796  849 796  C 845.92 796  843.5 793.58  843.5 790.5  C 843.5 787.42  845.92 785  849 785  Z " stroke-width="1" stroke="#333333" fill="none" />
  <path d="M 849 793.5  C 847.32 793.5  846 792.18  846 790.5  C 846 788.82  847.32 787.5  849 787.5  C 850.68 787.5  852 788.82  852 790.5  C 852 792.18  850.68 793.5  849 793.5  " fill-rule="nonzero" fill="#333333" stroke="none" />
</svg>