<?xml version="1.0" encoding="utf-8"?>
<svg version="1.1" xmlns:xlink="http://www.w3.org/1999/xlink" width="12px" height="12px" viewBox="303 977.5  12 12" xmlns="http://www.w3.org/2000/svg">
  <path d="M 309 977.5  C 312.36 977.5  315 980.14  315 983.5  C 315 986.86  312.36 989.5  309 989.5  C 305.64 989.5  303 986.86  303 983.5  C 303 980.14  305.64 977.5  309 977.5  Z " fill-rule="nonzero" fill="#ffffff" stroke="none" />
  <path d="M 309 978  C 312.08 978  314.5 980.42  314.5 983.5  C 314.5 986.58  312.08 989  309 989  C 305.92 989  303.5 986.58  303.5 983.5  C 303.5 980.42  305.92 978  309 978  Z " stroke-width="1" stroke="#797979" fill="none" />
  <path d="M 309 986.5  C 307.32 986.5  306 985.18  306 983.5  C 306 981.82  307.32 980.5  309 980.5  C 310.68 980.5  312 981.82  312 983.5  C 312 985.18  310.68 986.5  309 986.5  " fill-rule="nonzero" fill="#797979" stroke="none" />
</svg>