<?xml version="1.0" encoding="utf-8"?>
<svg version="1.1" xmlns:xlink="http://www.w3.org/1999/xlink" width="12px" height="12px" viewBox="478 977.5  12 12" xmlns="http://www.w3.org/2000/svg">
  <path d="M 484 977.5  C 487.36 977.5  490 980.14  490 983.5  C 490 986.86  487.36 989.5  484 989.5  C 480.64 989.5  478 986.86  478 983.5  C 478 980.14  480.64 977.5  484 977.5  Z " fill-rule="nonzero" fill="#ffffff" stroke="none" />
  <path d="M 484 978  C 487.08 978  489.5 980.42  489.5 983.5  C 489.5 986.58  487.08 989  484 989  C 480.92 989  478.5 986.58  478.5 983.5  C 478.5 980.42  480.92 978  484 978  Z " stroke-width="1" stroke="#333333" fill="none" />
  <path d="M 484 986.5  C 482.32 986.5  481 985.18  481 983.5  C 481 981.82  482.32 980.5  484 980.5  C 485.68 980.5  487 981.82  487 983.5  C 487 985.18  485.68 986.5  484 986.5  " fill-rule="nonzero" fill="#333333" stroke="none" />
</svg>