<?xml version="1.0" encoding="utf-8"?>
<svg version="1.1" xmlns:xlink="http://www.w3.org/1999/xlink" width="12px" height="12px" viewBox="408 632.5  12 12" xmlns="http://www.w3.org/2000/svg">
  <path d="M 414 632.5  C 417.36 632.5  420 635.14  420 638.5  C 420 641.86  417.36 644.5  414 644.5  C 410.64 644.5  408 641.86  408 638.5  C 408 635.14  410.64 632.5  414 632.5  Z " fill-rule="nonzero" fill="#f0f0f0" stroke="none" />
  <path d="M 414 633  C 417.08 633  419.5 635.42  419.5 638.5  C 419.5 641.58  417.08 644  414 644  C 410.92 644  408.5 641.58  408.5 638.5  C 408.5 635.42  410.92 633  414 633  Z " stroke-width="1" stroke="#333333" fill="none" />
  <path d="M 414 641.5  C 412.32 641.5  411 640.18  411 638.5  C 411 636.82  412.32 635.5  414 635.5  C 415.68 635.5  417 636.82  417 638.5  C 417 640.18  415.68 641.5  414 641.5  " fill-rule="nonzero" fill="#333333" stroke="none" />
</svg>