<?xml version="1.0" encoding="utf-8"?>
<svg version="1.1" xmlns:xlink="http://www.w3.org/1999/xlink" width="12px" height="12px" viewBox="867 833.5  12 12" xmlns="http://www.w3.org/2000/svg">
  <path d="M 873 833.5  C 876.36 833.5  879 836.14  879 839.5  C 879 842.86  876.36 845.5  873 845.5  C 869.64 845.5  867 842.86  867 839.5  C 867 836.14  869.64 833.5  873 833.5  Z " fill-rule="nonzero" fill="#ffffff" stroke="none" />
  <path d="M 873 834  C 876.08 834  878.5 836.42  878.5 839.5  C 878.5 842.58  876.08 845  873 845  C 869.92 845  867.5 842.58  867.5 839.5  C 867.5 836.42  869.92 834  873 834  Z " stroke-width="1" stroke="#333333" fill="none" />
  <path d="M 873 842.5  C 871.32 842.5  870 841.18  870 839.5  C 870 837.82  871.32 836.5  873 836.5  C 874.68 836.5  876 837.82  876 839.5  C 876 841.18  874.68 842.5  873 842.5  " fill-rule="nonzero" fill="#333333" stroke="none" />
</svg>