<?xml version="1.0" encoding="utf-8"?>
<svg version="1.1" xmlns:xlink="http://www.w3.org/1999/xlink" width="12px" height="12px" viewBox="843 894.5  12 12" xmlns="http://www.w3.org/2000/svg">
  <path d="M 849 894.5  C 852.36 894.5  855 897.14  855 900.5  C 855 903.86  852.36 906.5  849 906.5  C 845.64 906.5  843 903.86  843 900.5  C 843 897.14  845.64 894.5  849 894.5  Z " fill-rule="nonzero" fill="#ffffff" stroke="none" />
  <path d="M 849 895  C 852.08 895  854.5 897.42  854.5 900.5  C 854.5 903.58  852.08 906  849 906  C 845.92 906  843.5 903.58  843.5 900.5  C 843.5 897.42  845.92 895  849 895  Z " stroke-width="1" stroke="#333333" fill="none" />
  <path d="M 849 903.5  C 847.32 903.5  846 902.18  846 900.5  C 846 898.82  847.32 897.5  849 897.5  C 850.68 897.5  852 898.82  852 900.5  C 852 902.18  850.68 903.5  849 903.5  " fill-rule="nonzero" fill="#333333" stroke="none" />
</svg>