<?xml version="1.0" encoding="utf-8"?>
<svg version="1.1" xmlns:xlink="http://www.w3.org/1999/xlink" width="12px" height="12px" viewBox="973 632.5  12 12" xmlns="http://www.w3.org/2000/svg">
  <path d="M 979 632.5  C 982.36 632.5  985 635.14  985 638.5  C 985 641.86  982.36 644.5  979 644.5  C 975.64 644.5  973 641.86  973 638.5  C 973 635.14  975.64 632.5  979 632.5  Z " fill-rule="nonzero" fill="#f0f0f0" stroke="none" />
  <path d="M 979 633  C 982.08 633  984.5 635.42  984.5 638.5  C 984.5 641.58  982.08 644  979 644  C 975.92 644  973.5 641.58  973.5 638.5  C 973.5 635.42  975.92 633  979 633  Z " stroke-width="1" stroke="#333333" fill="none" />
  <path d="M 979 641.5  C 977.32 641.5  976 640.18  976 638.5  C 976 636.82  977.32 635.5  979 635.5  C 980.68 635.5  982 636.82  982 638.5  C 982 640.18  980.68 641.5  979 641.5  " fill-rule="nonzero" fill="#333333" stroke="none" />
</svg>