<?xml version="1.0" encoding="utf-8"?>
<svg version="1.1" xmlns:xlink="http://www.w3.org/1999/xlink" width="12px" height="12px" viewBox="478 951.5  12 12" xmlns="http://www.w3.org/2000/svg">
  <path d="M 484 951.5  C 487.36 951.5  490 954.14  490 957.5  C 490 960.86  487.36 963.5  484 963.5  C 480.64 963.5  478 960.86  478 957.5  C 478 954.14  480.64 951.5  484 951.5  Z " fill-rule="nonzero" fill="#ffffff" stroke="none" />
  <path d="M 484 952  C 487.08 952  489.5 954.42  489.5 957.5  C 489.5 960.58  487.08 963  484 963  C 480.92 963  478.5 960.58  478.5 957.5  C 478.5 954.42  480.92 952  484 952  Z " stroke-width="1" stroke="#333333" fill="none" />
  <path d="M 484 960.5  C 482.32 960.5  481 959.18  481 957.5  C 481 955.82  482.32 954.5  484 954.5  C 485.68 954.5  487 955.82  487 957.5  C 487 959.18  485.68 960.5  484 960.5  " fill-rule="nonzero" fill="#333333" stroke="none" />
</svg>