<?xml version="1.0" encoding="utf-8"?>
<svg version="1.1" xmlns:xlink="http://www.w3.org/1999/xlink" width="12px" height="12px" viewBox="883 606.5  12 12" xmlns="http://www.w3.org/2000/svg">
  <path d="M 889 606.5  C 892.36 606.5  895 609.14  895 612.5  C 895 615.86  892.36 618.5  889 618.5  C 885.64 618.5  883 615.86  883 612.5  C 883 609.14  885.64 606.5  889 606.5  Z " fill-rule="nonzero" fill="#ffffff" stroke="none" />
  <path d="M 889 607  C 892.08 607  894.5 609.42  894.5 612.5  C 894.5 615.58  892.08 618  889 618  C 885.92 618  883.5 615.58  883.5 612.5  C 883.5 609.42  885.92 607  889 607  Z " stroke-width="1" stroke="#797979" fill="none" />
  <path d="M 889 615.5  C 887.32 615.5  886 614.18  886 612.5  C 886 610.82  887.32 609.5  889 609.5  C 890.68 609.5  892 610.82  892 612.5  C 892 614.18  890.68 615.5  889 615.5  " fill-rule="nonzero" fill="#797979" stroke="none" />
</svg>