<?xml version="1.0" encoding="utf-8"?>
<svg version="1.1" xmlns:xlink="http://www.w3.org/1999/xlink" width="12px" height="12px" viewBox="303 951.5  12 12" xmlns="http://www.w3.org/2000/svg">
  <path d="M 309 951.5  C 312.36 951.5  315 954.14  315 957.5  C 315 960.86  312.36 963.5  309 963.5  C 305.64 963.5  303 960.86  303 957.5  C 303 954.14  305.64 951.5  309 951.5  Z " fill-rule="nonzero" fill="#ffffff" stroke="none" />
  <path d="M 309 952  C 312.08 952  314.5 954.42  314.5 957.5  C 314.5 960.58  312.08 963  309 963  C 305.92 963  303.5 960.58  303.5 957.5  C 303.5 954.42  305.92 952  309 952  Z " stroke-width="1" stroke="#797979" fill="none" />
  <path d="M 309 960.5  C 307.32 960.5  306 959.18  306 957.5  C 306 955.82  307.32 954.5  309 954.5  C 310.68 954.5  312 955.82  312 957.5  C 312 959.18  310.68 960.5  309 960.5  " fill-rule="nonzero" fill="#797979" stroke="none" />
</svg>