<?xml version="1.0" encoding="utf-8"?>
<svg version="1.1" xmlns:xlink="http://www.w3.org/1999/xlink" width="12px" height="12px" viewBox="783 833.5  12 12" xmlns="http://www.w3.org/2000/svg">
  <path d="M 789 833.5  C 792.36 833.5  795 836.14  795 839.5  C 795 842.86  792.36 845.5  789 845.5  C 785.64 845.5  783 842.86  783 839.5  C 783 836.14  785.64 833.5  789 833.5  Z " fill-rule="nonzero" fill="#f0f0f0" stroke="none" />
  <path d="M 789 834  C 792.08 834  794.5 836.42  794.5 839.5  C 794.5 842.58  792.08 845  789 845  C 785.92 845  783.5 842.58  783.5 839.5  C 783.5 836.42  785.92 834  789 834  Z " stroke-width="1" stroke="#333333" fill="none" />
  <path d="M 789 842.5  C 787.32 842.5  786 841.18  786 839.5  C 786 837.82  787.32 836.5  789 836.5  C 790.68 836.5  792 837.82  792 839.5  C 792 841.18  790.68 842.5  789 842.5  " fill-rule="nonzero" fill="#333333" stroke="none" />
</svg>