<?xml version="1.0" encoding="utf-8"?>
<svg version="1.1" xmlns:xlink="http://www.w3.org/1999/xlink" width="12px" height="12px" viewBox="883 632.5  12 12" xmlns="http://www.w3.org/2000/svg">
  <path d="M 889 632.5  C 892.36 632.5  895 635.14  895 638.5  C 895 641.86  892.36 644.5  889 644.5  C 885.64 644.5  883 641.86  883 638.5  C 883 635.14  885.64 632.5  889 632.5  Z " fill-rule="nonzero" fill="#ffffff" stroke="none" />
  <path d="M 889 633  C 892.08 633  894.5 635.42  894.5 638.5  C 894.5 641.58  892.08 644  889 644  C 885.92 644  883.5 641.58  883.5 638.5  C 883.5 635.42  885.92 633  889 633  Z " stroke-width="1" stroke="#797979" fill="none" />
  <path d="M 889 641.5  C 887.32 641.5  886 640.18  886 638.5  C 886 636.82  887.32 635.5  889 635.5  C 890.68 635.5  892 636.82  892 638.5  C 892 640.18  890.68 641.5  889 641.5  " fill-rule="nonzero" fill="#797979" stroke="none" />
</svg>