<?xml version="1.0" encoding="utf-8"?>
<svg version="1.1" xmlns:xlink="http://www.w3.org/1999/xlink" width="12px" height="12px" viewBox="1071 606.5  12 12" xmlns="http://www.w3.org/2000/svg">
  <path d="M 1077 606.5  C 1080.36 606.5  1083 609.14  1083 612.5  C 1083 615.86  1080.36 618.5  1077 618.5  C 1073.64 618.5  1071 615.86  1071 612.5  C 1071 609.14  1073.64 606.5  1077 606.5  Z " fill-rule="nonzero" fill="#ffffff" stroke="none" />
  <path d="M 1077 607  C 1080.08 607  1082.5 609.42  1082.5 612.5  C 1082.5 615.58  1080.08 618  1077 618  C 1073.92 618  1071.5 615.58  1071.5 612.5  C 1071.5 609.42  1073.92 607  1077 607  Z " stroke-width="1" stroke="#333333" fill="none" />
  <path d="M 1077 615.5  C 1075.32 615.5  1074 614.18  1074 612.5  C 1074 610.82  1075.32 609.5  1077 609.5  C 1078.68 609.5  1080 610.82  1080 612.5  C 1080 614.18  1078.68 615.5  1077 615.5  " fill-rule="nonzero" fill="#333333" stroke="none" />
</svg>