<?xml version="1.0" encoding="utf-8"?>
<svg version="1.1" xmlns:xlink="http://www.w3.org/1999/xlink" width="12px" height="12px" viewBox="1071 632.5  12 12" xmlns="http://www.w3.org/2000/svg">
  <path d="M 1077 632.5  C 1080.36 632.5  1083 635.14  1083 638.5  C 1083 641.86  1080.36 644.5  1077 644.5  C 1073.64 644.5  1071 641.86  1071 638.5  C 1071 635.14  1073.64 632.5  1077 632.5  Z " fill-rule="nonzero" fill="#ffffff" stroke="none" />
  <path d="M 1077 633  C 1080.08 633  1082.5 635.42  1082.5 638.5  C 1082.5 641.58  1080.08 644  1077 644  C 1073.92 644  1071.5 641.58  1071.5 638.5  C 1071.5 635.42  1073.92 633  1077 633  Z " stroke-width="1" stroke="#333333" fill="none" />
  <path d="M 1077 641.5  C 1075.32 641.5  1074 640.18  1074 638.5  C 1074 636.82  1075.32 635.5  1077 635.5  C 1078.68 635.5  1080 636.82  1080 638.5  C 1080 640.18  1078.68 641.5  1077 641.5  " fill-rule="nonzero" fill="#333333" stroke="none" />
</svg>