<?xml version="1.0" encoding="utf-8"?>
<svg version="1.1" xmlns:xlink="http://www.w3.org/1999/xlink" width="12px" height="12px" viewBox="843 811.5  12 12" xmlns="http://www.w3.org/2000/svg">
  <path d="M 849 811.5  C 852.36 811.5  855 814.14  855 817.5  C 855 820.86  852.36 823.5  849 823.5  C 845.64 823.5  843 820.86  843 817.5  C 843 814.14  845.64 811.5  849 811.5  Z " fill-rule="nonzero" fill="#f0f0f0" stroke="none" />
  <path d="M 849 812  C 852.08 812  854.5 814.42  854.5 817.5  C 854.5 820.58  852.08 823  849 823  C 845.92 823  843.5 820.58  843.5 817.5  C 843.5 814.42  845.92 812  849 812  Z " stroke-width="1" stroke="#333333" fill="none" />
  <path d="M 849 820.5  C 847.32 820.5  846 819.18  846 817.5  C 846 815.82  847.32 814.5  849 814.5  C 850.68 814.5  852 815.82  852 817.5  C 852 819.18  850.68 820.5  849 820.5  " fill-rule="nonzero" fill="#333333" stroke="none" />
</svg>