<?xml version="1.0" encoding="utf-8"?>
<svg version="1.1" xmlns:xlink="http://www.w3.org/1999/xlink" width="12px" height="12px" viewBox="358 632.5  12 12" xmlns="http://www.w3.org/2000/svg">
  <path d="M 364 632.5  C 367.36 632.5  370 635.14  370 638.5  C 370 641.86  367.36 644.5  364 644.5  C 360.64 644.5  358 641.86  358 638.5  C 358 635.14  360.64 632.5  364 632.5  Z " fill-rule="nonzero" fill="#f0f0f0" stroke="none" />
  <path d="M 364 633  C 367.08 633  369.5 635.42  369.5 638.5  C 369.5 641.58  367.08 644  364 644  C 360.92 644  358.5 641.58  358.5 638.5  C 358.5 635.42  360.92 633  364 633  Z " stroke-width="1" stroke="#797979" fill="none" />
  <path d="M 364 641.5  C 362.32 641.5  361 640.18  361 638.5  C 361 636.82  362.32 635.5  364 635.5  C 365.68 635.5  367 636.82  367 638.5  C 367 640.18  365.68 641.5  364 641.5  " fill-rule="nonzero" fill="#797979" stroke="none" />
</svg>