<?xml version="1.0" encoding="utf-8"?>
<svg version="1.1" xmlns:xlink="http://www.w3.org/1999/xlink" width="12px" height="12px" viewBox="382 951.5  12 12" xmlns="http://www.w3.org/2000/svg">
  <path d="M 388 951.5  C 391.36 951.5  394 954.14  394 957.5  C 394 960.86  391.36 963.5  388 963.5  C 384.64 963.5  382 960.86  382 957.5  C 382 954.14  384.64 951.5  388 951.5  Z " fill-rule="nonzero" fill="#ffffff" stroke="none" />
  <path d="M 388 952  C 391.08 952  393.5 954.42  393.5 957.5  C 393.5 960.58  391.08 963  388 963  C 384.92 963  382.5 960.58  382.5 957.5  C 382.5 954.42  384.92 952  388 952  Z " stroke-width="1" stroke="#333333" fill="none" />
  <path d="M 388 960.5  C 386.32 960.5  385 959.18  385 957.5  C 385 955.82  386.32 954.5  388 954.5  C 389.68 954.5  391 955.82  391 957.5  C 391 959.18  389.68 960.5  388 960.5  " fill-rule="nonzero" fill="#333333" stroke="none" />
</svg>