<?xml version="1.0" encoding="utf-8"?>
<svg version="1.1" xmlns:xlink="http://www.w3.org/1999/xlink" width="12px" height="12px" viewBox="408 606.5  12 12" xmlns="http://www.w3.org/2000/svg">
  <path d="M 414 606.5  C 417.36 606.5  420 609.14  420 612.5  C 420 615.86  417.36 618.5  414 618.5  C 410.64 618.5  408 615.86  408 612.5  C 408 609.14  410.64 606.5  414 606.5  Z " fill-rule="nonzero" fill="#ffffff" stroke="none" />
  <path d="M 414 607  C 417.08 607  419.5 609.42  419.5 612.5  C 419.5 615.58  417.08 618  414 618  C 410.92 618  408.5 615.58  408.5 612.5  C 408.5 609.42  410.92 607  414 607  Z " stroke-width="1" stroke="#333333" fill="none" />
  <path d="M 414 615.5  C 412.32 615.5  411 614.18  411 612.5  C 411 610.82  412.32 609.5  414 609.5  C 415.68 609.5  417 610.82  417 612.5  C 417 614.18  415.68 615.5  414 615.5  " fill-rule="nonzero" fill="#333333" stroke="none" />
</svg>