<?xml version="1.0" encoding="utf-8"?>
<svg version="1.1" xmlns:xlink="http://www.w3.org/1999/xlink" width="12px" height="12px" viewBox="783 811.5  12 12" xmlns="http://www.w3.org/2000/svg">
  <path d="M 789 811.5  C 792.36 811.5  795 814.14  795 817.5  C 795 820.86  792.36 823.5  789 823.5  C 785.64 823.5  783 820.86  783 817.5  C 783 814.14  785.64 811.5  789 811.5  Z " fill-rule="nonzero" fill="#ffffff" stroke="none" />
  <path d="M 789 812  C 792.08 812  794.5 814.42  794.5 817.5  C 794.5 820.58  792.08 823  789 823  C 785.92 823  783.5 820.58  783.5 817.5  C 783.5 814.42  785.92 812  789 812  Z " stroke-width="1" stroke="#333333" fill="none" />
  <path d="M 789 820.5  C 787.32 820.5  786 819.18  786 817.5  C 786 815.82  787.32 814.5  789 814.5  C 790.68 814.5  792 815.82  792 817.5  C 792 819.18  790.68 820.5  789 820.5  " fill-rule="nonzero" fill="#333333" stroke="none" />
</svg>