<?xml version="1.0" encoding="utf-8"?>
<svg version="1.1" xmlns:xlink="http://www.w3.org/1999/xlink" width="12px" height="12px" viewBox="1071 657.5  12 12" xmlns="http://www.w3.org/2000/svg">
  <path d="M 1077 657.5  C 1080.36 657.5  1083 660.14  1083 663.5  C 1083 666.86  1080.36 669.5  1077 669.5  C 1073.64 669.5  1071 666.86  1071 663.5  C 1071 660.14  1073.64 657.5  1077 657.5  Z " fill-rule="nonzero" fill="#ffffff" stroke="none" />
  <path d="M 1077 658  C 1080.08 658  1082.5 660.42  1082.5 663.5  C 1082.5 666.58  1080.08 669  1077 669  C 1073.92 669  1071.5 666.58  1071.5 663.5  C 1071.5 660.42  1073.92 658  1077 658  Z " stroke-width="1" stroke="#333333" fill="none" />
  <path d="M 1077 666.5  C 1075.32 666.5  1074 665.18  1074 663.5  C 1074 661.82  1075.32 660.5  1077 660.5  C 1078.68 660.5  1080 661.82  1080 663.5  C 1080 665.18  1078.68 666.5  1077 666.5  " fill-rule="nonzero" fill="#333333" stroke="none" />
</svg>