<?xml version="1.0" encoding="utf-8"?>
<svg version="1.1" xmlns:xlink="http://www.w3.org/1999/xlink" width="12px" height="12px" viewBox="632 621.5  12 12" xmlns="http://www.w3.org/2000/svg">
  <path d="M 638 621.5  C 641.36 621.5  644 624.14  644 627.5  C 644 630.86  641.36 633.5  638 633.5  C 634.64 633.5  632 630.86  632 627.5  C 632 624.14  634.64 621.5  638 621.5  Z " fill-rule="nonzero" fill="#f0f0f0" stroke="none" />
  <path d="M 638 622  C 641.08 622  643.5 624.42  643.5 627.5  C 643.5 630.58  641.08 633  638 633  C 634.92 633  632.5 630.58  632.5 627.5  C 632.5 624.42  634.92 622  638 622  Z " stroke-width="1" stroke="#797979" fill="none" />
  <path d="M 638 630.5  C 636.32 630.5  635 629.18  635 627.5  C 635 625.82  636.32 624.5  638 624.5  C 639.68 624.5  641 625.82  641 627.5  C 641 629.18  639.68 630.5  638 630.5  " fill-rule="nonzero" fill="#797979" stroke="none" />
</svg>