<?xml version="1.0" encoding="utf-8"?>
<svg version="1.1" xmlns:xlink="http://www.w3.org/1999/xlink" width="12px" height="12px" viewBox="632 690.5  12 12" xmlns="http://www.w3.org/2000/svg">
  <path d="M 638 690.5  C 641.36 690.5  644 693.14  644 696.5  C 644 699.86  641.36 702.5  638 702.5  C 634.64 702.5  632 699.86  632 696.5  C 632 693.14  634.64 690.5  638 690.5  Z " fill-rule="nonzero" fill="#f0f0f0" stroke="none" />
  <path d="M 638 691  C 641.08 691  643.5 693.42  643.5 696.5  C 643.5 699.58  641.08 702  638 702  C 634.92 702  632.5 699.58  632.5 696.5  C 632.5 693.42  634.92 691  638 691  Z " stroke-width="1" stroke="#797979" fill="none" />
  <path d="M 638 699.5  C 636.32 699.5  635 698.18  635 696.5  C 635 694.82  636.32 693.5  638 693.5  C 639.68 693.5  641 694.82  641 696.5  C 641 698.18  639.68 699.5  638 699.5  " fill-rule="nonzero" fill="#797979" stroke="none" />
</svg>