<?xml version="1.0" encoding="utf-8"?>
<svg version="1.1" xmlns:xlink="http://www.w3.org/1999/xlink" width="12px" height="12px" viewBox="567 653.5  12 12" xmlns="http://www.w3.org/2000/svg">
  <path d="M 573 653.5  C 576.36 653.5  579 656.14  579 659.5  C 579 662.86  576.36 665.5  573 665.5  C 569.64 665.5  567 662.86  567 659.5  C 567 656.14  569.64 653.5  573 653.5  Z " fill-rule="nonzero" fill="#f0f0f0" stroke="none" />
  <path d="M 573 654  C 576.08 654  578.5 656.42  578.5 659.5  C 578.5 662.58  576.08 665  573 665  C 569.92 665  567.5 662.58  567.5 659.5  C 567.5 656.42  569.92 654  573 654  Z " stroke-width="1" stroke="#797979" fill="none" />
  <path d="M 573 662.5  C 571.32 662.5  570 661.18  570 659.5  C 570 657.82  571.32 656.5  573 656.5  C 574.68 656.5  576 657.82  576 659.5  C 576 661.18  574.68 662.5  573 662.5  " fill-rule="nonzero" fill="#797979" stroke="none" />
</svg>