<?xml version="1.0" encoding="utf-8"?>
<svg version="1.1" xmlns:xlink="http://www.w3.org/1999/xlink" width="12px" height="12px" viewBox="687 621.5  12 12" xmlns="http://www.w3.org/2000/svg">
  <path d="M 693 621.5  C 696.36 621.5  699 624.14  699 627.5  C 699 630.86  696.36 633.5  693 633.5  C 689.64 633.5  687 630.86  687 627.5  C 687 624.14  689.64 621.5  693 621.5  Z " fill-rule="nonzero" fill="#ffffff" stroke="none" />
  <path d="M 693 622  C 696.08 622  698.5 624.42  698.5 627.5  C 698.5 630.58  696.08 633  693 633  C 689.92 633  687.5 630.58  687.5 627.5  C 687.5 624.42  689.92 622  693 622  Z " stroke-width="1" stroke="#797979" fill="none" />
  <path d="M 693 630.5  C 691.32 630.5  690 629.18  690 627.5  C 690 625.82  691.32 624.5  693 624.5  C 694.68 624.5  696 625.82  696 627.5  C 696 629.18  694.68 630.5  693 630.5  " fill-rule="nonzero" fill="#797979" stroke="none" />
</svg>