<?xml version="1.0" encoding="utf-8"?>
<svg version="1.1" xmlns:xlink="http://www.w3.org/1999/xlink" width="12px" height="12px" viewBox="632 653.5  12 12" xmlns="http://www.w3.org/2000/svg">
  <path d="M 638 653.5  C 641.36 653.5  644 656.14  644 659.5  C 644 662.86  641.36 665.5  638 665.5  C 634.64 665.5  632 662.86  632 659.5  C 632 656.14  634.64 653.5  638 653.5  Z " fill-rule="nonzero" fill="#ffffff" stroke="none" />
  <path d="M 638 654  C 641.08 654  643.5 656.42  643.5 659.5  C 643.5 662.58  641.08 665  638 665  C 634.92 665  632.5 662.58  632.5 659.5  C 632.5 656.42  634.92 654  638 654  Z " stroke-width="1" stroke="#8080ff" fill="none" />
  <path d="M 638 662.5  C 636.32 662.5  635 661.18  635 659.5  C 635 657.82  636.32 656.5  638 656.5  C 639.68 656.5  641 657.82  641 659.5  C 641 661.18  639.68 662.5  638 662.5  " fill-rule="nonzero" fill="#8080ff" stroke="none" />
</svg>