<?xml version="1.0" encoding="utf-8"?>
<svg version="1.1" xmlns:xlink="http://www.w3.org/1999/xlink" width="12px" height="12px" viewBox="687 653.5  12 12" xmlns="http://www.w3.org/2000/svg">
  <path d="M 693 653.5  C 696.36 653.5  699 656.14  699 659.5  C 699 662.86  696.36 665.5  693 665.5  C 689.64 665.5  687 662.86  687 659.5  C 687 656.14  689.64 653.5  693 653.5  Z " fill-rule="nonzero" fill="#ffffff" stroke="none" />
  <path d="M 693 654  C 696.08 654  698.5 656.42  698.5 659.5  C 698.5 662.58  696.08 665  693 665  C 689.92 665  687.5 662.58  687.5 659.5  C 687.5 656.42  689.92 654  693 654  Z " stroke-width="1" stroke="#797979" fill="none" />
  <path d="M 693 662.5  C 691.32 662.5  690 661.18  690 659.5  C 690 657.82  691.32 656.5  693 656.5  C 694.68 656.5  696 657.82  696 659.5  C 696 661.18  694.68 662.5  693 662.5  " fill-rule="nonzero" fill="#797979" stroke="none" />
</svg>