<?xml version="1.0" encoding="utf-8"?>
<svg version="1.1" xmlns:xlink="http://www.w3.org/1999/xlink" width="12px" height="12px" viewBox="728 652.5  12 12" xmlns="http://www.w3.org/2000/svg">
  <path d="M 734 652.5  C 737.36 652.5  740 655.14  740 658.5  C 740 661.86  737.36 664.5  734 664.5  C 730.64 664.5  728 661.86  728 658.5  C 728 655.14  730.64 652.5  734 652.5  Z " fill-rule="nonzero" fill="#f0f0f0" stroke="none" />
  <path d="M 734 653  C 737.08 653  739.5 655.42  739.5 658.5  C 739.5 661.58  737.08 664  734 664  C 730.92 664  728.5 661.58  728.5 658.5  C 728.5 655.42  730.92 653  734 653  Z " stroke-width="1" stroke="#797979" fill="none" />
  <path d="M 734 661.5  C 732.32 661.5  731 660.18  731 658.5  C 731 656.82  732.32 655.5  734 655.5  C 735.68 655.5  737 656.82  737 658.5  C 737 660.18  735.68 661.5  734 661.5  " fill-rule="nonzero" fill="#797979" stroke="none" />
</svg>