<?xml version="1.0" encoding="utf-8"?>
<svg version="1.1" xmlns:xlink="http://www.w3.org/1999/xlink" width="12px" height="12px" viewBox="567 722.5  12 12" xmlns="http://www.w3.org/2000/svg">
  <path d="M 573 722.5  C 576.36 722.5  579 725.14  579 728.5  C 579 731.86  576.36 734.5  573 734.5  C 569.64 734.5  567 731.86  567 728.5  C 567 725.14  569.64 722.5  573 722.5  Z " fill-rule="nonzero" fill="#ffffff" stroke="none" />
  <path d="M 573 723  C 576.08 723  578.5 725.42  578.5 728.5  C 578.5 731.58  576.08 734  573 734  C 569.92 734  567.5 731.58  567.5 728.5  C 567.5 725.42  569.92 723  573 723  Z " stroke-width="1" stroke="#8080ff" fill="none" />
  <path d="M 573 731.5  C 571.32 731.5  570 730.18  570 728.5  C 570 726.82  571.32 725.5  573 725.5  C 574.68 725.5  576 726.82  576 728.5  C 576 730.18  574.68 731.5  573 731.5  " fill-rule="nonzero" fill="#8080ff" stroke="none" />
</svg>