<?xml version="1.0" encoding="utf-8"?>
<svg version="1.1" xmlns:xlink="http://www.w3.org/1999/xlink" width="12px" height="12px" viewBox="632 722.5  12 12" xmlns="http://www.w3.org/2000/svg">
  <path d="M 638 722.5  C 641.36 722.5  644 725.14  644 728.5  C 644 731.86  641.36 734.5  638 734.5  C 634.64 734.5  632 731.86  632 728.5  C 632 725.14  634.64 722.5  638 722.5  Z " fill-rule="nonzero" fill="#f0f0f0" stroke="none" />
  <path d="M 638 723  C 641.08 723  643.5 725.42  643.5 728.5  C 643.5 731.58  641.08 734  638 734  C 634.92 734  632.5 731.58  632.5 728.5  C 632.5 725.42  634.92 723  638 723  Z " stroke-width="1" stroke="#797979" fill="none" />
  <path d="M 638 731.5  C 636.32 731.5  635 730.18  635 728.5  C 635 726.82  636.32 725.5  638 725.5  C 639.68 725.5  641 726.82  641 728.5  C 641 730.18  639.68 731.5  638 731.5  " fill-rule="nonzero" fill="#797979" stroke="none" />
</svg>