<?xml version="1.0" encoding="utf-8"?>
<svg version="1.1" xmlns:xlink="http://www.w3.org/1999/xlink" width="12px" height="12px" viewBox="876 621.5  12 12" xmlns="http://www.w3.org/2000/svg">
  <path d="M 882 621.5  C 885.36 621.5  888 624.14  888 627.5  C 888 630.86  885.36 633.5  882 633.5  C 878.64 633.5  876 630.86  876 627.5  C 876 624.14  878.64 621.5  882 621.5  Z " fill-rule="nonzero" fill="#f0f0f0" stroke="none" />
  <path d="M 882 622  C 885.08 622  887.5 624.42  887.5 627.5  C 887.5 630.58  885.08 633  882 633  C 878.92 633  876.5 630.58  876.5 627.5  C 876.5 624.42  878.92 622  882 622  Z " stroke-width="1" stroke="#797979" fill="none" />
  <path d="M 882 630.5  C 880.32 630.5  879 629.18  879 627.5  C 879 625.82  880.32 624.5  882 624.5  C 883.68 624.5  885 625.82  885 627.5  C 885 629.18  883.68 630.5  882 630.5  " fill-rule="nonzero" fill="#797979" stroke="none" />
</svg>