<?xml version="1.0" encoding="utf-8"?>
<svg version="1.1" xmlns:xlink="http://www.w3.org/1999/xlink" width="12px" height="12px" viewBox="876 688.5  12 12" xmlns="http://www.w3.org/2000/svg">
  <path d="M 882 688.5  C 885.36 688.5  888 691.14  888 694.5  C 888 697.86  885.36 700.5  882 700.5  C 878.64 700.5  876 697.86  876 694.5  C 876 691.14  878.64 688.5  882 688.5  Z " fill-rule="nonzero" fill="#ffffff" stroke="none" />
  <path d="M 882 689  C 885.08 689  887.5 691.42  887.5 694.5  C 887.5 697.58  885.08 700  882 700  C 878.92 700  876.5 697.58  876.5 694.5  C 876.5 691.42  878.92 689  882 689  Z " stroke-width="1" stroke="#797979" fill="none" />
  <path d="M 882 697.5  C 880.32 697.5  879 696.18  879 694.5  C 879 692.82  880.32 691.5  882 691.5  C 883.68 691.5  885 692.82  885 694.5  C 885 696.18  883.68 697.5  882 697.5  " fill-rule="nonzero" fill="#797979" stroke="none" />
</svg>