<?xml version="1.0" encoding="utf-8"?>
<svg version="1.1" xmlns:xlink="http://www.w3.org/1999/xlink" width="12px" height="12px" viewBox="996 621.5  12 12" xmlns="http://www.w3.org/2000/svg">
  <path d="M 1002 621.5  C 1005.36 621.5  1008 624.14  1008 627.5  C 1008 630.86  1005.36 633.5  1002 633.5  C 998.64 633.5  996 630.86  996 627.5  C 996 624.14  998.64 621.5  1002 621.5  Z " fill-rule="nonzero" fill="#ffffff" stroke="none" />
  <path d="M 1002 622  C 1005.08 622  1007.5 624.42  1007.5 627.5  C 1007.5 630.58  1005.08 633  1002 633  C 998.92 633  996.5 630.58  996.5 627.5  C 996.5 624.42  998.92 622  1002 622  Z " stroke-width="1" stroke="#797979" fill="none" />
  <path d="M 1002 630.5  C 1000.32 630.5  999 629.18  999 627.5  C 999 625.82  1000.32 624.5  1002 624.5  C 1003.68 624.5  1005 625.82  1005 627.5  C 1005 629.18  1003.68 630.5  1002 630.5  " fill-rule="nonzero" fill="#797979" stroke="none" />
</svg>