<?xml version="1.0" encoding="utf-8"?>
<svg version="1.1" xmlns:xlink="http://www.w3.org/1999/xlink" width="12px" height="12px" viewBox="876 652.5  12 12" xmlns="http://www.w3.org/2000/svg">
  <path d="M 882 652.5  C 885.36 652.5  888 655.14  888 658.5  C 888 661.86  885.36 664.5  882 664.5  C 878.64 664.5  876 661.86  876 658.5  C 876 655.14  878.64 652.5  882 652.5  Z " fill-rule="nonzero" fill="#f0f0f0" stroke="none" />
  <path d="M 882 653  C 885.08 653  887.5 655.42  887.5 658.5  C 887.5 661.58  885.08 664  882 664  C 878.92 664  876.5 661.58  876.5 658.5  C 876.5 655.42  878.92 653  882 653  Z " stroke-width="1" stroke="#797979" fill="none" />
  <path d="M 882 661.5  C 880.32 661.5  879 660.18  879 658.5  C 879 656.82  880.32 655.5  882 655.5  C 883.68 655.5  885 656.82  885 658.5  C 885 660.18  883.68 661.5  882 661.5  " fill-rule="nonzero" fill="#797979" stroke="none" />
</svg>