<?xml version="1.0" encoding="utf-8"?>
<svg version="1.1" xmlns:xlink="http://www.w3.org/1999/xlink" width="12px" height="12px" viewBox="941 621.5  12 12" xmlns="http://www.w3.org/2000/svg">
  <path d="M 947 621.5  C 950.36 621.5  953 624.14  953 627.5  C 953 630.86  950.36 633.5  947 633.5  C 943.64 633.5  941 630.86  941 627.5  C 941 624.14  943.64 621.5  947 621.5  Z " fill-rule="nonzero" fill="#ffffff" stroke="none" />
  <path d="M 947 622  C 950.08 622  952.5 624.42  952.5 627.5  C 952.5 630.58  950.08 633  947 633  C 943.92 633  941.5 630.58  941.5 627.5  C 941.5 624.42  943.92 622  947 622  Z " stroke-width="1" stroke="#797979" fill="none" />
  <path d="M 947 630.5  C 945.32 630.5  944 629.18  944 627.5  C 944 625.82  945.32 624.5  947 624.5  C 948.68 624.5  950 625.82  950 627.5  C 950 629.18  948.68 630.5  947 630.5  " fill-rule="nonzero" fill="#797979" stroke="none" />
</svg>