<?xml version="1.0" encoding="utf-8"?>
<svg version="1.1" xmlns:xlink="http://www.w3.org/1999/xlink" width="12px" height="12px" viewBox="355 1201.5  12 12" xmlns="http://www.w3.org/2000/svg">
  <path d="M 361 1201.5  C 364.36 1201.5  367 1204.14  367 1207.5  C 367 1210.86  364.36 1213.5  361 1213.5  C 357.64 1213.5  355 1210.86  355 1207.5  C 355 1204.14  357.64 1201.5  361 1201.5  Z " fill-rule="nonzero" fill="#f0f0f0" stroke="none" />
  <path d="M 361 1202  C 364.08 1202  366.5 1204.42  366.5 1207.5  C 366.5 1210.58  364.08 1213  361 1213  C 357.92 1213  355.5 1210.58  355.5 1207.5  C 355.5 1204.42  357.92 1202  361 1202  Z " stroke-width="1" stroke="#797979" fill="none" />
  <path d="M 361 1210.5  C 359.32 1210.5  358 1209.18  358 1207.5  C 358 1205.82  359.32 1204.5  361 1204.5  C 362.68 1204.5  364 1205.82  364 1207.5  C 364 1209.18  362.68 1210.5  361 1210.5  " fill-rule="nonzero" fill="#797979" stroke="none" />
</svg>