<?xml version="1.0" encoding="utf-8"?>
<svg version="1.1" xmlns:xlink="http://www.w3.org/1999/xlink" width="12px" height="12px" viewBox="530 1201.5  12 12" xmlns="http://www.w3.org/2000/svg">
  <path d="M 536 1201.5  C 539.36 1201.5  542 1204.14  542 1207.5  C 542 1210.86  539.36 1213.5  536 1213.5  C 532.64 1213.5  530 1210.86  530 1207.5  C 530 1204.14  532.64 1201.5  536 1201.5  Z " fill-rule="nonzero" fill="#f0f0f0" stroke="none" />
  <path d="M 536 1202  C 539.08 1202  541.5 1204.42  541.5 1207.5  C 541.5 1210.58  539.08 1213  536 1213  C 532.92 1213  530.5 1210.58  530.5 1207.5  C 530.5 1204.42  532.92 1202  536 1202  Z " stroke-width="1" stroke="#8080ff" fill="none" />
  <path d="M 536 1210.5  C 534.32 1210.5  533 1209.18  533 1207.5  C 533 1205.82  534.32 1204.5  536 1204.5  C 537.68 1204.5  539 1205.82  539 1207.5  C 539 1209.18  537.68 1210.5  536 1210.5  " fill-rule="nonzero" fill="#8080ff" stroke="none" />
</svg>