<?xml version="1.0" encoding="utf-8"?>
<svg version="1.1" xmlns:xlink="http://www.w3.org/1999/xlink" width="12px" height="12px" viewBox="355 1260.5  12 12" xmlns="http://www.w3.org/2000/svg">
  <path d="M 361 1260.5  C 364.36 1260.5  367 1263.14  367 1266.5  C 367 1269.86  364.36 1272.5  361 1272.5  C 357.64 1272.5  355 1269.86  355 1266.5  C 355 1263.14  357.64 1260.5  361 1260.5  Z " fill-rule="nonzero" fill="#ffffff" stroke="none" />
  <path d="M 361 1261  C 364.08 1261  366.5 1263.42  366.5 1266.5  C 366.5 1269.58  364.08 1272  361 1272  C 357.92 1272  355.5 1269.58  355.5 1266.5  C 355.5 1263.42  357.92 1261  361 1261  Z " stroke-width="1" stroke="#797979" fill="none" />
  <path d="M 361 1269.5  C 359.32 1269.5  358 1268.18  358 1266.5  C 358 1264.82  359.32 1263.5  361 1263.5  C 362.68 1263.5  364 1264.82  364 1266.5  C 364 1268.18  362.68 1269.5  361 1269.5  " fill-rule="nonzero" fill="#797979" stroke="none" />
</svg>