<?xml version="1.0" encoding="utf-8"?>
<svg version="1.1" xmlns:xlink="http://www.w3.org/1999/xlink" width="12px" height="12px" viewBox="530 1260.5  12 12" xmlns="http://www.w3.org/2000/svg">
  <path d="M 536 1260.5  C 539.36 1260.5  542 1263.14  542 1266.5  C 542 1269.86  539.36 1272.5  536 1272.5  C 532.64 1272.5  530 1269.86  530 1266.5  C 530 1263.14  532.64 1260.5  536 1260.5  Z " fill-rule="nonzero" fill="#ffffff" stroke="none" />
  <path d="M 536 1261  C 539.08 1261  541.5 1263.42  541.5 1266.5  C 541.5 1269.58  539.08 1272  536 1272  C 532.92 1272  530.5 1269.58  530.5 1266.5  C 530.5 1263.42  532.92 1261  536 1261  Z " stroke-width="1" stroke="#797979" fill="none" />
  <path d="M 536 1269.5  C 534.32 1269.5  533 1268.18  533 1266.5  C 533 1264.82  534.32 1263.5  536 1263.5  C 537.68 1263.5  539 1264.82  539 1266.5  C 539 1268.18  537.68 1269.5  536 1269.5  " fill-rule="nonzero" fill="#797979" stroke="none" />
</svg>