<?xml version="1.0" encoding="utf-8"?>
<svg version="1.1" xmlns:xlink="http://www.w3.org/1999/xlink" width="12px" height="12px" viewBox="785 549.5  12 12" xmlns="http://www.w3.org/2000/svg">
  <path d="M 791 549.5  C 794.36 549.5  797 552.14  797 555.5  C 797 558.86  794.36 561.5  791 561.5  C 787.64 561.5  785 558.86  785 555.5  C 785 552.14  787.64 549.5  791 549.5  Z " fill-rule="nonzero" fill="#f0f0f0" stroke="none" />
  <path d="M 791 550  C 794.08 550  796.5 552.42  796.5 555.5  C 796.5 558.58  794.08 561  791 561  C 787.92 561  785.5 558.58  785.5 555.5  C 785.5 552.42  787.92 550  791 550  Z " stroke-width="1" stroke="#797979" fill="none" />
  <path d="M 791 558.5  C 789.32 558.5  788 557.18  788 555.5  C 788 553.82  789.32 552.5  791 552.5  C 792.68 552.5  794 553.82  794 555.5  C 794 557.18  792.68 558.5  791 558.5  " fill-rule="nonzero" fill="#797979" stroke="none" />
</svg>