<?xml version="1.0" encoding="utf-8"?>
<svg version="1.1" xmlns:xlink="http://www.w3.org/1999/xlink" width="12px" height="12px" viewBox="683 802.5  12 12" xmlns="http://www.w3.org/2000/svg">
  <path d="M 689 802.5  C 692.36 802.5  695 805.14  695 808.5  C 695 811.86  692.36 814.5  689 814.5  C 685.64 814.5  683 811.86  683 808.5  C 683 805.14  685.64 802.5  689 802.5  Z " fill-rule="nonzero" fill="#f0f0f0" stroke="none" />
  <path d="M 689 803  C 692.08 803  694.5 805.42  694.5 808.5  C 694.5 811.58  692.08 814  689 814  C 685.92 814  683.5 811.58  683.5 808.5  C 683.5 805.42  685.92 803  689 803  Z " stroke-width="1" stroke="#797979" fill="none" />
  <path d="M 689 811.5  C 687.32 811.5  686 810.18  686 808.5  C 686 806.82  687.32 805.5  689 805.5  C 690.68 805.5  692 806.82  692 808.5  C 692 810.18  690.68 811.5  689 811.5  " fill-rule="nonzero" fill="#797979" stroke="none" />
</svg>