<?xml version="1.0" encoding="utf-8"?>
<svg version="1.1" xmlns:xlink="http://www.w3.org/1999/xlink" width="12px" height="12px" viewBox="892 835.5  12 12" xmlns="http://www.w3.org/2000/svg">
  <path d="M 898 835.5  C 901.36 835.5  904 838.14  904 841.5  C 904 844.86  901.36 847.5  898 847.5  C 894.64 847.5  892 844.86  892 841.5  C 892 838.14  894.64 835.5  898 835.5  Z " fill-rule="nonzero" fill="#ffffff" stroke="none" />
  <path d="M 898 836  C 901.08 836  903.5 838.42  903.5 841.5  C 903.5 844.58  901.08 847  898 847  C 894.92 847  892.5 844.58  892.5 841.5  C 892.5 838.42  894.92 836  898 836  Z " stroke-width="1" stroke="#333333" fill="none" />
  <path d="M 898 844.5  C 896.32 844.5  895 843.18  895 841.5  C 895 839.82  896.32 838.5  898 838.5  C 899.68 838.5  901 839.82  901 841.5  C 901 843.18  899.68 844.5  898 844.5  " fill-rule="nonzero" fill="#333333" stroke="none" />
</svg>