<?xml version="1.0" encoding="utf-8"?>
<svg version="1.1" xmlns:xlink="http://www.w3.org/1999/xlink" width="12px" height="12px" viewBox="252 1019  12 12" xmlns="http://www.w3.org/2000/svg">
  <path d="M 258 1019  C 261.36 1019  264 1021.64  264 1025  C 264 1028.36  261.36 1031  258 1031  C 254.64 1031  252 1028.36  252 1025  C 252 1021.64  254.64 1019  258 1019  Z " fill-rule="nonzero" fill="#ffffff" stroke="none" />
  <path d="M 258 1019.5  C 261.08 1019.5  263.5 1021.92  263.5 1025  C 263.5 1028.08  261.08 1030.5  258 1030.5  C 254.92 1030.5  252.5 1028.08  252.5 1025  C 252.5 1021.92  254.92 1019.5  258 1019.5  Z " stroke-width="1" stroke="#797979" fill="none" />
  <path d="M 258 1028  C 256.32 1028  255 1026.68  255 1025  C 255 1023.32  256.32 1022  258 1022  C 259.68 1022  261 1023.32  261 1025  C 261 1026.68  259.68 1028  258 1028  " fill-rule="nonzero" fill="#797979" stroke="none" />
</svg>