<?xml version="1.0" encoding="utf-8"?>
<svg version="1.1" xmlns:xlink="http://www.w3.org/1999/xlink" width="12px" height="12px" viewBox="252 417  12 12" xmlns="http://www.w3.org/2000/svg">
  <path d="M 258 417  C 261.36 417  264 419.64  264 423  C 264 426.36  261.36 429  258 429  C 254.64 429  252 426.36  252 423  C 252 419.64  254.64 417  258 417  Z " fill-rule="nonzero" fill="#ffffff" stroke="none" />
  <path d="M 258 417.5  C 261.08 417.5  263.5 419.92  263.5 423  C 263.5 426.08  261.08 428.5  258 428.5  C 254.92 428.5  252.5 426.08  252.5 423  C 252.5 419.92  254.92 417.5  258 417.5  Z " stroke-width="1" stroke="#797979" fill="none" />
  <path d="M 258 426  C 256.32 426  255 424.68  255 423  C 255 421.32  256.32 420  258 420  C 259.68 420  261 421.32  261 423  C 261 424.68  259.68 426  258 426  " fill-rule="nonzero" fill="#797979" stroke="none" />
</svg>