<?xml version="1.0" encoding="utf-8"?>
<svg version="1.1" xmlns:xlink="http://www.w3.org/1999/xlink" width="12px" height="12px" viewBox="252 1937  12 12" xmlns="http://www.w3.org/2000/svg">
  <path d="M 258 1937  C 261.36 1937  264 1939.64  264 1943  C 264 1946.36  261.36 1949  258 1949  C 254.64 1949  252 1946.36  252 1943  C 252 1939.64  254.64 1937  258 1937  Z " fill-rule="nonzero" fill="#f0f0f0" stroke="none" />
  <path d="M 258 1937.5  C 261.08 1937.5  263.5 1939.92  263.5 1943  C 263.5 1946.08  261.08 1948.5  258 1948.5  C 254.92 1948.5  252.5 1946.08  252.5 1943  C 252.5 1939.92  254.92 1937.5  258 1937.5  Z " stroke-width="1" stroke="#797979" fill="none" />
  <path d="M 258 1946  C 256.32 1946  255 1944.68  255 1943  C 255 1941.32  256.32 1940  258 1940  C 259.68 1940  261 1941.32  261 1943  C 261 1944.68  259.68 1946  258 1946  " fill-rule="nonzero" fill="#797979" stroke="none" />
</svg>