<?xml version="1.0" encoding="utf-8"?>
<svg version="1.1" xmlns:xlink="http://www.w3.org/1999/xlink" width="12px" height="12px" viewBox="252 616  12 12" xmlns="http://www.w3.org/2000/svg">
  <path d="M 258 616  C 261.36 616  264 618.64  264 622  C 264 625.36  261.36 628  258 628  C 254.64 628  252 625.36  252 622  C 252 618.64  254.64 616  258 616  Z " fill-rule="nonzero" fill="#f0f0f0" stroke="none" />
  <path d="M 258 616.5  C 261.08 616.5  263.5 618.92  263.5 622  C 263.5 625.08  261.08 627.5  258 627.5  C 254.92 627.5  252.5 625.08  252.5 622  C 252.5 618.92  254.92 616.5  258 616.5  Z " stroke-width="1" stroke="#797979" fill="none" />
  <path d="M 258 625  C 256.32 625  255 623.68  255 622  C 255 620.32  256.32 619  258 619  C 259.68 619  261 620.32  261 622  C 261 623.68  259.68 625  258 625  " fill-rule="nonzero" fill="#797979" stroke="none" />
</svg>