<?xml version="1.0" encoding="utf-8"?>
<svg version="1.1" xmlns:xlink="http://www.w3.org/1999/xlink" width="12px" height="12px" viewBox="252 656  12 12" xmlns="http://www.w3.org/2000/svg">
  <path d="M 258 656  C 261.36 656  264 658.64  264 662  C 264 665.36  261.36 668  258 668  C 254.64 668  252 665.36  252 662  C 252 658.64  254.64 656  258 656  Z " fill-rule="nonzero" fill="#ffffff" stroke="none" />
  <path d="M 258 656.5  C 261.08 656.5  263.5 658.92  263.5 662  C 263.5 665.08  261.08 667.5  258 667.5  C 254.92 667.5  252.5 665.08  252.5 662  C 252.5 658.92  254.92 656.5  258 656.5  Z " stroke-width="1" stroke="#797979" fill="none" />
  <path d="M 258 665  C 256.32 665  255 663.68  255 662  C 255 660.32  256.32 659  258 659  C 259.68 659  261 660.32  261 662  C 261 663.68  259.68 665  258 665  " fill-rule="nonzero" fill="#797979" stroke="none" />
</svg>