<?xml version="1.0" encoding="utf-8"?>
<svg version="1.1" xmlns:xlink="http://www.w3.org/1999/xlink" width="12px" height="12px" viewBox="252 495  12 12" xmlns="http://www.w3.org/2000/svg">
  <path d="M 258 495  C 261.36 495  264 497.64  264 501  C 264 504.36  261.36 507  258 507  C 254.64 507  252 504.36  252 501  C 252 497.64  254.64 495  258 495  Z " fill-rule="nonzero" fill="#ffffff" stroke="none" />
  <path d="M 258 495.5  C 261.08 495.5  263.5 497.92  263.5 501  C 263.5 504.08  261.08 506.5  258 506.5  C 254.92 506.5  252.5 504.08  252.5 501  C 252.5 497.92  254.92 495.5  258 495.5  Z " stroke-width="1" stroke="#797979" fill="none" />
  <path d="M 258 504  C 256.32 504  255 502.68  255 501  C 255 499.32  256.32 498  258 498  C 259.68 498  261 499.32  261 501  C 261 502.68  259.68 504  258 504  " fill-rule="nonzero" fill="#797979" stroke="none" />
</svg>