<?xml version="1.0" encoding="utf-8"?>
<svg version="1.1" xmlns:xlink="http://www.w3.org/1999/xlink" width="12px" height="12px" viewBox="252 1578  12 12" xmlns="http://www.w3.org/2000/svg">
  <path d="M 258 1578  C 261.36 1578  264 1580.64  264 1584  C 264 1587.36  261.36 1590  258 1590  C 254.64 1590  252 1587.36  252 1584  C 252 1580.64  254.64 1578  258 1578  Z " fill-rule="nonzero" fill="#f0f0f0" stroke="none" />
  <path d="M 258 1578.5  C 261.08 1578.5  263.5 1580.92  263.5 1584  C 263.5 1587.08  261.08 1589.5  258 1589.5  C 254.92 1589.5  252.5 1587.08  252.5 1584  C 252.5 1580.92  254.92 1578.5  258 1578.5  Z " stroke-width="1" stroke="#797979" fill="none" />
  <path d="M 258 1587  C 256.32 1587  255 1585.68  255 1584  C 255 1582.32  256.32 1581  258 1581  C 259.68 1581  261 1582.32  261 1584  C 261 1585.68  259.68 1587  258 1587  " fill-rule="nonzero" fill="#797979" stroke="none" />
</svg>