<?xml version="1.0" encoding="utf-8"?>
<svg version="1.1" xmlns:xlink="http://www.w3.org/1999/xlink" width="12px" height="12px" viewBox="252 578  12 12" xmlns="http://www.w3.org/2000/svg">
  <path d="M 258 578  C 261.36 578  264 580.64  264 584  C 264 587.36  261.36 590  258 590  C 254.64 590  252 587.36  252 584  C 252 580.64  254.64 578  258 578  Z " fill-rule="nonzero" fill="#ffffff" stroke="none" />
  <path d="M 258 578.5  C 261.08 578.5  263.5 580.92  263.5 584  C 263.5 587.08  261.08 589.5  258 589.5  C 254.92 589.5  252.5 587.08  252.5 584  C 252.5 580.92  254.92 578.5  258 578.5  Z " stroke-width="1" stroke="#797979" fill="none" />
  <path d="M 258 587  C 256.32 587  255 585.68  255 584  C 255 582.32  256.32 581  258 581  C 259.68 581  261 582.32  261 584  C 261 585.68  259.68 587  258 587  " fill-rule="nonzero" fill="#797979" stroke="none" />
</svg>