<?xml version="1.0" encoding="utf-8"?>
<svg version="1.1" xmlns:xlink="http://www.w3.org/1999/xlink" width="12px" height="12px" viewBox="252 1177  12 12" xmlns="http://www.w3.org/2000/svg">
  <path d="M 258 1177  C 261.36 1177  264 1179.64  264 1183  C 264 1186.36  261.36 1189  258 1189  C 254.64 1189  252 1186.36  252 1183  C 252 1179.64  254.64 1177  258 1177  Z " fill-rule="nonzero" fill="#f0f0f0" stroke="none" />
  <path d="M 258 1177.5  C 261.08 1177.5  263.5 1179.92  263.5 1183  C 263.5 1186.08  261.08 1188.5  258 1188.5  C 254.92 1188.5  252.5 1186.08  252.5 1183  C 252.5 1179.92  254.92 1177.5  258 1177.5  Z " stroke-width="1" stroke="#797979" fill="none" />
  <path d="M 258 1186  C 256.32 1186  255 1184.68  255 1183  C 255 1181.32  256.32 1180  258 1180  C 259.68 1180  261 1181.32  261 1183  C 261 1184.68  259.68 1186  258 1186  " fill-rule="nonzero" fill="#797979" stroke="none" />
</svg>