<?xml version="1.0" encoding="utf-8"?>
<svg version="1.1" xmlns:xlink="http://www.w3.org/1999/xlink" width="12px" height="12px" viewBox="252 1375  12 12" xmlns="http://www.w3.org/2000/svg">
  <path d="M 258 1375  C 261.36 1375  264 1377.64  264 1381  C 264 1384.36  261.36 1387  258 1387  C 254.64 1387  252 1384.36  252 1381  C 252 1377.64  254.64 1375  258 1375  Z " fill-rule="nonzero" fill="#f0f0f0" stroke="none" />
  <path d="M 258 1375.5  C 261.08 1375.5  263.5 1377.92  263.5 1381  C 263.5 1384.08  261.08 1386.5  258 1386.5  C 254.92 1386.5  252.5 1384.08  252.5 1381  C 252.5 1377.92  254.92 1375.5  258 1375.5  Z " stroke-width="1" stroke="#797979" fill="none" />
  <path d="M 258 1384  C 256.32 1384  255 1382.68  255 1381  C 255 1379.32  256.32 1378  258 1378  C 259.68 1378  261 1379.32  261 1381  C 261 1382.68  259.68 1384  258 1384  " fill-rule="nonzero" fill="#797979" stroke="none" />
</svg>