<?xml version="1.0" encoding="utf-8"?>
<svg version="1.1" xmlns:xlink="http://www.w3.org/1999/xlink" width="12px" height="12px" viewBox="252 1498  12 12" xmlns="http://www.w3.org/2000/svg">
  <path d="M 258 1498  C 261.36 1498  264 1500.64  264 1504  C 264 1507.36  261.36 1510  258 1510  C 254.64 1510  252 1507.36  252 1504  C 252 1500.64  254.64 1498  258 1498  Z " fill-rule="nonzero" fill="#f0f0f0" stroke="none" />
  <path d="M 258 1498.5  C 261.08 1498.5  263.5 1500.92  263.5 1504  C 263.5 1507.08  261.08 1509.5  258 1509.5  C 254.92 1509.5  252.5 1507.08  252.5 1504  C 252.5 1500.92  254.92 1498.5  258 1498.5  Z " stroke-width="1" stroke="#797979" fill="none" />
  <path d="M 258 1507  C 256.32 1507  255 1505.68  255 1504  C 255 1502.32  256.32 1501  258 1501  C 259.68 1501  261 1502.32  261 1504  C 261 1505.68  259.68 1507  258 1507  " fill-rule="nonzero" fill="#797979" stroke="none" />
</svg>