<?xml version="1.0" encoding="utf-8"?>
<svg version="1.1" xmlns:xlink="http://www.w3.org/1999/xlink" width="12px" height="12px" viewBox="252 1899  12 12" xmlns="http://www.w3.org/2000/svg">
  <path d="M 258 1899  C 261.36 1899  264 1901.64  264 1905  C 264 1908.36  261.36 1911  258 1911  C 254.64 1911  252 1908.36  252 1905  C 252 1901.64  254.64 1899  258 1899  Z " fill-rule="nonzero" fill="#f0f0f0" stroke="none" />
  <path d="M 258 1899.5  C 261.08 1899.5  263.5 1901.92  263.5 1905  C 263.5 1908.08  261.08 1910.5  258 1910.5  C 254.92 1910.5  252.5 1908.08  252.5 1905  C 252.5 1901.92  254.92 1899.5  258 1899.5  Z " stroke-width="1" stroke="#797979" fill="none" />
  <path d="M 258 1908  C 256.32 1908  255 1906.68  255 1905  C 255 1903.32  256.32 1902  258 1902  C 259.68 1902  261 1903.32  261 1905  C 261 1906.68  259.68 1908  258 1908  " fill-rule="nonzero" fill="#797979" stroke="none" />
</svg>