<?xml version="1.0" encoding="utf-8"?>
<svg version="1.1" xmlns:xlink="http://www.w3.org/1999/xlink" width="12px" height="12px" viewBox="252 1215  12 12" xmlns="http://www.w3.org/2000/svg">
  <path d="M 258 1215  C 261.36 1215  264 1217.64  264 1221  C 264 1224.36  261.36 1227  258 1227  C 254.64 1227  252 1224.36  252 1221  C 252 1217.64  254.64 1215  258 1215  Z " fill-rule="nonzero" fill="#f0f0f0" stroke="none" />
  <path d="M 258 1215.5  C 261.08 1215.5  263.5 1217.92  263.5 1221  C 263.5 1224.08  261.08 1226.5  258 1226.5  C 254.92 1226.5  252.5 1224.08  252.5 1221  C 252.5 1217.92  254.92 1215.5  258 1215.5  Z " stroke-width="1" stroke="#797979" fill="none" />
  <path d="M 258 1224  C 256.32 1224  255 1222.68  255 1221  C 255 1219.32  256.32 1218  258 1218  C 259.68 1218  261 1219.32  261 1221  C 261 1222.68  259.68 1224  258 1224  " fill-rule="nonzero" fill="#797979" stroke="none" />
</svg>