<?xml version="1.0" encoding="utf-8"?>
<svg version="1.1" xmlns:xlink="http://www.w3.org/1999/xlink" width="12px" height="12px" viewBox="252 901  12 12" xmlns="http://www.w3.org/2000/svg">
  <path d="M 258 901  C 261.36 901  264 903.64  264 907  C 264 910.36  261.36 913  258 913  C 254.64 913  252 910.36  252 907  C 252 903.64  254.64 901  258 901  Z " fill-rule="nonzero" fill="#f0f0f0" stroke="none" />
  <path d="M 258 901.5  C 261.08 901.5  263.5 903.92  263.5 907  C 263.5 910.08  261.08 912.5  258 912.5  C 254.92 912.5  252.5 910.08  252.5 907  C 252.5 903.92  254.92 901.5  258 901.5  Z " stroke-width="1" stroke="#797979" fill="none" />
  <path d="M 258 910  C 256.32 910  255 908.68  255 907  C 255 905.32  256.32 904  258 904  C 259.68 904  261 905.32  261 907  C 261 908.68  259.68 910  258 910  " fill-rule="nonzero" fill="#797979" stroke="none" />
</svg>