<?xml version="1.0" encoding="utf-8"?>
<svg version="1.1" xmlns:xlink="http://www.w3.org/1999/xlink" width="12px" height="12px" viewBox="252 1739  12 12" xmlns="http://www.w3.org/2000/svg">
  <path d="M 258 1739  C 261.36 1739  264 1741.64  264 1745  C 264 1748.36  261.36 1751  258 1751  C 254.64 1751  252 1748.36  252 1745  C 252 1741.64  254.64 1739  258 1739  Z " fill-rule="nonzero" fill="#ffffff" stroke="none" />
  <path d="M 258 1739.5  C 261.08 1739.5  263.5 1741.92  263.5 1745  C 263.5 1748.08  261.08 1750.5  258 1750.5  C 254.92 1750.5  252.5 1748.08  252.5 1745  C 252.5 1741.92  254.92 1739.5  258 1739.5  Z " stroke-width="1" stroke="#797979" fill="none" />
  <path d="M 258 1748  C 256.32 1748  255 1746.68  255 1745  C 255 1743.32  256.32 1742  258 1742  C 259.68 1742  261 1743.32  261 1745  C 261 1746.68  259.68 1748  258 1748  " fill-rule="nonzero" fill="#797979" stroke="none" />
</svg>