<?xml version="1.0" encoding="utf-8"?>
<svg version="1.1" xmlns:xlink="http://www.w3.org/1999/xlink" width="12px" height="12px" viewBox="252 1057  12 12" xmlns="http://www.w3.org/2000/svg">
  <path d="M 258 1057  C 261.36 1057  264 1059.64  264 1063  C 264 1066.36  261.36 1069  258 1069  C 254.64 1069  252 1066.36  252 1063  C 252 1059.64  254.64 1057  258 1057  Z " fill-rule="nonzero" fill="#ffffff" stroke="none" />
  <path d="M 258 1057.5  C 261.08 1057.5  263.5 1059.92  263.5 1063  C 263.5 1066.08  261.08 1068.5  258 1068.5  C 254.92 1068.5  252.5 1066.08  252.5 1063  C 252.5 1059.92  254.92 1057.5  258 1057.5  Z " stroke-width="1" stroke="#797979" fill="none" />
  <path d="M 258 1066  C 256.32 1066  255 1064.68  255 1063  C 255 1061.32  256.32 1060  258 1060  C 259.68 1060  261 1061.32  261 1063  C 261 1064.68  259.68 1066  258 1066  " fill-rule="nonzero" fill="#797979" stroke="none" />
</svg>