<?xml version="1.0" encoding="utf-8"?>
<svg version="1.1" xmlns:xlink="http://www.w3.org/1999/xlink" width="12px" height="12px" viewBox="252 772  12 12" xmlns="http://www.w3.org/2000/svg">
  <path d="M 258 772  C 261.36 772  264 774.64  264 778  C 264 781.36  261.36 784  258 784  C 254.64 784  252 781.36  252 778  C 252 774.64  254.64 772  258 772  Z " fill-rule="nonzero" fill="#ffffff" stroke="none" />
  <path d="M 258 772.5  C 261.08 772.5  263.5 774.92  263.5 778  C 263.5 781.08  261.08 783.5  258 783.5  C 254.92 783.5  252.5 781.08  252.5 778  C 252.5 774.92  254.92 772.5  258 772.5  Z " stroke-width="1" stroke="#797979" fill="none" />
  <path d="M 258 781  C 256.32 781  255 779.68  255 778  C 255 776.32  256.32 775  258 775  C 259.68 775  261 776.32  261 778  C 261 779.68  259.68 781  258 781  " fill-rule="nonzero" fill="#797979" stroke="none" />
</svg>