<?xml version="1.0" encoding="utf-8"?>
<svg version="1.1" xmlns:xlink="http://www.w3.org/1999/xlink" width="12px" height="12px" viewBox="252 1777  12 12" xmlns="http://www.w3.org/2000/svg">
  <path d="M 258 1777  C 261.36 1777  264 1779.64  264 1783  C 264 1786.36  261.36 1789  258 1789  C 254.64 1789  252 1786.36  252 1783  C 252 1779.64  254.64 1777  258 1777  Z " fill-rule="nonzero" fill="#f0f0f0" stroke="none" />
  <path d="M 258 1777.5  C 261.08 1777.5  263.5 1779.92  263.5 1783  C 263.5 1786.08  261.08 1788.5  258 1788.5  C 254.92 1788.5  252.5 1786.08  252.5 1783  C 252.5 1779.92  254.92 1777.5  258 1777.5  Z " stroke-width="1" stroke="#797979" fill="none" />
  <path d="M 258 1786  C 256.32 1786  255 1784.68  255 1783  C 255 1781.32  256.32 1780  258 1780  C 259.68 1780  261 1781.32  261 1783  C 261 1784.68  259.68 1786  258 1786  " fill-rule="nonzero" fill="#797979" stroke="none" />
</svg>