<?xml version="1.0" encoding="utf-8"?>
<svg version="1.1" xmlns:xlink="http://www.w3.org/1999/xlink" width="12px" height="12px" viewBox="252 734  12 12" xmlns="http://www.w3.org/2000/svg">
  <path d="M 258 734  C 261.36 734  264 736.64  264 740  C 264 743.36  261.36 746  258 746  C 254.64 746  252 743.36  252 740  C 252 736.64  254.64 734  258 734  Z " fill-rule="nonzero" fill="#f0f0f0" stroke="none" />
  <path d="M 258 734.5  C 261.08 734.5  263.5 736.92  263.5 740  C 263.5 743.08  261.08 745.5  258 745.5  C 254.92 745.5  252.5 743.08  252.5 740  C 252.5 736.92  254.92 734.5  258 734.5  Z " stroke-width="1" stroke="#797979" fill="none" />
  <path d="M 258 743  C 256.32 743  255 741.68  255 740  C 255 738.32  256.32 737  258 737  C 259.68 737  261 738.32  261 740  C 261 741.68  259.68 743  258 743  " fill-rule="nonzero" fill="#797979" stroke="none" />
</svg>