<?xml version="1.0" encoding="utf-8"?>
<svg version="1.1" xmlns:xlink="http://www.w3.org/1999/xlink" width="12px" height="12px" viewBox="252 1817  12 12" xmlns="http://www.w3.org/2000/svg">
  <path d="M 258 1817  C 261.36 1817  264 1819.64  264 1823  C 264 1826.36  261.36 1829  258 1829  C 254.64 1829  252 1826.36  252 1823  C 252 1819.64  254.64 1817  258 1817  Z " fill-rule="nonzero" fill="#f0f0f0" stroke="none" />
  <path d="M 258 1817.5  C 261.08 1817.5  263.5 1819.92  263.5 1823  C 263.5 1826.08  261.08 1828.5  258 1828.5  C 254.92 1828.5  252.5 1826.08  252.5 1823  C 252.5 1819.92  254.92 1817.5  258 1817.5  Z " stroke-width="1" stroke="#797979" fill="none" />
  <path d="M 258 1826  C 256.32 1826  255 1824.68  255 1823  C 255 1821.32  256.32 1820  258 1820  C 259.68 1820  261 1821.32  261 1823  C 261 1824.68  259.68 1826  258 1826  " fill-rule="nonzero" fill="#797979" stroke="none" />
</svg>