<?xml version="1.0" encoding="utf-8"?>
<svg version="1.1" xmlns:xlink="http://www.w3.org/1999/xlink" width="12px" height="12px" viewBox="739 468.5  12 12" xmlns="http://www.w3.org/2000/svg">
  <path d="M 745 468.5  C 748.36 468.5  751 471.14  751 474.5  C 751 477.86  748.36 480.5  745 480.5  C 741.64 480.5  739 477.86  739 474.5  C 739 471.14  741.64 468.5  745 468.5  Z " fill-rule="nonzero" fill="#f0f0f0" stroke="none" />
  <path d="M 745 469  C 748.08 469  750.5 471.42  750.5 474.5  C 750.5 477.58  748.08 480  745 480  C 741.92 480  739.5 477.58  739.5 474.5  C 739.5 471.42  741.92 469  745 469  Z " stroke-width="1" stroke="#797979" fill="none" />
  <path d="M 745 477.5  C 743.32 477.5  742 476.18  742 474.5  C 742 472.82  743.32 471.5  745 471.5  C 746.68 471.5  748 472.82  748 474.5  C 748 476.18  746.68 477.5  745 477.5  " fill-rule="nonzero" fill="#797979" stroke="none" />
</svg>