<?xml version="1.0" encoding="utf-8"?>
<svg version="1.1" xmlns:xlink="http://www.w3.org/1999/xlink" width="12px" height="12px" viewBox="530 1105.5  12 12" xmlns="http://www.w3.org/2000/svg">
  <path d="M 536 1105.5  C 539.36 1105.5  542 1108.14  542 1111.5  C 542 1114.86  539.36 1117.5  536 1117.5  C 532.64 1117.5  530 1114.86  530 1111.5  C 530 1108.14  532.64 1105.5  536 1105.5  Z " fill-rule="nonzero" fill="#ffffff" stroke="none" />
  <path d="M 536 1106  C 539.08 1106  541.5 1108.42  541.5 1111.5  C 541.5 1114.58  539.08 1117  536 1117  C 532.92 1117  530.5 1114.58  530.5 1111.5  C 530.5 1108.42  532.92 1106  536 1106  Z " stroke-width="1" stroke="#797979" fill="none" />
  <path d="M 536 1114.5  C 534.32 1114.5  533 1113.18  533 1111.5  C 533 1109.82  534.32 1108.5  536 1108.5  C 537.68 1108.5  539 1109.82  539 1111.5  C 539 1113.18  537.68 1114.5  536 1114.5  " fill-rule="nonzero" fill="#797979" stroke="none" />
</svg>