<?xml version="1.0" encoding="utf-8"?>
<svg version="1.1" xmlns:xlink="http://www.w3.org/1999/xlink" width="12px" height="12px" viewBox="438 1136.5  12 12" xmlns="http://www.w3.org/2000/svg">
  <path d="M 444 1136.5  C 447.36 1136.5  450 1139.14  450 1142.5  C 450 1145.86  447.36 1148.5  444 1148.5  C 440.64 1148.5  438 1145.86  438 1142.5  C 438 1139.14  440.64 1136.5  444 1136.5  Z " fill-rule="nonzero" fill="#ffffff" stroke="none" />
  <path d="M 444 1137  C 447.08 1137  449.5 1139.42  449.5 1142.5  C 449.5 1145.58  447.08 1148  444 1148  C 440.92 1148  438.5 1145.58  438.5 1142.5  C 438.5 1139.42  440.92 1137  444 1137  Z " stroke-width="1" stroke="#8080ff" fill="none" />
  <path d="M 444 1145.5  C 442.32 1145.5  441 1144.18  441 1142.5  C 441 1140.82  442.32 1139.5  444 1139.5  C 445.68 1139.5  447 1140.82  447 1142.5  C 447 1144.18  445.68 1145.5  444 1145.5  " fill-rule="nonzero" fill="#8080ff" stroke="none" />
</svg>