<?xml version="1.0" encoding="utf-8"?>
<svg version="1.1" xmlns:xlink="http://www.w3.org/1999/xlink" width="12px" height="12px" viewBox="337 499.5  12 12" xmlns="http://www.w3.org/2000/svg">
  <path d="M 343 499.5  C 346.36 499.5  349 502.14  349 505.5  C 349 508.86  346.36 511.5  343 511.5  C 339.64 511.5  337 508.86  337 505.5  C 337 502.14  339.64 499.5  343 499.5  Z " fill-rule="nonzero" fill="#f0f0f0" stroke="none" />
  <path d="M 343 500  C 346.08 500  348.5 502.42  348.5 505.5  C 348.5 508.58  346.08 511  343 511  C 339.92 511  337.5 508.58  337.5 505.5  C 337.5 502.42  339.92 500  343 500  Z " stroke-width="1" stroke="#8080ff" fill="none" />
  <path d="M 343 508.5  C 341.32 508.5  340 507.18  340 505.5  C 340 503.82  341.32 502.5  343 502.5  C 344.68 502.5  346 503.82  346 505.5  C 346 507.18  344.68 508.5  343 508.5  " fill-rule="nonzero" fill="#8080ff" stroke="none" />
</svg>