<?xml version="1.0" encoding="utf-8"?>
<svg version="1.1" xmlns:xlink="http://www.w3.org/1999/xlink" width="12px" height="12px" viewBox="982 646.5  12 12" xmlns="http://www.w3.org/2000/svg">
  <path d="M 988 646.5  C 991.36 646.5  994 649.14  994 652.5  C 994 655.86  991.36 658.5  988 658.5  C 984.64 658.5  982 655.86  982 652.5  C 982 649.14  984.64 646.5  988 646.5  Z " fill-rule="nonzero" fill="#ffffff" stroke="none" />
  <path d="M 988 647  C 991.08 647  993.5 649.42  993.5 652.5  C 993.5 655.58  991.08 658  988 658  C 984.92 658  982.5 655.58  982.5 652.5  C 982.5 649.42  984.92 647  988 647  Z " stroke-width="1" stroke="#333333" fill="none" />
  <path d="M 988 655.5  C 986.32 655.5  985 654.18  985 652.5  C 985 650.82  986.32 649.5  988 649.5  C 989.68 649.5  991 650.82  991 652.5  C 991 654.18  989.68 655.5  988 655.5  " fill-rule="nonzero" fill="#333333" stroke="none" />
</svg>