<?xml version="1.0" encoding="utf-8"?>
<svg version="1.1" xmlns:xlink="http://www.w3.org/1999/xlink" width="12px" height="12px" viewBox="982 595.5  12 12" xmlns="http://www.w3.org/2000/svg">
  <path d="M 988 595.5  C 991.36 595.5  994 598.14  994 601.5  C 994 604.86  991.36 607.5  988 607.5  C 984.64 607.5  982 604.86  982 601.5  C 982 598.14  984.64 595.5  988 595.5  Z " fill-rule="nonzero" fill="#f0f0f0" stroke="none" />
  <path d="M 988 596  C 991.08 596  993.5 598.42  993.5 601.5  C 993.5 604.58  991.08 607  988 607  C 984.92 607  982.5 604.58  982.5 601.5  C 982.5 598.42  984.92 596  988 596  Z " stroke-width="1" stroke="#333333" fill="none" />
  <path d="M 988 604.5  C 986.32 604.5  985 603.18  985 601.5  C 985 599.82  986.32 598.5  988 598.5  C 989.68 598.5  991 599.82  991 601.5  C 991 603.18  989.68 604.5  988 604.5  " fill-rule="nonzero" fill="#333333" stroke="none" />
</svg>