<?xml version="1.0" encoding="utf-8"?>
<svg version="1.1" xmlns:xlink="http://www.w3.org/1999/xlink" width="12px" height="12px" viewBox="319 621.5  12 12" xmlns="http://www.w3.org/2000/svg">
  <path d="M 325 621.5  C 328.36 621.5  331 624.14  331 627.5  C 331 630.86  328.36 633.5  325 633.5  C 321.64 633.5  319 630.86  319 627.5  C 319 624.14  321.64 621.5  325 621.5  Z " fill-rule="nonzero" fill="#f0f0f0" stroke="none" />
  <path d="M 325 622  C 328.08 622  330.5 624.42  330.5 627.5  C 330.5 630.58  328.08 633  325 633  C 321.92 633  319.5 630.58  319.5 627.5  C 319.5 624.42  321.92 622  325 622  Z " stroke-width="1" stroke="#333333" fill="none" />
  <path d="M 325 630.5  C 323.32 630.5  322 629.18  322 627.5  C 322 625.82  323.32 624.5  325 624.5  C 326.68 624.5  328 625.82  328 627.5  C 328 629.18  326.68 630.5  325 630.5  " fill-rule="nonzero" fill="#333333" stroke="none" />
</svg>