<?xml version="1.0" encoding="utf-8"?>
<svg version="1.1" xmlns:xlink="http://www.w3.org/1999/xlink" width="12px" height="12px" viewBox="236 530.5  12 12" xmlns="http://www.w3.org/2000/svg">
  <path d="M 242 530.5  C 245.36 530.5  248 533.14  248 536.5  C 248 539.86  245.36 542.5  242 542.5  C 238.64 542.5  236 539.86  236 536.5  C 236 533.14  238.64 530.5  242 530.5  Z " fill-rule="nonzero" fill="#ffffff" stroke="none" />
  <path d="M 242 531  C 245.08 531  247.5 533.42  247.5 536.5  C 247.5 539.58  245.08 542  242 542  C 238.92 542  236.5 539.58  236.5 536.5  C 236.5 533.42  238.92 531  242 531  Z " stroke-width="1" stroke="#797979" fill="none" />
  <path d="M 242 539.5  C 240.32 539.5  239 538.18  239 536.5  C 239 534.82  240.32 533.5  242 533.5  C 243.68 533.5  245 534.82  245 536.5  C 245 538.18  243.68 539.5  242 539.5  " fill-rule="nonzero" fill="#797979" stroke="none" />
</svg>