<?xml version="1.0" encoding="utf-8"?>
<svg version="1.1" xmlns:xlink="http://www.w3.org/1999/xlink" width="12px" height="12px" viewBox="379 530.5  12 12" xmlns="http://www.w3.org/2000/svg">
  <path d="M 385 530.5  C 388.36 530.5  391 533.14  391 536.5  C 391 539.86  388.36 542.5  385 542.5  C 381.64 542.5  379 539.86  379 536.5  C 379 533.14  381.64 530.5  385 530.5  Z " fill-rule="nonzero" fill="#f0f0f0" stroke="none" />
  <path d="M 385 531  C 388.08 531  390.5 533.42  390.5 536.5  C 390.5 539.58  388.08 542  385 542  C 381.92 542  379.5 539.58  379.5 536.5  C 379.5 533.42  381.92 531  385 531  Z " stroke-width="1" stroke="#797979" fill="none" />
  <path d="M 385 539.5  C 383.32 539.5  382 538.18  382 536.5  C 382 534.82  383.32 533.5  385 533.5  C 386.68 533.5  388 534.82  388 536.5  C 388 538.18  386.68 539.5  385 539.5  " fill-rule="nonzero" fill="#797979" stroke="none" />
</svg>