<?xml version="1.0" encoding="utf-8"?>
<svg version="1.1" xmlns:xlink="http://www.w3.org/1999/xlink" width="12px" height="12px" viewBox="754 800.5  12 12" xmlns="http://www.w3.org/2000/svg">
  <path d="M 760 800.5  C 763.36 800.5  766 803.14  766 806.5  C 766 809.86  763.36 812.5  760 812.5  C 756.64 812.5  754 809.86  754 806.5  C 754 803.14  756.64 800.5  760 800.5  Z " fill-rule="nonzero" fill="#f0f0f0" stroke="none" />
  <path d="M 760 801  C 763.08 801  765.5 803.42  765.5 806.5  C 765.5 809.58  763.08 812  760 812  C 756.92 812  754.5 809.58  754.5 806.5  C 754.5 803.42  756.92 801  760 801  Z " stroke-width="1" stroke="#333333" fill="none" />
  <path d="M 760 809.5  C 758.32 809.5  757 808.18  757 806.5  C 757 804.82  758.32 803.5  760 803.5  C 761.68 803.5  763 804.82  763 806.5  C 763 808.18  761.68 809.5  760 809.5  " fill-rule="nonzero" fill="#333333" stroke="none" />
</svg>