<?xml version="1.0" encoding="utf-8"?>
<svg version="1.1" xmlns:xlink="http://www.w3.org/1999/xlink" width="12px" height="12px" viewBox="214 966.5  12 12" xmlns="http://www.w3.org/2000/svg">
  <path d="M 220 966.5  C 223.36 966.5  226 969.14  226 972.5  C 226 975.86  223.36 978.5  220 978.5  C 216.64 978.5  214 975.86  214 972.5  C 214 969.14  216.64 966.5  220 966.5  Z " fill-rule="nonzero" fill="#f0f0f0" stroke="none" />
  <path d="M 220 967  C 223.08 967  225.5 969.42  225.5 972.5  C 225.5 975.58  223.08 978  220 978  C 216.92 978  214.5 975.58  214.5 972.5  C 214.5 969.42  216.92 967  220 967  Z " stroke-width="1" stroke="#797979" fill="none" />
  <path d="M 220 975.5  C 218.32 975.5  217 974.18  217 972.5  C 217 970.82  218.32 969.5  220 969.5  C 221.68 969.5  223 970.82  223 972.5  C 223 974.18  221.68 975.5  220 975.5  " fill-rule="nonzero" fill="#797979" stroke="none" />
</svg>