<?xml version="1.0" encoding="utf-8"?>
<svg version="1.1" xmlns:xlink="http://www.w3.org/1999/xlink" width="12px" height="12px" viewBox="293 966.5  12 12" xmlns="http://www.w3.org/2000/svg">
  <path d="M 299 966.5  C 302.36 966.5  305 969.14  305 972.5  C 305 975.86  302.36 978.5  299 978.5  C 295.64 978.5  293 975.86  293 972.5  C 293 969.14  295.64 966.5  299 966.5  Z " fill-rule="nonzero" fill="#ffffff" stroke="none" />
  <path d="M 299 967  C 302.08 967  304.5 969.42  304.5 972.5  C 304.5 975.58  302.08 978  299 978  C 295.92 978  293.5 975.58  293.5 972.5  C 293.5 969.42  295.92 967  299 967  Z " stroke-width="1" stroke="#333333" fill="none" />
  <path d="M 299 975.5  C 297.32 975.5  296 974.18  296 972.5  C 296 970.82  297.32 969.5  299 969.5  C 300.68 969.5  302 970.82  302 972.5  C 302 974.18  300.68 975.5  299 975.5  " fill-rule="nonzero" fill="#333333" stroke="none" />
</svg>