<?xml version="1.0" encoding="utf-8"?>
<svg version="1.1" xmlns:xlink="http://www.w3.org/1999/xlink" width="12px" height="12px" viewBox="389 966.5  12 12" xmlns="http://www.w3.org/2000/svg">
  <path d="M 395 966.5  C 398.36 966.5  401 969.14  401 972.5  C 401 975.86  398.36 978.5  395 978.5  C 391.64 978.5  389 975.86  389 972.5  C 389 969.14  391.64 966.5  395 966.5  Z " fill-rule="nonzero" fill="#f0f0f0" stroke="none" />
  <path d="M 395 967  C 398.08 967  400.5 969.42  400.5 972.5  C 400.5 975.58  398.08 978  395 978  C 391.92 978  389.5 975.58  389.5 972.5  C 389.5 969.42  391.92 967  395 967  Z " stroke-width="1" stroke="#333333" fill="none" />
  <path d="M 395 975.5  C 393.32 975.5  392 974.18  392 972.5  C 392 970.82  393.32 969.5  395 969.5  C 396.68 969.5  398 970.82  398 972.5  C 398 974.18  396.68 975.5  395 975.5  " fill-rule="nonzero" fill="#333333" stroke="none" />
</svg>