<?xml version="1.0" encoding="utf-8"?>
<svg version="1.1" xmlns:xlink="http://www.w3.org/1999/xlink" width="12px" height="12px" viewBox="794 621.5  12 12" xmlns="http://www.w3.org/2000/svg">
  <path d="M 800 621.5  C 803.36 621.5  806 624.14  806 627.5  C 806 630.86  803.36 633.5  800 633.5  C 796.64 633.5  794 630.86  794 627.5  C 794 624.14  796.64 621.5  800 621.5  Z " fill-rule="nonzero" fill="#f0f0f0" stroke="none" />
  <path d="M 800 622  C 803.08 622  805.5 624.42  805.5 627.5  C 805.5 630.58  803.08 633  800 633  C 796.92 633  794.5 630.58  794.5 627.5  C 794.5 624.42  796.92 622  800 622  Z " stroke-width="1" stroke="#797979" fill="none" />
  <path d="M 800 630.5  C 798.32 630.5  797 629.18  797 627.5  C 797 625.82  798.32 624.5  800 624.5  C 801.68 624.5  803 625.82  803 627.5  C 803 629.18  801.68 630.5  800 630.5  " fill-rule="nonzero" fill="#797979" stroke="none" />
</svg>