<?xml version="1.0" encoding="utf-8"?>
<svg version="1.1" xmlns:xlink="http://www.w3.org/1999/xlink" width="12px" height="12px" viewBox="269 646.5  12 12" xmlns="http://www.w3.org/2000/svg">
  <path d="M 275 646.5  C 278.36 646.5  281 649.14  281 652.5  C 281 655.86  278.36 658.5  275 658.5  C 271.64 658.5  269 655.86  269 652.5  C 269 649.14  271.64 646.5  275 646.5  Z " fill-rule="nonzero" fill="#ffffff" stroke="none" />
  <path d="M 275 647  C 278.08 647  280.5 649.42  280.5 652.5  C 280.5 655.58  278.08 658  275 658  C 271.92 658  269.5 655.58  269.5 652.5  C 269.5 649.42  271.92 647  275 647  Z " stroke-width="1" stroke="#797979" fill="none" />
  <path d="M 275 655.5  C 273.32 655.5  272 654.18  272 652.5  C 272 650.82  273.32 649.5  275 649.5  C 276.68 649.5  278 650.82  278 652.5  C 278 654.18  276.68 655.5  275 655.5  " fill-rule="nonzero" fill="#797979" stroke="none" />
</svg>