<?xml version="1.0" encoding="utf-8"?>
<svg version="1.1" xmlns:xlink="http://www.w3.org/1999/xlink" width="12px" height="12px" viewBox="778 822.5  12 12" xmlns="http://www.w3.org/2000/svg">
  <path d="M 784 822.5  C 787.36 822.5  790 825.14  790 828.5  C 790 831.86  787.36 834.5  784 834.5  C 780.64 834.5  778 831.86  778 828.5  C 778 825.14  780.64 822.5  784 822.5  Z " fill-rule="nonzero" fill="#ffffff" stroke="none" />
  <path d="M 784 823  C 787.08 823  789.5 825.42  789.5 828.5  C 789.5 831.58  787.08 834  784 834  C 780.92 834  778.5 831.58  778.5 828.5  C 778.5 825.42  780.92 823  784 823  Z " stroke-width="1" stroke="#333333" fill="none" />
  <path d="M 784 831.5  C 782.32 831.5  781 830.18  781 828.5  C 781 826.82  782.32 825.5  784 825.5  C 785.68 825.5  787 826.82  787 828.5  C 787 830.18  785.68 831.5  784 831.5  " fill-rule="nonzero" fill="#333333" stroke="none" />
</svg>