<?xml version="1.0" encoding="utf-8"?>
<svg version="1.1" xmlns:xlink="http://www.w3.org/1999/xlink" width="12px" height="12px" viewBox="694 883.5  12 12" xmlns="http://www.w3.org/2000/svg">
  <path d="M 700 883.5  C 703.36 883.5  706 886.14  706 889.5  C 706 892.86  703.36 895.5  700 895.5  C 696.64 895.5  694 892.86  694 889.5  C 694 886.14  696.64 883.5  700 883.5  Z " fill-rule="nonzero" fill="#f0f0f0" stroke="none" />
  <path d="M 700 884  C 703.08 884  705.5 886.42  705.5 889.5  C 705.5 892.58  703.08 895  700 895  C 696.92 895  694.5 892.58  694.5 889.5  C 694.5 886.42  696.92 884  700 884  Z " stroke-width="1" stroke="#333333" fill="none" />
  <path d="M 700 892.5  C 698.32 892.5  697 891.18  697 889.5  C 697 887.82  698.32 886.5  700 886.5  C 701.68 886.5  703 887.82  703 889.5  C 703 891.18  701.68 892.5  700 892.5  " fill-rule="nonzero" fill="#333333" stroke="none" />
</svg>