<?xml version="1.0" encoding="utf-8"?>
<svg version="1.1" xmlns:xlink="http://www.w3.org/1999/xlink" width="12px" height="12px" viewBox="293 940.5  12 12" xmlns="http://www.w3.org/2000/svg">
  <path d="M 299 940.5  C 302.36 940.5  305 943.14  305 946.5  C 305 949.86  302.36 952.5  299 952.5  C 295.64 952.5  293 949.86  293 946.5  C 293 943.14  295.64 940.5  299 940.5  Z " fill-rule="nonzero" fill="#ffffff" stroke="none" />
  <path d="M 299 941  C 302.08 941  304.5 943.42  304.5 946.5  C 304.5 949.58  302.08 952  299 952  C 295.92 952  293.5 949.58  293.5 946.5  C 293.5 943.42  295.92 941  299 941  Z " stroke-width="1" stroke="#333333" fill="none" />
  <path d="M 299 949.5  C 297.32 949.5  296 948.18  296 946.5  C 296 944.82  297.32 943.5  299 943.5  C 300.68 943.5  302 944.82  302 946.5  C 302 948.18  300.68 949.5  299 949.5  " fill-rule="nonzero" fill="#333333" stroke="none" />
</svg>