<?xml version="1.0" encoding="utf-8"?>
<svg version="1.1" xmlns:xlink="http://www.w3.org/1999/xlink" width="12px" height="12px" viewBox="884 621.5  12 12" xmlns="http://www.w3.org/2000/svg">
  <path d="M 890 621.5  C 893.36 621.5  896 624.14  896 627.5  C 896 630.86  893.36 633.5  890 633.5  C 886.64 633.5  884 630.86  884 627.5  C 884 624.14  886.64 621.5  890 621.5  Z " fill-rule="nonzero" fill="#f0f0f0" stroke="none" />
  <path d="M 890 622  C 893.08 622  895.5 624.42  895.5 627.5  C 895.5 630.58  893.08 633  890 633  C 886.92 633  884.5 630.58  884.5 627.5  C 884.5 624.42  886.92 622  890 622  Z " stroke-width="1" stroke="#333333" fill="none" />
  <path d="M 890 630.5  C 888.32 630.5  887 629.18  887 627.5  C 887 625.82  888.32 624.5  890 624.5  C 891.68 624.5  893 625.82  893 627.5  C 893 629.18  891.68 630.5  890 630.5  " fill-rule="nonzero" fill="#333333" stroke="none" />
</svg>