<?xml version="1.0" encoding="utf-8"?>
<svg version="1.1" xmlns:xlink="http://www.w3.org/1999/xlink" width="12px" height="12px" viewBox="310 530.5  12 12" xmlns="http://www.w3.org/2000/svg">
  <path d="M 316 530.5  C 319.36 530.5  322 533.14  322 536.5  C 322 539.86  319.36 542.5  316 542.5  C 312.64 542.5  310 539.86  310 536.5  C 310 533.14  312.64 530.5  316 530.5  Z " fill-rule="nonzero" fill="#f0f0f0" stroke="none" />
  <path d="M 316 531  C 319.08 531  321.5 533.42  321.5 536.5  C 321.5 539.58  319.08 542  316 542  C 312.92 542  310.5 539.58  310.5 536.5  C 310.5 533.42  312.92 531  316 531  Z " stroke-width="1" stroke="#333333" fill="none" />
  <path d="M 316 539.5  C 314.32 539.5  313 538.18  313 536.5  C 313 534.82  314.32 533.5  316 533.5  C 317.68 533.5  319 534.82  319 536.5  C 319 538.18  317.68 539.5  316 539.5  " fill-rule="nonzero" fill="#333333" stroke="none" />
</svg>