<?xml version="1.0" encoding="utf-8"?>
<svg version="1.1" xmlns:xlink="http://www.w3.org/1999/xlink" width="12px" height="12px" viewBox="694 773.5  12 12" xmlns="http://www.w3.org/2000/svg">
  <path d="M 700 773.5  C 703.36 773.5  706 776.14  706 779.5  C 706 782.86  703.36 785.5  700 785.5  C 696.64 785.5  694 782.86  694 779.5  C 694 776.14  696.64 773.5  700 773.5  Z " fill-rule="nonzero" fill="#f0f0f0" stroke="none" />
  <path d="M 700 774  C 703.08 774  705.5 776.42  705.5 779.5  C 705.5 782.58  703.08 785  700 785  C 696.92 785  694.5 782.58  694.5 779.5  C 694.5 776.42  696.92 774  700 774  Z " stroke-width="1" stroke="#333333" fill="none" />
  <path d="M 700 782.5  C 698.32 782.5  697 781.18  697 779.5  C 697 777.82  698.32 776.5  700 776.5  C 701.68 776.5  703 777.82  703 779.5  C 703 781.18  701.68 782.5  700 782.5  " fill-rule="nonzero" fill="#333333" stroke="none" />
</svg>