<?xml version="1.0" encoding="utf-8"?>
<svg version="1.1" xmlns:xlink="http://www.w3.org/1999/xlink" width="12px" height="12px" viewBox="214 940.5  12 12" xmlns="http://www.w3.org/2000/svg">
  <path d="M 220 940.5  C 223.36 940.5  226 943.14  226 946.5  C 226 949.86  223.36 952.5  220 952.5  C 216.64 952.5  214 949.86  214 946.5  C 214 943.14  216.64 940.5  220 940.5  Z " fill-rule="nonzero" fill="#ffffff" stroke="none" />
  <path d="M 220 941  C 223.08 941  225.5 943.42  225.5 946.5  C 225.5 949.58  223.08 952  220 952  C 216.92 952  214.5 949.58  214.5 946.5  C 214.5 943.42  216.92 941  220 941  Z " stroke-width="1" stroke="#797979" fill="none" />
  <path d="M 220 949.5  C 218.32 949.5  217 948.18  217 946.5  C 217 944.82  218.32 943.5  220 943.5  C 221.68 943.5  223 944.82  223 946.5  C 223 948.18  221.68 949.5  220 949.5  " fill-rule="nonzero" fill="#797979" stroke="none" />
</svg>