<?xml version="1.0" encoding="utf-8"?>
<svg version="1.1" xmlns:xlink="http://www.w3.org/1999/xlink" width="12px" height="12px" viewBox="319 595.5  12 12" xmlns="http://www.w3.org/2000/svg">
  <path d="M 325 595.5  C 328.36 595.5  331 598.14  331 601.5  C 331 604.86  328.36 607.5  325 607.5  C 321.64 607.5  319 604.86  319 601.5  C 319 598.14  321.64 595.5  325 595.5  Z " fill-rule="nonzero" fill="#ffffff" stroke="none" />
  <path d="M 325 596  C 328.08 596  330.5 598.42  330.5 601.5  C 330.5 604.58  328.08 607  325 607  C 321.92 607  319.5 604.58  319.5 601.5  C 319.5 598.42  321.92 596  325 596  Z " stroke-width="1" stroke="#333333" fill="none" />
  <path d="M 325 604.5  C 323.32 604.5  322 603.18  322 601.5  C 322 599.82  323.32 598.5  325 598.5  C 326.68 598.5  328 599.82  328 601.5  C 328 603.18  326.68 604.5  325 604.5  " fill-rule="nonzero" fill="#333333" stroke="none" />
</svg>