<?xml version="1.0" encoding="utf-8"?>
<svg version="1.1" xmlns:xlink="http://www.w3.org/1999/xlink" width="12px" height="12px" viewBox="694 800.5  12 12" xmlns="http://www.w3.org/2000/svg">
  <path d="M 700 800.5  C 703.36 800.5  706 803.14  706 806.5  C 706 809.86  703.36 812.5  700 812.5  C 696.64 812.5  694 809.86  694 806.5  C 694 803.14  696.64 800.5  700 800.5  Z " fill-rule="nonzero" fill="#f0f0f0" stroke="none" />
  <path d="M 700 801  C 703.08 801  705.5 803.42  705.5 806.5  C 705.5 809.58  703.08 812  700 812  C 696.92 812  694.5 809.58  694.5 806.5  C 694.5 803.42  696.92 801  700 801  Z " stroke-width="1" stroke="#333333" fill="none" />
  <path d="M 700 809.5  C 698.32 809.5  697 808.18  697 806.5  C 697 804.82  698.32 803.5  700 803.5  C 701.68 803.5  703 804.82  703 806.5  C 703 808.18  701.68 809.5  700 809.5  " fill-rule="nonzero" fill="#333333" stroke="none" />
</svg>