<?xml version="1.0" encoding="utf-8"?>
<svg version="1.1" xmlns:xlink="http://www.w3.org/1999/xlink" width="12px" height="12px" viewBox="694 822.5  12 12" xmlns="http://www.w3.org/2000/svg">
  <path d="M 700 822.5  C 703.36 822.5  706 825.14  706 828.5  C 706 831.86  703.36 834.5  700 834.5  C 696.64 834.5  694 831.86  694 828.5  C 694 825.14  696.64 822.5  700 822.5  Z " fill-rule="nonzero" fill="#ffffff" stroke="none" />
  <path d="M 700 823  C 703.08 823  705.5 825.42  705.5 828.5  C 705.5 831.58  703.08 834  700 834  C 696.92 834  694.5 831.58  694.5 828.5  C 694.5 825.42  696.92 823  700 823  Z " stroke-width="1" stroke="#333333" fill="none" />
  <path d="M 700 831.5  C 698.32 831.5  697 830.18  697 828.5  C 697 826.82  698.32 825.5  700 825.5  C 701.68 825.5  703 826.82  703 828.5  C 703 830.18  701.68 831.5  700 831.5  " fill-rule="nonzero" fill="#333333" stroke="none" />
</svg>