<?xml version="1.0" encoding="utf-8"?>
<svg version="1.1" xmlns:xlink="http://www.w3.org/1999/xlink" width="12px" height="12px" viewBox="794 646.5  12 12" xmlns="http://www.w3.org/2000/svg">
  <path d="M 800 646.5  C 803.36 646.5  806 649.14  806 652.5  C 806 655.86  803.36 658.5  800 658.5  C 796.64 658.5  794 655.86  794 652.5  C 794 649.14  796.64 646.5  800 646.5  Z " fill-rule="nonzero" fill="#ffffff" stroke="none" />
  <path d="M 800 647  C 803.08 647  805.5 649.42  805.5 652.5  C 805.5 655.58  803.08 658  800 658  C 796.92 658  794.5 655.58  794.5 652.5  C 794.5 649.42  796.92 647  800 647  Z " stroke-width="1" stroke="#797979" fill="none" />
  <path d="M 800 655.5  C 798.32 655.5  797 654.18  797 652.5  C 797 650.82  798.32 649.5  800 649.5  C 801.68 649.5  803 650.82  803 652.5  C 803 654.18  801.68 655.5  800 655.5  " fill-rule="nonzero" fill="#797979" stroke="none" />
</svg>