<?xml version="1.0" encoding="utf-8"?>
<svg version="1.1" xmlns:xlink="http://www.w3.org/1999/xlink" width="12px" height="12px" viewBox="884 595.5  12 12" xmlns="http://www.w3.org/2000/svg">
  <path d="M 890 595.5  C 893.36 595.5  896 598.14  896 601.5  C 896 604.86  893.36 607.5  890 607.5  C 886.64 607.5  884 604.86  884 601.5  C 884 598.14  886.64 595.5  890 595.5  Z " fill-rule="nonzero" fill="#f0f0f0" stroke="none" />
  <path d="M 890 596  C 893.08 596  895.5 598.42  895.5 601.5  C 895.5 604.58  893.08 607  890 607  C 886.92 607  884.5 604.58  884.5 601.5  C 884.5 598.42  886.92 596  890 596  Z " stroke-width="1" stroke="#333333" fill="none" />
  <path d="M 890 604.5  C 888.32 604.5  887 603.18  887 601.5  C 887 599.82  888.32 598.5  890 598.5  C 891.68 598.5  893 599.82  893 601.5  C 893 603.18  891.68 604.5  890 604.5  " fill-rule="nonzero" fill="#333333" stroke="none" />
</svg>