<?xml version="1.0" encoding="utf-8"?>
<svg version="1.1" xmlns:xlink="http://www.w3.org/1999/xlink" width="12px" height="12px" viewBox="456 530.5  12 12" xmlns="http://www.w3.org/2000/svg">
  <path d="M 462 530.5  C 465.36 530.5  468 533.14  468 536.5  C 468 539.86  465.36 542.5  462 542.5  C 458.64 542.5  456 539.86  456 536.5  C 456 533.14  458.64 530.5  462 530.5  Z " fill-rule="nonzero" fill="#f0f0f0" stroke="none" />
  <path d="M 462 531  C 465.08 531  467.5 533.42  467.5 536.5  C 467.5 539.58  465.08 542  462 542  C 458.92 542  456.5 539.58  456.5 536.5  C 456.5 533.42  458.92 531  462 531  Z " stroke-width="1" stroke="#333333" fill="none" />
  <path d="M 462 539.5  C 460.32 539.5  459 538.18  459 536.5  C 459 534.82  460.32 533.5  462 533.5  C 463.68 533.5  465 534.82  465 536.5  C 465 538.18  463.68 539.5  462 539.5  " fill-rule="nonzero" fill="#333333" stroke="none" />
</svg>