<?xml version="1.0" encoding="utf-8"?>
<svg version="1.1" xmlns:xlink="http://www.w3.org/1999/xlink" width="12px" height="12px" viewBox="193 773.5  12 12" xmlns="http://www.w3.org/2000/svg">
  <path d="M 199 773.5  C 202.36 773.5  205 776.14  205 779.5  C 205 782.86  202.36 785.5  199 785.5  C 195.64 785.5  193 782.86  193 779.5  C 193 776.14  195.64 773.5  199 773.5  Z " fill-rule="nonzero" fill="#f0f0f0" stroke="none" />
  <path d="M 199 774  C 202.08 774  204.5 776.42  204.5 779.5  C 204.5 782.58  202.08 785  199 785  C 195.92 785  193.5 782.58  193.5 779.5  C 193.5 776.42  195.92 774  199 774  Z " stroke-width="1" stroke="#797979" fill="none" />
  <path d="M 199 782.5  C 197.32 782.5  196 781.18  196 779.5  C 196 777.82  197.32 776.5  199 776.5  C 200.68 776.5  202 777.82  202 779.5  C 202 781.18  200.68 782.5  199 782.5  " fill-rule="nonzero" fill="#797979" stroke="none" />
</svg>