<?xml version="1.0" encoding="utf-8"?>
<svg version="1.1" xmlns:xlink="http://www.w3.org/1999/xlink" width="12px" height="12px" viewBox="734 635.5  12 12" xmlns="http://www.w3.org/2000/svg">
  <path d="M 740 635.5  C 743.36 635.5  746 638.14  746 641.5  C 746 644.86  743.36 647.5  740 647.5  C 736.64 647.5  734 644.86  734 641.5  C 734 638.14  736.64 635.5  740 635.5  Z " fill-rule="nonzero" fill="#f0f0f0" stroke="none" />
  <path d="M 740 636  C 743.08 636  745.5 638.42  745.5 641.5  C 745.5 644.58  743.08 647  740 647  C 736.92 647  734.5 644.58  734.5 641.5  C 734.5 638.42  736.92 636  740 636  Z " stroke-width="1" stroke="#797979" fill="none" />
  <path d="M 740 644.5  C 738.32 644.5  737 643.18  737 641.5  C 737 639.82  738.32 638.5  740 638.5  C 741.68 638.5  743 639.82  743 641.5  C 743 643.18  741.68 644.5  740 644.5  " fill-rule="nonzero" fill="#797979" stroke="none" />
</svg>