<?xml version="1.0" encoding="utf-8"?>
<svg version="1.1" xmlns:xlink="http://www.w3.org/1999/xlink" width="12px" height="12px" viewBox="231 666.5  12 12" xmlns="http://www.w3.org/2000/svg">
  <path d="M 237 666.5  C 240.36 666.5  243 669.14  243 672.5  C 243 675.86  240.36 678.5  237 678.5  C 233.64 678.5  231 675.86  231 672.5  C 231 669.14  233.64 666.5  237 666.5  Z " fill-rule="nonzero" fill="#f0f0f0" stroke="none" />
  <path d="M 237 667  C 240.08 667  242.5 669.42  242.5 672.5  C 242.5 675.58  240.08 678  237 678  C 233.92 678  231.5 675.58  231.5 672.5  C 231.5 669.42  233.92 667  237 667  Z " stroke-width="1" stroke="#797979" fill="none" />
  <path d="M 237 675.5  C 235.32 675.5  234 674.18  234 672.5  C 234 670.82  235.32 669.5  237 669.5  C 238.68 669.5  240 670.82  240 672.5  C 240 674.18  238.68 675.5  237 675.5  " fill-rule="nonzero" fill="#797979" stroke="none" />
</svg>