<?xml version="1.0" encoding="utf-8"?>
<svg version="1.1" xmlns:xlink="http://www.w3.org/1999/xlink" width="12px" height="12px" viewBox="188 814.5  12 12" xmlns="http://www.w3.org/2000/svg">
  <path d="M 194 814.5  C 197.36 814.5  200 817.14  200 820.5  C 200 823.86  197.36 826.5  194 826.5  C 190.64 826.5  188 823.86  188 820.5  C 188 817.14  190.64 814.5  194 814.5  Z " fill-rule="nonzero" fill="#f0f0f0" stroke="none" />
  <path d="M 194 815  C 197.08 815  199.5 817.42  199.5 820.5  C 199.5 823.58  197.08 826  194 826  C 190.92 826  188.5 823.58  188.5 820.5  C 188.5 817.42  190.92 815  194 815  Z " stroke-width="1" stroke="#797979" fill="none" />
  <path d="M 194 823.5  C 192.32 823.5  191 822.18  191 820.5  C 191 818.82  192.32 817.5  194 817.5  C 195.68 817.5  197 818.82  197 820.5  C 197 822.18  195.68 823.5  194 823.5  " fill-rule="nonzero" fill="#797979" stroke="none" />
</svg>