<?xml version="1.0" encoding="utf-8"?>
<svg version="1.1" xmlns:xlink="http://www.w3.org/1999/xlink" width="12px" height="12px" viewBox="231 566.5  12 12" xmlns="http://www.w3.org/2000/svg">
  <path d="M 237 566.5  C 240.36 566.5  243 569.14  243 572.5  C 243 575.86  240.36 578.5  237 578.5  C 233.64 578.5  231 575.86  231 572.5  C 231 569.14  233.64 566.5  237 566.5  Z " fill-rule="nonzero" fill="#ffffff" stroke="none" />
  <path d="M 237 567  C 240.08 567  242.5 569.42  242.5 572.5  C 242.5 575.58  240.08 578  237 578  C 233.92 578  231.5 575.58  231.5 572.5  C 231.5 569.42  233.92 567  237 567  Z " stroke-width="1" stroke="#797979" fill="none" />
  <path d="M 237 575.5  C 235.32 575.5  234 574.18  234 572.5  C 234 570.82  235.32 569.5  237 569.5  C 238.68 569.5  240 570.82  240 572.5  C 240 574.18  238.68 575.5  237 575.5  " fill-rule="nonzero" fill="#797979" stroke="none" />
</svg>