<?xml version="1.0" encoding="utf-8"?>
<svg version="1.1" xmlns:xlink="http://www.w3.org/1999/xlink" width="12px" height="12px" viewBox="877 665.5  12 12" xmlns="http://www.w3.org/2000/svg">
  <path d="M 883 665.5  C 886.36 665.5  889 668.14  889 671.5  C 889 674.86  886.36 677.5  883 677.5  C 879.64 677.5  877 674.86  877 671.5  C 877 668.14  879.64 665.5  883 665.5  Z " fill-rule="nonzero" fill="#f0f0f0" stroke="none" />
  <path d="M 883 666  C 886.08 666  888.5 668.42  888.5 671.5  C 888.5 674.58  886.08 677  883 677  C 879.92 677  877.5 674.58  877.5 671.5  C 877.5 668.42  879.92 666  883 666  Z " stroke-width="1" stroke="#797979" fill="none" />
  <path d="M 883 674.5  C 881.32 674.5  880 673.18  880 671.5  C 880 669.82  881.32 668.5  883 668.5  C 884.68 668.5  886 669.82  886 671.5  C 886 673.18  884.68 674.5  883 674.5  " fill-rule="nonzero" fill="#797979" stroke="none" />
</svg>