<?xml version="1.0" encoding="utf-8"?>
<svg version="1.1" xmlns:xlink="http://www.w3.org/1999/xlink" width="12px" height="12px" viewBox="834 635.5  12 12" xmlns="http://www.w3.org/2000/svg">
  <path d="M 840 635.5  C 843.36 635.5  846 638.14  846 641.5  C 846 644.86  843.36 647.5  840 647.5  C 836.64 647.5  834 644.86  834 641.5  C 834 638.14  836.64 635.5  840 635.5  Z " fill-rule="nonzero" fill="#ffffff" stroke="none" />
  <path d="M 840 636  C 843.08 636  845.5 638.42  845.5 641.5  C 845.5 644.58  843.08 647  840 647  C 836.92 647  834.5 644.58  834.5 641.5  C 834.5 638.42  836.92 636  840 636  Z " stroke-width="1" stroke="#333333" fill="none" />
  <path d="M 840 644.5  C 838.32 644.5  837 643.18  837 641.5  C 837 639.82  838.32 638.5  840 638.5  C 841.68 638.5  843 639.82  843 641.5  C 843 643.18  841.68 644.5  840 644.5  " fill-rule="nonzero" fill="#333333" stroke="none" />
</svg>