<?xml version="1.0" encoding="utf-8"?>
<svg version="1.1" xmlns:xlink="http://www.w3.org/1999/xlink" width="12px" height="12px" viewBox="374 566.5  12 12" xmlns="http://www.w3.org/2000/svg">
  <path d="M 380 566.5  C 383.36 566.5  386 569.14  386 572.5  C 386 575.86  383.36 578.5  380 578.5  C 376.64 578.5  374 575.86  374 572.5  C 374 569.14  376.64 566.5  380 566.5  Z " fill-rule="nonzero" fill="#ffffff" stroke="none" />
  <path d="M 380 567  C 383.08 567  385.5 569.42  385.5 572.5  C 385.5 575.58  383.08 578  380 578  C 376.92 578  374.5 575.58  374.5 572.5  C 374.5 569.42  376.92 567  380 567  Z " stroke-width="1" stroke="#797979" fill="none" />
  <path d="M 380 575.5  C 378.32 575.5  377 574.18  377 572.5  C 377 570.82  378.32 569.5  380 569.5  C 381.68 569.5  383 570.82  383 572.5  C 383 574.18  381.68 575.5  380 575.5  " fill-rule="nonzero" fill="#797979" stroke="none" />
</svg>