<?xml version="1.0" encoding="utf-8"?>
<svg version="1.1" xmlns:xlink="http://www.w3.org/1999/xlink" width="12px" height="12px" viewBox="451 566.5  12 12" xmlns="http://www.w3.org/2000/svg">
  <path d="M 457 566.5  C 460.36 566.5  463 569.14  463 572.5  C 463 575.86  460.36 578.5  457 578.5  C 453.64 578.5  451 575.86  451 572.5  C 451 569.14  453.64 566.5  457 566.5  Z " fill-rule="nonzero" fill="#f0f0f0" stroke="none" />
  <path d="M 457 567  C 460.08 567  462.5 569.42  462.5 572.5  C 462.5 575.58  460.08 578  457 578  C 453.92 578  451.5 575.58  451.5 572.5  C 451.5 569.42  453.92 567  457 567  Z " stroke-width="1" stroke="#333333" fill="none" />
  <path d="M 457 575.5  C 455.32 575.5  454 574.18  454 572.5  C 454 570.82  455.32 569.5  457 569.5  C 458.68 569.5  460 570.82  460 572.5  C 460 574.18  458.68 575.5  457 575.5  " fill-rule="nonzero" fill="#333333" stroke="none" />
</svg>