<?xml version="1.0" encoding="utf-8"?>
<svg version="1.1" xmlns:xlink="http://www.w3.org/1999/xlink" width="12px" height="12px" viewBox="734 665.5  12 12" xmlns="http://www.w3.org/2000/svg">
  <path d="M 740 665.5  C 743.36 665.5  746 668.14  746 671.5  C 746 674.86  743.36 677.5  740 677.5  C 736.64 677.5  734 674.86  734 671.5  C 734 668.14  736.64 665.5  740 665.5  Z " fill-rule="nonzero" fill="#f0f0f0" stroke="none" />
  <path d="M 740 666  C 743.08 666  745.5 668.42  745.5 671.5  C 745.5 674.58  743.08 677  740 677  C 736.92 677  734.5 674.58  734.5 671.5  C 734.5 668.42  736.92 666  740 666  Z " stroke-width="1" stroke="#797979" fill="none" />
  <path d="M 740 674.5  C 738.32 674.5  737 673.18  737 671.5  C 737 669.82  738.32 668.5  740 668.5  C 741.68 668.5  743 669.82  743 671.5  C 743 673.18  741.68 674.5  740 674.5  " fill-rule="nonzero" fill="#797979" stroke="none" />
</svg>