<?xml version="1.0" encoding="utf-8"?>
<svg version="1.1" xmlns:xlink="http://www.w3.org/1999/xlink" width="12px" height="12px" viewBox="288 788.5  12 12" xmlns="http://www.w3.org/2000/svg">
  <path d="M 294 788.5  C 297.36 788.5  300 791.14  300 794.5  C 300 797.86  297.36 800.5  294 800.5  C 290.64 800.5  288 797.86  288 794.5  C 288 791.14  290.64 788.5  294 788.5  Z " fill-rule="nonzero" fill="#ffffff" stroke="none" />
  <path d="M 294 789  C 297.08 789  299.5 791.42  299.5 794.5  C 299.5 797.58  297.08 800  294 800  C 290.92 800  288.5 797.58  288.5 794.5  C 288.5 791.42  290.92 789  294 789  Z " stroke-width="1" stroke="#797979" fill="none" />
  <path d="M 294 797.5  C 292.32 797.5  291 796.18  291 794.5  C 291 792.82  292.32 791.5  294 791.5  C 295.68 791.5  297 792.82  297 794.5  C 297 796.18  295.68 797.5  294 797.5  " fill-rule="nonzero" fill="#797979" stroke="none" />
</svg>