<?xml version="1.0" encoding="utf-8"?>
<svg version="1.1" xmlns:xlink="http://www.w3.org/1999/xlink" width="12px" height="12px" viewBox="917 635.5  12 12" xmlns="http://www.w3.org/2000/svg">
  <path d="M 923 635.5  C 926.36 635.5  929 638.14  929 641.5  C 929 644.86  926.36 647.5  923 647.5  C 919.64 647.5  917 644.86  917 641.5  C 917 638.14  919.64 635.5  923 635.5  Z " fill-rule="nonzero" fill="#f0f0f0" stroke="none" />
  <path d="M 923 636  C 926.08 636  928.5 638.42  928.5 641.5  C 928.5 644.58  926.08 647  923 647  C 919.92 647  917.5 644.58  917.5 641.5  C 917.5 638.42  919.92 636  923 636  Z " stroke-width="1" stroke="#797979" fill="none" />
  <path d="M 923 644.5  C 921.32 644.5  920 643.18  920 641.5  C 920 639.82  921.32 638.5  923 638.5  C 924.68 638.5  926 639.82  926 641.5  C 926 643.18  924.68 644.5  923 644.5  " fill-rule="nonzero" fill="#797979" stroke="none" />
</svg>