<?xml version="1.0" encoding="utf-8"?>
<svg version="1.1" xmlns:xlink="http://www.w3.org/1999/xlink" width="12px" height="12px" viewBox="808 665.5  12 12" xmlns="http://www.w3.org/2000/svg">
  <path d="M 814 665.5  C 817.36 665.5  820 668.14  820 671.5  C 820 674.86  817.36 677.5  814 677.5  C 810.64 677.5  808 674.86  808 671.5  C 808 668.14  810.64 665.5  814 665.5  Z " fill-rule="nonzero" fill="#ffffff" stroke="none" />
  <path d="M 814 666  C 817.08 666  819.5 668.42  819.5 671.5  C 819.5 674.58  817.08 677  814 677  C 810.92 677  808.5 674.58  808.5 671.5  C 808.5 668.42  810.92 666  814 666  Z " stroke-width="1" stroke="#333333" fill="none" />
  <path d="M 814 674.5  C 812.32 674.5  811 673.18  811 671.5  C 811 669.82  812.32 668.5  814 668.5  C 815.68 668.5  817 669.82  817 671.5  C 817 673.18  815.68 674.5  814 674.5  " fill-rule="nonzero" fill="#333333" stroke="none" />
</svg>