<?xml version="1.0" encoding="utf-8"?>
<svg version="1.1" xmlns:xlink="http://www.w3.org/1999/xlink" width="12px" height="12px" viewBox="374 636.5  12 12" xmlns="http://www.w3.org/2000/svg">
  <path d="M 380 636.5  C 383.36 636.5  386 639.14  386 642.5  C 386 645.86  383.36 648.5  380 648.5  C 376.64 648.5  374 645.86  374 642.5  C 374 639.14  376.64 636.5  380 636.5  Z " fill-rule="nonzero" fill="#f0f0f0" stroke="none" />
  <path d="M 380 637  C 383.08 637  385.5 639.42  385.5 642.5  C 385.5 645.58  383.08 648  380 648  C 376.92 648  374.5 645.58  374.5 642.5  C 374.5 639.42  376.92 637  380 637  Z " stroke-width="1" stroke="#797979" fill="none" />
  <path d="M 380 645.5  C 378.32 645.5  377 644.18  377 642.5  C 377 640.82  378.32 639.5  380 639.5  C 381.68 639.5  383 640.82  383 642.5  C 383 644.18  381.68 645.5  380 645.5  " fill-rule="nonzero" fill="#797979" stroke="none" />
</svg>