<?xml version="1.0" encoding="utf-8"?>
<svg version="1.1" xmlns:xlink="http://www.w3.org/1999/xlink" width="12px" height="12px" viewBox="759 815.5  12 12" xmlns="http://www.w3.org/2000/svg">
  <path d="M 765 815.5  C 768.36 815.5  771 818.14  771 821.5  C 771 824.86  768.36 827.5  765 827.5  C 761.64 827.5  759 824.86  759 821.5  C 759 818.14  761.64 815.5  765 815.5  Z " fill-rule="nonzero" fill="#ffffff" stroke="none" />
  <path d="M 765 816  C 768.08 816  770.5 818.42  770.5 821.5  C 770.5 824.58  768.08 827  765 827  C 761.92 827  759.5 824.58  759.5 821.5  C 759.5 818.42  761.92 816  765 816  Z " stroke-width="1" stroke="#333333" fill="none" />
  <path d="M 765 824.5  C 763.32 824.5  762 823.18  762 821.5  C 762 819.82  763.32 818.5  765 818.5  C 766.68 818.5  768 819.82  768 821.5  C 768 823.18  766.68 824.5  765 824.5  " fill-rule="nonzero" fill="#333333" stroke="none" />
</svg>