<?xml version="1.0" encoding="utf-8"?>
<svg version="1.1" xmlns:xlink="http://www.w3.org/1999/xlink" width="12px" height="12px" viewBox="274 867.5  12 12" xmlns="http://www.w3.org/2000/svg">
  <path d="M 280 867.5  C 283.36 867.5  286 870.14  286 873.5  C 286 876.86  283.36 879.5  280 879.5  C 276.64 879.5  274 876.86  274 873.5  C 274 870.14  276.64 867.5  280 867.5  Z " fill-rule="nonzero" fill="#ffffff" stroke="none" />
  <path d="M 280 868  C 283.08 868  285.5 870.42  285.5 873.5  C 285.5 876.58  283.08 879  280 879  C 276.92 879  274.5 876.58  274.5 873.5  C 274.5 870.42  276.92 868  280 868  Z " stroke-width="1" stroke="#797979" fill="none" />
  <path d="M 280 876.5  C 278.32 876.5  277 875.18  277 873.5  C 277 871.82  278.32 870.5  280 870.5  C 281.68 870.5  283 871.82  283 873.5  C 283 875.18  281.68 876.5  280 876.5  " fill-rule="nonzero" fill="#797979" stroke="none" />
</svg>