<?xml version="1.0" encoding="utf-8"?>
<svg version="1.1" xmlns:xlink="http://www.w3.org/1999/xlink" width="12px" height="12px" viewBox="324 867.5  12 12" xmlns="http://www.w3.org/2000/svg">
  <path d="M 330 867.5  C 333.36 867.5  336 870.14  336 873.5  C 336 876.86  333.36 879.5  330 879.5  C 326.64 879.5  324 876.86  324 873.5  C 324 870.14  326.64 867.5  330 867.5  Z " fill-rule="nonzero" fill="#ffffff" stroke="none" />
  <path d="M 330 868  C 333.08 868  335.5 870.42  335.5 873.5  C 335.5 876.58  333.08 879  330 879  C 326.92 879  324.5 876.58  324.5 873.5  C 324.5 870.42  326.92 868  330 868  Z " stroke-width="1" stroke="#8080ff" fill="none" />
  <path d="M 330 876.5  C 328.32 876.5  327 875.18  327 873.5  C 327 871.82  328.32 870.5  330 870.5  C 331.68 870.5  333 871.82  333 873.5  C 333 875.18  331.68 876.5  330 876.5  " fill-rule="nonzero" fill="#8080ff" stroke="none" />
</svg>