<?xml version="1.0" encoding="utf-8"?>
<svg version="1.1" xmlns:xlink="http://www.w3.org/1999/xlink" width="12px" height="12px" viewBox="374 867.5  12 12" xmlns="http://www.w3.org/2000/svg">
  <path d="M 380 867.5  C 383.36 867.5  386 870.14  386 873.5  C 386 876.86  383.36 879.5  380 879.5  C 376.64 879.5  374 876.86  374 873.5  C 374 870.14  376.64 867.5  380 867.5  Z " fill-rule="nonzero" fill="#ffffff" stroke="none" />
  <path d="M 380 868  C 383.08 868  385.5 870.42  385.5 873.5  C 385.5 876.58  383.08 879  380 879  C 376.92 879  374.5 876.58  374.5 873.5  C 374.5 870.42  376.92 868  380 868  Z " stroke-width="1" stroke="#8080ff" fill="none" />
  <path d="M 380 876.5  C 378.32 876.5  377 875.18  377 873.5  C 377 871.82  378.32 870.5  380 870.5  C 381.68 870.5  383 871.82  383 873.5  C 383 875.18  381.68 876.5  380 876.5  " fill-rule="nonzero" fill="#8080ff" stroke="none" />
</svg>