<?xml version="1.0" encoding="utf-8"?>
<svg version="1.1" xmlns:xlink="http://www.w3.org/1999/xlink" width="12px" height="12px" viewBox="775 467.5  12 12" xmlns="http://www.w3.org/2000/svg">
  <path d="M 781 467.5  C 784.36 467.5  787 470.14  787 473.5  C 787 476.86  784.36 479.5  781 479.5  C 777.64 479.5  775 476.86  775 473.5  C 775 470.14  777.64 467.5  781 467.5  Z " fill-rule="nonzero" fill="#ffffff" stroke="none" />
  <path d="M 781 468  C 784.08 468  786.5 470.42  786.5 473.5  C 786.5 476.58  784.08 479  781 479  C 777.92 479  775.5 476.58  775.5 473.5  C 775.5 470.42  777.92 468  781 468  Z " stroke-width="1" stroke="#797979" fill="none" />
  <path d="M 781 476.5  C 779.32 476.5  778 475.18  778 473.5  C 778 471.82  779.32 470.5  781 470.5  C 782.68 470.5  784 471.82  784 473.5  C 784 475.18  782.68 476.5  781 476.5  " fill-rule="nonzero" fill="#797979" stroke="none" />
</svg>