<?xml version="1.0" encoding="utf-8"?>
<svg version="1.1" xmlns:xlink="http://www.w3.org/1999/xlink" width="12px" height="12px" viewBox="775 553.5  12 12" xmlns="http://www.w3.org/2000/svg">
  <path d="M 781 553.5  C 784.36 553.5  787 556.14  787 559.5  C 787 562.86  784.36 565.5  781 565.5  C 777.64 565.5  775 562.86  775 559.5  C 775 556.14  777.64 553.5  781 553.5  Z " fill-rule="nonzero" fill="#f0f0f0" stroke="none" />
  <path d="M 781 554  C 784.08 554  786.5 556.42  786.5 559.5  C 786.5 562.58  784.08 565  781 565  C 777.92 565  775.5 562.58  775.5 559.5  C 775.5 556.42  777.92 554  781 554  Z " stroke-width="1" stroke="#797979" fill="none" />
  <path d="M 781 562.5  C 779.32 562.5  778 561.18  778 559.5  C 778 557.82  779.32 556.5  781 556.5  C 782.68 556.5  784 557.82  784 559.5  C 784 561.18  782.68 562.5  781 562.5  " fill-rule="nonzero" fill="#797979" stroke="none" />
</svg>