<?xml version="1.0" encoding="utf-8"?>
<svg version="1.1" xmlns:xlink="http://www.w3.org/1999/xlink" width="12px" height="12px" viewBox="894 580.5  12 12" xmlns="http://www.w3.org/2000/svg">
  <path d="M 900 580.5  C 903.36 580.5  906 583.14  906 586.5  C 906 589.86  903.36 592.5  900 592.5  C 896.64 592.5  894 589.86  894 586.5  C 894 583.14  896.64 580.5  900 580.5  Z " fill-rule="nonzero" fill="#f0f0f0" stroke="none" />
  <path d="M 900 581  C 903.08 581  905.5 583.42  905.5 586.5  C 905.5 589.58  903.08 592  900 592  C 896.92 592  894.5 589.58  894.5 586.5  C 894.5 583.42  896.92 581  900 581  Z " stroke-width="1" stroke="#333333" fill="none" />
  <path d="M 900 589.5  C 898.32 589.5  897 588.18  897 586.5  C 897 584.82  898.32 583.5  900 583.5  C 901.68 583.5  903 584.82  903 586.5  C 903 588.18  901.68 589.5  900 589.5  " fill-rule="nonzero" fill="#333333" stroke="none" />
</svg>