<?xml version="1.0" encoding="utf-8"?>
<svg version="1.1" xmlns:xlink="http://www.w3.org/1999/xlink" width="12px" height="12px" viewBox="995 998.5  12 12" xmlns="http://www.w3.org/2000/svg">
  <path d="M 1001 998.5  C 1004.36 998.5  1007 1001.14  1007 1004.5  C 1007 1007.86  1004.36 1010.5  1001 1010.5  C 997.64 1010.5  995 1007.86  995 1004.5  C 995 1001.14  997.64 998.5  1001 998.5  Z " fill-rule="nonzero" fill="#ffffff" stroke="none" />
  <path d="M 1001 999  C 1004.08 999  1006.5 1001.42  1006.5 1004.5  C 1006.5 1007.58  1004.08 1010  1001 1010  C 997.92 1010  995.5 1007.58  995.5 1004.5  C 995.5 1001.42  997.92 999  1001 999  Z " stroke-width="1" stroke="#333333" fill="none" />
  <path d="M 1001 1007.5  C 999.32 1007.5  998 1006.18  998 1004.5  C 998 1002.82  999.32 1001.5  1001 1001.5  C 1002.68 1001.5  1004 1002.82  1004 1004.5  C 1004 1006.18  1002.68 1007.5  1001 1007.5  " fill-rule="nonzero" fill="#333333" stroke="none" />
</svg>