<?xml version="1.0" encoding="utf-8"?>
<svg version="1.1" xmlns:xlink="http://www.w3.org/1999/xlink" width="12px" height="12px" viewBox="2577 498.5  12 12" xmlns="http://www.w3.org/2000/svg">
  <path d="M 2583 498.5  C 2586.36 498.5  2589 501.14  2589 504.5  C 2589 507.86  2586.36 510.5  2583 510.5  C 2579.64 510.5  2577 507.86  2577 504.5  C 2577 501.14  2579.64 498.5  2583 498.5  Z " fill-rule="nonzero" fill="#f0f0f0" stroke="none" />
  <path d="M 2583 499  C 2586.08 499  2588.5 501.42  2588.5 504.5  C 2588.5 507.58  2586.08 510  2583 510  C 2579.92 510  2577.5 507.58  2577.5 504.5  C 2577.5 501.42  2579.92 499  2583 499  Z " stroke-width="1" stroke="#333333" fill="none" />
  <path d="M 2583 507.5  C 2581.32 507.5  2580 506.18  2580 504.5  C 2580 502.82  2581.32 501.5  2583 501.5  C 2584.68 501.5  2586 502.82  2586 504.5  C 2586 506.18  2584.68 507.5  2583 507.5  " fill-rule="nonzero" fill="#333333" stroke="none" />
</svg>