<?xml version="1.0" encoding="utf-8"?>
<svg version="1.1" xmlns:xlink="http://www.w3.org/1999/xlink" width="12px" height="12px" viewBox="2527 556.5  12 12" xmlns="http://www.w3.org/2000/svg">
  <path d="M 2533 556.5  C 2536.36 556.5  2539 559.14  2539 562.5  C 2539 565.86  2536.36 568.5  2533 568.5  C 2529.64 568.5  2527 565.86  2527 562.5  C 2527 559.14  2529.64 556.5  2533 556.5  Z " fill-rule="nonzero" fill="#f0f0f0" stroke="none" />
  <path d="M 2533 557  C 2536.08 557  2538.5 559.42  2538.5 562.5  C 2538.5 565.58  2536.08 568  2533 568  C 2529.92 568  2527.5 565.58  2527.5 562.5  C 2527.5 559.42  2529.92 557  2533 557  Z " stroke-width="1" stroke="#797979" fill="none" />
  <path d="M 2533 565.5  C 2531.32 565.5  2530 564.18  2530 562.5  C 2530 560.82  2531.32 559.5  2533 559.5  C 2534.68 559.5  2536 560.82  2536 562.5  C 2536 564.18  2534.68 565.5  2533 565.5  " fill-rule="nonzero" fill="#797979" stroke="none" />
</svg>