<?xml version="1.0" encoding="utf-8"?>
<svg version="1.1" xmlns:xlink="http://www.w3.org/1999/xlink" width="12px" height="12px" viewBox="2889 556.5  12 12" xmlns="http://www.w3.org/2000/svg">
  <path d="M 2895 556.5  C 2898.36 556.5  2901 559.14  2901 562.5  C 2901 565.86  2898.36 568.5  2895 568.5  C 2891.64 568.5  2889 565.86  2889 562.5  C 2889 559.14  2891.64 556.5  2895 556.5  Z " fill-rule="nonzero" fill="#ffffff" stroke="none" />
  <path d="M 2895 557  C 2898.08 557  2900.5 559.42  2900.5 562.5  C 2900.5 565.58  2898.08 568  2895 568  C 2891.92 568  2889.5 565.58  2889.5 562.5  C 2889.5 559.42  2891.92 557  2895 557  Z " stroke-width="1" stroke="#797979" fill="none" />
  <path d="M 2895 565.5  C 2893.32 565.5  2892 564.18  2892 562.5  C 2892 560.82  2893.32 559.5  2895 559.5  C 2896.68 559.5  2898 560.82  2898 562.5  C 2898 564.18  2896.68 565.5  2895 565.5  " fill-rule="nonzero" fill="#797979" stroke="none" />
</svg>