<?xml version="1.0" encoding="utf-8"?>
<svg version="1.1" xmlns:xlink="http://www.w3.org/1999/xlink" width="12px" height="12px" viewBox="3255 498.5  12 12" xmlns="http://www.w3.org/2000/svg">
  <path d="M 3261 498.5  C 3264.36 498.5  3267 501.14  3267 504.5  C 3267 507.86  3264.36 510.5  3261 510.5  C 3257.64 510.5  3255 507.86  3255 504.5  C 3255 501.14  3257.64 498.5  3261 498.5  Z " fill-rule="nonzero" fill="#ffffff" stroke="none" />
  <path d="M 3261 499  C 3264.08 499  3266.5 501.42  3266.5 504.5  C 3266.5 507.58  3264.08 510  3261 510  C 3257.92 510  3255.5 507.58  3255.5 504.5  C 3255.5 501.42  3257.92 499  3261 499  Z " stroke-width="1" stroke="#333333" fill="none" />
  <path d="M 3261 507.5  C 3259.32 507.5  3258 506.18  3258 504.5  C 3258 502.82  3259.32 501.5  3261 501.5  C 3262.68 501.5  3264 502.82  3264 504.5  C 3264 506.18  3262.68 507.5  3261 507.5  " fill-rule="nonzero" fill="#333333" stroke="none" />
</svg>