<?xml version="1.0" encoding="utf-8"?>
<svg version="1.1" xmlns:xlink="http://www.w3.org/1999/xlink" width="12px" height="12px" viewBox="2527 725.5  12 12" xmlns="http://www.w3.org/2000/svg">
  <path d="M 2533 725.5  C 2536.36 725.5  2539 728.14  2539 731.5  C 2539 734.86  2536.36 737.5  2533 737.5  C 2529.64 737.5  2527 734.86  2527 731.5  C 2527 728.14  2529.64 725.5  2533 725.5  Z " fill-rule="nonzero" fill="#f0f0f0" stroke="none" />
  <path d="M 2533 726  C 2536.08 726  2538.5 728.42  2538.5 731.5  C 2538.5 734.58  2536.08 737  2533 737  C 2529.92 737  2527.5 734.58  2527.5 731.5  C 2527.5 728.42  2529.92 726  2533 726  Z " stroke-width="1" stroke="#797979" fill="none" />
  <path d="M 2533 734.5  C 2531.32 734.5  2530 733.18  2530 731.5  C 2530 729.82  2531.32 728.5  2533 728.5  C 2534.68 728.5  2536 729.82  2536 731.5  C 2536 733.18  2534.68 734.5  2533 734.5  " fill-rule="nonzero" fill="#797979" stroke="none" />
</svg>