<?xml version="1.0" encoding="utf-8"?>
<svg version="1.1" xmlns:xlink="http://www.w3.org/1999/xlink" width="12px" height="12px" viewBox="2977 665.5  12 12" xmlns="http://www.w3.org/2000/svg">
  <path d="M 2983 665.5  C 2986.36 665.5  2989 668.14  2989 671.5  C 2989 674.86  2986.36 677.5  2983 677.5  C 2979.64 677.5  2977 674.86  2977 671.5  C 2977 668.14  2979.64 665.5  2983 665.5  Z " fill-rule="nonzero" fill="#f0f0f0" stroke="none" />
  <path d="M 2983 666  C 2986.08 666  2988.5 668.42  2988.5 671.5  C 2988.5 674.58  2986.08 677  2983 677  C 2979.92 677  2977.5 674.58  2977.5 671.5  C 2977.5 668.42  2979.92 666  2983 666  Z " stroke-width="1" stroke="#333333" fill="none" />
  <path d="M 2983 674.5  C 2981.32 674.5  2980 673.18  2980 671.5  C 2980 669.82  2981.32 668.5  2983 668.5  C 2984.68 668.5  2986 669.82  2986 671.5  C 2986 673.18  2984.68 674.5  2983 674.5  " fill-rule="nonzero" fill="#333333" stroke="none" />
</svg>