<?xml version="1.0" encoding="utf-8"?>
<svg version="1.1" xmlns:xlink="http://www.w3.org/1999/xlink" width="12px" height="12px" viewBox="3243 696.5  12 12" xmlns="http://www.w3.org/2000/svg">
  <path d="M 3249 696.5  C 3252.36 696.5  3255 699.14  3255 702.5  C 3255 705.86  3252.36 708.5  3249 708.5  C 3245.64 708.5  3243 705.86  3243 702.5  C 3243 699.14  3245.64 696.5  3249 696.5  Z " fill-rule="nonzero" fill="#ffffff" stroke="none" />
  <path d="M 3249 697  C 3252.08 697  3254.5 699.42  3254.5 702.5  C 3254.5 705.58  3252.08 708  3249 708  C 3245.92 708  3243.5 705.58  3243.5 702.5  C 3243.5 699.42  3245.92 697  3249 697  Z " stroke-width="1" stroke="#797979" fill="none" />
  <path d="M 3249 705.5  C 3247.32 705.5  3246 704.18  3246 702.5  C 3246 700.82  3247.32 699.5  3249 699.5  C 3250.68 699.5  3252 700.82  3252 702.5  C 3252 704.18  3250.68 705.5  3249 705.5  " fill-rule="nonzero" fill="#797979" stroke="none" />
</svg>