<?xml version="1.0" encoding="utf-8"?>
<svg version="1.1" xmlns:xlink="http://www.w3.org/1999/xlink" width="12px" height="12px" viewBox="668 360.5  12 12" xmlns="http://www.w3.org/2000/svg">
  <path d="M 674 360.5  C 677.36 360.5  680 363.14  680 366.5  C 680 369.86  677.36 372.5  674 372.5  C 670.64 372.5  668 369.86  668 366.5  C 668 363.14  670.64 360.5  674 360.5  Z " fill-rule="nonzero" fill="#f0f0f0" stroke="none" />
  <path d="M 674 361  C 677.08 361  679.5 363.42  679.5 366.5  C 679.5 369.58  677.08 372  674 372  C 670.92 372  668.5 369.58  668.5 366.5  C 668.5 363.42  670.92 361  674 361  Z " stroke-width="1" stroke="#797979" fill="none" />
  <path d="M 674 369.5  C 672.32 369.5  671 368.18  671 366.5  C 671 364.82  672.32 363.5  674 363.5  C 675.68 363.5  677 364.82  677 366.5  C 677 368.18  675.68 369.5  674 369.5  " fill-rule="nonzero" fill="#797979" stroke="none" />
</svg>