<?xml version="1.0" encoding="utf-8"?>
<svg version="1.1" xmlns:xlink="http://www.w3.org/1999/xlink" width="12px" height="12px" viewBox="420 673.5  12 12" xmlns="http://www.w3.org/2000/svg">
  <path d="M 426 673.5  C 429.36 673.5  432 676.14  432 679.5  C 432 682.86  429.36 685.5  426 685.5  C 422.64 685.5  420 682.86  420 679.5  C 420 676.14  422.64 673.5  426 673.5  Z " fill-rule="nonzero" fill="#ffffff" stroke="none" />
  <path d="M 426 674  C 429.08 674  431.5 676.42  431.5 679.5  C 431.5 682.58  429.08 685  426 685  C 422.92 685  420.5 682.58  420.5 679.5  C 420.5 676.42  422.92 674  426 674  Z " stroke-width="1" stroke="#333333" fill="none" />
  <path d="M 426 682.5  C 424.32 682.5  423 681.18  423 679.5  C 423 677.82  424.32 676.5  426 676.5  C 427.68 676.5  429 677.82  429 679.5  C 429 681.18  427.68 682.5  426 682.5  " fill-rule="nonzero" fill="#333333" stroke="none" />
</svg>