<?xml version="1.0" encoding="utf-8"?>
<svg version="1.1" xmlns:xlink="http://www.w3.org/1999/xlink" width="12px" height="12px" viewBox="276 1080.5  12 12" xmlns="http://www.w3.org/2000/svg">
  <path d="M 282 1080.5  C 285.36 1080.5  288 1083.14  288 1086.5  C 288 1089.86  285.36 1092.5  282 1092.5  C 278.64 1092.5  276 1089.86  276 1086.5  C 276 1083.14  278.64 1080.5  282 1080.5  Z " fill-rule="nonzero" fill="#f0f0f0" stroke="none" />
  <path d="M 282 1081  C 285.08 1081  287.5 1083.42  287.5 1086.5  C 287.5 1089.58  285.08 1092  282 1092  C 278.92 1092  276.5 1089.58  276.5 1086.5  C 276.5 1083.42  278.92 1081  282 1081  Z " stroke-width="1" stroke="#333333" fill="none" />
  <path d="M 282 1089.5  C 280.32 1089.5  279 1088.18  279 1086.5  C 279 1084.82  280.32 1083.5  282 1083.5  C 283.68 1083.5  285 1084.82  285 1086.5  C 285 1088.18  283.68 1089.5  282 1089.5  " fill-rule="nonzero" fill="#333333" stroke="none" />
</svg>