<?xml version="1.0" encoding="utf-8"?>
<svg version="1.1" xmlns:xlink="http://www.w3.org/1999/xlink" width="12px" height="12px" viewBox="267 1155.5  12 12" xmlns="http://www.w3.org/2000/svg">
  <path d="M 273 1155.5  C 276.36 1155.5  279 1158.14  279 1161.5  C 279 1164.86  276.36 1167.5  273 1167.5  C 269.64 1167.5  267 1164.86  267 1161.5  C 267 1158.14  269.64 1155.5  273 1155.5  Z " fill-rule="nonzero" fill="#ffffff" stroke="none" />
  <path d="M 273 1156  C 276.08 1156  278.5 1158.42  278.5 1161.5  C 278.5 1164.58  276.08 1167  273 1167  C 269.92 1167  267.5 1164.58  267.5 1161.5  C 267.5 1158.42  269.92 1156  273 1156  Z " stroke-width="1" stroke="#333333" fill="none" />
  <path d="M 273 1164.5  C 271.32 1164.5  270 1163.18  270 1161.5  C 270 1159.82  271.32 1158.5  273 1158.5  C 274.68 1158.5  276 1159.82  276 1161.5  C 276 1163.18  274.68 1164.5  273 1164.5  " fill-rule="nonzero" fill="#333333" stroke="none" />
</svg>