<?xml version="1.0" encoding="utf-8"?>
<svg version="1.1" xmlns:xlink="http://www.w3.org/1999/xlink" width="12px" height="12px" viewBox="303 1275.5  12 12" xmlns="http://www.w3.org/2000/svg">
  <path d="M 309 1275.5  C 312.36 1275.5  315 1278.14  315 1281.5  C 315 1284.86  312.36 1287.5  309 1287.5  C 305.64 1287.5  303 1284.86  303 1281.5  C 303 1278.14  305.64 1275.5  309 1275.5  Z " fill-rule="nonzero" fill="#f0f0f0" stroke="none" />
  <path d="M 309 1276  C 312.08 1276  314.5 1278.42  314.5 1281.5  C 314.5 1284.58  312.08 1287  309 1287  C 305.92 1287  303.5 1284.58  303.5 1281.5  C 303.5 1278.42  305.92 1276  309 1276  Z " stroke-width="1" stroke="#797979" fill="none" />
  <path d="M 309 1284.5  C 307.32 1284.5  306 1283.18  306 1281.5  C 306 1279.82  307.32 1278.5  309 1278.5  C 310.68 1278.5  312 1279.82  312 1281.5  C 312 1283.18  310.68 1284.5  309 1284.5  " fill-rule="nonzero" fill="#797979" stroke="none" />
</svg>