<?xml version="1.0" encoding="utf-8"?>
<svg version="1.1" xmlns:xlink="http://www.w3.org/1999/xlink" width="12px" height="12px" viewBox="412 504.5  12 12" xmlns="http://www.w3.org/2000/svg">
  <path d="M 418 504.5  C 421.36 504.5  424 507.14  424 510.5  C 424 513.86  421.36 516.5  418 516.5  C 414.64 516.5  412 513.86  412 510.5  C 412 507.14  414.64 504.5  418 504.5  Z " fill-rule="nonzero" fill="#ffffff" stroke="none" />
  <path d="M 418 505  C 421.08 505  423.5 507.42  423.5 510.5  C 423.5 513.58  421.08 516  418 516  C 414.92 516  412.5 513.58  412.5 510.5  C 412.5 507.42  414.92 505  418 505  Z " stroke-width="1" stroke="#797979" fill="none" />
  <path d="M 418 513.5  C 416.32 513.5  415 512.18  415 510.5  C 415 508.82  416.32 507.5  418 507.5  C 419.68 507.5  421 508.82  421 510.5  C 421 512.18  419.68 513.5  418 513.5  " fill-rule="nonzero" fill="#797979" stroke="none" />
</svg>