<?xml version="1.0" encoding="utf-8"?>
<svg version="1.1" xmlns:xlink="http://www.w3.org/1999/xlink" width="12px" height="12px" viewBox="491 504.5  12 12" xmlns="http://www.w3.org/2000/svg">
  <path d="M 497 504.5  C 500.36 504.5  503 507.14  503 510.5  C 503 513.86  500.36 516.5  497 516.5  C 493.64 516.5  491 513.86  491 510.5  C 491 507.14  493.64 504.5  497 504.5  Z " fill-rule="nonzero" fill="#f0f0f0" stroke="none" />
  <path d="M 497 505  C 500.08 505  502.5 507.42  502.5 510.5  C 502.5 513.58  500.08 516  497 516  C 493.92 516  491.5 513.58  491.5 510.5  C 491.5 507.42  493.92 505  497 505  Z " stroke-width="1" stroke="#333333" fill="none" />
  <path d="M 497 513.5  C 495.32 513.5  494 512.18  494 510.5  C 494 508.82  495.32 507.5  497 507.5  C 498.68 507.5  500 508.82  500 510.5  C 500 512.18  498.68 513.5  497 513.5  " fill-rule="nonzero" fill="#333333" stroke="none" />
</svg>