<?xml version="1.0" encoding="utf-8"?>
<svg version="1.1" xmlns:xlink="http://www.w3.org/1999/xlink" width="12px" height="12px" viewBox="649 504.5  12 12" xmlns="http://www.w3.org/2000/svg">
  <path d="M 655 504.5  C 658.36 504.5  661 507.14  661 510.5  C 661 513.86  658.36 516.5  655 516.5  C 651.64 516.5  649 513.86  649 510.5  C 649 507.14  651.64 504.5  655 504.5  Z " fill-rule="nonzero" fill="#ffffff" stroke="none" />
  <path d="M 655 505  C 658.08 505  660.5 507.42  660.5 510.5  C 660.5 513.58  658.08 516  655 516  C 651.92 516  649.5 513.58  649.5 510.5  C 649.5 507.42  651.92 505  655 505  Z " stroke-width="1" stroke="#797979" fill="none" />
  <path d="M 655 513.5  C 653.32 513.5  652 512.18  652 510.5  C 652 508.82  653.32 507.5  655 507.5  C 656.68 507.5  658 508.82  658 510.5  C 658 512.18  656.68 513.5  655 513.5  " fill-rule="nonzero" fill="#797979" stroke="none" />
</svg>