<?xml version="1.0" encoding="utf-8"?>
<svg version="1.1" xmlns:xlink="http://www.w3.org/1999/xlink" width="12px" height="12px" viewBox="649 562.5  12 12" xmlns="http://www.w3.org/2000/svg">
  <path d="M 655 562.5  C 658.36 562.5  661 565.14  661 568.5  C 661 571.86  658.36 574.5  655 574.5  C 651.64 574.5  649 571.86  649 568.5  C 649 565.14  651.64 562.5  655 562.5  Z " fill-rule="nonzero" fill="#ffffff" stroke="none" />
  <path d="M 655 563  C 658.08 563  660.5 565.42  660.5 568.5  C 660.5 571.58  658.08 574  655 574  C 651.92 574  649.5 571.58  649.5 568.5  C 649.5 565.42  651.92 563  655 563  Z " stroke-width="1" stroke="#797979" fill="none" />
  <path d="M 655 571.5  C 653.32 571.5  652 570.18  652 568.5  C 652 566.82  653.32 565.5  655 565.5  C 656.68 565.5  658 566.82  658 568.5  C 658 570.18  656.68 571.5  655 571.5  " fill-rule="nonzero" fill="#797979" stroke="none" />
</svg>