<?xml version="1.0" encoding="utf-8"?>
<svg version="1.1" xmlns:xlink="http://www.w3.org/1999/xlink" width="12px" height="12px" viewBox="1015 504.5  12 12" xmlns="http://www.w3.org/2000/svg">
  <path d="M 1021 504.5  C 1024.36 504.5  1027 507.14  1027 510.5  C 1027 513.86  1024.36 516.5  1021 516.5  C 1017.64 516.5  1015 513.86  1015 510.5  C 1015 507.14  1017.64 504.5  1021 504.5  Z " fill-rule="nonzero" fill="#f0f0f0" stroke="none" />
  <path d="M 1021 505  C 1024.08 505  1026.5 507.42  1026.5 510.5  C 1026.5 513.58  1024.08 516  1021 516  C 1017.92 516  1015.5 513.58  1015.5 510.5  C 1015.5 507.42  1017.92 505  1021 505  Z " stroke-width="1" stroke="#333333" fill="none" />
  <path d="M 1021 513.5  C 1019.32 513.5  1018 512.18  1018 510.5  C 1018 508.82  1019.32 507.5  1021 507.5  C 1022.68 507.5  1024 508.82  1024 510.5  C 1024 512.18  1022.68 513.5  1021 513.5  " fill-rule="nonzero" fill="#333333" stroke="none" />
</svg>