<?xml version="1.0" encoding="utf-8"?>
<svg version="1.1" xmlns:xlink="http://www.w3.org/1999/xlink" width="12px" height="12px" viewBox="965 533.5  12 12" xmlns="http://www.w3.org/2000/svg">
  <path d="M 971 533.5  C 974.36 533.5  977 536.14  977 539.5  C 977 542.86  974.36 545.5  971 545.5  C 967.64 545.5  965 542.86  965 539.5  C 965 536.14  967.64 533.5  971 533.5  Z " fill-rule="nonzero" fill="#ffffff" stroke="none" />
  <path d="M 971 534  C 974.08 534  976.5 536.42  976.5 539.5  C 976.5 542.58  974.08 545  971 545  C 967.92 545  965.5 542.58  965.5 539.5  C 965.5 536.42  967.92 534  971 534  Z " stroke-width="1" stroke="#797979" fill="none" />
  <path d="M 971 542.5  C 969.32 542.5  968 541.18  968 539.5  C 968 537.82  969.32 536.5  971 536.5  C 972.68 536.5  974 537.82  974 539.5  C 974 541.18  972.68 542.5  971 542.5  " fill-rule="nonzero" fill="#797979" stroke="none" />
</svg>