<?xml version="1.0" encoding="utf-8"?>
<svg version="1.1" xmlns:xlink="http://www.w3.org/1999/xlink" width="12px" height="12px" viewBox="287 760.5  12 12" xmlns="http://www.w3.org/2000/svg">
  <path d="M 293 760.5  C 296.36 760.5  299 763.14  299 766.5  C 299 769.86  296.36 772.5  293 772.5  C 289.64 772.5  287 769.86  287 766.5  C 287 763.14  289.64 760.5  293 760.5  Z " fill-rule="nonzero" fill="#f0f0f0" stroke="none" />
  <path d="M 293 761  C 296.08 761  298.5 763.42  298.5 766.5  C 298.5 769.58  296.08 772  293 772  C 289.92 772  287.5 769.58  287.5 766.5  C 287.5 763.42  289.92 761  293 761  Z " stroke-width="1" stroke="#797979" fill="none" />
  <path d="M 293 769.5  C 291.32 769.5  290 768.18  290 766.5  C 290 764.82  291.32 763.5  293 763.5  C 294.68 763.5  296 764.82  296 766.5  C 296 768.18  294.68 769.5  293 769.5  " fill-rule="nonzero" fill="#797979" stroke="none" />
</svg>