<?xml version="1.0" encoding="utf-8"?>
<svg version="1.1" xmlns:xlink="http://www.w3.org/1999/xlink" width="12px" height="12px" viewBox="287 977.5  12 12" xmlns="http://www.w3.org/2000/svg">
  <path d="M 293 977.5  C 296.36 977.5  299 980.14  299 983.5  C 299 986.86  296.36 989.5  293 989.5  C 289.64 989.5  287 986.86  287 983.5  C 287 980.14  289.64 977.5  293 977.5  Z " fill-rule="nonzero" fill="#ffffff" stroke="none" />
  <path d="M 293 978  C 296.08 978  298.5 980.42  298.5 983.5  C 298.5 986.58  296.08 989  293 989  C 289.92 989  287.5 986.58  287.5 983.5  C 287.5 980.42  289.92 978  293 978  Z " stroke-width="1" stroke="#797979" fill="none" />
  <path d="M 293 986.5  C 291.32 986.5  290 985.18  290 983.5  C 290 981.82  291.32 980.5  293 980.5  C 294.68 980.5  296 981.82  296 983.5  C 296 985.18  294.68 986.5  293 986.5  " fill-rule="nonzero" fill="#797979" stroke="none" />
</svg>