<?xml version="1.0" encoding="utf-8"?>
<svg version="1.1" xmlns:xlink="http://www.w3.org/1999/xlink" width="12px" height="12px" viewBox="251 563.5  12 12" xmlns="http://www.w3.org/2000/svg">
  <path d="M 257 563.5  C 260.36 563.5  263 566.14  263 569.5  C 263 572.86  260.36 575.5  257 575.5  C 253.64 575.5  251 572.86  251 569.5  C 251 566.14  253.64 563.5  257 563.5  Z " fill-rule="nonzero" fill="#ffffff" stroke="none" />
  <path d="M 257 564  C 260.08 564  262.5 566.42  262.5 569.5  C 262.5 572.58  260.08 575  257 575  C 253.92 575  251.5 572.58  251.5 569.5  C 251.5 566.42  253.92 564  257 564  Z " stroke-width="1" stroke="#797979" fill="none" />
  <path d="M 257 572.5  C 255.32 572.5  254 571.18  254 569.5  C 254 567.82  255.32 566.5  257 566.5  C 258.68 566.5  260 567.82  260 569.5  C 260 571.18  258.68 572.5  257 572.5  " fill-rule="nonzero" fill="#797979" stroke="none" />
</svg>