<?xml version="1.0" encoding="utf-8"?>
<svg version="1.1" xmlns:xlink="http://www.w3.org/1999/xlink" width="12px" height="12px" viewBox="251 533.5  12 12" xmlns="http://www.w3.org/2000/svg">
  <path d="M 257 533.5  C 260.36 533.5  263 536.14  263 539.5  C 263 542.86  260.36 545.5  257 545.5  C 253.64 545.5  251 542.86  251 539.5  C 251 536.14  253.64 533.5  257 533.5  Z " fill-rule="nonzero" fill="#ffffff" stroke="none" />
  <path d="M 257 534  C 260.08 534  262.5 536.42  262.5 539.5  C 262.5 542.58  260.08 545  257 545  C 253.92 545  251.5 542.58  251.5 539.5  C 251.5 536.42  253.92 534  257 534  Z " stroke-width="1" stroke="#797979" fill="none" />
  <path d="M 257 542.5  C 255.32 542.5  254 541.18  254 539.5  C 254 537.82  255.32 536.5  257 536.5  C 258.68 536.5  260 537.82  260 539.5  C 260 541.18  258.68 542.5  257 542.5  " fill-rule="nonzero" fill="#797979" stroke="none" />
</svg>