<?xml version="1.0" encoding="utf-8"?>
<svg version="1.1" xmlns:xlink="http://www.w3.org/1999/xlink" width="12px" height="12px" viewBox="301 563.5  12 12" xmlns="http://www.w3.org/2000/svg">
  <path d="M 307 563.5  C 310.36 563.5  313 566.14  313 569.5  C 313 572.86  310.36 575.5  307 575.5  C 303.64 575.5  301 572.86  301 569.5  C 301 566.14  303.64 563.5  307 563.5  Z " fill-rule="nonzero" fill="#f0f0f0" stroke="none" />
  <path d="M 307 564  C 310.08 564  312.5 566.42  312.5 569.5  C 312.5 572.58  310.08 575  307 575  C 303.92 575  301.5 572.58  301.5 569.5  C 301.5 566.42  303.92 564  307 564  Z " stroke-width="1" stroke="#333333" fill="none" />
  <path d="M 307 572.5  C 305.32 572.5  304 571.18  304 569.5  C 304 567.82  305.32 566.5  307 566.5  C 308.68 566.5  310 567.82  310 569.5  C 310 571.18  308.68 572.5  307 572.5  " fill-rule="nonzero" fill="#333333" stroke="none" />
</svg>