<?xml version="1.0" encoding="utf-8"?>
<svg version="1.1" xmlns:xlink="http://www.w3.org/1999/xlink" width="12px" height="12px" viewBox="301 532.5  12 12" xmlns="http://www.w3.org/2000/svg">
  <path d="M 307 532.5  C 310.36 532.5  313 535.14  313 538.5  C 313 541.86  310.36 544.5  307 544.5  C 303.64 544.5  301 541.86  301 538.5  C 301 535.14  303.64 532.5  307 532.5  Z " fill-rule="nonzero" fill="#ffffff" stroke="none" />
  <path d="M 307 533  C 310.08 533  312.5 535.42  312.5 538.5  C 312.5 541.58  310.08 544  307 544  C 303.92 544  301.5 541.58  301.5 538.5  C 301.5 535.42  303.92 533  307 533  Z " stroke-width="1" stroke="#333333" fill="none" />
  <path d="M 307 541.5  C 305.32 541.5  304 540.18  304 538.5  C 304 536.82  305.32 535.5  307 535.5  C 308.68 535.5  310 536.82  310 538.5  C 310 540.18  308.68 541.5  307 541.5  " fill-rule="nonzero" fill="#333333" stroke="none" />
</svg>