<?xml version="1.0" encoding="utf-8"?>
<svg version="1.1" xmlns:xlink="http://www.w3.org/1999/xlink" width="12px" height="12px" viewBox="412 563.5  12 12" xmlns="http://www.w3.org/2000/svg">
  <path d="M 418 563.5  C 421.36 563.5  424 566.14  424 569.5  C 424 572.86  421.36 575.5  418 575.5  C 414.64 575.5  412 572.86  412 569.5  C 412 566.14  414.64 563.5  418 563.5  Z " fill-rule="nonzero" fill="#ffffff" stroke="none" />
  <path d="M 418 564  C 421.08 564  423.5 566.42  423.5 569.5  C 423.5 572.58  421.08 575  418 575  C 414.92 575  412.5 572.58  412.5 569.5  C 412.5 566.42  414.92 564  418 564  Z " stroke-width="1" stroke="#333333" fill="none" />
  <path d="M 418 572.5  C 416.32 572.5  415 571.18  415 569.5  C 415 567.82  416.32 566.5  418 566.5  C 419.68 566.5  421 567.82  421 569.5  C 421 571.18  419.68 572.5  418 572.5  " fill-rule="nonzero" fill="#333333" stroke="none" />
</svg>