<?xml version="1.0" encoding="utf-8"?>
<svg version="1.1" xmlns:xlink="http://www.w3.org/1999/xlink" width="12px" height="12px" viewBox="251 590.5  12 12" xmlns="http://www.w3.org/2000/svg">
  <path d="M 257 590.5  C 260.36 590.5  263 593.14  263 596.5  C 263 599.86  260.36 602.5  257 602.5  C 253.64 602.5  251 599.86  251 596.5  C 251 593.14  253.64 590.5  257 590.5  Z " fill-rule="nonzero" fill="#ffffff" stroke="none" />
  <path d="M 257 591  C 260.08 591  262.5 593.42  262.5 596.5  C 262.5 599.58  260.08 602  257 602  C 253.92 602  251.5 599.58  251.5 596.5  C 251.5 593.42  253.92 591  257 591  Z " stroke-width="1" stroke="#797979" fill="none" />
  <path d="M 257 599.5  C 255.32 599.5  254 598.18  254 596.5  C 254 594.82  255.32 593.5  257 593.5  C 258.68 593.5  260 594.82  260 596.5  C 260 598.18  258.68 599.5  257 599.5  " fill-rule="nonzero" fill="#797979" stroke="none" />
</svg>