<?xml version="1.0" encoding="utf-8"?>
<svg version="1.1" xmlns:xlink="http://www.w3.org/1999/xlink" width="12px" height="12px" viewBox="455 563.5  12 12" xmlns="http://www.w3.org/2000/svg">
  <path d="M 461 563.5  C 464.36 563.5  467 566.14  467 569.5  C 467 572.86  464.36 575.5  461 575.5  C 457.64 575.5  455 572.86  455 569.5  C 455 566.14  457.64 563.5  461 563.5  Z " fill-rule="nonzero" fill="#ffffff" stroke="none" />
  <path d="M 461 564  C 464.08 564  466.5 566.42  466.5 569.5  C 466.5 572.58  464.08 575  461 575  C 457.92 575  455.5 572.58  455.5 569.5  C 455.5 566.42  457.92 564  461 564  Z " stroke-width="1" stroke="#333333" fill="none" />
  <path d="M 461 572.5  C 459.32 572.5  458 571.18  458 569.5  C 458 567.82  459.32 566.5  461 566.5  C 462.68 566.5  464 567.82  464 569.5  C 464 571.18  462.68 572.5  461 572.5  " fill-rule="nonzero" fill="#333333" stroke="none" />
</svg>