<?xml version="1.0" encoding="utf-8"?>
<svg version="1.1" xmlns:xlink="http://www.w3.org/1999/xlink" width="12px" height="12px" viewBox="376 563.5  12 12" xmlns="http://www.w3.org/2000/svg">
  <path d="M 382 563.5  C 385.36 563.5  388 566.14  388 569.5  C 388 572.86  385.36 575.5  382 575.5  C 378.64 575.5  376 572.86  376 569.5  C 376 566.14  378.64 563.5  382 563.5  Z " fill-rule="nonzero" fill="#f0f0f0" stroke="none" />
  <path d="M 382 564  C 385.08 564  387.5 566.42  387.5 569.5  C 387.5 572.58  385.08 575  382 575  C 378.92 575  376.5 572.58  376.5 569.5  C 376.5 566.42  378.92 564  382 564  Z " stroke-width="1" stroke="#797979" fill="none" />
  <path d="M 382 572.5  C 380.32 572.5  379 571.18  379 569.5  C 379 567.82  380.32 566.5  382 566.5  C 383.68 566.5  385 567.82  385 569.5  C 385 571.18  383.68 572.5  382 572.5  " fill-rule="nonzero" fill="#797979" stroke="none" />
</svg>