<?xml version="1.0" encoding="utf-8"?>
<svg version="1.1" xmlns:xlink="http://www.w3.org/1999/xlink" width="12px" height="12px" viewBox="251 621.5  12 12" xmlns="http://www.w3.org/2000/svg">
  <path d="M 257 621.5  C 260.36 621.5  263 624.14  263 627.5  C 263 630.86  260.36 633.5  257 633.5  C 253.64 633.5  251 630.86  251 627.5  C 251 624.14  253.64 621.5  257 621.5  Z " fill-rule="nonzero" fill="#f0f0f0" stroke="none" />
  <path d="M 257 622  C 260.08 622  262.5 624.42  262.5 627.5  C 262.5 630.58  260.08 633  257 633  C 253.92 633  251.5 630.58  251.5 627.5  C 251.5 624.42  253.92 622  257 622  Z " stroke-width="1" stroke="#797979" fill="none" />
  <path d="M 257 630.5  C 255.32 630.5  254 629.18  254 627.5  C 254 625.82  255.32 624.5  257 624.5  C 258.68 624.5  260 625.82  260 627.5  C 260 629.18  258.68 630.5  257 630.5  " fill-rule="nonzero" fill="#797979" stroke="none" />
</svg>