<?xml version="1.0" encoding="utf-8"?>
<svg version="1.1" xmlns:xlink="http://www.w3.org/1999/xlink" width="12px" height="12px" viewBox="578 533.5  12 12" xmlns="http://www.w3.org/2000/svg">
  <path d="M 584 533.5  C 587.36 533.5  590 536.14  590 539.5  C 590 542.86  587.36 545.5  584 545.5  C 580.64 545.5  578 542.86  578 539.5  C 578 536.14  580.64 533.5  584 533.5  Z " fill-rule="nonzero" fill="#ffffff" stroke="none" />
  <path d="M 584 534  C 587.08 534  589.5 536.42  589.5 539.5  C 589.5 542.58  587.08 545  584 545  C 580.92 545  578.5 542.58  578.5 539.5  C 578.5 536.42  580.92 534  584 534  Z " stroke-width="1" stroke="#797979" fill="none" />
  <path d="M 584 542.5  C 582.32 542.5  581 541.18  581 539.5  C 581 537.82  582.32 536.5  584 536.5  C 585.68 536.5  587 537.82  587 539.5  C 587 541.18  585.68 542.5  584 542.5  " fill-rule="nonzero" fill="#797979" stroke="none" />
</svg>