<?xml version="1.0" encoding="utf-8"?>
<svg version="1.1" xmlns:xlink="http://www.w3.org/1999/xlink" width="12px" height="12px" viewBox="628 563.5  12 12" xmlns="http://www.w3.org/2000/svg">
  <path d="M 634 563.5  C 637.36 563.5  640 566.14  640 569.5  C 640 572.86  637.36 575.5  634 575.5  C 630.64 575.5  628 572.86  628 569.5  C 628 566.14  630.64 563.5  634 563.5  Z " fill-rule="nonzero" fill="#f0f0f0" stroke="none" />
  <path d="M 634 564  C 637.08 564  639.5 566.42  639.5 569.5  C 639.5 572.58  637.08 575  634 575  C 630.92 575  628.5 572.58  628.5 569.5  C 628.5 566.42  630.92 564  634 564  Z " stroke-width="1" stroke="#333333" fill="none" />
  <path d="M 634 572.5  C 632.32 572.5  631 571.18  631 569.5  C 631 567.82  632.32 566.5  634 566.5  C 635.68 566.5  637 567.82  637 569.5  C 637 571.18  635.68 572.5  634 572.5  " fill-rule="nonzero" fill="#333333" stroke="none" />
</svg>