<?xml version="1.0" encoding="utf-8"?>
<svg version="1.1" xmlns:xlink="http://www.w3.org/1999/xlink" width="12px" height="12px" viewBox="628 532.5  12 12" xmlns="http://www.w3.org/2000/svg">
  <path d="M 634 532.5  C 637.36 532.5  640 535.14  640 538.5  C 640 541.86  637.36 544.5  634 544.5  C 630.64 544.5  628 541.86  628 538.5  C 628 535.14  630.64 532.5  634 532.5  Z " fill-rule="nonzero" fill="#ffffff" stroke="none" />
  <path d="M 634 533  C 637.08 533  639.5 535.42  639.5 538.5  C 639.5 541.58  637.08 544  634 544  C 630.92 544  628.5 541.58  628.5 538.5  C 628.5 535.42  630.92 533  634 533  Z " stroke-width="1" stroke="#333333" fill="none" />
  <path d="M 634 541.5  C 632.32 541.5  631 540.18  631 538.5  C 631 536.82  632.32 535.5  634 535.5  C 635.68 535.5  637 536.82  637 538.5  C 637 540.18  635.68 541.5  634 541.5  " fill-rule="nonzero" fill="#333333" stroke="none" />
</svg>