<?xml version="1.0" encoding="utf-8"?>
<svg version="1.1" xmlns:xlink="http://www.w3.org/1999/xlink" width="12px" height="12px" viewBox="326 651.5  12 12" xmlns="http://www.w3.org/2000/svg">
  <path d="M 332 651.5  C 335.36 651.5  338 654.14  338 657.5  C 338 660.86  335.36 663.5  332 663.5  C 328.64 663.5  326 660.86  326 657.5  C 326 654.14  328.64 651.5  332 651.5  Z " fill-rule="nonzero" fill="#ffffff" stroke="none" />
  <path d="M 332 652  C 335.08 652  337.5 654.42  337.5 657.5  C 337.5 660.58  335.08 663  332 663  C 328.92 663  326.5 660.58  326.5 657.5  C 326.5 654.42  328.92 652  332 652  Z " stroke-width="1" stroke="#333333" fill="none" />
  <path d="M 332 660.5  C 330.32 660.5  329 659.18  329 657.5  C 329 655.82  330.32 654.5  332 654.5  C 333.68 654.5  335 655.82  335 657.5  C 335 659.18  333.68 660.5  332 660.5  " fill-rule="nonzero" fill="#333333" stroke="none" />
</svg>