<?xml version="1.0" encoding="utf-8"?>
<svg version="1.1" xmlns:xlink="http://www.w3.org/1999/xlink" width="12px" height="12px" viewBox="628 592.5  12 12" xmlns="http://www.w3.org/2000/svg">
  <path d="M 634 592.5  C 637.36 592.5  640 595.14  640 598.5  C 640 601.86  637.36 604.5  634 604.5  C 630.64 604.5  628 601.86  628 598.5  C 628 595.14  630.64 592.5  634 592.5  Z " fill-rule="nonzero" fill="#f0f0f0" stroke="none" />
  <path d="M 634 593  C 637.08 593  639.5 595.42  639.5 598.5  C 639.5 601.58  637.08 604  634 604  C 630.92 604  628.5 601.58  628.5 598.5  C 628.5 595.42  630.92 593  634 593  Z " stroke-width="1" stroke="#333333" fill="none" />
  <path d="M 634 601.5  C 632.32 601.5  631 600.18  631 598.5  C 631 596.82  632.32 595.5  634 595.5  C 635.68 595.5  637 596.82  637 598.5  C 637 600.18  635.68 601.5  634 601.5  " fill-rule="nonzero" fill="#333333" stroke="none" />
</svg>