<?xml version="1.0" encoding="utf-8"?>
<svg version="1.1" xmlns:xlink="http://www.w3.org/1999/xlink" width="12px" height="12px" viewBox="628 651.5  12 12" xmlns="http://www.w3.org/2000/svg">
  <path d="M 634 651.5  C 637.36 651.5  640 654.14  640 657.5  C 640 660.86  637.36 663.5  634 663.5  C 630.64 663.5  628 660.86  628 657.5  C 628 654.14  630.64 651.5  634 651.5  Z " fill-rule="nonzero" fill="#ffffff" stroke="none" />
  <path d="M 634 652  C 637.08 652  639.5 654.42  639.5 657.5  C 639.5 660.58  637.08 663  634 663  C 630.92 663  628.5 660.58  628.5 657.5  C 628.5 654.42  630.92 652  634 652  Z " stroke-width="1" stroke="#333333" fill="none" />
  <path d="M 634 660.5  C 632.32 660.5  631 659.18  631 657.5  C 631 655.82  632.32 654.5  634 654.5  C 635.68 654.5  637 655.82  637 657.5  C 637 659.18  635.68 660.5  634 660.5  " fill-rule="nonzero" fill="#333333" stroke="none" />
</svg>