<?xml version="1.0" encoding="utf-8"?>
<svg version="1.1" xmlns:xlink="http://www.w3.org/1999/xlink" width="12px" height="12px" viewBox="578 621.5  12 12" xmlns="http://www.w3.org/2000/svg">
  <path d="M 584 621.5  C 587.36 621.5  590 624.14  590 627.5  C 590 630.86  587.36 633.5  584 633.5  C 580.64 633.5  578 630.86  578 627.5  C 578 624.14  580.64 621.5  584 621.5  Z " fill-rule="nonzero" fill="#ffffff" stroke="none" />
  <path d="M 584 622  C 587.08 622  589.5 624.42  589.5 627.5  C 589.5 630.58  587.08 633  584 633  C 580.92 633  578.5 630.58  578.5 627.5  C 578.5 624.42  580.92 622  584 622  Z " stroke-width="1" stroke="#797979" fill="none" />
  <path d="M 584 630.5  C 582.32 630.5  581 629.18  581 627.5  C 581 625.82  582.32 624.5  584 624.5  C 585.68 624.5  587 625.82  587 627.5  C 587 629.18  585.68 630.5  584 630.5  " fill-rule="nonzero" fill="#797979" stroke="none" />
</svg>