<?xml version="1.0" encoding="utf-8"?>
<svg version="1.1" xmlns:xlink="http://www.w3.org/1999/xlink" width="12px" height="12px" viewBox="628 621.5  12 12" xmlns="http://www.w3.org/2000/svg">
  <path d="M 634 621.5  C 637.36 621.5  640 624.14  640 627.5  C 640 630.86  637.36 633.5  634 633.5  C 630.64 633.5  628 630.86  628 627.5  C 628 624.14  630.64 621.5  634 621.5  Z " fill-rule="nonzero" fill="#f0f0f0" stroke="none" />
  <path d="M 634 622  C 637.08 622  639.5 624.42  639.5 627.5  C 639.5 630.58  637.08 633  634 633  C 630.92 633  628.5 630.58  628.5 627.5  C 628.5 624.42  630.92 622  634 622  Z " stroke-width="1" stroke="#333333" fill="none" />
  <path d="M 634 630.5  C 632.32 630.5  631 629.18  631 627.5  C 631 625.82  632.32 624.5  634 624.5  C 635.68 624.5  637 625.82  637 627.5  C 637 629.18  635.68 630.5  634 630.5  " fill-rule="nonzero" fill="#333333" stroke="none" />
</svg>