<?xml version="1.0" encoding="utf-8"?>
<svg version="1.1" xmlns:xlink="http://www.w3.org/1999/xlink" width="12px" height="12px" viewBox="578 651.5  12 12" xmlns="http://www.w3.org/2000/svg">
  <path d="M 584 651.5  C 587.36 651.5  590 654.14  590 657.5  C 590 660.86  587.36 663.5  584 663.5  C 580.64 663.5  578 660.86  578 657.5  C 578 654.14  580.64 651.5  584 651.5  Z " fill-rule="nonzero" fill="#ffffff" stroke="none" />
  <path d="M 584 652  C 587.08 652  589.5 654.42  589.5 657.5  C 589.5 660.58  587.08 663  584 663  C 580.92 663  578.5 660.58  578.5 657.5  C 578.5 654.42  580.92 652  584 652  Z " stroke-width="1" stroke="#797979" fill="none" />
  <path d="M 584 660.5  C 582.32 660.5  581 659.18  581 657.5  C 581 655.82  582.32 654.5  584 654.5  C 585.68 654.5  587 655.82  587 657.5  C 587 659.18  585.68 660.5  584 660.5  " fill-rule="nonzero" fill="#797979" stroke="none" />
</svg>