<?xml version="1.0" encoding="utf-8"?>
<svg version="1.1" xmlns:xlink="http://www.w3.org/1999/xlink" width="12px" height="12px" viewBox="909 563.5  12 12" xmlns="http://www.w3.org/2000/svg">
  <path d="M 915 563.5  C 918.36 563.5  921 566.14  921 569.5  C 921 572.86  918.36 575.5  915 575.5  C 911.64 575.5  909 572.86  909 569.5  C 909 566.14  911.64 563.5  915 563.5  Z " fill-rule="nonzero" fill="#f0f0f0" stroke="none" />
  <path d="M 915 564  C 918.08 564  920.5 566.42  920.5 569.5  C 920.5 572.58  918.08 575  915 575  C 911.92 575  909.5 572.58  909.5 569.5  C 909.5 566.42  911.92 564  915 564  Z " stroke-width="1" stroke="#797979" fill="none" />
  <path d="M 915 572.5  C 913.32 572.5  912 571.18  912 569.5  C 912 567.82  913.32 566.5  915 566.5  C 916.68 566.5  918 567.82  918 569.5  C 918 571.18  916.68 572.5  915 572.5  " fill-rule="nonzero" fill="#797979" stroke="none" />
</svg>