<?xml version="1.0" encoding="utf-8"?>
<svg version="1.1" xmlns:xlink="http://www.w3.org/1999/xlink" width="12px" height="12px" viewBox="909 533.5  12 12" xmlns="http://www.w3.org/2000/svg">
  <path d="M 915 533.5  C 918.36 533.5  921 536.14  921 539.5  C 921 542.86  918.36 545.5  915 545.5  C 911.64 545.5  909 542.86  909 539.5  C 909 536.14  911.64 533.5  915 533.5  Z " fill-rule="nonzero" fill="#f0f0f0" stroke="none" />
  <path d="M 915 534  C 918.08 534  920.5 536.42  920.5 539.5  C 920.5 542.58  918.08 545  915 545  C 911.92 545  909.5 542.58  909.5 539.5  C 909.5 536.42  911.92 534  915 534  Z " stroke-width="1" stroke="#797979" fill="none" />
  <path d="M 915 542.5  C 913.32 542.5  912 541.18  912 539.5  C 912 537.82  913.32 536.5  915 536.5  C 916.68 536.5  918 537.82  918 539.5  C 918 541.18  916.68 542.5  915 542.5  " fill-rule="nonzero" fill="#797979" stroke="none" />
</svg>