<?xml version="1.0" encoding="utf-8"?>
<svg version="1.1" xmlns:xlink="http://www.w3.org/1999/xlink" width="12px" height="12px" viewBox="959 592.5  12 12" xmlns="http://www.w3.org/2000/svg">
  <path d="M 965 592.5  C 968.36 592.5  971 595.14  971 598.5  C 971 601.86  968.36 604.5  965 604.5  C 961.64 604.5  959 601.86  959 598.5  C 959 595.14  961.64 592.5  965 592.5  Z " fill-rule="nonzero" fill="#f0f0f0" stroke="none" />
  <path d="M 965 593  C 968.08 593  970.5 595.42  970.5 598.5  C 970.5 601.58  968.08 604  965 604  C 961.92 604  959.5 601.58  959.5 598.5  C 959.5 595.42  961.92 593  965 593  Z " stroke-width="1" stroke="#333333" fill="none" />
  <path d="M 965 601.5  C 963.32 601.5  962 600.18  962 598.5  C 962 596.82  963.32 595.5  965 595.5  C 966.68 595.5  968 596.82  968 598.5  C 968 600.18  966.68 601.5  965 601.5  " fill-rule="nonzero" fill="#333333" stroke="none" />
</svg>