<?xml version="1.0" encoding="utf-8"?>
<svg version="1.1" xmlns:xlink="http://www.w3.org/1999/xlink" width="12px" height="12px" viewBox="909 621.5  12 12" xmlns="http://www.w3.org/2000/svg">
  <path d="M 915 621.5  C 918.36 621.5  921 624.14  921 627.5  C 921 630.86  918.36 633.5  915 633.5  C 911.64 633.5  909 630.86  909 627.5  C 909 624.14  911.64 621.5  915 621.5  Z " fill-rule="nonzero" fill="#ffffff" stroke="none" />
  <path d="M 915 622  C 918.08 622  920.5 624.42  920.5 627.5  C 920.5 630.58  918.08 633  915 633  C 911.92 633  909.5 630.58  909.5 627.5  C 909.5 624.42  911.92 622  915 622  Z " stroke-width="1" stroke="#797979" fill="none" />
  <path d="M 915 630.5  C 913.32 630.5  912 629.18  912 627.5  C 912 625.82  913.32 624.5  915 624.5  C 916.68 624.5  918 625.82  918 627.5  C 918 629.18  916.68 630.5  915 630.5  " fill-rule="nonzero" fill="#797979" stroke="none" />
</svg>