<?xml version="1.0" encoding="utf-8"?>
<svg version="1.1" xmlns:xlink="http://www.w3.org/1999/xlink" width="12px" height="12px" viewBox="959 532.5  12 12" xmlns="http://www.w3.org/2000/svg">
  <path d="M 965 532.5  C 968.36 532.5  971 535.14  971 538.5  C 971 541.86  968.36 544.5  965 544.5  C 961.64 544.5  959 541.86  959 538.5  C 959 535.14  961.64 532.5  965 532.5  Z " fill-rule="nonzero" fill="#ffffff" stroke="none" />
  <path d="M 965 533  C 968.08 533  970.5 535.42  970.5 538.5  C 970.5 541.58  968.08 544  965 544  C 961.92 544  959.5 541.58  959.5 538.5  C 959.5 535.42  961.92 533  965 533  Z " stroke-width="1" stroke="#333333" fill="none" />
  <path d="M 965 541.5  C 963.32 541.5  962 540.18  962 538.5  C 962 536.82  963.32 535.5  965 535.5  C 966.68 535.5  968 536.82  968 538.5  C 968 540.18  966.68 541.5  965 541.5  " fill-rule="nonzero" fill="#333333" stroke="none" />
</svg>