<?xml version="1.0" encoding="utf-8"?>
<svg version="1.1" xmlns:xlink="http://www.w3.org/1999/xlink" width="12px" height="12px" viewBox="909 592.5  12 12" xmlns="http://www.w3.org/2000/svg">
  <path d="M 915 592.5  C 918.36 592.5  921 595.14  921 598.5  C 921 601.86  918.36 604.5  915 604.5  C 911.64 604.5  909 601.86  909 598.5  C 909 595.14  911.64 592.5  915 592.5  Z " fill-rule="nonzero" fill="#f0f0f0" stroke="none" />
  <path d="M 915 593  C 918.08 593  920.5 595.42  920.5 598.5  C 920.5 601.58  918.08 604  915 604  C 911.92 604  909.5 601.58  909.5 598.5  C 909.5 595.42  911.92 593  915 593  Z " stroke-width="1" stroke="#797979" fill="none" />
  <path d="M 915 601.5  C 913.32 601.5  912 600.18  912 598.5  C 912 596.82  913.32 595.5  915 595.5  C 916.68 595.5  918 596.82  918 598.5  C 918 600.18  916.68 601.5  915 601.5  " fill-rule="nonzero" fill="#797979" stroke="none" />
</svg>