<?xml version="1.0" encoding="utf-8"?>
<svg version="1.1" xmlns:xlink="http://www.w3.org/1999/xlink" width="12px" height="12px" viewBox="251 819.5  12 12" xmlns="http://www.w3.org/2000/svg">
  <path d="M 257 819.5  C 260.36 819.5  263 822.14  263 825.5  C 263 828.86  260.36 831.5  257 831.5  C 253.64 831.5  251 828.86  251 825.5  C 251 822.14  253.64 819.5  257 819.5  Z " fill-rule="nonzero" fill="#ffffff" stroke="none" />
  <path d="M 257 820  C 260.08 820  262.5 822.42  262.5 825.5  C 262.5 828.58  260.08 831  257 831  C 253.92 831  251.5 828.58  251.5 825.5  C 251.5 822.42  253.92 820  257 820  Z " stroke-width="1" stroke="#797979" fill="none" />
  <path d="M 257 828.5  C 255.32 828.5  254 827.18  254 825.5  C 254 823.82  255.32 822.5  257 822.5  C 258.68 822.5  260 823.82  260 825.5  C 260 827.18  258.68 828.5  257 828.5  " fill-rule="nonzero" fill="#797979" stroke="none" />
</svg>