<?xml version="1.0" encoding="utf-8"?>
<svg version="1.1" xmlns:xlink="http://www.w3.org/1999/xlink" width="12px" height="12px" viewBox="301 730.5  12 12" xmlns="http://www.w3.org/2000/svg">
  <path d="M 307 730.5  C 310.36 730.5  313 733.14  313 736.5  C 313 739.86  310.36 742.5  307 742.5  C 303.64 742.5  301 739.86  301 736.5  C 301 733.14  303.64 730.5  307 730.5  Z " fill-rule="nonzero" fill="#ffffff" stroke="none" />
  <path d="M 307 731  C 310.08 731  312.5 733.42  312.5 736.5  C 312.5 739.58  310.08 742  307 742  C 303.92 742  301.5 739.58  301.5 736.5  C 301.5 733.42  303.92 731  307 731  Z " stroke-width="1" stroke="#333333" fill="none" />
  <path d="M 307 739.5  C 305.32 739.5  304 738.18  304 736.5  C 304 734.82  305.32 733.5  307 733.5  C 308.68 733.5  310 734.82  310 736.5  C 310 738.18  308.68 739.5  307 739.5  " fill-rule="nonzero" fill="#333333" stroke="none" />
</svg>