<?xml version="1.0" encoding="utf-8"?>
<svg version="1.1" xmlns:xlink="http://www.w3.org/1999/xlink" width="12px" height="12px" viewBox="301 761.5  12 12" xmlns="http://www.w3.org/2000/svg">
  <path d="M 307 761.5  C 310.36 761.5  313 764.14  313 767.5  C 313 770.86  310.36 773.5  307 773.5  C 303.64 773.5  301 770.86  301 767.5  C 301 764.14  303.64 761.5  307 761.5  Z " fill-rule="nonzero" fill="#ffffff" stroke="none" />
  <path d="M 307 762  C 310.08 762  312.5 764.42  312.5 767.5  C 312.5 770.58  310.08 773  307 773  C 303.92 773  301.5 770.58  301.5 767.5  C 301.5 764.42  303.92 762  307 762  Z " stroke-width="1" stroke="#333333" fill="none" />
  <path d="M 307 770.5  C 305.32 770.5  304 769.18  304 767.5  C 304 765.82  305.32 764.5  307 764.5  C 308.68 764.5  310 765.82  310 767.5  C 310 769.18  308.68 770.5  307 770.5  " fill-rule="nonzero" fill="#333333" stroke="none" />
</svg>