<?xml version="1.0" encoding="utf-8"?>
<svg version="1.1" xmlns:xlink="http://www.w3.org/1999/xlink" width="12px" height="12px" viewBox="251 790.5  12 12" xmlns="http://www.w3.org/2000/svg">
  <path d="M 257 790.5  C 260.36 790.5  263 793.14  263 796.5  C 263 799.86  260.36 802.5  257 802.5  C 253.64 802.5  251 799.86  251 796.5  C 251 793.14  253.64 790.5  257 790.5  Z " fill-rule="nonzero" fill="#ffffff" stroke="none" />
  <path d="M 257 791  C 260.08 791  262.5 793.42  262.5 796.5  C 262.5 799.58  260.08 802  257 802  C 253.92 802  251.5 799.58  251.5 796.5  C 251.5 793.42  253.92 791  257 791  Z " stroke-width="1" stroke="#797979" fill="none" />
  <path d="M 257 799.5  C 255.32 799.5  254 798.18  254 796.5  C 254 794.82  255.32 793.5  257 793.5  C 258.68 793.5  260 794.82  260 796.5  C 260 798.18  258.68 799.5  257 799.5  " fill-rule="nonzero" fill="#797979" stroke="none" />
</svg>