<?xml version="1.0" encoding="utf-8"?>
<svg version="1.1" xmlns:xlink="http://www.w3.org/1999/xlink" width="12px" height="12px" viewBox="301 819.5  12 12" xmlns="http://www.w3.org/2000/svg">
  <path d="M 307 819.5  C 310.36 819.5  313 822.14  313 825.5  C 313 828.86  310.36 831.5  307 831.5  C 303.64 831.5  301 828.86  301 825.5  C 301 822.14  303.64 819.5  307 819.5  Z " fill-rule="nonzero" fill="#f0f0f0" stroke="none" />
  <path d="M 307 820  C 310.08 820  312.5 822.42  312.5 825.5  C 312.5 828.58  310.08 831  307 831  C 303.92 831  301.5 828.58  301.5 825.5  C 301.5 822.42  303.92 820  307 820  Z " stroke-width="1" stroke="#333333" fill="none" />
  <path d="M 307 828.5  C 305.32 828.5  304 827.18  304 825.5  C 304 823.82  305.32 822.5  307 822.5  C 308.68 822.5  310 823.82  310 825.5  C 310 827.18  308.68 828.5  307 828.5  " fill-rule="nonzero" fill="#333333" stroke="none" />
</svg>