<?xml version="1.0" encoding="utf-8"?>
<svg version="1.1" xmlns:xlink="http://www.w3.org/1999/xlink" width="12px" height="12px" viewBox="616 761.5  12 12" xmlns="http://www.w3.org/2000/svg">
  <path d="M 622 761.5  C 625.36 761.5  628 764.14  628 767.5  C 628 770.86  625.36 773.5  622 773.5  C 618.64 773.5  616 770.86  616 767.5  C 616 764.14  618.64 761.5  622 761.5  Z " fill-rule="nonzero" fill="#f0f0f0" stroke="none" />
  <path d="M 622 762  C 625.08 762  627.5 764.42  627.5 767.5  C 627.5 770.58  625.08 773  622 773  C 618.92 773  616.5 770.58  616.5 767.5  C 616.5 764.42  618.92 762  622 762  Z " stroke-width="1" stroke="#797979" fill="none" />
  <path d="M 622 770.5  C 620.32 770.5  619 769.18  619 767.5  C 619 765.82  620.32 764.5  622 764.5  C 623.68 764.5  625 765.82  625 767.5  C 625 769.18  623.68 770.5  622 770.5  " fill-rule="nonzero" fill="#797979" stroke="none" />
</svg>