<?xml version="1.0" encoding="utf-8"?>
<svg version="1.1" xmlns:xlink="http://www.w3.org/1999/xlink" width="12px" height="12px" viewBox="666 790.5  12 12" xmlns="http://www.w3.org/2000/svg">
  <path d="M 672 790.5  C 675.36 790.5  678 793.14  678 796.5  C 678 799.86  675.36 802.5  672 802.5  C 668.64 802.5  666 799.86  666 796.5  C 666 793.14  668.64 790.5  672 790.5  Z " fill-rule="nonzero" fill="#ffffff" stroke="none" />
  <path d="M 672 791  C 675.08 791  677.5 793.42  677.5 796.5  C 677.5 799.58  675.08 802  672 802  C 668.92 802  666.5 799.58  666.5 796.5  C 666.5 793.42  668.92 791  672 791  Z " stroke-width="1" stroke="#333333" fill="none" />
  <path d="M 672 799.5  C 670.32 799.5  669 798.18  669 796.5  C 669 794.82  670.32 793.5  672 793.5  C 673.68 793.5  675 794.82  675 796.5  C 675 798.18  673.68 799.5  672 799.5  " fill-rule="nonzero" fill="#333333" stroke="none" />
</svg>