<?xml version="1.0" encoding="utf-8"?>
<svg version="1.1" xmlns:xlink="http://www.w3.org/1999/xlink" width="12px" height="12px" viewBox="616 819.5  12 12" xmlns="http://www.w3.org/2000/svg">
  <path d="M 622 819.5  C 625.36 819.5  628 822.14  628 825.5  C 628 828.86  625.36 831.5  622 831.5  C 618.64 831.5  616 828.86  616 825.5  C 616 822.14  618.64 819.5  622 819.5  Z " fill-rule="nonzero" fill="#ffffff" stroke="none" />
  <path d="M 622 820  C 625.08 820  627.5 822.42  627.5 825.5  C 627.5 828.58  625.08 831  622 831  C 618.92 831  616.5 828.58  616.5 825.5  C 616.5 822.42  618.92 820  622 820  Z " stroke-width="1" stroke="#797979" fill="none" />
  <path d="M 622 828.5  C 620.32 828.5  619 827.18  619 825.5  C 619 823.82  620.32 822.5  622 822.5  C 623.68 822.5  625 823.82  625 825.5  C 625 827.18  623.68 828.5  622 828.5  " fill-rule="nonzero" fill="#797979" stroke="none" />
</svg>