<?xml version="1.0" encoding="utf-8"?>
<svg version="1.1" xmlns:xlink="http://www.w3.org/1999/xlink" width="12px" height="12px" viewBox="731 761.5  12 12" xmlns="http://www.w3.org/2000/svg">
  <path d="M 737 761.5  C 740.36 761.5  743 764.14  743 767.5  C 743 770.86  740.36 773.5  737 773.5  C 733.64 773.5  731 770.86  731 767.5  C 731 764.14  733.64 761.5  737 761.5  Z " fill-rule="nonzero" fill="#ffffff" stroke="none" />
  <path d="M 737 762  C 740.08 762  742.5 764.42  742.5 767.5  C 742.5 770.58  740.08 773  737 773  C 733.92 773  731.5 770.58  731.5 767.5  C 731.5 764.42  733.92 762  737 762  Z " stroke-width="1" stroke="#797979" fill="none" />
  <path d="M 737 770.5  C 735.32 770.5  734 769.18  734 767.5  C 734 765.82  735.32 764.5  737 764.5  C 738.68 764.5  740 765.82  740 767.5  C 740 769.18  738.68 770.5  737 770.5  " fill-rule="nonzero" fill="#797979" stroke="none" />
</svg>