<?xml version="1.0" encoding="utf-8"?>
<svg version="1.1" xmlns:xlink="http://www.w3.org/1999/xlink" width="12px" height="12px" viewBox="666 761.5  12 12" xmlns="http://www.w3.org/2000/svg">
  <path d="M 672 761.5  C 675.36 761.5  678 764.14  678 767.5  C 678 770.86  675.36 773.5  672 773.5  C 668.64 773.5  666 770.86  666 767.5  C 666 764.14  668.64 761.5  672 761.5  Z " fill-rule="nonzero" fill="#f0f0f0" stroke="none" />
  <path d="M 672 762  C 675.08 762  677.5 764.42  677.5 767.5  C 677.5 770.58  675.08 773  672 773  C 668.92 773  666.5 770.58  666.5 767.5  C 666.5 764.42  668.92 762  672 762  Z " stroke-width="1" stroke="#333333" fill="none" />
  <path d="M 672 770.5  C 670.32 770.5  669 769.18  669 767.5  C 669 765.82  670.32 764.5  672 764.5  C 673.68 764.5  675 765.82  675 767.5  C 675 769.18  673.68 770.5  672 770.5  " fill-rule="nonzero" fill="#333333" stroke="none" />
</svg>