<?xml version="1.0" encoding="utf-8"?>
<svg version="1.1" xmlns:xlink="http://www.w3.org/1999/xlink" width="12px" height="12px" viewBox="666 819.5  12 12" xmlns="http://www.w3.org/2000/svg">
  <path d="M 672 819.5  C 675.36 819.5  678 822.14  678 825.5  C 678 828.86  675.36 831.5  672 831.5  C 668.64 831.5  666 828.86  666 825.5  C 666 822.14  668.64 819.5  672 819.5  Z " fill-rule="nonzero" fill="#f0f0f0" stroke="none" />
  <path d="M 672 820  C 675.08 820  677.5 822.42  677.5 825.5  C 677.5 828.58  675.08 831  672 831  C 668.92 831  666.5 828.58  666.5 825.5  C 666.5 822.42  668.92 820  672 820  Z " stroke-width="1" stroke="#333333" fill="none" />
  <path d="M 672 828.5  C 670.32 828.5  669 827.18  669 825.5  C 669 823.82  670.32 822.5  672 822.5  C 673.68 822.5  675 823.82  675 825.5  C 675 827.18  673.68 828.5  672 828.5  " fill-rule="nonzero" fill="#333333" stroke="none" />
</svg>