<?xml version="1.0" encoding="utf-8"?>
<svg version="1.1" xmlns:xlink="http://www.w3.org/1999/xlink" width="12px" height="12px" viewBox="616 790.5  12 12" xmlns="http://www.w3.org/2000/svg">
  <path d="M 622 790.5  C 625.36 790.5  628 793.14  628 796.5  C 628 799.86  625.36 802.5  622 802.5  C 618.64 802.5  616 799.86  616 796.5  C 616 793.14  618.64 790.5  622 790.5  Z " fill-rule="nonzero" fill="#f0f0f0" stroke="none" />
  <path d="M 622 791  C 625.08 791  627.5 793.42  627.5 796.5  C 627.5 799.58  625.08 802  622 802  C 618.92 802  616.5 799.58  616.5 796.5  C 616.5 793.42  618.92 791  622 791  Z " stroke-width="1" stroke="#797979" fill="none" />
  <path d="M 622 799.5  C 620.32 799.5  619 798.18  619 796.5  C 619 794.82  620.32 793.5  622 793.5  C 623.68 793.5  625 794.82  625 796.5  C 625 798.18  623.68 799.5  622 799.5  " fill-rule="nonzero" fill="#797979" stroke="none" />
</svg>