<?xml version="1.0" encoding="utf-8"?>
<svg version="1.1" xmlns:xlink="http://www.w3.org/1999/xlink" width="12px" height="12px" viewBox="616 731.5  12 12" xmlns="http://www.w3.org/2000/svg">
  <path d="M 622 731.5  C 625.36 731.5  628 734.14  628 737.5  C 628 740.86  625.36 743.5  622 743.5  C 618.64 743.5  616 740.86  616 737.5  C 616 734.14  618.64 731.5  622 731.5  Z " fill-rule="nonzero" fill="#f0f0f0" stroke="none" />
  <path d="M 622 732  C 625.08 732  627.5 734.42  627.5 737.5  C 627.5 740.58  625.08 743  622 743  C 618.92 743  616.5 740.58  616.5 737.5  C 616.5 734.42  618.92 732  622 732  Z " stroke-width="1" stroke="#797979" fill="none" />
  <path d="M 622 740.5  C 620.32 740.5  619 739.18  619 737.5  C 619 735.82  620.32 734.5  622 734.5  C 623.68 734.5  625 735.82  625 737.5  C 625 739.18  623.68 740.5  622 740.5  " fill-rule="nonzero" fill="#797979" stroke="none" />
</svg>