<?xml version="1.0" encoding="utf-8"?>
<svg version="1.1" xmlns:xlink="http://www.w3.org/1999/xlink" width="12px" height="12px" viewBox="810 761.5  12 12" xmlns="http://www.w3.org/2000/svg">
  <path d="M 816 761.5  C 819.36 761.5  822 764.14  822 767.5  C 822 770.86  819.36 773.5  816 773.5  C 812.64 773.5  810 770.86  810 767.5  C 810 764.14  812.64 761.5  816 761.5  Z " fill-rule="nonzero" fill="#ffffff" stroke="none" />
  <path d="M 816 762  C 819.08 762  821.5 764.42  821.5 767.5  C 821.5 770.58  819.08 773  816 773  C 812.92 773  810.5 770.58  810.5 767.5  C 810.5 764.42  812.92 762  816 762  Z " stroke-width="1" stroke="#333333" fill="none" />
  <path d="M 816 770.5  C 814.32 770.5  813 769.18  813 767.5  C 813 765.82  814.32 764.5  816 764.5  C 817.68 764.5  819 765.82  819 767.5  C 819 769.18  817.68 770.5  816 770.5  " fill-rule="nonzero" fill="#333333" stroke="none" />
</svg>