<?xml version="1.0" encoding="utf-8"?>
<svg version="1.1" xmlns:xlink="http://www.w3.org/1999/xlink" width="12px" height="12px" viewBox="767 761.5  12 12" xmlns="http://www.w3.org/2000/svg">
  <path d="M 773 761.5  C 776.36 761.5  779 764.14  779 767.5  C 779 770.86  776.36 773.5  773 773.5  C 769.64 773.5  767 770.86  767 767.5  C 767 764.14  769.64 761.5  773 761.5  Z " fill-rule="nonzero" fill="#ffffff" stroke="none" />
  <path d="M 773 762  C 776.08 762  778.5 764.42  778.5 767.5  C 778.5 770.58  776.08 773  773 773  C 769.92 773  767.5 770.58  767.5 767.5  C 767.5 764.42  769.92 762  773 762  Z " stroke-width="1" stroke="#333333" fill="none" />
  <path d="M 773 770.5  C 771.32 770.5  770 769.18  770 767.5  C 770 765.82  771.32 764.5  773 764.5  C 774.68 764.5  776 765.82  776 767.5  C 776 769.18  774.68 770.5  773 770.5  " fill-rule="nonzero" fill="#333333" stroke="none" />
</svg>