<?xml version="1.0" encoding="utf-8"?>
<svg version="1.1" xmlns:xlink="http://www.w3.org/1999/xlink" width="12px" height="12px" viewBox="986 730.5  12 12" xmlns="http://www.w3.org/2000/svg">
  <path d="M 992 730.5  C 995.36 730.5  998 733.14  998 736.5  C 998 739.86  995.36 742.5  992 742.5  C 988.64 742.5  986 739.86  986 736.5  C 986 733.14  988.64 730.5  992 730.5  Z " fill-rule="nonzero" fill="#ffffff" stroke="none" />
  <path d="M 992 731  C 995.08 731  997.5 733.42  997.5 736.5  C 997.5 739.58  995.08 742  992 742  C 988.92 742  986.5 739.58  986.5 736.5  C 986.5 733.42  988.92 731  992 731  Z " stroke-width="1" stroke="#333333" fill="none" />
  <path d="M 992 739.5  C 990.32 739.5  989 738.18  989 736.5  C 989 734.82  990.32 733.5  992 733.5  C 993.68 733.5  995 734.82  995 736.5  C 995 738.18  993.68 739.5  992 739.5  " fill-rule="nonzero" fill="#333333" stroke="none" />
</svg>