<?xml version="1.0" encoding="utf-8"?>
<svg version="1.1" xmlns:xlink="http://www.w3.org/1999/xlink" width="12px" height="12px" viewBox="936 731.5  12 12" xmlns="http://www.w3.org/2000/svg">
  <path d="M 942 731.5  C 945.36 731.5  948 734.14  948 737.5  C 948 740.86  945.36 743.5  942 743.5  C 938.64 743.5  936 740.86  936 737.5  C 936 734.14  938.64 731.5  942 731.5  Z " fill-rule="nonzero" fill="#ffffff" stroke="none" />
  <path d="M 942 732  C 945.08 732  947.5 734.42  947.5 737.5  C 947.5 740.58  945.08 743  942 743  C 938.92 743  936.5 740.58  936.5 737.5  C 936.5 734.42  938.92 732  942 732  Z " stroke-width="1" stroke="#797979" fill="none" />
  <path d="M 942 740.5  C 940.32 740.5  939 739.18  939 737.5  C 939 735.82  940.32 734.5  942 734.5  C 943.68 734.5  945 735.82  945 737.5  C 945 739.18  943.68 740.5  942 740.5  " fill-rule="nonzero" fill="#797979" stroke="none" />
</svg>