<?xml version="1.0" encoding="utf-8"?>
<svg version="1.1" xmlns:xlink="http://www.w3.org/1999/xlink" width="12px" height="12px" viewBox="986 761.5  12 12" xmlns="http://www.w3.org/2000/svg">
  <path d="M 992 761.5  C 995.36 761.5  998 764.14  998 767.5  C 998 770.86  995.36 773.5  992 773.5  C 988.64 773.5  986 770.86  986 767.5  C 986 764.14  988.64 761.5  992 761.5  Z " fill-rule="nonzero" fill="#ffffff" stroke="none" />
  <path d="M 992 762  C 995.08 762  997.5 764.42  997.5 767.5  C 997.5 770.58  995.08 773  992 773  C 988.92 773  986.5 770.58  986.5 767.5  C 986.5 764.42  988.92 762  992 762  Z " stroke-width="1" stroke="#333333" fill="none" />
  <path d="M 992 770.5  C 990.32 770.5  989 769.18  989 767.5  C 989 765.82  990.32 764.5  992 764.5  C 993.68 764.5  995 765.82  995 767.5  C 995 769.18  993.68 770.5  992 770.5  " fill-rule="nonzero" fill="#333333" stroke="none" />
</svg>