<?xml version="1.0" encoding="utf-8"?>
<svg version="1.1" xmlns:xlink="http://www.w3.org/1999/xlink" width="12px" height="12px" viewBox="301 920.5  12 12" xmlns="http://www.w3.org/2000/svg">
  <path d="M 307 920.5  C 310.36 920.5  313 923.14  313 926.5  C 313 929.86  310.36 932.5  307 932.5  C 303.64 932.5  301 929.86  301 926.5  C 301 923.14  303.64 920.5  307 920.5  Z " fill-rule="nonzero" fill="#f0f0f0" stroke="none" />
  <path d="M 307 921  C 310.08 921  312.5 923.42  312.5 926.5  C 312.5 929.58  310.08 932  307 932  C 303.92 932  301.5 929.58  301.5 926.5  C 301.5 923.42  303.92 921  307 921  Z " stroke-width="1" stroke="#333333" fill="none" />
  <path d="M 307 929.5  C 305.32 929.5  304 928.18  304 926.5  C 304 924.82  305.32 923.5  307 923.5  C 308.68 923.5  310 924.82  310 926.5  C 310 928.18  308.68 929.5  307 929.5  " fill-rule="nonzero" fill="#333333" stroke="none" />
</svg>