<?xml version="1.0" encoding="utf-8"?>
<svg version="1.1" xmlns:xlink="http://www.w3.org/1999/xlink" width="12px" height="12px" viewBox="251 921.5  12 12" xmlns="http://www.w3.org/2000/svg">
  <path d="M 257 921.5  C 260.36 921.5  263 924.14  263 927.5  C 263 930.86  260.36 933.5  257 933.5  C 253.64 933.5  251 930.86  251 927.5  C 251 924.14  253.64 921.5  257 921.5  Z " fill-rule="nonzero" fill="#ffffff" stroke="none" />
  <path d="M 257 922  C 260.08 922  262.5 924.42  262.5 927.5  C 262.5 930.58  260.08 933  257 933  C 253.92 933  251.5 930.58  251.5 927.5  C 251.5 924.42  253.92 922  257 922  Z " stroke-width="1" stroke="#797979" fill="none" />
  <path d="M 257 930.5  C 255.32 930.5  254 929.18  254 927.5  C 254 925.82  255.32 924.5  257 924.5  C 258.68 924.5  260 925.82  260 927.5  C 260 929.18  258.68 930.5  257 930.5  " fill-rule="nonzero" fill="#797979" stroke="none" />
</svg>