<?xml version="1.0" encoding="utf-8"?>
<svg version="1.1" xmlns:xlink="http://www.w3.org/1999/xlink" width="12px" height="12px" viewBox="251 951.5  12 12" xmlns="http://www.w3.org/2000/svg">
  <path d="M 257 951.5  C 260.36 951.5  263 954.14  263 957.5  C 263 960.86  260.36 963.5  257 963.5  C 253.64 963.5  251 960.86  251 957.5  C 251 954.14  253.64 951.5  257 951.5  Z " fill-rule="nonzero" fill="#f0f0f0" stroke="none" />
  <path d="M 257 952  C 260.08 952  262.5 954.42  262.5 957.5  C 262.5 960.58  260.08 963  257 963  C 253.92 963  251.5 960.58  251.5 957.5  C 251.5 954.42  253.92 952  257 952  Z " stroke-width="1" stroke="#797979" fill="none" />
  <path d="M 257 960.5  C 255.32 960.5  254 959.18  254 957.5  C 254 955.82  255.32 954.5  257 954.5  C 258.68 954.5  260 955.82  260 957.5  C 260 959.18  258.68 960.5  257 960.5  " fill-rule="nonzero" fill="#797979" stroke="none" />
</svg>