<?xml version="1.0" encoding="utf-8"?>
<svg version="1.1" xmlns:xlink="http://www.w3.org/1999/xlink" width="12px" height="12px" viewBox="251 1056.5  12 12" xmlns="http://www.w3.org/2000/svg">
  <path d="M 257 1056.5  C 260.36 1056.5  263 1059.14  263 1062.5  C 263 1065.86  260.36 1068.5  257 1068.5  C 253.64 1068.5  251 1065.86  251 1062.5  C 251 1059.14  253.64 1056.5  257 1056.5  Z " fill-rule="nonzero" fill="#f0f0f0" stroke="none" />
  <path d="M 257 1057  C 260.08 1057  262.5 1059.42  262.5 1062.5  C 262.5 1065.58  260.08 1068  257 1068  C 253.92 1068  251.5 1065.58  251.5 1062.5  C 251.5 1059.42  253.92 1057  257 1057  Z " stroke-width="1" stroke="#797979" fill="none" />
  <path d="M 257 1065.5  C 255.32 1065.5  254 1064.18  254 1062.5  C 254 1060.82  255.32 1059.5  257 1059.5  C 258.68 1059.5  260 1060.82  260 1062.5  C 260 1064.18  258.68 1065.5  257 1065.5  " fill-rule="nonzero" fill="#797979" stroke="none" />
</svg>