<?xml version="1.0" encoding="utf-8"?>
<svg version="1.1" xmlns:xlink="http://www.w3.org/1999/xlink" width="12px" height="12px" viewBox="251 1026.5  12 12" xmlns="http://www.w3.org/2000/svg">
  <path d="M 257 1026.5  C 260.36 1026.5  263 1029.14  263 1032.5  C 263 1035.86  260.36 1038.5  257 1038.5  C 253.64 1038.5  251 1035.86  251 1032.5  C 251 1029.14  253.64 1026.5  257 1026.5  Z " fill-rule="nonzero" fill="#f0f0f0" stroke="none" />
  <path d="M 257 1027  C 260.08 1027  262.5 1029.42  262.5 1032.5  C 262.5 1035.58  260.08 1038  257 1038  C 253.92 1038  251.5 1035.58  251.5 1032.5  C 251.5 1029.42  253.92 1027  257 1027  Z " stroke-width="1" stroke="#797979" fill="none" />
  <path d="M 257 1035.5  C 255.32 1035.5  254 1034.18  254 1032.5  C 254 1030.82  255.32 1029.5  257 1029.5  C 258.68 1029.5  260 1030.82  260 1032.5  C 260 1034.18  258.68 1035.5  257 1035.5  " fill-rule="nonzero" fill="#797979" stroke="none" />
</svg>