<?xml version="1.0" encoding="utf-8"?>
<svg version="1.1" xmlns:xlink="http://www.w3.org/1999/xlink" width="12px" height="12px" viewBox="301 1025.5  12 12" xmlns="http://www.w3.org/2000/svg">
  <path d="M 307 1025.5  C 310.36 1025.5  313 1028.14  313 1031.5  C 313 1034.86  310.36 1037.5  307 1037.5  C 303.64 1037.5  301 1034.86  301 1031.5  C 301 1028.14  303.64 1025.5  307 1025.5  Z " fill-rule="nonzero" fill="#f0f0f0" stroke="none" />
  <path d="M 307 1026  C 310.08 1026  312.5 1028.42  312.5 1031.5  C 312.5 1034.58  310.08 1037  307 1037  C 303.92 1037  301.5 1034.58  301.5 1031.5  C 301.5 1028.42  303.92 1026  307 1026  Z " stroke-width="1" stroke="#333333" fill="none" />
  <path d="M 307 1034.5  C 305.32 1034.5  304 1033.18  304 1031.5  C 304 1029.82  305.32 1028.5  307 1028.5  C 308.68 1028.5  310 1029.82  310 1031.5  C 310 1033.18  308.68 1034.5  307 1034.5  " fill-rule="nonzero" fill="#333333" stroke="none" />
</svg>