<?xml version="1.0" encoding="utf-8"?>
<svg version="1.1" xmlns:xlink="http://www.w3.org/1999/xlink" width="12px" height="12px" viewBox="301 1056.5  12 12" xmlns="http://www.w3.org/2000/svg">
  <path d="M 307 1056.5  C 310.36 1056.5  313 1059.14  313 1062.5  C 313 1065.86  310.36 1068.5  307 1068.5  C 303.64 1068.5  301 1065.86  301 1062.5  C 301 1059.14  303.64 1056.5  307 1056.5  Z " fill-rule="nonzero" fill="#ffffff" stroke="none" />
  <path d="M 307 1057  C 310.08 1057  312.5 1059.42  312.5 1062.5  C 312.5 1065.58  310.08 1068  307 1068  C 303.92 1068  301.5 1065.58  301.5 1062.5  C 301.5 1059.42  303.92 1057  307 1057  Z " stroke-width="1" stroke="#333333" fill="none" />
  <path d="M 307 1065.5  C 305.32 1065.5  304 1064.18  304 1062.5  C 304 1060.82  305.32 1059.5  307 1059.5  C 308.68 1059.5  310 1060.82  310 1062.5  C 310 1064.18  308.68 1065.5  307 1065.5  " fill-rule="nonzero" fill="#333333" stroke="none" />
</svg>