<?xml version="1.0" encoding="utf-8"?>
<svg version="1.1" xmlns:xlink="http://www.w3.org/1999/xlink" width="12px" height="12px" viewBox="251 1160.5  12 12" xmlns="http://www.w3.org/2000/svg">
  <path d="M 257 1160.5  C 260.36 1160.5  263 1163.14  263 1166.5  C 263 1169.86  260.36 1172.5  257 1172.5  C 253.64 1172.5  251 1169.86  251 1166.5  C 251 1163.14  253.64 1160.5  257 1160.5  Z " fill-rule="nonzero" fill="#f0f0f0" stroke="none" />
  <path d="M 257 1161  C 260.08 1161  262.5 1163.42  262.5 1166.5  C 262.5 1169.58  260.08 1172  257 1172  C 253.92 1172  251.5 1169.58  251.5 1166.5  C 251.5 1163.42  253.92 1161  257 1161  Z " stroke-width="1" stroke="#797979" fill="none" />
  <path d="M 257 1169.5  C 255.32 1169.5  254 1168.18  254 1166.5  C 254 1164.82  255.32 1163.5  257 1163.5  C 258.68 1163.5  260 1164.82  260 1166.5  C 260 1168.18  258.68 1169.5  257 1169.5  " fill-rule="nonzero" fill="#797979" stroke="none" />
</svg>