<?xml version="1.0" encoding="utf-8"?>
<svg version="1.1" xmlns:xlink="http://www.w3.org/1999/xlink" width="12px" height="12px" viewBox="301 1129.5  12 12" xmlns="http://www.w3.org/2000/svg">
  <path d="M 307 1129.5  C 310.36 1129.5  313 1132.14  313 1135.5  C 313 1138.86  310.36 1141.5  307 1141.5  C 303.64 1141.5  301 1138.86  301 1135.5  C 301 1132.14  303.64 1129.5  307 1129.5  Z " fill-rule="nonzero" fill="#ffffff" stroke="none" />
  <path d="M 307 1130  C 310.08 1130  312.5 1132.42  312.5 1135.5  C 312.5 1138.58  310.08 1141  307 1141  C 303.92 1141  301.5 1138.58  301.5 1135.5  C 301.5 1132.42  303.92 1130  307 1130  Z " stroke-width="1" stroke="#333333" fill="none" />
  <path d="M 307 1138.5  C 305.32 1138.5  304 1137.18  304 1135.5  C 304 1133.82  305.32 1132.5  307 1132.5  C 308.68 1132.5  310 1133.82  310 1135.5  C 310 1137.18  308.68 1138.5  307 1138.5  " fill-rule="nonzero" fill="#333333" stroke="none" />
</svg>