<?xml version="1.0" encoding="utf-8"?>
<svg version="1.1" xmlns:xlink="http://www.w3.org/1999/xlink" width="12px" height="12px" viewBox="301 1160.5  12 12" xmlns="http://www.w3.org/2000/svg">
  <path d="M 307 1160.5  C 310.36 1160.5  313 1163.14  313 1166.5  C 313 1169.86  310.36 1172.5  307 1172.5  C 303.64 1172.5  301 1169.86  301 1166.5  C 301 1163.14  303.64 1160.5  307 1160.5  Z " fill-rule="nonzero" fill="#f0f0f0" stroke="none" />
  <path d="M 307 1161  C 310.08 1161  312.5 1163.42  312.5 1166.5  C 312.5 1169.58  310.08 1172  307 1172  C 303.92 1172  301.5 1169.58  301.5 1166.5  C 301.5 1163.42  303.92 1161  307 1161  Z " stroke-width="1" stroke="#333333" fill="none" />
  <path d="M 307 1169.5  C 305.32 1169.5  304 1168.18  304 1166.5  C 304 1164.82  305.32 1163.5  307 1163.5  C 308.68 1163.5  310 1164.82  310 1166.5  C 310 1168.18  308.68 1169.5  307 1169.5  " fill-rule="nonzero" fill="#333333" stroke="none" />
</svg>