<?xml version="1.0" encoding="utf-8"?>
<svg version="1.1" xmlns:xlink="http://www.w3.org/1999/xlink" width="12px" height="12px" viewBox="251 1130.5  12 12" xmlns="http://www.w3.org/2000/svg">
  <path d="M 257 1130.5  C 260.36 1130.5  263 1133.14  263 1136.5  C 263 1139.86  260.36 1142.5  257 1142.5  C 253.64 1142.5  251 1139.86  251 1136.5  C 251 1133.14  253.64 1130.5  257 1130.5  Z " fill-rule="nonzero" fill="#f0f0f0" stroke="none" />
  <path d="M 257 1131  C 260.08 1131  262.5 1133.42  262.5 1136.5  C 262.5 1139.58  260.08 1142  257 1142  C 253.92 1142  251.5 1139.58  251.5 1136.5  C 251.5 1133.42  253.92 1131  257 1131  Z " stroke-width="1" stroke="#797979" fill="none" />
  <path d="M 257 1139.5  C 255.32 1139.5  254 1138.18  254 1136.5  C 254 1134.82  255.32 1133.5  257 1133.5  C 258.68 1133.5  260 1134.82  260 1136.5  C 260 1138.18  258.68 1139.5  257 1139.5  " fill-rule="nonzero" fill="#797979" stroke="none" />
</svg>