<?xml version="1.0" encoding="utf-8"?>
<svg version="1.1" xmlns:xlink="http://www.w3.org/1999/xlink" width="12px" height="12px" viewBox="365 382.5  12 12" xmlns="http://www.w3.org/2000/svg">
  <path d="M 371 382.5  C 374.36 382.5  377 385.14  377 388.5  C 377 391.86  374.36 394.5  371 394.5  C 367.64 394.5  365 391.86  365 388.5  C 365 385.14  367.64 382.5  371 382.5  Z " fill-rule="nonzero" fill="#ffffff" stroke="none" />
  <path d="M 371 383  C 374.08 383  376.5 385.42  376.5 388.5  C 376.5 391.58  374.08 394  371 394  C 367.92 394  365.5 391.58  365.5 388.5  C 365.5 385.42  367.92 383  371 383  Z " stroke-width="1" stroke="#797979" fill="none" />
  <path d="M 371 391.5  C 369.32 391.5  368 390.18  368 388.5  C 368 386.82  369.32 385.5  371 385.5  C 372.68 385.5  374 386.82  374 388.5  C 374 390.18  372.68 391.5  371 391.5  " fill-rule="nonzero" fill="#797979" stroke="none" />
</svg>