<?xml version="1.0" encoding="utf-8"?>
<svg version="1.1" xmlns:xlink="http://www.w3.org/1999/xlink" width="12px" height="12px" viewBox="748 382.5  12 12" xmlns="http://www.w3.org/2000/svg">
  <path d="M 754 382.5  C 757.36 382.5  760 385.14  760 388.5  C 760 391.86  757.36 394.5  754 394.5  C 750.64 394.5  748 391.86  748 388.5  C 748 385.14  750.64 382.5  754 382.5  Z " fill-rule="nonzero" fill="#ffffff" stroke="none" />
  <path d="M 754 383  C 757.08 383  759.5 385.42  759.5 388.5  C 759.5 391.58  757.08 394  754 394  C 750.92 394  748.5 391.58  748.5 388.5  C 748.5 385.42  750.92 383  754 383  Z " stroke-width="1" stroke="#797979" fill="none" />
  <path d="M 754 391.5  C 752.32 391.5  751 390.18  751 388.5  C 751 386.82  752.32 385.5  754 385.5  C 755.68 385.5  757 386.82  757 388.5  C 757 390.18  755.68 391.5  754 391.5  " fill-rule="nonzero" fill="#797979" stroke="none" />
</svg>