<?xml version="1.0" encoding="utf-8"?>
<svg version="1.1" xmlns:xlink="http://www.w3.org/1999/xlink" width="12px" height="12px" viewBox="959 425.5  12 12" xmlns="http://www.w3.org/2000/svg">
  <path d="M 965 425.5  C 968.36 425.5  971 428.14  971 431.5  C 971 434.86  968.36 437.5  965 437.5  C 961.64 437.5  959 434.86  959 431.5  C 959 428.14  961.64 425.5  965 425.5  Z " fill-rule="nonzero" fill="#ffffff" stroke="none" />
  <path d="M 965 426  C 968.08 426  970.5 428.42  970.5 431.5  C 970.5 434.58  968.08 437  965 437  C 961.92 437  959.5 434.58  959.5 431.5  C 959.5 428.42  961.92 426  965 426  Z " stroke-width="1" stroke="#797979" fill="none" />
  <path d="M 965 434.5  C 963.32 434.5  962 433.18  962 431.5  C 962 429.82  963.32 428.5  965 428.5  C 966.68 428.5  968 429.82  968 431.5  C 968 433.18  966.68 434.5  965 434.5  " fill-rule="nonzero" fill="#797979" stroke="none" />
</svg>