<?xml version="1.0" encoding="utf-8"?>
<svg version="1.1" xmlns:xlink="http://www.w3.org/1999/xlink" width="23px" height="19px" xmlns="http://www.w3.org/2000/svg">
  <g transform="matrix(1 0 0 1 -97 -354 )">
    <path d="M 22.7154947916667 15.48203125  C 22.9051649305556 15.6700520833333  23 15.8927083333333  23 16.15  L 23 18.05  C 23 18.3072916666667  22.9051649305556 18.5299479166667  22.7154947916667 18.71796875  C 22.5258246527778 18.9059895833333  22.3012152777778 19  22.0416666666667 19  L 0.958333333333333 19  C 0.698784722222222 19  0.474175347222222 18.9059895833333  0.284505208333333 18.71796875  C 0.0948350694444444 18.5299479166667  0 18.3072916666667  0 18.05  L 0 16.15  C 0 15.8927083333333  0.0948350694444444 15.6700520833333  0.284505208333333 15.48203125  C 0.474175347222222 15.2940104166667  0.698784722222222 15.2  0.958333333333333 15  L 22.0416666666667 15  C 22.3012152777778 15.2  22.5258246527778 15.2940104166667  22.7154947916667 15.48203125  Z M 22.7154947916667 7.88203125  C 22.9051649305556 8.07005208333333  23 8.29270833333333  23 8.55  L 23 10.45  C 23 10.7072916666667  22.9051649305556 10.9299479166667  22.7154947916667 11.11796875  C 22.5258246527778 11.3059895833333  22.3012152777778 11.4  22.0416666666667 11.4  L 0.958333333333333 11.4  C 0.698784722222222 11.4  0.474175347222222 11.3059895833333  0.284505208333333 11.11796875  C 0.0948350694444444 10.9299479166667  0 10.7072916666667  0 10.45  L 0 8.55  C 0 8.29270833333333  0.0948350694444444 8.07005208333333  0.284505208333333 7.88203125  C 0.474175347222222 7.69401041666667  0.698784722222222 7.6  0.958333333333333 7.6  L 22.0416666666667 7.6  C 22.3012152777778 7.6  22.5258246527778 7.69401041666667  22.7154947916667 7.88203125  Z M 22.7154947916667 0.282031250000001  C 22.9051649305556 0.470052083333332  23 0.692708333333332  23 0.950000000000001  L 23 2.85  C 23 3.10729166666667  22.9051649305556 3.32994791666667  22.7154947916667 3.51796875  C 22.5258246527778 3.70598958333333  22.3012152777778 3.8  22.0416666666667 4  L 0.958333333333333 4  C 0.698784722222222 3.8  0.474175347222222 3.70598958333333  0.284505208333333 3.51796875  C 0.0948350694444444 3.32994791666667  0 3.10729166666667  0 2.85  L 0 0.950000000000001  C 0 0.692708333333332  0.0948350694444444 0.470052083333332  0.284505208333333 0.282031250000001  C 0.474175347222222 0.0940104166666655  0.698784722222222 0  0.958333333333333 0  L 22.0416666666667 0  C 22.3012152777778 0  22.5258246527778 0.0940104166666655  22.7154947916667 0.282031250000001  Z " fill-rule="nonzero" fill="#d7d7d7" stroke="none" transform="matrix(1 0 0 1 97 354 )" />
  </g>
</svg>