<?xml version="1.0" encoding="utf-8"?>
<svg version="1.1" xmlns:xlink="http://www.w3.org/1999/xlink" width="12px" height="12px" viewBox="763 1443.5  12 12" xmlns="http://www.w3.org/2000/svg">
  <path d="M 769 1443.5  C 772.36 1443.5  775 1446.14  775 1449.5  C 775 1452.86  772.36 1455.5  769 1455.5  C 765.64 1455.5  763 1452.86  763 1449.5  C 763 1446.14  765.64 1443.5  769 1443.5  Z " fill-rule="nonzero" fill="#f0f0f0" stroke="none" />
  <path d="M 769 1444  C 772.08 1444  774.5 1446.42  774.5 1449.5  C 774.5 1452.58  772.08 1455  769 1455  C 765.92 1455  763.5 1452.58  763.5 1449.5  C 763.5 1446.42  765.92 1444  769 1444  Z " stroke-width="1" stroke="#797979" fill="none" />
  <path d="M 769 1452.5  C 767.32 1452.5  766 1451.18  766 1449.5  C 766 1447.82  767.32 1446.5  769 1446.5  C 770.68 1446.5  772 1447.82  772 1449.5  C 772 1451.18  770.68 1452.5  769 1452.5  " fill-rule="nonzero" fill="#797979" stroke="none" />
</svg>