<?xml version="1.0" encoding="utf-8"?>
<svg version="1.1" xmlns:xlink="http://www.w3.org/1999/xlink" width="12px" height="12px" viewBox="853 2279.5  12 12" xmlns="http://www.w3.org/2000/svg">
  <path d="M 859 2279.5  C 862.36 2279.5  865 2282.14  865 2285.5  C 865 2288.86  862.36 2291.5  859 2291.5  C 855.64 2291.5  853 2288.86  853 2285.5  C 853 2282.14  855.64 2279.5  859 2279.5  Z " fill-rule="nonzero" fill="#ffffff" stroke="none" />
  <path d="M 859 2280  C 862.08 2280  864.5 2282.42  864.5 2285.5  C 864.5 2288.58  862.08 2291  859 2291  C 855.92 2291  853.5 2288.58  853.5 2285.5  C 853.5 2282.42  855.92 2280  859 2280  Z " stroke-width="1" stroke="#797979" fill="none" />
  <path d="M 859 2288.5  C 857.32 2288.5  856 2287.18  856 2285.5  C 856 2283.82  857.32 2282.5  859 2282.5  C 860.68 2282.5  862 2283.82  862 2285.5  C 862 2287.18  860.68 2288.5  859 2288.5  " fill-rule="nonzero" fill="#797979" stroke="none" />
</svg>