<?xml version="1.0" encoding="utf-8"?>
<svg version="1.1" xmlns:xlink="http://www.w3.org/1999/xlink" width="12px" height="12px" viewBox="529 557.5  12 12" xmlns="http://www.w3.org/2000/svg">
  <path d="M 535 557.5  C 538.36 557.5  541 560.14  541 563.5  C 541 566.86  538.36 569.5  535 569.5  C 531.64 569.5  529 566.86  529 563.5  C 529 560.14  531.64 557.5  535 557.5  Z " fill-rule="nonzero" fill="#f0f0f0" stroke="none" />
  <path d="M 535 558  C 538.08 558  540.5 560.42  540.5 563.5  C 540.5 566.58  538.08 569  535 569  C 531.92 569  529.5 566.58  529.5 563.5  C 529.5 560.42  531.92 558  535 558  Z " stroke-width="1" stroke="#333333" fill="none" />
  <path d="M 535 566.5  C 533.32 566.5  532 565.18  532 563.5  C 532 561.82  533.32 560.5  535 560.5  C 536.68 560.5  538 561.82  538 563.5  C 538 565.18  536.68 566.5  535 566.5  " fill-rule="nonzero" fill="#333333" stroke="none" />
</svg>