<?xml version="1.0" encoding="utf-8"?>
<svg version="1.1" xmlns:xlink="http://www.w3.org/1999/xlink" width="12px" height="12px" viewBox="439 583.5  12 12" xmlns="http://www.w3.org/2000/svg">
  <path d="M 445 583.5  C 448.36 583.5  451 586.14  451 589.5  C 451 592.86  448.36 595.5  445 595.5  C 441.64 595.5  439 592.86  439 589.5  C 439 586.14  441.64 583.5  445 583.5  Z " fill-rule="nonzero" fill="#ffffff" stroke="none" />
  <path d="M 445 584  C 448.08 584  450.5 586.42  450.5 589.5  C 450.5 592.58  448.08 595  445 595  C 441.92 595  439.5 592.58  439.5 589.5  C 439.5 586.42  441.92 584  445 584  Z " stroke-width="1" stroke="#797979" fill="none" />
  <path d="M 445 592.5  C 443.32 592.5  442 591.18  442 589.5  C 442 587.82  443.32 586.5  445 586.5  C 446.68 586.5  448 587.82  448 589.5  C 448 591.18  446.68 592.5  445 592.5  " fill-rule="nonzero" fill="#797979" stroke="none" />
</svg>