<?xml version="1.0" encoding="utf-8"?>
<svg version="1.1" xmlns:xlink="http://www.w3.org/1999/xlink" width="12px" height="12px" viewBox="605 583.5  12 12" xmlns="http://www.w3.org/2000/svg">
  <path d="M 611 583.5  C 614.36 583.5  617 586.14  617 589.5  C 617 592.86  614.36 595.5  611 595.5  C 607.64 595.5  605 592.86  605 589.5  C 605 586.14  607.64 583.5  611 583.5  Z " fill-rule="nonzero" fill="#ffffff" stroke="none" />
  <path d="M 611 584  C 614.08 584  616.5 586.42  616.5 589.5  C 616.5 592.58  614.08 595  611 595  C 607.92 595  605.5 592.58  605.5 589.5  C 605.5 586.42  607.92 584  611 584  Z " stroke-width="1" stroke="#797979" fill="none" />
  <path d="M 611 592.5  C 609.32 592.5  608 591.18  608 589.5  C 608 587.82  609.32 586.5  611 586.5  C 612.68 586.5  614 587.82  614 589.5  C 614 591.18  612.68 592.5  611 592.5  " fill-rule="nonzero" fill="#797979" stroke="none" />
</svg>