<?xml version="1.0" encoding="utf-8"?>
<svg version="1.1" xmlns:xlink="http://www.w3.org/1999/xlink" width="12px" height="12px" viewBox="705 684.5  12 12" xmlns="http://www.w3.org/2000/svg">
  <path d="M 711 684.5  C 714.36 684.5  717 687.14  717 690.5  C 717 693.86  714.36 696.5  711 696.5  C 707.64 696.5  705 693.86  705 690.5  C 705 687.14  707.64 684.5  711 684.5  Z " fill-rule="nonzero" fill="#f0f0f0" stroke="none" />
  <path d="M 711 685  C 714.08 685  716.5 687.42  716.5 690.5  C 716.5 693.58  714.08 696  711 696  C 707.92 696  705.5 693.58  705.5 690.5  C 705.5 687.42  707.92 685  711 685  Z " stroke-width="1" stroke="#333333" fill="none" />
  <path d="M 711 693.5  C 709.32 693.5  708 692.18  708 690.5  C 708 688.82  709.32 687.5  711 687.5  C 712.68 687.5  714 688.82  714 690.5  C 714 692.18  712.68 693.5  711 693.5  " fill-rule="nonzero" fill="#333333" stroke="none" />
</svg>