<?xml version="1.0" encoding="utf-8"?>
<svg version="1.1" xmlns:xlink="http://www.w3.org/1999/xlink" width="12px" height="12px" viewBox="797 749.5  12 12" xmlns="http://www.w3.org/2000/svg">
  <path d="M 803 749.5  C 806.36 749.5  809 752.14  809 755.5  C 809 758.86  806.36 761.5  803 761.5  C 799.64 761.5  797 758.86  797 755.5  C 797 752.14  799.64 749.5  803 749.5  Z " fill-rule="nonzero" fill="#f0f0f0" stroke="none" />
  <path d="M 803 750  C 806.08 750  808.5 752.42  808.5 755.5  C 808.5 758.58  806.08 761  803 761  C 799.92 761  797.5 758.58  797.5 755.5  C 797.5 752.42  799.92 750  803 750  Z " stroke-width="1" stroke="#333333" fill="none" />
  <path d="M 803 758.5  C 801.32 758.5  800 757.18  800 755.5  C 800 753.82  801.32 752.5  803 752.5  C 804.68 752.5  806 753.82  806 755.5  C 806 757.18  804.68 758.5  803 758.5  " fill-rule="nonzero" fill="#333333" stroke="none" />
</svg>