<?xml version="1.0" encoding="utf-8"?>
<svg version="1.1" xmlns:xlink="http://www.w3.org/1999/xlink" width="12px" height="12px" viewBox="413 1040.5  12 12" xmlns="http://www.w3.org/2000/svg">
  <path d="M 419 1040.5  C 422.36 1040.5  425 1043.14  425 1046.5  C 425 1049.86  422.36 1052.5  419 1052.5  C 415.64 1052.5  413 1049.86  413 1046.5  C 413 1043.14  415.64 1040.5  419 1040.5  Z " fill-rule="nonzero" fill="#ffffff" stroke="none" />
  <path d="M 419 1041  C 422.08 1041  424.5 1043.42  424.5 1046.5  C 424.5 1049.58  422.08 1052  419 1052  C 415.92 1052  413.5 1049.58  413.5 1046.5  C 413.5 1043.42  415.92 1041  419 1041  Z " stroke-width="1" stroke="#333333" fill="none" />
  <path d="M 419 1049.5  C 417.32 1049.5  416 1048.18  416 1046.5  C 416 1044.82  417.32 1043.5  419 1043.5  C 420.68 1043.5  422 1044.82  422 1046.5  C 422 1048.18  420.68 1049.5  419 1049.5  " fill-rule="nonzero" fill="#333333" stroke="none" />
</svg>