<?xml version="1.0" encoding="utf-8"?>
<svg version="1.1" xmlns:xlink="http://www.w3.org/1999/xlink" width="12px" height="12px" viewBox="413 1173.5  12 12" xmlns="http://www.w3.org/2000/svg">
  <path d="M 419 1173.5  C 422.36 1173.5  425 1176.14  425 1179.5  C 425 1182.86  422.36 1185.5  419 1185.5  C 415.64 1185.5  413 1182.86  413 1179.5  C 413 1176.14  415.64 1173.5  419 1173.5  Z " fill-rule="nonzero" fill="#ffffff" stroke="none" />
  <path d="M 419 1174  C 422.08 1174  424.5 1176.42  424.5 1179.5  C 424.5 1182.58  422.08 1185  419 1185  C 415.92 1185  413.5 1182.58  413.5 1179.5  C 413.5 1176.42  415.92 1174  419 1174  Z " stroke-width="1" stroke="#333333" fill="none" />
  <path d="M 419 1182.5  C 417.32 1182.5  416 1181.18  416 1179.5  C 416 1177.82  417.32 1176.5  419 1176.5  C 420.68 1176.5  422 1177.82  422 1179.5  C 422 1181.18  420.68 1182.5  419 1182.5  " fill-rule="nonzero" fill="#333333" stroke="none" />
</svg>