<?xml version="1.0" encoding="utf-8"?>
<svg version="1.1" xmlns:xlink="http://www.w3.org/1999/xlink" width="12px" height="12px" viewBox="272 560.5  12 12" xmlns="http://www.w3.org/2000/svg">
  <path d="M 278 560.5  C 281.36 560.5  284 563.14  284 566.5  C 284 569.86  281.36 572.5  278 572.5  C 274.64 572.5  272 569.86  272 566.5  C 272 563.14  274.64 560.5  278 560.5  Z " fill-rule="nonzero" fill="#ffffff" stroke="none" />
  <path d="M 278 561  C 281.08 561  283.5 563.42  283.5 566.5  C 283.5 569.58  281.08 572  278 572  C 274.92 572  272.5 569.58  272.5 566.5  C 272.5 563.42  274.92 561  278 561  Z " stroke-width="1" stroke="#797979" fill="none" />
  <path d="M 278 569.5  C 276.32 569.5  275 568.18  275 566.5  C 275 564.82  276.32 563.5  278 563.5  C 279.68 563.5  281 564.82  281 566.5  C 281 568.18  279.68 569.5  278 569.5  " fill-rule="nonzero" fill="#797979" stroke="none" />
</svg>