<?xml version="1.0" encoding="utf-8"?>
<svg version="1.1" xmlns:xlink="http://www.w3.org/1999/xlink" width="12px" height="12px" viewBox="348 560.5  12 12" xmlns="http://www.w3.org/2000/svg">
  <path d="M 354 560.5  C 357.36 560.5  360 563.14  360 566.5  C 360 569.86  357.36 572.5  354 572.5  C 350.64 572.5  348 569.86  348 566.5  C 348 563.14  350.64 560.5  354 560.5  Z " fill-rule="nonzero" fill="#ffffff" stroke="none" />
  <path d="M 354 561  C 357.08 561  359.5 563.42  359.5 566.5  C 359.5 569.58  357.08 572  354 572  C 350.92 572  348.5 569.58  348.5 566.5  C 348.5 563.42  350.92 561  354 561  Z " stroke-width="1" stroke="#797979" fill="none" />
  <path d="M 354 569.5  C 352.32 569.5  351 568.18  351 566.5  C 351 564.82  352.32 563.5  354 563.5  C 355.68 563.5  357 564.82  357 566.5  C 357 568.18  355.68 569.5  354 569.5  " fill-rule="nonzero" fill="#797979" stroke="none" />
</svg>