<?xml version="1.0" encoding="utf-8"?>
<svg version="1.1" xmlns:xlink="http://www.w3.org/1999/xlink" width="12px" height="12px" viewBox="424 628.5  12 12" xmlns="http://www.w3.org/2000/svg">
  <path d="M 430 628.5  C 433.36 628.5  436 631.14  436 634.5  C 436 637.86  433.36 640.5  430 640.5  C 426.64 640.5  424 637.86  424 634.5  C 424 631.14  426.64 628.5  430 628.5  Z " fill-rule="nonzero" fill="#ffffff" stroke="none" />
  <path d="M 430 629  C 433.08 629  435.5 631.42  435.5 634.5  C 435.5 637.58  433.08 640  430 640  C 426.92 640  424.5 637.58  424.5 634.5  C 424.5 631.42  426.92 629  430 629  Z " stroke-width="1" stroke="#797979" fill="none" />
  <path d="M 430 637.5  C 428.32 637.5  427 636.18  427 634.5  C 427 632.82  428.32 631.5  430 631.5  C 431.68 631.5  433 632.82  433 634.5  C 433 636.18  431.68 637.5  430 637.5  " fill-rule="nonzero" fill="#797979" stroke="none" />
</svg>