<?xml version="1.0" encoding="utf-8"?>
<svg version="1.1" xmlns:xlink="http://www.w3.org/1999/xlink" width="12px" height="12px" viewBox="272 595.5  12 12" xmlns="http://www.w3.org/2000/svg">
  <path d="M 278 595.5  C 281.36 595.5  284 598.14  284 601.5  C 284 604.86  281.36 607.5  278 607.5  C 274.64 607.5  272 604.86  272 601.5  C 272 598.14  274.64 595.5  278 595.5  Z " fill-rule="nonzero" fill="#ffffff" stroke="none" />
  <path d="M 278 596  C 281.08 596  283.5 598.42  283.5 601.5  C 283.5 604.58  281.08 607  278 607  C 274.92 607  272.5 604.58  272.5 601.5  C 272.5 598.42  274.92 596  278 596  Z " stroke-width="1" stroke="#797979" fill="none" />
  <path d="M 278 604.5  C 276.32 604.5  275 603.18  275 601.5  C 275 599.82  276.32 598.5  278 598.5  C 279.68 598.5  281 599.82  281 601.5  C 281 603.18  279.68 604.5  278 604.5  " fill-rule="nonzero" fill="#797979" stroke="none" />
</svg>