<?xml version="1.0" encoding="utf-8"?>
<svg version="1.1" xmlns:xlink="http://www.w3.org/1999/xlink" width="12px" height="12px" viewBox="348 595.5  12 12" xmlns="http://www.w3.org/2000/svg">
  <path d="M 354 595.5  C 357.36 595.5  360 598.14  360 601.5  C 360 604.86  357.36 607.5  354 607.5  C 350.64 607.5  348 604.86  348 601.5  C 348 598.14  350.64 595.5  354 595.5  Z " fill-rule="nonzero" fill="#f0f0f0" stroke="none" />
  <path d="M 354 596  C 357.08 596  359.5 598.42  359.5 601.5  C 359.5 604.58  357.08 607  354 607  C 350.92 607  348.5 604.58  348.5 601.5  C 348.5 598.42  350.92 596  354 596  Z " stroke-width="1" stroke="#797979" fill="none" />
  <path d="M 354 604.5  C 352.32 604.5  351 603.18  351 601.5  C 351 599.82  352.32 598.5  354 598.5  C 355.68 598.5  357 599.82  357 601.5  C 357 603.18  355.68 604.5  354 604.5  " fill-rule="nonzero" fill="#797979" stroke="none" />
</svg>