<?xml version="1.0" encoding="utf-8"?>
<svg version="1.1" xmlns:xlink="http://www.w3.org/1999/xlink" width="12px" height="12px" viewBox="272 628.5  12 12" xmlns="http://www.w3.org/2000/svg">
  <path d="M 278 628.5  C 281.36 628.5  284 631.14  284 634.5  C 284 637.86  281.36 640.5  278 640.5  C 274.64 640.5  272 637.86  272 634.5  C 272 631.14  274.64 628.5  278 628.5  Z " fill-rule="nonzero" fill="#f0f0f0" stroke="none" />
  <path d="M 278 629  C 281.08 629  283.5 631.42  283.5 634.5  C 283.5 637.58  281.08 640  278 640  C 274.92 640  272.5 637.58  272.5 634.5  C 272.5 631.42  274.92 629  278 629  Z " stroke-width="1" stroke="#797979" fill="none" />
  <path d="M 278 637.5  C 276.32 637.5  275 636.18  275 634.5  C 275 632.82  276.32 631.5  278 631.5  C 279.68 631.5  281 632.82  281 634.5  C 281 636.18  279.68 637.5  278 637.5  " fill-rule="nonzero" fill="#797979" stroke="none" />
</svg>