<?xml version="1.0" encoding="utf-8"?>
<svg version="1.1" xmlns:xlink="http://www.w3.org/1999/xlink" width="12px" height="12px" viewBox="424 595.5  12 12" xmlns="http://www.w3.org/2000/svg">
  <path d="M 430 595.5  C 433.36 595.5  436 598.14  436 601.5  C 436 604.86  433.36 607.5  430 607.5  C 426.64 607.5  424 604.86  424 601.5  C 424 598.14  426.64 595.5  430 595.5  Z " fill-rule="nonzero" fill="#ffffff" stroke="none" />
  <path d="M 430 596  C 433.08 596  435.5 598.42  435.5 601.5  C 435.5 604.58  433.08 607  430 607  C 426.92 607  424.5 604.58  424.5 601.5  C 424.5 598.42  426.92 596  430 596  Z " stroke-width="1" stroke="#797979" fill="none" />
  <path d="M 430 604.5  C 428.32 604.5  427 603.18  427 601.5  C 427 599.82  428.32 598.5  430 598.5  C 431.68 598.5  433 599.82  433 601.5  C 433 603.18  431.68 604.5  430 604.5  " fill-rule="nonzero" fill="#797979" stroke="none" />
</svg>