<?xml version="1.0" encoding="utf-8"?>
<svg version="1.1" xmlns:xlink="http://www.w3.org/1999/xlink" width="12px" height="12px" viewBox="652 402.5  12 12" xmlns="http://www.w3.org/2000/svg">
  <path d="M 658 402.5  C 661.36 402.5  664 405.14  664 408.5  C 664 411.86  661.36 414.5  658 414.5  C 654.64 414.5  652 411.86  652 408.5  C 652 405.14  654.64 402.5  658 402.5  Z " fill-rule="nonzero" fill="#ffffff" stroke="none" />
  <path d="M 658 403  C 661.08 403  663.5 405.42  663.5 408.5  C 663.5 411.58  661.08 414  658 414  C 654.92 414  652.5 411.58  652.5 408.5  C 652.5 405.42  654.92 403  658 403  Z " stroke-width="1" stroke="#797979" fill="none" />
  <path d="M 658 411.5  C 656.32 411.5  655 410.18  655 408.5  C 655 406.82  656.32 405.5  658 405.5  C 659.68 405.5  661 406.82  661 408.5  C 661 410.18  659.68 411.5  658 411.5  " fill-rule="nonzero" fill="#797979" stroke="none" />
</svg>