<?xml version="1.0" encoding="utf-8"?>
<svg version="1.1" xmlns:xlink="http://www.w3.org/1999/xlink" width="12px" height="12px" viewBox="729 402.5  12 12" xmlns="http://www.w3.org/2000/svg">
  <path d="M 735 402.5  C 738.36 402.5  741 405.14  741 408.5  C 741 411.86  738.36 414.5  735 414.5  C 731.64 414.5  729 411.86  729 408.5  C 729 405.14  731.64 402.5  735 402.5  Z " fill-rule="nonzero" fill="#ffffff" stroke="none" />
  <path d="M 735 403  C 738.08 403  740.5 405.42  740.5 408.5  C 740.5 411.58  738.08 414  735 414  C 731.92 414  729.5 411.58  729.5 408.5  C 729.5 405.42  731.92 403  735 403  Z " stroke-width="1" stroke="#797979" fill="none" />
  <path d="M 735 411.5  C 733.32 411.5  732 410.18  732 408.5  C 732 406.82  733.32 405.5  735 405.5  C 736.68 405.5  738 406.82  738 408.5  C 738 410.18  736.68 411.5  735 411.5  " fill-rule="nonzero" fill="#797979" stroke="none" />
</svg>