<?xml version="1.0" encoding="utf-8"?>
<svg version="1.1" xmlns:xlink="http://www.w3.org/1999/xlink" width="12px" height="12px" viewBox="576 402.5  12 12" xmlns="http://www.w3.org/2000/svg">
  <path d="M 582 402.5  C 585.36 402.5  588 405.14  588 408.5  C 588 411.86  585.36 414.5  582 414.5  C 578.64 414.5  576 411.86  576 408.5  C 576 405.14  578.64 402.5  582 402.5  Z " fill-rule="nonzero" fill="#f0f0f0" stroke="none" />
  <path d="M 582 403  C 585.08 403  587.5 405.42  587.5 408.5  C 587.5 411.58  585.08 414  582 414  C 578.92 414  576.5 411.58  576.5 408.5  C 576.5 405.42  578.92 403  582 403  Z " stroke-width="1" stroke="#797979" fill="none" />
  <path d="M 582 411.5  C 580.32 411.5  579 410.18  579 408.5  C 579 406.82  580.32 405.5  582 405.5  C 583.68 405.5  585 406.82  585 408.5  C 585 410.18  583.68 411.5  582 411.5  " fill-rule="nonzero" fill="#797979" stroke="none" />
</svg>