<?xml version="1.0" encoding="utf-8"?>
<svg version="1.1" xmlns:xlink="http://www.w3.org/1999/xlink" width="12px" height="12px" viewBox="499 402.5  12 12" xmlns="http://www.w3.org/2000/svg">
  <path d="M 505 402.5  C 508.36 402.5  511 405.14  511 408.5  C 511 411.86  508.36 414.5  505 414.5  C 501.64 414.5  499 411.86  499 408.5  C 499 405.14  501.64 402.5  505 402.5  Z " fill-rule="nonzero" fill="#ffffff" stroke="none" />
  <path d="M 505 403  C 508.08 403  510.5 405.42  510.5 408.5  C 510.5 411.58  508.08 414  505 414  C 501.92 414  499.5 411.58  499.5 408.5  C 499.5 405.42  501.92 403  505 403  Z " stroke-width="1" stroke="#797979" fill="none" />
  <path d="M 505 411.5  C 503.32 411.5  502 410.18  502 408.5  C 502 406.82  503.32 405.5  505 405.5  C 506.68 405.5  508 406.82  508 408.5  C 508 410.18  506.68 411.5  505 411.5  " fill-rule="nonzero" fill="#797979" stroke="none" />
</svg>