<?xml version="1.0" encoding="utf-8"?>
<svg version="1.1" xmlns:xlink="http://www.w3.org/1999/xlink" width="12px" height="12px" viewBox="320 587.5  12 12" xmlns="http://www.w3.org/2000/svg">
  <path d="M 326 587.5  C 329.36 587.5  332 590.14  332 593.5  C 332 596.86  329.36 599.5  326 599.5  C 322.64 599.5  320 596.86  320 593.5  C 320 590.14  322.64 587.5  326 587.5  Z " fill-rule="nonzero" fill="#f0f0f0" stroke="none" />
  <path d="M 326 588  C 329.08 588  331.5 590.42  331.5 593.5  C 331.5 596.58  329.08 599  326 599  C 322.92 599  320.5 596.58  320.5 593.5  C 320.5 590.42  322.92 588  326 588  Z " stroke-width="1" stroke="#00bfbf" fill="none" />
  <path d="M 326 596.5  C 324.32 596.5  323 595.18  323 593.5  C 323 591.82  324.32 590.5  326 590.5  C 327.68 590.5  329 591.82  329 593.5  C 329 595.18  327.68 596.5  326 596.5  " fill-rule="nonzero" fill="#00bfbf" stroke="none" />
</svg>