<?xml version="1.0" encoding="utf-8"?>
<svg version="1.1" xmlns:xlink="http://www.w3.org/1999/xlink" width="12px" height="12px" viewBox="268 617.5  12 12" xmlns="http://www.w3.org/2000/svg">
  <path d="M 274 617.5  C 277.36 617.5  280 620.14  280 623.5  C 280 626.86  277.36 629.5  274 629.5  C 270.64 629.5  268 626.86  268 623.5  C 268 620.14  270.64 617.5  274 617.5  Z " fill-rule="nonzero" fill="#f0f0f0" stroke="none" />
  <path d="M 274 618  C 277.08 618  279.5 620.42  279.5 623.5  C 279.5 626.58  277.08 629  274 629  C 270.92 629  268.5 626.58  268.5 623.5  C 268.5 620.42  270.92 618  274 618  Z " stroke-width="1" stroke="#797979" fill="none" />
  <path d="M 274 626.5  C 272.32 626.5  271 625.18  271 623.5  C 271 621.82  272.32 620.5  274 620.5  C 275.68 620.5  277 621.82  277 623.5  C 277 625.18  275.68 626.5  274 626.5  " fill-rule="nonzero" fill="#797979" stroke="none" />
</svg>