<?xml version="1.0" encoding="utf-8"?>
<svg version="1.1" xmlns:xlink="http://www.w3.org/1999/xlink" width="12px" height="12px" viewBox="372 587.5  12 12" xmlns="http://www.w3.org/2000/svg">
  <path d="M 378 587.5  C 381.36 587.5  384 590.14  384 593.5  C 384 596.86  381.36 599.5  378 599.5  C 374.64 599.5  372 596.86  372 593.5  C 372 590.14  374.64 587.5  378 587.5  Z " fill-rule="nonzero" fill="#f0f0f0" stroke="none" />
  <path d="M 378 588  C 381.08 588  383.5 590.42  383.5 593.5  C 383.5 596.58  381.08 599  378 599  C 374.92 599  372.5 596.58  372.5 593.5  C 372.5 590.42  374.92 588  378 588  Z " stroke-width="1" stroke="#797979" fill="none" />
  <path d="M 378 596.5  C 376.32 596.5  375 595.18  375 593.5  C 375 591.82  376.32 590.5  378 590.5  C 379.68 590.5  381 591.82  381 593.5  C 381 595.18  379.68 596.5  378 596.5  " fill-rule="nonzero" fill="#797979" stroke="none" />
</svg>