<?xml version="1.0" encoding="utf-8"?>
<svg version="1.1" xmlns:xlink="http://www.w3.org/1999/xlink" width="12px" height="12px" viewBox="320 617.5  12 12" xmlns="http://www.w3.org/2000/svg">
  <path d="M 326 617.5  C 329.36 617.5  332 620.14  332 623.5  C 332 626.86  329.36 629.5  326 629.5  C 322.64 629.5  320 626.86  320 623.5  C 320 620.14  322.64 617.5  326 617.5  Z " fill-rule="nonzero" fill="#f0f0f0" stroke="none" />
  <path d="M 326 618  C 329.08 618  331.5 620.42  331.5 623.5  C 331.5 626.58  329.08 629  326 629  C 322.92 629  320.5 626.58  320.5 623.5  C 320.5 620.42  322.92 618  326 618  Z " stroke-width="1" stroke="#797979" fill="none" />
  <path d="M 326 626.5  C 324.32 626.5  323 625.18  323 623.5  C 323 621.82  324.32 620.5  326 620.5  C 327.68 620.5  329 621.82  329 623.5  C 329 625.18  327.68 626.5  326 626.5  " fill-rule="nonzero" fill="#797979" stroke="none" />
</svg>