<?xml version="1.0" encoding="utf-8"?>
<svg version="1.1" xmlns:xlink="http://www.w3.org/1999/xlink" width="12px" height="12px" viewBox="422 645.5  12 12" xmlns="http://www.w3.org/2000/svg">
  <path d="M 428 645.5  C 431.36 645.5  434 648.14  434 651.5  C 434 654.86  431.36 657.5  428 657.5  C 424.64 657.5  422 654.86  422 651.5  C 422 648.14  424.64 645.5  428 645.5  Z " fill-rule="nonzero" fill="#ffffff" stroke="none" />
  <path d="M 428 646  C 431.08 646  433.5 648.42  433.5 651.5  C 433.5 654.58  431.08 657  428 657  C 424.92 657  422.5 654.58  422.5 651.5  C 422.5 648.42  424.92 646  428 646  Z " stroke-width="1" stroke="#797979" fill="none" />
  <path d="M 428 654.5  C 426.32 654.5  425 653.18  425 651.5  C 425 649.82  426.32 648.5  428 648.5  C 429.68 648.5  431 649.82  431 651.5  C 431 653.18  429.68 654.5  428 654.5  " fill-rule="nonzero" fill="#797979" stroke="none" />
</svg>