<?xml version="1.0" encoding="utf-8"?>
<svg version="1.1" xmlns:xlink="http://www.w3.org/1999/xlink" width="12px" height="12px" viewBox="268 646.5  12 12" xmlns="http://www.w3.org/2000/svg">
  <path d="M 274 646.5  C 277.36 646.5  280 649.14  280 652.5  C 280 655.86  277.36 658.5  274 658.5  C 270.64 658.5  268 655.86  268 652.5  C 268 649.14  270.64 646.5  274 646.5  Z " fill-rule="nonzero" fill="#ffffff" stroke="none" />
  <path d="M 274 647  C 277.08 647  279.5 649.42  279.5 652.5  C 279.5 655.58  277.08 658  274 658  C 270.92 658  268.5 655.58  268.5 652.5  C 268.5 649.42  270.92 647  274 647  Z " stroke-width="1" stroke="#00bfbf" fill="none" />
  <path d="M 274 655.5  C 272.32 655.5  271 654.18  271 652.5  C 271 650.82  272.32 649.5  274 649.5  C 275.68 649.5  277 650.82  277 652.5  C 277 654.18  275.68 655.5  274 655.5  " fill-rule="nonzero" fill="#00bfbf" stroke="none" />
</svg>