<?xml version="1.0" encoding="utf-8"?>
<svg version="1.1" xmlns:xlink="http://www.w3.org/1999/xlink" width="12px" height="12px" viewBox="320 646.5  12 12" xmlns="http://www.w3.org/2000/svg">
  <path d="M 326 646.5  C 329.36 646.5  332 649.14  332 652.5  C 332 655.86  329.36 658.5  326 658.5  C 322.64 658.5  320 655.86  320 652.5  C 320 649.14  322.64 646.5  326 646.5  Z " fill-rule="nonzero" fill="#ffffff" stroke="none" />
  <path d="M 326 647  C 329.08 647  331.5 649.42  331.5 652.5  C 331.5 655.58  329.08 658  326 658  C 322.92 658  320.5 655.58  320.5 652.5  C 320.5 649.42  322.92 647  326 647  Z " stroke-width="1" stroke="#797979" fill="none" />
  <path d="M 326 655.5  C 324.32 655.5  323 654.18  323 652.5  C 323 650.82  324.32 649.5  326 649.5  C 327.68 649.5  329 650.82  329 652.5  C 329 654.18  327.68 655.5  326 655.5  " fill-rule="nonzero" fill="#797979" stroke="none" />
</svg>