<?xml version="1.0" encoding="utf-8"?>
<svg version="1.1" xmlns:xlink="http://www.w3.org/1999/xlink" width="12px" height="12px" viewBox="372 646.5  12 12" xmlns="http://www.w3.org/2000/svg">
  <path d="M 378 646.5  C 381.36 646.5  384 649.14  384 652.5  C 384 655.86  381.36 658.5  378 658.5  C 374.64 658.5  372 655.86  372 652.5  C 372 649.14  374.64 646.5  378 646.5  Z " fill-rule="nonzero" fill="#f0f0f0" stroke="none" />
  <path d="M 378 647  C 381.08 647  383.5 649.42  383.5 652.5  C 383.5 655.58  381.08 658  378 658  C 374.92 658  372.5 655.58  372.5 652.5  C 372.5 649.42  374.92 647  378 647  Z " stroke-width="1" stroke="#797979" fill="none" />
  <path d="M 378 655.5  C 376.32 655.5  375 654.18  375 652.5  C 375 650.82  376.32 649.5  378 649.5  C 379.68 649.5  381 650.82  381 652.5  C 381 654.18  379.68 655.5  378 655.5  " fill-rule="nonzero" fill="#797979" stroke="none" />
</svg>