<?xml version="1.0" encoding="utf-8"?>
<svg version="1.1" xmlns:xlink="http://www.w3.org/1999/xlink" width="12px" height="12px" viewBox="281 468.5  12 12" xmlns="http://www.w3.org/2000/svg">
  <path d="M 287 468.5  C 290.36 468.5  293 471.14  293 474.5  C 293 477.86  290.36 480.5  287 480.5  C 283.64 480.5  281 477.86  281 474.5  C 281 471.14  283.64 468.5  287 468.5  Z " fill-rule="nonzero" fill="#f0f0f0" stroke="none" />
  <path d="M 287 469  C 290.08 469  292.5 471.42  292.5 474.5  C 292.5 477.58  290.08 480  287 480  C 283.92 480  281.5 477.58  281.5 474.5  C 281.5 471.42  283.92 469  287 469  Z " stroke-width="1" stroke="#797979" fill="none" />
  <path d="M 287 477.5  C 285.32 477.5  284 476.18  284 474.5  C 284 472.82  285.32 471.5  287 471.5  C 288.68 471.5  290 472.82  290 474.5  C 290 476.18  288.68 477.5  287 477.5  " fill-rule="nonzero" fill="#797979" stroke="none" />
</svg>