<?xml version="1.0" encoding="utf-8"?>
<svg version="1.1" xmlns:xlink="http://www.w3.org/1999/xlink" width="12px" height="12px" viewBox="434 468.5  12 12" xmlns="http://www.w3.org/2000/svg">
  <path d="M 440 468.5  C 443.36 468.5  446 471.14  446 474.5  C 446 477.86  443.36 480.5  440 480.5  C 436.64 480.5  434 477.86  434 474.5  C 434 471.14  436.64 468.5  440 468.5  Z " fill-rule="nonzero" fill="#ffffff" stroke="none" />
  <path d="M 440 469  C 443.08 469  445.5 471.42  445.5 474.5  C 445.5 477.58  443.08 480  440 480  C 436.92 480  434.5 477.58  434.5 474.5  C 434.5 471.42  436.92 469  440 469  Z " stroke-width="1" stroke="#797979" fill="none" />
  <path d="M 440 477.5  C 438.32 477.5  437 476.18  437 474.5  C 437 472.82  438.32 471.5  440 471.5  C 441.68 471.5  443 472.82  443 474.5  C 443 476.18  441.68 477.5  440 477.5  " fill-rule="nonzero" fill="#797979" stroke="none" />
</svg>