<?xml version="1.0" encoding="utf-8"?>
<svg version="1.1" xmlns:xlink="http://www.w3.org/1999/xlink" width="12px" height="12px" viewBox="492 468.5  12 12" xmlns="http://www.w3.org/2000/svg">
  <path d="M 498 468.5  C 501.36 468.5  504 471.14  504 474.5  C 504 477.86  501.36 480.5  498 480.5  C 494.64 480.5  492 477.86  492 474.5  C 492 471.14  494.64 468.5  498 468.5  Z " fill-rule="nonzero" fill="#ffffff" stroke="none" />
  <path d="M 498 469  C 501.08 469  503.5 471.42  503.5 474.5  C 503.5 477.58  501.08 480  498 480  C 494.92 480  492.5 477.58  492.5 474.5  C 492.5 471.42  494.92 469  498 469  Z " stroke-width="1" stroke="#797979" fill="none" />
  <path d="M 498 477.5  C 496.32 477.5  495 476.18  495 474.5  C 495 472.82  496.32 471.5  498 471.5  C 499.68 471.5  501 472.82  501 474.5  C 501 476.18  499.68 477.5  498 477.5  " fill-rule="nonzero" fill="#797979" stroke="none" />
</svg>