<?xml version="1.0" encoding="utf-8"?>
<svg version="1.1" xmlns:xlink="http://www.w3.org/1999/xlink" width="12px" height="12px" viewBox="281 493.5  12 12" xmlns="http://www.w3.org/2000/svg">
  <path d="M 287 493.5  C 290.36 493.5  293 496.14  293 499.5  C 293 502.86  290.36 505.5  287 505.5  C 283.64 505.5  281 502.86  281 499.5  C 281 496.14  283.64 493.5  287 493.5  Z " fill-rule="nonzero" fill="#f0f0f0" stroke="none" />
  <path d="M 287 494  C 290.08 494  292.5 496.42  292.5 499.5  C 292.5 502.58  290.08 505  287 505  C 283.92 505  281.5 502.58  281.5 499.5  C 281.5 496.42  283.92 494  287 494  Z " stroke-width="1" stroke="#797979" fill="none" />
  <path d="M 287 502.5  C 285.32 502.5  284 501.18  284 499.5  C 284 497.82  285.32 496.5  287 496.5  C 288.68 496.5  290 497.82  290 499.5  C 290 501.18  288.68 502.5  287 502.5  " fill-rule="nonzero" fill="#797979" stroke="none" />
</svg>