<?xml version="1.0" encoding="utf-8"?>
<svg version="1.1" xmlns:xlink="http://www.w3.org/1999/xlink" width="12px" height="12px" viewBox="339 713.5  12 12" xmlns="http://www.w3.org/2000/svg">
  <path d="M 345 713.5  C 348.36 713.5  351 716.14  351 719.5  C 351 722.86  348.36 725.5  345 725.5  C 341.64 725.5  339 722.86  339 719.5  C 339 716.14  341.64 713.5  345 713.5  Z " fill-rule="nonzero" fill="#ffffff" stroke="none" />
  <path d="M 345 714  C 348.08 714  350.5 716.42  350.5 719.5  C 350.5 722.58  348.08 725  345 725  C 341.92 725  339.5 722.58  339.5 719.5  C 339.5 716.42  341.92 714  345 714  Z " stroke-width="1" stroke="#8080ff" fill="none" />
  <path d="M 345 722.5  C 343.32 722.5  342 721.18  342 719.5  C 342 717.82  343.32 716.5  345 716.5  C 346.68 716.5  348 717.82  348 719.5  C 348 721.18  346.68 722.5  345 722.5  " fill-rule="nonzero" fill="#8080ff" stroke="none" />
</svg>