<?xml version="1.0" encoding="utf-8"?>
<svg version="1.1" xmlns:xlink="http://www.w3.org/1999/xlink" width="12px" height="12px" viewBox="289 688.5  12 12" xmlns="http://www.w3.org/2000/svg">
  <path d="M 295 688.5  C 298.36 688.5  301 691.14  301 694.5  C 301 697.86  298.36 700.5  295 700.5  C 291.64 700.5  289 697.86  289 694.5  C 289 691.14  291.64 688.5  295 688.5  Z " fill-rule="nonzero" fill="#ffffff" stroke="none" />
  <path d="M 295 689  C 298.08 689  300.5 691.42  300.5 694.5  C 300.5 697.58  298.08 700  295 700  C 291.92 700  289.5 697.58  289.5 694.5  C 289.5 691.42  291.92 689  295 689  Z " stroke-width="1" stroke="#797979" fill="none" />
  <path d="M 295 697.5  C 293.32 697.5  292 696.18  292 694.5  C 292 692.82  293.32 691.5  295 691.5  C 296.68 691.5  298 692.82  298 694.5  C 298 696.18  296.68 697.5  295 697.5  " fill-rule="nonzero" fill="#797979" stroke="none" />
</svg>