<?xml version="1.0" encoding="utf-8"?>
<svg version="1.1" xmlns:xlink="http://www.w3.org/1999/xlink" width="12px" height="12px" viewBox="331 688.5  12 12" xmlns="http://www.w3.org/2000/svg">
  <path d="M 337 688.5  C 340.36 688.5  343 691.14  343 694.5  C 343 697.86  340.36 700.5  337 700.5  C 333.64 700.5  331 697.86  331 694.5  C 331 691.14  333.64 688.5  337 688.5  Z " fill-rule="nonzero" fill="#ffffff" stroke="none" />
  <path d="M 337 689  C 340.08 689  342.5 691.42  342.5 694.5  C 342.5 697.58  340.08 700  337 700  C 333.92 700  331.5 697.58  331.5 694.5  C 331.5 691.42  333.92 689  337 689  Z " stroke-width="1" stroke="#797979" fill="none" />
  <path d="M 337 697.5  C 335.32 697.5  334 696.18  334 694.5  C 334 692.82  335.32 691.5  337 691.5  C 338.68 691.5  340 692.82  340 694.5  C 340 696.18  338.68 697.5  337 697.5  " fill-rule="nonzero" fill="#797979" stroke="none" />
</svg>