<?xml version="1.0" encoding="utf-8"?>
<svg version="1.1" xmlns:xlink="http://www.w3.org/1999/xlink" width="12px" height="12px" viewBox="389 688.5  12 12" xmlns="http://www.w3.org/2000/svg">
  <path d="M 395 688.5  C 398.36 688.5  401 691.14  401 694.5  C 401 697.86  398.36 700.5  395 700.5  C 391.64 700.5  389 697.86  389 694.5  C 389 691.14  391.64 688.5  395 688.5  Z " fill-rule="nonzero" fill="#ffffff" stroke="none" />
  <path d="M 395 689  C 398.08 689  400.5 691.42  400.5 694.5  C 400.5 697.58  398.08 700  395 700  C 391.92 700  389.5 697.58  389.5 694.5  C 389.5 691.42  391.92 689  395 689  Z " stroke-width="1" stroke="#797979" fill="none" />
  <path d="M 395 697.5  C 393.32 697.5  392 696.18  392 694.5  C 392 692.82  393.32 691.5  395 691.5  C 396.68 691.5  398 692.82  398 694.5  C 398 696.18  396.68 697.5  395 697.5  " fill-rule="nonzero" fill="#797979" stroke="none" />
</svg>