<?xml version="1.0" encoding="utf-8"?>
<svg version="1.1" xmlns:xlink="http://www.w3.org/1999/xlink" width="12px" height="12px" viewBox="444 688.5  12 12" xmlns="http://www.w3.org/2000/svg">
  <path d="M 450 688.5  C 453.36 688.5  456 691.14  456 694.5  C 456 697.86  453.36 700.5  450 700.5  C 446.64 700.5  444 697.86  444 694.5  C 444 691.14  446.64 688.5  450 688.5  Z " fill-rule="nonzero" fill="#f0f0f0" stroke="none" />
  <path d="M 450 689  C 453.08 689  455.5 691.42  455.5 694.5  C 455.5 697.58  453.08 700  450 700  C 446.92 700  444.5 697.58  444.5 694.5  C 444.5 691.42  446.92 689  450 689  Z " stroke-width="1" stroke="#797979" fill="none" />
  <path d="M 450 697.5  C 448.32 697.5  447 696.18  447 694.5  C 447 692.82  448.32 691.5  450 691.5  C 451.68 691.5  453 692.82  453 694.5  C 453 696.18  451.68 697.5  450 697.5  " fill-rule="nonzero" fill="#797979" stroke="none" />
</svg>