<?xml version="1.0" encoding="utf-8"?>
<svg version="1.1" xmlns:xlink="http://www.w3.org/1999/xlink" width="12px" height="12px" viewBox="428 777.5  12 12" xmlns="http://www.w3.org/2000/svg">
  <path d="M 434 777.5  C 437.36 777.5  440 780.14  440 783.5  C 440 786.86  437.36 789.5  434 789.5  C 430.64 789.5  428 786.86  428 783.5  C 428 780.14  430.64 777.5  434 777.5  Z " fill-rule="nonzero" fill="#ffffff" stroke="none" />
  <path d="M 434 778  C 437.08 778  439.5 780.42  439.5 783.5  C 439.5 786.58  437.08 789  434 789  C 430.92 789  428.5 786.58  428.5 783.5  C 428.5 780.42  430.92 778  434 778  Z " stroke-width="1" stroke="#8080ff" fill="none" />
  <path d="M 434 786.5  C 432.32 786.5  431 785.18  431 783.5  C 431 781.82  432.32 780.5  434 780.5  C 435.68 780.5  437 781.82  437 783.5  C 437 785.18  435.68 786.5  434 786.5  " fill-rule="nonzero" fill="#8080ff" stroke="none" />
</svg>