<?xml version="1.0" encoding="utf-8"?>
<svg version="1.1" xmlns:xlink="http://www.w3.org/1999/xlink" width="12px" height="12px" viewBox="368 804.5  12 12" xmlns="http://www.w3.org/2000/svg">
  <path d="M 374 804.5  C 377.36 804.5  380 807.14  380 810.5  C 380 813.86  377.36 816.5  374 816.5  C 370.64 816.5  368 813.86  368 810.5  C 368 807.14  370.64 804.5  374 804.5  Z " fill-rule="nonzero" fill="#f0f0f0" stroke="none" />
  <path d="M 374 805  C 377.08 805  379.5 807.42  379.5 810.5  C 379.5 813.58  377.08 816  374 816  C 370.92 816  368.5 813.58  368.5 810.5  C 368.5 807.42  370.92 805  374 805  Z " stroke-width="1" stroke="#8080ff" fill="none" />
  <path d="M 374 813.5  C 372.32 813.5  371 812.18  371 810.5  C 371 808.82  372.32 807.5  374 807.5  C 375.68 807.5  377 808.82  377 810.5  C 377 812.18  375.68 813.5  374 813.5  " fill-rule="nonzero" fill="#8080ff" stroke="none" />
</svg>