<?xml version="1.0" encoding="utf-8"?>
<svg version="1.1" xmlns:xlink="http://www.w3.org/1999/xlink" width="12px" height="12px" viewBox="389 747.5  12 12" xmlns="http://www.w3.org/2000/svg">
  <path d="M 395 747.5  C 398.36 747.5  401 750.14  401 753.5  C 401 756.86  398.36 759.5  395 759.5  C 391.64 759.5  389 756.86  389 753.5  C 389 750.14  391.64 747.5  395 747.5  Z " fill-rule="nonzero" fill="#ffffff" stroke="none" />
  <path d="M 395 748  C 398.08 748  400.5 750.42  400.5 753.5  C 400.5 756.58  398.08 759  395 759  C 391.92 759  389.5 756.58  389.5 753.5  C 389.5 750.42  391.92 748  395 748  Z " stroke-width="1" stroke="#797979" fill="none" />
  <path d="M 395 756.5  C 393.32 756.5  392 755.18  392 753.5  C 392 751.82  393.32 750.5  395 750.5  C 396.68 750.5  398 751.82  398 753.5  C 398 755.18  396.68 756.5  395 756.5  " fill-rule="nonzero" fill="#797979" stroke="none" />
</svg>