<?xml version="1.0" encoding="utf-8"?>
<svg version="1.1" xmlns:xlink="http://www.w3.org/1999/xlink" width="12px" height="12px" viewBox="428 804.5  12 12" xmlns="http://www.w3.org/2000/svg">
  <path d="M 434 804.5  C 437.36 804.5  440 807.14  440 810.5  C 440 813.86  437.36 816.5  434 816.5  C 430.64 816.5  428 813.86  428 810.5  C 428 807.14  430.64 804.5  434 804.5  Z " fill-rule="nonzero" fill="#ffffff" stroke="none" />
  <path d="M 434 805  C 437.08 805  439.5 807.42  439.5 810.5  C 439.5 813.58  437.08 816  434 816  C 430.92 816  428.5 813.58  428.5 810.5  C 428.5 807.42  430.92 805  434 805  Z " stroke-width="1" stroke="#8080ff" fill="none" />
  <path d="M 434 813.5  C 432.32 813.5  431 812.18  431 810.5  C 431 808.82  432.32 807.5  434 807.5  C 435.68 807.5  437 808.82  437 810.5  C 437 812.18  435.68 813.5  434 813.5  " fill-rule="nonzero" fill="#8080ff" stroke="none" />
</svg>