<?xml version="1.0" encoding="utf-8"?>
<svg version="1.1" xmlns:xlink="http://www.w3.org/1999/xlink" width="12px" height="12px" viewBox="312 777.5  12 12" xmlns="http://www.w3.org/2000/svg">
  <path d="M 318 777.5  C 321.36 777.5  324 780.14  324 783.5  C 324 786.86  321.36 789.5  318 789.5  C 314.64 789.5  312 786.86  312 783.5  C 312 780.14  314.64 777.5  318 777.5  Z " fill-rule="nonzero" fill="#f0f0f0" stroke="none" />
  <path d="M 318 778  C 321.08 778  323.5 780.42  323.5 783.5  C 323.5 786.58  321.08 789  318 789  C 314.92 789  312.5 786.58  312.5 783.5  C 312.5 780.42  314.92 778  318 778  Z " stroke-width="1" stroke="#797979" fill="none" />
  <path d="M 318 786.5  C 316.32 786.5  315 785.18  315 783.5  C 315 781.82  316.32 780.5  318 780.5  C 319.68 780.5  321 781.82  321 783.5  C 321 785.18  319.68 786.5  318 786.5  " fill-rule="nonzero" fill="#797979" stroke="none" />
</svg>