<?xml version="1.0" encoding="utf-8"?>
<svg version="1.1" xmlns:xlink="http://www.w3.org/1999/xlink" width="12px" height="12px" viewBox="449 747.5  12 12" xmlns="http://www.w3.org/2000/svg">
  <path d="M 455 747.5  C 458.36 747.5  461 750.14  461 753.5  C 461 756.86  458.36 759.5  455 759.5  C 451.64 759.5  449 756.86  449 753.5  C 449 750.14  451.64 747.5  455 747.5  Z " fill-rule="nonzero" fill="#f0f0f0" stroke="none" />
  <path d="M 455 748  C 458.08 748  460.5 750.42  460.5 753.5  C 460.5 756.58  458.08 759  455 759  C 451.92 759  449.5 756.58  449.5 753.5  C 449.5 750.42  451.92 748  455 748  Z " stroke-width="1" stroke="#797979" fill="none" />
  <path d="M 455 756.5  C 453.32 756.5  452 755.18  452 753.5  C 452 751.82  453.32 750.5  455 750.5  C 456.68 750.5  458 751.82  458 753.5  C 458 755.18  456.68 756.5  455 756.5  " fill-rule="nonzero" fill="#797979" stroke="none" />
</svg>