<?xml version="1.0" encoding="utf-8"?>
<svg version="1.1" xmlns:xlink="http://www.w3.org/1999/xlink" width="12px" height="12px" viewBox="368 876.5  12 12" xmlns="http://www.w3.org/2000/svg">
  <path d="M 374 876.5  C 377.36 876.5  380 879.14  380 882.5  C 380 885.86  377.36 888.5  374 888.5  C 370.64 888.5  368 885.86  368 882.5  C 368 879.14  370.64 876.5  374 876.5  Z " fill-rule="nonzero" fill="#ffffff" stroke="none" />
  <path d="M 374 877  C 377.08 877  379.5 879.42  379.5 882.5  C 379.5 885.58  377.08 888  374 888  C 370.92 888  368.5 885.58  368.5 882.5  C 368.5 879.42  370.92 877  374 877  Z " stroke-width="1" stroke="#797979" fill="none" />
  <path d="M 374 885.5  C 372.32 885.5  371 884.18  371 882.5  C 371 880.82  372.32 879.5  374 879.5  C 375.68 879.5  377 880.82  377 882.5  C 377 884.18  375.68 885.5  374 885.5  " fill-rule="nonzero" fill="#797979" stroke="none" />
</svg>