<?xml version="1.0" encoding="utf-8"?>
<svg version="1.1" xmlns:xlink="http://www.w3.org/1999/xlink" width="12px" height="12px" viewBox="312 876.5  12 12" xmlns="http://www.w3.org/2000/svg">
  <path d="M 318 876.5  C 321.36 876.5  324 879.14  324 882.5  C 324 885.86  321.36 888.5  318 888.5  C 314.64 888.5  312 885.86  312 882.5  C 312 879.14  314.64 876.5  318 876.5  Z " fill-rule="nonzero" fill="#ffffff" stroke="none" />
  <path d="M 318 877  C 321.08 877  323.5 879.42  323.5 882.5  C 323.5 885.58  321.08 888  318 888  C 314.92 888  312.5 885.58  312.5 882.5  C 312.5 879.42  314.92 877  318 877  Z " stroke-width="1" stroke="#797979" fill="none" />
  <path d="M 318 885.5  C 316.32 885.5  315 884.18  315 882.5  C 315 880.82  316.32 879.5  318 879.5  C 319.68 879.5  321 880.82  321 882.5  C 321 884.18  319.68 885.5  318 885.5  " fill-rule="nonzero" fill="#797979" stroke="none" />
</svg>