<?xml version="1.0" encoding="utf-8"?>
<svg version="1.1" xmlns:xlink="http://www.w3.org/1999/xlink" width="12px" height="12px" viewBox="368 837.5  12 12" xmlns="http://www.w3.org/2000/svg">
  <path d="M 374 837.5  C 377.36 837.5  380 840.14  380 843.5  C 380 846.86  377.36 849.5  374 849.5  C 370.64 849.5  368 846.86  368 843.5  C 368 840.14  370.64 837.5  374 837.5  Z " fill-rule="nonzero" fill="#ffffff" stroke="none" />
  <path d="M 374 838  C 377.08 838  379.5 840.42  379.5 843.5  C 379.5 846.58  377.08 849  374 849  C 370.92 849  368.5 846.58  368.5 843.5  C 368.5 840.42  370.92 838  374 838  Z " stroke-width="1" stroke="#797979" fill="none" />
  <path d="M 374 846.5  C 372.32 846.5  371 845.18  371 843.5  C 371 841.82  372.32 840.5  374 840.5  C 375.68 840.5  377 841.82  377 843.5  C 377 845.18  375.68 846.5  374 846.5  " fill-rule="nonzero" fill="#797979" stroke="none" />
</svg>