<?xml version="1.0" encoding="utf-8"?>
<svg version="1.1" xmlns:xlink="http://www.w3.org/1999/xlink" width="12px" height="12px" viewBox="428 876.5  12 12" xmlns="http://www.w3.org/2000/svg">
  <path d="M 434 876.5  C 437.36 876.5  440 879.14  440 882.5  C 440 885.86  437.36 888.5  434 888.5  C 430.64 888.5  428 885.86  428 882.5  C 428 879.14  430.64 876.5  434 876.5  Z " fill-rule="nonzero" fill="#f0f0f0" stroke="none" />
  <path d="M 434 877  C 437.08 877  439.5 879.42  439.5 882.5  C 439.5 885.58  437.08 888  434 888  C 430.92 888  428.5 885.58  428.5 882.5  C 428.5 879.42  430.92 877  434 877  Z " stroke-width="1" stroke="#797979" fill="none" />
  <path d="M 434 885.5  C 432.32 885.5  431 884.18  431 882.5  C 431 880.82  432.32 879.5  434 879.5  C 435.68 879.5  437 880.82  437 882.5  C 437 884.18  435.68 885.5  434 885.5  " fill-rule="nonzero" fill="#797979" stroke="none" />
</svg>