<?xml version="1.0" encoding="utf-8"?>
<svg version="1.1" xmlns:xlink="http://www.w3.org/1999/xlink" width="12px" height="12px" viewBox="485 837.5  12 12" xmlns="http://www.w3.org/2000/svg">
  <path d="M 491 837.5  C 494.36 837.5  497 840.14  497 843.5  C 497 846.86  494.36 849.5  491 849.5  C 487.64 849.5  485 846.86  485 843.5  C 485 840.14  487.64 837.5  491 837.5  Z " fill-rule="nonzero" fill="#ffffff" stroke="none" />
  <path d="M 491 838  C 494.08 838  496.5 840.42  496.5 843.5  C 496.5 846.58  494.08 849  491 849  C 487.92 849  485.5 846.58  485.5 843.5  C 485.5 840.42  487.92 838  491 838  Z " stroke-width="1" stroke="#797979" fill="none" />
  <path d="M 491 846.5  C 489.32 846.5  488 845.18  488 843.5  C 488 841.82  489.32 840.5  491 840.5  C 492.68 840.5  494 841.82  494 843.5  C 494 845.18  492.68 846.5  491 846.5  " fill-rule="nonzero" fill="#797979" stroke="none" />
</svg>