<?xml version="1.0" encoding="utf-8"?>
<svg version="1.1" xmlns:xlink="http://www.w3.org/1999/xlink" width="12px" height="12px" viewBox="312 837.5  12 12" xmlns="http://www.w3.org/2000/svg">
  <path d="M 318 837.5  C 321.36 837.5  324 840.14  324 843.5  C 324 846.86  321.36 849.5  318 849.5  C 314.64 849.5  312 846.86  312 843.5  C 312 840.14  314.64 837.5  318 837.5  Z " fill-rule="nonzero" fill="#f0f0f0" stroke="none" />
  <path d="M 318 838  C 321.08 838  323.5 840.42  323.5 843.5  C 323.5 846.58  321.08 849  318 849  C 314.92 849  312.5 846.58  312.5 843.5  C 312.5 840.42  314.92 838  318 838  Z " stroke-width="1" stroke="#797979" fill="none" />
  <path d="M 318 846.5  C 316.32 846.5  315 845.18  315 843.5  C 315 841.82  316.32 840.5  318 840.5  C 319.68 840.5  321 841.82  321 843.5  C 321 845.18  319.68 846.5  318 846.5  " fill-rule="nonzero" fill="#797979" stroke="none" />
</svg>