<?xml version="1.0" encoding="utf-8"?>
<svg version="1.1" xmlns:xlink="http://www.w3.org/1999/xlink" width="12px" height="12px" viewBox="485 876.5  12 12" xmlns="http://www.w3.org/2000/svg">
  <path d="M 491 876.5  C 494.36 876.5  497 879.14  497 882.5  C 497 885.86  494.36 888.5  491 888.5  C 487.64 888.5  485 885.86  485 882.5  C 485 879.14  487.64 876.5  491 876.5  Z " fill-rule="nonzero" fill="#ffffff" stroke="none" />
  <path d="M 491 877  C 494.08 877  496.5 879.42  496.5 882.5  C 496.5 885.58  494.08 888  491 888  C 487.92 888  485.5 885.58  485.5 882.5  C 485.5 879.42  487.92 877  491 877  Z " stroke-width="1" stroke="#797979" fill="none" />
  <path d="M 491 885.5  C 489.32 885.5  488 884.18  488 882.5  C 488 880.82  489.32 879.5  491 879.5  C 492.68 879.5  494 880.82  494 882.5  C 494 884.18  492.68 885.5  491 885.5  " fill-rule="nonzero" fill="#797979" stroke="none" />
</svg>