<?xml version="1.0" encoding="utf-8"?>
<svg version="1.1" xmlns:xlink="http://www.w3.org/1999/xlink" width="12px" height="12px" viewBox="312 905.5  12 12" xmlns="http://www.w3.org/2000/svg">
  <path d="M 318 905.5  C 321.36 905.5  324 908.14  324 911.5  C 324 914.86  321.36 917.5  318 917.5  C 314.64 917.5  312 914.86  312 911.5  C 312 908.14  314.64 905.5  318 905.5  Z " fill-rule="nonzero" fill="#f0f0f0" stroke="none" />
  <path d="M 318 906  C 321.08 906  323.5 908.42  323.5 911.5  C 323.5 914.58  321.08 917  318 917  C 314.92 917  312.5 914.58  312.5 911.5  C 312.5 908.42  314.92 906  318 906  Z " stroke-width="1" stroke="#797979" fill="none" />
  <path d="M 318 914.5  C 316.32 914.5  315 913.18  315 911.5  C 315 909.82  316.32 908.5  318 908.5  C 319.68 908.5  321 909.82  321 911.5  C 321 913.18  319.68 914.5  318 914.5  " fill-rule="nonzero" fill="#797979" stroke="none" />
</svg>