<?xml version="1.0" encoding="utf-8"?>
<svg version="1.1" xmlns:xlink="http://www.w3.org/1999/xlink" width="12px" height="12px" viewBox="289 986.5  12 12" xmlns="http://www.w3.org/2000/svg">
  <path d="M 295 986.5  C 298.36 986.5  301 989.14  301 992.5  C 301 995.86  298.36 998.5  295 998.5  C 291.64 998.5  289 995.86  289 992.5  C 289 989.14  291.64 986.5  295 986.5  Z " fill-rule="nonzero" fill="#f0f0f0" stroke="none" />
  <path d="M 295 987  C 298.08 987  300.5 989.42  300.5 992.5  C 300.5 995.58  298.08 998  295 998  C 291.92 998  289.5 995.58  289.5 992.5  C 289.5 989.42  291.92 987  295 987  Z " stroke-width="1" stroke="#797979" fill="none" />
  <path d="M 295 995.5  C 293.32 995.5  292 994.18  292 992.5  C 292 990.82  293.32 989.5  295 989.5  C 296.68 989.5  298 990.82  298 992.5  C 298 994.18  296.68 995.5  295 995.5  " fill-rule="nonzero" fill="#797979" stroke="none" />
</svg>