<?xml version="1.0" encoding="utf-8"?>
<svg version="1.1" xmlns:xlink="http://www.w3.org/1999/xlink" width="12px" height="12px" viewBox="339 986.5  12 12" xmlns="http://www.w3.org/2000/svg">
  <path d="M 345 986.5  C 348.36 986.5  351 989.14  351 992.5  C 351 995.86  348.36 998.5  345 998.5  C 341.64 998.5  339 995.86  339 992.5  C 339 989.14  341.64 986.5  345 986.5  Z " fill-rule="nonzero" fill="#f0f0f0" stroke="none" />
  <path d="M 345 987  C 348.08 987  350.5 989.42  350.5 992.5  C 350.5 995.58  348.08 998  345 998  C 341.92 998  339.5 995.58  339.5 992.5  C 339.5 989.42  341.92 987  345 987  Z " stroke-width="1" stroke="#797979" fill="none" />
  <path d="M 345 995.5  C 343.32 995.5  342 994.18  342 992.5  C 342 990.82  343.32 989.5  345 989.5  C 346.68 989.5  348 990.82  348 992.5  C 348 994.18  346.68 995.5  345 995.5  " fill-rule="nonzero" fill="#797979" stroke="none" />
</svg>