<?xml version="1.0" encoding="utf-8"?>
<svg version="1.1" xmlns:xlink="http://www.w3.org/1999/xlink" width="12px" height="12px" viewBox="368 905.5  12 12" xmlns="http://www.w3.org/2000/svg">
  <path d="M 374 905.5  C 377.36 905.5  380 908.14  380 911.5  C 380 914.86  377.36 917.5  374 917.5  C 370.64 917.5  368 914.86  368 911.5  C 368 908.14  370.64 905.5  374 905.5  Z " fill-rule="nonzero" fill="#f0f0f0" stroke="none" />
  <path d="M 374 906  C 377.08 906  379.5 908.42  379.5 911.5  C 379.5 914.58  377.08 917  374 917  C 370.92 917  368.5 914.58  368.5 911.5  C 368.5 908.42  370.92 906  374 906  Z " stroke-width="1" stroke="#8080ff" fill="none" />
  <path d="M 374 914.5  C 372.32 914.5  371 913.18  371 911.5  C 371 909.82  372.32 908.5  374 908.5  C 375.68 908.5  377 909.82  377 911.5  C 377 913.18  375.68 914.5  374 914.5  " fill-rule="nonzero" fill="#8080ff" stroke="none" />
</svg>