<?xml version="1.0" encoding="utf-8"?>
<svg version="1.1" xmlns:xlink="http://www.w3.org/1999/xlink" width="12px" height="12px" viewBox="428 905.5  12 12" xmlns="http://www.w3.org/2000/svg">
  <path d="M 434 905.5  C 437.36 905.5  440 908.14  440 911.5  C 440 914.86  437.36 917.5  434 917.5  C 430.64 917.5  428 914.86  428 911.5  C 428 908.14  430.64 905.5  434 905.5  Z " fill-rule="nonzero" fill="#f0f0f0" stroke="none" />
  <path d="M 434 906  C 437.08 906  439.5 908.42  439.5 911.5  C 439.5 914.58  437.08 917  434 917  C 430.92 917  428.5 914.58  428.5 911.5  C 428.5 908.42  430.92 906  434 906  Z " stroke-width="1" stroke="#8080ff" fill="none" />
  <path d="M 434 914.5  C 432.32 914.5  431 913.18  431 911.5  C 431 909.82  432.32 908.5  434 908.5  C 435.68 908.5  437 909.82  437 911.5  C 437 913.18  435.68 914.5  434 914.5  " fill-rule="nonzero" fill="#8080ff" stroke="none" />
</svg>