<?xml version="1.0" encoding="utf-8"?>
<svg version="1.1" xmlns:xlink="http://www.w3.org/1999/xlink" width="12px" height="12px" viewBox="452 986.5  12 12" xmlns="http://www.w3.org/2000/svg">
  <path d="M 458 986.5  C 461.36 986.5  464 989.14  464 992.5  C 464 995.86  461.36 998.5  458 998.5  C 454.64 998.5  452 995.86  452 992.5  C 452 989.14  454.64 986.5  458 986.5  Z " fill-rule="nonzero" fill="#f0f0f0" stroke="none" />
  <path d="M 458 987  C 461.08 987  463.5 989.42  463.5 992.5  C 463.5 995.58  461.08 998  458 998  C 454.92 998  452.5 995.58  452.5 992.5  C 452.5 989.42  454.92 987  458 987  Z " stroke-width="1" stroke="#797979" fill="none" />
  <path d="M 458 995.5  C 456.32 995.5  455 994.18  455 992.5  C 455 990.82  456.32 989.5  458 989.5  C 459.68 989.5  461 990.82  461 992.5  C 461 994.18  459.68 995.5  458 995.5  " fill-rule="nonzero" fill="#797979" stroke="none" />
</svg>