<?xml version="1.0" encoding="utf-8"?>
<svg version="1.1" xmlns:xlink="http://www.w3.org/1999/xlink" width="12px" height="12px" viewBox="289 1018.5  12 12" xmlns="http://www.w3.org/2000/svg">
  <path d="M 295 1018.5  C 298.36 1018.5  301 1021.14  301 1024.5  C 301 1027.86  298.36 1030.5  295 1030.5  C 291.64 1030.5  289 1027.86  289 1024.5  C 289 1021.14  291.64 1018.5  295 1018.5  Z " fill-rule="nonzero" fill="#f0f0f0" stroke="none" />
  <path d="M 295 1019  C 298.08 1019  300.5 1021.42  300.5 1024.5  C 300.5 1027.58  298.08 1030  295 1030  C 291.92 1030  289.5 1027.58  289.5 1024.5  C 289.5 1021.42  291.92 1019  295 1019  Z " stroke-width="1" stroke="#797979" fill="none" />
  <path d="M 295 1027.5  C 293.32 1027.5  292 1026.18  292 1024.5  C 292 1022.82  293.32 1021.5  295 1021.5  C 296.68 1021.5  298 1022.82  298 1024.5  C 298 1026.18  296.68 1027.5  295 1027.5  " fill-rule="nonzero" fill="#797979" stroke="none" />
</svg>