<?xml version="1.0" encoding="utf-8"?>
<svg version="1.1" xmlns:xlink="http://www.w3.org/1999/xlink" width="12px" height="12px" viewBox="397 1018.5  12 12" xmlns="http://www.w3.org/2000/svg">
  <path d="M 403 1018.5  C 406.36 1018.5  409 1021.14  409 1024.5  C 409 1027.86  406.36 1030.5  403 1030.5  C 399.64 1030.5  397 1027.86  397 1024.5  C 397 1021.14  399.64 1018.5  403 1018.5  Z " fill-rule="nonzero" fill="#ffffff" stroke="none" />
  <path d="M 403 1019  C 406.08 1019  408.5 1021.42  408.5 1024.5  C 408.5 1027.58  406.08 1030  403 1030  C 399.92 1030  397.5 1027.58  397.5 1024.5  C 397.5 1021.42  399.92 1019  403 1019  Z " stroke-width="1" stroke="#797979" fill="none" />
  <path d="M 403 1027.5  C 401.32 1027.5  400 1026.18  400 1024.5  C 400 1022.82  401.32 1021.5  403 1021.5  C 404.68 1021.5  406 1022.82  406 1024.5  C 406 1026.18  404.68 1027.5  403 1027.5  " fill-rule="nonzero" fill="#797979" stroke="none" />
</svg>