<?xml version="1.0" encoding="utf-8"?>
<svg version="1.1" xmlns:xlink="http://www.w3.org/1999/xlink" width="12px" height="12px" viewBox="789 432.5  12 12" xmlns="http://www.w3.org/2000/svg">
  <path d="M 795 432.5  C 798.36 432.5  801 435.14  801 438.5  C 801 441.86  798.36 444.5  795 444.5  C 791.64 444.5  789 441.86  789 438.5  C 789 435.14  791.64 432.5  795 432.5  Z " fill-rule="nonzero" fill="#f0f0f0" stroke="none" />
  <path d="M 795 433  C 798.08 433  800.5 435.42  800.5 438.5  C 800.5 441.58  798.08 444  795 444  C 791.92 444  789.5 441.58  789.5 438.5  C 789.5 435.42  791.92 433  795 433  Z " stroke-width="1" stroke="#797979" fill="none" />
  <path d="M 795 441.5  C 793.32 441.5  792 440.18  792 438.5  C 792 436.82  793.32 435.5  795 435.5  C 796.68 435.5  798 436.82  798 438.5  C 798 440.18  796.68 441.5  795 441.5  " fill-rule="nonzero" fill="#797979" stroke="none" />
</svg>