<?xml version="1.0" encoding="utf-8"?>
<svg version="1.1" xmlns:xlink="http://www.w3.org/1999/xlink" width="12px" height="12px" viewBox="812 490.5  12 12" xmlns="http://www.w3.org/2000/svg">
  <path d="M 818 490.5  C 821.36 490.5  824 493.14  824 496.5  C 824 499.86  821.36 502.5  818 502.5  C 814.64 502.5  812 499.86  812 496.5  C 812 493.14  814.64 490.5  818 490.5  Z " fill-rule="nonzero" fill="#ffffff" stroke="none" />
  <path d="M 818 491  C 821.08 491  823.5 493.42  823.5 496.5  C 823.5 499.58  821.08 502  818 502  C 814.92 502  812.5 499.58  812.5 496.5  C 812.5 493.42  814.92 491  818 491  Z " stroke-width="1" stroke="#797979" fill="none" />
  <path d="M 818 499.5  C 816.32 499.5  815 498.18  815 496.5  C 815 494.82  816.32 493.5  818 493.5  C 819.68 493.5  821 494.82  821 496.5  C 821 498.18  819.68 499.5  818 499.5  " fill-rule="nonzero" fill="#797979" stroke="none" />
</svg>