<?xml version="1.0" encoding="utf-8"?>
<svg version="1.1" xmlns:xlink="http://www.w3.org/1999/xlink" width="12px" height="12px" viewBox="913 432.5  12 12" xmlns="http://www.w3.org/2000/svg">
  <path d="M 919 432.5  C 922.36 432.5  925 435.14  925 438.5  C 925 441.86  922.36 444.5  919 444.5  C 915.64 444.5  913 441.86  913 438.5  C 913 435.14  915.64 432.5  919 432.5  Z " fill-rule="nonzero" fill="#ffffff" stroke="none" />
  <path d="M 919 433  C 922.08 433  924.5 435.42  924.5 438.5  C 924.5 441.58  922.08 444  919 444  C 915.92 444  913.5 441.58  913.5 438.5  C 913.5 435.42  915.92 433  919 433  Z " stroke-width="1" stroke="#797979" fill="none" />
  <path d="M 919 441.5  C 917.32 441.5  916 440.18  916 438.5  C 916 436.82  917.32 435.5  919 435.5  C 920.68 435.5  922 436.82  922 438.5  C 922 440.18  920.68 441.5  919 441.5  " fill-rule="nonzero" fill="#797979" stroke="none" />
</svg>