<?xml version="1.0" encoding="utf-8"?>
<svg version="1.1" xmlns:xlink="http://www.w3.org/1999/xlink" width="12px" height="12px" viewBox="855 432.5  12 12" xmlns="http://www.w3.org/2000/svg">
  <path d="M 861 432.5  C 864.36 432.5  867 435.14  867 438.5  C 867 441.86  864.36 444.5  861 444.5  C 857.64 444.5  855 441.86  855 438.5  C 855 435.14  857.64 432.5  861 432.5  Z " fill-rule="nonzero" fill="#ffffff" stroke="none" />
  <path d="M 861 433  C 864.08 433  866.5 435.42  866.5 438.5  C 866.5 441.58  864.08 444  861 444  C 857.92 444  855.5 441.58  855.5 438.5  C 855.5 435.42  857.92 433  861 433  Z " stroke-width="1" stroke="#797979" fill="none" />
  <path d="M 861 441.5  C 859.32 441.5  858 440.18  858 438.5  C 858 436.82  859.32 435.5  861 435.5  C 862.68 435.5  864 436.82  864 438.5  C 864 440.18  862.68 441.5  861 441.5  " fill-rule="nonzero" fill="#797979" stroke="none" />
</svg>