<?xml version="1.0" encoding="utf-8"?>
<svg version="1.1" xmlns:xlink="http://www.w3.org/1999/xlink" width="12px" height="12px" viewBox="878 490.5  12 12" xmlns="http://www.w3.org/2000/svg">
  <path d="M 884 490.5  C 887.36 490.5  890 493.14  890 496.5  C 890 499.86  887.36 502.5  884 502.5  C 880.64 502.5  878 499.86  878 496.5  C 878 493.14  880.64 490.5  884 490.5  Z " fill-rule="nonzero" fill="#ffffff" stroke="none" />
  <path d="M 884 491  C 887.08 491  889.5 493.42  889.5 496.5  C 889.5 499.58  887.08 502  884 502  C 880.92 502  878.5 499.58  878.5 496.5  C 878.5 493.42  880.92 491  884 491  Z " stroke-width="1" stroke="#797979" fill="none" />
  <path d="M 884 499.5  C 882.32 499.5  881 498.18  881 496.5  C 881 494.82  882.32 493.5  884 493.5  C 885.68 493.5  887 494.82  887 496.5  C 887 498.18  885.68 499.5  884 499.5  " fill-rule="nonzero" fill="#797979" stroke="none" />
</svg>