<?xml version="1.0" encoding="utf-8"?>
<svg version="1.1" xmlns:xlink="http://www.w3.org/1999/xlink" width="12px" height="12px" viewBox="819 567.5  12 12" xmlns="http://www.w3.org/2000/svg">
  <path d="M 825 567.5  C 828.36 567.5  831 570.14  831 573.5  C 831 576.86  828.36 579.5  825 579.5  C 821.64 579.5  819 576.86  819 573.5  C 819 570.14  821.64 567.5  825 567.5  Z " fill-rule="nonzero" fill="#f0f0f0" stroke="none" />
  <path d="M 825 568  C 828.08 568  830.5 570.42  830.5 573.5  C 830.5 576.58  828.08 579  825 579  C 821.92 579  819.5 576.58  819.5 573.5  C 819.5 570.42  821.92 568  825 568  Z " stroke-width="1" stroke="#797979" fill="none" />
  <path d="M 825 576.5  C 823.32 576.5  822 575.18  822 573.5  C 822 571.82  823.32 570.5  825 570.5  C 826.68 570.5  828 571.82  828 573.5  C 828 575.18  826.68 576.5  825 576.5  " fill-rule="nonzero" fill="#797979" stroke="none" />
</svg>