<?xml version="1.0" encoding="utf-8"?>
<svg version="1.1" xmlns:xlink="http://www.w3.org/1999/xlink" width="12px" height="12px" viewBox="885 567.5  12 12" xmlns="http://www.w3.org/2000/svg">
  <path d="M 891 567.5  C 894.36 567.5  897 570.14  897 573.5  C 897 576.86  894.36 579.5  891 579.5  C 887.64 579.5  885 576.86  885 573.5  C 885 570.14  887.64 567.5  891 567.5  Z " fill-rule="nonzero" fill="#ffffff" stroke="none" />
  <path d="M 891 568  C 894.08 568  896.5 570.42  896.5 573.5  C 896.5 576.58  894.08 579  891 579  C 887.92 579  885.5 576.58  885.5 573.5  C 885.5 570.42  887.92 568  891 568  Z " stroke-width="1" stroke="#797979" fill="none" />
  <path d="M 891 576.5  C 889.32 576.5  888 575.18  888 573.5  C 888 571.82  889.32 570.5  891 570.5  C 892.68 570.5  894 571.82  894 573.5  C 894 575.18  892.68 576.5  891 576.5  " fill-rule="nonzero" fill="#797979" stroke="none" />
</svg>