<?xml version="1.0" encoding="utf-8"?>
<svg version="1.1" xmlns:xlink="http://www.w3.org/1999/xlink" width="12px" height="12px" viewBox="819 596.5  12 12" xmlns="http://www.w3.org/2000/svg">
  <path d="M 825 596.5  C 828.36 596.5  831 599.14  831 602.5  C 831 605.86  828.36 608.5  825 608.5  C 821.64 608.5  819 605.86  819 602.5  C 819 599.14  821.64 596.5  825 596.5  Z " fill-rule="nonzero" fill="#f0f0f0" stroke="none" />
  <path d="M 825 597  C 828.08 597  830.5 599.42  830.5 602.5  C 830.5 605.58  828.08 608  825 608  C 821.92 608  819.5 605.58  819.5 602.5  C 819.5 599.42  821.92 597  825 597  Z " stroke-width="1" stroke="#797979" fill="none" />
  <path d="M 825 605.5  C 823.32 605.5  822 604.18  822 602.5  C 822 600.82  823.32 599.5  825 599.5  C 826.68 599.5  828 600.82  828 602.5  C 828 604.18  826.68 605.5  825 605.5  " fill-rule="nonzero" fill="#797979" stroke="none" />
</svg>