<?xml version="1.0" encoding="utf-8"?>
<svg version="1.1" xmlns:xlink="http://www.w3.org/1999/xlink" width="12px" height="12px" viewBox="936 490.5  12 12" xmlns="http://www.w3.org/2000/svg">
  <path d="M 942 490.5  C 945.36 490.5  948 493.14  948 496.5  C 948 499.86  945.36 502.5  942 502.5  C 938.64 502.5  936 499.86  936 496.5  C 936 493.14  938.64 490.5  942 490.5  Z " fill-rule="nonzero" fill="#ffffff" stroke="none" />
  <path d="M 942 491  C 945.08 491  947.5 493.42  947.5 496.5  C 947.5 499.58  945.08 502  942 502  C 938.92 502  936.5 499.58  936.5 496.5  C 936.5 493.42  938.92 491  942 491  Z " stroke-width="1" stroke="#797979" fill="none" />
  <path d="M 942 499.5  C 940.32 499.5  939 498.18  939 496.5  C 939 494.82  940.32 493.5  942 493.5  C 943.68 493.5  945 494.82  945 496.5  C 945 498.18  943.68 499.5  942 499.5  " fill-rule="nonzero" fill="#797979" stroke="none" />
</svg>