<?xml version="1.0" encoding="utf-8"?>
<svg version="1.1" xmlns:xlink="http://www.w3.org/1999/xlink" width="12px" height="12px" viewBox="885 596.5  12 12" xmlns="http://www.w3.org/2000/svg">
  <path d="M 891 596.5  C 894.36 596.5  897 599.14  897 602.5  C 897 605.86  894.36 608.5  891 608.5  C 887.64 608.5  885 605.86  885 602.5  C 885 599.14  887.64 596.5  891 596.5  Z " fill-rule="nonzero" fill="#ffffff" stroke="none" />
  <path d="M 891 597  C 894.08 597  896.5 599.42  896.5 602.5  C 896.5 605.58  894.08 608  891 608  C 887.92 608  885.5 605.58  885.5 602.5  C 885.5 599.42  887.92 597  891 597  Z " stroke-width="1" stroke="#797979" fill="none" />
  <path d="M 891 605.5  C 889.32 605.5  888 604.18  888 602.5  C 888 600.82  889.32 599.5  891 599.5  C 892.68 599.5  894 600.82  894 602.5  C 894 604.18  892.68 605.5  891 605.5  " fill-rule="nonzero" fill="#797979" stroke="none" />
</svg>