<?xml version="1.0" encoding="utf-8"?>
<svg version="1.1" xmlns:xlink="http://www.w3.org/1999/xlink" width="12px" height="12px" viewBox="943 596.5  12 12" xmlns="http://www.w3.org/2000/svg">
  <path d="M 949 596.5  C 952.36 596.5  955 599.14  955 602.5  C 955 605.86  952.36 608.5  949 608.5  C 945.64 608.5  943 605.86  943 602.5  C 943 599.14  945.64 596.5  949 596.5  Z " fill-rule="nonzero" fill="#f0f0f0" stroke="none" />
  <path d="M 949 597  C 952.08 597  954.5 599.42  954.5 602.5  C 954.5 605.58  952.08 608  949 608  C 945.92 608  943.5 605.58  943.5 602.5  C 943.5 599.42  945.92 597  949 597  Z " stroke-width="1" stroke="#797979" fill="none" />
  <path d="M 949 605.5  C 947.32 605.5  946 604.18  946 602.5  C 946 600.82  947.32 599.5  949 599.5  C 950.68 599.5  952 600.82  952 602.5  C 952 604.18  950.68 605.5  949 605.5  " fill-rule="nonzero" fill="#797979" stroke="none" />
</svg>