<?xml version="1.0" encoding="utf-8"?>
<svg version="1.1" xmlns:xlink="http://www.w3.org/1999/xlink" width="12px" height="12px" viewBox="819 797.5  12 12" xmlns="http://www.w3.org/2000/svg">
  <path d="M 825 797.5  C 828.36 797.5  831 800.14  831 803.5  C 831 806.86  828.36 809.5  825 809.5  C 821.64 809.5  819 806.86  819 803.5  C 819 800.14  821.64 797.5  825 797.5  Z " fill-rule="nonzero" fill="#ffffff" stroke="none" />
  <path d="M 825 798  C 828.08 798  830.5 800.42  830.5 803.5  C 830.5 806.58  828.08 809  825 809  C 821.92 809  819.5 806.58  819.5 803.5  C 819.5 800.42  821.92 798  825 798  Z " stroke-width="1" stroke="#797979" fill="none" />
  <path d="M 825 806.5  C 823.32 806.5  822 805.18  822 803.5  C 822 801.82  823.32 800.5  825 800.5  C 826.68 800.5  828 801.82  828 803.5  C 828 805.18  826.68 806.5  825 806.5  " fill-rule="nonzero" fill="#797979" stroke="none" />
</svg>