<?xml version="1.0" encoding="utf-8"?>
<svg version="1.1" xmlns:xlink="http://www.w3.org/1999/xlink" width="12px" height="12px" viewBox="885 797.5  12 12" xmlns="http://www.w3.org/2000/svg">
  <path d="M 891 797.5  C 894.36 797.5  897 800.14  897 803.5  C 897 806.86  894.36 809.5  891 809.5  C 887.64 809.5  885 806.86  885 803.5  C 885 800.14  887.64 797.5  891 797.5  Z " fill-rule="nonzero" fill="#ffffff" stroke="none" />
  <path d="M 891 798  C 894.08 798  896.5 800.42  896.5 803.5  C 896.5 806.58  894.08 809  891 809  C 887.92 809  885.5 806.58  885.5 803.5  C 885.5 800.42  887.92 798  891 798  Z " stroke-width="1" stroke="#797979" fill="none" />
  <path d="M 891 806.5  C 889.32 806.5  888 805.18  888 803.5  C 888 801.82  889.32 800.5  891 800.5  C 892.68 800.5  894 801.82  894 803.5  C 894 805.18  892.68 806.5  891 806.5  " fill-rule="nonzero" fill="#797979" stroke="none" />
</svg>