<?xml version="1.0" encoding="utf-8"?>
<svg version="1.1" xmlns:xlink="http://www.w3.org/1999/xlink" width="12px" height="12px" viewBox="985 797.5  12 12" xmlns="http://www.w3.org/2000/svg">
  <path d="M 991 797.5  C 994.36 797.5  997 800.14  997 803.5  C 997 806.86  994.36 809.5  991 809.5  C 987.64 809.5  985 806.86  985 803.5  C 985 800.14  987.64 797.5  991 797.5  Z " fill-rule="nonzero" fill="#f0f0f0" stroke="none" />
  <path d="M 991 798  C 994.08 798  996.5 800.42  996.5 803.5  C 996.5 806.58  994.08 809  991 809  C 987.92 809  985.5 806.58  985.5 803.5  C 985.5 800.42  987.92 798  991 798  Z " stroke-width="1" stroke="#797979" fill="none" />
  <path d="M 991 806.5  C 989.32 806.5  988 805.18  988 803.5  C 988 801.82  989.32 800.5  991 800.5  C 992.68 800.5  994 801.82  994 803.5  C 994 805.18  992.68 806.5  991 806.5  " fill-rule="nonzero" fill="#797979" stroke="none" />
</svg>