<?xml version="1.0" encoding="utf-8"?>
<svg version="1.1" xmlns:xlink="http://www.w3.org/1999/xlink" width="12px" height="12px" viewBox="885 899.5  12 12" xmlns="http://www.w3.org/2000/svg">
  <path d="M 891 899.5  C 894.36 899.5  897 902.14  897 905.5  C 897 908.86  894.36 911.5  891 911.5  C 887.64 911.5  885 908.86  885 905.5  C 885 902.14  887.64 899.5  891 899.5  Z " fill-rule="nonzero" fill="#ffffff" stroke="none" />
  <path d="M 891 900  C 894.08 900  896.5 902.42  896.5 905.5  C 896.5 908.58  894.08 911  891 911  C 887.92 911  885.5 908.58  885.5 905.5  C 885.5 902.42  887.92 900  891 900  Z " stroke-width="1" stroke="#797979" fill="none" />
  <path d="M 891 908.5  C 889.32 908.5  888 907.18  888 905.5  C 888 903.82  889.32 902.5  891 902.5  C 892.68 902.5  894 903.82  894 905.5  C 894 907.18  892.68 908.5  891 908.5  " fill-rule="nonzero" fill="#797979" stroke="none" />
</svg>