<?xml version="1.0" encoding="utf-8"?>
<svg version="1.1" xmlns:xlink="http://www.w3.org/1999/xlink" width="12px" height="12px" viewBox="958 899.5  12 12" xmlns="http://www.w3.org/2000/svg">
  <path d="M 964 899.5  C 967.36 899.5  970 902.14  970 905.5  C 970 908.86  967.36 911.5  964 911.5  C 960.64 911.5  958 908.86  958 905.5  C 958 902.14  960.64 899.5  964 899.5  Z " fill-rule="nonzero" fill="#ffffff" stroke="none" />
  <path d="M 964 900  C 967.08 900  969.5 902.42  969.5 905.5  C 969.5 908.58  967.08 911  964 911  C 960.92 911  958.5 908.58  958.5 905.5  C 958.5 902.42  960.92 900  964 900  Z " stroke-width="1" stroke="#797979" fill="none" />
  <path d="M 964 908.5  C 962.32 908.5  961 907.18  961 905.5  C 961 903.82  962.32 902.5  964 902.5  C 965.68 902.5  967 903.82  967 905.5  C 967 907.18  965.68 908.5  964 908.5  " fill-rule="nonzero" fill="#797979" stroke="none" />
</svg>