<?xml version="1.0" encoding="utf-8"?>
<svg version="1.1" xmlns:xlink="http://www.w3.org/1999/xlink" width="12px" height="12px" viewBox="819 899.5  12 12" xmlns="http://www.w3.org/2000/svg">
  <path d="M 825 899.5  C 828.36 899.5  831 902.14  831 905.5  C 831 908.86  828.36 911.5  825 911.5  C 821.64 911.5  819 908.86  819 905.5  C 819 902.14  821.64 899.5  825 899.5  Z " fill-rule="nonzero" fill="#ffffff" stroke="none" />
  <path d="M 825 900  C 828.08 900  830.5 902.42  830.5 905.5  C 830.5 908.58  828.08 911  825 911  C 821.92 911  819.5 908.58  819.5 905.5  C 819.5 902.42  821.92 900  825 900  Z " stroke-width="1" stroke="#797979" fill="none" />
  <path d="M 825 908.5  C 823.32 908.5  822 907.18  822 905.5  C 822 903.82  823.32 902.5  825 902.5  C 826.68 902.5  828 903.82  828 905.5  C 828 907.18  826.68 908.5  825 908.5  " fill-rule="nonzero" fill="#797979" stroke="none" />
</svg>