<?xml version="1.0" encoding="utf-8"?>
<svg version="1.1" xmlns:xlink="http://www.w3.org/1999/xlink" width="12px" height="12px" viewBox="885 929.5  12 12" xmlns="http://www.w3.org/2000/svg">
  <path d="M 891 929.5  C 894.36 929.5  897 932.14  897 935.5  C 897 938.86  894.36 941.5  891 941.5  C 887.64 941.5  885 938.86  885 935.5  C 885 932.14  887.64 929.5  891 929.5  Z " fill-rule="nonzero" fill="#ffffff" stroke="none" />
  <path d="M 891 930  C 894.08 930  896.5 932.42  896.5 935.5  C 896.5 938.58  894.08 941  891 941  C 887.92 941  885.5 938.58  885.5 935.5  C 885.5 932.42  887.92 930  891 930  Z " stroke-width="1" stroke="#797979" fill="none" />
  <path d="M 891 938.5  C 889.32 938.5  888 937.18  888 935.5  C 888 933.82  889.32 932.5  891 932.5  C 892.68 932.5  894 933.82  894 935.5  C 894 937.18  892.68 938.5  891 938.5  " fill-rule="nonzero" fill="#797979" stroke="none" />
</svg>