<?xml version="1.0" encoding="utf-8"?>
<svg version="1.1" xmlns:xlink="http://www.w3.org/1999/xlink" width="12px" height="12px" viewBox="819 929.5  12 12" xmlns="http://www.w3.org/2000/svg">
  <path d="M 825 929.5  C 828.36 929.5  831 932.14  831 935.5  C 831 938.86  828.36 941.5  825 941.5  C 821.64 941.5  819 938.86  819 935.5  C 819 932.14  821.64 929.5  825 929.5  Z " fill-rule="nonzero" fill="#f0f0f0" stroke="none" />
  <path d="M 825 930  C 828.08 930  830.5 932.42  830.5 935.5  C 830.5 938.58  828.08 941  825 941  C 821.92 941  819.5 938.58  819.5 935.5  C 819.5 932.42  821.92 930  825 930  Z " stroke-width="1" stroke="#797979" fill="none" />
  <path d="M 825 938.5  C 823.32 938.5  822 937.18  822 935.5  C 822 933.82  823.32 932.5  825 932.5  C 826.68 932.5  828 933.82  828 935.5  C 828 937.18  826.68 938.5  825 938.5  " fill-rule="nonzero" fill="#797979" stroke="none" />
</svg>