<?xml version="1.0" encoding="utf-8"?>
<svg version="1.1" xmlns:xlink="http://www.w3.org/1999/xlink" width="12px" height="12px" viewBox="1041 899.5  12 12" xmlns="http://www.w3.org/2000/svg">
  <path d="M 1047 899.5  C 1050.36 899.5  1053 902.14  1053 905.5  C 1053 908.86  1050.36 911.5  1047 911.5  C 1043.64 911.5  1041 908.86  1041 905.5  C 1041 902.14  1043.64 899.5  1047 899.5  Z " fill-rule="nonzero" fill="#ffffff" stroke="none" />
  <path d="M 1047 900  C 1050.08 900  1052.5 902.42  1052.5 905.5  C 1052.5 908.58  1050.08 911  1047 911  C 1043.92 911  1041.5 908.58  1041.5 905.5  C 1041.5 902.42  1043.92 900  1047 900  Z " stroke-width="1" stroke="#797979" fill="none" />
  <path d="M 1047 908.5  C 1045.32 908.5  1044 907.18  1044 905.5  C 1044 903.82  1045.32 902.5  1047 902.5  C 1048.68 902.5  1050 903.82  1050 905.5  C 1050 907.18  1048.68 908.5  1047 908.5  " fill-rule="nonzero" fill="#797979" stroke="none" />
</svg>