<?xml version="1.0" encoding="utf-8"?>
<svg version="1.1" xmlns:xlink="http://www.w3.org/1999/xlink" width="12px" height="12px" viewBox="943 929.5  12 12" xmlns="http://www.w3.org/2000/svg">
  <path d="M 949 929.5  C 952.36 929.5  955 932.14  955 935.5  C 955 938.86  952.36 941.5  949 941.5  C 945.64 941.5  943 938.86  943 935.5  C 943 932.14  945.64 929.5  949 929.5  Z " fill-rule="nonzero" fill="#ffffff" stroke="none" />
  <path d="M 949 930  C 952.08 930  954.5 932.42  954.5 935.5  C 954.5 938.58  952.08 941  949 941  C 945.92 941  943.5 938.58  943.5 935.5  C 943.5 932.42  945.92 930  949 930  Z " stroke-width="1" stroke="#797979" fill="none" />
  <path d="M 949 938.5  C 947.32 938.5  946 937.18  946 935.5  C 946 933.82  947.32 932.5  949 932.5  C 950.68 932.5  952 933.82  952 935.5  C 952 937.18  950.68 938.5  949 938.5  " fill-rule="nonzero" fill="#797979" stroke="none" />
</svg>