<?xml version="1.0" encoding="utf-8"?>
<svg version="1.1" xmlns:xlink="http://www.w3.org/1999/xlink" width="18px" height="18px" xmlns="http://www.w3.org/2000/svg">
  <g transform="matrix(1 0 0 1 -13 -365 )">
    <path d="M 3.59598214285714 11.42578125  C 4.24553571428571 12.0652901785714  5.07254464285714 12.3850446428571  6.07700892857143 12.3850446428571  C 7.1015625 12.3850446428571  7.96205357142857 12.0368303571429  8.65848214285714 11.3404017857143  C 8.75223214285714 11.2198660714286  8.76227678571429 11.0993303571429  8.68861607142857 10.9787946428571  L 8.23660714285714 10.1551339285714  C 8.19642857142857 10.0680803571429  8.11607142857143 10.0111607142857  7.99553571428571 9.984375  C 7.88839285714286 9.97098214285714  7.79799107142857 10.0078125  7.72433035714286 10.0948660714286  L 7.68415178571429 10.125  C 7.65736607142857 10.1517857142857  7.61886160714286 10.1852678571429  7.56863839285714 10.2254464285714  C 7.51841517857143 10.265625  7.45982142857143 10.3108258928571  7.39285714285714 10.3610491071429  C 7.32589285714286 10.4112723214286  7.24720982142857 10.4598214285714  7.15680803571429 10.5066964285714  C 7.06640625 10.5535714285714  6.97098214285714 10.5970982142857  6.87053571428571 10.6372767857143  C 6.77008928571429 10.6774553571429  6.65792410714286 10.7092633928571  6.53404017857143 10.7327008928571  C 6.41015625 10.7561383928571  6.28459821428572 10.7678571428571  6.15736607142857 10.7678571428571  C 5.6484375 10.7678571428571  5.22991071428572 10.6004464285714  4.90178571428571 10.265625  C 4.57366071428571 9.93080357142857  4.40959821428571 9.50558035714286  4.40959821428571 8.98995535714286  C 4.40959821428571 8.48102678571429  4.5703125 8.06082589285714  4.89174107142857 7.72935267857143  C 5.21316964285714 7.39787946428572  5.62165178571429 7.23214285714286  6.1171875 7.23214285714286  C 6.36495535714286 7.23214285714286  6.60435267857143 7.27901785714286  6.83537946428571 7.37276785714286  C 7.06640625 7.46651785714286  7.23549107142857 7.56026785714286  7.34263392857143 7.65401785714286  L 7.50334821428571 7.79464285714286  C 7.57700892857143 7.86830357142857  7.6640625 7.90178571428571  7.76450892857143 7.89508928571428  C 7.87165178571429 7.88169642857143  7.95200892857143 7.83482142857143  8.00558035714286 7.75446428571428  L 8.53794642857143 6.97098214285714  C 8.625 6.83705357142857  8.61830357142857 6.70647321428571  8.51785714285714 6.57924107142857  C 8.49776785714286 6.55245535714286  8.4609375 6.51227678571429  8.40736607142857 6.45870535714286  C 8.35379464285714 6.40513392857143  8.25334821428572 6.32645089285714  8.10602678571429 6.22265625  C 7.95870535714286 6.11886160714286  7.79631696428572 6.02511160714286  7.61886160714286 5.94140625  C 7.44140625 5.85770089285714  7.21540178571429 5.78236607142857  6.94084821428571 5.71540178571428  C 6.66629464285714 5.6484375  6.37834821428571 5.61495535714286  6.07700892857143 5.61495535714286  C 5.0859375 5.61495535714286  4.26227678571429 5.93805803571428  3.60602678571429 6.58426339285714  C 2.94977678571429 7.23046875  2.62165178571429 8.03571428571428  2.62165178571429 9  C 2.62165178571429 9.97767857142857  2.94642857142857 10.7862723214286  3.59598214285714 11.42578125  Z M 9.92410714285714 11.42578125  C 10.5736607142857 12.0652901785714  11.4006696428571 12.3850446428571  12.4051339285714 12.3850446428571  C 13.4296875 12.3850446428571  14.2901785714286 12.0368303571429  14.9866071428571 11.3404017857143  C 15.0803571428571 11.2198660714286  15.09375 11.0993303571429  15.0267857142857 10.9787946428571  L 14.5747767857143 10.1551339285714  C 14.5212053571429 10.0613839285714  14.4375 10.0044642857143  14.3236607142857 9.984375  C 14.2165178571429 9.97098214285714  14.1261160714286 10.0078125  14.0524553571429 10.0948660714286  L 14.0122767857143 10.125  C 13.9854910714286 10.1517857142857  13.9469866071429 10.1852678571429  13.8967633928571 10.2254464285714  C 13.8465401785714 10.265625  13.7879464285714 10.3108258928571  13.7209821428571 10.3610491071429  C 13.6540178571429 10.4112723214286  13.5753348214286 10.4598214285714  13.4849330357143 10.5066964285714  C 13.39453125 10.5535714285714  13.2991071428571 10.5970982142857  13.1986607142857 10.6372767857143  C 13.0982142857143 10.6774553571429  12.9860491071429 10.7092633928571  12.8621651785714 10.7327008928571  C 12.73828125 10.7561383928571  12.6127232142857 10.7678571428571  12.4854910714286 10.7678571428571  C 11.9765625 10.7678571428571  11.5580357142857 10.6004464285714  11.2299107142857 10.265625  C 10.9017857142857 9.93080357142857  10.7377232142857 9.50558035714286  10.7377232142857 8.98995535714286  C 10.7377232142857 8.48102678571429  10.8984375 8.06082589285714  11.2198660714286 7.72935267857143  C 11.5412946428571 7.39787946428572  11.9497767857143 7.23214285714286  12.4453125 7.23214285714286  C 12.6930803571429 7.23214285714286  12.9324776785714 7.27901785714286  13.1635044642857 7.37276785714286  C 13.39453125 7.46651785714286  13.5636160714286 7.56026785714286  13.6707589285714 7.65401785714286  L 13.8314732142857 7.79464285714286  C 13.9051339285714 7.86830357142857  13.9921875 7.90178571428571  14.0926339285714 7.89508928571428  C 14.1997767857143 7.88169642857143  14.2801339285714 7.83482142857143  14.3337053571429 7.75446428571428  L 14.8660714285714 6.97098214285714  C 14.953125 6.83705357142857  14.9464285714286 6.70647321428571  14.8459821428571 6.57924107142857  C 14.8258928571429 6.55245535714286  14.7890625 6.51227678571429  14.7354910714286 6.45870535714286  C 14.6819196428571 6.40513392857143  14.5814732142857 6.32645089285714  14.4341517857143 6.22265625  C 14.2868303571429 6.11886160714286  14.1244419642857 6.02511160714286  13.9469866071429 5.94140625  C 13.76953125 5.85770089285714  13.5435267857143 5.78236607142857  13.2689732142857 5.71540178571428  C 12.9944196428571 5.6484375  12.7064732142857 5.61495535714286  12.4051339285714 5.61495535714286  C 11.4207589285714 5.61495535714286  10.5987723214286 5.93805803571428  9.93917410714286 6.58426339285714  C 9.27957589285715 7.23046875  8.94977678571429 8.03571428571428  8.94977678571429 9  C 8.94977678571429 9.97767857142857  9.27455357142857 10.7862723214286  9.92410714285714 11.42578125  Z M 11.8727678571429 2.19475446428571  C 10.9620535714286 1.80301339285714  10.0044642857143 1.60714285714286  9 1.60714285714286  C 7.99553571428571 1.60714285714286  7.03794642857143 1.80301339285714  6.12723214285714 2.19475446428571  C 5.21651785714286 2.58649553571429  4.43136160714286 3.11216517857143  3.77176339285714 3.77176339285714  C 3.11216517857143 4.43136160714286  2.58649553571429 5.21651785714286  2.19475446428571 6.12723214285714  C 1.80301339285714 7.03794642857143  1.60714285714286 7.99553571428572  1.60714285714286 9  C 1.60714285714286 10.0044642857143  1.80301339285714 10.9620535714286  2.19475446428571 11.8727678571429  C 2.58649553571429 12.7834821428571  3.11216517857143 13.5686383928571  3.77176339285714 14.2282366071429  C 4.43136160714286 14.8878348214286  5.21651785714286 15.4135044642857  6.12723214285714 15.8052455357143  C 7.03794642857143 16.1969866071429  7.99553571428571 16.3928571428571  9 16.3928571428571  C 10.0044642857143 16.3928571428571  10.9620535714286 16.1969866071429  11.8727678571429 15.8052455357143  C 12.7834821428571 15.4135044642857  13.5686383928571 14.8878348214286  14.2282366071429 14.2282366071429  C 14.8878348214286 13.5686383928571  15.4135044642857 12.7834821428571  15.8052455357143 11.8727678571429  C 16.1969866071429 10.9620535714286  16.3928571428571 10.0044642857143  16.3928571428571 9  C 16.3928571428571 7.99553571428572  16.1969866071429 7.03794642857143  15.8052455357143 6.12723214285714  C 15.4135044642857 5.21651785714286  14.8878348214286 4.43136160714286  14.2282366071429 3.77176339285714  C 13.5686383928571 3.11216517857143  12.7834821428571 2.58649553571429  11.8727678571429 2.19475446428571  Z M 5.50446428571429 0.713169642857143  C 6.61607142857143 0.237723214285714  7.78125 0  9 0  C 10.21875 0  11.3839285714286 0.237723214285714  12.4955357142857 0.713169642857143  C 13.6071428571429 1.18861607142857  14.5647321428571 1.828125  15.3683035714286 2.63169642857143  C 16.171875 3.43526785714286  16.8113839285714 4.39285714285714  17.2868303571429 5.50446428571428  C 17.7622767857143 6.61607142857143  18 7.78125  18 9  C 18 10.21875  17.7622767857143 11.3839285714286  17.2868303571429 12.4955357142857  C 16.8113839285714 13.6071428571429  16.171875 14.5647321428571  15.3683035714286 15.3683035714286  C 14.5647321428571 16.171875  13.6071428571429 16.8113839285714  12.4955357142857 17.2868303571429  C 11.3839285714286 17.7622767857143  10.21875 18  9 18  C 7.78125 18  6.61607142857143 17.7622767857143  5.50446428571429 17.2868303571429  C 4.39285714285714 16.8113839285714  3.43526785714286 16.171875  2.63169642857143 15.3683035714286  C 1.828125 14.5647321428571  1.18861607142857 13.6071428571429  0.713169642857143 12.4955357142857  C 0.237723214285714 11.3839285714286  0 10.21875  0 9  C 0 7.78125  0.237723214285714 6.61607142857143  0.713169642857143 5.50446428571428  C 1.18861607142857 4.39285714285714  1.828125 3.43526785714286  2.63169642857143 2.63169642857143  C 3.43526785714286 1.828125  4.39285714285714 1.18861607142857  5.50446428571429 0.713169642857143  Z " fill-rule="nonzero" fill="#555555" stroke="none" fill-opacity="0.996078431372549" transform="matrix(1 0 0 1 13 365 )" />
  </g>
</svg>