<?xml version="1.0" encoding="utf-8"?>
<svg version="1.1" xmlns:xlink="http://www.w3.org/1999/xlink" width="18px" height="18px" xmlns="http://www.w3.org/2000/svg">
  <g transform="matrix(1 0 0 1 -13 -331 )">
    <path d="M 9.45200892857143 3.05067567567568  C 9.57924107142857 2.9222972972973  9.64285714285714 2.77027027027027  9.64285714285714 2.59459459459459  C 9.64285714285714 2.41891891891892  9.57924107142857 2.26689189189189  9.45200892857143 2.13851351351351  C 9.32477678571429 2.01013513513513  9.17410714285714 1.94594594594595  9 1.94594594594595  C 8.82589285714286 1.94594594594595  8.67522321428572 2.01013513513513  8.54799107142857 2.13851351351351  C 8.42075892857143 2.26689189189189  8.35714285714286 2.41891891891892  8.35714285714286 2.59459459459459  C 8.35714285714286 2.77027027027027  8.42075892857143 2.9222972972973  8.54799107142857 3.05067567567568  C 8.67522321428572 3.17905405405405  8.82589285714286 3.24324324324324  9 3.24324324324324  C 9.17410714285714 3.24324324324324  9.32477678571429 3.17905405405405  9.45200892857143 3.05067567567568  Z M 17.9095982142857 11.7668918918919  C 17.9698660714286 11.8277027027027  18 11.9054054054054  18 12  L 18 15.5675675675676  C 18 15.7162162162162  17.9330357142857 15.8175675675676  17.7991071428571 15.8716216216216  C 17.7455357142857 15.8851351351351  17.7053571428571 15.8918918918919  17.6785714285714 15.8918918918919  C 17.5982142857143 15.8918918918919  17.5212053571429 15.8614864864865  17.4475446428571 15.8006756756757  L 16.5133928571429 14.8581081081081  C 15.7165178571429 15.8243243243243  14.6501116071429 16.589527027027  13.3141741071429 17.1537162162162  C 11.9782366071429 17.7179054054054  10.5401785714286 18  9 18  C 7.45982142857143 18  6.02176339285714 17.7179054054054  4.68582589285714 17.1537162162162  C 3.34988839285714 16.589527027027  2.28348214285714 15.8243243243243  1.48660714285714 14.8581081081081  L 0.552455357142857 15.8006756756757  C 0.4921875 15.8614864864865  0.415178571428571 15.8918918918919  0.321428571428571 15.8918918918919  C 0.294642857142857 15.8918918918919  0.254464285714286 15.8851351351351  0.200892857142857 15.8716216216216  C 0.0669642857142857 15.8175675675676  0 15.7162162162162  0 15.5675675675676  L 0 12  C 0 11.9054054054054  0.0301339285714286 11.8277027027027  0.0904017857142857 11.7668918918919  C 0.150669642857143 11.7060810810811  0.227678571428571 11.6756756756757  0.321428571428571 11.6756756756757  L 3.85714285714286 11.6756756756757  C 4.00446428571429 11.6756756756757  4.10491071428571 11.7432432432432  4.15848214285714 11.8783783783784  C 4.21205357142857 12.0067567567568  4.18861607142857 12.125  4.08816964285714 12.2331081081081  L 3.08370535714286 13.2466216216216  C 3.53236607142857 13.8614864864865  4.16685267857143 14.3800675675676  4.98716517857143 14.8023648648649  C 5.80747767857143 15.2246621621622  6.71651785714286 15.5033783783784  7.71428571428571 15.6385135135135  L 7.71428571428571 9.08108108108108  L 5.78571428571429 9.08108108108108  C 5.61160714285714 9.08108108108108  5.4609375 9.01689189189189  5.33370535714286 8.88851351351351  C 5.20647321428571 8.76013513513514  5.14285714285714 8.60810810810811  5.14285714285714 8.43243243243243  L 5.14285714285714 7.13513513513513  C 5.14285714285714 6.95945945945946  5.20647321428571 6.80743243243243  5.33370535714286 6.67905405405405  C 5.4609375 6.55067567567567  5.61160714285714 6.48648648648649  5.78571428571429 6.48648648648649  L 7.71428571428571 6.48648648648649  L 7.71428571428571 4.83445945945946  C 7.32589285714286 4.60472972972973  7.01450892857143 4.29222972972973  6.78013392857143 3.89695945945946  C 6.54575892857143 3.50168918918919  6.42857142857143 3.06756756756757  6.42857142857143 2.59459459459459  C 6.42857142857143 1.87837837837838  6.6796875 1.26689189189189  7.18191964285714 0.760135135135135  C 7.68415178571429 0.253378378378378  8.29017857142857 0  9 0  C 9.70982142857143 0  10.3158482142857 0.253378378378378  10.8180803571429 0.760135135135135  C 11.3203125 1.26689189189189  11.5714285714286 1.87837837837838  11.5714285714286 2.59459459459459  C 11.5714285714286 3.06756756756757  11.4542410714286 3.50168918918919  11.2198660714286 3.89695945945946  C 10.9854910714286 4.29222972972973  10.6741071428571 4.60472972972973  10.2857142857143 4.83445945945946  L 10.2857142857143 6.48648648648649  L 12.2142857142857 6.48648648648649  C 12.3883928571429 6.48648648648649  12.5390625 6.55067567567567  12.6662946428571 6.67905405405405  C 12.7935267857143 6.80743243243243  12.8571428571429 6.95945945945946  12.8571428571429 7.13513513513513  L 12.8571428571429 8.43243243243243  C 12.8571428571429 8.60810810810811  12.7935267857143 8.76013513513514  12.6662946428571 8.88851351351351  C 12.5390625 9.01689189189189  12.3883928571429 9.08108108108108  12.2142857142857 9.08108108108108  L 10.2857142857143 9.08108108108108  L 10.2857142857143 15.6385135135135  C 11.2834821428571 15.5033783783784  12.1925223214286 15.2246621621622  13.0128348214286 14.8023648648649  C 13.8331473214286 14.3800675675676  14.4676339285714 13.8614864864865  14.9162946428571 13.2466216216216  L 13.9118303571429 12.2331081081081  C 13.8113839285714 12.125  13.7879464285714 12.0067567567568  13.8415178571429 11.8783783783784  C 13.8950892857143 11.7432432432432  13.9955357142857 11.6756756756757  14.1428571428571 11.6756756756757  L 17.6785714285714 11.6756756756757  C 17.7723214285714 11.6756756756757  17.8493303571429 11.7060810810811  17.9095982142857 11.7668918918919  Z " fill-rule="nonzero" fill="#555555" stroke="none" fill-opacity="0.996078431372549" transform="matrix(1 0 0 1 13 331 )" />
  </g>
</svg>