<?xml version="1.0" encoding="utf-8"?>
<svg version="1.1" xmlns:xlink="http://www.w3.org/1999/xlink" width="12px" height="12px" viewBox="353 2020  12 12" xmlns="http://www.w3.org/2000/svg">
  <path d="M 359 2020  C 362.36 2020  365 2022.64  365 2026  C 365 2029.36  362.36 2032  359 2032  C 355.64 2032  353 2029.36  353 2026  C 353 2022.64  355.64 2020  359 2020  Z " fill-rule="nonzero" fill="#f0f0f0" stroke="none" />
  <path d="M 359 2020.5  C 362.08 2020.5  364.5 2022.92  364.5 2026  C 364.5 2029.08  362.08 2031.5  359 2031.5  C 355.92 2031.5  353.5 2029.08  353.5 2026  C 353.5 2022.92  355.92 2020.5  359 2020.5  Z " stroke-width="1" stroke="#797979" fill="none" />
  <path d="M 359 2029  C 357.32 2029  356 2027.68  356 2026  C 356 2024.32  357.32 2023  359 2023  C 360.68 2023  362 2024.32  362 2026  C 362 2027.68  360.68 2029  359 2029  " fill-rule="nonzero" fill="#797979" stroke="none" />
</svg>