<?xml version="1.0" encoding="utf-8"?>
<svg version="1.1" xmlns:xlink="http://www.w3.org/1999/xlink" width="12px" height="12px" viewBox="353 881  12 12" xmlns="http://www.w3.org/2000/svg">
  <path d="M 359 881  C 362.36 881  365 883.64  365 887  C 365 890.36  362.36 893  359 893  C 355.64 893  353 890.36  353 887  C 353 883.64  355.64 881  359 881  Z " fill-rule="nonzero" fill="#f0f0f0" stroke="none" />
  <path d="M 359 881.5  C 362.08 881.5  364.5 883.92  364.5 887  C 364.5 890.08  362.08 892.5  359 892.5  C 355.92 892.5  353.5 890.08  353.5 887  C 353.5 883.92  355.92 881.5  359 881.5  Z " stroke-width="1" stroke="#797979" fill="none" />
  <path d="M 359 890  C 357.32 890  356 888.68  356 887  C 356 885.32  357.32 884  359 884  C 360.68 884  362 885.32  362 887  C 362 888.68  360.68 890  359 890  " fill-rule="nonzero" fill="#797979" stroke="none" />
</svg>