<?xml version="1.0" encoding="utf-8"?>
<svg version="1.1" xmlns:xlink="http://www.w3.org/1999/xlink" width="12px" height="12px" viewBox="353 734  12 12" xmlns="http://www.w3.org/2000/svg">
  <path d="M 359 734  C 362.36 734  365 736.64  365 740  C 365 743.36  362.36 746  359 746  C 355.64 746  353 743.36  353 740  C 353 736.64  355.64 734  359 734  Z " fill-rule="nonzero" fill="#f0f0f0" stroke="none" />
  <path d="M 359 734.5  C 362.08 734.5  364.5 736.92  364.5 740  C 364.5 743.08  362.08 745.5  359 745.5  C 355.92 745.5  353.5 743.08  353.5 740  C 353.5 736.92  355.92 734.5  359 734.5  Z " stroke-width="1" stroke="#797979" fill="none" />
  <path d="M 359 743  C 357.32 743  356 741.68  356 740  C 356 738.32  357.32 737  359 737  C 360.68 737  362 738.32  362 740  C 362 741.68  360.68 743  359 743  " fill-rule="nonzero" fill="#797979" stroke="none" />
</svg>