<?xml version="1.0" encoding="utf-8"?>
<svg version="1.1" xmlns:xlink="http://www.w3.org/1999/xlink" width="12px" height="12px" viewBox="353 1269  12 12" xmlns="http://www.w3.org/2000/svg">
  <path d="M 359 1269  C 362.36 1269  365 1271.64  365 1275  C 365 1278.36  362.36 1281  359 1281  C 355.64 1281  353 1278.36  353 1275  C 353 1271.64  355.64 1269  359 1269  Z " fill-rule="nonzero" fill="#f0f0f0" stroke="none" />
  <path d="M 359 1269.5  C 362.08 1269.5  364.5 1271.92  364.5 1275  C 364.5 1278.08  362.08 1280.5  359 1280.5  C 355.92 1280.5  353.5 1278.08  353.5 1275  C 353.5 1271.92  355.92 1269.5  359 1269.5  Z " stroke-width="1" stroke="#797979" fill="none" />
  <path d="M 359 1278  C 357.32 1278  356 1276.68  356 1275  C 356 1273.32  357.32 1272  359 1272  C 360.68 1272  362 1273.32  362 1275  C 362 1276.68  360.68 1278  359 1278  " fill-rule="nonzero" fill="#797979" stroke="none" />
</svg>