<?xml version="1.0" encoding="utf-8"?>
<svg version="1.1" xmlns:xlink="http://www.w3.org/1999/xlink" width="12px" height="12px" viewBox="353 1570  12 12" xmlns="http://www.w3.org/2000/svg">
  <path d="M 359 1570  C 362.36 1570  365 1572.64  365 1576  C 365 1579.36  362.36 1582  359 1582  C 355.64 1582  353 1579.36  353 1576  C 353 1572.64  355.64 1570  359 1570  Z " fill-rule="nonzero" fill="#ffffff" stroke="none" />
  <path d="M 359 1570.5  C 362.08 1570.5  364.5 1572.92  364.5 1576  C 364.5 1579.08  362.08 1581.5  359 1581.5  C 355.92 1581.5  353.5 1579.08  353.5 1576  C 353.5 1572.92  355.92 1570.5  359 1570.5  Z " stroke-width="1" stroke="#797979" fill="none" />
  <path d="M 359 1579  C 357.32 1579  356 1577.68  356 1576  C 356 1574.32  357.32 1573  359 1573  C 360.68 1573  362 1574.32  362 1576  C 362 1577.68  360.68 1579  359 1579  " fill-rule="nonzero" fill="#797979" stroke="none" />
</svg>