<?xml version="1.0" encoding="utf-8"?>
<svg version="1.1" xmlns:xlink="http://www.w3.org/1999/xlink" width="12px" height="12px" viewBox="353 1449  12 12" xmlns="http://www.w3.org/2000/svg">
  <path d="M 359 1449  C 362.36 1449  365 1451.64  365 1455  C 365 1458.36  362.36 1461  359 1461  C 355.64 1461  353 1458.36  353 1455  C 353 1451.64  355.64 1449  359 1449  Z " fill-rule="nonzero" fill="#f0f0f0" stroke="none" />
  <path d="M 359 1449.5  C 362.08 1449.5  364.5 1451.92  364.5 1455  C 364.5 1458.08  362.08 1460.5  359 1460.5  C 355.92 1460.5  353.5 1458.08  353.5 1455  C 353.5 1451.92  355.92 1449.5  359 1449.5  Z " stroke-width="1" stroke="#797979" fill="none" />
  <path d="M 359 1458  C 357.32 1458  356 1456.68  356 1455  C 356 1453.32  357.32 1452  359 1452  C 360.68 1452  362 1453.32  362 1455  C 362 1456.68  360.68 1458  359 1458  " fill-rule="nonzero" fill="#797979" stroke="none" />
</svg>