<?xml version="1.0" encoding="utf-8"?>
<svg version="1.1" xmlns:xlink="http://www.w3.org/1999/xlink" width="12px" height="12px" viewBox="353 2379  12 12" xmlns="http://www.w3.org/2000/svg">
  <path d="M 359 2379  C 362.36 2379  365 2381.64  365 2385  C 365 2388.36  362.36 2391  359 2391  C 355.64 2391  353 2388.36  353 2385  C 353 2381.64  355.64 2379  359 2379  Z " fill-rule="nonzero" fill="#ffffff" stroke="none" />
  <path d="M 359 2379.5  C 362.08 2379.5  364.5 2381.92  364.5 2385  C 364.5 2388.08  362.08 2390.5  359 2390.5  C 355.92 2390.5  353.5 2388.08  353.5 2385  C 353.5 2381.92  355.92 2379.5  359 2379.5  Z " stroke-width="1" stroke="#797979" fill="none" />
  <path d="M 359 2388  C 357.32 2388  356 2386.68  356 2385  C 356 2383.32  357.32 2382  359 2382  C 360.68 2382  362 2383.32  362 2385  C 362 2386.68  360.68 2388  359 2388  " fill-rule="nonzero" fill="#797979" stroke="none" />
</svg>