<?xml version="1.0" encoding="utf-8"?>
<svg version="1.1" xmlns:xlink="http://www.w3.org/1999/xlink" width="12px" height="12px" viewBox="353 1600  12 12" xmlns="http://www.w3.org/2000/svg">
  <path d="M 359 1600  C 362.36 1600  365 1602.64  365 1606  C 365 1609.36  362.36 1612  359 1612  C 355.64 1612  353 1609.36  353 1606  C 353 1602.64  355.64 1600  359 1600  Z " fill-rule="nonzero" fill="#ffffff" stroke="none" />
  <path d="M 359 1600.5  C 362.08 1600.5  364.5 1602.92  364.5 1606  C 364.5 1609.08  362.08 1611.5  359 1611.5  C 355.92 1611.5  353.5 1609.08  353.5 1606  C 353.5 1602.92  355.92 1600.5  359 1600.5  Z " stroke-width="1" stroke="#797979" fill="none" />
  <path d="M 359 1609  C 357.32 1609  356 1607.68  356 1606  C 356 1604.32  357.32 1603  359 1603  C 360.68 1603  362 1604.32  362 1606  C 362 1607.68  360.68 1609  359 1609  " fill-rule="nonzero" fill="#797979" stroke="none" />
</svg>