<?xml version="1.0" encoding="utf-8"?>
<svg version="1.1" xmlns:xlink="http://www.w3.org/1999/xlink" width="12px" height="12px" viewBox="353 1239  12 12" xmlns="http://www.w3.org/2000/svg">
  <path d="M 359 1239  C 362.36 1239  365 1241.64  365 1245  C 365 1248.36  362.36 1251  359 1251  C 355.64 1251  353 1248.36  353 1245  C 353 1241.64  355.64 1239  359 1239  Z " fill-rule="nonzero" fill="#f0f0f0" stroke="none" />
  <path d="M 359 1239.5  C 362.08 1239.5  364.5 1241.92  364.5 1245  C 364.5 1248.08  362.08 1250.5  359 1250.5  C 355.92 1250.5  353.5 1248.08  353.5 1245  C 353.5 1241.92  355.92 1239.5  359 1239.5  Z " stroke-width="1" stroke="#797979" fill="none" />
  <path d="M 359 1248  C 357.32 1248  356 1246.68  356 1245  C 356 1243.32  357.32 1242  359 1242  C 360.68 1242  362 1243.32  362 1245  C 362 1246.68  360.68 1248  359 1248  " fill-rule="nonzero" fill="#797979" stroke="none" />
</svg>