<?xml version="1.0" encoding="utf-8"?>
<svg version="1.1" xmlns:xlink="http://www.w3.org/1999/xlink" width="12px" height="12px" viewBox="353 2289  12 12" xmlns="http://www.w3.org/2000/svg">
  <path d="M 359 2289  C 362.36 2289  365 2291.64  365 2295  C 365 2298.36  362.36 2301  359 2301  C 355.64 2301  353 2298.36  353 2295  C 353 2291.64  355.64 2289  359 2289  Z " fill-rule="nonzero" fill="#ffffff" stroke="none" />
  <path d="M 359 2289.5  C 362.08 2289.5  364.5 2291.92  364.5 2295  C 364.5 2298.08  362.08 2300.5  359 2300.5  C 355.92 2300.5  353.5 2298.08  353.5 2295  C 353.5 2291.92  355.92 2289.5  359 2289.5  Z " stroke-width="1" stroke="#797979" fill="none" />
  <path d="M 359 2298  C 357.32 2298  356 2296.68  356 2295  C 356 2293.32  357.32 2292  359 2292  C 360.68 2292  362 2293.32  362 2295  C 362 2296.68  360.68 2298  359 2298  " fill-rule="nonzero" fill="#797979" stroke="none" />
</svg>