<?xml version="1.0" encoding="utf-8"?>
<svg version="1.1" xmlns:xlink="http://www.w3.org/1999/xlink" width="12px" height="12px" viewBox="353 1359  12 12" xmlns="http://www.w3.org/2000/svg">
  <path d="M 359 1359  C 362.36 1359  365 1361.64  365 1365  C 365 1368.36  362.36 1371  359 1371  C 355.64 1371  353 1368.36  353 1365  C 353 1361.64  355.64 1359  359 1359  Z " fill-rule="nonzero" fill="#f0f0f0" stroke="none" />
  <path d="M 359 1359.5  C 362.08 1359.5  364.5 1361.92  364.5 1365  C 364.5 1368.08  362.08 1370.5  359 1370.5  C 355.92 1370.5  353.5 1368.08  353.5 1365  C 353.5 1361.92  355.92 1359.5  359 1359.5  Z " stroke-width="1" stroke="#797979" fill="none" />
  <path d="M 359 1368  C 357.32 1368  356 1366.68  356 1365  C 356 1363.32  357.32 1362  359 1362  C 360.68 1362  362 1363.32  362 1365  C 362 1366.68  360.68 1368  359 1368  " fill-rule="nonzero" fill="#797979" stroke="none" />
</svg>