<?xml version="1.0" encoding="utf-8"?>
<svg version="1.1" xmlns:xlink="http://www.w3.org/1999/xlink" width="12px" height="12px" viewBox="353 1540  12 12" xmlns="http://www.w3.org/2000/svg">
  <path d="M 359 1540  C 362.36 1540  365 1542.64  365 1546  C 365 1549.36  362.36 1552  359 1552  C 355.64 1552  353 1549.36  353 1546  C 353 1542.64  355.64 1540  359 1540  Z " fill-rule="nonzero" fill="#f0f0f0" stroke="none" />
  <path d="M 359 1540.5  C 362.08 1540.5  364.5 1542.92  364.5 1546  C 364.5 1549.08  362.08 1551.5  359 1551.5  C 355.92 1551.5  353.5 1549.08  353.5 1546  C 353.5 1542.92  355.92 1540.5  359 1540.5  Z " stroke-width="1" stroke="#797979" fill="none" />
  <path d="M 359 1549  C 357.32 1549  356 1547.68  356 1546  C 356 1544.32  357.32 1543  359 1543  C 360.68 1543  362 1544.32  362 1546  C 362 1547.68  360.68 1549  359 1549  " fill-rule="nonzero" fill="#797979" stroke="none" />
</svg>