<?xml version="1.0" encoding="utf-8"?>
<svg version="1.1" xmlns:xlink="http://www.w3.org/1999/xlink" width="12px" height="12px" viewBox="353 1030  12 12" xmlns="http://www.w3.org/2000/svg">
  <path d="M 359 1030  C 362.36 1030  365 1032.64  365 1036  C 365 1039.36  362.36 1042  359 1042  C 355.64 1042  353 1039.36  353 1036  C 353 1032.64  355.64 1030  359 1030  Z " fill-rule="nonzero" fill="#f0f0f0" stroke="none" />
  <path d="M 359 1030.5  C 362.08 1030.5  364.5 1032.92  364.5 1036  C 364.5 1039.08  362.08 1041.5  359 1041.5  C 355.92 1041.5  353.5 1039.08  353.5 1036  C 353.5 1032.92  355.92 1030.5  359 1030.5  Z " stroke-width="1" stroke="#797979" fill="none" />
  <path d="M 359 1039  C 357.32 1039  356 1037.68  356 1036  C 356 1034.32  357.32 1033  359 1033  C 360.68 1033  362 1034.32  362 1036  C 362 1037.68  360.68 1039  359 1039  " fill-rule="nonzero" fill="#797979" stroke="none" />
</svg>