<?xml version="1.0" encoding="utf-8"?>
<svg version="1.1" xmlns:xlink="http://www.w3.org/1999/xlink" width="12px" height="12px" viewBox="353 550  12 12" xmlns="http://www.w3.org/2000/svg">
  <path d="M 359 550  C 362.36 550  365 552.64  365 556  C 365 559.36  362.36 562  359 562  C 355.64 562  353 559.36  353 556  C 353 552.64  355.64 550  359 550  Z " fill-rule="nonzero" fill="#ffffff" stroke="none" />
  <path d="M 359 550.5  C 362.08 550.5  364.5 552.92  364.5 556  C 364.5 559.08  362.08 561.5  359 561.5  C 355.92 561.5  353.5 559.08  353.5 556  C 353.5 552.92  355.92 550.5  359 550.5  Z " stroke-width="1" stroke="#797979" fill="none" />
  <path d="M 359 559  C 357.32 559  356 557.68  356 556  C 356 554.32  357.32 553  359 553  C 360.68 553  362 554.32  362 556  C 362 557.68  360.68 559  359 559  " fill-rule="nonzero" fill="#797979" stroke="none" />
</svg>