<?xml version="1.0" encoding="utf-8"?>
<svg version="1.1" xmlns:xlink="http://www.w3.org/1999/xlink" width="12px" height="12px" viewBox="353 2588  12 12" xmlns="http://www.w3.org/2000/svg">
  <path d="M 359 2588  C 362.36 2588  365 2590.64  365 2594  C 365 2597.36  362.36 2600  359 2600  C 355.64 2600  353 2597.36  353 2594  C 353 2590.64  355.64 2588  359 2588  Z " fill-rule="nonzero" fill="#ffffff" stroke="none" />
  <path d="M 359 2588.5  C 362.08 2588.5  364.5 2590.92  364.5 2594  C 364.5 2597.08  362.08 2599.5  359 2599.5  C 355.92 2599.5  353.5 2597.08  353.5 2594  C 353.5 2590.92  355.92 2588.5  359 2588.5  Z " stroke-width="1" stroke="#797979" fill="none" />
  <path d="M 359 2597  C 357.32 2597  356 2595.68  356 2594  C 356 2592.32  357.32 2591  359 2591  C 360.68 2591  362 2592.32  362 2594  C 362 2595.68  360.68 2597  359 2597  " fill-rule="nonzero" fill="#797979" stroke="none" />
</svg>