<?xml version="1.0" encoding="utf-8"?>
<svg version="1.1" xmlns:xlink="http://www.w3.org/1999/xlink" width="12px" height="12px" viewBox="353 2528  12 12" xmlns="http://www.w3.org/2000/svg">
  <path d="M 359 2528  C 362.36 2528  365 2530.64  365 2534  C 365 2537.36  362.36 2540  359 2540  C 355.64 2540  353 2537.36  353 2534  C 353 2530.64  355.64 2528  359 2528  Z " fill-rule="nonzero" fill="#ffffff" stroke="none" />
  <path d="M 359 2528.5  C 362.08 2528.5  364.5 2530.92  364.5 2534  C 364.5 2537.08  362.08 2539.5  359 2539.5  C 355.92 2539.5  353.5 2537.08  353.5 2534  C 353.5 2530.92  355.92 2528.5  359 2528.5  Z " stroke-width="1" stroke="#797979" fill="none" />
  <path d="M 359 2537  C 357.32 2537  356 2535.68  356 2534  C 356 2532.32  357.32 2531  359 2531  C 360.68 2531  362 2532.32  362 2534  C 362 2535.68  360.68 2537  359 2537  " fill-rule="nonzero" fill="#797979" stroke="none" />
</svg>