<?xml version="1.0" encoding="utf-8"?>
<svg version="1.1" xmlns:xlink="http://www.w3.org/1999/xlink" width="12px" height="12px" viewBox="353 1810  12 12" xmlns="http://www.w3.org/2000/svg">
  <path d="M 359 1810  C 362.36 1810  365 1812.64  365 1816  C 365 1819.36  362.36 1822  359 1822  C 355.64 1822  353 1819.36  353 1816  C 353 1812.64  355.64 1810  359 1810  Z " fill-rule="nonzero" fill="#ffffff" stroke="none" />
  <path d="M 359 1810.5  C 362.08 1810.5  364.5 1812.92  364.5 1816  C 364.5 1819.08  362.08 1821.5  359 1821.5  C 355.92 1821.5  353.5 1819.08  353.5 1816  C 353.5 1812.92  355.92 1810.5  359 1810.5  Z " stroke-width="1" stroke="#797979" fill="none" />
  <path d="M 359 1819  C 357.32 1819  356 1817.68  356 1816  C 356 1814.32  357.32 1813  359 1813  C 360.68 1813  362 1814.32  362 1816  C 362 1817.68  360.68 1819  359 1819  " fill-rule="nonzero" fill="#797979" stroke="none" />
</svg>