<?xml version="1.0" encoding="utf-8"?>
<svg version="1.1" xmlns:xlink="http://www.w3.org/1999/xlink" width="12px" height="12px" viewBox="353 1660  12 12" xmlns="http://www.w3.org/2000/svg">
  <path d="M 359 1660  C 362.36 1660  365 1662.64  365 1666  C 365 1669.36  362.36 1672  359 1672  C 355.64 1672  353 1669.36  353 1666  C 353 1662.64  355.64 1660  359 1660  Z " fill-rule="nonzero" fill="#f0f0f0" stroke="none" />
  <path d="M 359 1660.5  C 362.08 1660.5  364.5 1662.92  364.5 1666  C 364.5 1669.08  362.08 1671.5  359 1671.5  C 355.92 1671.5  353.5 1669.08  353.5 1666  C 353.5 1662.92  355.92 1660.5  359 1660.5  Z " stroke-width="1" stroke="#797979" fill="none" />
  <path d="M 359 1669  C 357.32 1669  356 1667.68  356 1666  C 356 1664.32  357.32 1663  359 1663  C 360.68 1663  362 1664.32  362 1666  C 362 1667.68  360.68 1669  359 1669  " fill-rule="nonzero" fill="#797979" stroke="none" />
</svg>