<?xml version="1.0" encoding="utf-8"?>
<svg version="1.1" xmlns:xlink="http://www.w3.org/1999/xlink" width="12px" height="12px" viewBox="353 704  12 12" xmlns="http://www.w3.org/2000/svg">
  <path d="M 359 704  C 362.36 704  365 706.64  365 710  C 365 713.36  362.36 716  359 716  C 355.64 716  353 713.36  353 710  C 353 706.64  355.64 704  359 704  Z " fill-rule="nonzero" fill="#ffffff" stroke="none" />
  <path d="M 359 704.5  C 362.08 704.5  364.5 706.92  364.5 710  C 364.5 713.08  362.08 715.5  359 715.5  C 355.92 715.5  353.5 713.08  353.5 710  C 353.5 706.92  355.92 704.5  359 704.5  Z " stroke-width="1" stroke="#797979" fill="none" />
  <path d="M 359 713  C 357.32 713  356 711.68  356 710  C 356 708.32  357.32 707  359 707  C 360.68 707  362 708.32  362 710  C 362 711.68  360.68 713  359 713  " fill-rule="nonzero" fill="#797979" stroke="none" />
</svg>