<?xml version="1.0" encoding="utf-8"?>
<svg version="1.1" xmlns:xlink="http://www.w3.org/1999/xlink" width="12px" height="12px" viewBox="353 1000  12 12" xmlns="http://www.w3.org/2000/svg">
  <path d="M 359 1000  C 362.36 1000  365 1002.64  365 1006  C 365 1009.36  362.36 1012  359 1012  C 355.64 1012  353 1009.36  353 1006  C 353 1002.64  355.64 1000  359 1000  Z " fill-rule="nonzero" fill="#f0f0f0" stroke="none" />
  <path d="M 359 1000.5  C 362.08 1000.5  364.5 1002.92  364.5 1006  C 364.5 1009.08  362.08 1011.5  359 1011.5  C 355.92 1011.5  353.5 1009.08  353.5 1006  C 353.5 1002.92  355.92 1000.5  359 1000.5  Z " stroke-width="1" stroke="#797979" fill="none" />
  <path d="M 359 1009  C 357.32 1009  356 1007.68  356 1006  C 356 1004.32  357.32 1003  359 1003  C 360.68 1003  362 1004.32  362 1006  C 362 1007.68  360.68 1009  359 1009  " fill-rule="nonzero" fill="#797979" stroke="none" />
</svg>