<?xml version="1.0" encoding="utf-8"?>
<svg version="1.1" xmlns:xlink="http://www.w3.org/1999/xlink" width="12px" height="12px" viewBox="353 1090  12 12" xmlns="http://www.w3.org/2000/svg">
  <path d="M 359 1090  C 362.36 1090  365 1092.64  365 1096  C 365 1099.36  362.36 1102  359 1102  C 355.64 1102  353 1099.36  353 1096  C 353 1092.64  355.64 1090  359 1090  Z " fill-rule="nonzero" fill="#f0f0f0" stroke="none" />
  <path d="M 359 1090.5  C 362.08 1090.5  364.5 1092.92  364.5 1096  C 364.5 1099.08  362.08 1101.5  359 1101.5  C 355.92 1101.5  353.5 1099.08  353.5 1096  C 353.5 1092.92  355.92 1090.5  359 1090.5  Z " stroke-width="1" stroke="#797979" fill="none" />
  <path d="M 359 1099  C 357.32 1099  356 1097.68  356 1096  C 356 1094.32  357.32 1093  359 1093  C 360.68 1093  362 1094.32  362 1096  C 362 1097.68  360.68 1099  359 1099  " fill-rule="nonzero" fill="#797979" stroke="none" />
</svg>