<?xml version="1.0" encoding="utf-8"?>
<svg version="1.1" xmlns:xlink="http://www.w3.org/1999/xlink" width="12px" height="12px" viewBox="353 941  12 12" xmlns="http://www.w3.org/2000/svg">
  <path d="M 359 941  C 362.36 941  365 943.64  365 947  C 365 950.36  362.36 953  359 953  C 355.64 953  353 950.36  353 947  C 353 943.64  355.64 941  359 941  Z " fill-rule="nonzero" fill="#ffffff" stroke="none" />
  <path d="M 359 941.5  C 362.08 941.5  364.5 943.92  364.5 947  C 364.5 950.08  362.08 952.5  359 952.5  C 355.92 952.5  353.5 950.08  353.5 947  C 353.5 943.92  355.92 941.5  359 941.5  Z " stroke-width="1" stroke="#797979" fill="none" />
  <path d="M 359 950  C 357.32 950  356 948.68  356 947  C 356 945.32  357.32 944  359 944  C 360.68 944  362 945.32  362 947  C 362 948.68  360.68 950  359 950  " fill-rule="nonzero" fill="#797979" stroke="none" />
</svg>