<?xml version="1.0" encoding="utf-8"?>
<svg version="1.1" xmlns:xlink="http://www.w3.org/1999/xlink" width="12px" height="12px" viewBox="353 1299  12 12" xmlns="http://www.w3.org/2000/svg">
  <path d="M 359 1299  C 362.36 1299  365 1301.64  365 1305  C 365 1308.36  362.36 1311  359 1311  C 355.64 1311  353 1308.36  353 1305  C 353 1301.64  355.64 1299  359 1299  Z " fill-rule="nonzero" fill="#f0f0f0" stroke="none" />
  <path d="M 359 1299.5  C 362.08 1299.5  364.5 1301.92  364.5 1305  C 364.5 1308.08  362.08 1310.5  359 1310.5  C 355.92 1310.5  353.5 1308.08  353.5 1305  C 353.5 1301.92  355.92 1299.5  359 1299.5  Z " stroke-width="1" stroke="#797979" fill="none" />
  <path d="M 359 1308  C 357.32 1308  356 1306.68  356 1305  C 356 1303.32  357.32 1302  359 1302  C 360.68 1302  362 1303.32  362 1305  C 362 1306.68  360.68 1308  359 1308  " fill-rule="nonzero" fill="#797979" stroke="none" />
</svg>