<?xml version="1.0" encoding="utf-8"?>
<svg version="1.1" xmlns:xlink="http://www.w3.org/1999/xlink" width="12px" height="12px" viewBox="353 1960  12 12" xmlns="http://www.w3.org/2000/svg">
  <path d="M 359 1960  C 362.36 1960  365 1962.64  365 1966  C 365 1969.36  362.36 1972  359 1972  C 355.64 1972  353 1969.36  353 1966  C 353 1962.64  355.64 1960  359 1960  Z " fill-rule="nonzero" fill="#f0f0f0" stroke="none" />
  <path d="M 359 1960.5  C 362.08 1960.5  364.5 1962.92  364.5 1966  C 364.5 1969.08  362.08 1971.5  359 1971.5  C 355.92 1971.5  353.5 1969.08  353.5 1966  C 353.5 1962.92  355.92 1960.5  359 1960.5  Z " stroke-width="1" stroke="#797979" fill="none" />
  <path d="M 359 1969  C 357.32 1969  356 1967.68  356 1966  C 356 1964.32  357.32 1963  359 1963  C 360.68 1963  362 1964.32  362 1966  C 362 1967.68  360.68 1969  359 1969  " fill-rule="nonzero" fill="#797979" stroke="none" />
</svg>