<?xml version="1.0" encoding="utf-8"?>
<svg version="1.1" xmlns:xlink="http://www.w3.org/1999/xlink" width="12px" height="12px" viewBox="353 1720  12 12" xmlns="http://www.w3.org/2000/svg">
  <path d="M 359 1720  C 362.36 1720  365 1722.64  365 1726  C 365 1729.36  362.36 1732  359 1732  C 355.64 1732  353 1729.36  353 1726  C 353 1722.64  355.64 1720  359 1720  Z " fill-rule="nonzero" fill="#f0f0f0" stroke="none" />
  <path d="M 359 1720.5  C 362.08 1720.5  364.5 1722.92  364.5 1726  C 364.5 1729.08  362.08 1731.5  359 1731.5  C 355.92 1731.5  353.5 1729.08  353.5 1726  C 353.5 1722.92  355.92 1720.5  359 1720.5  Z " stroke-width="1" stroke="#797979" fill="none" />
  <path d="M 359 1729  C 357.32 1729  356 1727.68  356 1726  C 356 1724.32  357.32 1723  359 1723  C 360.68 1723  362 1724.32  362 1726  C 362 1727.68  360.68 1729  359 1729  " fill-rule="nonzero" fill="#797979" stroke="none" />
</svg>