<?xml version="1.0" encoding="utf-8"?>
<svg version="1.1" xmlns:xlink="http://www.w3.org/1999/xlink" width="12px" height="12px" viewBox="353 1780  12 12" xmlns="http://www.w3.org/2000/svg">
  <path d="M 359 1780  C 362.36 1780  365 1782.64  365 1786  C 365 1789.36  362.36 1792  359 1792  C 355.64 1792  353 1789.36  353 1786  C 353 1782.64  355.64 1780  359 1780  Z " fill-rule="nonzero" fill="#f0f0f0" stroke="none" />
  <path d="M 359 1780.5  C 362.08 1780.5  364.5 1782.92  364.5 1786  C 364.5 1789.08  362.08 1791.5  359 1791.5  C 355.92 1791.5  353.5 1789.08  353.5 1786  C 353.5 1782.92  355.92 1780.5  359 1780.5  Z " stroke-width="1" stroke="#797979" fill="none" />
  <path d="M 359 1789  C 357.32 1789  356 1787.68  356 1786  C 356 1784.32  357.32 1783  359 1783  C 360.68 1783  362 1784.32  362 1786  C 362 1787.68  360.68 1789  359 1789  " fill-rule="nonzero" fill="#797979" stroke="none" />
</svg>