<?xml version="1.0" encoding="utf-8"?>
<svg version="1.1" xmlns:xlink="http://www.w3.org/1999/xlink" width="12px" height="12px" viewBox="353 2198  12 12" xmlns="http://www.w3.org/2000/svg">
  <path d="M 359 2198  C 362.36 2198  365 2200.64  365 2204  C 365 2207.36  362.36 2210  359 2210  C 355.64 2210  353 2207.36  353 2204  C 353 2200.64  355.64 2198  359 2198  Z " fill-rule="nonzero" fill="#f0f0f0" stroke="none" />
  <path d="M 359 2198.5  C 362.08 2198.5  364.5 2200.92  364.5 2204  C 364.5 2207.08  362.08 2209.5  359 2209.5  C 355.92 2209.5  353.5 2207.08  353.5 2204  C 353.5 2200.92  355.92 2198.5  359 2198.5  Z " stroke-width="1" stroke="#797979" fill="none" />
  <path d="M 359 2207  C 357.32 2207  356 2205.68  356 2204  C 356 2202.32  357.32 2201  359 2201  C 360.68 2201  362 2202.32  362 2204  C 362 2205.68  360.68 2207  359 2207  " fill-rule="nonzero" fill="#797979" stroke="none" />
</svg>