<?xml version="1.0" encoding="utf-8"?>
<svg version="1.1" xmlns:xlink="http://www.w3.org/1999/xlink" width="12px" height="12px" viewBox="353 644  12 12" xmlns="http://www.w3.org/2000/svg">
  <path d="M 359 644  C 362.36 644  365 646.64  365 650  C 365 653.36  362.36 656  359 656  C 355.64 656  353 653.36  353 650  C 353 646.64  355.64 644  359 644  Z " fill-rule="nonzero" fill="#ffffff" stroke="none" />
  <path d="M 359 644.5  C 362.08 644.5  364.5 646.92  364.5 650  C 364.5 653.08  362.08 655.5  359 655.5  C 355.92 655.5  353.5 653.08  353.5 650  C 353.5 646.92  355.92 644.5  359 644.5  Z " stroke-width="1" stroke="#797979" fill="none" />
  <path d="M 359 653  C 357.32 653  356 651.68  356 650  C 356 648.32  357.32 647  359 647  C 360.68 647  362 648.32  362 650  C 362 651.68  360.68 653  359 653  " fill-rule="nonzero" fill="#797979" stroke="none" />
</svg>