<?xml version="1.0" encoding="utf-8"?>
<svg version="1.1" xmlns:xlink="http://www.w3.org/1999/xlink" width="12px" height="12px" viewBox="353 2558  12 12" xmlns="http://www.w3.org/2000/svg">
  <path d="M 359 2558  C 362.36 2558  365 2560.64  365 2564  C 365 2567.36  362.36 2570  359 2570  C 355.64 2570  353 2567.36  353 2564  C 353 2560.64  355.64 2558  359 2558  Z " fill-rule="nonzero" fill="#f0f0f0" stroke="none" />
  <path d="M 359 2558.5  C 362.08 2558.5  364.5 2560.92  364.5 2564  C 364.5 2567.08  362.08 2569.5  359 2569.5  C 355.92 2569.5  353.5 2567.08  353.5 2564  C 353.5 2560.92  355.92 2558.5  359 2558.5  Z " stroke-width="1" stroke="#797979" fill="none" />
  <path d="M 359 2567  C 357.32 2567  356 2565.68  356 2564  C 356 2562.32  357.32 2561  359 2561  C 360.68 2561  362 2562.32  362 2564  C 362 2565.68  360.68 2567  359 2567  " fill-rule="nonzero" fill="#797979" stroke="none" />
</svg>