<?xml version="1.0" encoding="utf-8"?>
<svg version="1.1" xmlns:xlink="http://www.w3.org/1999/xlink" width="12px" height="12px" viewBox="353 851  12 12" xmlns="http://www.w3.org/2000/svg">
  <path d="M 359 851  C 362.36 851  365 853.64  365 857  C 365 860.36  362.36 863  359 863  C 355.64 863  353 860.36  353 857  C 353 853.64  355.64 851  359 851  Z " fill-rule="nonzero" fill="#f0f0f0" stroke="none" />
  <path d="M 359 851.5  C 362.08 851.5  364.5 853.92  364.5 857  C 364.5 860.08  362.08 862.5  359 862.5  C 355.92 862.5  353.5 860.08  353.5 857  C 353.5 853.92  355.92 851.5  359 851.5  Z " stroke-width="1" stroke="#797979" fill="none" />
  <path d="M 359 860  C 357.32 860  356 858.68  356 857  C 356 855.32  357.32 854  359 854  C 360.68 854  362 855.32  362 857  C 362 858.68  360.68 860  359 860  " fill-rule="nonzero" fill="#797979" stroke="none" />
</svg>