<?xml version="1.0" encoding="utf-8"?>
<svg version="1.1" xmlns:xlink="http://www.w3.org/1999/xlink" width="12px" height="12px" viewBox="353 2078  12 12" xmlns="http://www.w3.org/2000/svg">
  <path d="M 359 2078  C 362.36 2078  365 2080.64  365 2084  C 365 2087.36  362.36 2090  359 2090  C 355.64 2090  353 2087.36  353 2084  C 353 2080.64  355.64 2078  359 2078  Z " fill-rule="nonzero" fill="#f0f0f0" stroke="none" />
  <path d="M 359 2078.5  C 362.08 2078.5  364.5 2080.92  364.5 2084  C 364.5 2087.08  362.08 2089.5  359 2089.5  C 355.92 2089.5  353.5 2087.08  353.5 2084  C 353.5 2080.92  355.92 2078.5  359 2078.5  Z " stroke-width="1" stroke="#797979" fill="none" />
  <path d="M 359 2087  C 357.32 2087  356 2085.68  356 2084  C 356 2082.32  357.32 2081  359 2081  C 360.68 2081  362 2082.32  362 2084  C 362 2085.68  360.68 2087  359 2087  " fill-rule="nonzero" fill="#797979" stroke="none" />
</svg>