<?xml version="1.0" encoding="utf-8"?>
<svg version="1.1" xmlns:xlink="http://www.w3.org/1999/xlink" width="12px" height="12px" viewBox="353 1120  12 12" xmlns="http://www.w3.org/2000/svg">
  <path d="M 359 1120  C 362.36 1120  365 1122.64  365 1126  C 365 1129.36  362.36 1132  359 1132  C 355.64 1132  353 1129.36  353 1126  C 353 1122.64  355.64 1120  359 1120  Z " fill-rule="nonzero" fill="#ffffff" stroke="none" />
  <path d="M 359 1120.5  C 362.08 1120.5  364.5 1122.92  364.5 1126  C 364.5 1129.08  362.08 1131.5  359 1131.5  C 355.92 1131.5  353.5 1129.08  353.5 1126  C 353.5 1122.92  355.92 1120.5  359 1120.5  Z " stroke-width="1" stroke="#797979" fill="none" />
  <path d="M 359 1129  C 357.32 1129  356 1127.68  356 1126  C 356 1124.32  357.32 1123  359 1123  C 360.68 1123  362 1124.32  362 1126  C 362 1127.68  360.68 1129  359 1129  " fill-rule="nonzero" fill="#797979" stroke="none" />
</svg>