<?xml version="1.0" encoding="utf-8"?>
<svg version="1.1" xmlns:xlink="http://www.w3.org/1999/xlink" width="12px" height="12px" viewBox="353 2259  12 12" xmlns="http://www.w3.org/2000/svg">
  <path d="M 359 2259  C 362.36 2259  365 2261.64  365 2265  C 365 2268.36  362.36 2271  359 2271  C 355.64 2271  353 2268.36  353 2265  C 353 2261.64  355.64 2259  359 2259  Z " fill-rule="nonzero" fill="#ffffff" stroke="none" />
  <path d="M 359 2259.5  C 362.08 2259.5  364.5 2261.92  364.5 2265  C 364.5 2268.08  362.08 2270.5  359 2270.5  C 355.92 2270.5  353.5 2268.08  353.5 2265  C 353.5 2261.92  355.92 2259.5  359 2259.5  Z " stroke-width="1" stroke="#797979" fill="none" />
  <path d="M 359 2268  C 357.32 2268  356 2266.68  356 2265  C 356 2263.32  357.32 2262  359 2262  C 360.68 2262  362 2263.32  362 2265  C 362 2266.68  360.68 2268  359 2268  " fill-rule="nonzero" fill="#797979" stroke="none" />
</svg>