<?xml version="1.0" encoding="utf-8"?>
<svg version="1.1" xmlns:xlink="http://www.w3.org/1999/xlink" width="12px" height="12px" viewBox="353 1179  12 12" xmlns="http://www.w3.org/2000/svg">
  <path d="M 359 1179  C 362.36 1179  365 1181.64  365 1185  C 365 1188.36  362.36 1191  359 1191  C 355.64 1191  353 1188.36  353 1185  C 353 1181.64  355.64 1179  359 1179  Z " fill-rule="nonzero" fill="#ffffff" stroke="none" />
  <path d="M 359 1179.5  C 362.08 1179.5  364.5 1181.92  364.5 1185  C 364.5 1188.08  362.08 1190.5  359 1190.5  C 355.92 1190.5  353.5 1188.08  353.5 1185  C 353.5 1181.92  355.92 1179.5  359 1179.5  Z " stroke-width="1" stroke="#797979" fill="none" />
  <path d="M 359 1188  C 357.32 1188  356 1186.68  356 1185  C 356 1183.32  357.32 1182  359 1182  C 360.68 1182  362 1183.32  362 1185  C 362 1186.68  360.68 1188  359 1188  " fill-rule="nonzero" fill="#797979" stroke="none" />
</svg>