<?xml version="1.0" encoding="utf-8"?>
<svg version="1.1" xmlns:xlink="http://www.w3.org/1999/xlink" width="12px" height="12px" viewBox="353 1419  12 12" xmlns="http://www.w3.org/2000/svg">
  <path d="M 359 1419  C 362.36 1419  365 1421.64  365 1425  C 365 1428.36  362.36 1431  359 1431  C 355.64 1431  353 1428.36  353 1425  C 353 1421.64  355.64 1419  359 1419  Z " fill-rule="nonzero" fill="#ffffff" stroke="none" />
  <path d="M 359 1419.5  C 362.08 1419.5  364.5 1421.92  364.5 1425  C 364.5 1428.08  362.08 1430.5  359 1430.5  C 355.92 1430.5  353.5 1428.08  353.5 1425  C 353.5 1421.92  355.92 1419.5  359 1419.5  Z " stroke-width="1" stroke="#797979" fill="none" />
  <path d="M 359 1428  C 357.32 1428  356 1426.68  356 1425  C 356 1423.32  357.32 1422  359 1422  C 360.68 1422  362 1423.32  362 1425  C 362 1426.68  360.68 1428  359 1428  " fill-rule="nonzero" fill="#797979" stroke="none" />
</svg>