<?xml version="1.0" encoding="utf-8"?>
<svg version="1.1" xmlns:xlink="http://www.w3.org/1999/xlink" width="12px" height="12px" viewBox="353 1900  12 12" xmlns="http://www.w3.org/2000/svg">
  <path d="M 359 1900  C 362.36 1900  365 1902.64  365 1906  C 365 1909.36  362.36 1912  359 1912  C 355.64 1912  353 1909.36  353 1906  C 353 1902.64  355.64 1900  359 1900  Z " fill-rule="nonzero" fill="#ffffff" stroke="none" />
  <path d="M 359 1900.5  C 362.08 1900.5  364.5 1902.92  364.5 1906  C 364.5 1909.08  362.08 1911.5  359 1911.5  C 355.92 1911.5  353.5 1909.08  353.5 1906  C 353.5 1902.92  355.92 1900.5  359 1900.5  Z " stroke-width="1" stroke="#797979" fill="none" />
  <path d="M 359 1909  C 357.32 1909  356 1907.68  356 1906  C 356 1904.32  357.32 1903  359 1903  C 360.68 1903  362 1904.32  362 1906  C 362 1907.68  360.68 1909  359 1909  " fill-rule="nonzero" fill="#797979" stroke="none" />
</svg>