<?xml version="1.0" encoding="utf-8"?>
<svg version="1.1" xmlns:xlink="http://www.w3.org/1999/xlink" width="12px" height="12px" viewBox="353 674  12 12" xmlns="http://www.w3.org/2000/svg">
  <path d="M 359 674  C 362.36 674  365 676.64  365 680  C 365 683.36  362.36 686  359 686  C 355.64 686  353 683.36  353 680  C 353 676.64  355.64 674  359 674  Z " fill-rule="nonzero" fill="#f0f0f0" stroke="none" />
  <path d="M 359 674.5  C 362.08 674.5  364.5 676.92  364.5 680  C 364.5 683.08  362.08 685.5  359 685.5  C 355.92 685.5  353.5 683.08  353.5 680  C 353.5 676.92  355.92 674.5  359 674.5  Z " stroke-width="1" stroke="#797979" fill="none" />
  <path d="M 359 683  C 357.32 683  356 681.68  356 680  C 356 678.32  357.32 677  359 677  C 360.68 677  362 678.32  362 680  C 362 681.68  360.68 683  359 683  " fill-rule="nonzero" fill="#797979" stroke="none" />
</svg>