<?xml version="1.0" encoding="utf-8"?>
<svg version="1.1" xmlns:xlink="http://www.w3.org/1999/xlink" width="12px" height="12px" viewBox="353 2468  12 12" xmlns="http://www.w3.org/2000/svg">
  <path d="M 359 2468  C 362.36 2468  365 2470.64  365 2474  C 365 2477.36  362.36 2480  359 2480  C 355.64 2480  353 2477.36  353 2474  C 353 2470.64  355.64 2468  359 2468  Z " fill-rule="nonzero" fill="#f0f0f0" stroke="none" />
  <path d="M 359 2468.5  C 362.08 2468.5  364.5 2470.92  364.5 2474  C 364.5 2477.08  362.08 2479.5  359 2479.5  C 355.92 2479.5  353.5 2477.08  353.5 2474  C 353.5 2470.92  355.92 2468.5  359 2468.5  Z " stroke-width="1" stroke="#797979" fill="none" />
  <path d="M 359 2477  C 357.32 2477  356 2475.68  356 2474  C 356 2472.32  357.32 2471  359 2471  C 360.68 2471  362 2472.32  362 2474  C 362 2475.68  360.68 2477  359 2477  " fill-rule="nonzero" fill="#797979" stroke="none" />
</svg>