<?xml version="1.0" encoding="utf-8"?>
<svg version="1.1" xmlns:xlink="http://www.w3.org/1999/xlink" width="12px" height="12px" viewBox="353 1389  12 12" xmlns="http://www.w3.org/2000/svg">
  <path d="M 359 1389  C 362.36 1389  365 1391.64  365 1395  C 365 1398.36  362.36 1401  359 1401  C 355.64 1401  353 1398.36  353 1395  C 353 1391.64  355.64 1389  359 1389  Z " fill-rule="nonzero" fill="#f0f0f0" stroke="none" />
  <path d="M 359 1389.5  C 362.08 1389.5  364.5 1391.92  364.5 1395  C 364.5 1398.08  362.08 1400.5  359 1400.5  C 355.92 1400.5  353.5 1398.08  353.5 1395  C 353.5 1391.92  355.92 1389.5  359 1389.5  Z " stroke-width="1" stroke="#797979" fill="none" />
  <path d="M 359 1398  C 357.32 1398  356 1396.68  356 1395  C 356 1393.32  357.32 1392  359 1392  C 360.68 1392  362 1393.32  362 1395  C 362 1396.68  360.68 1398  359 1398  " fill-rule="nonzero" fill="#797979" stroke="none" />
</svg>