<?xml version="1.0" encoding="utf-8"?>
<svg version="1.1" xmlns:xlink="http://www.w3.org/1999/xlink" width="12px" height="12px" viewBox="353 2498  12 12" xmlns="http://www.w3.org/2000/svg">
  <path d="M 359 2498  C 362.36 2498  365 2500.64  365 2504  C 365 2507.36  362.36 2510  359 2510  C 355.64 2510  353 2507.36  353 2504  C 353 2500.64  355.64 2498  359 2498  Z " fill-rule="nonzero" fill="#ffffff" stroke="none" />
  <path d="M 359 2498.5  C 362.08 2498.5  364.5 2500.92  364.5 2504  C 364.5 2507.08  362.08 2509.5  359 2509.5  C 355.92 2509.5  353.5 2507.08  353.5 2504  C 353.5 2500.92  355.92 2498.5  359 2498.5  Z " stroke-width="1" stroke="#797979" fill="none" />
  <path d="M 359 2507  C 357.32 2507  356 2505.68  356 2504  C 356 2502.32  357.32 2501  359 2501  C 360.68 2501  362 2502.32  362 2504  C 362 2505.68  360.68 2507  359 2507  " fill-rule="nonzero" fill="#797979" stroke="none" />
</svg>