<?xml version="1.0" encoding="utf-8"?>
<svg version="1.1" xmlns:xlink="http://www.w3.org/1999/xlink" width="12px" height="12px" viewBox="353 1750  12 12" xmlns="http://www.w3.org/2000/svg">
  <path d="M 359 1750  C 362.36 1750  365 1752.64  365 1756  C 365 1759.36  362.36 1762  359 1762  C 355.64 1762  353 1759.36  353 1756  C 353 1752.64  355.64 1750  359 1750  Z " fill-rule="nonzero" fill="#f0f0f0" stroke="none" />
  <path d="M 359 1750.5  C 362.08 1750.5  364.5 1752.92  364.5 1756  C 364.5 1759.08  362.08 1761.5  359 1761.5  C 355.92 1761.5  353.5 1759.08  353.5 1756  C 353.5 1752.92  355.92 1750.5  359 1750.5  Z " stroke-width="1" stroke="#797979" fill="none" />
  <path d="M 359 1759  C 357.32 1759  356 1757.68  356 1756  C 356 1754.32  357.32 1753  359 1753  C 360.68 1753  362 1754.32  362 1756  C 362 1757.68  360.68 1759  359 1759  " fill-rule="nonzero" fill="#797979" stroke="none" />
</svg>