<?xml version="1.0" encoding="utf-8"?>
<svg version="1.1" xmlns:xlink="http://www.w3.org/1999/xlink" width="12px" height="12px" viewBox="353 2319  12 12" xmlns="http://www.w3.org/2000/svg">
  <path d="M 359 2319  C 362.36 2319  365 2321.64  365 2325  C 365 2328.36  362.36 2331  359 2331  C 355.64 2331  353 2328.36  353 2325  C 353 2321.64  355.64 2319  359 2319  Z " fill-rule="nonzero" fill="#ffffff" stroke="none" />
  <path d="M 359 2319.5  C 362.08 2319.5  364.5 2321.92  364.5 2325  C 364.5 2328.08  362.08 2330.5  359 2330.5  C 355.92 2330.5  353.5 2328.08  353.5 2325  C 353.5 2321.92  355.92 2319.5  359 2319.5  Z " stroke-width="1" stroke="#797979" fill="none" />
  <path d="M 359 2328  C 357.32 2328  356 2326.68  356 2325  C 356 2323.32  357.32 2322  359 2322  C 360.68 2322  362 2323.32  362 2325  C 362 2326.68  360.68 2328  359 2328  " fill-rule="nonzero" fill="#797979" stroke="none" />
</svg>