<?xml version="1.0" encoding="utf-8"?>
<svg version="1.1" xmlns:xlink="http://www.w3.org/1999/xlink" width="12px" height="12px" viewBox="353 911  12 12" xmlns="http://www.w3.org/2000/svg">
  <path d="M 359 911  C 362.36 911  365 913.64  365 917  C 365 920.36  362.36 923  359 923  C 355.64 923  353 920.36  353 917  C 353 913.64  355.64 911  359 911  Z " fill-rule="nonzero" fill="#ffffff" stroke="none" />
  <path d="M 359 911.5  C 362.08 911.5  364.5 913.92  364.5 917  C 364.5 920.08  362.08 922.5  359 922.5  C 355.92 922.5  353.5 920.08  353.5 917  C 353.5 913.92  355.92 911.5  359 911.5  Z " stroke-width="1" stroke="#797979" fill="none" />
  <path d="M 359 920  C 357.32 920  356 918.68  356 917  C 356 915.32  357.32 914  359 914  C 360.68 914  362 915.32  362 917  C 362 918.68  360.68 920  359 920  " fill-rule="nonzero" fill="#797979" stroke="none" />
</svg>