<?xml version="1.0" encoding="utf-8"?>
<svg version="1.1" xmlns:xlink="http://www.w3.org/1999/xlink" width="12px" height="12px" viewBox="353 1479  12 12" xmlns="http://www.w3.org/2000/svg">
  <path d="M 359 1479  C 362.36 1479  365 1481.64  365 1485  C 365 1488.36  362.36 1491  359 1491  C 355.64 1491  353 1488.36  353 1485  C 353 1481.64  355.64 1479  359 1479  Z " fill-rule="nonzero" fill="#ffffff" stroke="none" />
  <path d="M 359 1479.5  C 362.08 1479.5  364.5 1481.92  364.5 1485  C 364.5 1488.08  362.08 1490.5  359 1490.5  C 355.92 1490.5  353.5 1488.08  353.5 1485  C 353.5 1481.92  355.92 1479.5  359 1479.5  Z " stroke-width="1" stroke="#797979" fill="none" />
  <path d="M 359 1488  C 357.32 1488  356 1486.68  356 1485  C 356 1483.32  357.32 1482  359 1482  C 360.68 1482  362 1483.32  362 1485  C 362 1486.68  360.68 1488  359 1488  " fill-rule="nonzero" fill="#797979" stroke="none" />
</svg>