<?xml version="1.0" encoding="utf-8"?>
<svg version="1.1" xmlns:xlink="http://www.w3.org/1999/xlink" width="12px" height="12px" viewBox="353 460  12 12" xmlns="http://www.w3.org/2000/svg">
  <path d="M 359 460  C 362.36 460  365 462.64  365 466  C 365 469.36  362.36 472  359 472  C 355.64 472  353 469.36  353 466  C 353 462.64  355.64 460  359 460  Z " fill-rule="nonzero" fill="#f0f0f0" stroke="none" />
  <path d="M 359 460.5  C 362.08 460.5  364.5 462.92  364.5 466  C 364.5 469.08  362.08 471.5  359 471.5  C 355.92 471.5  353.5 469.08  353.5 466  C 353.5 462.92  355.92 460.5  359 460.5  Z " stroke-width="1" stroke="#797979" fill="none" />
  <path d="M 359 469  C 357.32 469  356 467.68  356 466  C 356 464.32  357.32 463  359 463  C 360.68 463  362 464.32  362 466  C 362 467.68  360.68 469  359 469  " fill-rule="nonzero" fill="#797979" stroke="none" />
</svg>