<?xml version="1.0" encoding="utf-8"?>
<svg version="1.1" xmlns:xlink="http://www.w3.org/1999/xlink" width="12px" height="12px" viewBox="353 1930  12 12" xmlns="http://www.w3.org/2000/svg">
  <path d="M 359 1930  C 362.36 1930  365 1932.64  365 1936  C 365 1939.36  362.36 1942  359 1942  C 355.64 1942  353 1939.36  353 1936  C 353 1932.64  355.64 1930  359 1930  Z " fill-rule="nonzero" fill="#f0f0f0" stroke="none" />
  <path d="M 359 1930.5  C 362.08 1930.5  364.5 1932.92  364.5 1936  C 364.5 1939.08  362.08 1941.5  359 1941.5  C 355.92 1941.5  353.5 1939.08  353.5 1936  C 353.5 1932.92  355.92 1930.5  359 1930.5  Z " stroke-width="1" stroke="#797979" fill="none" />
  <path d="M 359 1939  C 357.32 1939  356 1937.68  356 1936  C 356 1934.32  357.32 1933  359 1933  C 360.68 1933  362 1934.32  362 1936  C 362 1937.68  360.68 1939  359 1939  " fill-rule="nonzero" fill="#797979" stroke="none" />
</svg>