<?xml version="1.0" encoding="utf-8"?>
<svg version="1.1" xmlns:xlink="http://www.w3.org/1999/xlink" width="12px" height="12px" viewBox="353 2138  12 12" xmlns="http://www.w3.org/2000/svg">
  <path d="M 359 2138  C 362.36 2138  365 2140.64  365 2144  C 365 2147.36  362.36 2150  359 2150  C 355.64 2150  353 2147.36  353 2144  C 353 2140.64  355.64 2138  359 2138  Z " fill-rule="nonzero" fill="#ffffff" stroke="none" />
  <path d="M 359 2138.5  C 362.08 2138.5  364.5 2140.92  364.5 2144  C 364.5 2147.08  362.08 2149.5  359 2149.5  C 355.92 2149.5  353.5 2147.08  353.5 2144  C 353.5 2140.92  355.92 2138.5  359 2138.5  Z " stroke-width="1" stroke="#797979" fill="none" />
  <path d="M 359 2147  C 357.32 2147  356 2145.68  356 2144  C 356 2142.32  357.32 2141  359 2141  C 360.68 2141  362 2142.32  362 2144  C 362 2145.68  360.68 2147  359 2147  " fill-rule="nonzero" fill="#797979" stroke="none" />
</svg>