<?xml version="1.0" encoding="utf-8"?>
<svg version="1.1" xmlns:xlink="http://www.w3.org/1999/xlink" width="12px" height="12px" viewBox="353 2827  12 12" xmlns="http://www.w3.org/2000/svg">
  <path d="M 359 2827  C 362.36 2827  365 2829.64  365 2833  C 365 2836.36  362.36 2839  359 2839  C 355.64 2839  353 2836.36  353 2833  C 353 2829.64  355.64 2827  359 2827  Z " fill-rule="nonzero" fill="#ffffff" stroke="none" />
  <path d="M 359 2827.5  C 362.08 2827.5  364.5 2829.92  364.5 2833  C 364.5 2836.08  362.08 2838.5  359 2838.5  C 355.92 2838.5  353.5 2836.08  353.5 2833  C 353.5 2829.92  355.92 2827.5  359 2827.5  Z " stroke-width="1" stroke="#797979" fill="none" />
  <path d="M 359 2836  C 357.32 2836  356 2834.68  356 2833  C 356 2831.32  357.32 2830  359 2830  C 360.68 2830  362 2831.32  362 2833  C 362 2834.68  360.68 2836  359 2836  " fill-rule="nonzero" fill="#797979" stroke="none" />
</svg>