<?xml version="1.0" encoding="utf-8"?>
<svg version="1.1" xmlns:xlink="http://www.w3.org/1999/xlink" width="12px" height="12px" viewBox="353 3495  12 12" xmlns="http://www.w3.org/2000/svg">
  <path d="M 359 3495  C 362.36 3495  365 3497.64  365 3501  C 365 3504.36  362.36 3507  359 3507  C 355.64 3507  353 3504.36  353 3501  C 353 3497.64  355.64 3495  359 3495  Z " fill-rule="nonzero" fill="#f0f0f0" stroke="none" />
  <path d="M 359 3495.5  C 362.08 3495.5  364.5 3497.92  364.5 3501  C 364.5 3504.08  362.08 3506.5  359 3506.5  C 355.92 3506.5  353.5 3504.08  353.5 3501  C 353.5 3497.92  355.92 3495.5  359 3495.5  Z " stroke-width="1" stroke="#797979" fill="none" />
  <path d="M 359 3504  C 357.32 3504  356 3502.68  356 3501  C 356 3499.32  357.32 3498  359 3498  C 360.68 3498  362 3499.32  362 3501  C 362 3502.68  360.68 3504  359 3504  " fill-rule="nonzero" fill="#797979" stroke="none" />
</svg>