<?xml version="1.0" encoding="utf-8"?>
<svg version="1.1" xmlns:xlink="http://www.w3.org/1999/xlink" width="12px" height="12px" viewBox="353 2887  12 12" xmlns="http://www.w3.org/2000/svg">
  <path d="M 359 2887  C 362.36 2887  365 2889.64  365 2893  C 365 2896.36  362.36 2899  359 2899  C 355.64 2899  353 2896.36  353 2893  C 353 2889.64  355.64 2887  359 2887  Z " fill-rule="nonzero" fill="#ffffff" stroke="none" />
  <path d="M 359 2887.5  C 362.08 2887.5  364.5 2889.92  364.5 2893  C 364.5 2896.08  362.08 2898.5  359 2898.5  C 355.92 2898.5  353.5 2896.08  353.5 2893  C 353.5 2889.92  355.92 2887.5  359 2887.5  Z " stroke-width="1" stroke="#797979" fill="none" />
  <path d="M 359 2896  C 357.32 2896  356 2894.68  356 2893  C 356 2891.32  357.32 2890  359 2890  C 360.68 2890  362 2891.32  362 2893  C 362 2894.68  360.68 2896  359 2896  " fill-rule="nonzero" fill="#797979" stroke="none" />
</svg>