<?xml version="1.0" encoding="utf-8"?>
<svg version="1.1" xmlns:xlink="http://www.w3.org/1999/xlink" width="12px" height="12px" viewBox="353 3099  12 12" xmlns="http://www.w3.org/2000/svg">
  <path d="M 359 3099  C 362.36 3099  365 3101.64  365 3105  C 365 3108.36  362.36 3111  359 3111  C 355.64 3111  353 3108.36  353 3105  C 353 3101.64  355.64 3099  359 3099  Z " fill-rule="nonzero" fill="#f0f0f0" stroke="none" />
  <path d="M 359 3099.5  C 362.08 3099.5  364.5 3101.92  364.5 3105  C 364.5 3108.08  362.08 3110.5  359 3110.5  C 355.92 3110.5  353.5 3108.08  353.5 3105  C 353.5 3101.92  355.92 3099.5  359 3099.5  Z " stroke-width="1" stroke="#797979" fill="none" />
  <path d="M 359 3108  C 357.32 3108  356 3106.68  356 3105  C 356 3103.32  357.32 3102  359 3102  C 360.68 3102  362 3103.32  362 3105  C 362 3106.68  360.68 3108  359 3108  " fill-rule="nonzero" fill="#797979" stroke="none" />
</svg>