<?xml version="1.0" encoding="utf-8"?>
<svg version="1.1" xmlns:xlink="http://www.w3.org/1999/xlink" width="12px" height="12px" viewBox="353 3734  12 12" xmlns="http://www.w3.org/2000/svg">
  <path d="M 359 3734  C 362.36 3734  365 3736.64  365 3740  C 365 3743.36  362.36 3746  359 3746  C 355.64 3746  353 3743.36  353 3740  C 353 3736.64  355.64 3734  359 3734  Z " fill-rule="nonzero" fill="#ffffff" stroke="none" />
  <path d="M 359 3734.5  C 362.08 3734.5  364.5 3736.92  364.5 3740  C 364.5 3743.08  362.08 3745.5  359 3745.5  C 355.92 3745.5  353.5 3743.08  353.5 3740  C 353.5 3736.92  355.92 3734.5  359 3734.5  Z " stroke-width="1" stroke="#797979" fill="none" />
  <path d="M 359 3743  C 357.32 3743  356 3741.68  356 3740  C 356 3738.32  357.32 3737  359 3737  C 360.68 3737  362 3738.32  362 3740  C 362 3741.68  360.68 3743  359 3743  " fill-rule="nonzero" fill="#797979" stroke="none" />
</svg>