<?xml version="1.0" encoding="utf-8"?>
<svg version="1.1" xmlns:xlink="http://www.w3.org/1999/xlink" width="12px" height="12px" viewBox="353 2947  12 12" xmlns="http://www.w3.org/2000/svg">
  <path d="M 359 2947  C 362.36 2947  365 2949.64  365 2953  C 365 2956.36  362.36 2959  359 2959  C 355.64 2959  353 2956.36  353 2953  C 353 2949.64  355.64 2947  359 2947  Z " fill-rule="nonzero" fill="#ffffff" stroke="none" />
  <path d="M 359 2947.5  C 362.08 2947.5  364.5 2949.92  364.5 2953  C 364.5 2956.08  362.08 2958.5  359 2958.5  C 355.92 2958.5  353.5 2956.08  353.5 2953  C 353.5 2949.92  355.92 2947.5  359 2947.5  Z " stroke-width="1" stroke="#797979" fill="none" />
  <path d="M 359 2956  C 357.32 2956  356 2954.68  356 2953  C 356 2951.32  357.32 2950  359 2950  C 360.68 2950  362 2951.32  362 2953  C 362 2954.68  360.68 2956  359 2956  " fill-rule="nonzero" fill="#797979" stroke="none" />
</svg>