<?xml version="1.0" encoding="utf-8"?>
<svg version="1.1" xmlns:xlink="http://www.w3.org/1999/xlink" width="12px" height="12px" viewBox="353 2653  12 12" xmlns="http://www.w3.org/2000/svg">
  <path d="M 359 2653  C 362.36 2653  365 2655.64  365 2659  C 365 2662.36  362.36 2665  359 2665  C 355.64 2665  353 2662.36  353 2659  C 353 2655.64  355.64 2653  359 2653  Z " fill-rule="nonzero" fill="#f0f0f0" stroke="none" />
  <path d="M 359 2653.5  C 362.08 2653.5  364.5 2655.92  364.5 2659  C 364.5 2662.08  362.08 2664.5  359 2664.5  C 355.92 2664.5  353.5 2662.08  353.5 2659  C 353.5 2655.92  355.92 2653.5  359 2653.5  Z " stroke-width="1" stroke="#797979" fill="none" />
  <path d="M 359 2662  C 357.32 2662  356 2660.68  356 2659  C 356 2657.32  357.32 2656  359 2656  C 360.68 2656  362 2657.32  362 2659  C 362 2660.68  360.68 2662  359 2662  " fill-rule="nonzero" fill="#797979" stroke="none" />
</svg>