<?xml version="1.0" encoding="utf-8"?>
<svg version="1.1" xmlns:xlink="http://www.w3.org/1999/xlink" width="12px" height="12px" viewBox="353 3584  12 12" xmlns="http://www.w3.org/2000/svg">
  <path d="M 359 3584  C 362.36 3584  365 3586.64  365 3590  C 365 3593.36  362.36 3596  359 3596  C 355.64 3596  353 3593.36  353 3590  C 353 3586.64  355.64 3584  359 3584  Z " fill-rule="nonzero" fill="#ffffff" stroke="none" />
  <path d="M 359 3584.5  C 362.08 3584.5  364.5 3586.92  364.5 3590  C 364.5 3593.08  362.08 3595.5  359 3595.5  C 355.92 3595.5  353.5 3593.08  353.5 3590  C 353.5 3586.92  355.92 3584.5  359 3584.5  Z " stroke-width="1" stroke="#797979" fill="none" />
  <path d="M 359 3593  C 357.32 3593  356 3591.68  356 3590  C 356 3588.32  357.32 3587  359 3587  C 360.68 3587  362 3588.32  362 3590  C 362 3591.68  360.68 3593  359 3593  " fill-rule="nonzero" fill="#797979" stroke="none" />
</svg>