<?xml version="1.0" encoding="utf-8"?>
<svg version="1.1" xmlns:xlink="http://www.w3.org/1999/xlink" width="12px" height="12px" viewBox="353 3554  12 12" xmlns="http://www.w3.org/2000/svg">
  <path d="M 359 3554  C 362.36 3554  365 3556.64  365 3560  C 365 3563.36  362.36 3566  359 3566  C 355.64 3566  353 3563.36  353 3560  C 353 3556.64  355.64 3554  359 3554  Z " fill-rule="nonzero" fill="#f0f0f0" stroke="none" />
  <path d="M 359 3554.5  C 362.08 3554.5  364.5 3556.92  364.5 3560  C 364.5 3563.08  362.08 3565.5  359 3565.5  C 355.92 3565.5  353.5 3563.08  353.5 3560  C 353.5 3556.92  355.92 3554.5  359 3554.5  Z " stroke-width="1" stroke="#797979" fill="none" />
  <path d="M 359 3563  C 357.32 3563  356 3561.68  356 3560  C 356 3558.32  357.32 3557  359 3557  C 360.68 3557  362 3558.32  362 3560  C 362 3561.68  360.68 3563  359 3563  " fill-rule="nonzero" fill="#797979" stroke="none" />
</svg>