<?xml version="1.0" encoding="utf-8"?>
<svg version="1.1" xmlns:xlink="http://www.w3.org/1999/xlink" width="12px" height="12px" viewBox="353 4009  12 12" xmlns="http://www.w3.org/2000/svg">
  <path d="M 359 4009  C 362.36 4009  365 4011.64  365 4015  C 365 4018.36  362.36 4021  359 4021  C 355.64 4021  353 4018.36  353 4015  C 353 4011.64  355.64 4009  359 4009  Z " fill-rule="nonzero" fill="#ffffff" stroke="none" />
  <path d="M 359 4009.5  C 362.08 4009.5  364.5 4011.92  364.5 4015  C 364.5 4018.08  362.08 4020.5  359 4020.5  C 355.92 4020.5  353.5 4018.08  353.5 4015  C 353.5 4011.92  355.92 4009.5  359 4009.5  Z " stroke-width="1" stroke="#797979" fill="none" />
  <path d="M 359 4018  C 357.32 4018  356 4016.68  356 4015  C 356 4013.32  357.32 4012  359 4012  C 360.68 4012  362 4013.32  362 4015  C 362 4016.68  360.68 4018  359 4018  " fill-rule="nonzero" fill="#797979" stroke="none" />
</svg>