<?xml version="1.0" encoding="utf-8"?>
<svg version="1.1" xmlns:xlink="http://www.w3.org/1999/xlink" width="12px" height="12px" viewBox="353 3764  12 12" xmlns="http://www.w3.org/2000/svg">
  <path d="M 359 3764  C 362.36 3764  365 3766.64  365 3770  C 365 3773.36  362.36 3776  359 3776  C 355.64 3776  353 3773.36  353 3770  C 353 3766.64  355.64 3764  359 3764  Z " fill-rule="nonzero" fill="#f0f0f0" stroke="none" />
  <path d="M 359 3764.5  C 362.08 3764.5  364.5 3766.92  364.5 3770  C 364.5 3773.08  362.08 3775.5  359 3775.5  C 355.92 3775.5  353.5 3773.08  353.5 3770  C 353.5 3766.92  355.92 3764.5  359 3764.5  Z " stroke-width="1" stroke="#797979" fill="none" />
  <path d="M 359 3773  C 357.32 3773  356 3771.68  356 3770  C 356 3768.32  357.32 3767  359 3767  C 360.68 3767  362 3768.32  362 3770  C 362 3771.68  360.68 3773  359 3773  " fill-rule="nonzero" fill="#797979" stroke="none" />
</svg>