<?xml version="1.0" encoding="utf-8"?>
<svg version="1.1" xmlns:xlink="http://www.w3.org/1999/xlink" width="12px" height="12px" viewBox="353 3194  12 12" xmlns="http://www.w3.org/2000/svg">
  <path d="M 359 3194  C 362.36 3194  365 3196.64  365 3200  C 365 3203.36  362.36 3206  359 3206  C 355.64 3206  353 3203.36  353 3200  C 353 3196.64  355.64 3194  359 3194  Z " fill-rule="nonzero" fill="#ffffff" stroke="none" />
  <path d="M 359 3194.5  C 362.08 3194.5  364.5 3196.92  364.5 3200  C 364.5 3203.08  362.08 3205.5  359 3205.5  C 355.92 3205.5  353.5 3203.08  353.5 3200  C 353.5 3196.92  355.92 3194.5  359 3194.5  Z " stroke-width="1" stroke="#797979" fill="none" />
  <path d="M 359 3203  C 357.32 3203  356 3201.68  356 3200  C 356 3198.32  357.32 3197  359 3197  C 360.68 3197  362 3198.32  362 3200  C 362 3201.68  360.68 3203  359 3203  " fill-rule="nonzero" fill="#797979" stroke="none" />
</svg>