<?xml version="1.0" encoding="utf-8"?>
<svg version="1.1" xmlns:xlink="http://www.w3.org/1999/xlink" width="12px" height="12px" viewBox="353 3794  12 12" xmlns="http://www.w3.org/2000/svg">
  <path d="M 359 3794  C 362.36 3794  365 3796.64  365 3800  C 365 3803.36  362.36 3806  359 3806  C 355.64 3806  353 3803.36  353 3800  C 353 3796.64  355.64 3794  359 3794  Z " fill-rule="nonzero" fill="#ffffff" stroke="none" />
  <path d="M 359 3794.5  C 362.08 3794.5  364.5 3796.92  364.5 3800  C 364.5 3803.08  362.08 3805.5  359 3805.5  C 355.92 3805.5  353.5 3803.08  353.5 3800  C 353.5 3796.92  355.92 3794.5  359 3794.5  Z " stroke-width="1" stroke="#797979" fill="none" />
  <path d="M 359 3803  C 357.32 3803  356 3801.68  356 3800  C 356 3798.32  357.32 3797  359 3797  C 360.68 3797  362 3798.32  362 3800  C 362 3801.68  360.68 3803  359 3803  " fill-rule="nonzero" fill="#797979" stroke="none" />
</svg>