<?xml version="1.0" encoding="utf-8"?>
<svg version="1.1" xmlns:xlink="http://www.w3.org/1999/xlink" width="12px" height="12px" viewBox="353 3854  12 12" xmlns="http://www.w3.org/2000/svg">
  <path d="M 359 3854  C 362.36 3854  365 3856.64  365 3860  C 365 3863.36  362.36 3866  359 3866  C 355.64 3866  353 3863.36  353 3860  C 353 3856.64  355.64 3854  359 3854  Z " fill-rule="nonzero" fill="#f0f0f0" stroke="none" />
  <path d="M 359 3854.5  C 362.08 3854.5  364.5 3856.92  364.5 3860  C 364.5 3863.08  362.08 3865.5  359 3865.5  C 355.92 3865.5  353.5 3863.08  353.5 3860  C 353.5 3856.92  355.92 3854.5  359 3854.5  Z " stroke-width="1" stroke="#797979" fill="none" />
  <path d="M 359 3863  C 357.32 3863  356 3861.68  356 3860  C 356 3858.32  357.32 3857  359 3857  C 360.68 3857  362 3858.32  362 3860  C 362 3861.68  360.68 3863  359 3863  " fill-rule="nonzero" fill="#797979" stroke="none" />
</svg>