<?xml version="1.0" encoding="utf-8"?>
<svg version="1.1" xmlns:xlink="http://www.w3.org/1999/xlink" width="12px" height="12px" viewBox="353 2857  12 12" xmlns="http://www.w3.org/2000/svg">
  <path d="M 359 2857  C 362.36 2857  365 2859.64  365 2863  C 365 2866.36  362.36 2869  359 2869  C 355.64 2869  353 2866.36  353 2863  C 353 2859.64  355.64 2857  359 2857  Z " fill-rule="nonzero" fill="#f0f0f0" stroke="none" />
  <path d="M 359 2857.5  C 362.08 2857.5  364.5 2859.92  364.5 2863  C 364.5 2866.08  362.08 2868.5  359 2868.5  C 355.92 2868.5  353.5 2866.08  353.5 2863  C 353.5 2859.92  355.92 2857.5  359 2857.5  Z " stroke-width="1" stroke="#797979" fill="none" />
  <path d="M 359 2866  C 357.32 2866  356 2864.68  356 2863  C 356 2861.32  357.32 2860  359 2860  C 360.68 2860  362 2861.32  362 2863  C 362 2864.68  360.68 2866  359 2866  " fill-rule="nonzero" fill="#797979" stroke="none" />
</svg>