<?xml version="1.0" encoding="utf-8"?>
<svg version="1.1" xmlns:xlink="http://www.w3.org/1999/xlink" width="12px" height="12px" viewBox="353 3375  12 12" xmlns="http://www.w3.org/2000/svg">
  <path d="M 359 3375  C 362.36 3375  365 3377.64  365 3381  C 365 3384.36  362.36 3387  359 3387  C 355.64 3387  353 3384.36  353 3381  C 353 3377.64  355.64 3375  359 3375  Z " fill-rule="nonzero" fill="#ffffff" stroke="none" />
  <path d="M 359 3375.5  C 362.08 3375.5  364.5 3377.92  364.5 3381  C 364.5 3384.08  362.08 3386.5  359 3386.5  C 355.92 3386.5  353.5 3384.08  353.5 3381  C 353.5 3377.92  355.92 3375.5  359 3375.5  Z " stroke-width="1" stroke="#797979" fill="none" />
  <path d="M 359 3384  C 357.32 3384  356 3382.68  356 3381  C 356 3379.32  357.32 3378  359 3378  C 360.68 3378  362 3379.32  362 3381  C 362 3382.68  360.68 3384  359 3384  " fill-rule="nonzero" fill="#797979" stroke="none" />
</svg>