<?xml version="1.0" encoding="utf-8"?>
<svg version="1.1" xmlns:xlink="http://www.w3.org/1999/xlink" width="12px" height="12px" viewBox="353 3949  12 12" xmlns="http://www.w3.org/2000/svg">
  <path d="M 359 3949  C 362.36 3949  365 3951.64  365 3955  C 365 3958.36  362.36 3961  359 3961  C 355.64 3961  353 3958.36  353 3955  C 353 3951.64  355.64 3949  359 3949  Z " fill-rule="nonzero" fill="#ffffff" stroke="none" />
  <path d="M 359 3949.5  C 362.08 3949.5  364.5 3951.92  364.5 3955  C 364.5 3958.08  362.08 3960.5  359 3960.5  C 355.92 3960.5  353.5 3958.08  353.5 3955  C 353.5 3951.92  355.92 3949.5  359 3949.5  Z " stroke-width="1" stroke="#797979" fill="none" />
  <path d="M 359 3958  C 357.32 3958  356 3956.68  356 3955  C 356 3953.32  357.32 3952  359 3952  C 360.68 3952  362 3953.32  362 3955  C 362 3956.68  360.68 3958  359 3958  " fill-rule="nonzero" fill="#797979" stroke="none" />
</svg>