<?xml version="1.0" encoding="utf-8"?>
<svg version="1.1" xmlns:xlink="http://www.w3.org/1999/xlink" width="12px" height="12px" viewBox="353 2917  12 12" xmlns="http://www.w3.org/2000/svg">
  <path d="M 359 2917  C 362.36 2917  365 2919.64  365 2923  C 365 2926.36  362.36 2929  359 2929  C 355.64 2929  353 2926.36  353 2923  C 353 2919.64  355.64 2917  359 2917  Z " fill-rule="nonzero" fill="#ffffff" stroke="none" />
  <path d="M 359 2917.5  C 362.08 2917.5  364.5 2919.92  364.5 2923  C 364.5 2926.08  362.08 2928.5  359 2928.5  C 355.92 2928.5  353.5 2926.08  353.5 2923  C 353.5 2919.92  355.92 2917.5  359 2917.5  Z " stroke-width="1" stroke="#797979" fill="none" />
  <path d="M 359 2926  C 357.32 2926  356 2924.68  356 2923  C 356 2921.32  357.32 2920  359 2920  C 360.68 2920  362 2921.32  362 2923  C 362 2924.68  360.68 2926  359 2926  " fill-rule="nonzero" fill="#797979" stroke="none" />
</svg>