<?xml version="1.0" encoding="utf-8"?>
<svg version="1.1" xmlns:xlink="http://www.w3.org/1999/xlink" width="12px" height="12px" viewBox="353 4039  12 12" xmlns="http://www.w3.org/2000/svg">
  <path d="M 359 4039  C 362.36 4039  365 4041.64  365 4045  C 365 4048.36  362.36 4051  359 4051  C 355.64 4051  353 4048.36  353 4045  C 353 4041.64  355.64 4039  359 4039  Z " fill-rule="nonzero" fill="#f0f0f0" stroke="none" />
  <path d="M 359 4039.5  C 362.08 4039.5  364.5 4041.92  364.5 4045  C 364.5 4048.08  362.08 4050.5  359 4050.5  C 355.92 4050.5  353.5 4048.08  353.5 4045  C 353.5 4041.92  355.92 4039.5  359 4039.5  Z " stroke-width="1" stroke="#797979" fill="none" />
  <path d="M 359 4048  C 357.32 4048  356 4046.68  356 4045  C 356 4043.32  357.32 4042  359 4042  C 360.68 4042  362 4043.32  362 4045  C 362 4046.68  360.68 4048  359 4048  " fill-rule="nonzero" fill="#797979" stroke="none" />
</svg>