<?xml version="1.0" encoding="utf-8"?>
<svg version="1.1" xmlns:xlink="http://www.w3.org/1999/xlink" width="12px" height="12px" viewBox="353 2773  12 12" xmlns="http://www.w3.org/2000/svg">
  <path d="M 359 2773  C 362.36 2773  365 2775.64  365 2779  C 365 2782.36  362.36 2785  359 2785  C 355.64 2785  353 2782.36  353 2779  C 353 2775.64  355.64 2773  359 2773  Z " fill-rule="nonzero" fill="#f0f0f0" stroke="none" />
  <path d="M 359 2773.5  C 362.08 2773.5  364.5 2775.92  364.5 2779  C 364.5 2782.08  362.08 2784.5  359 2784.5  C 355.92 2784.5  353.5 2782.08  353.5 2779  C 353.5 2775.92  355.92 2773.5  359 2773.5  Z " stroke-width="1" stroke="#797979" fill="none" />
  <path d="M 359 2782  C 357.32 2782  356 2780.68  356 2779  C 356 2777.32  357.32 2776  359 2776  C 360.68 2776  362 2777.32  362 2779  C 362 2780.68  360.68 2782  359 2782  " fill-rule="nonzero" fill="#797979" stroke="none" />
</svg>