<?xml version="1.0" encoding="utf-8"?>
<svg version="1.1" xmlns:xlink="http://www.w3.org/1999/xlink" width="12px" height="12px" viewBox="353 3069  12 12" xmlns="http://www.w3.org/2000/svg">
  <path d="M 359 3069  C 362.36 3069  365 3071.64  365 3075  C 365 3078.36  362.36 3081  359 3081  C 355.64 3081  353 3078.36  353 3075  C 353 3071.64  355.64 3069  359 3069  Z " fill-rule="nonzero" fill="#f0f0f0" stroke="none" />
  <path d="M 359 3069.5  C 362.08 3069.5  364.5 3071.92  364.5 3075  C 364.5 3078.08  362.08 3080.5  359 3080.5  C 355.92 3080.5  353.5 3078.08  353.5 3075  C 353.5 3071.92  355.92 3069.5  359 3069.5  Z " stroke-width="1" stroke="#797979" fill="none" />
  <path d="M 359 3078  C 357.32 3078  356 3076.68  356 3075  C 356 3073.32  357.32 3072  359 3072  C 360.68 3072  362 3073.32  362 3075  C 362 3076.68  360.68 3078  359 3078  " fill-rule="nonzero" fill="#797979" stroke="none" />
</svg>