<?xml version="1.0" encoding="utf-8"?>
<svg version="1.1" xmlns:xlink="http://www.w3.org/1999/xlink" width="12px" height="12px" viewBox="353 3824  12 12" xmlns="http://www.w3.org/2000/svg">
  <path d="M 359 3824  C 362.36 3824  365 3826.64  365 3830  C 365 3833.36  362.36 3836  359 3836  C 355.64 3836  353 3833.36  353 3830  C 353 3826.64  355.64 3824  359 3824  Z " fill-rule="nonzero" fill="#f0f0f0" stroke="none" />
  <path d="M 359 3824.5  C 362.08 3824.5  364.5 3826.92  364.5 3830  C 364.5 3833.08  362.08 3835.5  359 3835.5  C 355.92 3835.5  353.5 3833.08  353.5 3830  C 353.5 3826.92  355.92 3824.5  359 3824.5  Z " stroke-width="1" stroke="#797979" fill="none" />
  <path d="M 359 3833  C 357.32 3833  356 3831.68  356 3830  C 356 3828.32  357.32 3827  359 3827  C 360.68 3827  362 3828.32  362 3830  C 362 3831.68  360.68 3833  359 3833  " fill-rule="nonzero" fill="#797979" stroke="none" />
</svg>