<?xml version="1.0" encoding="utf-8"?>
<svg version="1.1" xmlns:xlink="http://www.w3.org/1999/xlink" width="12px" height="12px" viewBox="353 3314  12 12" xmlns="http://www.w3.org/2000/svg">
  <path d="M 359 3314  C 362.36 3314  365 3316.64  365 3320  C 365 3323.36  362.36 3326  359 3326  C 355.64 3326  353 3323.36  353 3320  C 353 3316.64  355.64 3314  359 3314  Z " fill-rule="nonzero" fill="#f0f0f0" stroke="none" />
  <path d="M 359 3314.5  C 362.08 3314.5  364.5 3316.92  364.5 3320  C 364.5 3323.08  362.08 3325.5  359 3325.5  C 355.92 3325.5  353.5 3323.08  353.5 3320  C 353.5 3316.92  355.92 3314.5  359 3314.5  Z " stroke-width="1" stroke="#797979" fill="none" />
  <path d="M 359 3323  C 357.32 3323  356 3321.68  356 3320  C 356 3318.32  357.32 3317  359 3317  C 360.68 3317  362 3318.32  362 3320  C 362 3321.68  360.68 3323  359 3323  " fill-rule="nonzero" fill="#797979" stroke="none" />
</svg>