<?xml version="1.0" encoding="utf-8"?>
<svg version="1.1" xmlns:xlink="http://www.w3.org/1999/xlink" width="12px" height="12px" viewBox="353 3465  12 12" xmlns="http://www.w3.org/2000/svg">
  <path d="M 359 3465  C 362.36 3465  365 3467.64  365 3471  C 365 3474.36  362.36 3477  359 3477  C 355.64 3477  353 3474.36  353 3471  C 353 3467.64  355.64 3465  359 3465  Z " fill-rule="nonzero" fill="#ffffff" stroke="none" />
  <path d="M 359 3465.5  C 362.08 3465.5  364.5 3467.92  364.5 3471  C 364.5 3474.08  362.08 3476.5  359 3476.5  C 355.92 3476.5  353.5 3474.08  353.5 3471  C 353.5 3467.92  355.92 3465.5  359 3465.5  Z " stroke-width="1" stroke="#797979" fill="none" />
  <path d="M 359 3474  C 357.32 3474  356 3472.68  356 3471  C 356 3469.32  357.32 3468  359 3468  C 360.68 3468  362 3469.32  362 3471  C 362 3472.68  360.68 3474  359 3474  " fill-rule="nonzero" fill="#797979" stroke="none" />
</svg>