<?xml version="1.0" encoding="utf-8"?>
<svg version="1.1" xmlns:xlink="http://www.w3.org/1999/xlink" width="12px" height="12px" viewBox="353 2683  12 12" xmlns="http://www.w3.org/2000/svg">
  <path d="M 359 2683  C 362.36 2683  365 2685.64  365 2689  C 365 2692.36  362.36 2695  359 2695  C 355.64 2695  353 2692.36  353 2689  C 353 2685.64  355.64 2683  359 2683  Z " fill-rule="nonzero" fill="#f0f0f0" stroke="none" />
  <path d="M 359 2683.5  C 362.08 2683.5  364.5 2685.92  364.5 2689  C 364.5 2692.08  362.08 2694.5  359 2694.5  C 355.92 2694.5  353.5 2692.08  353.5 2689  C 353.5 2685.92  355.92 2683.5  359 2683.5  Z " stroke-width="1" stroke="#797979" fill="none" />
  <path d="M 359 2692  C 357.32 2692  356 2690.68  356 2689  C 356 2687.32  357.32 2686  359 2686  C 360.68 2686  362 2687.32  362 2689  C 362 2690.68  360.68 2692  359 2692  " fill-rule="nonzero" fill="#797979" stroke="none" />
</svg>