<?xml version="1.0" encoding="utf-8"?>
<svg version="1.1" xmlns:xlink="http://www.w3.org/1999/xlink" width="12px" height="12px" viewBox="353 3039  12 12" xmlns="http://www.w3.org/2000/svg">
  <path d="M 359 3039  C 362.36 3039  365 3041.64  365 3045  C 365 3048.36  362.36 3051  359 3051  C 355.64 3051  353 3048.36  353 3045  C 353 3041.64  355.64 3039  359 3039  Z " fill-rule="nonzero" fill="#f0f0f0" stroke="none" />
  <path d="M 359 3039.5  C 362.08 3039.5  364.5 3041.92  364.5 3045  C 364.5 3048.08  362.08 3050.5  359 3050.5  C 355.92 3050.5  353.5 3048.08  353.5 3045  C 353.5 3041.92  355.92 3039.5  359 3039.5  Z " stroke-width="1" stroke="#797979" fill="none" />
  <path d="M 359 3048  C 357.32 3048  356 3046.68  356 3045  C 356 3043.32  357.32 3042  359 3042  C 360.68 3042  362 3043.32  362 3045  C 362 3046.68  360.68 3048  359 3048  " fill-rule="nonzero" fill="#797979" stroke="none" />
</svg>