<?xml version="1.0" encoding="utf-8"?>
<svg version="1.1" xmlns:xlink="http://www.w3.org/1999/xlink" width="12px" height="12px" viewBox="353 3405  12 12" xmlns="http://www.w3.org/2000/svg">
  <path d="M 359 3405  C 362.36 3405  365 3407.64  365 3411  C 365 3414.36  362.36 3417  359 3417  C 355.64 3417  353 3414.36  353 3411  C 353 3407.64  355.64 3405  359 3405  Z " fill-rule="nonzero" fill="#f0f0f0" stroke="none" />
  <path d="M 359 3405.5  C 362.08 3405.5  364.5 3407.92  364.5 3411  C 364.5 3414.08  362.08 3416.5  359 3416.5  C 355.92 3416.5  353.5 3414.08  353.5 3411  C 353.5 3407.92  355.92 3405.5  359 3405.5  Z " stroke-width="1" stroke="#797979" fill="none" />
  <path d="M 359 3414  C 357.32 3414  356 3412.68  356 3411  C 356 3409.32  357.32 3408  359 3408  C 360.68 3408  362 3409.32  362 3411  C 362 3412.68  360.68 3414  359 3414  " fill-rule="nonzero" fill="#797979" stroke="none" />
</svg>