<?xml version="1.0" encoding="utf-8"?>
<svg version="1.1" xmlns:xlink="http://www.w3.org/1999/xlink" width="12px" height="12px" viewBox="353 3644  12 12" xmlns="http://www.w3.org/2000/svg">
  <path d="M 359 3644  C 362.36 3644  365 3646.64  365 3650  C 365 3653.36  362.36 3656  359 3656  C 355.64 3656  353 3653.36  353 3650  C 353 3646.64  355.64 3644  359 3644  Z " fill-rule="nonzero" fill="#ffffff" stroke="none" />
  <path d="M 359 3644.5  C 362.08 3644.5  364.5 3646.92  364.5 3650  C 364.5 3653.08  362.08 3655.5  359 3655.5  C 355.92 3655.5  353.5 3653.08  353.5 3650  C 353.5 3646.92  355.92 3644.5  359 3644.5  Z " stroke-width="1" stroke="#797979" fill="none" />
  <path d="M 359 3653  C 357.32 3653  356 3651.68  356 3650  C 356 3648.32  357.32 3647  359 3647  C 360.68 3647  362 3648.32  362 3650  C 362 3651.68  360.68 3653  359 3653  " fill-rule="nonzero" fill="#797979" stroke="none" />
</svg>