<?xml version="1.0" encoding="utf-8"?>
<svg version="1.1" xmlns:xlink="http://www.w3.org/1999/xlink" width="12px" height="12px" viewBox="353 3614  12 12" xmlns="http://www.w3.org/2000/svg">
  <path d="M 359 3614  C 362.36 3614  365 3616.64  365 3620  C 365 3623.36  362.36 3626  359 3626  C 355.64 3626  353 3623.36  353 3620  C 353 3616.64  355.64 3614  359 3614  Z " fill-rule="nonzero" fill="#f0f0f0" stroke="none" />
  <path d="M 359 3614.5  C 362.08 3614.5  364.5 3616.92  364.5 3620  C 364.5 3623.08  362.08 3625.5  359 3625.5  C 355.92 3625.5  353.5 3623.08  353.5 3620  C 353.5 3616.92  355.92 3614.5  359 3614.5  Z " stroke-width="1" stroke="#797979" fill="none" />
  <path d="M 359 3623  C 357.32 3623  356 3621.68  356 3620  C 356 3618.32  357.32 3617  359 3617  C 360.68 3617  362 3618.32  362 3620  C 362 3621.68  360.68 3623  359 3623  " fill-rule="nonzero" fill="#797979" stroke="none" />
</svg>