<?xml version="1.0" encoding="utf-8"?>
<svg version="1.1" xmlns:xlink="http://www.w3.org/1999/xlink" width="12px" height="12px" viewBox="353 3979  12 12" xmlns="http://www.w3.org/2000/svg">
  <path d="M 359 3979  C 362.36 3979  365 3981.64  365 3985  C 365 3988.36  362.36 3991  359 3991  C 355.64 3991  353 3988.36  353 3985  C 353 3981.64  355.64 3979  359 3979  Z " fill-rule="nonzero" fill="#ffffff" stroke="none" />
  <path d="M 359 3979.5  C 362.08 3979.5  364.5 3981.92  364.5 3985  C 364.5 3988.08  362.08 3990.5  359 3990.5  C 355.92 3990.5  353.5 3988.08  353.5 3985  C 353.5 3981.92  355.92 3979.5  359 3979.5  Z " stroke-width="1" stroke="#797979" fill="none" />
  <path d="M 359 3988  C 357.32 3988  356 3986.68  356 3985  C 356 3983.32  357.32 3982  359 3982  C 360.68 3982  362 3983.32  362 3985  C 362 3986.68  360.68 3988  359 3988  " fill-rule="nonzero" fill="#797979" stroke="none" />
</svg>