<?xml version="1.0" encoding="utf-8"?>
<svg version="1.1" xmlns:xlink="http://www.w3.org/1999/xlink" width="12px" height="12px" viewBox="353 3919  12 12" xmlns="http://www.w3.org/2000/svg">
  <path d="M 359 3919  C 362.36 3919  365 3921.64  365 3925  C 365 3928.36  362.36 3931  359 3931  C 355.64 3931  353 3928.36  353 3925  C 353 3921.64  355.64 3919  359 3919  Z " fill-rule="nonzero" fill="#f0f0f0" stroke="none" />
  <path d="M 359 3919.5  C 362.08 3919.5  364.5 3921.92  364.5 3925  C 364.5 3928.08  362.08 3930.5  359 3930.5  C 355.92 3930.5  353.5 3928.08  353.5 3925  C 353.5 3921.92  355.92 3919.5  359 3919.5  Z " stroke-width="1" stroke="#797979" fill="none" />
  <path d="M 359 3928  C 357.32 3928  356 3926.68  356 3925  C 356 3923.32  357.32 3922  359 3922  C 360.68 3922  362 3923.32  362 3925  C 362 3926.68  360.68 3928  359 3928  " fill-rule="nonzero" fill="#797979" stroke="none" />
</svg>