<?xml version="1.0" encoding="utf-8"?>
<svg version="1.1" xmlns:xlink="http://www.w3.org/1999/xlink" width="12px" height="12px" viewBox="353 3009  12 12" xmlns="http://www.w3.org/2000/svg">
  <path d="M 359 3009  C 362.36 3009  365 3011.64  365 3015  C 365 3018.36  362.36 3021  359 3021  C 355.64 3021  353 3018.36  353 3015  C 353 3011.64  355.64 3009  359 3009  Z " fill-rule="nonzero" fill="#f0f0f0" stroke="none" />
  <path d="M 359 3009.5  C 362.08 3009.5  364.5 3011.92  364.5 3015  C 364.5 3018.08  362.08 3020.5  359 3020.5  C 355.92 3020.5  353.5 3018.08  353.5 3015  C 353.5 3011.92  355.92 3009.5  359 3009.5  Z " stroke-width="1" stroke="#797979" fill="none" />
  <path d="M 359 3018  C 357.32 3018  356 3016.68  356 3015  C 356 3013.32  357.32 3012  359 3012  C 360.68 3012  362 3013.32  362 3015  C 362 3016.68  360.68 3018  359 3018  " fill-rule="nonzero" fill="#797979" stroke="none" />
</svg>