<?xml version="1.0" encoding="utf-8"?>
<svg version="1.1" xmlns:xlink="http://www.w3.org/1999/xlink" width="12px" height="12px" viewBox="353 3254  12 12" xmlns="http://www.w3.org/2000/svg">
  <path d="M 359 3254  C 362.36 3254  365 3256.64  365 3260  C 365 3263.36  362.36 3266  359 3266  C 355.64 3266  353 3263.36  353 3260  C 353 3256.64  355.64 3254  359 3254  Z " fill-rule="nonzero" fill="#f0f0f0" stroke="none" />
  <path d="M 359 3254.5  C 362.08 3254.5  364.5 3256.92  364.5 3260  C 364.5 3263.08  362.08 3265.5  359 3265.5  C 355.92 3265.5  353.5 3263.08  353.5 3260  C 353.5 3256.92  355.92 3254.5  359 3254.5  Z " stroke-width="1" stroke="#797979" fill="none" />
  <path d="M 359 3263  C 357.32 3263  356 3261.68  356 3260  C 356 3258.32  357.32 3257  359 3257  C 360.68 3257  362 3258.32  362 3260  C 362 3261.68  360.68 3263  359 3263  " fill-rule="nonzero" fill="#797979" stroke="none" />
</svg>