<?xml version="1.0" encoding="utf-8"?>
<svg version="1.1" xmlns:xlink="http://www.w3.org/1999/xlink" width="12px" height="12px" viewBox="567 567.5  12 12" xmlns="http://www.w3.org/2000/svg">
  <path d="M 573 567.5  C 576.36 567.5  579 570.14  579 573.5  C 579 576.86  576.36 579.5  573 579.5  C 569.64 579.5  567 576.86  567 573.5  C 567 570.14  569.64 567.5  573 567.5  Z " fill-rule="nonzero" fill="#ffffff" stroke="none" />
  <path d="M 573 568  C 576.08 568  578.5 570.42  578.5 573.5  C 578.5 576.58  576.08 579  573 579  C 569.92 579  567.5 576.58  567.5 573.5  C 567.5 570.42  569.92 568  573 568  Z " stroke-width="1" stroke="#797979" fill="none" />
  <path d="M 573 576.5  C 571.32 576.5  570 575.18  570 573.5  C 570 571.82  571.32 570.5  573 570.5  C 574.68 570.5  576 571.82  576 573.5  C 576 575.18  574.68 576.5  573 576.5  " fill-rule="nonzero" fill="#797979" stroke="none" />
</svg>