<?xml version="1.0" encoding="utf-8"?>
<svg version="1.1" xmlns:xlink="http://www.w3.org/1999/xlink" width="12px" height="12px" viewBox="632 599.5  12 12" xmlns="http://www.w3.org/2000/svg">
  <path d="M 638 599.5  C 641.36 599.5  644 602.14  644 605.5  C 644 608.86  641.36 611.5  638 611.5  C 634.64 611.5  632 608.86  632 605.5  C 632 602.14  634.64 599.5  638 599.5  Z " fill-rule="nonzero" fill="#f0f0f0" stroke="none" />
  <path d="M 638 600  C 641.08 600  643.5 602.42  643.5 605.5  C 643.5 608.58  641.08 611  638 611  C 634.92 611  632.5 608.58  632.5 605.5  C 632.5 602.42  634.92 600  638 600  Z " stroke-width="1" stroke="#8080ff" fill="none" />
  <path d="M 638 608.5  C 636.32 608.5  635 607.18  635 605.5  C 635 603.82  636.32 602.5  638 602.5  C 639.68 602.5  641 603.82  641 605.5  C 641 607.18  639.68 608.5  638 608.5  " fill-rule="nonzero" fill="#8080ff" stroke="none" />
</svg>