<?xml version="1.0" encoding="utf-8"?>
<svg version="1.1" xmlns:xlink="http://www.w3.org/1999/xlink" width="12px" height="12px" viewBox="876 598.5  12 12" xmlns="http://www.w3.org/2000/svg">
  <path d="M 882 598.5  C 885.36 598.5  888 601.14  888 604.5  C 888 607.86  885.36 610.5  882 610.5  C 878.64 610.5  876 607.86  876 604.5  C 876 601.14  878.64 598.5  882 598.5  Z " fill-rule="nonzero" fill="#ffffff" stroke="none" />
  <path d="M 882 599  C 885.08 599  887.5 601.42  887.5 604.5  C 887.5 607.58  885.08 610  882 610  C 878.92 610  876.5 607.58  876.5 604.5  C 876.5 601.42  878.92 599  882 599  Z " stroke-width="1" stroke="#797979" fill="none" />
  <path d="M 882 607.5  C 880.32 607.5  879 606.18  879 604.5  C 879 602.82  880.32 601.5  882 601.5  C 883.68 601.5  885 602.82  885 604.5  C 885 606.18  883.68 607.5  882 607.5  " fill-rule="nonzero" fill="#797979" stroke="none" />
</svg>