<?xml version="1.0" encoding="utf-8"?>
<svg version="1.1" xmlns:xlink="http://www.w3.org/1999/xlink" width="12px" height="12px" viewBox="530 1116.5  12 12" xmlns="http://www.w3.org/2000/svg">
  <path d="M 536 1116.5  C 539.36 1116.5  542 1119.14  542 1122.5  C 542 1125.86  539.36 1128.5  536 1128.5  C 532.64 1128.5  530 1125.86  530 1122.5  C 530 1119.14  532.64 1116.5  536 1116.5  Z " fill-rule="nonzero" fill="#ffffff" stroke="none" />
  <path d="M 536 1117  C 539.08 1117  541.5 1119.42  541.5 1122.5  C 541.5 1125.58  539.08 1128  536 1128  C 532.92 1128  530.5 1125.58  530.5 1122.5  C 530.5 1119.42  532.92 1117  536 1117  Z " stroke-width="1" stroke="#797979" fill="none" />
  <path d="M 536 1125.5  C 534.32 1125.5  533 1124.18  533 1122.5  C 533 1120.82  534.32 1119.5  536 1119.5  C 537.68 1119.5  539 1120.82  539 1122.5  C 539 1124.18  537.68 1125.5  536 1125.5  " fill-rule="nonzero" fill="#797979" stroke="none" />
</svg>