<?xml version="1.0" encoding="utf-8"?>
<svg version="1.1" xmlns:xlink="http://www.w3.org/1999/xlink" width="12px" height="12px" viewBox="355 1206.5  12 12" xmlns="http://www.w3.org/2000/svg">
  <path d="M 361 1206.5  C 364.36 1206.5  367 1209.14  367 1212.5  C 367 1215.86  364.36 1218.5  361 1218.5  C 357.64 1218.5  355 1215.86  355 1212.5  C 355 1209.14  357.64 1206.5  361 1206.5  Z " fill-rule="nonzero" fill="#f0f0f0" stroke="none" />
  <path d="M 361 1207  C 364.08 1207  366.5 1209.42  366.5 1212.5  C 366.5 1215.58  364.08 1218  361 1218  C 357.92 1218  355.5 1215.58  355.5 1212.5  C 355.5 1209.42  357.92 1207  361 1207  Z " stroke-width="1" stroke="#797979" fill="none" />
  <path d="M 361 1215.5  C 359.32 1215.5  358 1214.18  358 1212.5  C 358 1210.82  359.32 1209.5  361 1209.5  C 362.68 1209.5  364 1210.82  364 1212.5  C 364 1214.18  362.68 1215.5  361 1215.5  " fill-rule="nonzero" fill="#797979" stroke="none" />
</svg>