<?xml version="1.0" encoding="utf-8"?>
<svg version="1.1" xmlns:xlink="http://www.w3.org/1999/xlink" width="12px" height="12px" viewBox="237 467.5  12 12" xmlns="http://www.w3.org/2000/svg">
  <path d="M 243 467.5  C 246.36 467.5  249 470.14  249 473.5  C 249 476.86  246.36 479.5  243 479.5  C 239.64 479.5  237 476.86  237 473.5  C 237 470.14  239.64 467.5  243 467.5  Z " fill-rule="nonzero" fill="#f0f0f0" stroke="none" />
  <path d="M 243 468  C 246.08 468  248.5 470.42  248.5 473.5  C 248.5 476.58  246.08 479  243 479  C 239.92 479  237.5 476.58  237.5 473.5  C 237.5 470.42  239.92 468  243 468  Z " stroke-width="1" stroke="#333333" fill="none" />
  <path d="M 243 476.5  C 241.32 476.5  240 475.18  240 473.5  C 240 471.82  241.32 470.5  243 470.5  C 244.68 470.5  246 471.82  246 473.5  C 246 475.18  244.68 476.5  243 476.5  " fill-rule="nonzero" fill="#333333" stroke="none" />
</svg>