<?xml version="1.0" encoding="utf-8"?>
<svg version="1.1" xmlns:xlink="http://www.w3.org/1999/xlink" width="12px" height="12px" viewBox="865 527.5  12 12" xmlns="http://www.w3.org/2000/svg">
  <path d="M 871 527.5  C 874.36 527.5  877 530.14  877 533.5  C 877 536.86  874.36 539.5  871 539.5  C 867.64 539.5  865 536.86  865 533.5  C 865 530.14  867.64 527.5  871 527.5  Z " fill-rule="nonzero" fill="#f0f0f0" stroke="none" />
  <path d="M 871 528  C 874.08 528  876.5 530.42  876.5 533.5  C 876.5 536.58  874.08 539  871 539  C 867.92 539  865.5 536.58  865.5 533.5  C 865.5 530.42  867.92 528  871 528  Z " stroke-width="1" stroke="#797979" fill="none" />
  <path d="M 871 536.5  C 869.32 536.5  868 535.18  868 533.5  C 868 531.82  869.32 530.5  871 530.5  C 872.68 530.5  874 531.82  874 533.5  C 874 535.18  872.68 536.5  871 536.5  " fill-rule="nonzero" fill="#797979" stroke="none" />
</svg>