<?xml version="1.0" encoding="utf-8"?>
<svg version="1.1" xmlns:xlink="http://www.w3.org/1999/xlink" width="12px" height="12px" viewBox="187 666.5  12 12" xmlns="http://www.w3.org/2000/svg">
  <path d="M 193 666.5  C 196.36 666.5  199 669.14  199 672.5  C 199 675.86  196.36 678.5  193 678.5  C 189.64 678.5  187 675.86  187 672.5  C 187 669.14  189.64 666.5  193 666.5  Z " fill-rule="nonzero" fill="#ffffff" stroke="none" />
  <path d="M 193 667  C 196.08 667  198.5 669.42  198.5 672.5  C 198.5 675.58  196.08 678  193 678  C 189.92 678  187.5 675.58  187.5 672.5  C 187.5 669.42  189.92 667  193 667  Z " stroke-width="1" stroke="#797979" fill="none" />
  <path d="M 193 675.5  C 191.32 675.5  190 674.18  190 672.5  C 190 670.82  191.32 669.5  193 669.5  C 194.68 669.5  196 670.82  196 672.5  C 196 674.18  194.68 675.5  193 675.5  " fill-rule="nonzero" fill="#797979" stroke="none" />
</svg>