<?xml version="1.0" encoding="utf-8"?>
<svg version="1.1" xmlns:xlink="http://www.w3.org/1999/xlink" width="12px" height="12px" viewBox="187 696.5  12 12" xmlns="http://www.w3.org/2000/svg">
  <path d="M 193 696.5  C 196.36 696.5  199 699.14  199 702.5  C 199 705.86  196.36 708.5  193 708.5  C 189.64 708.5  187 705.86  187 702.5  C 187 699.14  189.64 696.5  193 696.5  Z " fill-rule="nonzero" fill="#ffffff" stroke="none" />
  <path d="M 193 697  C 196.08 697  198.5 699.42  198.5 702.5  C 198.5 705.58  196.08 708  193 708  C 189.92 708  187.5 705.58  187.5 702.5  C 187.5 699.42  189.92 697  193 697  Z " stroke-width="1" stroke="#797979" fill="none" />
  <path d="M 193 705.5  C 191.32 705.5  190 704.18  190 702.5  C 190 700.82  191.32 699.5  193 699.5  C 194.68 699.5  196 700.82  196 702.5  C 196 704.18  194.68 705.5  193 705.5  " fill-rule="nonzero" fill="#797979" stroke="none" />
</svg>