<?xml version="1.0" encoding="utf-8"?>
<svg version="1.1" xmlns:xlink="http://www.w3.org/1999/xlink" width="12px" height="12px" viewBox="587 696.5  12 12" xmlns="http://www.w3.org/2000/svg">
  <path d="M 593 696.5  C 596.36 696.5  599 699.14  599 702.5  C 599 705.86  596.36 708.5  593 708.5  C 589.64 708.5  587 705.86  587 702.5  C 587 699.14  589.64 696.5  593 696.5  Z " fill-rule="nonzero" fill="#f0f0f0" stroke="none" />
  <path d="M 593 697  C 596.08 697  598.5 699.42  598.5 702.5  C 598.5 705.58  596.08 708  593 708  C 589.92 708  587.5 705.58  587.5 702.5  C 587.5 699.42  589.92 697  593 697  Z " stroke-width="1" stroke="#797979" fill="none" />
  <path d="M 593 705.5  C 591.32 705.5  590 704.18  590 702.5  C 590 700.82  591.32 699.5  593 699.5  C 594.68 699.5  596 700.82  596 702.5  C 596 704.18  594.68 705.5  593 705.5  " fill-rule="nonzero" fill="#797979" stroke="none" />
</svg>