<?xml version="1.0" encoding="utf-8"?>
<svg version="1.1" xmlns:xlink="http://www.w3.org/1999/xlink" width="12px" height="12px" viewBox="953 696.5  12 12" xmlns="http://www.w3.org/2000/svg">
  <path d="M 959 696.5  C 962.36 696.5  965 699.14  965 702.5  C 965 705.86  962.36 708.5  959 708.5  C 955.64 708.5  953 705.86  953 702.5  C 953 699.14  955.64 696.5  959 696.5  Z " fill-rule="nonzero" fill="#f0f0f0" stroke="none" />
  <path d="M 959 697  C 962.08 697  964.5 699.42  964.5 702.5  C 964.5 705.58  962.08 708  959 708  C 955.92 708  953.5 705.58  953.5 702.5  C 953.5 699.42  955.92 697  959 697  Z " stroke-width="1" stroke="#333333" fill="none" />
  <path d="M 959 705.5  C 957.32 705.5  956 704.18  956 702.5  C 956 700.82  957.32 699.5  959 699.5  C 960.68 699.5  962 700.82  962 702.5  C 962 704.18  960.68 705.5  959 705.5  " fill-rule="nonzero" fill="#333333" stroke="none" />
</svg>