<?xml version="1.0" encoding="utf-8"?>
<svg version="1.1" xmlns:xlink="http://www.w3.org/1999/xlink" width="12px" height="12px" viewBox="187 866.5  12 12" xmlns="http://www.w3.org/2000/svg">
  <path d="M 193 866.5  C 196.36 866.5  199 869.14  199 872.5  C 199 875.86  196.36 878.5  193 878.5  C 189.64 878.5  187 875.86  187 872.5  C 187 869.14  189.64 866.5  193 866.5  Z " fill-rule="nonzero" fill="#ffffff" stroke="none" />
  <path d="M 193 867  C 196.08 867  198.5 869.42  198.5 872.5  C 198.5 875.58  196.08 878  193 878  C 189.92 878  187.5 875.58  187.5 872.5  C 187.5 869.42  189.92 867  193 867  Z " stroke-width="1" stroke="#797979" fill="none" />
  <path d="M 193 875.5  C 191.32 875.5  190 874.18  190 872.5  C 190 870.82  191.32 869.5  193 869.5  C 194.68 869.5  196 870.82  196 872.5  C 196 874.18  194.68 875.5  193 875.5  " fill-rule="nonzero" fill="#797979" stroke="none" />
</svg>