<?xml version="1.0" encoding="utf-8"?>
<svg version="1.1" xmlns:xlink="http://www.w3.org/1999/xlink" width="12px" height="12px" viewBox="237 971.5  12 12" xmlns="http://www.w3.org/2000/svg">
  <path d="M 243 971.5  C 246.36 971.5  249 974.14  249 977.5  C 249 980.86  246.36 983.5  243 983.5  C 239.64 983.5  237 980.86  237 977.5  C 237 974.14  239.64 971.5  243 971.5  Z " fill-rule="nonzero" fill="#ffffff" stroke="none" />
  <path d="M 243 972  C 246.08 972  248.5 974.42  248.5 977.5  C 248.5 980.58  246.08 983  243 983  C 239.92 983  237.5 980.58  237.5 977.5  C 237.5 974.42  239.92 972  243 972  Z " stroke-width="1" stroke="#333333" fill="none" />
  <path d="M 243 980.5  C 241.32 980.5  240 979.18  240 977.5  C 240 975.82  241.32 974.5  243 974.5  C 244.68 974.5  246 975.82  246 977.5  C 246 979.18  244.68 980.5  243 980.5  " fill-rule="nonzero" fill="#333333" stroke="none" />
</svg>