<?xml version="1.0" encoding="utf-8"?>
<svg version="1.1" xmlns:xlink="http://www.w3.org/1999/xlink" width="12px" height="12px" viewBox="412 601.5  12 12" xmlns="http://www.w3.org/2000/svg">
  <path d="M 418 601.5  C 421.36 601.5  424 604.14  424 607.5  C 424 610.86  421.36 613.5  418 613.5  C 414.64 613.5  412 610.86  412 607.5  C 412 604.14  414.64 601.5  418 601.5  Z " fill-rule="nonzero" fill="#ffffff" stroke="none" />
  <path d="M 418 602  C 421.08 602  423.5 604.42  423.5 607.5  C 423.5 610.58  421.08 613  418 613  C 414.92 613  412.5 610.58  412.5 607.5  C 412.5 604.42  414.92 602  418 602  Z " stroke-width="1" stroke="#333333" fill="none" />
  <path d="M 418 610.5  C 416.32 610.5  415 609.18  415 607.5  C 415 605.82  416.32 604.5  418 604.5  C 419.68 604.5  421 605.82  421 607.5  C 421 609.18  419.68 610.5  418 610.5  " fill-rule="nonzero" fill="#333333" stroke="none" />
</svg>