<?xml version="1.0" encoding="utf-8"?>
<svg version="1.1" xmlns:xlink="http://www.w3.org/1999/xlink" width="12px" height="12px" viewBox="887 601.5  12 12" xmlns="http://www.w3.org/2000/svg">
  <path d="M 893 601.5  C 896.36 601.5  899 604.14  899 607.5  C 899 610.86  896.36 613.5  893 613.5  C 889.64 613.5  887 610.86  887 607.5  C 887 604.14  889.64 601.5  893 601.5  Z " fill-rule="nonzero" fill="#f0f0f0" stroke="none" />
  <path d="M 893 602  C 896.08 602  898.5 604.42  898.5 607.5  C 898.5 610.58  896.08 613  893 613  C 889.92 613  887.5 610.58  887.5 607.5  C 887.5 604.42  889.92 602  893 602  Z " stroke-width="1" stroke="#333333" fill="none" />
  <path d="M 893 610.5  C 891.32 610.5  890 609.18  890 607.5  C 890 605.82  891.32 604.5  893 604.5  C 894.68 604.5  896 605.82  896 607.5  C 896 609.18  894.68 610.5  893 610.5  " fill-rule="nonzero" fill="#333333" stroke="none" />
</svg>