<?xml version="1.0" encoding="utf-8"?>
<svg version="1.1" xmlns:xlink="http://www.w3.org/1999/xlink" width="12px" height="12px" viewBox="887 666.5  12 12" xmlns="http://www.w3.org/2000/svg">
  <path d="M 893 666.5  C 896.36 666.5  899 669.14  899 672.5  C 899 675.86  896.36 678.5  893 678.5  C 889.64 678.5  887 675.86  887 672.5  C 887 669.14  889.64 666.5  893 666.5  Z " fill-rule="nonzero" fill="#f0f0f0" stroke="none" />
  <path d="M 893 667  C 896.08 667  898.5 669.42  898.5 672.5  C 898.5 675.58  896.08 678  893 678  C 889.92 678  887.5 675.58  887.5 672.5  C 887.5 669.42  889.92 667  893 667  Z " stroke-width="1" stroke="#333333" fill="none" />
  <path d="M 893 675.5  C 891.32 675.5  890 674.18  890 672.5  C 890 670.82  891.32 669.5  893 669.5  C 894.68 669.5  896 670.82  896 672.5  C 896 674.18  894.68 675.5  893 675.5  " fill-rule="nonzero" fill="#333333" stroke="none" />
</svg>