<?xml version="1.0" encoding="utf-8"?>
<svg version="1.1" xmlns:xlink="http://www.w3.org/1999/xlink" width="12px" height="12px" viewBox="777 836.5  12 12" xmlns="http://www.w3.org/2000/svg">
  <path d="M 783 836.5  C 786.36 836.5  789 839.14  789 842.5  C 789 845.86  786.36 848.5  783 848.5  C 779.64 848.5  777 845.86  777 842.5  C 777 839.14  779.64 836.5  783 836.5  Z " fill-rule="nonzero" fill="#f0f0f0" stroke="none" />
  <path d="M 783 837  C 786.08 837  788.5 839.42  788.5 842.5  C 788.5 845.58  786.08 848  783 848  C 779.92 848  777.5 845.58  777.5 842.5  C 777.5 839.42  779.92 837  783 837  Z " stroke-width="1" stroke="#797979" fill="none" />
  <path d="M 783 845.5  C 781.32 845.5  780 844.18  780 842.5  C 780 840.82  781.32 839.5  783 839.5  C 784.68 839.5  786 840.82  786 842.5  C 786 844.18  784.68 845.5  783 845.5  " fill-rule="nonzero" fill="#797979" stroke="none" />
</svg>