<?xml version="1.0" encoding="utf-8"?>
<svg version="1.1" xmlns:xlink="http://www.w3.org/1999/xlink" width="12px" height="12px" viewBox="232 510.5  12 12" xmlns="http://www.w3.org/2000/svg">
  <path d="M 238 510.5  C 241.36 510.5  244 513.14  244 516.5  C 244 519.86  241.36 522.5  238 522.5  C 234.64 522.5  232 519.86  232 516.5  C 232 513.14  234.64 510.5  238 510.5  Z " fill-rule="nonzero" fill="#f0f0f0" stroke="none" />
  <path d="M 238 511  C 241.08 511  243.5 513.42  243.5 516.5  C 243.5 519.58  241.08 522  238 522  C 234.92 522  232.5 519.58  232.5 516.5  C 232.5 513.42  234.92 511  238 511  Z " stroke-width="1" stroke="#797979" fill="none" />
  <path d="M 238 519.5  C 236.32 519.5  235 518.18  235 516.5  C 235 514.82  236.32 513.5  238 513.5  C 239.68 513.5  241 514.82  241 516.5  C 241 518.18  239.68 519.5  238 519.5  " fill-rule="nonzero" fill="#797979" stroke="none" />
</svg>