<?xml version="1.0" encoding="utf-8"?>
<svg version="1.1" xmlns:xlink="http://www.w3.org/1999/xlink" width="40px" height="40px" xmlns="http://www.w3.org/2000/svg">
  <g transform="matrix(1 0 0 1 -264 -179 )">
    <path d="M 264 179  L 304 179  L 304 219  L 264 219  L 264 179  " fill-rule="nonzero" fill="#cccccc" stroke="none" />
    <path d="M 267 182  L 301 182  L 301 216  L 267 216  L 267 182  " fill-rule="nonzero" fill="#ffffff" stroke="none" />
    <path d="M 287.8 191  C 286.12 191  284.8 189.68  284.8 188  C 284.8 186.32  286.12 185  287.8 185  C 289.48 185  290.8 186.32  290.8 188  C 290.8 189.68  289.48 191  287.8 191  " fill-rule="nonzero" fill="#cccccc" stroke="none" />
    <path d="M 268 215  L 268 197.4  L 276 189.4  L 287.2 195.8  L 293.6 194.2  L 300 195.8  L 300 215  L 268 215  " fill-rule="nonzero" fill="#169bd5" stroke="none" />
  </g>
</svg>