<?xml version="1.0" encoding="utf-8"?>
<svg version="1.1" xmlns:xlink="http://www.w3.org/1999/xlink" width="12px" height="12px" viewBox="322 668.5  12 12" xmlns="http://www.w3.org/2000/svg">
  <path d="M 328 668.5  C 331.36 668.5  334 671.14  334 674.5  C 334 677.86  331.36 680.5  328 680.5  C 324.64 680.5  322 677.86  322 674.5  C 322 671.14  324.64 668.5  328 668.5  Z " fill-rule="nonzero" fill="#f0f0f0" stroke="none" />
  <path d="M 328 669  C 331.08 669  333.5 671.42  333.5 674.5  C 333.5 677.58  331.08 680  328 680  C 324.92 680  322.5 677.58  322.5 674.5  C 322.5 671.42  324.92 669  328 669  Z " stroke-width="1" stroke="#797979" fill="none" />
  <path d="M 328 677.5  C 326.32 677.5  325 676.18  325 674.5  C 325 672.82  326.32 671.5  328 671.5  C 329.68 671.5  331 672.82  331 674.5  C 331 676.18  329.68 677.5  328 677.5  " fill-rule="nonzero" fill="#797979" stroke="none" />
</svg>