<?xml version="1.0" encoding="utf-8"?>
<svg version="1.1" xmlns:xlink="http://www.w3.org/1999/xlink" width="12px" height="12px" viewBox="308 510.5  12 12" xmlns="http://www.w3.org/2000/svg">
  <path d="M 314 510.5  C 317.36 510.5  320 513.14  320 516.5  C 320 519.86  317.36 522.5  314 522.5  C 310.64 522.5  308 519.86  308 516.5  C 308 513.14  310.64 510.5  314 510.5  Z " fill-rule="nonzero" fill="#f0f0f0" stroke="none" />
  <path d="M 314 511  C 317.08 511  319.5 513.42  319.5 516.5  C 319.5 519.58  317.08 522  314 522  C 310.92 522  308.5 519.58  308.5 516.5  C 308.5 513.42  310.92 511  314 511  Z " stroke-width="1" stroke="#797979" fill="none" />
  <path d="M 314 519.5  C 312.32 519.5  311 518.18  311 516.5  C 311 514.82  312.32 513.5  314 513.5  C 315.68 513.5  317 514.82  317 516.5  C 317 518.18  315.68 519.5  314 519.5  " fill-rule="nonzero" fill="#797979" stroke="none" />
</svg>