<?xml version="1.0" encoding="utf-8"?>
<svg version="1.1" xmlns:xlink="http://www.w3.org/1999/xlink" width="12px" height="12px" viewBox="760 356.5  12 12" xmlns="http://www.w3.org/2000/svg">
  <path d="M 766 356.5  C 769.36 356.5  772 359.14  772 362.5  C 772 365.86  769.36 368.5  766 368.5  C 762.64 368.5  760 365.86  760 362.5  C 760 359.14  762.64 356.5  766 356.5  Z " fill-rule="nonzero" fill="#ffffff" stroke="none" />
  <path d="M 766 357  C 769.08 357  771.5 359.42  771.5 362.5  C 771.5 365.58  769.08 368  766 368  C 762.92 368  760.5 365.58  760.5 362.5  C 760.5 359.42  762.92 357  766 357  Z " stroke-width="1" stroke="#797979" fill="none" />
  <path d="M 766 365.5  C 764.32 365.5  763 364.18  763 362.5  C 763 360.82  764.32 359.5  766 359.5  C 767.68 359.5  769 360.82  769 362.5  C 769 364.18  767.68 365.5  766 365.5  " fill-rule="nonzero" fill="#797979" stroke="none" />
</svg>