<?xml version="1.0" encoding="utf-8"?>
<svg version="1.1" xmlns:xlink="http://www.w3.org/1999/xlink" width="12px" height="12px" viewBox="602 357.5  12 12" xmlns="http://www.w3.org/2000/svg">
  <path d="M 608 357.5  C 611.36 357.5  614 360.14  614 363.5  C 614 366.86  611.36 369.5  608 369.5  C 604.64 369.5  602 366.86  602 363.5  C 602 360.14  604.64 357.5  608 357.5  Z " fill-rule="nonzero" fill="#ffffff" stroke="none" />
  <path d="M 608 358  C 611.08 358  613.5 360.42  613.5 363.5  C 613.5 366.58  611.08 369  608 369  C 604.92 369  602.5 366.58  602.5 363.5  C 602.5 360.42  604.92 358  608 358  Z " stroke-width="1" stroke="#797979" fill="none" />
  <path d="M 608 366.5  C 606.32 366.5  605 365.18  605 363.5  C 605 361.82  606.32 360.5  608 360.5  C 609.68 360.5  611 361.82  611 363.5  C 611 365.18  609.68 366.5  608 366.5  " fill-rule="nonzero" fill="#797979" stroke="none" />
</svg>