<?xml version="1.0" encoding="utf-8"?>
<svg version="1.1" xmlns:xlink="http://www.w3.org/1999/xlink" width="12px" height="12px" viewBox="272 591.5  12 12" xmlns="http://www.w3.org/2000/svg">
  <path d="M 278 591.5  C 281.36 591.5  284 594.14  284 597.5  C 284 600.86  281.36 603.5  278 603.5  C 274.64 603.5  272 600.86  272 597.5  C 272 594.14  274.64 591.5  278 591.5  Z " fill-rule="nonzero" fill="#ffffff" stroke="none" />
  <path d="M 278 592  C 281.08 592  283.5 594.42  283.5 597.5  C 283.5 600.58  281.08 603  278 603  C 274.92 603  272.5 600.58  272.5 597.5  C 272.5 594.42  274.92 592  278 592  Z " stroke-width="1" stroke="#797979" fill="none" />
  <path d="M 278 600.5  C 276.32 600.5  275 599.18  275 597.5  C 275 595.82  276.32 594.5  278 594.5  C 279.68 594.5  281 595.82  281 597.5  C 281 599.18  279.68 600.5  278 600.5  " fill-rule="nonzero" fill="#797979" stroke="none" />
</svg>