<?xml version="1.0" encoding="utf-8"?>
<svg version="1.1" xmlns:xlink="http://www.w3.org/1999/xlink" width="12px" height="12px" viewBox="348 591.5  12 12" xmlns="http://www.w3.org/2000/svg">
  <path d="M 354 591.5  C 357.36 591.5  360 594.14  360 597.5  C 360 600.86  357.36 603.5  354 603.5  C 350.64 603.5  348 600.86  348 597.5  C 348 594.14  350.64 591.5  354 591.5  Z " fill-rule="nonzero" fill="#f0f0f0" stroke="none" />
  <path d="M 354 592  C 357.08 592  359.5 594.42  359.5 597.5  C 359.5 600.58  357.08 603  354 603  C 350.92 603  348.5 600.58  348.5 597.5  C 348.5 594.42  350.92 592  354 592  Z " stroke-width="1" stroke="#797979" fill="none" />
  <path d="M 354 600.5  C 352.32 600.5  351 599.18  351 597.5  C 351 595.82  352.32 594.5  354 594.5  C 355.68 594.5  357 595.82  357 597.5  C 357 599.18  355.68 600.5  354 600.5  " fill-rule="nonzero" fill="#797979" stroke="none" />
</svg>