<?xml version="1.0" encoding="utf-8"?>
<svg version="1.1" xmlns:xlink="http://www.w3.org/1999/xlink" width="12px" height="12px" viewBox="424 626.5  12 12" xmlns="http://www.w3.org/2000/svg">
  <path d="M 430 626.5  C 433.36 626.5  436 629.14  436 632.5  C 436 635.86  433.36 638.5  430 638.5  C 426.64 638.5  424 635.86  424 632.5  C 424 629.14  426.64 626.5  430 626.5  Z " fill-rule="nonzero" fill="#ffffff" stroke="none" />
  <path d="M 430 627  C 433.08 627  435.5 629.42  435.5 632.5  C 435.5 635.58  433.08 638  430 638  C 426.92 638  424.5 635.58  424.5 632.5  C 424.5 629.42  426.92 627  430 627  Z " stroke-width="1" stroke="#797979" fill="none" />
  <path d="M 430 635.5  C 428.32 635.5  427 634.18  427 632.5  C 427 630.82  428.32 629.5  430 629.5  C 431.68 629.5  433 630.82  433 632.5  C 433 634.18  431.68 635.5  430 635.5  " fill-rule="nonzero" fill="#797979" stroke="none" />
</svg>