<?xml version="1.0" encoding="utf-8"?>
<svg version="1.1" xmlns:xlink="http://www.w3.org/1999/xlink" width="12px" height="12px" viewBox="272 659.5  12 12" xmlns="http://www.w3.org/2000/svg">
  <path d="M 278 659.5  C 281.36 659.5  284 662.14  284 665.5  C 284 668.86  281.36 671.5  278 671.5  C 274.64 671.5  272 668.86  272 665.5  C 272 662.14  274.64 659.5  278 659.5  Z " fill-rule="nonzero" fill="#f0f0f0" stroke="none" />
  <path d="M 278 660  C 281.08 660  283.5 662.42  283.5 665.5  C 283.5 668.58  281.08 671  278 671  C 274.92 671  272.5 668.58  272.5 665.5  C 272.5 662.42  274.92 660  278 660  Z " stroke-width="1" stroke="#797979" fill="none" />
  <path d="M 278 668.5  C 276.32 668.5  275 667.18  275 665.5  C 275 663.82  276.32 662.5  278 662.5  C 279.68 662.5  281 663.82  281 665.5  C 281 667.18  279.68 668.5  278 668.5  " fill-rule="nonzero" fill="#797979" stroke="none" />
</svg>