<?xml version="1.0" encoding="utf-8"?>
<svg version="1.1" xmlns:xlink="http://www.w3.org/1999/xlink" width="12px" height="12px" viewBox="518 382.5  12 12" xmlns="http://www.w3.org/2000/svg">
  <path d="M 524 382.5  C 527.36 382.5  530 385.14  530 388.5  C 530 391.86  527.36 394.5  524 394.5  C 520.64 394.5  518 391.86  518 388.5  C 518 385.14  520.64 382.5  524 382.5  Z " fill-rule="nonzero" fill="#ffffff" stroke="none" />
  <path d="M 524 383  C 527.08 383  529.5 385.42  529.5 388.5  C 529.5 391.58  527.08 394  524 394  C 520.92 394  518.5 391.58  518.5 388.5  C 518.5 385.42  520.92 383  524 383  Z " stroke-width="1" stroke="#797979" fill="none" />
  <path d="M 524 391.5  C 522.32 391.5  521 390.18  521 388.5  C 521 386.82  522.32 385.5  524 385.5  C 525.68 385.5  527 386.82  527 388.5  C 527 390.18  525.68 391.5  524 391.5  " fill-rule="nonzero" fill="#797979" stroke="none" />
</svg>