<?xml version="1.0" encoding="utf-8"?>
<svg version="1.1" xmlns:xlink="http://www.w3.org/1999/xlink" width="12px" height="12px" viewBox="824 382.5  12 12" xmlns="http://www.w3.org/2000/svg">
  <path d="M 830 382.5  C 833.36 382.5  836 385.14  836 388.5  C 836 391.86  833.36 394.5  830 394.5  C 826.64 394.5  824 391.86  824 388.5  C 824 385.14  826.64 382.5  830 382.5  Z " fill-rule="nonzero" fill="#f0f0f0" stroke="none" />
  <path d="M 830 383  C 833.08 383  835.5 385.42  835.5 388.5  C 835.5 391.58  833.08 394  830 394  C 826.92 394  824.5 391.58  824.5 388.5  C 824.5 385.42  826.92 383  830 383  Z " stroke-width="1" stroke="#797979" fill="none" />
  <path d="M 830 391.5  C 828.32 391.5  827 390.18  827 388.5  C 827 386.82  828.32 385.5  830 385.5  C 831.68 385.5  833 386.82  833 388.5  C 833 390.18  831.68 391.5  830 391.5  " fill-rule="nonzero" fill="#797979" stroke="none" />
</svg>