<?xml version="1.0" encoding="utf-8"?>
<svg version="1.1" xmlns:xlink="http://www.w3.org/1999/xlink" width="12px" height="12px" viewBox="901 382.5  12 12" xmlns="http://www.w3.org/2000/svg">
  <path d="M 907 382.5  C 910.36 382.5  913 385.14  913 388.5  C 913 391.86  910.36 394.5  907 394.5  C 903.64 394.5  901 391.86  901 388.5  C 901 385.14  903.64 382.5  907 382.5  Z " fill-rule="nonzero" fill="#ffffff" stroke="none" />
  <path d="M 907 383  C 910.08 383  912.5 385.42  912.5 388.5  C 912.5 391.58  910.08 394  907 394  C 903.92 394  901.5 391.58  901.5 388.5  C 901.5 385.42  903.92 383  907 383  Z " stroke-width="1" stroke="#797979" fill="none" />
  <path d="M 907 391.5  C 905.32 391.5  904 390.18  904 388.5  C 904 386.82  905.32 385.5  907 385.5  C 908.68 385.5  910 386.82  910 388.5  C 910 390.18  908.68 391.5  907 391.5  " fill-rule="nonzero" fill="#797979" stroke="none" />
</svg>