<?xml version="1.0" encoding="utf-8"?>
<svg version="1.1" xmlns:xlink="http://www.w3.org/1999/xlink" width="16px" height="16px" xmlns="http://www.w3.org/2000/svg">
  <g transform="matrix(1 0 0 1 -1241 -427 )">
    <path d="M 1247.56715935768 433.027864045  L 1249 428.61803398875  L 1250.43284064232 433.027864045  L 1255.06961036177 433.027864045  L 1251.31838485973 435.753288904374  L 1252.75122550204 440.163118960625  L 1249 437.437694101251  L 1245.24877449796 440.163118960625  L 1246.68161514027 435.753288904374  L 1242.93038963823 433.027864045  L 1247.56715935768 433.027864045  Z " fill-rule="nonzero" fill="#d7d7d7" stroke="none" />
    <path d="M 1247.20388809368 432.527864045  L 1249 427  L 1250.79611190632 432.527864045  L 1256.60845213036 432.527864045  L 1251.90617011202 435.944271909999  L 1253.70228201834 441.472135955  L 1249 438.055728090001  L 1244.29771798166 441.472135955  L 1246.09382988798 435.944271909999  L 1241.39154786964 432.527864045  L 1247.20388809368 432.527864045  Z M 1249 430.2360679775  L 1247.93043062169 433.527864045  L 1244.46923140681 433.527864045  L 1247.26940039256 435.562305898749  L 1246.19983101425 438.85410196625  L 1249 436.819660112501  L 1251.80016898575 438.85410196625  L 1250.73059960744 435.562305898749  L 1253.53076859319 433.527864045  L 1250.06956937831 433.527864045  L 1249 430.2360679775  Z " fill-rule="nonzero" fill="#d7d7d7" stroke="none" />
  </g>
</svg>