<?xml version="1.0" encoding="utf-8"?>
<svg version="1.1" xmlns:xlink="http://www.w3.org/1999/xlink" width="12px" height="12px" viewBox="302 701.5  12 12" xmlns="http://www.w3.org/2000/svg">
  <path d="M 308 701.5  C 311.36 701.5  314 704.14  314 707.5  C 314 710.86  311.36 713.5  308 713.5  C 304.64 713.5  302 710.86  302 707.5  C 302 704.14  304.64 701.5  308 701.5  Z " fill-rule="nonzero" fill="#f0f0f0" stroke="none" />
  <path d="M 308 702  C 311.08 702  313.5 704.42  313.5 707.5  C 313.5 710.58  311.08 713  308 713  C 304.92 713  302.5 710.58  302.5 707.5  C 302.5 704.42  304.92 702  308 702  Z " stroke-width="1" stroke="#797979" fill="none" />
  <path d="M 308 710.5  C 306.32 710.5  305 709.18  305 707.5  C 305 705.82  306.32 704.5  308 704.5  C 309.68 704.5  311 705.82  311 707.5  C 311 709.18  309.68 710.5  308 710.5  " fill-rule="nonzero" fill="#797979" stroke="none" />
</svg>