<?xml version="1.0" encoding="utf-8"?>
<svg version="1.1" xmlns:xlink="http://www.w3.org/1999/xlink" width="12px" height="12px" viewBox="777 666.5  12 12" xmlns="http://www.w3.org/2000/svg">
  <path d="M 783 666.5  C 786.36 666.5  789 669.14  789 672.5  C 789 675.86  786.36 678.5  783 678.5  C 779.64 678.5  777 675.86  777 672.5  C 777 669.14  779.64 666.5  783 666.5  Z " fill-rule="nonzero" fill="#f0f0f0" stroke="none" />
  <path d="M 783 667  C 786.08 667  788.5 669.42  788.5 672.5  C 788.5 675.58  786.08 678  783 678  C 779.92 678  777.5 675.58  777.5 672.5  C 777.5 669.42  779.92 667  783 667  Z " stroke-width="1" stroke="#797979" fill="none" />
  <path d="M 783 675.5  C 781.32 675.5  780 674.18  780 672.5  C 780 670.82  781.32 669.5  783 669.5  C 784.68 669.5  786 670.82  786 672.5  C 786 674.18  784.68 675.5  783 675.5  " fill-rule="nonzero" fill="#797979" stroke="none" />
</svg>