<?xml version="1.0" encoding="utf-8"?>
<svg version="1.1" xmlns:xlink="http://www.w3.org/1999/xlink" width="12px" height="12px" viewBox="498 1189.5  12 12" xmlns="http://www.w3.org/2000/svg">
  <path d="M 504 1189.5  C 507.36 1189.5  510 1192.14  510 1195.5  C 510 1198.86  507.36 1201.5  504 1201.5  C 500.64 1201.5  498 1198.86  498 1195.5  C 498 1192.14  500.64 1189.5  504 1189.5  Z " fill-rule="nonzero" fill="#f0f0f0" stroke="none" />
  <path d="M 504 1190  C 507.08 1190  509.5 1192.42  509.5 1195.5  C 509.5 1198.58  507.08 1201  504 1201  C 500.92 1201  498.5 1198.58  498.5 1195.5  C 498.5 1192.42  500.92 1190  504 1190  Z " stroke-width="1" stroke="#333333" fill="none" />
  <path d="M 504 1198.5  C 502.32 1198.5  501 1197.18  501 1195.5  C 501 1193.82  502.32 1192.5  504 1192.5  C 505.68 1192.5  507 1193.82  507 1195.5  C 507 1197.18  505.68 1198.5  504 1198.5  " fill-rule="nonzero" fill="#333333" stroke="none" />
</svg>