<?xml version="1.0" encoding="utf-8"?>
<svg version="1.1" xmlns:xlink="http://www.w3.org/1999/xlink" width="12px" height="12px" viewBox="793 600.5  12 12" xmlns="http://www.w3.org/2000/svg">
  <path d="M 799 600.5  C 802.36 600.5  805 603.14  805 606.5  C 805 609.86  802.36 612.5  799 612.5  C 795.64 612.5  793 609.86  793 606.5  C 793 603.14  795.64 600.5  799 600.5  Z " fill-rule="nonzero" fill="#f0f0f0" stroke="none" />
  <path d="M 799 601  C 802.08 601  804.5 603.42  804.5 606.5  C 804.5 609.58  802.08 612  799 612  C 795.92 612  793.5 609.58  793.5 606.5  C 793.5 603.42  795.92 601  799 601  Z " stroke-width="1" stroke="#333333" fill="none" />
  <path d="M 799 609.5  C 797.32 609.5  796 608.18  796 606.5  C 796 604.82  797.32 603.5  799 603.5  C 800.68 603.5  802 604.82  802 606.5  C 802 608.18  800.68 609.5  799 609.5  " fill-rule="nonzero" fill="#333333" stroke="none" />
</svg>