<?xml version="1.0" encoding="utf-8"?>
<svg version="1.1" xmlns:xlink="http://www.w3.org/1999/xlink" width="12px" height="12px" viewBox="318 802.5  12 12" xmlns="http://www.w3.org/2000/svg">
  <path d="M 324 802.5  C 327.36 802.5  330 805.14  330 808.5  C 330 811.86  327.36 814.5  324 814.5  C 320.64 814.5  318 811.86  318 808.5  C 318 805.14  320.64 802.5  324 802.5  Z " fill-rule="nonzero" fill="#f0f0f0" stroke="none" />
  <path d="M 324 803  C 327.08 803  329.5 805.42  329.5 808.5  C 329.5 811.58  327.08 814  324 814  C 320.92 814  318.5 811.58  318.5 808.5  C 318.5 805.42  320.92 803  324 803  Z " stroke-width="1" stroke="#333333" fill="none" />
  <path d="M 324 811.5  C 322.32 811.5  321 810.18  321 808.5  C 321 806.82  322.32 805.5  324 805.5  C 325.68 805.5  327 806.82  327 808.5  C 327 810.18  325.68 811.5  324 811.5  " fill-rule="nonzero" fill="#333333" stroke="none" />
</svg>