<?xml version="1.0" encoding="utf-8"?>
<svg version="1.1" xmlns:xlink="http://www.w3.org/1999/xlink" width="12px" height="12px" viewBox="317 617  12 12" xmlns="http://www.w3.org/2000/svg">
  <path d="M 323 617  C 326.36 617  329 619.64  329 623  C 329 626.36  326.36 629  323 629  C 319.64 629  317 626.36  317 623  C 317 619.64  319.64 617  323 617  Z " fill-rule="nonzero" fill="#ffffff" stroke="none" />
  <path d="M 323 617.5  C 326.08 617.5  328.5 619.92  328.5 623  C 328.5 626.08  326.08 628.5  323 628.5  C 319.92 628.5  317.5 626.08  317.5 623  C 317.5 619.92  319.92 617.5  323 617.5  Z " stroke-width="1" stroke="#797979" fill="none" />
  <path d="M 323 626  C 321.32 626  320 624.68  320 623  C 320 621.32  321.32 620  323 620  C 324.68 620  326 621.32  326 623  C 326 624.68  324.68 626  323 626  " fill-rule="nonzero" fill="#797979" stroke="none" />
</svg>