<?xml version="1.0" encoding="utf-8"?>
<svg version="1.1" xmlns:xlink="http://www.w3.org/1999/xlink" width="12px" height="12px" viewBox="317 463  12 12" xmlns="http://www.w3.org/2000/svg">
  <path d="M 323 463  C 326.36 463  329 465.64  329 469  C 329 472.36  326.36 475  323 475  C 319.64 475  317 472.36  317 469  C 317 465.64  319.64 463  323 463  Z " fill-rule="nonzero" fill="#f0f0f0" stroke="none" />
  <path d="M 323 463.5  C 326.08 463.5  328.5 465.92  328.5 469  C 328.5 472.08  326.08 474.5  323 474.5  C 319.92 474.5  317.5 472.08  317.5 469  C 317.5 465.92  319.92 463.5  323 463.5  Z " stroke-width="1" stroke="#797979" fill="none" />
  <path d="M 323 472  C 321.32 472  320 470.68  320 469  C 320 467.32  321.32 466  323 466  C 324.68 466  326 467.32  326 469  C 326 470.68  324.68 472  323 472  " fill-rule="nonzero" fill="#797979" stroke="none" />
</svg>