<?xml version="1.0" encoding="utf-8"?>
<svg version="1.1" xmlns:xlink="http://www.w3.org/1999/xlink" width="12px" height="12px" viewBox="317 587  12 12" xmlns="http://www.w3.org/2000/svg">
  <path d="M 323 587  C 326.36 587  329 589.64  329 593  C 329 596.36  326.36 599  323 599  C 319.64 599  317 596.36  317 593  C 317 589.64  319.64 587  323 587  Z " fill-rule="nonzero" fill="#f0f0f0" stroke="none" />
  <path d="M 323 587.5  C 326.08 587.5  328.5 589.92  328.5 593  C 328.5 596.08  326.08 598.5  323 598.5  C 319.92 598.5  317.5 596.08  317.5 593  C 317.5 589.92  319.92 587.5  323 587.5  Z " stroke-width="1" stroke="#797979" fill="none" />
  <path d="M 323 596  C 321.32 596  320 594.68  320 593  C 320 591.32  321.32 590  323 590  C 324.68 590  326 591.32  326 593  C 326 594.68  324.68 596  323 596  " fill-rule="nonzero" fill="#797979" stroke="none" />
</svg>