<?xml version="1.0" encoding="utf-8"?>
<svg version="1.1" xmlns:xlink="http://www.w3.org/1999/xlink" width="12px" height="12px" viewBox="317 677  12 12" xmlns="http://www.w3.org/2000/svg">
  <path d="M 323 677  C 326.36 677  329 679.64  329 683  C 329 686.36  326.36 689  323 689  C 319.64 689  317 686.36  317 683  C 317 679.64  319.64 677  323 677  Z " fill-rule="nonzero" fill="#f0f0f0" stroke="none" />
  <path d="M 323 677.5  C 326.08 677.5  328.5 679.92  328.5 683  C 328.5 686.08  326.08 688.5  323 688.5  C 319.92 688.5  317.5 686.08  317.5 683  C 317.5 679.92  319.92 677.5  323 677.5  Z " stroke-width="1" stroke="#797979" fill="none" />
  <path d="M 323 686  C 321.32 686  320 684.68  320 683  C 320 681.32  321.32 680  323 680  C 324.68 680  326 681.32  326 683  C 326 684.68  324.68 686  323 686  " fill-rule="nonzero" fill="#797979" stroke="none" />
</svg>