<?xml version="1.0" encoding="utf-8"?>
<svg version="1.1" xmlns:xlink="http://www.w3.org/1999/xlink" width="12px" height="12px" viewBox="317 493  12 12" xmlns="http://www.w3.org/2000/svg">
  <path d="M 323 493  C 326.36 493  329 495.64  329 499  C 329 502.36  326.36 505  323 505  C 319.64 505  317 502.36  317 499  C 317 495.64  319.64 493  323 493  Z " fill-rule="nonzero" fill="#f0f0f0" stroke="none" />
  <path d="M 323 493.5  C 326.08 493.5  328.5 495.92  328.5 499  C 328.5 502.08  326.08 504.5  323 504.5  C 319.92 504.5  317.5 502.08  317.5 499  C 317.5 495.92  319.92 493.5  323 493.5  Z " stroke-width="1" stroke="#797979" fill="none" />
  <path d="M 323 502  C 321.32 502  320 500.68  320 499  C 320 497.32  321.32 496  323 496  C 324.68 496  326 497.32  326 499  C 326 500.68  324.68 502  323 502  " fill-rule="nonzero" fill="#797979" stroke="none" />
</svg>