<?xml version="1.0" encoding="utf-8"?>
<svg version="1.1" xmlns:xlink="http://www.w3.org/1999/xlink" width="12px" height="12px" viewBox="317 647  12 12" xmlns="http://www.w3.org/2000/svg">
  <path d="M 323 647  C 326.36 647  329 649.64  329 653  C 329 656.36  326.36 659  323 659  C 319.64 659  317 656.36  317 653  C 317 649.64  319.64 647  323 647  Z " fill-rule="nonzero" fill="#ffffff" stroke="none" />
  <path d="M 323 647.5  C 326.08 647.5  328.5 649.92  328.5 653  C 328.5 656.08  326.08 658.5  323 658.5  C 319.92 658.5  317.5 656.08  317.5 653  C 317.5 649.92  319.92 647.5  323 647.5  Z " stroke-width="1" stroke="#797979" fill="none" />
  <path d="M 323 656  C 321.32 656  320 654.68  320 653  C 320 651.32  321.32 650  323 650  C 324.68 650  326 651.32  326 653  C 326 654.68  324.68 656  323 656  " fill-rule="nonzero" fill="#797979" stroke="none" />
</svg>