<?xml version="1.0" encoding="utf-8"?>
<svg version="1.1" xmlns:xlink="http://www.w3.org/1999/xlink" width="12px" height="12px" viewBox="317 433  12 12" xmlns="http://www.w3.org/2000/svg">
  <path d="M 323 433  C 326.36 433  329 435.64  329 439  C 329 442.36  326.36 445  323 445  C 319.64 445  317 442.36  317 439  C 317 435.64  319.64 433  323 433  Z " fill-rule="nonzero" fill="#f0f0f0" stroke="none" />
  <path d="M 323 433.5  C 326.08 433.5  328.5 435.92  328.5 439  C 328.5 442.08  326.08 444.5  323 444.5  C 319.92 444.5  317.5 442.08  317.5 439  C 317.5 435.92  319.92 433.5  323 433.5  Z " stroke-width="1" stroke="#797979" fill="none" />
  <path d="M 323 442  C 321.32 442  320 440.68  320 439  C 320 437.32  321.32 436  323 436  C 324.68 436  326 437.32  326 439  C 326 440.68  324.68 442  323 442  " fill-rule="nonzero" fill="#797979" stroke="none" />
</svg>