<?xml version="1.0" encoding="utf-8"?>
<svg version="1.1" xmlns:xlink="http://www.w3.org/1999/xlink" width="12px" height="12px" viewBox="317 707  12 12" xmlns="http://www.w3.org/2000/svg">
  <path d="M 323 707  C 326.36 707  329 709.64  329 713  C 329 716.36  326.36 719  323 719  C 319.64 719  317 716.36  317 713  C 317 709.64  319.64 707  323 707  Z " fill-rule="nonzero" fill="#f0f0f0" stroke="none" />
  <path d="M 323 707.5  C 326.08 707.5  328.5 709.92  328.5 713  C 328.5 716.08  326.08 718.5  323 718.5  C 319.92 718.5  317.5 716.08  317.5 713  C 317.5 709.92  319.92 707.5  323 707.5  Z " stroke-width="1" stroke="#797979" fill="none" />
  <path d="M 323 716  C 321.32 716  320 714.68  320 713  C 320 711.32  321.32 710  323 710  C 324.68 710  326 711.32  326 713  C 326 714.68  324.68 716  323 716  " fill-rule="nonzero" fill="#797979" stroke="none" />
</svg>