<?xml version="1.0" encoding="utf-8"?>
<svg version="1.1" xmlns:xlink="http://www.w3.org/1999/xlink" width="12px" height="12px" viewBox="317 764  12 12" xmlns="http://www.w3.org/2000/svg">
  <path d="M 323 764  C 326.36 764  329 766.64  329 770  C 329 773.36  326.36 776  323 776  C 319.64 776  317 773.36  317 770  C 317 766.64  319.64 764  323 764  Z " fill-rule="nonzero" fill="#ffffff" stroke="none" />
  <path d="M 323 764.5  C 326.08 764.5  328.5 766.92  328.5 770  C 328.5 773.08  326.08 775.5  323 775.5  C 319.92 775.5  317.5 773.08  317.5 770  C 317.5 766.92  319.92 764.5  323 764.5  Z " stroke-width="1" stroke="#797979" fill="none" />
  <path d="M 323 773  C 321.32 773  320 771.68  320 770  C 320 768.32  321.32 767  323 767  C 324.68 767  326 768.32  326 770  C 326 771.68  324.68 773  323 773  " fill-rule="nonzero" fill="#797979" stroke="none" />
</svg>