<?xml version="1.0" encoding="utf-8"?>
<svg version="1.1" xmlns:xlink="http://www.w3.org/1999/xlink" width="12px" height="12px" viewBox="317 794  12 12" xmlns="http://www.w3.org/2000/svg">
  <path d="M 323 794  C 326.36 794  329 796.64  329 800  C 329 803.36  326.36 806  323 806  C 319.64 806  317 803.36  317 800  C 317 796.64  319.64 794  323 794  Z " fill-rule="nonzero" fill="#f0f0f0" stroke="none" />
  <path d="M 323 794.5  C 326.08 794.5  328.5 796.92  328.5 800  C 328.5 803.08  326.08 805.5  323 805.5  C 319.92 805.5  317.5 803.08  317.5 800  C 317.5 796.92  319.92 794.5  323 794.5  Z " stroke-width="1" stroke="#797979" fill="none" />
  <path d="M 323 803  C 321.32 803  320 801.68  320 800  C 320 798.32  321.32 797  323 797  C 324.68 797  326 798.32  326 800  C 326 801.68  324.68 803  323 803  " fill-rule="nonzero" fill="#797979" stroke="none" />
</svg>