<?xml version="1.0" encoding="utf-8"?>
<svg version="1.1" xmlns:xlink="http://www.w3.org/1999/xlink" width="12px" height="12px" viewBox="317 1963  12 12" xmlns="http://www.w3.org/2000/svg">
  <path d="M 323 1963  C 326.36 1963  329 1965.64  329 1969  C 329 1972.36  326.36 1975  323 1975  C 319.64 1975  317 1972.36  317 1969  C 317 1965.64  319.64 1963  323 1963  Z " fill-rule="nonzero" fill="#f0f0f0" stroke="none" />
  <path d="M 323 1963.5  C 326.08 1963.5  328.5 1965.92  328.5 1969  C 328.5 1972.08  326.08 1974.5  323 1974.5  C 319.92 1974.5  317.5 1972.08  317.5 1969  C 317.5 1965.92  319.92 1963.5  323 1963.5  Z " stroke-width="1" stroke="#797979" fill="none" />
  <path d="M 323 1972  C 321.32 1972  320 1970.68  320 1969  C 320 1967.32  321.32 1966  323 1966  C 324.68 1966  326 1967.32  326 1969  C 326 1970.68  324.68 1972  323 1972  " fill-rule="nonzero" fill="#797979" stroke="none" />
</svg>