<?xml version="1.0" encoding="utf-8"?>
<svg version="1.1" xmlns:xlink="http://www.w3.org/1999/xlink" width="12px" height="12px" viewBox="317 3737  12 12" xmlns="http://www.w3.org/2000/svg">
  <path d="M 323 3737  C 326.36 3737  329 3739.64  329 3743  C 329 3746.36  326.36 3749  323 3749  C 319.64 3749  317 3746.36  317 3743  C 317 3739.64  319.64 3737  323 3737  Z " fill-rule="nonzero" fill="#f0f0f0" stroke="none" />
  <path d="M 323 3737.5  C 326.08 3737.5  328.5 3739.92  328.5 3743  C 328.5 3746.08  326.08 3748.5  323 3748.5  C 319.92 3748.5  317.5 3746.08  317.5 3743  C 317.5 3739.92  319.92 3737.5  323 3737.5  Z " stroke-width="1" stroke="#797979" fill="none" />
  <path d="M 323 3746  C 321.32 3746  320 3744.68  320 3743  C 320 3741.32  321.32 3740  323 3740  C 324.68 3740  326 3741.32  326 3743  C 326 3744.68  324.68 3746  323 3746  " fill-rule="nonzero" fill="#797979" stroke="none" />
</svg>