<?xml version="1.0" encoding="utf-8"?>
<svg version="1.1" xmlns:xlink="http://www.w3.org/1999/xlink" width="12px" height="12px" viewBox="317 1873  12 12" xmlns="http://www.w3.org/2000/svg">
  <path d="M 323 1873  C 326.36 1873  329 1875.64  329 1879  C 329 1882.36  326.36 1885  323 1885  C 319.64 1885  317 1882.36  317 1879  C 317 1875.64  319.64 1873  323 1873  Z " fill-rule="nonzero" fill="#f0f0f0" stroke="none" />
  <path d="M 323 1873.5  C 326.08 1873.5  328.5 1875.92  328.5 1879  C 328.5 1882.08  326.08 1884.5  323 1884.5  C 319.92 1884.5  317.5 1882.08  317.5 1879  C 317.5 1875.92  319.92 1873.5  323 1873.5  Z " stroke-width="1" stroke="#797979" fill="none" />
  <path d="M 323 1882  C 321.32 1882  320 1880.68  320 1879  C 320 1877.32  321.32 1876  323 1876  C 324.68 1876  326 1877.32  326 1879  C 326 1880.68  324.68 1882  323 1882  " fill-rule="nonzero" fill="#797979" stroke="none" />
</svg>