<?xml version="1.0" encoding="utf-8"?>
<svg version="1.1" xmlns:xlink="http://www.w3.org/1999/xlink" width="12px" height="12px" viewBox="317 854  12 12" xmlns="http://www.w3.org/2000/svg">
  <path d="M 323 854  C 326.36 854  329 856.64  329 860  C 329 863.36  326.36 866  323 866  C 319.64 866  317 863.36  317 860  C 317 856.64  319.64 854  323 854  Z " fill-rule="nonzero" fill="#f0f0f0" stroke="none" />
  <path d="M 323 854.5  C 326.08 854.5  328.5 856.92  328.5 860  C 328.5 863.08  326.08 865.5  323 865.5  C 319.92 865.5  317.5 863.08  317.5 860  C 317.5 856.92  319.92 854.5  323 854.5  Z " stroke-width="1" stroke="#797979" fill="none" />
  <path d="M 323 863  C 321.32 863  320 861.68  320 860  C 320 858.32  321.32 857  323 857  C 324.68 857  326 858.32  326 860  C 326 861.68  324.68 863  323 863  " fill-rule="nonzero" fill="#797979" stroke="none" />
</svg>