<?xml version="1.0" encoding="utf-8"?>
<svg version="1.1" xmlns:xlink="http://www.w3.org/1999/xlink" width="12px" height="12px" viewBox="317 1302  12 12" xmlns="http://www.w3.org/2000/svg">
  <path d="M 323 1302  C 326.36 1302  329 1304.64  329 1308  C 329 1311.36  326.36 1314  323 1314  C 319.64 1314  317 1311.36  317 1308  C 317 1304.64  319.64 1302  323 1302  Z " fill-rule="nonzero" fill="#ffffff" stroke="none" />
  <path d="M 323 1302.5  C 326.08 1302.5  328.5 1304.92  328.5 1308  C 328.5 1311.08  326.08 1313.5  323 1313.5  C 319.92 1313.5  317.5 1311.08  317.5 1308  C 317.5 1304.92  319.92 1302.5  323 1302.5  Z " stroke-width="1" stroke="#797979" fill="none" />
  <path d="M 323 1311  C 321.32 1311  320 1309.68  320 1308  C 320 1306.32  321.32 1305  323 1305  C 324.68 1305  326 1306.32  326 1308  C 326 1309.68  324.68 1311  323 1311  " fill-rule="nonzero" fill="#797979" stroke="none" />
</svg>