<?xml version="1.0" encoding="utf-8"?>
<svg version="1.1" xmlns:xlink="http://www.w3.org/1999/xlink" width="12px" height="12px" viewBox="317 2800  12 12" xmlns="http://www.w3.org/2000/svg">
  <path d="M 323 2800  C 326.36 2800  329 2802.64  329 2806  C 329 2809.36  326.36 2812  323 2812  C 319.64 2812  317 2809.36  317 2806  C 317 2802.64  319.64 2800  323 2800  Z " fill-rule="nonzero" fill="#ffffff" stroke="none" />
  <path d="M 323 2800.5  C 326.08 2800.5  328.5 2802.92  328.5 2806  C 328.5 2809.08  326.08 2811.5  323 2811.5  C 319.92 2811.5  317.5 2809.08  317.5 2806  C 317.5 2802.92  319.92 2800.5  323 2800.5  Z " stroke-width="1" stroke="#797979" fill="none" />
  <path d="M 323 2809  C 321.32 2809  320 2807.68  320 2806  C 320 2804.32  321.32 2803  323 2803  C 324.68 2803  326 2804.32  326 2806  C 326 2807.68  324.68 2809  323 2809  " fill-rule="nonzero" fill="#797979" stroke="none" />
</svg>