<?xml version="1.0" encoding="utf-8"?>
<svg version="1.1" xmlns:xlink="http://www.w3.org/1999/xlink" width="12px" height="12px" viewBox="317 1663  12 12" xmlns="http://www.w3.org/2000/svg">
  <path d="M 323 1663  C 326.36 1663  329 1665.64  329 1669  C 329 1672.36  326.36 1675  323 1675  C 319.64 1675  317 1672.36  317 1669  C 317 1665.64  319.64 1663  323 1663  Z " fill-rule="nonzero" fill="#ffffff" stroke="none" />
  <path d="M 323 1663.5  C 326.08 1663.5  328.5 1665.92  328.5 1669  C 328.5 1672.08  326.08 1674.5  323 1674.5  C 319.92 1674.5  317.5 1672.08  317.5 1669  C 317.5 1665.92  319.92 1663.5  323 1663.5  Z " stroke-width="1" stroke="#797979" fill="none" />
  <path d="M 323 1672  C 321.32 1672  320 1670.68  320 1669  C 320 1667.32  321.32 1666  323 1666  C 324.68 1666  326 1667.32  326 1669  C 326 1670.68  324.68 1672  323 1672  " fill-rule="nonzero" fill="#797979" stroke="none" />
</svg>