<?xml version="1.0" encoding="utf-8"?>
<svg version="1.1" xmlns:xlink="http://www.w3.org/1999/xlink" width="12px" height="12px" viewBox="317 1783  12 12" xmlns="http://www.w3.org/2000/svg">
  <path d="M 323 1783  C 326.36 1783  329 1785.64  329 1789  C 329 1792.36  326.36 1795  323 1795  C 319.64 1795  317 1792.36  317 1789  C 317 1785.64  319.64 1783  323 1783  Z " fill-rule="nonzero" fill="#f0f0f0" stroke="none" />
  <path d="M 323 1783.5  C 326.08 1783.5  328.5 1785.92  328.5 1789  C 328.5 1792.08  326.08 1794.5  323 1794.5  C 319.92 1794.5  317.5 1792.08  317.5 1789  C 317.5 1785.92  319.92 1783.5  323 1783.5  Z " stroke-width="1" stroke="#797979" fill="none" />
  <path d="M 323 1792  C 321.32 1792  320 1790.68  320 1789  C 320 1787.32  321.32 1786  323 1786  C 324.68 1786  326 1787.32  326 1789  C 326 1790.68  324.68 1792  323 1792  " fill-rule="nonzero" fill="#797979" stroke="none" />
</svg>