<?xml version="1.0" encoding="utf-8"?>
<svg version="1.1" xmlns:xlink="http://www.w3.org/1999/xlink" width="12px" height="12px" viewBox="317 2686  12 12" xmlns="http://www.w3.org/2000/svg">
  <path d="M 323 2686  C 326.36 2686  329 2688.64  329 2692  C 329 2695.36  326.36 2698  323 2698  C 319.64 2698  317 2695.36  317 2692  C 317 2688.64  319.64 2686  323 2686  Z " fill-rule="nonzero" fill="#ffffff" stroke="none" />
  <path d="M 323 2686.5  C 326.08 2686.5  328.5 2688.92  328.5 2692  C 328.5 2695.08  326.08 2697.5  323 2697.5  C 319.92 2697.5  317.5 2695.08  317.5 2692  C 317.5 2688.92  319.92 2686.5  323 2686.5  Z " stroke-width="1" stroke="#797979" fill="none" />
  <path d="M 323 2695  C 321.32 2695  320 2693.68  320 2692  C 320 2690.32  321.32 2689  323 2689  C 324.68 2689  326 2690.32  326 2692  C 326 2693.68  324.68 2695  323 2695  " fill-rule="nonzero" fill="#797979" stroke="none" />
</svg>