<?xml version="1.0" encoding="utf-8"?>
<svg version="1.1" xmlns:xlink="http://www.w3.org/1999/xlink" width="12px" height="12px" viewBox="317 1392  12 12" xmlns="http://www.w3.org/2000/svg">
  <path d="M 323 1392  C 326.36 1392  329 1394.64  329 1398  C 329 1401.36  326.36 1404  323 1404  C 319.64 1404  317 1401.36  317 1398  C 317 1394.64  319.64 1392  323 1392  Z " fill-rule="nonzero" fill="#f0f0f0" stroke="none" />
  <path d="M 323 1392.5  C 326.08 1392.5  328.5 1394.92  328.5 1398  C 328.5 1401.08  326.08 1403.5  323 1403.5  C 319.92 1403.5  317.5 1401.08  317.5 1398  C 317.5 1394.92  319.92 1392.5  323 1392.5  Z " stroke-width="1" stroke="#797979" fill="none" />
  <path d="M 323 1401  C 321.32 1401  320 1399.68  320 1398  C 320 1396.32  321.32 1395  323 1395  C 324.68 1395  326 1396.32  326 1398  C 326 1399.68  324.68 1401  323 1401  " fill-rule="nonzero" fill="#797979" stroke="none" />
</svg>