<?xml version="1.0" encoding="utf-8"?>
<svg version="1.1" xmlns:xlink="http://www.w3.org/1999/xlink" width="12px" height="12px" viewBox="317 3378  12 12" xmlns="http://www.w3.org/2000/svg">
  <path d="M 323 3378  C 326.36 3378  329 3380.64  329 3384  C 329 3387.36  326.36 3390  323 3390  C 319.64 3390  317 3387.36  317 3384  C 317 3380.64  319.64 3378  323 3378  Z " fill-rule="nonzero" fill="#ffffff" stroke="none" />
  <path d="M 323 3378.5  C 326.08 3378.5  328.5 3380.92  328.5 3384  C 328.5 3387.08  326.08 3389.5  323 3389.5  C 319.92 3389.5  317.5 3387.08  317.5 3384  C 317.5 3380.92  319.92 3378.5  323 3378.5  Z " stroke-width="1" stroke="#797979" fill="none" />
  <path d="M 323 3387  C 321.32 3387  320 3385.68  320 3384  C 320 3382.32  321.32 3381  323 3381  C 324.68 3381  326 3382.32  326 3384  C 326 3385.68  324.68 3387  323 3387  " fill-rule="nonzero" fill="#797979" stroke="none" />
</svg>