<?xml version="1.0" encoding="utf-8"?>
<svg version="1.1" xmlns:xlink="http://www.w3.org/1999/xlink" width="12px" height="12px" viewBox="317 2626  12 12" xmlns="http://www.w3.org/2000/svg">
  <path d="M 323 2626  C 326.36 2626  329 2628.64  329 2632  C 329 2635.36  326.36 2638  323 2638  C 319.64 2638  317 2635.36  317 2632  C 317 2628.64  319.64 2626  323 2626  Z " fill-rule="nonzero" fill="#f0f0f0" stroke="none" />
  <path d="M 323 2626.5  C 326.08 2626.5  328.5 2628.92  328.5 2632  C 328.5 2635.08  326.08 2637.5  323 2637.5  C 319.92 2637.5  317.5 2635.08  317.5 2632  C 317.5 2628.92  319.92 2626.5  323 2626.5  Z " stroke-width="1" stroke="#797979" fill="none" />
  <path d="M 323 2635  C 321.32 2635  320 2633.68  320 2632  C 320 2630.32  321.32 2629  323 2629  C 324.68 2629  326 2630.32  326 2632  C 326 2633.68  324.68 2635  323 2635  " fill-rule="nonzero" fill="#797979" stroke="none" />
</svg>