<?xml version="1.0" encoding="utf-8"?>
<svg version="1.1" xmlns:xlink="http://www.w3.org/1999/xlink" width="12px" height="12px" viewBox="317 1843  12 12" xmlns="http://www.w3.org/2000/svg">
  <path d="M 323 1843  C 326.36 1843  329 1845.64  329 1849  C 329 1852.36  326.36 1855  323 1855  C 319.64 1855  317 1852.36  317 1849  C 317 1845.64  319.64 1843  323 1843  Z " fill-rule="nonzero" fill="#f0f0f0" stroke="none" />
  <path d="M 323 1843.5  C 326.08 1843.5  328.5 1845.92  328.5 1849  C 328.5 1852.08  326.08 1854.5  323 1854.5  C 319.92 1854.5  317.5 1852.08  317.5 1849  C 317.5 1845.92  319.92 1843.5  323 1843.5  Z " stroke-width="1" stroke="#797979" fill="none" />
  <path d="M 323 1852  C 321.32 1852  320 1850.68  320 1849  C 320 1847.32  321.32 1846  323 1846  C 324.68 1846  326 1847.32  326 1849  C 326 1850.68  324.68 1852  323 1852  " fill-rule="nonzero" fill="#797979" stroke="none" />
</svg>