<?xml version="1.0" encoding="utf-8"?>
<svg version="1.1" xmlns:xlink="http://www.w3.org/1999/xlink" width="12px" height="12px" viewBox="317 1033  12 12" xmlns="http://www.w3.org/2000/svg">
  <path d="M 323 1033  C 326.36 1033  329 1035.64  329 1039  C 329 1042.36  326.36 1045  323 1045  C 319.64 1045  317 1042.36  317 1039  C 317 1035.64  319.64 1033  323 1033  Z " fill-rule="nonzero" fill="#ffffff" stroke="none" />
  <path d="M 323 1033.5  C 326.08 1033.5  328.5 1035.92  328.5 1039  C 328.5 1042.08  326.08 1044.5  323 1044.5  C 319.92 1044.5  317.5 1042.08  317.5 1039  C 317.5 1035.92  319.92 1033.5  323 1033.5  Z " stroke-width="1" stroke="#797979" fill="none" />
  <path d="M 323 1042  C 321.32 1042  320 1040.68  320 1039  C 320 1037.32  321.32 1036  323 1036  C 324.68 1036  326 1037.32  326 1039  C 326 1040.68  324.68 1042  323 1042  " fill-rule="nonzero" fill="#797979" stroke="none" />
</svg>