<?xml version="1.0" encoding="utf-8"?>
<svg version="1.1" xmlns:xlink="http://www.w3.org/1999/xlink" width="12px" height="12px" viewBox="317 3797  12 12" xmlns="http://www.w3.org/2000/svg">
  <path d="M 323 3797  C 326.36 3797  329 3799.64  329 3803  C 329 3806.36  326.36 3809  323 3809  C 319.64 3809  317 3806.36  317 3803  C 317 3799.64  319.64 3797  323 3797  Z " fill-rule="nonzero" fill="#f0f0f0" stroke="none" />
  <path d="M 323 3797.5  C 326.08 3797.5  328.5 3799.92  328.5 3803  C 328.5 3806.08  326.08 3808.5  323 3808.5  C 319.92 3808.5  317.5 3806.08  317.5 3803  C 317.5 3799.92  319.92 3797.5  323 3797.5  Z " stroke-width="1" stroke="#797979" fill="none" />
  <path d="M 323 3806  C 321.32 3806  320 3804.68  320 3803  C 320 3801.32  321.32 3800  323 3800  C 324.68 3800  326 3801.32  326 3803  C 326 3804.68  324.68 3806  323 3806  " fill-rule="nonzero" fill="#797979" stroke="none" />
</svg>