<?xml version="1.0" encoding="utf-8"?>
<svg version="1.1" xmlns:xlink="http://www.w3.org/1999/xlink" width="12px" height="12px" viewBox="317 1003  12 12" xmlns="http://www.w3.org/2000/svg">
  <path d="M 323 1003  C 326.36 1003  329 1005.64  329 1009  C 329 1012.36  326.36 1015  323 1015  C 319.64 1015  317 1012.36  317 1009  C 317 1005.64  319.64 1003  323 1003  Z " fill-rule="nonzero" fill="#f0f0f0" stroke="none" />
  <path d="M 323 1003.5  C 326.08 1003.5  328.5 1005.92  328.5 1009  C 328.5 1012.08  326.08 1014.5  323 1014.5  C 319.92 1014.5  317.5 1012.08  317.5 1009  C 317.5 1005.92  319.92 1003.5  323 1003.5  Z " stroke-width="1" stroke="#797979" fill="none" />
  <path d="M 323 1012  C 321.32 1012  320 1010.68  320 1009  C 320 1007.32  321.32 1006  323 1006  C 324.68 1006  326 1007.32  326 1009  C 326 1010.68  324.68 1012  323 1012  " fill-rule="nonzero" fill="#797979" stroke="none" />
</svg>