<?xml version="1.0" encoding="utf-8"?>
<svg version="1.1" xmlns:xlink="http://www.w3.org/1999/xlink" width="12px" height="12px" viewBox="317 3497  12 12" xmlns="http://www.w3.org/2000/svg">
  <path d="M 323 3497  C 326.36 3497  329 3499.64  329 3503  C 329 3506.36  326.36 3509  323 3509  C 319.64 3509  317 3506.36  317 3503  C 317 3499.64  319.64 3497  323 3497  Z " fill-rule="nonzero" fill="#f0f0f0" stroke="none" />
  <path d="M 323 3497.5  C 326.08 3497.5  328.5 3499.92  328.5 3503  C 328.5 3506.08  326.08 3508.5  323 3508.5  C 319.92 3508.5  317.5 3506.08  317.5 3503  C 317.5 3499.92  319.92 3497.5  323 3497.5  Z " stroke-width="1" stroke="#797979" fill="none" />
  <path d="M 323 3506  C 321.32 3506  320 3504.68  320 3503  C 320 3501.32  321.32 3500  323 3500  C 324.68 3500  326 3501.32  326 3503  C 326 3504.68  324.68 3506  323 3506  " fill-rule="nonzero" fill="#797979" stroke="none" />
</svg>