<?xml version="1.0" encoding="utf-8"?>
<svg version="1.1" xmlns:xlink="http://www.w3.org/1999/xlink" width="12px" height="12px" viewBox="317 3012  12 12" xmlns="http://www.w3.org/2000/svg">
  <path d="M 323 3012  C 326.36 3012  329 3014.64  329 3018  C 329 3021.36  326.36 3024  323 3024  C 319.64 3024  317 3021.36  317 3018  C 317 3014.64  319.64 3012  323 3012  Z " fill-rule="nonzero" fill="#ffffff" stroke="none" />
  <path d="M 323 3012.5  C 326.08 3012.5  328.5 3014.92  328.5 3018  C 328.5 3021.08  326.08 3023.5  323 3023.5  C 319.92 3023.5  317.5 3021.08  317.5 3018  C 317.5 3014.92  319.92 3012.5  323 3012.5  Z " stroke-width="1" stroke="#797979" fill="none" />
  <path d="M 323 3021  C 321.32 3021  320 3019.68  320 3018  C 320 3016.32  321.32 3015  323 3015  C 324.68 3015  326 3016.32  326 3018  C 326 3019.68  324.68 3021  323 3021  " fill-rule="nonzero" fill="#797979" stroke="none" />
</svg>