<?xml version="1.0" encoding="utf-8"?>
<svg version="1.1" xmlns:xlink="http://www.w3.org/1999/xlink" width="12px" height="12px" viewBox="317 3137  12 12" xmlns="http://www.w3.org/2000/svg">
  <path d="M 323 3137  C 326.36 3137  329 3139.64  329 3143  C 329 3146.36  326.36 3149  323 3149  C 319.64 3149  317 3146.36  317 3143  C 317 3139.64  319.64 3137  323 3137  Z " fill-rule="nonzero" fill="#ffffff" stroke="none" />
  <path d="M 323 3137.5  C 326.08 3137.5  328.5 3139.92  328.5 3143  C 328.5 3146.08  326.08 3148.5  323 3148.5  C 319.92 3148.5  317.5 3146.08  317.5 3143  C 317.5 3139.92  319.92 3137.5  323 3137.5  Z " stroke-width="1" stroke="#797979" fill="none" />
  <path d="M 323 3146  C 321.32 3146  320 3144.68  320 3143  C 320 3141.32  321.32 3140  323 3140  C 324.68 3140  326 3141.32  326 3143  C 326 3144.68  324.68 3146  323 3146  " fill-rule="nonzero" fill="#797979" stroke="none" />
</svg>