<?xml version="1.0" encoding="utf-8"?>
<svg version="1.1" xmlns:xlink="http://www.w3.org/1999/xlink" width="12px" height="12px" viewBox="317 2411  12 12" xmlns="http://www.w3.org/2000/svg">
  <path d="M 323 2411  C 326.36 2411  329 2413.64  329 2417  C 329 2420.36  326.36 2423  323 2423  C 319.64 2423  317 2420.36  317 2417  C 317 2413.64  319.64 2411  323 2411  Z " fill-rule="nonzero" fill="#f0f0f0" stroke="none" />
  <path d="M 323 2411.5  C 326.08 2411.5  328.5 2413.92  328.5 2417  C 328.5 2420.08  326.08 2422.5  323 2422.5  C 319.92 2422.5  317.5 2420.08  317.5 2417  C 317.5 2413.92  319.92 2411.5  323 2411.5  Z " stroke-width="1" stroke="#797979" fill="none" />
  <path d="M 323 2420  C 321.32 2420  320 2418.68  320 2417  C 320 2415.32  321.32 2414  323 2414  C 324.68 2414  326 2415.32  326 2417  C 326 2418.68  324.68 2420  323 2420  " fill-rule="nonzero" fill="#797979" stroke="none" />
</svg>