<?xml version="1.0" encoding="utf-8"?>
<svg version="1.1" xmlns:xlink="http://www.w3.org/1999/xlink" width="12px" height="12px" viewBox="317 884  12 12" xmlns="http://www.w3.org/2000/svg">
  <path d="M 323 884  C 326.36 884  329 886.64  329 890  C 329 893.36  326.36 896  323 896  C 319.64 896  317 893.36  317 890  C 317 886.64  319.64 884  323 884  Z " fill-rule="nonzero" fill="#ffffff" stroke="none" />
  <path d="M 323 884.5  C 326.08 884.5  328.5 886.92  328.5 890  C 328.5 893.08  326.08 895.5  323 895.5  C 319.92 895.5  317.5 893.08  317.5 890  C 317.5 886.92  319.92 884.5  323 884.5  Z " stroke-width="1" stroke="#797979" fill="none" />
  <path d="M 323 893  C 321.32 893  320 891.68  320 890  C 320 888.32  321.32 887  323 887  C 324.68 887  326 888.32  326 890  C 326 891.68  324.68 893  323 893  " fill-rule="nonzero" fill="#797979" stroke="none" />
</svg>