<?xml version="1.0" encoding="utf-8"?>
<svg version="1.1" xmlns:xlink="http://www.w3.org/1999/xlink" width="12px" height="12px" viewBox="317 3408  12 12" xmlns="http://www.w3.org/2000/svg">
  <path d="M 323 3408  C 326.36 3408  329 3410.64  329 3414  C 329 3417.36  326.36 3420  323 3420  C 319.64 3420  317 3417.36  317 3414  C 317 3410.64  319.64 3408  323 3408  Z " fill-rule="nonzero" fill="#f0f0f0" stroke="none" />
  <path d="M 323 3408.5  C 326.08 3408.5  328.5 3410.92  328.5 3414  C 328.5 3417.08  326.08 3419.5  323 3419.5  C 319.92 3419.5  317.5 3417.08  317.5 3414  C 317.5 3410.92  319.92 3408.5  323 3408.5  Z " stroke-width="1" stroke="#797979" fill="none" />
  <path d="M 323 3417  C 321.32 3417  320 3415.68  320 3414  C 320 3412.32  321.32 3411  323 3411  C 324.68 3411  326 3412.32  326 3414  C 326 3415.68  324.68 3417  323 3417  " fill-rule="nonzero" fill="#797979" stroke="none" />
</svg>