<?xml version="1.0" encoding="utf-8"?>
<svg version="1.1" xmlns:xlink="http://www.w3.org/1999/xlink" width="12px" height="12px" viewBox="317 3072  12 12" xmlns="http://www.w3.org/2000/svg">
  <path d="M 323 3072  C 326.36 3072  329 3074.64  329 3078  C 329 3081.36  326.36 3084  323 3084  C 319.64 3084  317 3081.36  317 3078  C 317 3074.64  319.64 3072  323 3072  Z " fill-rule="nonzero" fill="#f0f0f0" stroke="none" />
  <path d="M 323 3072.5  C 326.08 3072.5  328.5 3074.92  328.5 3078  C 328.5 3081.08  326.08 3083.5  323 3083.5  C 319.92 3083.5  317.5 3081.08  317.5 3078  C 317.5 3074.92  319.92 3072.5  323 3072.5  Z " stroke-width="1" stroke="#797979" fill="none" />
  <path d="M 323 3081  C 321.32 3081  320 3079.68  320 3078  C 320 3076.32  321.32 3075  323 3075  C 324.68 3075  326 3076.32  326 3078  C 326 3079.68  324.68 3081  323 3081  " fill-rule="nonzero" fill="#797979" stroke="none" />
</svg>