<?xml version="1.0" encoding="utf-8"?>
<svg version="1.1" xmlns:xlink="http://www.w3.org/1999/xlink" width="12px" height="12px" viewBox="317 3557  12 12" xmlns="http://www.w3.org/2000/svg">
  <path d="M 323 3557  C 326.36 3557  329 3559.64  329 3563  C 329 3566.36  326.36 3569  323 3569  C 319.64 3569  317 3566.36  317 3563  C 317 3559.64  319.64 3557  323 3557  Z " fill-rule="nonzero" fill="#ffffff" stroke="none" />
  <path d="M 323 3557.5  C 326.08 3557.5  328.5 3559.92  328.5 3563  C 328.5 3566.08  326.08 3568.5  323 3568.5  C 319.92 3568.5  317.5 3566.08  317.5 3563  C 317.5 3559.92  319.92 3557.5  323 3557.5  Z " stroke-width="1" stroke="#797979" fill="none" />
  <path d="M 323 3566  C 321.32 3566  320 3564.68  320 3563  C 320 3561.32  321.32 3560  323 3560  C 324.68 3560  326 3561.32  326 3563  C 326 3564.68  324.68 3566  323 3566  " fill-rule="nonzero" fill="#797979" stroke="none" />
</svg>