<?xml version="1.0" encoding="utf-8"?>
<svg version="1.1" xmlns:xlink="http://www.w3.org/1999/xlink" width="12px" height="12px" viewBox="317 2441  12 12" xmlns="http://www.w3.org/2000/svg">
  <path d="M 323 2441  C 326.36 2441  329 2443.64  329 2447  C 329 2450.36  326.36 2453  323 2453  C 319.64 2453  317 2450.36  317 2447  C 317 2443.64  319.64 2441  323 2441  Z " fill-rule="nonzero" fill="#ffffff" stroke="none" />
  <path d="M 323 2441.5  C 326.08 2441.5  328.5 2443.92  328.5 2447  C 328.5 2450.08  326.08 2452.5  323 2452.5  C 319.92 2452.5  317.5 2450.08  317.5 2447  C 317.5 2443.92  319.92 2441.5  323 2441.5  Z " stroke-width="1" stroke="#797979" fill="none" />
  <path d="M 323 2450  C 321.32 2450  320 2448.68  320 2447  C 320 2445.32  321.32 2444  323 2444  C 324.68 2444  326 2445.32  326 2447  C 326 2448.68  324.68 2450  323 2450  " fill-rule="nonzero" fill="#797979" stroke="none" />
</svg>