<?xml version="1.0" encoding="utf-8"?>
<svg version="1.1" xmlns:xlink="http://www.w3.org/1999/xlink" width="12px" height="12px" viewBox="317 2982  12 12" xmlns="http://www.w3.org/2000/svg">
  <path d="M 323 2982  C 326.36 2982  329 2984.64  329 2988  C 329 2991.36  326.36 2994  323 2994  C 319.64 2994  317 2991.36  317 2988  C 317 2984.64  319.64 2982  323 2982  Z " fill-rule="nonzero" fill="#f0f0f0" stroke="none" />
  <path d="M 323 2982.5  C 326.08 2982.5  328.5 2984.92  328.5 2988  C 328.5 2991.08  326.08 2993.5  323 2993.5  C 319.92 2993.5  317.5 2991.08  317.5 2988  C 317.5 2984.92  319.92 2982.5  323 2982.5  Z " stroke-width="1" stroke="#797979" fill="none" />
  <path d="M 323 2991  C 321.32 2991  320 2989.68  320 2988  C 320 2986.32  321.32 2985  323 2985  C 324.68 2985  326 2986.32  326 2988  C 326 2989.68  324.68 2991  323 2991  " fill-rule="nonzero" fill="#797979" stroke="none" />
</svg>