<?xml version="1.0" encoding="utf-8"?>
<svg version="1.1" xmlns:xlink="http://www.w3.org/1999/xlink" width="12px" height="12px" viewBox="317 2322  12 12" xmlns="http://www.w3.org/2000/svg">
  <path d="M 323 2322  C 326.36 2322  329 2324.64  329 2328  C 329 2331.36  326.36 2334  323 2334  C 319.64 2334  317 2331.36  317 2328  C 317 2324.64  319.64 2322  323 2322  Z " fill-rule="nonzero" fill="#f0f0f0" stroke="none" />
  <path d="M 323 2322.5  C 326.08 2322.5  328.5 2324.92  328.5 2328  C 328.5 2331.08  326.08 2333.5  323 2333.5  C 319.92 2333.5  317.5 2331.08  317.5 2328  C 317.5 2324.92  319.92 2322.5  323 2322.5  Z " stroke-width="1" stroke="#797979" fill="none" />
  <path d="M 323 2331  C 321.32 2331  320 2329.68  320 2328  C 320 2326.32  321.32 2325  323 2325  C 324.68 2325  326 2326.32  326 2328  C 326 2329.68  324.68 2331  323 2331  " fill-rule="nonzero" fill="#797979" stroke="none" />
</svg>