<?xml version="1.0" encoding="utf-8"?>
<svg version="1.1" xmlns:xlink="http://www.w3.org/1999/xlink" width="12px" height="12px" viewBox="317 2531  12 12" xmlns="http://www.w3.org/2000/svg">
  <path d="M 323 2531  C 326.36 2531  329 2533.64  329 2537  C 329 2540.36  326.36 2543  323 2543  C 319.64 2543  317 2540.36  317 2537  C 317 2533.64  319.64 2531  323 2531  Z " fill-rule="nonzero" fill="#ffffff" stroke="none" />
  <path d="M 323 2531.5  C 326.08 2531.5  328.5 2533.92  328.5 2537  C 328.5 2540.08  326.08 2542.5  323 2542.5  C 319.92 2542.5  317.5 2540.08  317.5 2537  C 317.5 2533.92  319.92 2531.5  323 2531.5  Z " stroke-width="1" stroke="#797979" fill="none" />
  <path d="M 323 2540  C 321.32 2540  320 2538.68  320 2537  C 320 2535.32  321.32 2534  323 2534  C 324.68 2534  326 2535.32  326 2537  C 326 2538.68  324.68 2540  323 2540  " fill-rule="nonzero" fill="#797979" stroke="none" />
</svg>