<?xml version="1.0" encoding="utf-8"?>
<svg version="1.1" xmlns:xlink="http://www.w3.org/1999/xlink" width="12px" height="12px" viewBox="317 3348  12 12" xmlns="http://www.w3.org/2000/svg">
  <path d="M 323 3348  C 326.36 3348  329 3350.64  329 3354  C 329 3357.36  326.36 3360  323 3360  C 319.64 3360  317 3357.36  317 3354  C 317 3350.64  319.64 3348  323 3348  Z " fill-rule="nonzero" fill="#ffffff" stroke="none" />
  <path d="M 323 3348.5  C 326.08 3348.5  328.5 3350.92  328.5 3354  C 328.5 3357.08  326.08 3359.5  323 3359.5  C 319.92 3359.5  317.5 3357.08  317.5 3354  C 317.5 3350.92  319.92 3348.5  323 3348.5  Z " stroke-width="1" stroke="#797979" fill="none" />
  <path d="M 323 3357  C 321.32 3357  320 3355.68  320 3354  C 320 3352.32  321.32 3351  323 3351  C 324.68 3351  326 3352.32  326 3354  C 326 3355.68  324.68 3357  323 3357  " fill-rule="nonzero" fill="#797979" stroke="none" />
</svg>