<?xml version="1.0" encoding="utf-8"?>
<svg version="1.1" xmlns:xlink="http://www.w3.org/1999/xlink" width="12px" height="12px" viewBox="317 1543  12 12" xmlns="http://www.w3.org/2000/svg">
  <path d="M 323 1543  C 326.36 1543  329 1545.64  329 1549  C 329 1552.36  326.36 1555  323 1555  C 319.64 1555  317 1552.36  317 1549  C 317 1545.64  319.64 1543  323 1543  Z " fill-rule="nonzero" fill="#ffffff" stroke="none" />
  <path d="M 323 1543.5  C 326.08 1543.5  328.5 1545.92  328.5 1549  C 328.5 1552.08  326.08 1554.5  323 1554.5  C 319.92 1554.5  317.5 1552.08  317.5 1549  C 317.5 1545.92  319.92 1543.5  323 1543.5  Z " stroke-width="1" stroke="#797979" fill="none" />
  <path d="M 323 1552  C 321.32 1552  320 1550.68  320 1549  C 320 1547.32  321.32 1546  323 1546  C 324.68 1546  326 1547.32  326 1549  C 326 1550.68  324.68 1552  323 1552  " fill-rule="nonzero" fill="#797979" stroke="none" />
</svg>