<?xml version="1.0" encoding="utf-8"?>
<svg version="1.1" xmlns:xlink="http://www.w3.org/1999/xlink" width="12px" height="12px" viewBox="317 943  12 12" xmlns="http://www.w3.org/2000/svg">
  <path d="M 323 943  C 326.36 943  329 945.64  329 949  C 329 952.36  326.36 955  323 955  C 319.64 955  317 952.36  317 949  C 317 945.64  319.64 943  323 943  Z " fill-rule="nonzero" fill="#f0f0f0" stroke="none" />
  <path d="M 323 943.5  C 326.08 943.5  328.5 945.92  328.5 949  C 328.5 952.08  326.08 954.5  323 954.5  C 319.92 954.5  317.5 952.08  317.5 949  C 317.5 945.92  319.92 943.5  323 943.5  Z " stroke-width="1" stroke="#797979" fill="none" />
  <path d="M 323 952  C 321.32 952  320 950.68  320 949  C 320 947.32  321.32 946  323 946  C 324.68 946  326 947.32  326 949  C 326 950.68  324.68 952  323 952  " fill-rule="nonzero" fill="#797979" stroke="none" />
</svg>