<?xml version="1.0" encoding="utf-8"?>
<svg version="1.1" xmlns:xlink="http://www.w3.org/1999/xlink" width="12px" height="12px" viewBox="317 2656  12 12" xmlns="http://www.w3.org/2000/svg">
  <path d="M 323 2656  C 326.36 2656  329 2658.64  329 2662  C 329 2665.36  326.36 2668  323 2668  C 319.64 2668  317 2665.36  317 2662  C 317 2658.64  319.64 2656  323 2656  Z " fill-rule="nonzero" fill="#f0f0f0" stroke="none" />
  <path d="M 323 2656.5  C 326.08 2656.5  328.5 2658.92  328.5 2662  C 328.5 2665.08  326.08 2667.5  323 2667.5  C 319.92 2667.5  317.5 2665.08  317.5 2662  C 317.5 2658.92  319.92 2656.5  323 2656.5  Z " stroke-width="1" stroke="#797979" fill="none" />
  <path d="M 323 2665  C 321.32 2665  320 2663.68  320 2662  C 320 2660.32  321.32 2659  323 2659  C 324.68 2659  326 2660.32  326 2662  C 326 2663.68  324.68 2665  323 2665  " fill-rule="nonzero" fill="#797979" stroke="none" />
</svg>