<?xml version="1.0" encoding="utf-8"?>
<svg version="1.1" xmlns:xlink="http://www.w3.org/1999/xlink" width="12px" height="12px" viewBox="317 2716  12 12" xmlns="http://www.w3.org/2000/svg">
  <path d="M 323 2716  C 326.36 2716  329 2718.64  329 2722  C 329 2725.36  326.36 2728  323 2728  C 319.64 2728  317 2725.36  317 2722  C 317 2718.64  319.64 2716  323 2716  Z " fill-rule="nonzero" fill="#f0f0f0" stroke="none" />
  <path d="M 323 2716.5  C 326.08 2716.5  328.5 2718.92  328.5 2722  C 328.5 2725.08  326.08 2727.5  323 2727.5  C 319.92 2727.5  317.5 2725.08  317.5 2722  C 317.5 2718.92  319.92 2716.5  323 2716.5  Z " stroke-width="1" stroke="#797979" fill="none" />
  <path d="M 323 2725  C 321.32 2725  320 2723.68  320 2722  C 320 2720.32  321.32 2719  323 2719  C 324.68 2719  326 2720.32  326 2722  C 326 2723.68  324.68 2725  323 2725  " fill-rule="nonzero" fill="#797979" stroke="none" />
</svg>