<?xml version="1.0" encoding="utf-8"?>
<svg version="1.1" xmlns:xlink="http://www.w3.org/1999/xlink" width="12px" height="12px" viewBox="317 2081  12 12" xmlns="http://www.w3.org/2000/svg">
  <path d="M 323 2081  C 326.36 2081  329 2083.64  329 2087  C 329 2090.36  326.36 2093  323 2093  C 319.64 2093  317 2090.36  317 2087  C 317 2083.64  319.64 2081  323 2081  Z " fill-rule="nonzero" fill="#f0f0f0" stroke="none" />
  <path d="M 323 2081.5  C 326.08 2081.5  328.5 2083.92  328.5 2087  C 328.5 2090.08  326.08 2092.5  323 2092.5  C 319.92 2092.5  317.5 2090.08  317.5 2087  C 317.5 2083.92  319.92 2081.5  323 2081.5  Z " stroke-width="1" stroke="#797979" fill="none" />
  <path d="M 323 2090  C 321.32 2090  320 2088.68  320 2087  C 320 2085.32  321.32 2084  323 2084  C 324.68 2084  326 2085.32  326 2087  C 326 2088.68  324.68 2090  323 2090  " fill-rule="nonzero" fill="#797979" stroke="none" />
</svg>