<?xml version="1.0" encoding="utf-8"?>
<svg version="1.1" xmlns:xlink="http://www.w3.org/1999/xlink" width="12px" height="12px" viewBox="317 2860  12 12" xmlns="http://www.w3.org/2000/svg">
  <path d="M 323 2860  C 326.36 2860  329 2862.64  329 2866  C 329 2869.36  326.36 2872  323 2872  C 319.64 2872  317 2869.36  317 2866  C 317 2862.64  319.64 2860  323 2860  Z " fill-rule="nonzero" fill="#f0f0f0" stroke="none" />
  <path d="M 323 2860.5  C 326.08 2860.5  328.5 2862.92  328.5 2866  C 328.5 2869.08  326.08 2871.5  323 2871.5  C 319.92 2871.5  317.5 2869.08  317.5 2866  C 317.5 2862.92  319.92 2860.5  323 2860.5  Z " stroke-width="1" stroke="#797979" fill="none" />
  <path d="M 323 2869  C 321.32 2869  320 2867.68  320 2866  C 320 2864.32  321.32 2863  323 2863  C 324.68 2863  326 2864.32  326 2866  C 326 2867.68  324.68 2869  323 2869  " fill-rule="nonzero" fill="#797979" stroke="none" />
</svg>