<?xml version="1.0" encoding="utf-8"?>
<svg version="1.1" xmlns:xlink="http://www.w3.org/1999/xlink" width="12px" height="12px" viewBox="317 3587  12 12" xmlns="http://www.w3.org/2000/svg">
  <path d="M 323 3587  C 326.36 3587  329 3589.64  329 3593  C 329 3596.36  326.36 3599  323 3599  C 319.64 3599  317 3596.36  317 3593  C 317 3589.64  319.64 3587  323 3587  Z " fill-rule="nonzero" fill="#ffffff" stroke="none" />
  <path d="M 323 3587.5  C 326.08 3587.5  328.5 3589.92  328.5 3593  C 328.5 3596.08  326.08 3598.5  323 3598.5  C 319.92 3598.5  317.5 3596.08  317.5 3593  C 317.5 3589.92  319.92 3587.5  323 3587.5  Z " stroke-width="1" stroke="#797979" fill="none" />
  <path d="M 323 3596  C 321.32 3596  320 3594.68  320 3593  C 320 3591.32  321.32 3590  323 3590  C 324.68 3590  326 3591.32  326 3593  C 326 3594.68  324.68 3596  323 3596  " fill-rule="nonzero" fill="#797979" stroke="none" />
</svg>