<?xml version="1.0" encoding="utf-8"?>
<svg version="1.1" xmlns:xlink="http://www.w3.org/1999/xlink" width="12px" height="12px" viewBox="317 3197  12 12" xmlns="http://www.w3.org/2000/svg">
  <path d="M 323 3197  C 326.36 3197  329 3199.64  329 3203  C 329 3206.36  326.36 3209  323 3209  C 319.64 3209  317 3206.36  317 3203  C 317 3199.64  319.64 3197  323 3197  Z " fill-rule="nonzero" fill="#f0f0f0" stroke="none" />
  <path d="M 323 3197.5  C 326.08 3197.5  328.5 3199.92  328.5 3203  C 328.5 3206.08  326.08 3208.5  323 3208.5  C 319.92 3208.5  317.5 3206.08  317.5 3203  C 317.5 3199.92  319.92 3197.5  323 3197.5  Z " stroke-width="1" stroke="#797979" fill="none" />
  <path d="M 323 3206  C 321.32 3206  320 3204.68  320 3203  C 320 3201.32  321.32 3200  323 3200  C 324.68 3200  326 3201.32  326 3203  C 326 3204.68  324.68 3206  323 3206  " fill-rule="nonzero" fill="#797979" stroke="none" />
</svg>