<?xml version="1.0" encoding="utf-8"?>
<svg version="1.1" xmlns:xlink="http://www.w3.org/1999/xlink" width="12px" height="12px" viewBox="317 3227  12 12" xmlns="http://www.w3.org/2000/svg">
  <path d="M 323 3227  C 326.36 3227  329 3229.64  329 3233  C 329 3236.36  326.36 3239  323 3239  C 319.64 3239  317 3236.36  317 3233  C 317 3229.64  319.64 3227  323 3227  Z " fill-rule="nonzero" fill="#ffffff" stroke="none" />
  <path d="M 323 3227.5  C 326.08 3227.5  328.5 3229.92  328.5 3233  C 328.5 3236.08  326.08 3238.5  323 3238.5  C 319.92 3238.5  317.5 3236.08  317.5 3233  C 317.5 3229.92  319.92 3227.5  323 3227.5  Z " stroke-width="1" stroke="#797979" fill="none" />
  <path d="M 323 3236  C 321.32 3236  320 3234.68  320 3233  C 320 3231.32  321.32 3230  323 3230  C 324.68 3230  326 3231.32  326 3233  C 326 3234.68  324.68 3236  323 3236  " fill-rule="nonzero" fill="#797979" stroke="none" />
</svg>