<?xml version="1.0" encoding="utf-8"?>
<svg version="1.1" xmlns:xlink="http://www.w3.org/1999/xlink" width="12px" height="12px" viewBox="317 2770  12 12" xmlns="http://www.w3.org/2000/svg">
  <path d="M 323 2770  C 326.36 2770  329 2772.64  329 2776  C 329 2779.36  326.36 2782  323 2782  C 319.64 2782  317 2779.36  317 2776  C 317 2772.64  319.64 2770  323 2770  Z " fill-rule="nonzero" fill="#ffffff" stroke="none" />
  <path d="M 323 2770.5  C 326.08 2770.5  328.5 2772.92  328.5 2776  C 328.5 2779.08  326.08 2781.5  323 2781.5  C 319.92 2781.5  317.5 2779.08  317.5 2776  C 317.5 2772.92  319.92 2770.5  323 2770.5  Z " stroke-width="1" stroke="#797979" fill="none" />
  <path d="M 323 2779  C 321.32 2779  320 2777.68  320 2776  C 320 2774.32  321.32 2773  323 2773  C 324.68 2773  326 2774.32  326 2776  C 326 2777.68  324.68 2779  323 2779  " fill-rule="nonzero" fill="#797979" stroke="none" />
</svg>