<?xml version="1.0" encoding="utf-8"?>
<svg version="1.1" xmlns:xlink="http://www.w3.org/1999/xlink" width="12px" height="12px" viewBox="317 2890  12 12" xmlns="http://www.w3.org/2000/svg">
  <path d="M 323 2890  C 326.36 2890  329 2892.64  329 2896  C 329 2899.36  326.36 2902  323 2902  C 319.64 2902  317 2899.36  317 2896  C 317 2892.64  319.64 2890  323 2890  Z " fill-rule="nonzero" fill="#ffffff" stroke="none" />
  <path d="M 323 2890.5  C 326.08 2890.5  328.5 2892.92  328.5 2896  C 328.5 2899.08  326.08 2901.5  323 2901.5  C 319.92 2901.5  317.5 2899.08  317.5 2896  C 317.5 2892.92  319.92 2890.5  323 2890.5  Z " stroke-width="1" stroke="#797979" fill="none" />
  <path d="M 323 2899  C 321.32 2899  320 2897.68  320 2896  C 320 2894.32  321.32 2893  323 2893  C 324.68 2893  326 2894.32  326 2896  C 326 2897.68  324.68 2899  323 2899  " fill-rule="nonzero" fill="#797979" stroke="none" />
</svg>