<?xml version="1.0" encoding="utf-8"?>
<svg version="1.1" xmlns:xlink="http://www.w3.org/1999/xlink" width="12px" height="12px" viewBox="317 3167  12 12" xmlns="http://www.w3.org/2000/svg">
  <path d="M 323 3167  C 326.36 3167  329 3169.64  329 3173  C 329 3176.36  326.36 3179  323 3179  C 319.64 3179  317 3176.36  317 3173  C 317 3169.64  319.64 3167  323 3167  Z " fill-rule="nonzero" fill="#ffffff" stroke="none" />
  <path d="M 323 3167.5  C 326.08 3167.5  328.5 3169.92  328.5 3173  C 328.5 3176.08  326.08 3178.5  323 3178.5  C 319.92 3178.5  317.5 3176.08  317.5 3173  C 317.5 3169.92  319.92 3167.5  323 3167.5  Z " stroke-width="1" stroke="#797979" fill="none" />
  <path d="M 323 3176  C 321.32 3176  320 3174.68  320 3173  C 320 3171.32  321.32 3170  323 3170  C 324.68 3170  326 3171.32  326 3173  C 326 3174.68  324.68 3176  323 3176  " fill-rule="nonzero" fill="#797979" stroke="none" />
</svg>