<?xml version="1.0" encoding="utf-8"?>
<svg version="1.1" xmlns:xlink="http://www.w3.org/1999/xlink" width="12px" height="12px" viewBox="317 1693  12 12" xmlns="http://www.w3.org/2000/svg">
  <path d="M 323 1693  C 326.36 1693  329 1695.64  329 1699  C 329 1702.36  326.36 1705  323 1705  C 319.64 1705  317 1702.36  317 1699  C 317 1695.64  319.64 1693  323 1693  Z " fill-rule="nonzero" fill="#f0f0f0" stroke="none" />
  <path d="M 323 1693.5  C 326.08 1693.5  328.5 1695.92  328.5 1699  C 328.5 1702.08  326.08 1704.5  323 1704.5  C 319.92 1704.5  317.5 1702.08  317.5 1699  C 317.5 1695.92  319.92 1693.5  323 1693.5  Z " stroke-width="1" stroke="#797979" fill="none" />
  <path d="M 323 1702  C 321.32 1702  320 1700.68  320 1699  C 320 1697.32  321.32 1696  323 1696  C 324.68 1696  326 1697.32  326 1699  C 326 1700.68  324.68 1702  323 1702  " fill-rule="nonzero" fill="#797979" stroke="none" />
</svg>