<?xml version="1.0" encoding="utf-8"?>
<svg version="1.1" xmlns:xlink="http://www.w3.org/1999/xlink" width="12px" height="12px" viewBox="317 2952  12 12" xmlns="http://www.w3.org/2000/svg">
  <path d="M 323 2952  C 326.36 2952  329 2954.64  329 2958  C 329 2961.36  326.36 2964  323 2964  C 319.64 2964  317 2961.36  317 2958  C 317 2954.64  319.64 2952  323 2952  Z " fill-rule="nonzero" fill="#ffffff" stroke="none" />
  <path d="M 323 2952.5  C 326.08 2952.5  328.5 2954.92  328.5 2958  C 328.5 2961.08  326.08 2963.5  323 2963.5  C 319.92 2963.5  317.5 2961.08  317.5 2958  C 317.5 2954.92  319.92 2952.5  323 2952.5  Z " stroke-width="1" stroke="#797979" fill="none" />
  <path d="M 323 2961  C 321.32 2961  320 2959.68  320 2958  C 320 2956.32  321.32 2955  323 2955  C 324.68 2955  326 2956.32  326 2958  C 326 2959.68  324.68 2961  323 2961  " fill-rule="nonzero" fill="#797979" stroke="none" />
</svg>