<?xml version="1.0" encoding="utf-8"?>
<svg version="1.1" xmlns:xlink="http://www.w3.org/1999/xlink" width="12px" height="12px" viewBox="317 2471  12 12" xmlns="http://www.w3.org/2000/svg">
  <path d="M 323 2471  C 326.36 2471  329 2473.64  329 2477  C 329 2480.36  326.36 2483  323 2483  C 319.64 2483  317 2480.36  317 2477  C 317 2473.64  319.64 2471  323 2471  Z " fill-rule="nonzero" fill="#ffffff" stroke="none" />
  <path d="M 323 2471.5  C 326.08 2471.5  328.5 2473.92  328.5 2477  C 328.5 2480.08  326.08 2482.5  323 2482.5  C 319.92 2482.5  317.5 2480.08  317.5 2477  C 317.5 2473.92  319.92 2471.5  323 2471.5  Z " stroke-width="1" stroke="#797979" fill="none" />
  <path d="M 323 2480  C 321.32 2480  320 2478.68  320 2477  C 320 2475.32  321.32 2474  323 2474  C 324.68 2474  326 2475.32  326 2477  C 326 2478.68  324.68 2480  323 2480  " fill-rule="nonzero" fill="#797979" stroke="none" />
</svg>