<?xml version="1.0" encoding="utf-8"?>
<svg version="1.1" xmlns:xlink="http://www.w3.org/1999/xlink" width="12px" height="12px" viewBox="317 3677  12 12" xmlns="http://www.w3.org/2000/svg">
  <path d="M 323 3677  C 326.36 3677  329 3679.64  329 3683  C 329 3686.36  326.36 3689  323 3689  C 319.64 3689  317 3686.36  317 3683  C 317 3679.64  319.64 3677  323 3677  Z " fill-rule="nonzero" fill="#f0f0f0" stroke="none" />
  <path d="M 323 3677.5  C 326.08 3677.5  328.5 3679.92  328.5 3683  C 328.5 3686.08  326.08 3688.5  323 3688.5  C 319.92 3688.5  317.5 3686.08  317.5 3683  C 317.5 3679.92  319.92 3677.5  323 3677.5  Z " stroke-width="1" stroke="#797979" fill="none" />
  <path d="M 323 3686  C 321.32 3686  320 3684.68  320 3683  C 320 3681.32  321.32 3680  323 3680  C 324.68 3680  326 3681.32  326 3683  C 326 3684.68  324.68 3686  323 3686  " fill-rule="nonzero" fill="#797979" stroke="none" />
</svg>