<?xml version="1.0" encoding="utf-8"?>
<svg version="1.1" xmlns:xlink="http://www.w3.org/1999/xlink" width="12px" height="12px" viewBox="317 3438  12 12" xmlns="http://www.w3.org/2000/svg">
  <path d="M 323 3438  C 326.36 3438  329 3440.64  329 3444  C 329 3447.36  326.36 3450  323 3450  C 319.64 3450  317 3447.36  317 3444  C 317 3440.64  319.64 3438  323 3438  Z " fill-rule="nonzero" fill="#f0f0f0" stroke="none" />
  <path d="M 323 3438.5  C 326.08 3438.5  328.5 3440.92  328.5 3444  C 328.5 3447.08  326.08 3449.5  323 3449.5  C 319.92 3449.5  317.5 3447.08  317.5 3444  C 317.5 3440.92  319.92 3438.5  323 3438.5  Z " stroke-width="1" stroke="#797979" fill="none" />
  <path d="M 323 3447  C 321.32 3447  320 3445.68  320 3444  C 320 3442.32  321.32 3441  323 3441  C 324.68 3441  326 3442.32  326 3444  C 326 3445.68  324.68 3447  323 3447  " fill-rule="nonzero" fill="#797979" stroke="none" />
</svg>