<?xml version="1.0" encoding="utf-8"?>
<svg version="1.1" xmlns:xlink="http://www.w3.org/1999/xlink" width="12px" height="12px" viewBox="317 1063  12 12" xmlns="http://www.w3.org/2000/svg">
  <path d="M 323 1063  C 326.36 1063  329 1065.64  329 1069  C 329 1072.36  326.36 1075  323 1075  C 319.64 1075  317 1072.36  317 1069  C 317 1065.64  319.64 1063  323 1063  Z " fill-rule="nonzero" fill="#f0f0f0" stroke="none" />
  <path d="M 323 1063.5  C 326.08 1063.5  328.5 1065.92  328.5 1069  C 328.5 1072.08  326.08 1074.5  323 1074.5  C 319.92 1074.5  317.5 1072.08  317.5 1069  C 317.5 1065.92  319.92 1063.5  323 1063.5  Z " stroke-width="1" stroke="#797979" fill="none" />
  <path d="M 323 1072  C 321.32 1072  320 1070.68  320 1069  C 320 1067.32  321.32 1066  323 1066  C 324.68 1066  326 1067.32  326 1069  C 326 1070.68  324.68 1072  323 1072  " fill-rule="nonzero" fill="#797979" stroke="none" />
</svg>