<?xml version="1.0" encoding="utf-8"?>
<svg version="1.1" xmlns:xlink="http://www.w3.org/1999/xlink" width="12px" height="12px" viewBox="317 3707  12 12" xmlns="http://www.w3.org/2000/svg">
  <path d="M 323 3707  C 326.36 3707  329 3709.64  329 3713  C 329 3716.36  326.36 3719  323 3719  C 319.64 3719  317 3716.36  317 3713  C 317 3709.64  319.64 3707  323 3707  Z " fill-rule="nonzero" fill="#f0f0f0" stroke="none" />
  <path d="M 323 3707.5  C 326.08 3707.5  328.5 3709.92  328.5 3713  C 328.5 3716.08  326.08 3718.5  323 3718.5  C 319.92 3718.5  317.5 3716.08  317.5 3713  C 317.5 3709.92  319.92 3707.5  323 3707.5  Z " stroke-width="1" stroke="#797979" fill="none" />
  <path d="M 323 3716  C 321.32 3716  320 3714.68  320 3713  C 320 3711.32  321.32 3710  323 3710  C 324.68 3710  326 3711.32  326 3713  C 326 3714.68  324.68 3716  323 3716  " fill-rule="nonzero" fill="#797979" stroke="none" />
</svg>