<?xml version="1.0" encoding="utf-8"?>
<svg version="1.1" xmlns:xlink="http://www.w3.org/1999/xlink" width="12px" height="12px" viewBox="317 3617  12 12" xmlns="http://www.w3.org/2000/svg">
  <path d="M 323 3617  C 326.36 3617  329 3619.64  329 3623  C 329 3626.36  326.36 3629  323 3629  C 319.64 3629  317 3626.36  317 3623  C 317 3619.64  319.64 3617  323 3617  Z " fill-rule="nonzero" fill="#ffffff" stroke="none" />
  <path d="M 323 3617.5  C 326.08 3617.5  328.5 3619.92  328.5 3623  C 328.5 3626.08  326.08 3628.5  323 3628.5  C 319.92 3628.5  317.5 3626.08  317.5 3623  C 317.5 3619.92  319.92 3617.5  323 3617.5  Z " stroke-width="1" stroke="#797979" fill="none" />
  <path d="M 323 3626  C 321.32 3626  320 3624.68  320 3623  C 320 3621.32  321.32 3620  323 3620  C 324.68 3620  326 3621.32  326 3623  C 326 3624.68  324.68 3626  323 3626  " fill-rule="nonzero" fill="#797979" stroke="none" />
</svg>