<?xml version="1.0" encoding="utf-8"?>
<svg version="1.1" xmlns:xlink="http://www.w3.org/1999/xlink" width="12px" height="12px" viewBox="317 1483  12 12" xmlns="http://www.w3.org/2000/svg">
  <path d="M 323 1483  C 326.36 1483  329 1485.64  329 1489  C 329 1492.36  326.36 1495  323 1495  C 319.64 1495  317 1492.36  317 1489  C 317 1485.64  319.64 1483  323 1483  Z " fill-rule="nonzero" fill="#f0f0f0" stroke="none" />
  <path d="M 323 1483.5  C 326.08 1483.5  328.5 1485.92  328.5 1489  C 328.5 1492.08  326.08 1494.5  323 1494.5  C 319.92 1494.5  317.5 1492.08  317.5 1489  C 317.5 1485.92  319.92 1483.5  323 1483.5  Z " stroke-width="1" stroke="#797979" fill="none" />
  <path d="M 323 1492  C 321.32 1492  320 1490.68  320 1489  C 320 1487.32  321.32 1486  323 1486  C 324.68 1486  326 1487.32  326 1489  C 326 1490.68  324.68 1492  323 1492  " fill-rule="nonzero" fill="#797979" stroke="none" />
</svg>