<?xml version="1.0" encoding="utf-8"?>
<svg version="1.1" xmlns:xlink="http://www.w3.org/1999/xlink" width="12px" height="12px" viewBox="317 2232  12 12" xmlns="http://www.w3.org/2000/svg">
  <path d="M 323 2232  C 326.36 2232  329 2234.64  329 2238  C 329 2241.36  326.36 2244  323 2244  C 319.64 2244  317 2241.36  317 2238  C 317 2234.64  319.64 2232  323 2232  Z " fill-rule="nonzero" fill="#ffffff" stroke="none" />
  <path d="M 323 2232.5  C 326.08 2232.5  328.5 2234.92  328.5 2238  C 328.5 2241.08  326.08 2243.5  323 2243.5  C 319.92 2243.5  317.5 2241.08  317.5 2238  C 317.5 2234.92  319.92 2232.5  323 2232.5  Z " stroke-width="1" stroke="#797979" fill="none" />
  <path d="M 323 2241  C 321.32 2241  320 2239.68  320 2238  C 320 2236.32  321.32 2235  323 2235  C 324.68 2235  326 2236.32  326 2238  C 326 2239.68  324.68 2241  323 2241  " fill-rule="nonzero" fill="#797979" stroke="none" />
</svg>