<?xml version="1.0" encoding="utf-8"?>
<svg version="1.1" xmlns:xlink="http://www.w3.org/1999/xlink" width="12px" height="12px" viewBox="317 1753  12 12" xmlns="http://www.w3.org/2000/svg">
  <path d="M 323 1753  C 326.36 1753  329 1755.64  329 1759  C 329 1762.36  326.36 1765  323 1765  C 319.64 1765  317 1762.36  317 1759  C 317 1755.64  319.64 1753  323 1753  Z " fill-rule="nonzero" fill="#f0f0f0" stroke="none" />
  <path d="M 323 1753.5  C 326.08 1753.5  328.5 1755.92  328.5 1759  C 328.5 1762.08  326.08 1764.5  323 1764.5  C 319.92 1764.5  317.5 1762.08  317.5 1759  C 317.5 1755.92  319.92 1753.5  323 1753.5  Z " stroke-width="1" stroke="#797979" fill="none" />
  <path d="M 323 1762  C 321.32 1762  320 1760.68  320 1759  C 320 1757.32  321.32 1756  323 1756  C 324.68 1756  326 1757.32  326 1759  C 326 1760.68  324.68 1762  323 1762  " fill-rule="nonzero" fill="#797979" stroke="none" />
</svg>