<?xml version="1.0" encoding="utf-8"?>
<svg version="1.1" xmlns:xlink="http://www.w3.org/1999/xlink" width="12px" height="12px" viewBox="317 2501  12 12" xmlns="http://www.w3.org/2000/svg">
  <path d="M 323 2501  C 326.36 2501  329 2503.64  329 2507  C 329 2510.36  326.36 2513  323 2513  C 319.64 2513  317 2510.36  317 2507  C 317 2503.64  319.64 2501  323 2501  Z " fill-rule="nonzero" fill="#f0f0f0" stroke="none" />
  <path d="M 323 2501.5  C 326.08 2501.5  328.5 2503.92  328.5 2507  C 328.5 2510.08  326.08 2512.5  323 2512.5  C 319.92 2512.5  317.5 2510.08  317.5 2507  C 317.5 2503.92  319.92 2501.5  323 2501.5  Z " stroke-width="1" stroke="#797979" fill="none" />
  <path d="M 323 2510  C 321.32 2510  320 2508.68  320 2507  C 320 2505.32  321.32 2504  323 2504  C 324.68 2504  326 2505.32  326 2507  C 326 2508.68  324.68 2510  323 2510  " fill-rule="nonzero" fill="#797979" stroke="none" />
</svg>