<?xml version="1.0" encoding="utf-8"?>
<svg version="1.1" xmlns:xlink="http://www.w3.org/1999/xlink" width="12px" height="12px" viewBox="317 2830  12 12" xmlns="http://www.w3.org/2000/svg">
  <path d="M 323 2830  C 326.36 2830  329 2832.64  329 2836  C 329 2839.36  326.36 2842  323 2842  C 319.64 2842  317 2839.36  317 2836  C 317 2832.64  319.64 2830  323 2830  Z " fill-rule="nonzero" fill="#ffffff" stroke="none" />
  <path d="M 323 2830.5  C 326.08 2830.5  328.5 2832.92  328.5 2836  C 328.5 2839.08  326.08 2841.5  323 2841.5  C 319.92 2841.5  317.5 2839.08  317.5 2836  C 317.5 2832.92  319.92 2830.5  323 2830.5  Z " stroke-width="1" stroke="#797979" fill="none" />
  <path d="M 323 2839  C 321.32 2839  320 2837.68  320 2836  C 320 2834.32  321.32 2833  323 2833  C 324.68 2833  326 2834.32  326 2836  C 326 2837.68  324.68 2839  323 2839  " fill-rule="nonzero" fill="#797979" stroke="none" />
</svg>