<?xml version="1.0" encoding="utf-8"?>
<svg version="1.1" xmlns:xlink="http://www.w3.org/1999/xlink" width="12px" height="12px" viewBox="317 1723  12 12" xmlns="http://www.w3.org/2000/svg">
  <path d="M 323 1723  C 326.36 1723  329 1725.64  329 1729  C 329 1732.36  326.36 1735  323 1735  C 319.64 1735  317 1732.36  317 1729  C 317 1725.64  319.64 1723  323 1723  Z " fill-rule="nonzero" fill="#f0f0f0" stroke="none" />
  <path d="M 323 1723.5  C 326.08 1723.5  328.5 1725.92  328.5 1729  C 328.5 1732.08  326.08 1734.5  323 1734.5  C 319.92 1734.5  317.5 1732.08  317.5 1729  C 317.5 1725.92  319.92 1723.5  323 1723.5  Z " stroke-width="1" stroke="#797979" fill="none" />
  <path d="M 323 1732  C 321.32 1732  320 1730.68  320 1729  C 320 1727.32  321.32 1726  323 1726  C 324.68 1726  326 1727.32  326 1729  C 326 1730.68  324.68 1732  323 1732  " fill-rule="nonzero" fill="#797979" stroke="none" />
</svg>