<?xml version="1.0" encoding="utf-8"?>
<svg version="1.1" xmlns:xlink="http://www.w3.org/1999/xlink" width="12px" height="12px" viewBox="317 2202  12 12" xmlns="http://www.w3.org/2000/svg">
  <path d="M 323 2202  C 326.36 2202  329 2204.64  329 2208  C 329 2211.36  326.36 2214  323 2214  C 319.64 2214  317 2211.36  317 2208  C 317 2204.64  319.64 2202  323 2202  Z " fill-rule="nonzero" fill="#f0f0f0" stroke="none" />
  <path d="M 323 2202.5  C 326.08 2202.5  328.5 2204.92  328.5 2208  C 328.5 2211.08  326.08 2213.5  323 2213.5  C 319.92 2213.5  317.5 2211.08  317.5 2208  C 317.5 2204.92  319.92 2202.5  323 2202.5  Z " stroke-width="1" stroke="#797979" fill="none" />
  <path d="M 323 2211  C 321.32 2211  320 2209.68  320 2208  C 320 2206.32  321.32 2205  323 2205  C 324.68 2205  326 2206.32  326 2208  C 326 2209.68  324.68 2211  323 2211  " fill-rule="nonzero" fill="#797979" stroke="none" />
</svg>