<?xml version="1.0" encoding="utf-8"?>
<svg version="1.1" xmlns:xlink="http://www.w3.org/1999/xlink" width="12px" height="12px" viewBox="317 1362  12 12" xmlns="http://www.w3.org/2000/svg">
  <path d="M 323 1362  C 326.36 1362  329 1364.64  329 1368  C 329 1371.36  326.36 1374  323 1374  C 319.64 1374  317 1371.36  317 1368  C 317 1364.64  319.64 1362  323 1362  Z " fill-rule="nonzero" fill="#f0f0f0" stroke="none" />
  <path d="M 323 1362.5  C 326.08 1362.5  328.5 1364.92  328.5 1368  C 328.5 1371.08  326.08 1373.5  323 1373.5  C 319.92 1373.5  317.5 1371.08  317.5 1368  C 317.5 1364.92  319.92 1362.5  323 1362.5  Z " stroke-width="1" stroke="#797979" fill="none" />
  <path d="M 323 1371  C 321.32 1371  320 1369.68  320 1368  C 320 1366.32  321.32 1365  323 1365  C 324.68 1365  326 1366.32  326 1368  C 326 1369.68  324.68 1371  323 1371  " fill-rule="nonzero" fill="#797979" stroke="none" />
</svg>