<?xml version="1.0" encoding="utf-8"?>
<svg version="1.1" xmlns:xlink="http://www.w3.org/1999/xlink" width="12px" height="12px" viewBox="317 1122  12 12" xmlns="http://www.w3.org/2000/svg">
  <path d="M 323 1122  C 326.36 1122  329 1124.64  329 1128  C 329 1131.36  326.36 1134  323 1134  C 319.64 1134  317 1131.36  317 1128  C 317 1124.64  319.64 1122  323 1122  Z " fill-rule="nonzero" fill="#f0f0f0" stroke="none" />
  <path d="M 323 1122.5  C 326.08 1122.5  328.5 1124.92  328.5 1128  C 328.5 1131.08  326.08 1133.5  323 1133.5  C 319.92 1133.5  317.5 1131.08  317.5 1128  C 317.5 1124.92  319.92 1122.5  323 1122.5  Z " stroke-width="1" stroke="#797979" fill="none" />
  <path d="M 323 1131  C 321.32 1131  320 1129.68  320 1128  C 320 1126.32  321.32 1125  323 1125  C 324.68 1125  326 1126.32  326 1128  C 326 1129.68  324.68 1131  323 1131  " fill-rule="nonzero" fill="#797979" stroke="none" />
</svg>