<?xml version="1.0" encoding="utf-8"?>
<svg version="1.1" xmlns:xlink="http://www.w3.org/1999/xlink" width="12px" height="12px" viewBox="317 3318  12 12" xmlns="http://www.w3.org/2000/svg">
  <path d="M 323 3318  C 326.36 3318  329 3320.64  329 3324  C 329 3327.36  326.36 3330  323 3330  C 319.64 3330  317 3327.36  317 3324  C 317 3320.64  319.64 3318  323 3318  Z " fill-rule="nonzero" fill="#ffffff" stroke="none" />
  <path d="M 323 3318.5  C 326.08 3318.5  328.5 3320.92  328.5 3324  C 328.5 3327.08  326.08 3329.5  323 3329.5  C 319.92 3329.5  317.5 3327.08  317.5 3324  C 317.5 3320.92  319.92 3318.5  323 3318.5  Z " stroke-width="1" stroke="#797979" fill="none" />
  <path d="M 323 3327  C 321.32 3327  320 3325.68  320 3324  C 320 3322.32  321.32 3321  323 3321  C 324.68 3321  326 3322.32  326 3324  C 326 3325.68  324.68 3327  323 3327  " fill-rule="nonzero" fill="#797979" stroke="none" />
</svg>