<?xml version="1.0" encoding="utf-8"?>
<svg version="1.1" xmlns:xlink="http://www.w3.org/1999/xlink" width="12px" height="12px" viewBox="317 1573  12 12" xmlns="http://www.w3.org/2000/svg">
  <path d="M 323 1573  C 326.36 1573  329 1575.64  329 1579  C 329 1582.36  326.36 1585  323 1585  C 319.64 1585  317 1582.36  317 1579  C 317 1575.64  319.64 1573  323 1573  Z " fill-rule="nonzero" fill="#f0f0f0" stroke="none" />
  <path d="M 323 1573.5  C 326.08 1573.5  328.5 1575.92  328.5 1579  C 328.5 1582.08  326.08 1584.5  323 1584.5  C 319.92 1584.5  317.5 1582.08  317.5 1579  C 317.5 1575.92  319.92 1573.5  323 1573.5  Z " stroke-width="1" stroke="#797979" fill="none" />
  <path d="M 323 1582  C 321.32 1582  320 1580.68  320 1579  C 320 1577.32  321.32 1576  323 1576  C 324.68 1576  326 1577.32  326 1579  C 326 1580.68  324.68 1582  323 1582  " fill-rule="nonzero" fill="#797979" stroke="none" />
</svg>