<?xml version="1.0" encoding="utf-8"?>
<svg version="1.1" xmlns:xlink="http://www.w3.org/1999/xlink" width="12px" height="12px" viewBox="317 2262  12 12" xmlns="http://www.w3.org/2000/svg">
  <path d="M 323 2262  C 326.36 2262  329 2264.64  329 2268  C 329 2271.36  326.36 2274  323 2274  C 319.64 2274  317 2271.36  317 2268  C 317 2264.64  319.64 2262  323 2262  Z " fill-rule="nonzero" fill="#ffffff" stroke="none" />
  <path d="M 323 2262.5  C 326.08 2262.5  328.5 2264.92  328.5 2268  C 328.5 2271.08  326.08 2273.5  323 2273.5  C 319.92 2273.5  317.5 2271.08  317.5 2268  C 317.5 2264.92  319.92 2262.5  323 2262.5  Z " stroke-width="1" stroke="#797979" fill="none" />
  <path d="M 323 2271  C 321.32 2271  320 2269.68  320 2268  C 320 2266.32  321.32 2265  323 2265  C 324.68 2265  326 2266.32  326 2268  C 326 2269.68  324.68 2271  323 2271  " fill-rule="nonzero" fill="#797979" stroke="none" />
</svg>