<?xml version="1.0" encoding="utf-8"?>
<svg version="1.1" xmlns:xlink="http://www.w3.org/1999/xlink" width="12px" height="12px" viewBox="317 2141  12 12" xmlns="http://www.w3.org/2000/svg">
  <path d="M 323 2141  C 326.36 2141  329 2143.64  329 2147  C 329 2150.36  326.36 2153  323 2153  C 319.64 2153  317 2150.36  317 2147  C 317 2143.64  319.64 2141  323 2141  Z " fill-rule="nonzero" fill="#f0f0f0" stroke="none" />
  <path d="M 323 2141.5  C 326.08 2141.5  328.5 2143.92  328.5 2147  C 328.5 2150.08  326.08 2152.5  323 2152.5  C 319.92 2152.5  317.5 2150.08  317.5 2147  C 317.5 2143.92  319.92 2141.5  323 2141.5  Z " stroke-width="1" stroke="#797979" fill="none" />
  <path d="M 323 2150  C 321.32 2150  320 2148.68  320 2147  C 320 2145.32  321.32 2144  323 2144  C 324.68 2144  326 2145.32  326 2147  C 326 2148.68  324.68 2150  323 2150  " fill-rule="nonzero" fill="#797979" stroke="none" />
</svg>