<?xml version="1.0" encoding="utf-8"?>
<svg version="1.1" xmlns:xlink="http://www.w3.org/1999/xlink" width="12px" height="12px" viewBox="317 3982  12 12" xmlns="http://www.w3.org/2000/svg">
  <path d="M 323 3982  C 326.36 3982  329 3984.64  329 3988  C 329 3991.36  326.36 3994  323 3994  C 319.64 3994  317 3991.36  317 3988  C 317 3984.64  319.64 3982  323 3982  Z " fill-rule="nonzero" fill="#f0f0f0" stroke="none" />
  <path d="M 323 3982.5  C 326.08 3982.5  328.5 3984.92  328.5 3988  C 328.5 3991.08  326.08 3993.5  323 3993.5  C 319.92 3993.5  317.5 3991.08  317.5 3988  C 317.5 3984.92  319.92 3982.5  323 3982.5  Z " stroke-width="1" stroke="#797979" fill="none" />
  <path d="M 323 3991  C 321.32 3991  320 3989.68  320 3988  C 320 3986.32  321.32 3985  323 3985  C 324.68 3985  326 3986.32  326 3988  C 326 3989.68  324.68 3991  323 3991  " fill-rule="nonzero" fill="#797979" stroke="none" />
</svg>