<?xml version="1.0" encoding="utf-8"?>
<svg version="1.1" xmlns:xlink="http://www.w3.org/1999/xlink" width="12px" height="12px" viewBox="317 3892  12 12" xmlns="http://www.w3.org/2000/svg">
  <path d="M 323 3892  C 326.36 3892  329 3894.64  329 3898  C 329 3901.36  326.36 3904  323 3904  C 319.64 3904  317 3901.36  317 3898  C 317 3894.64  319.64 3892  323 3892  Z " fill-rule="nonzero" fill="#ffffff" stroke="none" />
  <path d="M 323 3892.5  C 326.08 3892.5  328.5 3894.92  328.5 3898  C 328.5 3901.08  326.08 3903.5  323 3903.5  C 319.92 3903.5  317.5 3901.08  317.5 3898  C 317.5 3894.92  319.92 3892.5  323 3892.5  Z " stroke-width="1" stroke="#797979" fill="none" />
  <path d="M 323 3901  C 321.32 3901  320 3899.68  320 3898  C 320 3896.32  321.32 3895  323 3895  C 324.68 3895  326 3896.32  326 3898  C 326 3899.68  324.68 3901  323 3901  " fill-rule="nonzero" fill="#797979" stroke="none" />
</svg>