<?xml version="1.0" encoding="utf-8"?>
<svg version="1.1" xmlns:xlink="http://www.w3.org/1999/xlink" width="12px" height="12px" viewBox="317 3952  12 12" xmlns="http://www.w3.org/2000/svg">
  <path d="M 323 3952  C 326.36 3952  329 3954.64  329 3958  C 329 3961.36  326.36 3964  323 3964  C 319.64 3964  317 3961.36  317 3958  C 317 3954.64  319.64 3952  323 3952  Z " fill-rule="nonzero" fill="#ffffff" stroke="none" />
  <path d="M 323 3952.5  C 326.08 3952.5  328.5 3954.92  328.5 3958  C 328.5 3961.08  326.08 3963.5  323 3963.5  C 319.92 3963.5  317.5 3961.08  317.5 3958  C 317.5 3954.92  319.92 3952.5  323 3952.5  Z " stroke-width="1" stroke="#797979" fill="none" />
  <path d="M 323 3961  C 321.32 3961  320 3959.68  320 3958  C 320 3956.32  321.32 3955  323 3955  C 324.68 3955  326 3956.32  326 3958  C 326 3959.68  324.68 3961  323 3961  " fill-rule="nonzero" fill="#797979" stroke="none" />
</svg>