<?xml version="1.0" encoding="utf-8"?>
<svg version="1.1" xmlns:xlink="http://www.w3.org/1999/xlink" width="12px" height="12px" viewBox="208 600.5  12 12" xmlns="http://www.w3.org/2000/svg">
  <path d="M 214 600.5  C 217.36 600.5  220 603.14  220 606.5  C 220 609.86  217.36 612.5  214 612.5  C 210.64 612.5  208 609.86  208 606.5  C 208 603.14  210.64 600.5  214 600.5  Z " fill-rule="nonzero" fill="#ffffff" stroke="none" />
  <path d="M 214 601  C 217.08 601  219.5 603.42  219.5 606.5  C 219.5 609.58  217.08 612  214 612  C 210.92 612  208.5 609.58  208.5 606.5  C 208.5 603.42  210.92 601  214 601  Z " stroke-width="1" stroke="#797979" fill="none" />
  <path d="M 214 609.5  C 212.32 609.5  211 608.18  211 606.5  C 211 604.82  212.32 603.5  214 603.5  C 215.68 603.5  217 604.82  217 606.5  C 217 608.18  215.68 609.5  214 609.5  " fill-rule="nonzero" fill="#797979" stroke="none" />
</svg>