<?xml version="1.0" encoding="utf-8"?>
<svg version="1.1" xmlns:xlink="http://www.w3.org/1999/xlink" width="12px" height="12px" viewBox="318 665.5  12 12" xmlns="http://www.w3.org/2000/svg">
  <path d="M 324 665.5  C 327.36 665.5  330 668.14  330 671.5  C 330 674.86  327.36 677.5  324 677.5  C 320.64 677.5  318 674.86  318 671.5  C 318 668.14  320.64 665.5  324 665.5  Z " fill-rule="nonzero" fill="#ffffff" stroke="none" />
  <path d="M 324 666  C 327.08 666  329.5 668.42  329.5 671.5  C 329.5 674.58  327.08 677  324 677  C 320.92 677  318.5 674.58  318.5 671.5  C 318.5 668.42  320.92 666  324 666  Z " stroke-width="1" stroke="#333333" fill="none" />
  <path d="M 324 674.5  C 322.32 674.5  321 673.18  321 671.5  C 321 669.82  322.32 668.5  324 668.5  C 325.68 668.5  327 669.82  327 671.5  C 327 673.18  325.68 674.5  324 674.5  " fill-rule="nonzero" fill="#333333" stroke="none" />
</svg>