<?xml version="1.0" encoding="utf-8"?>
<svg version="1.1" xmlns:xlink="http://www.w3.org/1999/xlink" width="12px" height="12px" viewBox="318 902.5  12 12" xmlns="http://www.w3.org/2000/svg">
  <path d="M 324 902.5  C 327.36 902.5  330 905.14  330 908.5  C 330 911.86  327.36 914.5  324 914.5  C 320.64 914.5  318 911.86  318 908.5  C 318 905.14  320.64 902.5  324 902.5  Z " fill-rule="nonzero" fill="#f0f0f0" stroke="none" />
  <path d="M 324 903  C 327.08 903  329.5 905.42  329.5 908.5  C 329.5 911.58  327.08 914  324 914  C 320.92 914  318.5 911.58  318.5 908.5  C 318.5 905.42  320.92 903  324 903  Z " stroke-width="1" stroke="#333333" fill="none" />
  <path d="M 324 911.5  C 322.32 911.5  321 910.18  321 908.5  C 321 906.82  322.32 905.5  324 905.5  C 325.68 905.5  327 906.82  327 908.5  C 327 910.18  325.68 911.5  324 911.5  " fill-rule="nonzero" fill="#333333" stroke="none" />
</svg>