<?xml version="1.0" encoding="utf-8"?>
<svg version="1.1" xmlns:xlink="http://www.w3.org/1999/xlink" width="12px" height="12px" viewBox="318 1188.5  12 12" xmlns="http://www.w3.org/2000/svg">
  <path d="M 324 1188.5  C 327.36 1188.5  330 1191.14  330 1194.5  C 330 1197.86  327.36 1200.5  324 1200.5  C 320.64 1200.5  318 1197.86  318 1194.5  C 318 1191.14  320.64 1188.5  324 1188.5  Z " fill-rule="nonzero" fill="#ffffff" stroke="none" />
  <path d="M 324 1189  C 327.08 1189  329.5 1191.42  329.5 1194.5  C 329.5 1197.58  327.08 1200  324 1200  C 320.92 1200  318.5 1197.58  318.5 1194.5  C 318.5 1191.42  320.92 1189  324 1189  Z " stroke-width="1" stroke="#333333" fill="none" />
  <path d="M 324 1197.5  C 322.32 1197.5  321 1196.18  321 1194.5  C 321 1192.82  322.32 1191.5  324 1191.5  C 325.68 1191.5  327 1192.82  327 1194.5  C 327 1196.18  325.68 1197.5  324 1197.5  " fill-rule="nonzero" fill="#333333" stroke="none" />
</svg>