<?xml version="1.0" encoding="utf-8"?>
<svg version="1.1" xmlns:xlink="http://www.w3.org/1999/xlink" width="12px" height="12px" viewBox="787 1018.5  12 12" xmlns="http://www.w3.org/2000/svg">
  <path d="M 793 1018.5  C 796.36 1018.5  799 1021.14  799 1024.5  C 799 1027.86  796.36 1030.5  793 1030.5  C 789.64 1030.5  787 1027.86  787 1024.5  C 787 1021.14  789.64 1018.5  793 1018.5  Z " fill-rule="nonzero" fill="#ffffff" stroke="none" />
  <path d="M 793 1019  C 796.08 1019  798.5 1021.42  798.5 1024.5  C 798.5 1027.58  796.08 1030  793 1030  C 789.92 1030  787.5 1027.58  787.5 1024.5  C 787.5 1021.42  789.92 1019  793 1019  Z " stroke-width="1" stroke="#333333" fill="none" />
  <path d="M 793 1027.5  C 791.32 1027.5  790 1026.18  790 1024.5  C 790 1022.82  791.32 1021.5  793 1021.5  C 794.68 1021.5  796 1022.82  796 1024.5  C 796 1026.18  794.68 1027.5  793 1027.5  " fill-rule="nonzero" fill="#333333" stroke="none" />
</svg>