<?xml version="1.0" encoding="utf-8"?>
<svg version="1.1" xmlns:xlink="http://www.w3.org/1999/xlink" width="12px" height="12px" viewBox="733 1018.5  12 12" xmlns="http://www.w3.org/2000/svg">
  <path d="M 739 1018.5  C 742.36 1018.5  745 1021.14  745 1024.5  C 745 1027.86  742.36 1030.5  739 1030.5  C 735.64 1030.5  733 1027.86  733 1024.5  C 733 1021.14  735.64 1018.5  739 1018.5  Z " fill-rule="nonzero" fill="#f0f0f0" stroke="none" />
  <path d="M 739 1019  C 742.08 1019  744.5 1021.42  744.5 1024.5  C 744.5 1027.58  742.08 1030  739 1030  C 735.92 1030  733.5 1027.58  733.5 1024.5  C 733.5 1021.42  735.92 1019  739 1019  Z " stroke-width="1" stroke="#797979" fill="none" />
  <path d="M 739 1027.5  C 737.32 1027.5  736 1026.18  736 1024.5  C 736 1022.82  737.32 1021.5  739 1021.5  C 740.68 1021.5  742 1022.82  742 1024.5  C 742 1026.18  740.68 1027.5  739 1027.5  " fill-rule="nonzero" fill="#797979" stroke="none" />
</svg>