<?xml version="1.0" encoding="utf-8"?>
<svg version="1.1" xmlns:xlink="http://www.w3.org/1999/xlink" width="12px" height="12px" viewBox="214 715.5  12 12" xmlns="http://www.w3.org/2000/svg">
  <path d="M 220 715.5  C 223.36 715.5  226 718.14  226 721.5  C 226 724.86  223.36 727.5  220 727.5  C 216.64 727.5  214 724.86  214 721.5  C 214 718.14  216.64 715.5  220 715.5  Z " fill-rule="nonzero" fill="#f0f0f0" stroke="none" />
  <path d="M 220 716  C 223.08 716  225.5 718.42  225.5 721.5  C 225.5 724.58  223.08 727  220 727  C 216.92 727  214.5 724.58  214.5 721.5  C 214.5 718.42  216.92 716  220 716  Z " stroke-width="1" stroke="#797979" fill="none" />
  <path d="M 220 724.5  C 218.32 724.5  217 723.18  217 721.5  C 217 719.82  218.32 718.5  220 718.5  C 221.68 718.5  223 719.82  223 721.5  C 223 723.18  221.68 724.5  220 724.5  " fill-rule="nonzero" fill="#797979" stroke="none" />
</svg>