<?xml version="1.0" encoding="utf-8"?>
<svg version="1.1" xmlns:xlink="http://www.w3.org/1999/xlink" width="12px" height="12px" viewBox="256 656.5  12 12" xmlns="http://www.w3.org/2000/svg">
  <path d="M 262 656.5  C 265.36 656.5  268 659.14  268 662.5  C 268 665.86  265.36 668.5  262 668.5  C 258.64 668.5  256 665.86  256 662.5  C 256 659.14  258.64 656.5  262 656.5  Z " fill-rule="nonzero" fill="#f0f0f0" stroke="none" />
  <path d="M 262 657  C 265.08 657  267.5 659.42  267.5 662.5  C 267.5 665.58  265.08 668  262 668  C 258.92 668  256.5 665.58  256.5 662.5  C 256.5 659.42  258.92 657  262 657  Z " stroke-width="1" stroke="#797979" fill="none" />
  <path d="M 262 665.5  C 260.32 665.5  259 664.18  259 662.5  C 259 660.82  260.32 659.5  262 659.5  C 263.68 659.5  265 660.82  265 662.5  C 265 664.18  263.68 665.5  262 665.5  " fill-rule="nonzero" fill="#797979" stroke="none" />
</svg>