<?xml version="1.0" encoding="utf-8"?>
<svg version="1.1" xmlns:xlink="http://www.w3.org/1999/xlink" width="12px" height="12px" viewBox="214 656.5  12 12" xmlns="http://www.w3.org/2000/svg">
  <path d="M 220 656.5  C 223.36 656.5  226 659.14  226 662.5  C 226 665.86  223.36 668.5  220 668.5  C 216.64 668.5  214 665.86  214 662.5  C 214 659.14  216.64 656.5  220 656.5  Z " fill-rule="nonzero" fill="#f0f0f0" stroke="none" />
  <path d="M 220 657  C 223.08 657  225.5 659.42  225.5 662.5  C 225.5 665.58  223.08 668  220 668  C 216.92 668  214.5 665.58  214.5 662.5  C 214.5 659.42  216.92 657  220 657  Z " stroke-width="1" stroke="#797979" fill="none" />
  <path d="M 220 665.5  C 218.32 665.5  217 664.18  217 662.5  C 217 660.82  218.32 659.5  220 659.5  C 221.68 659.5  223 660.82  223 662.5  C 223 664.18  221.68 665.5  220 665.5  " fill-rule="nonzero" fill="#797979" stroke="none" />
</svg>