<?xml version="1.0" encoding="utf-8"?>
<svg version="1.1" xmlns:xlink="http://www.w3.org/1999/xlink" width="12px" height="12px" viewBox="314 656.5  12 12" xmlns="http://www.w3.org/2000/svg">
  <path d="M 320 656.5  C 323.36 656.5  326 659.14  326 662.5  C 326 665.86  323.36 668.5  320 668.5  C 316.64 668.5  314 665.86  314 662.5  C 314 659.14  316.64 656.5  320 656.5  Z " fill-rule="nonzero" fill="#f0f0f0" stroke="none" />
  <path d="M 320 657  C 323.08 657  325.5 659.42  325.5 662.5  C 325.5 665.58  323.08 668  320 668  C 316.92 668  314.5 665.58  314.5 662.5  C 314.5 659.42  316.92 657  320 657  Z " stroke-width="1" stroke="#797979" fill="none" />
  <path d="M 320 665.5  C 318.32 665.5  317 664.18  317 662.5  C 317 660.82  318.32 659.5  320 659.5  C 321.68 659.5  323 660.82  323 662.5  C 323 664.18  321.68 665.5  320 665.5  " fill-rule="nonzero" fill="#797979" stroke="none" />
</svg>