<?xml version="1.0" encoding="utf-8"?>
<svg version="1.1" xmlns:xlink="http://www.w3.org/1999/xlink" width="12px" height="12px" viewBox="264 681.5  12 12" xmlns="http://www.w3.org/2000/svg">
  <path d="M 270 681.5  C 273.36 681.5  276 684.14  276 687.5  C 276 690.86  273.36 693.5  270 693.5  C 266.64 693.5  264 690.86  264 687.5  C 264 684.14  266.64 681.5  270 681.5  Z " fill-rule="nonzero" fill="#ffffff" stroke="none" />
  <path d="M 270 682  C 273.08 682  275.5 684.42  275.5 687.5  C 275.5 690.58  273.08 693  270 693  C 266.92 693  264.5 690.58  264.5 687.5  C 264.5 684.42  266.92 682  270 682  Z " stroke-width="1" stroke="#8080ff" fill="none" />
  <path d="M 270 690.5  C 268.32 690.5  267 689.18  267 687.5  C 267 685.82  268.32 684.5  270 684.5  C 271.68 684.5  273 685.82  273 687.5  C 273 689.18  271.68 690.5  270 690.5  " fill-rule="nonzero" fill="#8080ff" stroke="none" />
</svg>