<?xml version="1.0" encoding="utf-8"?>
<svg version="1.1" xmlns:xlink="http://www.w3.org/1999/xlink" width="12px" height="12px" viewBox="293 745.5  12 12" xmlns="http://www.w3.org/2000/svg">
  <path d="M 299 745.5  C 302.36 745.5  305 748.14  305 751.5  C 305 754.86  302.36 757.5  299 757.5  C 295.64 757.5  293 754.86  293 751.5  C 293 748.14  295.64 745.5  299 745.5  Z " fill-rule="nonzero" fill="#f0f0f0" stroke="none" />
  <path d="M 299 746  C 302.08 746  304.5 748.42  304.5 751.5  C 304.5 754.58  302.08 757  299 757  C 295.92 757  293.5 754.58  293.5 751.5  C 293.5 748.42  295.92 746  299 746  Z " stroke-width="1" stroke="#8080ff" fill="none" />
  <path d="M 299 754.5  C 297.32 754.5  296 753.18  296 751.5  C 296 749.82  297.32 748.5  299 748.5  C 300.68 748.5  302 749.82  302 751.5  C 302 753.18  300.68 754.5  299 754.5  " fill-rule="nonzero" fill="#8080ff" stroke="none" />
</svg>