<?xml version="1.0" encoding="utf-8"?>
<svg version="1.1" xmlns:xlink="http://www.w3.org/1999/xlink" width="12px" height="12px" viewBox="314 715.5  12 12" xmlns="http://www.w3.org/2000/svg">
  <path d="M 320 715.5  C 323.36 715.5  326 718.14  326 721.5  C 326 724.86  323.36 727.5  320 727.5  C 316.64 727.5  314 724.86  314 721.5  C 314 718.14  316.64 715.5  320 715.5  Z " fill-rule="nonzero" fill="#ffffff" stroke="none" />
  <path d="M 320 716  C 323.08 716  325.5 718.42  325.5 721.5  C 325.5 724.58  323.08 727  320 727  C 316.92 727  314.5 724.58  314.5 721.5  C 314.5 718.42  316.92 716  320 716  Z " stroke-width="1" stroke="#797979" fill="none" />
  <path d="M 320 724.5  C 318.32 724.5  317 723.18  317 721.5  C 317 719.82  318.32 718.5  320 718.5  C 321.68 718.5  323 719.82  323 721.5  C 323 723.18  321.68 724.5  320 724.5  " fill-rule="nonzero" fill="#797979" stroke="none" />
</svg>