<?xml version="1.0" encoding="utf-8"?>
<svg version="1.1" xmlns:xlink="http://www.w3.org/1999/xlink" width="12px" height="12px" viewBox="369 656.5  12 12" xmlns="http://www.w3.org/2000/svg">
  <path d="M 375 656.5  C 378.36 656.5  381 659.14  381 662.5  C 381 665.86  378.36 668.5  375 668.5  C 371.64 668.5  369 665.86  369 662.5  C 369 659.14  371.64 656.5  375 656.5  Z " fill-rule="nonzero" fill="#f0f0f0" stroke="none" />
  <path d="M 375 657  C 378.08 657  380.5 659.42  380.5 662.5  C 380.5 665.58  378.08 668  375 668  C 371.92 668  369.5 665.58  369.5 662.5  C 369.5 659.42  371.92 657  375 657  Z " stroke-width="1" stroke="#797979" fill="none" />
  <path d="M 375 665.5  C 373.32 665.5  372 664.18  372 662.5  C 372 660.82  373.32 659.5  375 659.5  C 376.68 659.5  378 660.82  378 662.5  C 378 664.18  376.68 665.5  375 665.5  " fill-rule="nonzero" fill="#797979" stroke="none" />
</svg>