<?xml version="1.0" encoding="utf-8"?>
<svg version="1.1" xmlns:xlink="http://www.w3.org/1999/xlink" width="12px" height="12px" viewBox="237 745.5  12 12" xmlns="http://www.w3.org/2000/svg">
  <path d="M 243 745.5  C 246.36 745.5  249 748.14  249 751.5  C 249 754.86  246.36 757.5  243 757.5  C 239.64 757.5  237 754.86  237 751.5  C 237 748.14  239.64 745.5  243 745.5  Z " fill-rule="nonzero" fill="#f0f0f0" stroke="none" />
  <path d="M 243 746  C 246.08 746  248.5 748.42  248.5 751.5  C 248.5 754.58  246.08 757  243 757  C 239.92 757  237.5 754.58  237.5 751.5  C 237.5 748.42  239.92 746  243 746  Z " stroke-width="1" stroke="#797979" fill="none" />
  <path d="M 243 754.5  C 241.32 754.5  240 753.18  240 751.5  C 240 749.82  241.32 748.5  243 748.5  C 244.68 748.5  246 749.82  246 751.5  C 246 753.18  244.68 754.5  243 754.5  " fill-rule="nonzero" fill="#797979" stroke="none" />
</svg>