<?xml version="1.0" encoding="utf-8"?>
<svg version="1.1" xmlns:xlink="http://www.w3.org/1999/xlink" width="12px" height="12px" viewBox="374 715.5  12 12" xmlns="http://www.w3.org/2000/svg">
  <path d="M 380 715.5  C 383.36 715.5  386 718.14  386 721.5  C 386 724.86  383.36 727.5  380 727.5  C 376.64 727.5  374 724.86  374 721.5  C 374 718.14  376.64 715.5  380 715.5  Z " fill-rule="nonzero" fill="#f0f0f0" stroke="none" />
  <path d="M 380 716  C 383.08 716  385.5 718.42  385.5 721.5  C 385.5 724.58  383.08 727  380 727  C 376.92 727  374.5 724.58  374.5 721.5  C 374.5 718.42  376.92 716  380 716  Z " stroke-width="1" stroke="#797979" fill="none" />
  <path d="M 380 724.5  C 378.32 724.5  377 723.18  377 721.5  C 377 719.82  378.32 718.5  380 718.5  C 381.68 718.5  383 719.82  383 721.5  C 383 723.18  381.68 724.5  380 724.5  " fill-rule="nonzero" fill="#797979" stroke="none" />
</svg>