<?xml version="1.0" encoding="utf-8"?>
<svg version="1.1" xmlns:xlink="http://www.w3.org/1999/xlink" width="12px" height="12px" viewBox="237 805.5  12 12" xmlns="http://www.w3.org/2000/svg">
  <path d="M 243 805.5  C 246.36 805.5  249 808.14  249 811.5  C 249 814.86  246.36 817.5  243 817.5  C 239.64 817.5  237 814.86  237 811.5  C 237 808.14  239.64 805.5  243 805.5  Z " fill-rule="nonzero" fill="#f0f0f0" stroke="none" />
  <path d="M 243 806  C 246.08 806  248.5 808.42  248.5 811.5  C 248.5 814.58  246.08 817  243 817  C 239.92 817  237.5 814.58  237.5 811.5  C 237.5 808.42  239.92 806  243 806  Z " stroke-width="1" stroke="#797979" fill="none" />
  <path d="M 243 814.5  C 241.32 814.5  240 813.18  240 811.5  C 240 809.82  241.32 808.5  243 808.5  C 244.68 808.5  246 809.82  246 811.5  C 246 813.18  244.68 814.5  243 814.5  " fill-rule="nonzero" fill="#797979" stroke="none" />
</svg>