<?xml version="1.0" encoding="utf-8"?>
<svg version="1.1" xmlns:xlink="http://www.w3.org/1999/xlink" width="12px" height="12px" viewBox="353 772.5  12 12" xmlns="http://www.w3.org/2000/svg">
  <path d="M 359 772.5  C 362.36 772.5  365 775.14  365 778.5  C 365 781.86  362.36 784.5  359 784.5  C 355.64 784.5  353 781.86  353 778.5  C 353 775.14  355.64 772.5  359 772.5  Z " fill-rule="nonzero" fill="#f0f0f0" stroke="none" />
  <path d="M 359 773  C 362.08 773  364.5 775.42  364.5 778.5  C 364.5 781.58  362.08 784  359 784  C 355.92 784  353.5 781.58  353.5 778.5  C 353.5 775.42  355.92 773  359 773  Z " stroke-width="1" stroke="#8080ff" fill="none" />
  <path d="M 359 781.5  C 357.32 781.5  356 780.18  356 778.5  C 356 776.82  357.32 775.5  359 775.5  C 360.68 775.5  362 776.82  362 778.5  C 362 780.18  360.68 781.5  359 781.5  " fill-rule="nonzero" fill="#8080ff" stroke="none" />
</svg>