<?xml version="1.0" encoding="utf-8"?>
<svg version="1.1" xmlns:xlink="http://www.w3.org/1999/xlink" width="12px" height="12px" viewBox="410 805.5  12 12" xmlns="http://www.w3.org/2000/svg">
  <path d="M 416 805.5  C 419.36 805.5  422 808.14  422 811.5  C 422 814.86  419.36 817.5  416 817.5  C 412.64 817.5  410 814.86  410 811.5  C 410 808.14  412.64 805.5  416 805.5  Z " fill-rule="nonzero" fill="#f0f0f0" stroke="none" />
  <path d="M 416 806  C 419.08 806  421.5 808.42  421.5 811.5  C 421.5 814.58  419.08 817  416 817  C 412.92 817  410.5 814.58  410.5 811.5  C 410.5 808.42  412.92 806  416 806  Z " stroke-width="1" stroke="#797979" fill="none" />
  <path d="M 416 814.5  C 414.32 814.5  413 813.18  413 811.5  C 413 809.82  414.32 808.5  416 808.5  C 417.68 808.5  419 809.82  419 811.5  C 419 813.18  417.68 814.5  416 814.5  " fill-rule="nonzero" fill="#797979" stroke="none" />
</svg>