<?xml version="1.0" encoding="utf-8"?>
<svg version="1.1" xmlns:xlink="http://www.w3.org/1999/xlink" width="12px" height="12px" viewBox="293 772.5  12 12" xmlns="http://www.w3.org/2000/svg">
  <path d="M 299 772.5  C 302.36 772.5  305 775.14  305 778.5  C 305 781.86  302.36 784.5  299 784.5  C 295.64 784.5  293 781.86  293 778.5  C 293 775.14  295.64 772.5  299 772.5  Z " fill-rule="nonzero" fill="#f0f0f0" stroke="none" />
  <path d="M 299 773  C 302.08 773  304.5 775.42  304.5 778.5  C 304.5 781.58  302.08 784  299 784  C 295.92 784  293.5 781.58  293.5 778.5  C 293.5 775.42  295.92 773  299 773  Z " stroke-width="1" stroke="#8080ff" fill="none" />
  <path d="M 299 781.5  C 297.32 781.5  296 780.18  296 778.5  C 296 776.82  297.32 775.5  299 775.5  C 300.68 775.5  302 776.82  302 778.5  C 302 780.18  300.68 781.5  299 781.5  " fill-rule="nonzero" fill="#8080ff" stroke="none" />
</svg>