<?xml version="1.0" encoding="utf-8"?>
<svg version="1.1" xmlns:xlink="http://www.w3.org/1999/xlink" width="12px" height="12px" viewBox="353 805.5  12 12" xmlns="http://www.w3.org/2000/svg">
  <path d="M 359 805.5  C 362.36 805.5  365 808.14  365 811.5  C 365 814.86  362.36 817.5  359 817.5  C 355.64 817.5  353 814.86  353 811.5  C 353 808.14  355.64 805.5  359 805.5  Z " fill-rule="nonzero" fill="#ffffff" stroke="none" />
  <path d="M 359 806  C 362.08 806  364.5 808.42  364.5 811.5  C 364.5 814.58  362.08 817  359 817  C 355.92 817  353.5 814.58  353.5 811.5  C 353.5 808.42  355.92 806  359 806  Z " stroke-width="1" stroke="#797979" fill="none" />
  <path d="M 359 814.5  C 357.32 814.5  356 813.18  356 811.5  C 356 809.82  357.32 808.5  359 808.5  C 360.68 808.5  362 809.82  362 811.5  C 362 813.18  360.68 814.5  359 814.5  " fill-rule="nonzero" fill="#797979" stroke="none" />
</svg>