<?xml version="1.0" encoding="utf-8"?>
<svg version="1.1" xmlns:xlink="http://www.w3.org/1999/xlink" width="12px" height="12px" viewBox="407 745.5  12 12" xmlns="http://www.w3.org/2000/svg">
  <path d="M 413 745.5  C 416.36 745.5  419 748.14  419 751.5  C 419 754.86  416.36 757.5  413 757.5  C 409.64 757.5  407 754.86  407 751.5  C 407 748.14  409.64 745.5  413 745.5  Z " fill-rule="nonzero" fill="#ffffff" stroke="none" />
  <path d="M 413 746  C 416.08 746  418.5 748.42  418.5 751.5  C 418.5 754.58  416.08 757  413 757  C 409.92 757  407.5 754.58  407.5 751.5  C 407.5 748.42  409.92 746  413 746  Z " stroke-width="1" stroke="#8080ff" fill="none" />
  <path d="M 413 754.5  C 411.32 754.5  410 753.18  410 751.5  C 410 749.82  411.32 748.5  413 748.5  C 414.68 748.5  416 749.82  416 751.5  C 416 753.18  414.68 754.5  413 754.5  " fill-rule="nonzero" fill="#8080ff" stroke="none" />
</svg>