<?xml version="1.0" encoding="utf-8"?>
<svg version="1.1" xmlns:xlink="http://www.w3.org/1999/xlink" width="12px" height="12px" viewBox="293 844.5  12 12" xmlns="http://www.w3.org/2000/svg">
  <path d="M 299 844.5  C 302.36 844.5  305 847.14  305 850.5  C 305 853.86  302.36 856.5  299 856.5  C 295.64 856.5  293 853.86  293 850.5  C 293 847.14  295.64 844.5  299 844.5  Z " fill-rule="nonzero" fill="#f0f0f0" stroke="none" />
  <path d="M 299 845  C 302.08 845  304.5 847.42  304.5 850.5  C 304.5 853.58  302.08 856  299 856  C 295.92 856  293.5 853.58  293.5 850.5  C 293.5 847.42  295.92 845  299 845  Z " stroke-width="1" stroke="#797979" fill="none" />
  <path d="M 299 853.5  C 297.32 853.5  296 852.18  296 850.5  C 296 848.82  297.32 847.5  299 847.5  C 300.68 847.5  302 848.82  302 850.5  C 302 852.18  300.68 853.5  299 853.5  " fill-rule="nonzero" fill="#797979" stroke="none" />
</svg>