<?xml version="1.0" encoding="utf-8"?>
<svg version="1.1" xmlns:xlink="http://www.w3.org/1999/xlink" width="12px" height="12px" viewBox="353 873.5  12 12" xmlns="http://www.w3.org/2000/svg">
  <path d="M 359 873.5  C 362.36 873.5  365 876.14  365 879.5  C 365 882.86  362.36 885.5  359 885.5  C 355.64 885.5  353 882.86  353 879.5  C 353 876.14  355.64 873.5  359 873.5  Z " fill-rule="nonzero" fill="#f0f0f0" stroke="none" />
  <path d="M 359 874  C 362.08 874  364.5 876.42  364.5 879.5  C 364.5 882.58  362.08 885  359 885  C 355.92 885  353.5 882.58  353.5 879.5  C 353.5 876.42  355.92 874  359 874  Z " stroke-width="1" stroke="#8080ff" fill="none" />
  <path d="M 359 882.5  C 357.32 882.5  356 881.18  356 879.5  C 356 877.82  357.32 876.5  359 876.5  C 360.68 876.5  362 877.82  362 879.5  C 362 881.18  360.68 882.5  359 882.5  " fill-rule="nonzero" fill="#8080ff" stroke="none" />
</svg>