<?xml version="1.0" encoding="utf-8"?>
<svg version="1.1" xmlns:xlink="http://www.w3.org/1999/xlink" width="12px" height="12px" viewBox="353 844.5  12 12" xmlns="http://www.w3.org/2000/svg">
  <path d="M 359 844.5  C 362.36 844.5  365 847.14  365 850.5  C 365 853.86  362.36 856.5  359 856.5  C 355.64 856.5  353 853.86  353 850.5  C 353 847.14  355.64 844.5  359 844.5  Z " fill-rule="nonzero" fill="#ffffff" stroke="none" />
  <path d="M 359 845  C 362.08 845  364.5 847.42  364.5 850.5  C 364.5 853.58  362.08 856  359 856  C 355.92 856  353.5 853.58  353.5 850.5  C 353.5 847.42  355.92 845  359 845  Z " stroke-width="1" stroke="#797979" fill="none" />
  <path d="M 359 853.5  C 357.32 853.5  356 852.18  356 850.5  C 356 848.82  357.32 847.5  359 847.5  C 360.68 847.5  362 848.82  362 850.5  C 362 852.18  360.68 853.5  359 853.5  " fill-rule="nonzero" fill="#797979" stroke="none" />
</svg>