<?xml version="1.0" encoding="utf-8"?>
<svg version="1.1" xmlns:xlink="http://www.w3.org/1999/xlink" width="12px" height="12px" viewBox="293 873.5  12 12" xmlns="http://www.w3.org/2000/svg">
  <path d="M 299 873.5  C 302.36 873.5  305 876.14  305 879.5  C 305 882.86  302.36 885.5  299 885.5  C 295.64 885.5  293 882.86  293 879.5  C 293 876.14  295.64 873.5  299 873.5  Z " fill-rule="nonzero" fill="#ffffff" stroke="none" />
  <path d="M 299 874  C 302.08 874  304.5 876.42  304.5 879.5  C 304.5 882.58  302.08 885  299 885  C 295.92 885  293.5 882.58  293.5 879.5  C 293.5 876.42  295.92 874  299 874  Z " stroke-width="1" stroke="#8080ff" fill="none" />
  <path d="M 299 882.5  C 297.32 882.5  296 881.18  296 879.5  C 296 877.82  297.32 876.5  299 876.5  C 300.68 876.5  302 877.82  302 879.5  C 302 881.18  300.68 882.5  299 882.5  " fill-rule="nonzero" fill="#8080ff" stroke="none" />
</svg>