<?xml version="1.0" encoding="utf-8"?>
<svg version="1.1" xmlns:xlink="http://www.w3.org/1999/xlink" width="12px" height="12px" viewBox="786 572.5  12 12" xmlns="http://www.w3.org/2000/svg">
  <path d="M 792 572.5  C 795.36 572.5  798 575.14  798 578.5  C 798 581.86  795.36 584.5  792 584.5  C 788.64 584.5  786 581.86  786 578.5  C 786 575.14  788.64 572.5  792 572.5  Z " fill-rule="nonzero" fill="#ffffff" stroke="none" />
  <path d="M 792 573  C 795.08 573  797.5 575.42  797.5 578.5  C 797.5 581.58  795.08 584  792 584  C 788.92 584  786.5 581.58  786.5 578.5  C 786.5 575.42  788.92 573  792 573  Z " stroke-width="1" stroke="#797979" fill="none" />
  <path d="M 792 581.5  C 790.32 581.5  789 580.18  789 578.5  C 789 576.82  790.32 575.5  792 575.5  C 793.68 575.5  795 576.82  795 578.5  C 795 580.18  793.68 581.5  792 581.5  " fill-rule="nonzero" fill="#797979" stroke="none" />
</svg>