<?xml version="1.0" encoding="utf-8"?>
<svg version="1.1" xmlns:xlink="http://www.w3.org/1999/xlink" width="12px" height="12px" viewBox="665 572.5  12 12" xmlns="http://www.w3.org/2000/svg">
  <path d="M 671 572.5  C 674.36 572.5  677 575.14  677 578.5  C 677 581.86  674.36 584.5  671 584.5  C 667.64 584.5  665 581.86  665 578.5  C 665 575.14  667.64 572.5  671 572.5  Z " fill-rule="nonzero" fill="#f0f0f0" stroke="none" />
  <path d="M 671 573  C 674.08 573  676.5 575.42  676.5 578.5  C 676.5 581.58  674.08 584  671 584  C 667.92 584  665.5 581.58  665.5 578.5  C 665.5 575.42  667.92 573  671 573  Z " stroke-width="1" stroke="#797979" fill="none" />
  <path d="M 671 581.5  C 669.32 581.5  668 580.18  668 578.5  C 668 576.82  669.32 575.5  671 575.5  C 672.68 575.5  674 576.82  674 578.5  C 674 580.18  672.68 581.5  671 581.5  " fill-rule="nonzero" fill="#797979" stroke="none" />
</svg>