<?xml version="1.0" encoding="utf-8"?>
<svg version="1.1" xmlns:xlink="http://www.w3.org/1999/xlink" width="12px" height="12px" viewBox="715 540.5  12 12" xmlns="http://www.w3.org/2000/svg">
  <path d="M 721 540.5  C 724.36 540.5  727 543.14  727 546.5  C 727 549.86  724.36 552.5  721 552.5  C 717.64 552.5  715 549.86  715 546.5  C 715 543.14  717.64 540.5  721 540.5  Z " fill-rule="nonzero" fill="#ffffff" stroke="none" />
  <path d="M 721 541  C 724.08 541  726.5 543.42  726.5 546.5  C 726.5 549.58  724.08 552  721 552  C 717.92 552  715.5 549.58  715.5 546.5  C 715.5 543.42  717.92 541  721 541  Z " stroke-width="1" stroke="#797979" fill="none" />
  <path d="M 721 549.5  C 719.32 549.5  718 548.18  718 546.5  C 718 544.82  719.32 543.5  721 543.5  C 722.68 543.5  724 544.82  724 546.5  C 724 548.18  722.68 549.5  721 549.5  " fill-rule="nonzero" fill="#797979" stroke="none" />
</svg>