<?xml version="1.0" encoding="utf-8"?>
<svg version="1.1" xmlns:xlink="http://www.w3.org/1999/xlink" width="12px" height="12px" viewBox="665 540.5  12 12" xmlns="http://www.w3.org/2000/svg">
  <path d="M 671 540.5  C 674.36 540.5  677 543.14  677 546.5  C 677 549.86  674.36 552.5  671 552.5  C 667.64 552.5  665 549.86  665 546.5  C 665 543.14  667.64 540.5  671 540.5  Z " fill-rule="nonzero" fill="#f0f0f0" stroke="none" />
  <path d="M 671 541  C 674.08 541  676.5 543.42  676.5 546.5  C 676.5 549.58  674.08 552  671 552  C 667.92 552  665.5 549.58  665.5 546.5  C 665.5 543.42  667.92 541  671 541  Z " stroke-width="1" stroke="#797979" fill="none" />
  <path d="M 671 549.5  C 669.32 549.5  668 548.18  668 546.5  C 668 544.82  669.32 543.5  671 543.5  C 672.68 543.5  674 544.82  674 546.5  C 674 548.18  672.68 549.5  671 549.5  " fill-rule="nonzero" fill="#797979" stroke="none" />
</svg>