<?xml version="1.0" encoding="utf-8"?>
<svg version="1.1" xmlns:xlink="http://www.w3.org/1999/xlink" width="12px" height="12px" viewBox="828 540.5  12 12" xmlns="http://www.w3.org/2000/svg">
  <path d="M 834 540.5  C 837.36 540.5  840 543.14  840 546.5  C 840 549.86  837.36 552.5  834 552.5  C 830.64 552.5  828 549.86  828 546.5  C 828 543.14  830.64 540.5  834 540.5  Z " fill-rule="nonzero" fill="#f0f0f0" stroke="none" />
  <path d="M 834 541  C 837.08 541  839.5 543.42  839.5 546.5  C 839.5 549.58  837.08 552  834 552  C 830.92 552  828.5 549.58  828.5 546.5  C 828.5 543.42  830.92 541  834 541  Z " stroke-width="1" stroke="#797979" fill="none" />
  <path d="M 834 549.5  C 832.32 549.5  831 548.18  831 546.5  C 831 544.82  832.32 543.5  834 543.5  C 835.68 543.5  837 544.82  837 546.5  C 837 548.18  835.68 549.5  834 549.5  " fill-rule="nonzero" fill="#797979" stroke="none" />
</svg>