<?xml version="1.0" encoding="utf-8"?>
<svg version="1.1" xmlns:xlink="http://www.w3.org/1999/xlink" width="12px" height="12px" viewBox="744 759.5  12 12" xmlns="http://www.w3.org/2000/svg">
  <path d="M 750 759.5  C 753.36 759.5  756 762.14  756 765.5  C 756 768.86  753.36 771.5  750 771.5  C 746.64 771.5  744 768.86  744 765.5  C 744 762.14  746.64 759.5  750 759.5  Z " fill-rule="nonzero" fill="#f0f0f0" stroke="none" />
  <path d="M 750 760  C 753.08 760  755.5 762.42  755.5 765.5  C 755.5 768.58  753.08 771  750 771  C 746.92 771  744.5 768.58  744.5 765.5  C 744.5 762.42  746.92 760  750 760  Z " stroke-width="1" stroke="#797979" fill="none" />
  <path d="M 750 768.5  C 748.32 768.5  747 767.18  747 765.5  C 747 763.82  748.32 762.5  750 762.5  C 751.68 762.5  753 763.82  753 765.5  C 753 767.18  751.68 768.5  750 768.5  " fill-rule="nonzero" fill="#797979" stroke="none" />
</svg>