<?xml version="1.0" encoding="utf-8"?>
<svg version="1.1" xmlns:xlink="http://www.w3.org/1999/xlink" width="12px" height="12px" viewBox="678 759.5  12 12" xmlns="http://www.w3.org/2000/svg">
  <path d="M 684 759.5  C 687.36 759.5  690 762.14  690 765.5  C 690 768.86  687.36 771.5  684 771.5  C 680.64 771.5  678 768.86  678 765.5  C 678 762.14  680.64 759.5  684 759.5  Z " fill-rule="nonzero" fill="#ffffff" stroke="none" />
  <path d="M 684 760  C 687.08 760  689.5 762.42  689.5 765.5  C 689.5 768.58  687.08 771  684 771  C 680.92 771  678.5 768.58  678.5 765.5  C 678.5 762.42  680.92 760  684 760  Z " stroke-width="1" stroke="#797979" fill="none" />
  <path d="M 684 768.5  C 682.32 768.5  681 767.18  681 765.5  C 681 763.82  682.32 762.5  684 762.5  C 685.68 762.5  687 763.82  687 765.5  C 687 767.18  685.68 768.5  684 768.5  " fill-rule="nonzero" fill="#797979" stroke="none" />
</svg>