<?xml version="1.0" encoding="utf-8"?>
<svg version="1.1" xmlns:xlink="http://www.w3.org/1999/xlink" width="12px" height="12px" viewBox="802 759.5  12 12" xmlns="http://www.w3.org/2000/svg">
  <path d="M 808 759.5  C 811.36 759.5  814 762.14  814 765.5  C 814 768.86  811.36 771.5  808 771.5  C 804.64 771.5  802 768.86  802 765.5  C 802 762.14  804.64 759.5  808 759.5  Z " fill-rule="nonzero" fill="#ffffff" stroke="none" />
  <path d="M 808 760  C 811.08 760  813.5 762.42  813.5 765.5  C 813.5 768.58  811.08 771  808 771  C 804.92 771  802.5 768.58  802.5 765.5  C 802.5 762.42  804.92 760  808 760  Z " stroke-width="1" stroke="#797979" fill="none" />
  <path d="M 808 768.5  C 806.32 768.5  805 767.18  805 765.5  C 805 763.82  806.32 762.5  808 762.5  C 809.68 762.5  811 763.82  811 765.5  C 811 767.18  809.68 768.5  808 768.5  " fill-rule="nonzero" fill="#797979" stroke="none" />
</svg>