<?xml version="1.0" encoding="utf-8"?>
<svg version="1.1" xmlns:xlink="http://www.w3.org/1999/xlink" width="12px" height="12px" viewBox="760 369.5  12 12" xmlns="http://www.w3.org/2000/svg">
  <path d="M 766 369.5  C 769.36 369.5  772 372.14  772 375.5  C 772 378.86  769.36 381.5  766 381.5  C 762.64 381.5  760 378.86  760 375.5  C 760 372.14  762.64 369.5  766 369.5  Z " fill-rule="nonzero" fill="#ffffff" stroke="none" />
  <path d="M 766 370  C 769.08 370  771.5 372.42  771.5 375.5  C 771.5 378.58  769.08 381  766 381  C 762.92 381  760.5 378.58  760.5 375.5  C 760.5 372.42  762.92 370  766 370  Z " stroke-width="1" stroke="#797979" fill="none" />
  <path d="M 766 378.5  C 764.32 378.5  763 377.18  763 375.5  C 763 373.82  764.32 372.5  766 372.5  C 767.68 372.5  769 373.82  769 375.5  C 769 377.18  767.68 378.5  766 378.5  " fill-rule="nonzero" fill="#797979" stroke="none" />
</svg>