<?xml version="1.0" encoding="utf-8"?>
<svg version="1.1" xmlns:xlink="http://www.w3.org/1999/xlink" width="12px" height="12px" viewBox="860 369.5  12 12" xmlns="http://www.w3.org/2000/svg">
  <path d="M 866 369.5  C 869.36 369.5  872 372.14  872 375.5  C 872 378.86  869.36 381.5  866 381.5  C 862.64 381.5  860 378.86  860 375.5  C 860 372.14  862.64 369.5  866 369.5  Z " fill-rule="nonzero" fill="#f0f0f0" stroke="none" />
  <path d="M 866 370  C 869.08 370  871.5 372.42  871.5 375.5  C 871.5 378.58  869.08 381  866 381  C 862.92 381  860.5 378.58  860.5 375.5  C 860.5 372.42  862.92 370  866 370  Z " stroke-width="1" stroke="#797979" fill="none" />
  <path d="M 866 378.5  C 864.32 378.5  863 377.18  863 375.5  C 863 373.82  864.32 372.5  866 372.5  C 867.68 372.5  869 373.82  869 375.5  C 869 377.18  867.68 378.5  866 378.5  " fill-rule="nonzero" fill="#797979" stroke="none" />
</svg>