<?xml version="1.0" encoding="utf-8"?>
<svg version="1.1" xmlns:xlink="http://www.w3.org/1999/xlink" width="12px" height="12px" viewBox="361 971.5  12 12" xmlns="http://www.w3.org/2000/svg">
  <path d="M 367 971.5  C 370.36 971.5  373 974.14  373 977.5  C 373 980.86  370.36 983.5  367 983.5  C 363.64 983.5  361 980.86  361 977.5  C 361 974.14  363.64 971.5  367 971.5  Z " fill-rule="nonzero" fill="#ffffff" stroke="none" />
  <path d="M 367 972  C 370.08 972  372.5 974.42  372.5 977.5  C 372.5 980.58  370.08 983  367 983  C 363.92 983  361.5 980.58  361.5 977.5  C 361.5 974.42  363.92 972  367 972  Z " stroke-width="1" stroke="#797979" fill="none" />
  <path d="M 367 980.5  C 365.32 980.5  364 979.18  364 977.5  C 364 975.82  365.32 974.5  367 974.5  C 368.68 974.5  370 975.82  370 977.5  C 370 979.18  368.68 980.5  367 980.5  " fill-rule="nonzero" fill="#797979" stroke="none" />
</svg>