<?xml version="1.0" encoding="utf-8"?>
<svg version="1.1" xmlns:xlink="http://www.w3.org/1999/xlink" width="12px" height="12px" viewBox="245 971.5  12 12" xmlns="http://www.w3.org/2000/svg">
  <path d="M 251 971.5  C 254.36 971.5  257 974.14  257 977.5  C 257 980.86  254.36 983.5  251 983.5  C 247.64 983.5  245 980.86  245 977.5  C 245 974.14  247.64 971.5  251 971.5  Z " fill-rule="nonzero" fill="#ffffff" stroke="none" />
  <path d="M 251 972  C 254.08 972  256.5 974.42  256.5 977.5  C 256.5 980.58  254.08 983  251 983  C 247.92 983  245.5 980.58  245.5 977.5  C 245.5 974.42  247.92 972  251 972  Z " stroke-width="1" stroke="#797979" fill="none" />
  <path d="M 251 980.5  C 249.32 980.5  248 979.18  248 977.5  C 248 975.82  249.32 974.5  251 974.5  C 252.68 974.5  254 975.82  254 977.5  C 254 979.18  252.68 980.5  251 980.5  " fill-rule="nonzero" fill="#797979" stroke="none" />
</svg>