<?xml version="1.0" encoding="utf-8"?>
<svg version="1.1" xmlns:xlink="http://www.w3.org/1999/xlink" width="12px" height="12px" viewBox="301 999.5  12 12" xmlns="http://www.w3.org/2000/svg">
  <path d="M 307 999.5  C 310.36 999.5  313 1002.14  313 1005.5  C 313 1008.86  310.36 1011.5  307 1011.5  C 303.64 1011.5  301 1008.86  301 1005.5  C 301 1002.14  303.64 999.5  307 999.5  Z " fill-rule="nonzero" fill="#ffffff" stroke="none" />
  <path d="M 307 1000  C 310.08 1000  312.5 1002.42  312.5 1005.5  C 312.5 1008.58  310.08 1011  307 1011  C 303.92 1011  301.5 1008.58  301.5 1005.5  C 301.5 1002.42  303.92 1000  307 1000  Z " stroke-width="1" stroke="#797979" fill="none" />
  <path d="M 307 1008.5  C 305.32 1008.5  304 1007.18  304 1005.5  C 304 1003.82  305.32 1002.5  307 1002.5  C 308.68 1002.5  310 1003.82  310 1005.5  C 310 1007.18  308.68 1008.5  307 1008.5  " fill-rule="nonzero" fill="#797979" stroke="none" />
</svg>