<?xml version="1.0" encoding="utf-8"?>
<svg version="1.1" xmlns:xlink="http://www.w3.org/1999/xlink" width="12px" height="12px" viewBox="361 999.5  12 12" xmlns="http://www.w3.org/2000/svg">
  <path d="M 367 999.5  C 370.36 999.5  373 1002.14  373 1005.5  C 373 1008.86  370.36 1011.5  367 1011.5  C 363.64 1011.5  361 1008.86  361 1005.5  C 361 1002.14  363.64 999.5  367 999.5  Z " fill-rule="nonzero" fill="#ffffff" stroke="none" />
  <path d="M 367 1000  C 370.08 1000  372.5 1002.42  372.5 1005.5  C 372.5 1008.58  370.08 1011  367 1011  C 363.92 1011  361.5 1008.58  361.5 1005.5  C 361.5 1002.42  363.92 1000  367 1000  Z " stroke-width="1" stroke="#797979" fill="none" />
  <path d="M 367 1008.5  C 365.32 1008.5  364 1007.18  364 1005.5  C 364 1003.82  365.32 1002.5  367 1002.5  C 368.68 1002.5  370 1003.82  370 1005.5  C 370 1007.18  368.68 1008.5  367 1008.5  " fill-rule="nonzero" fill="#797979" stroke="none" />
</svg>