<?xml version="1.0" encoding="utf-8"?>
<svg version="1.1" xmlns:xlink="http://www.w3.org/1999/xlink" width="12px" height="12px" viewBox="678 832.5  12 12" xmlns="http://www.w3.org/2000/svg">
  <path d="M 684 832.5  C 687.36 832.5  690 835.14  690 838.5  C 690 841.86  687.36 844.5  684 844.5  C 680.64 844.5  678 841.86  678 838.5  C 678 835.14  680.64 832.5  684 832.5  Z " fill-rule="nonzero" fill="#f0f0f0" stroke="none" />
  <path d="M 684 833  C 687.08 833  689.5 835.42  689.5 838.5  C 689.5 841.58  687.08 844  684 844  C 680.92 844  678.5 841.58  678.5 838.5  C 678.5 835.42  680.92 833  684 833  Z " stroke-width="1" stroke="#797979" fill="none" />
  <path d="M 684 841.5  C 682.32 841.5  681 840.18  681 838.5  C 681 836.82  682.32 835.5  684 835.5  C 685.68 835.5  687 836.82  687 838.5  C 687 840.18  685.68 841.5  684 841.5  " fill-rule="nonzero" fill="#797979" stroke="none" />
</svg>