<?xml version="1.0" encoding="utf-8"?>
<svg version="1.1" xmlns:xlink="http://www.w3.org/1999/xlink" width="12px" height="12px" viewBox="744 832.5  12 12" xmlns="http://www.w3.org/2000/svg">
  <path d="M 750 832.5  C 753.36 832.5  756 835.14  756 838.5  C 756 841.86  753.36 844.5  750 844.5  C 746.64 844.5  744 841.86  744 838.5  C 744 835.14  746.64 832.5  750 832.5  Z " fill-rule="nonzero" fill="#f0f0f0" stroke="none" />
  <path d="M 750 833  C 753.08 833  755.5 835.42  755.5 838.5  C 755.5 841.58  753.08 844  750 844  C 746.92 844  744.5 841.58  744.5 838.5  C 744.5 835.42  746.92 833  750 833  Z " stroke-width="1" stroke="#797979" fill="none" />
  <path d="M 750 841.5  C 748.32 841.5  747 840.18  747 838.5  C 747 836.82  748.32 835.5  750 835.5  C 751.68 835.5  753 836.82  753 838.5  C 753 840.18  751.68 841.5  750 841.5  " fill-rule="nonzero" fill="#797979" stroke="none" />
</svg>