<?xml version="1.0" encoding="utf-8"?>
<svg version="1.1" xmlns:xlink="http://www.w3.org/1999/xlink" width="12px" height="12px" viewBox="744 902.5  12 12" xmlns="http://www.w3.org/2000/svg">
  <path d="M 750 902.5  C 753.36 902.5  756 905.14  756 908.5  C 756 911.86  753.36 914.5  750 914.5  C 746.64 914.5  744 911.86  744 908.5  C 744 905.14  746.64 902.5  750 902.5  Z " fill-rule="nonzero" fill="#f0f0f0" stroke="none" />
  <path d="M 750 903  C 753.08 903  755.5 905.42  755.5 908.5  C 755.5 911.58  753.08 914  750 914  C 746.92 914  744.5 911.58  744.5 908.5  C 744.5 905.42  746.92 903  750 903  Z " stroke-width="1" stroke="#797979" fill="none" />
  <path d="M 750 911.5  C 748.32 911.5  747 910.18  747 908.5  C 747 906.82  748.32 905.5  750 905.5  C 751.68 905.5  753 906.82  753 908.5  C 753 910.18  751.68 911.5  750 911.5  " fill-rule="nonzero" fill="#797979" stroke="none" />
</svg>