<?xml version="1.0" encoding="utf-8"?>
<svg version="1.1" xmlns:xlink="http://www.w3.org/1999/xlink" width="12px" height="12px" viewBox="802 902.5  12 12" xmlns="http://www.w3.org/2000/svg">
  <path d="M 808 902.5  C 811.36 902.5  814 905.14  814 908.5  C 814 911.86  811.36 914.5  808 914.5  C 804.64 914.5  802 911.86  802 908.5  C 802 905.14  804.64 902.5  808 902.5  Z " fill-rule="nonzero" fill="#f0f0f0" stroke="none" />
  <path d="M 808 903  C 811.08 903  813.5 905.42  813.5 908.5  C 813.5 911.58  811.08 914  808 914  C 804.92 914  802.5 911.58  802.5 908.5  C 802.5 905.42  804.92 903  808 903  Z " stroke-width="1" stroke="#797979" fill="none" />
  <path d="M 808 911.5  C 806.32 911.5  805 910.18  805 908.5  C 805 906.82  806.32 905.5  808 905.5  C 809.68 905.5  811 906.82  811 908.5  C 811 910.18  809.68 911.5  808 911.5  " fill-rule="nonzero" fill="#797979" stroke="none" />
</svg>