<?xml version="1.0" encoding="utf-8"?>
<svg version="1.1" xmlns:xlink="http://www.w3.org/1999/xlink" width="12px" height="12px" viewBox="338 599.5  12 12" xmlns="http://www.w3.org/2000/svg">
  <path d="M 344 599.5  C 347.36 599.5  350 602.14  350 605.5  C 350 608.86  347.36 611.5  344 611.5  C 340.64 611.5  338 608.86  338 605.5  C 338 602.14  340.64 599.5  344 599.5  Z " fill-rule="nonzero" fill="#f0f0f0" stroke="none" />
  <path d="M 344 600  C 347.08 600  349.5 602.42  349.5 605.5  C 349.5 608.58  347.08 611  344 611  C 340.92 611  338.5 608.58  338.5 605.5  C 338.5 602.42  340.92 600  344 600  Z " stroke-width="1" stroke="#333333" fill="none" />
  <path d="M 344 608.5  C 342.32 608.5  341 607.18  341 605.5  C 341 603.82  342.32 602.5  344 602.5  C 345.68 602.5  347 603.82  347 605.5  C 347 607.18  345.68 608.5  344 608.5  " fill-rule="nonzero" fill="#333333" stroke="none" />
</svg>