<?xml version="1.0" encoding="utf-8"?>
<svg version="1.1" xmlns:xlink="http://www.w3.org/1999/xlink" width="12px" height="12px" viewBox="315 1602.5  12 12" xmlns="http://www.w3.org/2000/svg">
  <path d="M 321 1602.5  C 324.36 1602.5  327 1605.14  327 1608.5  C 327 1611.86  324.36 1614.5  321 1614.5  C 317.64 1614.5  315 1611.86  315 1608.5  C 315 1605.14  317.64 1602.5  321 1602.5  Z " fill-rule="nonzero" fill="#ffffff" stroke="none" />
  <path d="M 321 1603  C 324.08 1603  326.5 1605.42  326.5 1608.5  C 326.5 1611.58  324.08 1614  321 1614  C 317.92 1614  315.5 1611.58  315.5 1608.5  C 315.5 1605.42  317.92 1603  321 1603  Z " stroke-width="1" stroke="#797979" fill="none" />
  <path d="M 321 1611.5  C 319.32 1611.5  318 1610.18  318 1608.5  C 318 1606.82  319.32 1605.5  321 1605.5  C 322.68 1605.5  324 1606.82  324 1608.5  C 324 1610.18  322.68 1611.5  321 1611.5  " fill-rule="nonzero" fill="#797979" stroke="none" />
</svg>