<?xml version="1.0" encoding="utf-8"?>
<svg version="1.1" xmlns:xlink="http://www.w3.org/1999/xlink" width="12px" height="12px" viewBox="953 2319.5  12 12" xmlns="http://www.w3.org/2000/svg">
  <path d="M 959 2319.5  C 962.36 2319.5  965 2322.14  965 2325.5  C 965 2328.86  962.36 2331.5  959 2331.5  C 955.64 2331.5  953 2328.86  953 2325.5  C 953 2322.14  955.64 2319.5  959 2319.5  Z " fill-rule="nonzero" fill="#f0f0f0" stroke="none" />
  <path d="M 959 2320  C 962.08 2320  964.5 2322.42  964.5 2325.5  C 964.5 2328.58  962.08 2331  959 2331  C 955.92 2331  953.5 2328.58  953.5 2325.5  C 953.5 2322.42  955.92 2320  959 2320  Z " stroke-width="1" stroke="#333333" fill="none" />
  <path d="M 959 2328.5  C 957.32 2328.5  956 2327.18  956 2325.5  C 956 2323.82  957.32 2322.5  959 2322.5  C 960.68 2322.5  962 2323.82  962 2325.5  C 962 2327.18  960.68 2328.5  959 2328.5  " fill-rule="nonzero" fill="#333333" stroke="none" />
</svg>