<?xml version="1.0" encoding="utf-8"?>
<svg version="1.1" xmlns:xlink="http://www.w3.org/1999/xlink" width="12px" height="12px" viewBox="684 468.5  12 12" xmlns="http://www.w3.org/2000/svg">
  <path d="M 690 468.5  C 693.36 468.5  696 471.14  696 474.5  C 696 477.86  693.36 480.5  690 480.5  C 686.64 480.5  684 477.86  684 474.5  C 684 471.14  686.64 468.5  690 468.5  Z " fill-rule="nonzero" fill="#f0f0f0" stroke="none" />
  <path d="M 690 469  C 693.08 469  695.5 471.42  695.5 474.5  C 695.5 477.58  693.08 480  690 480  C 686.92 480  684.5 477.58  684.5 474.5  C 684.5 471.42  686.92 469  690 469  Z " stroke-width="1" stroke="#797979" fill="none" />
  <path d="M 690 477.5  C 688.32 477.5  687 476.18  687 474.5  C 687 472.82  688.32 471.5  690 471.5  C 691.68 471.5  693 472.82  693 474.5  C 693 476.18  691.68 477.5  690 477.5  " fill-rule="nonzero" fill="#797979" stroke="none" />
</svg>