<?xml version="1.0" encoding="utf-8"?>
<svg version="1.1" xmlns:xlink="http://www.w3.org/1999/xlink" width="12px" height="12px" viewBox="684 527.5  12 12" xmlns="http://www.w3.org/2000/svg">
  <path d="M 690 527.5  C 693.36 527.5  696 530.14  696 533.5  C 696 536.86  693.36 539.5  690 539.5  C 686.64 539.5  684 536.86  684 533.5  C 684 530.14  686.64 527.5  690 527.5  Z " fill-rule="nonzero" fill="#ffffff" stroke="none" />
  <path d="M 690 528  C 693.08 528  695.5 530.42  695.5 533.5  C 695.5 536.58  693.08 539  690 539  C 686.92 539  684.5 536.58  684.5 533.5  C 684.5 530.42  686.92 528  690 528  Z " stroke-width="1" stroke="#797979" fill="none" />
  <path d="M 690 536.5  C 688.32 536.5  687 535.18  687 533.5  C 687 531.82  688.32 530.5  690 530.5  C 691.68 530.5  693 531.82  693 533.5  C 693 535.18  691.68 536.5  690 536.5  " fill-rule="nonzero" fill="#797979" stroke="none" />
</svg>