<?xml version="1.0" encoding="utf-8"?>
<svg version="1.1" xmlns:xlink="http://www.w3.org/1999/xlink" width="12px" height="12px" viewBox="780 499.5  12 12" xmlns="http://www.w3.org/2000/svg">
  <path d="M 786 499.5  C 789.36 499.5  792 502.14  792 505.5  C 792 508.86  789.36 511.5  786 511.5  C 782.64 511.5  780 508.86  780 505.5  C 780 502.14  782.64 499.5  786 499.5  Z " fill-rule="nonzero" fill="#f0f0f0" stroke="none" />
  <path d="M 786 500  C 789.08 500  791.5 502.42  791.5 505.5  C 791.5 508.58  789.08 511  786 511  C 782.92 511  780.5 508.58  780.5 505.5  C 780.5 502.42  782.92 500  786 500  Z " stroke-width="1" stroke="#797979" fill="none" />
  <path d="M 786 508.5  C 784.32 508.5  783 507.18  783 505.5  C 783 503.82  784.32 502.5  786 502.5  C 787.68 502.5  789 503.82  789 505.5  C 789 507.18  787.68 508.5  786 508.5  " fill-rule="nonzero" fill="#797979" stroke="none" />
</svg>