<?xml version="1.0" encoding="utf-8"?>
<svg version="1.1" xmlns:xlink="http://www.w3.org/1999/xlink" width="12px" height="12px" viewBox="355 1105.5  12 12" xmlns="http://www.w3.org/2000/svg">
  <path d="M 361 1105.5  C 364.36 1105.5  367 1108.14  367 1111.5  C 367 1114.86  364.36 1117.5  361 1117.5  C 357.64 1117.5  355 1114.86  355 1111.5  C 355 1108.14  357.64 1105.5  361 1105.5  Z " fill-rule="nonzero" fill="#ffffff" stroke="none" />
  <path d="M 361 1106  C 364.08 1106  366.5 1108.42  366.5 1111.5  C 366.5 1114.58  364.08 1117  361 1117  C 357.92 1117  355.5 1114.58  355.5 1111.5  C 355.5 1108.42  357.92 1106  361 1106  Z " stroke-width="1" stroke="#797979" fill="none" />
  <path d="M 361 1114.5  C 359.32 1114.5  358 1113.18  358 1111.5  C 358 1109.82  359.32 1108.5  361 1108.5  C 362.68 1108.5  364 1109.82  364 1111.5  C 364 1113.18  362.68 1114.5  361 1114.5  " fill-rule="nonzero" fill="#797979" stroke="none" />
</svg>