<?xml version="1.0" encoding="utf-8"?>
<svg version="1.1" xmlns:xlink="http://www.w3.org/1999/xlink" width="12px" height="12px" viewBox="1030 535.5  12 12" xmlns="http://www.w3.org/2000/svg">
  <path d="M 1036 535.5  C 1039.36 535.5  1042 538.14  1042 541.5  C 1042 544.86  1039.36 547.5  1036 547.5  C 1032.64 547.5  1030 544.86  1030 541.5  C 1030 538.14  1032.64 535.5  1036 535.5  Z " fill-rule="nonzero" fill="#ffffff" stroke="none" />
  <path d="M 1036 536  C 1039.08 536  1041.5 538.42  1041.5 541.5  C 1041.5 544.58  1039.08 547  1036 547  C 1032.92 547  1030.5 544.58  1030.5 541.5  C 1030.5 538.42  1032.92 536  1036 536  Z " stroke-width="1" stroke="#797979" fill="none" />
  <path d="M 1036 544.5  C 1034.32 544.5  1033 543.18  1033 541.5  C 1033 539.82  1034.32 538.5  1036 538.5  C 1037.68 538.5  1039 539.82  1039 541.5  C 1039 543.18  1037.68 544.5  1036 544.5  " fill-rule="nonzero" fill="#797979" stroke="none" />
</svg>