<?xml version="1.0" encoding="utf-8"?>
<svg version="1.1" xmlns:xlink="http://www.w3.org/1999/xlink" width="12px" height="12px" viewBox="176 508  12 12" xmlns="http://www.w3.org/2000/svg">
  <path d="M 182 508  C 185.36 508  188 510.64  188 514  C 188 517.36  185.36 520  182 520  C 178.64 520  176 517.36  176 514  C 176 510.64  178.64 508  182 508  Z " fill-rule="nonzero" fill="#f0f0f0" stroke="none" />
  <path d="M 182 508.5  C 185.08 508.5  187.5 510.92  187.5 514  C 187.5 517.08  185.08 519.5  182 519.5  C 178.92 519.5  176.5 517.08  176.5 514  C 176.5 510.92  178.92 508.5  182 508.5  Z " stroke-width="1" stroke="#797979" fill="none" />
  <path d="M 182 517  C 180.32 517  179 515.68  179 514  C 179 512.32  180.32 511  182 511  C 183.68 511  185 512.32  185 514  C 185 515.68  183.68 517  182 517  " fill-rule="nonzero" fill="#797979" stroke="none" />
</svg>