<?xml version="1.0" encoding="utf-8"?>
<svg version="1.1" xmlns:xlink="http://www.w3.org/1999/xlink" width="12px" height="12px" viewBox="176 589  12 12" xmlns="http://www.w3.org/2000/svg">
  <path d="M 182 589  C 185.36 589  188 591.64  188 595  C 188 598.36  185.36 601  182 601  C 178.64 601  176 598.36  176 595  C 176 591.64  178.64 589  182 589  Z " fill-rule="nonzero" fill="#ffffff" stroke="none" />
  <path d="M 182 589.5  C 185.08 589.5  187.5 591.92  187.5 595  C 187.5 598.08  185.08 600.5  182 600.5  C 178.92 600.5  176.5 598.08  176.5 595  C 176.5 591.92  178.92 589.5  182 589.5  Z " stroke-width="1" stroke="#797979" fill="none" />
  <path d="M 182 598  C 180.32 598  179 596.68  179 595  C 179 593.32  180.32 592  182 592  C 183.68 592  185 593.32  185 595  C 185 596.68  183.68 598  182 598  " fill-rule="nonzero" fill="#797979" stroke="none" />
</svg>