<?xml version="1.0" encoding="utf-8"?>
<svg version="1.1" xmlns:xlink="http://www.w3.org/1999/xlink" width="12px" height="12px" viewBox="176 548  12 12" xmlns="http://www.w3.org/2000/svg">
  <path d="M 182 548  C 185.36 548  188 550.64  188 554  C 188 557.36  185.36 560  182 560  C 178.64 560  176 557.36  176 554  C 176 550.64  178.64 548  182 548  Z " fill-rule="nonzero" fill="#f0f0f0" stroke="none" />
  <path d="M 182 548.5  C 185.08 548.5  187.5 550.92  187.5 554  C 187.5 557.08  185.08 559.5  182 559.5  C 178.92 559.5  176.5 557.08  176.5 554  C 176.5 550.92  178.92 548.5  182 548.5  Z " stroke-width="1" stroke="#797979" fill="none" />
  <path d="M 182 557  C 180.32 557  179 555.68  179 554  C 179 552.32  180.32 551  182 551  C 183.68 551  185 552.32  185 554  C 185 555.68  183.68 557  182 557  " fill-rule="nonzero" fill="#797979" stroke="none" />
</svg>