<?xml version="1.0" encoding="utf-8"?>
<svg version="1.1" xmlns:xlink="http://www.w3.org/1999/xlink" width="12px" height="12px" viewBox="176 671  12 12" xmlns="http://www.w3.org/2000/svg">
  <path d="M 182 671  C 185.36 671  188 673.64  188 677  C 188 680.36  185.36 683  182 683  C 178.64 683  176 680.36  176 677  C 176 673.64  178.64 671  182 671  Z " fill-rule="nonzero" fill="#ffffff" stroke="none" />
  <path d="M 182 671.5  C 185.08 671.5  187.5 673.92  187.5 677  C 187.5 680.08  185.08 682.5  182 682.5  C 178.92 682.5  176.5 680.08  176.5 677  C 176.5 673.92  178.92 671.5  182 671.5  Z " stroke-width="1" stroke="#797979" fill="none" />
  <path d="M 182 680  C 180.32 680  179 678.68  179 677  C 179 675.32  180.32 674  182 674  C 183.68 674  185 675.32  185 677  C 185 678.68  183.68 680  182 680  " fill-rule="nonzero" fill="#797979" stroke="none" />
</svg>