<?xml version="1.0" encoding="utf-8"?>
<svg version="1.1" xmlns:xlink="http://www.w3.org/1999/xlink" width="12px" height="12px" viewBox="176 871  12 12" xmlns="http://www.w3.org/2000/svg">
  <path d="M 182 871  C 185.36 871  188 873.64  188 877  C 188 880.36  185.36 883  182 883  C 178.64 883  176 880.36  176 877  C 176 873.64  178.64 871  182 871  Z " fill-rule="nonzero" fill="#f0f0f0" stroke="none" />
  <path d="M 182 871.5  C 185.08 871.5  187.5 873.92  187.5 877  C 187.5 880.08  185.08 882.5  182 882.5  C 178.92 882.5  176.5 880.08  176.5 877  C 176.5 873.92  178.92 871.5  182 871.5  Z " stroke-width="1" stroke="#797979" fill="none" />
  <path d="M 182 880  C 180.32 880  179 878.68  179 877  C 179 875.32  180.32 874  182 874  C 183.68 874  185 875.32  185 877  C 185 878.68  183.68 880  182 880  " fill-rule="nonzero" fill="#797979" stroke="none" />
</svg>