<?xml version="1.0" encoding="utf-8"?>
<svg version="1.1" xmlns:xlink="http://www.w3.org/1999/xlink" width="12px" height="12px" viewBox="176 790  12 12" xmlns="http://www.w3.org/2000/svg">
  <path d="M 182 790  C 185.36 790  188 792.64  188 796  C 188 799.36  185.36 802  182 802  C 178.64 802  176 799.36  176 796  C 176 792.64  178.64 790  182 790  Z " fill-rule="nonzero" fill="#f0f0f0" stroke="none" />
  <path d="M 182 790.5  C 185.08 790.5  187.5 792.92  187.5 796  C 187.5 799.08  185.08 801.5  182 801.5  C 178.92 801.5  176.5 799.08  176.5 796  C 176.5 792.92  178.92 790.5  182 790.5  Z " stroke-width="1" stroke="#797979" fill="none" />
  <path d="M 182 799  C 180.32 799  179 797.68  179 796  C 179 794.32  180.32 793  182 793  C 183.68 793  185 794.32  185 796  C 185 797.68  183.68 799  182 799  " fill-rule="nonzero" fill="#797979" stroke="none" />
</svg>