<?xml version="1.0" encoding="utf-8"?>
<svg version="1.1" xmlns:xlink="http://www.w3.org/1999/xlink" width="12px" height="12px" viewBox="176 909  12 12" xmlns="http://www.w3.org/2000/svg">
  <path d="M 182 909  C 185.36 909  188 911.64  188 915  C 188 918.36  185.36 921  182 921  C 178.64 921  176 918.36  176 915  C 176 911.64  178.64 909  182 909  Z " fill-rule="nonzero" fill="#f0f0f0" stroke="none" />
  <path d="M 182 909.5  C 185.08 909.5  187.5 911.92  187.5 915  C 187.5 918.08  185.08 920.5  182 920.5  C 178.92 920.5  176.5 918.08  176.5 915  C 176.5 911.92  178.92 909.5  182 909.5  Z " stroke-width="1" stroke="#797979" fill="none" />
  <path d="M 182 918  C 180.32 918  179 916.68  179 915  C 179 913.32  180.32 912  182 912  C 183.68 912  185 913.32  185 915  C 185 916.68  183.68 918  182 918  " fill-rule="nonzero" fill="#797979" stroke="none" />
</svg>