<?xml version="1.0" encoding="utf-8"?>
<svg version="1.1" xmlns:xlink="http://www.w3.org/1999/xlink" width="12px" height="12px" viewBox="176 749  12 12" xmlns="http://www.w3.org/2000/svg">
  <path d="M 182 749  C 185.36 749  188 751.64  188 755  C 188 758.36  185.36 761  182 761  C 178.64 761  176 758.36  176 755  C 176 751.64  178.64 749  182 749  Z " fill-rule="nonzero" fill="#f0f0f0" stroke="none" />
  <path d="M 182 749.5  C 185.08 749.5  187.5 751.92  187.5 755  C 187.5 758.08  185.08 760.5  182 760.5  C 178.92 760.5  176.5 758.08  176.5 755  C 176.5 751.92  178.92 749.5  182 749.5  Z " stroke-width="1" stroke="#797979" fill="none" />
  <path d="M 182 758  C 180.32 758  179 756.68  179 755  C 179 753.32  180.32 752  182 752  C 183.68 752  185 753.32  185 755  C 185 756.68  183.68 758  182 758  " fill-rule="nonzero" fill="#797979" stroke="none" />
</svg>