<?xml version="1.0" encoding="utf-8"?>
<svg version="1.1" xmlns:xlink="http://www.w3.org/1999/xlink" width="12px" height="12px" viewBox="176 1071  12 12" xmlns="http://www.w3.org/2000/svg">
  <path d="M 182 1071  C 185.36 1071  188 1073.64  188 1077  C 188 1080.36  185.36 1083  182 1083  C 178.64 1083  176 1080.36  176 1077  C 176 1073.64  178.64 1071  182 1071  Z " fill-rule="nonzero" fill="#f0f0f0" stroke="none" />
  <path d="M 182 1071.5  C 185.08 1071.5  187.5 1073.92  187.5 1077  C 187.5 1080.08  185.08 1082.5  182 1082.5  C 178.92 1082.5  176.5 1080.08  176.5 1077  C 176.5 1073.92  178.92 1071.5  182 1071.5  Z " stroke-width="1" stroke="#797979" fill="none" />
  <path d="M 182 1080  C 180.32 1080  179 1078.68  179 1077  C 179 1075.32  180.32 1074  182 1074  C 183.68 1074  185 1075.32  185 1077  C 185 1078.68  183.68 1080  182 1080  " fill-rule="nonzero" fill="#797979" stroke="none" />
</svg>