<?xml version="1.0" encoding="utf-8"?>
<svg version="1.1" xmlns:xlink="http://www.w3.org/1999/xlink" width="12px" height="12px" viewBox="176 1190  12 12" xmlns="http://www.w3.org/2000/svg">
  <path d="M 182 1190  C 185.36 1190  188 1192.64  188 1196  C 188 1199.36  185.36 1202  182 1202  C 178.64 1202  176 1199.36  176 1196  C 176 1192.64  178.64 1190  182 1190  Z " fill-rule="nonzero" fill="#f0f0f0" stroke="none" />
  <path d="M 182 1190.5  C 185.08 1190.5  187.5 1192.92  187.5 1196  C 187.5 1199.08  185.08 1201.5  182 1201.5  C 178.92 1201.5  176.5 1199.08  176.5 1196  C 176.5 1192.92  178.92 1190.5  182 1190.5  Z " stroke-width="1" stroke="#797979" fill="none" />
  <path d="M 182 1199  C 180.32 1199  179 1197.68  179 1196  C 179 1194.32  180.32 1193  182 1193  C 183.68 1193  185 1194.32  185 1196  C 185 1197.68  183.68 1199  182 1199  " fill-rule="nonzero" fill="#797979" stroke="none" />
</svg>