<?xml version="1.0" encoding="utf-8"?>
<svg version="1.1" xmlns:xlink="http://www.w3.org/1999/xlink" width="12px" height="12px" viewBox="176 949  12 12" xmlns="http://www.w3.org/2000/svg">
  <path d="M 182 949  C 185.36 949  188 951.64  188 955  C 188 958.36  185.36 961  182 961  C 178.64 961  176 958.36  176 955  C 176 951.64  178.64 949  182 949  Z " fill-rule="nonzero" fill="#ffffff" stroke="none" />
  <path d="M 182 949.5  C 185.08 949.5  187.5 951.92  187.5 955  C 187.5 958.08  185.08 960.5  182 960.5  C 178.92 960.5  176.5 958.08  176.5 955  C 176.5 951.92  178.92 949.5  182 949.5  Z " stroke-width="1" stroke="#797979" fill="none" />
  <path d="M 182 958  C 180.32 958  179 956.68  179 955  C 179 953.32  180.32 952  182 952  C 183.68 952  185 953.32  185 955  C 185 956.68  183.68 958  182 958  " fill-rule="nonzero" fill="#797979" stroke="none" />
</svg>