<?xml version="1.0" encoding="utf-8"?>
<svg version="1.1" xmlns:xlink="http://www.w3.org/1999/xlink" width="12px" height="12px" viewBox="176 990  12 12" xmlns="http://www.w3.org/2000/svg">
  <path d="M 182 990  C 185.36 990  188 992.64  188 996  C 188 999.36  185.36 1002  182 1002  C 178.64 1002  176 999.36  176 996  C 176 992.64  178.64 990  182 990  Z " fill-rule="nonzero" fill="#f0f0f0" stroke="none" />
  <path d="M 182 990.5  C 185.08 990.5  187.5 992.92  187.5 996  C 187.5 999.08  185.08 1001.5  182 1001.5  C 178.92 1001.5  176.5 999.08  176.5 996  C 176.5 992.92  178.92 990.5  182 990.5  Z " stroke-width="1" stroke="#797979" fill="none" />
  <path d="M 182 999  C 180.32 999  179 997.68  179 996  C 179 994.32  180.32 993  182 993  C 183.68 993  185 994.32  185 996  C 185 997.68  183.68 999  182 999  " fill-rule="nonzero" fill="#797979" stroke="none" />
</svg>