<?xml version="1.0" encoding="utf-8"?>
<svg version="1.1" xmlns:xlink="http://www.w3.org/1999/xlink" width="12px" height="12px" viewBox="176 1109  12 12" xmlns="http://www.w3.org/2000/svg">
  <path d="M 182 1109  C 185.36 1109  188 1111.64  188 1115  C 188 1118.36  185.36 1121  182 1121  C 178.64 1121  176 1118.36  176 1115  C 176 1111.64  178.64 1109  182 1109  Z " fill-rule="nonzero" fill="#ffffff" stroke="none" />
  <path d="M 182 1109.5  C 185.08 1109.5  187.5 1111.92  187.5 1115  C 187.5 1118.08  185.08 1120.5  182 1120.5  C 178.92 1120.5  176.5 1118.08  176.5 1115  C 176.5 1111.92  178.92 1109.5  182 1109.5  Z " stroke-width="1" stroke="#797979" fill="none" />
  <path d="M 182 1118  C 180.32 1118  179 1116.68  179 1115  C 179 1113.32  180.32 1112  182 1112  C 183.68 1112  185 1113.32  185 1115  C 185 1116.68  183.68 1118  182 1118  " fill-rule="nonzero" fill="#797979" stroke="none" />
</svg>