<?xml version="1.0" encoding="utf-8"?>
<svg version="1.1" xmlns:xlink="http://www.w3.org/1999/xlink" width="12px" height="12px" viewBox="176 1475  12 12" xmlns="http://www.w3.org/2000/svg">
  <path d="M 182 1475  C 185.36 1475  188 1477.64  188 1481  C 188 1484.36  185.36 1487  182 1487  C 178.64 1487  176 1484.36  176 1481  C 176 1477.64  178.64 1475  182 1475  Z " fill-rule="nonzero" fill="#f0f0f0" stroke="none" />
  <path d="M 182 1475.5  C 185.08 1475.5  187.5 1477.92  187.5 1481  C 187.5 1484.08  185.08 1486.5  182 1486.5  C 178.92 1486.5  176.5 1484.08  176.5 1481  C 176.5 1477.92  178.92 1475.5  182 1475.5  Z " stroke-width="1" stroke="#797979" fill="none" />
  <path d="M 182 1484  C 180.32 1484  179 1482.68  179 1481  C 179 1479.32  180.32 1478  182 1478  C 183.68 1478  185 1479.32  185 1481  C 185 1482.68  183.68 1484  182 1484  " fill-rule="nonzero" fill="#797979" stroke="none" />
</svg>