<?xml version="1.0" encoding="utf-8"?>
<svg version="1.1" xmlns:xlink="http://www.w3.org/1999/xlink" width="12px" height="12px" viewBox="176 1272  12 12" xmlns="http://www.w3.org/2000/svg">
  <path d="M 182 1272  C 185.36 1272  188 1274.64  188 1278  C 188 1281.36  185.36 1284  182 1284  C 178.64 1284  176 1281.36  176 1278  C 176 1274.64  178.64 1272  182 1272  Z " fill-rule="nonzero" fill="#f0f0f0" stroke="none" />
  <path d="M 182 1272.5  C 185.08 1272.5  187.5 1274.92  187.5 1278  C 187.5 1281.08  185.08 1283.5  182 1283.5  C 178.92 1283.5  176.5 1281.08  176.5 1278  C 176.5 1274.92  178.92 1272.5  182 1272.5  Z " stroke-width="1" stroke="#797979" fill="none" />
  <path d="M 182 1281  C 180.32 1281  179 1279.68  179 1278  C 179 1276.32  180.32 1275  182 1275  C 183.68 1275  185 1276.32  185 1278  C 185 1279.68  183.68 1281  182 1281  " fill-rule="nonzero" fill="#797979" stroke="none" />
</svg>