<?xml version="1.0" encoding="utf-8"?>
<svg version="1.1" xmlns:xlink="http://www.w3.org/1999/xlink" width="12px" height="12px" viewBox="176 1310  12 12" xmlns="http://www.w3.org/2000/svg">
  <path d="M 182 1310  C 185.36 1310  188 1312.64  188 1316  C 188 1319.36  185.36 1322  182 1322  C 178.64 1322  176 1319.36  176 1316  C 176 1312.64  178.64 1310  182 1310  Z " fill-rule="nonzero" fill="#ffffff" stroke="none" />
  <path d="M 182 1310.5  C 185.08 1310.5  187.5 1312.92  187.5 1316  C 187.5 1319.08  185.08 1321.5  182 1321.5  C 178.92 1321.5  176.5 1319.08  176.5 1316  C 176.5 1312.92  178.92 1310.5  182 1310.5  Z " stroke-width="1" stroke="#797979" fill="none" />
  <path d="M 182 1319  C 180.32 1319  179 1317.68  179 1316  C 179 1314.32  180.32 1313  182 1313  C 183.68 1313  185 1314.32  185 1316  C 185 1317.68  183.68 1319  182 1319  " fill-rule="nonzero" fill="#797979" stroke="none" />
</svg>