<?xml version="1.0" encoding="utf-8"?>
<svg version="1.1" xmlns:xlink="http://www.w3.org/1999/xlink" width="12px" height="12px" viewBox="176 1391  12 12" xmlns="http://www.w3.org/2000/svg">
  <path d="M 182 1391  C 185.36 1391  188 1393.64  188 1397  C 188 1400.36  185.36 1403  182 1403  C 178.64 1403  176 1400.36  176 1397  C 176 1393.64  178.64 1391  182 1391  Z " fill-rule="nonzero" fill="#f0f0f0" stroke="none" />
  <path d="M 182 1391.5  C 185.08 1391.5  187.5 1393.92  187.5 1397  C 187.5 1400.08  185.08 1402.5  182 1402.5  C 178.92 1402.5  176.5 1400.08  176.5 1397  C 176.5 1393.92  178.92 1391.5  182 1391.5  Z " stroke-width="1" stroke="#797979" fill="none" />
  <path d="M 182 1400  C 180.32 1400  179 1398.68  179 1397  C 179 1395.32  180.32 1394  182 1394  C 183.68 1394  185 1395.32  185 1397  C 185 1398.68  183.68 1400  182 1400  " fill-rule="nonzero" fill="#797979" stroke="none" />
</svg>