<?xml version="1.0" encoding="utf-8"?>
<svg version="1.1" xmlns:xlink="http://www.w3.org/1999/xlink" width="12px" height="12px" viewBox="176 1553  12 12" xmlns="http://www.w3.org/2000/svg">
  <path d="M 182 1553  C 185.36 1553  188 1555.64  188 1559  C 188 1562.36  185.36 1565  182 1565  C 178.64 1565  176 1562.36  176 1559  C 176 1555.64  178.64 1553  182 1553  Z " fill-rule="nonzero" fill="#ffffff" stroke="none" />
  <path d="M 182 1553.5  C 185.08 1553.5  187.5 1555.92  187.5 1559  C 187.5 1562.08  185.08 1564.5  182 1564.5  C 178.92 1564.5  176.5 1562.08  176.5 1559  C 176.5 1555.92  178.92 1553.5  182 1553.5  Z " stroke-width="1" stroke="#797979" fill="none" />
  <path d="M 182 1562  C 180.32 1562  179 1560.68  179 1559  C 179 1557.32  180.32 1556  182 1556  C 183.68 1556  185 1557.32  185 1559  C 185 1560.68  183.68 1562  182 1562  " fill-rule="nonzero" fill="#797979" stroke="none" />
</svg>