<?xml version="1.0" encoding="utf-8"?>
<svg version="1.1" xmlns:xlink="http://www.w3.org/1999/xlink" width="12px" height="12px" viewBox="176 1350  12 12" xmlns="http://www.w3.org/2000/svg">
  <path d="M 182 1350  C 185.36 1350  188 1352.64  188 1356  C 188 1359.36  185.36 1362  182 1362  C 178.64 1362  176 1359.36  176 1356  C 176 1352.64  178.64 1350  182 1350  Z " fill-rule="nonzero" fill="#ffffff" stroke="none" />
  <path d="M 182 1350.5  C 185.08 1350.5  187.5 1352.92  187.5 1356  C 187.5 1359.08  185.08 1361.5  182 1361.5  C 178.92 1361.5  176.5 1359.08  176.5 1356  C 176.5 1352.92  178.92 1350.5  182 1350.5  Z " stroke-width="1" stroke="#797979" fill="none" />
  <path d="M 182 1359  C 180.32 1359  179 1357.68  179 1356  C 179 1354.32  180.32 1353  182 1353  C 183.68 1353  185 1354.32  185 1356  C 185 1357.68  183.68 1359  182 1359  " fill-rule="nonzero" fill="#797979" stroke="none" />
</svg>