<?xml version="1.0" encoding="utf-8"?>
<svg version="1.1" xmlns:xlink="http://www.w3.org/1999/xlink" width="12px" height="12px" viewBox="424 468.5  12 12" xmlns="http://www.w3.org/2000/svg">
  <path d="M 430 468.5  C 433.36 468.5  436 471.14  436 474.5  C 436 477.86  433.36 480.5  430 480.5  C 426.64 480.5  424 477.86  424 474.5  C 424 471.14  426.64 468.5  430 468.5  Z " fill-rule="nonzero" fill="#ffffff" stroke="none" />
  <path d="M 430 469  C 433.08 469  435.5 471.42  435.5 474.5  C 435.5 477.58  433.08 480  430 480  C 426.92 480  424.5 477.58  424.5 474.5  C 424.5 471.42  426.92 469  430 469  Z " stroke-width="1" stroke="#797979" fill="none" />
  <path d="M 430 477.5  C 428.32 477.5  427 476.18  427 474.5  C 427 472.82  428.32 471.5  430 471.5  C 431.68 471.5  433 472.82  433 474.5  C 433 476.18  431.68 477.5  430 477.5  " fill-rule="nonzero" fill="#797979" stroke="none" />
</svg>