<?xml version="1.0" encoding="utf-8"?>
<svg version="1.1" xmlns:xlink="http://www.w3.org/1999/xlink" width="12px" height="12px" viewBox="732 401.5  12 12" xmlns="http://www.w3.org/2000/svg">
  <path d="M 738 401.5  C 741.36 401.5  744 404.14  744 407.5  C 744 410.86  741.36 413.5  738 413.5  C 734.64 413.5  732 410.86  732 407.5  C 732 404.14  734.64 401.5  738 401.5  Z " fill-rule="nonzero" fill="#f0f0f0" stroke="none" />
  <path d="M 738 402  C 741.08 402  743.5 404.42  743.5 407.5  C 743.5 410.58  741.08 413  738 413  C 734.92 413  732.5 410.58  732.5 407.5  C 732.5 404.42  734.92 402  738 402  Z " stroke-width="1" stroke="#8080ff" fill="none" />
  <path d="M 738 410.5  C 736.32 410.5  735 409.18  735 407.5  C 735 405.82  736.32 404.5  738 404.5  C 739.68 404.5  741 405.82  741 407.5  C 741 409.18  739.68 410.5  738 410.5  " fill-rule="nonzero" fill="#8080ff" stroke="none" />
</svg>