<?xml version="1.0" encoding="utf-8"?>
<svg version="1.1" xmlns:xlink="http://www.w3.org/1999/xlink" width="12px" height="12px" viewBox="260 620.5  12 12" xmlns="http://www.w3.org/2000/svg">
  <path d="M 266 620.5  C 269.36 620.5  272 623.14  272 626.5  C 272 629.86  269.36 632.5  266 632.5  C 262.64 632.5  260 629.86  260 626.5  C 260 623.14  262.64 620.5  266 620.5  Z " fill-rule="nonzero" fill="#ffffff" stroke="none" />
  <path d="M 266 621  C 269.08 621  271.5 623.42  271.5 626.5  C 271.5 629.58  269.08 632  266 632  C 262.92 632  260.5 629.58  260.5 626.5  C 260.5 623.42  262.92 621  266 621  Z " stroke-width="1" stroke="#333333" fill="none" />
  <path d="M 266 629.5  C 264.32 629.5  263 628.18  263 626.5  C 263 624.82  264.32 623.5  266 623.5  C 267.68 623.5  269 624.82  269 626.5  C 269 628.18  267.68 629.5  266 629.5  " fill-rule="nonzero" fill="#333333" stroke="none" />
</svg>