<?xml version="1.0" encoding="utf-8"?>
<svg version="1.1" xmlns:xlink="http://www.w3.org/1999/xlink" width="12px" height="12px" viewBox="202 468.5  12 12" xmlns="http://www.w3.org/2000/svg">
  <path d="M 208 468.5  C 211.36 468.5  214 471.14  214 474.5  C 214 477.86  211.36 480.5  208 480.5  C 204.64 480.5  202 477.86  202 474.5  C 202 471.14  204.64 468.5  208 468.5  Z " fill-rule="nonzero" fill="#ffffff" stroke="none" />
  <path d="M 208 469  C 211.08 469  213.5 471.42  213.5 474.5  C 213.5 477.58  211.08 480  208 480  C 204.92 480  202.5 477.58  202.5 474.5  C 202.5 471.42  204.92 469  208 469  Z " stroke-width="1" stroke="#797979" fill="none" />
  <path d="M 208 477.5  C 206.32 477.5  205 476.18  205 474.5  C 205 472.82  206.32 471.5  208 471.5  C 209.68 471.5  211 472.82  211 474.5  C 211 476.18  209.68 477.5  208 477.5  " fill-rule="nonzero" fill="#797979" stroke="none" />
</svg>