<?xml version="1.0" encoding="utf-8"?>
<svg version="1.1" xmlns:xlink="http://www.w3.org/1999/xlink" width="12px" height="12px" viewBox="302 468.5  12 12" xmlns="http://www.w3.org/2000/svg">
  <path d="M 308 468.5  C 311.36 468.5  314 471.14  314 474.5  C 314 477.86  311.36 480.5  308 480.5  C 304.64 480.5  302 477.86  302 474.5  C 302 471.14  304.64 468.5  308 468.5  Z " fill-rule="nonzero" fill="#ffffff" stroke="none" />
  <path d="M 308 469  C 311.08 469  313.5 471.42  313.5 474.5  C 313.5 477.58  311.08 480  308 480  C 304.92 480  302.5 477.58  302.5 474.5  C 302.5 471.42  304.92 469  308 469  Z " stroke-width="1" stroke="#797979" fill="none" />
  <path d="M 308 477.5  C 306.32 477.5  305 476.18  305 474.5  C 305 472.82  306.32 471.5  308 471.5  C 309.68 471.5  311 472.82  311 474.5  C 311 476.18  309.68 477.5  308 477.5  " fill-rule="nonzero" fill="#797979" stroke="none" />
</svg>