<?xml version="1.0" encoding="utf-8"?>
<svg version="1.1" xmlns:xlink="http://www.w3.org/1999/xlink" width="12px" height="12px" viewBox="202 442.5  12 12" xmlns="http://www.w3.org/2000/svg">
  <path d="M 208 442.5  C 211.36 442.5  214 445.14  214 448.5  C 214 451.86  211.36 454.5  208 454.5  C 204.64 454.5  202 451.86  202 448.5  C 202 445.14  204.64 442.5  208 442.5  Z " fill-rule="nonzero" fill="#ffffff" stroke="none" />
  <path d="M 208 443  C 211.08 443  213.5 445.42  213.5 448.5  C 213.5 451.58  211.08 454  208 454  C 204.92 454  202.5 451.58  202.5 448.5  C 202.5 445.42  204.92 443  208 443  Z " stroke-width="1" stroke="#797979" fill="none" />
  <path d="M 208 451.5  C 206.32 451.5  205 450.18  205 448.5  C 205 446.82  206.32 445.5  208 445.5  C 209.68 445.5  211 446.82  211 448.5  C 211 450.18  209.68 451.5  208 451.5  " fill-rule="nonzero" fill="#797979" stroke="none" />
</svg>