<?xml version="1.0" encoding="utf-8"?>
<svg version="1.1" xmlns:xlink="http://www.w3.org/1999/xlink" width="12px" height="12px" viewBox="328 646.5  12 12" xmlns="http://www.w3.org/2000/svg">
  <path d="M 334 646.5  C 337.36 646.5  340 649.14  340 652.5  C 340 655.86  337.36 658.5  334 658.5  C 330.64 658.5  328 655.86  328 652.5  C 328 649.14  330.64 646.5  334 646.5  Z " fill-rule="nonzero" fill="#ffffff" stroke="none" />
  <path d="M 334 647  C 337.08 647  339.5 649.42  339.5 652.5  C 339.5 655.58  337.08 658  334 658  C 330.92 658  328.5 655.58  328.5 652.5  C 328.5 649.42  330.92 647  334 647  Z " stroke-width="1" stroke="#797979" fill="none" />
  <path d="M 334 655.5  C 332.32 655.5  331 654.18  331 652.5  C 331 650.82  332.32 649.5  334 649.5  C 335.68 649.5  337 650.82  337 652.5  C 337 654.18  335.68 655.5  334 655.5  " fill-rule="nonzero" fill="#797979" stroke="none" />
</svg>