<?xml version="1.0" encoding="utf-8"?>
<svg version="1.1" xmlns:xlink="http://www.w3.org/1999/xlink" width="12px" height="12px" viewBox="260 646.5  12 12" xmlns="http://www.w3.org/2000/svg">
  <path d="M 266 646.5  C 269.36 646.5  272 649.14  272 652.5  C 272 655.86  269.36 658.5  266 658.5  C 262.64 658.5  260 655.86  260 652.5  C 260 649.14  262.64 646.5  266 646.5  Z " fill-rule="nonzero" fill="#f0f0f0" stroke="none" />
  <path d="M 266 647  C 269.08 647  271.5 649.42  271.5 652.5  C 271.5 655.58  269.08 658  266 658  C 262.92 658  260.5 655.58  260.5 652.5  C 260.5 649.42  262.92 647  266 647  Z " stroke-width="1" stroke="#333333" fill="none" />
  <path d="M 266 655.5  C 264.32 655.5  263 654.18  263 652.5  C 263 650.82  264.32 649.5  266 649.5  C 267.68 649.5  269 650.82  269 652.5  C 269 654.18  267.68 655.5  266 655.5  " fill-rule="nonzero" fill="#333333" stroke="none" />
</svg>