<?xml version="1.0" encoding="utf-8"?>
<svg version="1.1" xmlns:xlink="http://www.w3.org/1999/xlink" width="12px" height="12px" viewBox="391 646.5  12 12" xmlns="http://www.w3.org/2000/svg">
  <path d="M 397 646.5  C 400.36 646.5  403 649.14  403 652.5  C 403 655.86  400.36 658.5  397 658.5  C 393.64 658.5  391 655.86  391 652.5  C 391 649.14  393.64 646.5  397 646.5  Z " fill-rule="nonzero" fill="#f0f0f0" stroke="none" />
  <path d="M 397 647  C 400.08 647  402.5 649.42  402.5 652.5  C 402.5 655.58  400.08 658  397 658  C 393.92 658  391.5 655.58  391.5 652.5  C 391.5 649.42  393.92 647  397 647  Z " stroke-width="1" stroke="#797979" fill="none" />
  <path d="M 397 655.5  C 395.32 655.5  394 654.18  394 652.5  C 394 650.82  395.32 649.5  397 649.5  C 398.68 649.5  400 650.82  400 652.5  C 400 654.18  398.68 655.5  397 655.5  " fill-rule="nonzero" fill="#797979" stroke="none" />
</svg>