<?xml version="1.0" encoding="utf-8"?>
<svg version="1.1" xmlns:xlink="http://www.w3.org/1999/xlink" width="12px" height="12px" viewBox="782 401.5  12 12" xmlns="http://www.w3.org/2000/svg">
  <path d="M 788 401.5  C 791.36 401.5  794 404.14  794 407.5  C 794 410.86  791.36 413.5  788 413.5  C 784.64 413.5  782 410.86  782 407.5  C 782 404.14  784.64 401.5  788 401.5  Z " fill-rule="nonzero" fill="#f0f0f0" stroke="none" />
  <path d="M 788 402  C 791.08 402  793.5 404.42  793.5 407.5  C 793.5 410.58  791.08 413  788 413  C 784.92 413  782.5 410.58  782.5 407.5  C 782.5 404.42  784.92 402  788 402  Z " stroke-width="1" stroke="#8080ff" fill="none" />
  <path d="M 788 410.5  C 786.32 410.5  785 409.18  785 407.5  C 785 405.82  786.32 404.5  788 404.5  C 789.68 404.5  791 405.82  791 407.5  C 791 409.18  789.68 410.5  788 410.5  " fill-rule="nonzero" fill="#8080ff" stroke="none" />
</svg>