<?xml version="1.0" encoding="utf-8"?>
<svg version="1.1" xmlns:xlink="http://www.w3.org/1999/xlink" width="12px" height="12px" viewBox="223 1016.5  12 12" xmlns="http://www.w3.org/2000/svg">
  <path d="M 229 1016.5  C 232.36 1016.5  235 1019.14  235 1022.5  C 235 1025.86  232.36 1028.5  229 1028.5  C 225.64 1028.5  223 1025.86  223 1022.5  C 223 1019.14  225.64 1016.5  229 1016.5  Z " fill-rule="nonzero" fill="#ffffff" stroke="none" />
  <path d="M 229 1017  C 232.08 1017  234.5 1019.42  234.5 1022.5  C 234.5 1025.58  232.08 1028  229 1028  C 225.92 1028  223.5 1025.58  223.5 1022.5  C 223.5 1019.42  225.92 1017  229 1017  Z " stroke-width="1" stroke="#797979" fill="none" />
  <path d="M 229 1025.5  C 227.32 1025.5  226 1024.18  226 1022.5  C 226 1020.82  227.32 1019.5  229 1019.5  C 230.68 1019.5  232 1020.82  232 1022.5  C 232 1024.18  230.68 1025.5  229 1025.5  " fill-rule="nonzero" fill="#797979" stroke="none" />
</svg>