<?xml version="1.0" encoding="utf-8"?>
<svg version="1.1" xmlns:xlink="http://www.w3.org/1999/xlink" width="12px" height="12px" viewBox="328 618.5  12 12" xmlns="http://www.w3.org/2000/svg">
  <path d="M 334 618.5  C 337.36 618.5  340 621.14  340 624.5  C 340 627.86  337.36 630.5  334 630.5  C 330.64 630.5  328 627.86  328 624.5  C 328 621.14  330.64 618.5  334 618.5  Z " fill-rule="nonzero" fill="#f0f0f0" stroke="none" />
  <path d="M 334 619  C 337.08 619  339.5 621.42  339.5 624.5  C 339.5 627.58  337.08 630  334 630  C 330.92 630  328.5 627.58  328.5 624.5  C 328.5 621.42  330.92 619  334 619  Z " stroke-width="1" stroke="#797979" fill="none" />
  <path d="M 334 627.5  C 332.32 627.5  331 626.18  331 624.5  C 331 622.82  332.32 621.5  334 621.5  C 335.68 621.5  337 622.82  337 624.5  C 337 626.18  335.68 627.5  334 627.5  " fill-rule="nonzero" fill="#797979" stroke="none" />
</svg>