<?xml version="1.0" encoding="utf-8"?>
<svg version="1.1" xmlns:xlink="http://www.w3.org/1999/xlink" width="12px" height="12px" viewBox="260 618.5  12 12" xmlns="http://www.w3.org/2000/svg">
  <path d="M 266 618.5  C 269.36 618.5  272 621.14  272 624.5  C 272 627.86  269.36 630.5  266 630.5  C 262.64 630.5  260 627.86  260 624.5  C 260 621.14  262.64 618.5  266 618.5  Z " fill-rule="nonzero" fill="#f0f0f0" stroke="none" />
  <path d="M 266 619  C 269.08 619  271.5 621.42  271.5 624.5  C 271.5 627.58  269.08 630  266 630  C 262.92 630  260.5 627.58  260.5 624.5  C 260.5 621.42  262.92 619  266 619  Z " stroke-width="1" stroke="#333333" fill="none" />
  <path d="M 266 627.5  C 264.32 627.5  263 626.18  263 624.5  C 263 622.82  264.32 621.5  266 621.5  C 267.68 621.5  269 622.82  269 624.5  C 269 626.18  267.68 627.5  266 627.5  " fill-rule="nonzero" fill="#333333" stroke="none" />
</svg>