<?xml version="1.0" encoding="utf-8"?>
<svg version="1.1" xmlns:xlink="http://www.w3.org/1999/xlink" width="12px" height="12px" viewBox="226 815.5  12 12" xmlns="http://www.w3.org/2000/svg">
  <path d="M 232 815.5  C 235.36 815.5  238 818.14  238 821.5  C 238 824.86  235.36 827.5  232 827.5  C 228.64 827.5  226 824.86  226 821.5  C 226 818.14  228.64 815.5  232 815.5  Z " fill-rule="nonzero" fill="#ffffff" stroke="none" />
  <path d="M 232 816  C 235.08 816  237.5 818.42  237.5 821.5  C 237.5 824.58  235.08 827  232 827  C 228.92 827  226.5 824.58  226.5 821.5  C 226.5 818.42  228.92 816  232 816  Z " stroke-width="1" stroke="#8080ff" fill="none" />
  <path d="M 232 824.5  C 230.32 824.5  229 823.18  229 821.5  C 229 819.82  230.32 818.5  232 818.5  C 233.68 818.5  235 819.82  235 821.5  C 235 823.18  233.68 824.5  232 824.5  " fill-rule="nonzero" fill="#8080ff" stroke="none" />
</svg>