<?xml version="1.0" encoding="utf-8"?>
<svg version="1.1" xmlns:xlink="http://www.w3.org/1999/xlink" width="12px" height="12px" viewBox="302 440.5  12 12" xmlns="http://www.w3.org/2000/svg">
  <path d="M 308 440.5  C 311.36 440.5  314 443.14  314 446.5  C 314 449.86  311.36 452.5  308 452.5  C 304.64 452.5  302 449.86  302 446.5  C 302 443.14  304.64 440.5  308 440.5  Z " fill-rule="nonzero" fill="#f0f0f0" stroke="none" />
  <path d="M 308 441  C 311.08 441  313.5 443.42  313.5 446.5  C 313.5 449.58  311.08 452  308 452  C 304.92 452  302.5 449.58  302.5 446.5  C 302.5 443.42  304.92 441  308 441  Z " stroke-width="1" stroke="#797979" fill="none" />
  <path d="M 308 449.5  C 306.32 449.5  305 448.18  305 446.5  C 305 444.82  306.32 443.5  308 443.5  C 309.68 443.5  311 444.82  311 446.5  C 311 448.18  309.68 449.5  308 449.5  " fill-rule="nonzero" fill="#797979" stroke="none" />
</svg>