<?xml version="1.0" encoding="utf-8"?>
<svg version="1.1" xmlns:xlink="http://www.w3.org/1999/xlink" width="12px" height="12px" viewBox="424 466.5  12 12" xmlns="http://www.w3.org/2000/svg">
  <path d="M 430 466.5  C 433.36 466.5  436 469.14  436 472.5  C 436 475.86  433.36 478.5  430 478.5  C 426.64 478.5  424 475.86  424 472.5  C 424 469.14  426.64 466.5  430 466.5  Z " fill-rule="nonzero" fill="#f0f0f0" stroke="none" />
  <path d="M 430 467  C 433.08 467  435.5 469.42  435.5 472.5  C 435.5 475.58  433.08 478  430 478  C 426.92 478  424.5 475.58  424.5 472.5  C 424.5 469.42  426.92 467  430 467  Z " stroke-width="1" stroke="#797979" fill="none" />
  <path d="M 430 475.5  C 428.32 475.5  427 474.18  427 472.5  C 427 470.82  428.32 469.5  430 469.5  C 431.68 469.5  433 470.82  433 472.5  C 433 474.18  431.68 475.5  430 475.5  " fill-rule="nonzero" fill="#797979" stroke="none" />
</svg>