<?xml version="1.0" encoding="utf-8"?>
<svg version="1.1" xmlns:xlink="http://www.w3.org/1999/xlink" width="12px" height="12px" viewBox="260 668.5  12 12" xmlns="http://www.w3.org/2000/svg">
  <path d="M 266 668.5  C 269.36 668.5  272 671.14  272 674.5  C 272 677.86  269.36 680.5  266 680.5  C 262.64 680.5  260 677.86  260 674.5  C 260 671.14  262.64 668.5  266 668.5  Z " fill-rule="nonzero" fill="#f0f0f0" stroke="none" />
  <path d="M 266 669  C 269.08 669  271.5 671.42  271.5 674.5  C 271.5 677.58  269.08 680  266 680  C 262.92 680  260.5 677.58  260.5 674.5  C 260.5 671.42  262.92 669  266 669  Z " stroke-width="1" stroke="#797979" fill="none" />
  <path d="M 266 677.5  C 264.32 677.5  263 676.18  263 674.5  C 263 672.82  264.32 671.5  266 671.5  C 267.68 671.5  269 672.82  269 674.5  C 269 676.18  267.68 677.5  266 677.5  " fill-rule="nonzero" fill="#797979" stroke="none" />
</svg>