<?xml version="1.0" encoding="utf-8"?>
<svg version="1.1" xmlns:xlink="http://www.w3.org/1999/xlink" width="12px" height="12px" viewBox="210 644.5  12 12" xmlns="http://www.w3.org/2000/svg">
  <path d="M 216 644.5  C 219.36 644.5  222 647.14  222 650.5  C 222 653.86  219.36 656.5  216 656.5  C 212.64 656.5  210 653.86  210 650.5  C 210 647.14  212.64 644.5  216 644.5  Z " fill-rule="nonzero" fill="#ffffff" stroke="none" />
  <path d="M 216 645  C 219.08 645  221.5 647.42  221.5 650.5  C 221.5 653.58  219.08 656  216 656  C 212.92 656  210.5 653.58  210.5 650.5  C 210.5 647.42  212.92 645  216 645  Z " stroke-width="1" stroke="#797979" fill="none" />
  <path d="M 216 653.5  C 214.32 653.5  213 652.18  213 650.5  C 213 648.82  214.32 647.5  216 647.5  C 217.68 647.5  219 648.82  219 650.5  C 219 652.18  217.68 653.5  216 653.5  " fill-rule="nonzero" fill="#797979" stroke="none" />
</svg>