<?xml version="1.0" encoding="utf-8"?>
<svg version="1.1" xmlns:xlink="http://www.w3.org/1999/xlink" width="12px" height="12px" viewBox="276 815.5  12 12" xmlns="http://www.w3.org/2000/svg">
  <path d="M 282 815.5  C 285.36 815.5  288 818.14  288 821.5  C 288 824.86  285.36 827.5  282 827.5  C 278.64 827.5  276 824.86  276 821.5  C 276 818.14  278.64 815.5  282 815.5  Z " fill-rule="nonzero" fill="#ffffff" stroke="none" />
  <path d="M 282 816  C 285.08 816  287.5 818.42  287.5 821.5  C 287.5 824.58  285.08 827  282 827  C 278.92 827  276.5 824.58  276.5 821.5  C 276.5 818.42  278.92 816  282 816  Z " stroke-width="1" stroke="#8080ff" fill="none" />
  <path d="M 282 824.5  C 280.32 824.5  279 823.18  279 821.5  C 279 819.82  280.32 818.5  282 818.5  C 283.68 818.5  285 819.82  285 821.5  C 285 823.18  283.68 824.5  282 824.5  " fill-rule="nonzero" fill="#8080ff" stroke="none" />
</svg>