<?xml version="1.0" encoding="utf-8"?>
<svg version="1.1" xmlns:xlink="http://www.w3.org/1999/xlink" width="12px" height="12px" viewBox="328 644.5  12 12" xmlns="http://www.w3.org/2000/svg">
  <path d="M 334 644.5  C 337.36 644.5  340 647.14  340 650.5  C 340 653.86  337.36 656.5  334 656.5  C 330.64 656.5  328 653.86  328 650.5  C 328 647.14  330.64 644.5  334 644.5  Z " fill-rule="nonzero" fill="#ffffff" stroke="none" />
  <path d="M 334 645  C 337.08 645  339.5 647.42  339.5 650.5  C 339.5 653.58  337.08 656  334 656  C 330.92 656  328.5 653.58  328.5 650.5  C 328.5 647.42  330.92 645  334 645  Z " stroke-width="1" stroke="#797979" fill="none" />
  <path d="M 334 653.5  C 332.32 653.5  331 652.18  331 650.5  C 331 648.82  332.32 647.5  334 647.5  C 335.68 647.5  337 648.82  337 650.5  C 337 652.18  335.68 653.5  334 653.5  " fill-rule="nonzero" fill="#797979" stroke="none" />
</svg>