<?xml version="1.0" encoding="utf-8"?>
<svg version="1.1" xmlns:xlink="http://www.w3.org/1999/xlink" width="12px" height="12px" viewBox="210 668.5  12 12" xmlns="http://www.w3.org/2000/svg">
  <path d="M 216 668.5  C 219.36 668.5  222 671.14  222 674.5  C 222 677.86  219.36 680.5  216 680.5  C 212.64 680.5  210 677.86  210 674.5  C 210 671.14  212.64 668.5  216 668.5  Z " fill-rule="nonzero" fill="#f0f0f0" stroke="none" />
  <path d="M 216 669  C 219.08 669  221.5 671.42  221.5 674.5  C 221.5 677.58  219.08 680  216 680  C 212.92 680  210.5 677.58  210.5 674.5  C 210.5 671.42  212.92 669  216 669  Z " stroke-width="1" stroke="#797979" fill="none" />
  <path d="M 216 677.5  C 214.32 677.5  213 676.18  213 674.5  C 213 672.82  214.32 671.5  216 671.5  C 217.68 671.5  219 672.82  219 674.5  C 219 676.18  217.68 677.5  216 677.5  " fill-rule="nonzero" fill="#797979" stroke="none" />
</svg>