<?xml version="1.0" encoding="utf-8"?>
<svg version="1.1" xmlns:xlink="http://www.w3.org/1999/xlink" width="12px" height="12px" viewBox="260 644.5  12 12" xmlns="http://www.w3.org/2000/svg">
  <path d="M 266 644.5  C 269.36 644.5  272 647.14  272 650.5  C 272 653.86  269.36 656.5  266 656.5  C 262.64 656.5  260 653.86  260 650.5  C 260 647.14  262.64 644.5  266 644.5  Z " fill-rule="nonzero" fill="#ffffff" stroke="none" />
  <path d="M 266 645  C 269.08 645  271.5 647.42  271.5 650.5  C 271.5 653.58  269.08 656  266 656  C 262.92 656  260.5 653.58  260.5 650.5  C 260.5 647.42  262.92 645  266 645  Z " stroke-width="1" stroke="#333333" fill="none" />
  <path d="M 266 653.5  C 264.32 653.5  263 652.18  263 650.5  C 263 648.82  264.32 647.5  266 647.5  C 267.68 647.5  269 648.82  269 650.5  C 269 652.18  267.68 653.5  266 653.5  " fill-rule="nonzero" fill="#333333" stroke="none" />
</svg>