<?xml version="1.0" encoding="utf-8"?>
<svg version="1.1" xmlns:xlink="http://www.w3.org/1999/xlink" width="12px" height="12px" viewBox="777 415.5  12 12" xmlns="http://www.w3.org/2000/svg">
  <path d="M 783 415.5  C 786.36 415.5  789 418.14  789 421.5  C 789 424.86  786.36 427.5  783 427.5  C 779.64 427.5  777 424.86  777 421.5  C 777 418.14  779.64 415.5  783 415.5  Z " fill-rule="nonzero" fill="#ffffff" stroke="none" />
  <path d="M 783 416  C 786.08 416  788.5 418.42  788.5 421.5  C 788.5 424.58  786.08 427  783 427  C 779.92 427  777.5 424.58  777.5 421.5  C 777.5 418.42  779.92 416  783 416  Z " stroke-width="1" stroke="#333333" fill="none" />
  <path d="M 783 424.5  C 781.32 424.5  780 423.18  780 421.5  C 780 419.82  781.32 418.5  783 418.5  C 784.68 418.5  786 419.82  786 421.5  C 786 423.18  784.68 424.5  783 424.5  " fill-rule="nonzero" fill="#333333" stroke="none" />
</svg>