<?xml version="1.0" encoding="utf-8"?>
<svg version="1.1" xmlns:xlink="http://www.w3.org/1999/xlink" width="12px" height="12px" viewBox="727 415.5  12 12" xmlns="http://www.w3.org/2000/svg">
  <path d="M 733 415.5  C 736.36 415.5  739 418.14  739 421.5  C 739 424.86  736.36 427.5  733 427.5  C 729.64 427.5  727 424.86  727 421.5  C 727 418.14  729.64 415.5  733 415.5  Z " fill-rule="nonzero" fill="#f0f0f0" stroke="none" />
  <path d="M 733 416  C 736.08 416  738.5 418.42  738.5 421.5  C 738.5 424.58  736.08 427  733 427  C 729.92 427  727.5 424.58  727.5 421.5  C 727.5 418.42  729.92 416  733 416  Z " stroke-width="1" stroke="#333333" fill="none" />
  <path d="M 733 424.5  C 731.32 424.5  730 423.18  730 421.5  C 730 419.82  731.32 418.5  733 418.5  C 734.68 418.5  736 419.82  736 421.5  C 736 423.18  734.68 424.5  733 424.5  " fill-rule="nonzero" fill="#333333" stroke="none" />
</svg>