<?xml version="1.0" encoding="utf-8"?>
<svg version="1.1" xmlns:xlink="http://www.w3.org/1999/xlink" width="12px" height="12px" viewBox="777 501.5  12 12" xmlns="http://www.w3.org/2000/svg">
  <path d="M 783 501.5  C 786.36 501.5  789 504.14  789 507.5  C 789 510.86  786.36 513.5  783 513.5  C 779.64 513.5  777 510.86  777 507.5  C 777 504.14  779.64 501.5  783 501.5  Z " fill-rule="nonzero" fill="#f0f0f0" stroke="none" />
  <path d="M 783 502  C 786.08 502  788.5 504.42  788.5 507.5  C 788.5 510.58  786.08 513  783 513  C 779.92 513  777.5 510.58  777.5 507.5  C 777.5 504.42  779.92 502  783 502  Z " stroke-width="1" stroke="#333333" fill="none" />
  <path d="M 783 510.5  C 781.32 510.5  780 509.18  780 507.5  C 780 505.82  781.32 504.5  783 504.5  C 784.68 504.5  786 505.82  786 507.5  C 786 509.18  784.68 510.5  783 510.5  " fill-rule="nonzero" fill="#333333" stroke="none" />
</svg>