<?xml version="1.0" encoding="utf-8"?>
<svg version="1.1" xmlns:xlink="http://www.w3.org/1999/xlink" width="12px" height="12px" viewBox="677 501.5  12 12" xmlns="http://www.w3.org/2000/svg">
  <path d="M 683 501.5  C 686.36 501.5  689 504.14  689 507.5  C 689 510.86  686.36 513.5  683 513.5  C 679.64 513.5  677 510.86  677 507.5  C 677 504.14  679.64 501.5  683 501.5  Z " fill-rule="nonzero" fill="#ffffff" stroke="none" />
  <path d="M 683 502  C 686.08 502  688.5 504.42  688.5 507.5  C 688.5 510.58  686.08 513  683 513  C 679.92 513  677.5 510.58  677.5 507.5  C 677.5 504.42  679.92 502  683 502  Z " stroke-width="1" stroke="#797979" fill="none" />
  <path d="M 683 510.5  C 681.32 510.5  680 509.18  680 507.5  C 680 505.82  681.32 504.5  683 504.5  C 684.68 504.5  686 505.82  686 507.5  C 686 509.18  684.68 510.5  683 510.5  " fill-rule="nonzero" fill="#797979" stroke="none" />
</svg>