<?xml version="1.0" encoding="utf-8"?>
<svg version="1.1" xmlns:xlink="http://www.w3.org/1999/xlink" width="12px" height="12px" viewBox="746 528.5  12 12" xmlns="http://www.w3.org/2000/svg">
  <path d="M 752 528.5  C 755.36 528.5  758 531.14  758 534.5  C 758 537.86  755.36 540.5  752 540.5  C 748.64 540.5  746 537.86  746 534.5  C 746 531.14  748.64 528.5  752 528.5  Z " fill-rule="nonzero" fill="#f0f0f0" stroke="none" />
  <path d="M 752 529  C 755.08 529  757.5 531.42  757.5 534.5  C 757.5 537.58  755.08 540  752 540  C 748.92 540  746.5 537.58  746.5 534.5  C 746.5 531.42  748.92 529  752 529  Z " stroke-width="1" stroke="#797979" fill="none" />
  <path d="M 752 537.5  C 750.32 537.5  749 536.18  749 534.5  C 749 532.82  750.32 531.5  752 531.5  C 753.68 531.5  755 532.82  755 534.5  C 755 536.18  753.68 537.5  752 537.5  " fill-rule="nonzero" fill="#797979" stroke="none" />
</svg>