<?xml version="1.0" encoding="utf-8"?>
<svg version="1.1" xmlns:xlink="http://www.w3.org/1999/xlink" width="12px" height="12px" viewBox="796 528.5  12 12" xmlns="http://www.w3.org/2000/svg">
  <path d="M 802 528.5  C 805.36 528.5  808 531.14  808 534.5  C 808 537.86  805.36 540.5  802 540.5  C 798.64 540.5  796 537.86  796 534.5  C 796 531.14  798.64 528.5  802 528.5  Z " fill-rule="nonzero" fill="#ffffff" stroke="none" />
  <path d="M 802 529  C 805.08 529  807.5 531.42  807.5 534.5  C 807.5 537.58  805.08 540  802 540  C 798.92 540  796.5 537.58  796.5 534.5  C 796.5 531.42  798.92 529  802 529  Z " stroke-width="1" stroke="#333333" fill="none" />
  <path d="M 802 537.5  C 800.32 537.5  799 536.18  799 534.5  C 799 532.82  800.32 531.5  802 531.5  C 803.68 531.5  805 532.82  805 534.5  C 805 536.18  803.68 537.5  802 537.5  " fill-rule="nonzero" fill="#333333" stroke="none" />
</svg>