<?xml version="1.0" encoding="utf-8"?>
<svg version="1.1" xmlns:xlink="http://www.w3.org/1999/xlink" width="12px" height="12px" viewBox="847 946.5  12 12" xmlns="http://www.w3.org/2000/svg">
  <path d="M 853 946.5  C 856.36 946.5  859 949.14  859 952.5  C 859 955.86  856.36 958.5  853 958.5  C 849.64 958.5  847 955.86  847 952.5  C 847 949.14  849.64 946.5  853 946.5  Z " fill-rule="nonzero" fill="#ffffff" stroke="none" />
  <path d="M 853 947  C 856.08 947  858.5 949.42  858.5 952.5  C 858.5 955.58  856.08 958  853 958  C 849.92 958  847.5 955.58  847.5 952.5  C 847.5 949.42  849.92 947  853 947  Z " stroke-width="1" stroke="#797979" fill="none" />
  <path d="M 853 955.5  C 851.32 955.5  850 954.18  850 952.5  C 850 950.82  851.32 949.5  853 949.5  C 854.68 949.5  856 950.82  856 952.5  C 856 954.18  854.68 955.5  853 955.5  " fill-rule="nonzero" fill="#797979" stroke="none" />
</svg>