<?xml version="1.0" encoding="utf-8"?>
<svg version="1.1" xmlns:xlink="http://www.w3.org/1999/xlink" width="12px" height="12px" viewBox="91 631  12 12" xmlns="http://www.w3.org/2000/svg">
  <path d="M 97 631  C 100.36 631  103 633.64  103 637  C 103 640.36  100.36 643  97 643  C 93.64 643  91 640.36  91 637  C 91 633.64  93.64 631  97 631  Z " fill-rule="nonzero" fill="#ffffff" stroke="none" />
  <path d="M 97 631.5  C 100.08 631.5  102.5 633.92  102.5 637  C 102.5 640.08  100.08 642.5  97 642.5  C 93.92 642.5  91.5 640.08  91.5 637  C 91.5 633.92  93.92 631.5  97 631.5  Z " stroke-width="1" stroke="#797979" fill="none" />
  <path d="M 97 640  C 95.32 640  94 638.68  94 637  C 94 635.32  95.32 634  97 634  C 98.68 634  100 635.32  100 637  C 100 638.68  98.68 640  97 640  " fill-rule="nonzero" fill="#797979" stroke="none" />
</svg>