<?xml version="1.0" encoding="utf-8"?>
<svg version="1.1" xmlns:xlink="http://www.w3.org/1999/xlink" width="12px" height="12px" viewBox="91 671  12 12" xmlns="http://www.w3.org/2000/svg">
  <path d="M 97 671  C 100.36 671  103 673.64  103 677  C 103 680.36  100.36 683  97 683  C 93.64 683  91 680.36  91 677  C 91 673.64  93.64 671  97 671  Z " fill-rule="nonzero" fill="#f0f0f0" stroke="none" />
  <path d="M 97 671.5  C 100.08 671.5  102.5 673.92  102.5 677  C 102.5 680.08  100.08 682.5  97 682.5  C 93.92 682.5  91.5 680.08  91.5 677  C 91.5 673.92  93.92 671.5  97 671.5  Z " stroke-width="1" stroke="#797979" fill="none" />
  <path d="M 97 680  C 95.32 680  94 678.68  94 677  C 94 675.32  95.32 674  97 674  C 98.68 674  100 675.32  100 677  C 100 678.68  98.68 680  97 680  " fill-rule="nonzero" fill="#797979" stroke="none" />
</svg>