<?xml version="1.0" encoding="utf-8"?>
<svg version="1.1" xmlns:xlink="http://www.w3.org/1999/xlink" width="12px" height="12px" viewBox="91 470  12 12" xmlns="http://www.w3.org/2000/svg">
  <path d="M 97 470  C 100.36 470  103 472.64  103 476  C 103 479.36  100.36 482  97 482  C 93.64 482  91 479.36  91 476  C 91 472.64  93.64 470  97 470  Z " fill-rule="nonzero" fill="#f0f0f0" stroke="none" />
  <path d="M 97 470.5  C 100.08 470.5  102.5 472.92  102.5 476  C 102.5 479.08  100.08 481.5  97 481.5  C 93.92 481.5  91.5 479.08  91.5 476  C 91.5 472.92  93.92 470.5  97 470.5  Z " stroke-width="1" stroke="#797979" fill="none" />
  <path d="M 97 479  C 95.32 479  94 477.68  94 476  C 94 474.32  95.32 473  97 473  C 98.68 473  100 474.32  100 476  C 100 477.68  98.68 479  97 479  " fill-rule="nonzero" fill="#797979" stroke="none" />
</svg>