<?xml version="1.0" encoding="utf-8"?>
<svg version="1.1" xmlns:xlink="http://www.w3.org/1999/xlink" width="12px" height="12px" viewBox="91 430  12 12" xmlns="http://www.w3.org/2000/svg">
  <path d="M 97 430  C 100.36 430  103 432.64  103 436  C 103 439.36  100.36 442  97 442  C 93.64 442  91 439.36  91 436  C 91 432.64  93.64 430  97 430  Z " fill-rule="nonzero" fill="#f0f0f0" stroke="none" />
  <path d="M 97 430.5  C 100.08 430.5  102.5 432.92  102.5 436  C 102.5 439.08  100.08 441.5  97 441.5  C 93.92 441.5  91.5 439.08  91.5 436  C 91.5 432.92  93.92 430.5  97 430.5  Z " stroke-width="1" stroke="#797979" fill="none" />
  <path d="M 97 439  C 95.32 439  94 437.68  94 436  C 94 434.32  95.32 433  97 433  C 98.68 433  100 434.32  100 436  C 100 437.68  98.68 439  97 439  " fill-rule="nonzero" fill="#797979" stroke="none" />
</svg>