<?xml version="1.0" encoding="utf-8"?>
<svg version="1.1" xmlns:xlink="http://www.w3.org/1999/xlink" width="12px" height="12px" viewBox="91 392  12 12" xmlns="http://www.w3.org/2000/svg">
  <path d="M 97 392  C 100.36 392  103 394.64  103 398  C 103 401.36  100.36 404  97 404  C 93.64 404  91 401.36  91 398  C 91 394.64  93.64 392  97 392  Z " fill-rule="nonzero" fill="#ffffff" stroke="none" />
  <path d="M 97 392.5  C 100.08 392.5  102.5 394.92  102.5 398  C 102.5 401.08  100.08 403.5  97 403.5  C 93.92 403.5  91.5 401.08  91.5 398  C 91.5 394.92  93.92 392.5  97 392.5  Z " stroke-width="1" stroke="#797979" fill="none" />
  <path d="M 97 401  C 95.32 401  94 399.68  94 398  C 94 396.32  95.32 395  97 395  C 98.68 395  100 396.32  100 398  C 100 399.68  98.68 401  97 401  " fill-rule="nonzero" fill="#797979" stroke="none" />
</svg>