<?xml version="1.0" encoding="utf-8"?>
<svg version="1.1" xmlns:xlink="http://www.w3.org/1999/xlink" width="12px" height="12px" viewBox="91 712  12 12" xmlns="http://www.w3.org/2000/svg">
  <path d="M 97 712  C 100.36 712  103 714.64  103 718  C 103 721.36  100.36 724  97 724  C 93.64 724  91 721.36  91 718  C 91 714.64  93.64 712  97 712  Z " fill-rule="nonzero" fill="#f0f0f0" stroke="none" />
  <path d="M 97 712.5  C 100.08 712.5  102.5 714.92  102.5 718  C 102.5 721.08  100.08 723.5  97 723.5  C 93.92 723.5  91.5 721.08  91.5 718  C 91.5 714.92  93.92 712.5  97 712.5  Z " stroke-width="1" stroke="#797979" fill="none" />
  <path d="M 97 721  C 95.32 721  94 719.68  94 718  C 94 716.32  95.32 715  97 715  C 98.68 715  100 716.32  100 718  C 100 719.68  98.68 721  97 721  " fill-rule="nonzero" fill="#797979" stroke="none" />
</svg>