<?xml version="1.0" encoding="utf-8"?>
<svg version="1.1" xmlns:xlink="http://www.w3.org/1999/xlink" width="12px" height="12px" viewBox="91 831  12 12" xmlns="http://www.w3.org/2000/svg">
  <path d="M 97 831  C 100.36 831  103 833.64  103 837  C 103 840.36  100.36 843  97 843  C 93.64 843  91 840.36  91 837  C 91 833.64  93.64 831  97 831  Z " fill-rule="nonzero" fill="#ffffff" stroke="none" />
  <path d="M 97 831.5  C 100.08 831.5  102.5 833.92  102.5 837  C 102.5 840.08  100.08 842.5  97 842.5  C 93.92 842.5  91.5 840.08  91.5 837  C 91.5 833.92  93.92 831.5  97 831.5  Z " stroke-width="1" stroke="#797979" fill="none" />
  <path d="M 97 840  C 95.32 840  94 838.68  94 837  C 94 835.32  95.32 834  97 834  C 98.68 834  100 835.32  100 837  C 100 838.68  98.68 840  97 840  " fill-rule="nonzero" fill="#797979" stroke="none" />
</svg>