<?xml version="1.0" encoding="utf-8"?>
<svg version="1.1" xmlns:xlink="http://www.w3.org/1999/xlink" width="12px" height="12px" viewBox="91 871  12 12" xmlns="http://www.w3.org/2000/svg">
  <path d="M 97 871  C 100.36 871  103 873.64  103 877  C 103 880.36  100.36 883  97 883  C 93.64 883  91 880.36  91 877  C 91 873.64  93.64 871  97 871  Z " fill-rule="nonzero" fill="#ffffff" stroke="none" />
  <path d="M 97 871.5  C 100.08 871.5  102.5 873.92  102.5 877  C 102.5 880.08  100.08 882.5  97 882.5  C 93.92 882.5  91.5 880.08  91.5 877  C 91.5 873.92  93.92 871.5  97 871.5  Z " stroke-width="1" stroke="#797979" fill="none" />
  <path d="M 97 880  C 95.32 880  94 878.68  94 877  C 94 875.32  95.32 874  97 874  C 98.68 874  100 875.32  100 877  C 100 878.68  98.68 880  97 880  " fill-rule="nonzero" fill="#797979" stroke="none" />
</svg>