<?xml version="1.0" encoding="utf-8"?>
<svg version="1.1" xmlns:xlink="http://www.w3.org/1999/xlink" width="12px" height="12px" viewBox="91 793  12 12" xmlns="http://www.w3.org/2000/svg">
  <path d="M 97 793  C 100.36 793  103 795.64  103 799  C 103 802.36  100.36 805  97 805  C 93.64 805  91 802.36  91 799  C 91 795.64  93.64 793  97 793  Z " fill-rule="nonzero" fill="#ffffff" stroke="none" />
  <path d="M 97 793.5  C 100.08 793.5  102.5 795.92  102.5 799  C 102.5 802.08  100.08 804.5  97 804.5  C 93.92 804.5  91.5 802.08  91.5 799  C 91.5 795.92  93.92 793.5  97 793.5  Z " stroke-width="1" stroke="#797979" fill="none" />
  <path d="M 97 802  C 95.32 802  94 800.68  94 799  C 94 797.32  95.32 796  97 796  C 98.68 796  100 797.32  100 799  C 100 800.68  98.68 802  97 802  " fill-rule="nonzero" fill="#797979" stroke="none" />
</svg>