<?xml version="1.0" encoding="utf-8"?>
<svg version="1.1" xmlns:xlink="http://www.w3.org/1999/xlink" width="12px" height="12px" viewBox="91 912  12 12" xmlns="http://www.w3.org/2000/svg">
  <path d="M 97 912  C 100.36 912  103 914.64  103 918  C 103 921.36  100.36 924  97 924  C 93.64 924  91 921.36  91 918  C 91 914.64  93.64 912  97 912  Z " fill-rule="nonzero" fill="#ffffff" stroke="none" />
  <path d="M 97 912.5  C 100.08 912.5  102.5 914.92  102.5 918  C 102.5 921.08  100.08 923.5  97 923.5  C 93.92 923.5  91.5 921.08  91.5 918  C 91.5 914.92  93.92 912.5  97 912.5  Z " stroke-width="1" stroke="#797979" fill="none" />
  <path d="M 97 921  C 95.32 921  94 919.68  94 918  C 94 916.32  95.32 915  97 915  C 98.68 915  100 916.32  100 918  C 100 919.68  98.68 921  97 921  " fill-rule="nonzero" fill="#797979" stroke="none" />
</svg>