<?xml version="1.0" encoding="utf-8"?>
<svg version="1.1" xmlns:xlink="http://www.w3.org/1999/xlink" width="12px" height="12px" viewBox="91 1112  12 12" xmlns="http://www.w3.org/2000/svg">
  <path d="M 97 1112  C 100.36 1112  103 1114.64  103 1118  C 103 1121.36  100.36 1124  97 1124  C 93.64 1124  91 1121.36  91 1118  C 91 1114.64  93.64 1112  97 1112  Z " fill-rule="nonzero" fill="#f0f0f0" stroke="none" />
  <path d="M 97 1112.5  C 100.08 1112.5  102.5 1114.92  102.5 1118  C 102.5 1121.08  100.08 1123.5  97 1123.5  C 93.92 1123.5  91.5 1121.08  91.5 1118  C 91.5 1114.92  93.92 1112.5  97 1112.5  Z " stroke-width="1" stroke="#797979" fill="none" />
  <path d="M 97 1121  C 95.32 1121  94 1119.68  94 1118  C 94 1116.32  95.32 1115  97 1115  C 98.68 1115  100 1116.32  100 1118  C 100 1119.68  98.68 1121  97 1121  " fill-rule="nonzero" fill="#797979" stroke="none" />
</svg>