<?xml version="1.0" encoding="utf-8"?>
<svg version="1.1" xmlns:xlink="http://www.w3.org/1999/xlink" width="12px" height="12px" viewBox="91 1194  12 12" xmlns="http://www.w3.org/2000/svg">
  <path d="M 97 1194  C 100.36 1194  103 1196.64  103 1200  C 103 1203.36  100.36 1206  97 1206  C 93.64 1206  91 1203.36  91 1200  C 91 1196.64  93.64 1194  97 1194  Z " fill-rule="nonzero" fill="#f0f0f0" stroke="none" />
  <path d="M 97 1194.5  C 100.08 1194.5  102.5 1196.92  102.5 1200  C 102.5 1203.08  100.08 1205.5  97 1205.5  C 93.92 1205.5  91.5 1203.08  91.5 1200  C 91.5 1196.92  93.92 1194.5  97 1194.5  Z " stroke-width="1" stroke="#797979" fill="none" />
  <path d="M 97 1203  C 95.32 1203  94 1201.68  94 1200  C 94 1198.32  95.32 1197  97 1197  C 98.68 1197  100 1198.32  100 1200  C 100 1201.68  98.68 1203  97 1203  " fill-rule="nonzero" fill="#797979" stroke="none" />
</svg>