<?xml version="1.0" encoding="utf-8"?>
<svg version="1.1" xmlns:xlink="http://www.w3.org/1999/xlink" width="12px" height="12px" viewBox="91 1272  12 12" xmlns="http://www.w3.org/2000/svg">
  <path d="M 97 1272  C 100.36 1272  103 1274.64  103 1278  C 103 1281.36  100.36 1284  97 1284  C 93.64 1284  91 1281.36  91 1278  C 91 1274.64  93.64 1272  97 1272  Z " fill-rule="nonzero" fill="#f0f0f0" stroke="none" />
  <path d="M 97 1272.5  C 100.08 1272.5  102.5 1274.92  102.5 1278  C 102.5 1281.08  100.08 1283.5  97 1283.5  C 93.92 1283.5  91.5 1281.08  91.5 1278  C 91.5 1274.92  93.92 1272.5  97 1272.5  Z " stroke-width="1" stroke="#797979" fill="none" />
  <path d="M 97 1281  C 95.32 1281  94 1279.68  94 1278  C 94 1276.32  95.32 1275  97 1275  C 98.68 1275  100 1276.32  100 1278  C 100 1279.68  98.68 1281  97 1281  " fill-rule="nonzero" fill="#797979" stroke="none" />
</svg>