<?xml version="1.0" encoding="utf-8"?>
<svg version="1.1" xmlns:xlink="http://www.w3.org/1999/xlink" width="12px" height="12px" viewBox="91 1313  12 12" xmlns="http://www.w3.org/2000/svg">
  <path d="M 97 1313  C 100.36 1313  103 1315.64  103 1319  C 103 1322.36  100.36 1325  97 1325  C 93.64 1325  91 1322.36  91 1319  C 91 1315.64  93.64 1313  97 1313  Z " fill-rule="nonzero" fill="#f0f0f0" stroke="none" />
  <path d="M 97 1313.5  C 100.08 1313.5  102.5 1315.92  102.5 1319  C 102.5 1322.08  100.08 1324.5  97 1324.5  C 93.92 1324.5  91.5 1322.08  91.5 1319  C 91.5 1315.92  93.92 1313.5  97 1313.5  Z " stroke-width="1" stroke="#797979" fill="none" />
  <path d="M 97 1322  C 95.32 1322  94 1320.68  94 1319  C 94 1317.32  95.32 1316  97 1316  C 98.68 1316  100 1317.32  100 1319  C 100 1320.68  98.68 1322  97 1322  " fill-rule="nonzero" fill="#797979" stroke="none" />
</svg>