<?xml version="1.0" encoding="utf-8"?>
<svg version="1.1" xmlns:xlink="http://www.w3.org/1999/xlink" width="12px" height="12px" viewBox="91 1435  12 12" xmlns="http://www.w3.org/2000/svg">
  <path d="M 97 1435  C 100.36 1435  103 1437.64  103 1441  C 103 1444.36  100.36 1447  97 1447  C 93.64 1447  91 1444.36  91 1441  C 91 1437.64  93.64 1435  97 1435  Z " fill-rule="nonzero" fill="#f0f0f0" stroke="none" />
  <path d="M 97 1435.5  C 100.08 1435.5  102.5 1437.92  102.5 1441  C 102.5 1444.08  100.08 1446.5  97 1446.5  C 93.92 1446.5  91.5 1444.08  91.5 1441  C 91.5 1437.92  93.92 1435.5  97 1435.5  Z " stroke-width="1" stroke="#797979" fill="none" />
  <path d="M 97 1444  C 95.32 1444  94 1442.68  94 1441  C 94 1439.32  95.32 1438  97 1438  C 98.68 1438  100 1439.32  100 1441  C 100 1442.68  98.68 1444  97 1444  " fill-rule="nonzero" fill="#797979" stroke="none" />
</svg>