<?xml version="1.0" encoding="utf-8"?>
<svg version="1.1" xmlns:xlink="http://www.w3.org/1999/xlink" width="12px" height="12px" viewBox="91 1397  12 12" xmlns="http://www.w3.org/2000/svg">
  <path d="M 97 1397  C 100.36 1397  103 1399.64  103 1403  C 103 1406.36  100.36 1409  97 1409  C 93.64 1409  91 1406.36  91 1403  C 91 1399.64  93.64 1397  97 1397  Z " fill-rule="nonzero" fill="#ffffff" stroke="none" />
  <path d="M 97 1397.5  C 100.08 1397.5  102.5 1399.92  102.5 1403  C 102.5 1406.08  100.08 1408.5  97 1408.5  C 93.92 1408.5  91.5 1406.08  91.5 1403  C 91.5 1399.92  93.92 1397.5  97 1397.5  Z " stroke-width="1" stroke="#797979" fill="none" />
  <path d="M 97 1406  C 95.32 1406  94 1404.68  94 1403  C 94 1401.32  95.32 1400  97 1400  C 98.68 1400  100 1401.32  100 1403  C 100 1404.68  98.68 1406  97 1406  " fill-rule="nonzero" fill="#797979" stroke="none" />
</svg>