<?xml version="1.0" encoding="utf-8"?>
<svg version="1.1" xmlns:xlink="http://www.w3.org/1999/xlink" width="12px" height="12px" viewBox="448 211.5  12 12" xmlns="http://www.w3.org/2000/svg">
  <path d="M 454 211.5  C 457.36 211.5  460 214.14  460 217.5  C 460 220.86  457.36 223.5  454 223.5  C 450.64 223.5  448 220.86  448 217.5  C 448 214.14  450.64 211.5  454 211.5  Z " fill-rule="nonzero" fill="#ffffff" stroke="none" />
  <path d="M 454 212  C 457.08 212  459.5 214.42  459.5 217.5  C 459.5 220.58  457.08 223  454 223  C 450.92 223  448.5 220.58  448.5 217.5  C 448.5 214.42  450.92 212  454 212  Z " stroke-width="1" stroke="#797979" fill="none" />
  <path d="M 454 220.5  C 452.32 220.5  451 219.18  451 217.5  C 451 215.82  452.32 214.5  454 214.5  C 455.68 214.5  457 215.82  457 217.5  C 457 219.18  455.68 220.5  454 220.5  " fill-rule="nonzero" fill="#797979" stroke="none" />
</svg>