<?xml version="1.0" encoding="utf-8"?>
<svg version="1.1" xmlns:xlink="http://www.w3.org/1999/xlink" width="12px" height="12px" viewBox="488 211.5  12 12" xmlns="http://www.w3.org/2000/svg">
  <path d="M 494 211.5  C 497.36 211.5  500 214.14  500 217.5  C 500 220.86  497.36 223.5  494 223.5  C 490.64 223.5  488 220.86  488 217.5  C 488 214.14  490.64 211.5  494 211.5  Z " fill-rule="nonzero" fill="#f0f0f0" stroke="none" />
  <path d="M 494 212  C 497.08 212  499.5 214.42  499.5 217.5  C 499.5 220.58  497.08 223  494 223  C 490.92 223  488.5 220.58  488.5 217.5  C 488.5 214.42  490.92 212  494 212  Z " stroke-width="1" stroke="#797979" fill="none" />
  <path d="M 494 220.5  C 492.32 220.5  491 219.18  491 217.5  C 491 215.82  492.32 214.5  494 214.5  C 495.68 214.5  497 215.82  497 217.5  C 497 219.18  495.68 220.5  494 220.5  " fill-rule="nonzero" fill="#797979" stroke="none" />
</svg>