<?xml version="1.0" encoding="utf-8"?>
<svg version="1.1" xmlns:xlink="http://www.w3.org/1999/xlink" width="12px" height="12px" viewBox="342 712.5  12 12" xmlns="http://www.w3.org/2000/svg">
  <path d="M 348 712.5  C 351.36 712.5  354 715.14  354 718.5  C 354 721.86  351.36 724.5  348 724.5  C 344.64 724.5  342 721.86  342 718.5  C 342 715.14  344.64 712.5  348 712.5  Z " fill-rule="nonzero" fill="#f0f0f0" stroke="none" />
  <path d="M 348 713  C 351.08 713  353.5 715.42  353.5 718.5  C 353.5 721.58  351.08 724  348 724  C 344.92 724  342.5 721.58  342.5 718.5  C 342.5 715.42  344.92 713  348 713  Z " stroke-width="1" stroke="#797979" fill="none" />
  <path d="M 348 721.5  C 346.32 721.5  345 720.18  345 718.5  C 345 716.82  346.32 715.5  348 715.5  C 349.68 715.5  351 716.82  351 718.5  C 351 720.18  349.68 721.5  348 721.5  " fill-rule="nonzero" fill="#797979" stroke="none" />
</svg>