<?xml version="1.0" encoding="utf-8"?>
<svg version="1.1" xmlns:xlink="http://www.w3.org/1999/xlink" width="12px" height="12px" viewBox="347 771.5  12 12" xmlns="http://www.w3.org/2000/svg">
  <path d="M 353 771.5  C 356.36 771.5  359 774.14  359 777.5  C 359 780.86  356.36 783.5  353 783.5  C 349.64 783.5  347 780.86  347 777.5  C 347 774.14  349.64 771.5  353 771.5  Z " fill-rule="nonzero" fill="#ffffff" stroke="none" />
  <path d="M 353 772  C 356.08 772  358.5 774.42  358.5 777.5  C 358.5 780.58  356.08 783  353 783  C 349.92 783  347.5 780.58  347.5 777.5  C 347.5 774.42  349.92 772  353 772  Z " stroke-width="1" stroke="#797979" fill="none" />
  <path d="M 353 780.5  C 351.32 780.5  350 779.18  350 777.5  C 350 775.82  351.32 774.5  353 774.5  C 354.68 774.5  356 775.82  356 777.5  C 356 779.18  354.68 780.5  353 780.5  " fill-rule="nonzero" fill="#797979" stroke="none" />
</svg>