<?xml version="1.0" encoding="utf-8"?>
<svg version="1.1" xmlns:xlink="http://www.w3.org/1999/xlink" width="12px" height="12px" viewBox="300 712.5  12 12" xmlns="http://www.w3.org/2000/svg">
  <path d="M 306 712.5  C 309.36 712.5  312 715.14  312 718.5  C 312 721.86  309.36 724.5  306 724.5  C 302.64 724.5  300 721.86  300 718.5  C 300 715.14  302.64 712.5  306 712.5  Z " fill-rule="nonzero" fill="#ffffff" stroke="none" />
  <path d="M 306 713  C 309.08 713  311.5 715.42  311.5 718.5  C 311.5 721.58  309.08 724  306 724  C 302.92 724  300.5 721.58  300.5 718.5  C 300.5 715.42  302.92 713  306 713  Z " stroke-width="1" stroke="#797979" fill="none" />
  <path d="M 306 721.5  C 304.32 721.5  303 720.18  303 718.5  C 303 716.82  304.32 715.5  306 715.5  C 307.68 715.5  309 716.82  309 718.5  C 309 720.18  307.68 721.5  306 721.5  " fill-rule="nonzero" fill="#797979" stroke="none" />
</svg>