<?xml version="1.0" encoding="utf-8"?>
<svg version="1.1" xmlns:xlink="http://www.w3.org/1999/xlink" width="12px" height="12px" viewBox="379 801.5  12 12" xmlns="http://www.w3.org/2000/svg">
  <path d="M 385 801.5  C 388.36 801.5  391 804.14  391 807.5  C 391 810.86  388.36 813.5  385 813.5  C 381.64 813.5  379 810.86  379 807.5  C 379 804.14  381.64 801.5  385 801.5  Z " fill-rule="nonzero" fill="#f0f0f0" stroke="none" />
  <path d="M 385 802  C 388.08 802  390.5 804.42  390.5 807.5  C 390.5 810.58  388.08 813  385 813  C 381.92 813  379.5 810.58  379.5 807.5  C 379.5 804.42  381.92 802  385 802  Z " stroke-width="1" stroke="#8080ff" fill="none" />
  <path d="M 385 810.5  C 383.32 810.5  382 809.18  382 807.5  C 382 805.82  383.32 804.5  385 804.5  C 386.68 804.5  388 805.82  388 807.5  C 388 809.18  386.68 810.5  385 810.5  " fill-rule="nonzero" fill="#8080ff" stroke="none" />
</svg>