<?xml version="1.0" encoding="utf-8"?>
<svg version="1.1" xmlns:xlink="http://www.w3.org/1999/xlink" width="12px" height="12px" viewBox="455 712.5  12 12" xmlns="http://www.w3.org/2000/svg">
  <path d="M 461 712.5  C 464.36 712.5  467 715.14  467 718.5  C 467 721.86  464.36 724.5  461 724.5  C 457.64 724.5  455 721.86  455 718.5  C 455 715.14  457.64 712.5  461 712.5  Z " fill-rule="nonzero" fill="#ffffff" stroke="none" />
  <path d="M 461 713  C 464.08 713  466.5 715.42  466.5 718.5  C 466.5 721.58  464.08 724  461 724  C 457.92 724  455.5 721.58  455.5 718.5  C 455.5 715.42  457.92 713  461 713  Z " stroke-width="1" stroke="#797979" fill="none" />
  <path d="M 461 721.5  C 459.32 721.5  458 720.18  458 718.5  C 458 716.82  459.32 715.5  461 715.5  C 462.68 715.5  464 716.82  464 718.5  C 464 720.18  462.68 721.5  461 721.5  " fill-rule="nonzero" fill="#797979" stroke="none" />
</svg>