<?xml version="1.0" encoding="utf-8"?>
<svg version="1.1" xmlns:xlink="http://www.w3.org/1999/xlink" width="12px" height="12px" viewBox="439 801.5  12 12" xmlns="http://www.w3.org/2000/svg">
  <path d="M 445 801.5  C 448.36 801.5  451 804.14  451 807.5  C 451 810.86  448.36 813.5  445 813.5  C 441.64 813.5  439 810.86  439 807.5  C 439 804.14  441.64 801.5  445 801.5  Z " fill-rule="nonzero" fill="#ffffff" stroke="none" />
  <path d="M 445 802  C 448.08 802  450.5 804.42  450.5 807.5  C 450.5 810.58  448.08 813  445 813  C 441.92 813  439.5 810.58  439.5 807.5  C 439.5 804.42  441.92 802  445 802  Z " stroke-width="1" stroke="#8080ff" fill="none" />
  <path d="M 445 810.5  C 443.32 810.5  442 809.18  442 807.5  C 442 805.82  443.32 804.5  445 804.5  C 446.68 804.5  448 805.82  448 807.5  C 448 809.18  446.68 810.5  445 810.5  " fill-rule="nonzero" fill="#8080ff" stroke="none" />
</svg>