<?xml version="1.0" encoding="utf-8"?>
<svg version="1.1" xmlns:xlink="http://www.w3.org/1999/xlink" width="12px" height="12px" viewBox="323 801.5  12 12" xmlns="http://www.w3.org/2000/svg">
  <path d="M 329 801.5  C 332.36 801.5  335 804.14  335 807.5  C 335 810.86  332.36 813.5  329 813.5  C 325.64 813.5  323 810.86  323 807.5  C 323 804.14  325.64 801.5  329 801.5  Z " fill-rule="nonzero" fill="#f0f0f0" stroke="none" />
  <path d="M 329 802  C 332.08 802  334.5 804.42  334.5 807.5  C 334.5 810.58  332.08 813  329 813  C 325.92 813  323.5 810.58  323.5 807.5  C 323.5 804.42  325.92 802  329 802  Z " stroke-width="1" stroke="#797979" fill="none" />
  <path d="M 329 810.5  C 327.32 810.5  326 809.18  326 807.5  C 326 805.82  327.32 804.5  329 804.5  C 330.68 804.5  332 805.82  332 807.5  C 332 809.18  330.68 810.5  329 810.5  " fill-rule="nonzero" fill="#797979" stroke="none" />
</svg>