<?xml version="1.0" encoding="utf-8"?>
<svg version="1.1" xmlns:xlink="http://www.w3.org/1999/xlink" width="12px" height="12px" viewBox="400 771.5  12 12" xmlns="http://www.w3.org/2000/svg">
  <path d="M 406 771.5  C 409.36 771.5  412 774.14  412 777.5  C 412 780.86  409.36 783.5  406 783.5  C 402.64 783.5  400 780.86  400 777.5  C 400 774.14  402.64 771.5  406 771.5  Z " fill-rule="nonzero" fill="#ffffff" stroke="none" />
  <path d="M 406 772  C 409.08 772  411.5 774.42  411.5 777.5  C 411.5 780.58  409.08 783  406 783  C 402.92 783  400.5 780.58  400.5 777.5  C 400.5 774.42  402.92 772  406 772  Z " stroke-width="1" stroke="#797979" fill="none" />
  <path d="M 406 780.5  C 404.32 780.5  403 779.18  403 777.5  C 403 775.82  404.32 774.5  406 774.5  C 407.68 774.5  409 775.82  409 777.5  C 409 779.18  407.68 780.5  406 780.5  " fill-rule="nonzero" fill="#797979" stroke="none" />
</svg>