<?xml version="1.0" encoding="utf-8"?>
<svg version="1.1" xmlns:xlink="http://www.w3.org/1999/xlink" width="12px" height="12px" viewBox="460 771.5  12 12" xmlns="http://www.w3.org/2000/svg">
  <path d="M 466 771.5  C 469.36 771.5  472 774.14  472 777.5  C 472 780.86  469.36 783.5  466 783.5  C 462.64 783.5  460 780.86  460 777.5  C 460 774.14  462.64 771.5  466 771.5  Z " fill-rule="nonzero" fill="#f0f0f0" stroke="none" />
  <path d="M 466 772  C 469.08 772  471.5 774.42  471.5 777.5  C 471.5 780.58  469.08 783  466 783  C 462.92 783  460.5 780.58  460.5 777.5  C 460.5 774.42  462.92 772  466 772  Z " stroke-width="1" stroke="#797979" fill="none" />
  <path d="M 466 780.5  C 464.32 780.5  463 779.18  463 777.5  C 463 775.82  464.32 774.5  466 774.5  C 467.68 774.5  469 775.82  469 777.5  C 469 779.18  467.68 780.5  466 780.5  " fill-rule="nonzero" fill="#797979" stroke="none" />
</svg>