<?xml version="1.0" encoding="utf-8"?>
<svg version="1.1" xmlns:xlink="http://www.w3.org/1999/xlink" width="12px" height="12px" viewBox="496 861.5  12 12" xmlns="http://www.w3.org/2000/svg">
  <path d="M 502 861.5  C 505.36 861.5  508 864.14  508 867.5  C 508 870.86  505.36 873.5  502 873.5  C 498.64 873.5  496 870.86  496 867.5  C 496 864.14  498.64 861.5  502 861.5  Z " fill-rule="nonzero" fill="#f0f0f0" stroke="none" />
  <path d="M 502 862  C 505.08 862  507.5 864.42  507.5 867.5  C 507.5 870.58  505.08 873  502 873  C 498.92 873  496.5 870.58  496.5 867.5  C 496.5 864.42  498.92 862  502 862  Z " stroke-width="1" stroke="#797979" fill="none" />
  <path d="M 502 870.5  C 500.32 870.5  499 869.18  499 867.5  C 499 865.82  500.32 864.5  502 864.5  C 503.68 864.5  505 865.82  505 867.5  C 505 869.18  503.68 870.5  502 870.5  " fill-rule="nonzero" fill="#797979" stroke="none" />
</svg>