<?xml version="1.0" encoding="utf-8"?>
<svg version="1.1" xmlns:xlink="http://www.w3.org/1999/xlink" width="12px" height="12px" viewBox="439 861.5  12 12" xmlns="http://www.w3.org/2000/svg">
  <path d="M 445 861.5  C 448.36 861.5  451 864.14  451 867.5  C 451 870.86  448.36 873.5  445 873.5  C 441.64 873.5  439 870.86  439 867.5  C 439 864.14  441.64 861.5  445 861.5  Z " fill-rule="nonzero" fill="#f0f0f0" stroke="none" />
  <path d="M 445 862  C 448.08 862  450.5 864.42  450.5 867.5  C 450.5 870.58  448.08 873  445 873  C 441.92 873  439.5 870.58  439.5 867.5  C 439.5 864.42  441.92 862  445 862  Z " stroke-width="1" stroke="#797979" fill="none" />
  <path d="M 445 870.5  C 443.32 870.5  442 869.18  442 867.5  C 442 865.82  443.32 864.5  445 864.5  C 446.68 864.5  448 865.82  448 867.5  C 448 869.18  446.68 870.5  445 870.5  " fill-rule="nonzero" fill="#797979" stroke="none" />
</svg>