<?xml version="1.0" encoding="utf-8"?>
<svg version="1.1" xmlns:xlink="http://www.w3.org/1999/xlink" width="12px" height="12px" viewBox="323 828.5  12 12" xmlns="http://www.w3.org/2000/svg">
  <path d="M 329 828.5  C 332.36 828.5  335 831.14  335 834.5  C 335 837.86  332.36 840.5  329 840.5  C 325.64 840.5  323 837.86  323 834.5  C 323 831.14  325.64 828.5  329 828.5  Z " fill-rule="nonzero" fill="#ffffff" stroke="none" />
  <path d="M 329 829  C 332.08 829  334.5 831.42  334.5 834.5  C 334.5 837.58  332.08 840  329 840  C 325.92 840  323.5 837.58  323.5 834.5  C 323.5 831.42  325.92 829  329 829  Z " stroke-width="1" stroke="#797979" fill="none" />
  <path d="M 329 837.5  C 327.32 837.5  326 836.18  326 834.5  C 326 832.82  327.32 831.5  329 831.5  C 330.68 831.5  332 832.82  332 834.5  C 332 836.18  330.68 837.5  329 837.5  " fill-rule="nonzero" fill="#797979" stroke="none" />
</svg>