<?xml version="1.0" encoding="utf-8"?>
<svg version="1.1" xmlns:xlink="http://www.w3.org/1999/xlink" width="12px" height="12px" viewBox="323 861.5  12 12" xmlns="http://www.w3.org/2000/svg">
  <path d="M 329 861.5  C 332.36 861.5  335 864.14  335 867.5  C 335 870.86  332.36 873.5  329 873.5  C 325.64 873.5  323 870.86  323 867.5  C 323 864.14  325.64 861.5  329 861.5  Z " fill-rule="nonzero" fill="#f0f0f0" stroke="none" />
  <path d="M 329 862  C 332.08 862  334.5 864.42  334.5 867.5  C 334.5 870.58  332.08 873  329 873  C 325.92 873  323.5 870.58  323.5 867.5  C 323.5 864.42  325.92 862  329 862  Z " stroke-width="1" stroke="#797979" fill="none" />
  <path d="M 329 870.5  C 327.32 870.5  326 869.18  326 867.5  C 326 865.82  327.32 864.5  329 864.5  C 330.68 864.5  332 865.82  332 867.5  C 332 869.18  330.68 870.5  329 870.5  " fill-rule="nonzero" fill="#797979" stroke="none" />
</svg>