<?xml version="1.0" encoding="utf-8"?>
<svg version="1.1" xmlns:xlink="http://www.w3.org/1999/xlink" width="12px" height="12px" viewBox="379 828.5  12 12" xmlns="http://www.w3.org/2000/svg">
  <path d="M 385 828.5  C 388.36 828.5  391 831.14  391 834.5  C 391 837.86  388.36 840.5  385 840.5  C 381.64 840.5  379 837.86  379 834.5  C 379 831.14  381.64 828.5  385 828.5  Z " fill-rule="nonzero" fill="#f0f0f0" stroke="none" />
  <path d="M 385 829  C 388.08 829  390.5 831.42  390.5 834.5  C 390.5 837.58  388.08 840  385 840  C 381.92 840  379.5 837.58  379.5 834.5  C 379.5 831.42  381.92 829  385 829  Z " stroke-width="1" stroke="#8080ff" fill="none" />
  <path d="M 385 837.5  C 383.32 837.5  382 836.18  382 834.5  C 382 832.82  383.32 831.5  385 831.5  C 386.68 831.5  388 832.82  388 834.5  C 388 836.18  386.68 837.5  385 837.5  " fill-rule="nonzero" fill="#8080ff" stroke="none" />
</svg>