<?xml version="1.0" encoding="utf-8"?>
<svg version="1.1" xmlns:xlink="http://www.w3.org/1999/xlink" width="12px" height="12px" viewBox="323 900.5  12 12" xmlns="http://www.w3.org/2000/svg">
  <path d="M 329 900.5  C 332.36 900.5  335 903.14  335 906.5  C 335 909.86  332.36 912.5  329 912.5  C 325.64 912.5  323 909.86  323 906.5  C 323 903.14  325.64 900.5  329 900.5  Z " fill-rule="nonzero" fill="#f0f0f0" stroke="none" />
  <path d="M 329 901  C 332.08 901  334.5 903.42  334.5 906.5  C 334.5 909.58  332.08 912  329 912  C 325.92 912  323.5 909.58  323.5 906.5  C 323.5 903.42  325.92 901  329 901  Z " stroke-width="1" stroke="#797979" fill="none" />
  <path d="M 329 909.5  C 327.32 909.5  326 908.18  326 906.5  C 326 904.82  327.32 903.5  329 903.5  C 330.68 903.5  332 904.82  332 906.5  C 332 908.18  330.68 909.5  329 909.5  " fill-rule="nonzero" fill="#797979" stroke="none" />
</svg>