<?xml version="1.0" encoding="utf-8"?>
<svg version="1.1" xmlns:xlink="http://www.w3.org/1999/xlink" width="12px" height="12px" viewBox="496 900.5  12 12" xmlns="http://www.w3.org/2000/svg">
  <path d="M 502 900.5  C 505.36 900.5  508 903.14  508 906.5  C 508 909.86  505.36 912.5  502 912.5  C 498.64 912.5  496 909.86  496 906.5  C 496 903.14  498.64 900.5  502 900.5  Z " fill-rule="nonzero" fill="#f0f0f0" stroke="none" />
  <path d="M 502 901  C 505.08 901  507.5 903.42  507.5 906.5  C 507.5 909.58  505.08 912  502 912  C 498.92 912  496.5 909.58  496.5 906.5  C 496.5 903.42  498.92 901  502 901  Z " stroke-width="1" stroke="#797979" fill="none" />
  <path d="M 502 909.5  C 500.32 909.5  499 908.18  499 906.5  C 499 904.82  500.32 903.5  502 903.5  C 503.68 903.5  505 904.82  505 906.5  C 505 908.18  503.68 909.5  502 909.5  " fill-rule="nonzero" fill="#797979" stroke="none" />
</svg>