<?xml version="1.0" encoding="utf-8"?>
<svg version="1.1" xmlns:xlink="http://www.w3.org/1999/xlink" width="12px" height="12px" viewBox="323 929.5  12 12" xmlns="http://www.w3.org/2000/svg">
  <path d="M 329 929.5  C 332.36 929.5  335 932.14  335 935.5  C 335 938.86  332.36 941.5  329 941.5  C 325.64 941.5  323 938.86  323 935.5  C 323 932.14  325.64 929.5  329 929.5  Z " fill-rule="nonzero" fill="#ffffff" stroke="none" />
  <path d="M 329 930  C 332.08 930  334.5 932.42  334.5 935.5  C 334.5 938.58  332.08 941  329 941  C 325.92 941  323.5 938.58  323.5 935.5  C 323.5 932.42  325.92 930  329 930  Z " stroke-width="1" stroke="#797979" fill="none" />
  <path d="M 329 938.5  C 327.32 938.5  326 937.18  326 935.5  C 326 933.82  327.32 932.5  329 932.5  C 330.68 932.5  332 933.82  332 935.5  C 332 937.18  330.68 938.5  329 938.5  " fill-rule="nonzero" fill="#797979" stroke="none" />
</svg>