<?xml version="1.0" encoding="utf-8"?>
<svg version="1.1" xmlns:xlink="http://www.w3.org/1999/xlink" width="12px" height="12px" viewBox="379 929.5  12 12" xmlns="http://www.w3.org/2000/svg">
  <path d="M 385 929.5  C 388.36 929.5  391 932.14  391 935.5  C 391 938.86  388.36 941.5  385 941.5  C 381.64 941.5  379 938.86  379 935.5  C 379 932.14  381.64 929.5  385 929.5  Z " fill-rule="nonzero" fill="#ffffff" stroke="none" />
  <path d="M 385 930  C 388.08 930  390.5 932.42  390.5 935.5  C 390.5 938.58  388.08 941  385 941  C 381.92 941  379.5 938.58  379.5 935.5  C 379.5 932.42  381.92 930  385 930  Z " stroke-width="1" stroke="#8080ff" fill="none" />
  <path d="M 385 938.5  C 383.32 938.5  382 937.18  382 935.5  C 382 933.82  383.32 932.5  385 932.5  C 386.68 932.5  388 933.82  388 935.5  C 388 937.18  386.68 938.5  385 938.5  " fill-rule="nonzero" fill="#8080ff" stroke="none" />
</svg>