<?xml version="1.0" encoding="utf-8"?>
<svg version="1.1" xmlns:xlink="http://www.w3.org/1999/xlink" width="12px" height="12px" viewBox="859 596.5  12 12" xmlns="http://www.w3.org/2000/svg">
  <path d="M 865 596.5  C 868.36 596.5  871 599.14  871 602.5  C 871 605.86  868.36 608.5  865 608.5  C 861.64 608.5  859 605.86  859 602.5  C 859 599.14  861.64 596.5  865 596.5  Z " fill-rule="nonzero" fill="#f0f0f0" stroke="none" />
  <path d="M 865 597  C 868.08 597  870.5 599.42  870.5 602.5  C 870.5 605.58  868.08 608  865 608  C 861.92 608  859.5 605.58  859.5 602.5  C 859.5 599.42  861.92 597  865 597  Z " stroke-width="1" stroke="#797979" fill="none" />
  <path d="M 865 605.5  C 863.32 605.5  862 604.18  862 602.5  C 862 600.82  863.32 599.5  865 599.5  C 866.68 599.5  868 600.82  868 602.5  C 868 604.18  866.68 605.5  865 605.5  " fill-rule="nonzero" fill="#797979" stroke="none" />
</svg>