<?xml version="1.0" encoding="utf-8"?>
<svg version="1.1" xmlns:xlink="http://www.w3.org/1999/xlink" width="12px" height="12px" viewBox="751 628.5  12 12" xmlns="http://www.w3.org/2000/svg">
  <path d="M 757 628.5  C 760.36 628.5  763 631.14  763 634.5  C 763 637.86  760.36 640.5  757 640.5  C 753.64 640.5  751 637.86  751 634.5  C 751 631.14  753.64 628.5  757 628.5  Z " fill-rule="nonzero" fill="#ffffff" stroke="none" />
  <path d="M 757 629  C 760.08 629  762.5 631.42  762.5 634.5  C 762.5 637.58  760.08 640  757 640  C 753.92 640  751.5 637.58  751.5 634.5  C 751.5 631.42  753.92 629  757 629  Z " stroke-width="1" stroke="#797979" fill="none" />
  <path d="M 757 637.5  C 755.32 637.5  754 636.18  754 634.5  C 754 632.82  755.32 631.5  757 631.5  C 758.68 631.5  760 632.82  760 634.5  C 760 636.18  758.68 637.5  757 637.5  " fill-rule="nonzero" fill="#797979" stroke="none" />
</svg>