<?xml version="1.0" encoding="utf-8"?>
<svg version="1.1" xmlns:xlink="http://www.w3.org/1999/xlink" width="12px" height="12px" viewBox="801 596.5  12 12" xmlns="http://www.w3.org/2000/svg">
  <path d="M 807 596.5  C 810.36 596.5  813 599.14  813 602.5  C 813 605.86  810.36 608.5  807 608.5  C 803.64 608.5  801 605.86  801 602.5  C 801 599.14  803.64 596.5  807 596.5  Z " fill-rule="nonzero" fill="#ffffff" stroke="none" />
  <path d="M 807 597  C 810.08 597  812.5 599.42  812.5 602.5  C 812.5 605.58  810.08 608  807 608  C 803.92 608  801.5 605.58  801.5 602.5  C 801.5 599.42  803.92 597  807 597  Z " stroke-width="1" stroke="#797979" fill="none" />
  <path d="M 807 605.5  C 805.32 605.5  804 604.18  804 602.5  C 804 600.82  805.32 599.5  807 599.5  C 808.68 599.5  810 600.82  810 602.5  C 810 604.18  808.68 605.5  807 605.5  " fill-rule="nonzero" fill="#797979" stroke="none" />
</svg>