<?xml version="1.0" encoding="utf-8"?>
<svg version="1.1" xmlns:xlink="http://www.w3.org/1999/xlink" width="12px" height="12px" viewBox="914 596.5  12 12" xmlns="http://www.w3.org/2000/svg">
  <path d="M 920 596.5  C 923.36 596.5  926 599.14  926 602.5  C 926 605.86  923.36 608.5  920 608.5  C 916.64 608.5  914 605.86  914 602.5  C 914 599.14  916.64 596.5  920 596.5  Z " fill-rule="nonzero" fill="#ffffff" stroke="none" />
  <path d="M 920 597  C 923.08 597  925.5 599.42  925.5 602.5  C 925.5 605.58  923.08 608  920 608  C 916.92 608  914.5 605.58  914.5 602.5  C 914.5 599.42  916.92 597  920 597  Z " stroke-width="1" stroke="#797979" fill="none" />
  <path d="M 920 605.5  C 918.32 605.5  917 604.18  917 602.5  C 917 600.82  918.32 599.5  920 599.5  C 921.68 599.5  923 600.82  923 602.5  C 923 604.18  921.68 605.5  920 605.5  " fill-rule="nonzero" fill="#797979" stroke="none" />
</svg>