<?xml version="1.0" encoding="utf-8"?>
<svg version="1.1" xmlns:xlink="http://www.w3.org/1999/xlink" width="12px" height="12px" viewBox="806 628.5  12 12" xmlns="http://www.w3.org/2000/svg">
  <path d="M 812 628.5  C 815.36 628.5  818 631.14  818 634.5  C 818 637.86  815.36 640.5  812 640.5  C 808.64 640.5  806 637.86  806 634.5  C 806 631.14  808.64 628.5  812 628.5  Z " fill-rule="nonzero" fill="#f0f0f0" stroke="none" />
  <path d="M 812 629  C 815.08 629  817.5 631.42  817.5 634.5  C 817.5 637.58  815.08 640  812 640  C 808.92 640  806.5 637.58  806.5 634.5  C 806.5 631.42  808.92 629  812 629  Z " stroke-width="1" stroke="#797979" fill="none" />
  <path d="M 812 637.5  C 810.32 637.5  809 636.18  809 634.5  C 809 632.82  810.32 631.5  812 631.5  C 813.68 631.5  815 632.82  815 634.5  C 815 636.18  813.68 637.5  812 637.5  " fill-rule="nonzero" fill="#797979" stroke="none" />
</svg>