<?xml version="1.0" encoding="utf-8"?>
<svg version="1.1" xmlns:xlink="http://www.w3.org/1999/xlink" width="12px" height="12px" viewBox="764 815.5  12 12" xmlns="http://www.w3.org/2000/svg">
  <path d="M 770 815.5  C 773.36 815.5  776 818.14  776 821.5  C 776 824.86  773.36 827.5  770 827.5  C 766.64 827.5  764 824.86  764 821.5  C 764 818.14  766.64 815.5  770 815.5  Z " fill-rule="nonzero" fill="#f0f0f0" stroke="none" />
  <path d="M 770 816  C 773.08 816  775.5 818.42  775.5 821.5  C 775.5 824.58  773.08 827  770 827  C 766.92 827  764.5 824.58  764.5 821.5  C 764.5 818.42  766.92 816  770 816  Z " stroke-width="1" stroke="#797979" fill="none" />
  <path d="M 770 824.5  C 768.32 824.5  767 823.18  767 821.5  C 767 819.82  768.32 818.5  770 818.5  C 771.68 818.5  773 819.82  773 821.5  C 773 823.18  771.68 824.5  770 824.5  " fill-rule="nonzero" fill="#797979" stroke="none" />
</svg>