<?xml version="1.0" encoding="utf-8"?>
<svg version="1.1" xmlns:xlink="http://www.w3.org/1999/xlink" width="12px" height="12px" viewBox="888 815.5  12 12" xmlns="http://www.w3.org/2000/svg">
  <path d="M 894 815.5  C 897.36 815.5  900 818.14  900 821.5  C 900 824.86  897.36 827.5  894 827.5  C 890.64 827.5  888 824.86  888 821.5  C 888 818.14  890.64 815.5  894 815.5  Z " fill-rule="nonzero" fill="#f0f0f0" stroke="none" />
  <path d="M 894 816  C 897.08 816  899.5 818.42  899.5 821.5  C 899.5 824.58  897.08 827  894 827  C 890.92 827  888.5 824.58  888.5 821.5  C 888.5 818.42  890.92 816  894 816  Z " stroke-width="1" stroke="#797979" fill="none" />
  <path d="M 894 824.5  C 892.32 824.5  891 823.18  891 821.5  C 891 819.82  892.32 818.5  894 818.5  C 895.68 818.5  897 819.82  897 821.5  C 897 823.18  895.68 824.5  894 824.5  " fill-rule="nonzero" fill="#797979" stroke="none" />
</svg>