<?xml version="1.0" encoding="utf-8"?>
<svg version="1.1" xmlns:xlink="http://www.w3.org/1999/xlink" width="12px" height="12px" viewBox="780 425.5  12 12" xmlns="http://www.w3.org/2000/svg">
  <path d="M 786 425.5  C 789.36 425.5  792 428.14  792 431.5  C 792 434.86  789.36 437.5  786 437.5  C 782.64 437.5  780 434.86  780 431.5  C 780 428.14  782.64 425.5  786 425.5  Z " fill-rule="nonzero" fill="#f0f0f0" stroke="none" />
  <path d="M 786 426  C 789.08 426  791.5 428.42  791.5 431.5  C 791.5 434.58  789.08 437  786 437  C 782.92 437  780.5 434.58  780.5 431.5  C 780.5 428.42  782.92 426  786 426  Z " stroke-width="1" stroke="#797979" fill="none" />
  <path d="M 786 434.5  C 784.32 434.5  783 433.18  783 431.5  C 783 429.82  784.32 428.5  786 428.5  C 787.68 428.5  789 429.82  789 431.5  C 789 433.18  787.68 434.5  786 434.5  " fill-rule="nonzero" fill="#797979" stroke="none" />
</svg>