<?xml version="1.0" encoding="utf-8"?>
<svg version="1.1" xmlns:xlink="http://www.w3.org/1999/xlink" width="12px" height="12px" viewBox="946 425.5  12 12" xmlns="http://www.w3.org/2000/svg">
  <path d="M 952 425.5  C 955.36 425.5  958 428.14  958 431.5  C 958 434.86  955.36 437.5  952 437.5  C 948.64 437.5  946 434.86  946 431.5  C 946 428.14  948.64 425.5  952 425.5  Z " fill-rule="nonzero" fill="#f0f0f0" stroke="none" />
  <path d="M 952 426  C 955.08 426  957.5 428.42  957.5 431.5  C 957.5 434.58  955.08 437  952 437  C 948.92 437  946.5 434.58  946.5 431.5  C 946.5 428.42  948.92 426  952 426  Z " stroke-width="1" stroke="#797979" fill="none" />
  <path d="M 952 434.5  C 950.32 434.5  949 433.18  949 431.5  C 949 429.82  950.32 428.5  952 428.5  C 953.68 428.5  955 429.82  955 431.5  C 955 433.18  953.68 434.5  952 434.5  " fill-rule="nonzero" fill="#797979" stroke="none" />
</svg>