<?xml version="1.0" encoding="utf-8"?>
<svg version="1.1" xmlns:xlink="http://www.w3.org/1999/xlink" width="12px" height="12px" viewBox="846 425.5  12 12" xmlns="http://www.w3.org/2000/svg">
  <path d="M 852 425.5  C 855.36 425.5  858 428.14  858 431.5  C 858 434.86  855.36 437.5  852 437.5  C 848.64 437.5  846 434.86  846 431.5  C 846 428.14  848.64 425.5  852 425.5  Z " fill-rule="nonzero" fill="#ffffff" stroke="none" />
  <path d="M 852 426  C 855.08 426  857.5 428.42  857.5 431.5  C 857.5 434.58  855.08 437  852 437  C 848.92 437  846.5 434.58  846.5 431.5  C 846.5 428.42  848.92 426  852 426  Z " stroke-width="1" stroke="#797979" fill="none" />
  <path d="M 852 434.5  C 850.32 434.5  849 433.18  849 431.5  C 849 429.82  850.32 428.5  852 428.5  C 853.68 428.5  855 429.82  855 431.5  C 855 433.18  853.68 434.5  852 434.5  " fill-rule="nonzero" fill="#797979" stroke="none" />
</svg>