<?xml version="1.0" encoding="utf-8"?>
<svg version="1.1" xmlns:xlink="http://www.w3.org/1999/xlink" width="12px" height="12px" viewBox="331 1027.5  12 12" xmlns="http://www.w3.org/2000/svg">
  <path d="M 337 1027.5  C 340.36 1027.5  343 1030.14  343 1033.5  C 343 1036.86  340.36 1039.5  337 1039.5  C 333.64 1039.5  331 1036.86  331 1033.5  C 331 1030.14  333.64 1027.5  337 1027.5  Z " fill-rule="nonzero" fill="#ffffff" stroke="none" />
  <path d="M 337 1028  C 340.08 1028  342.5 1030.42  342.5 1033.5  C 342.5 1036.58  340.08 1039  337 1039  C 333.92 1039  331.5 1036.58  331.5 1033.5  C 331.5 1030.42  333.92 1028  337 1028  Z " stroke-width="1" stroke="#797979" fill="none" />
  <path d="M 337 1036.5  C 335.32 1036.5  334 1035.18  334 1033.5  C 334 1031.82  335.32 1030.5  337 1030.5  C 338.68 1030.5  340 1031.82  340 1033.5  C 340 1035.18  338.68 1036.5  337 1036.5  " fill-rule="nonzero" fill="#797979" stroke="none" />
</svg>