<?xml version="1.0" encoding="utf-8"?>
<svg version="1.1" xmlns:xlink="http://www.w3.org/1999/xlink" width="12px" height="12px" viewBox="447 1055.5  12 12" xmlns="http://www.w3.org/2000/svg">
  <path d="M 453 1055.5  C 456.36 1055.5  459 1058.14  459 1061.5  C 459 1064.86  456.36 1067.5  453 1067.5  C 449.64 1067.5  447 1064.86  447 1061.5  C 447 1058.14  449.64 1055.5  453 1055.5  Z " fill-rule="nonzero" fill="#f0f0f0" stroke="none" />
  <path d="M 453 1056  C 456.08 1056  458.5 1058.42  458.5 1061.5  C 458.5 1064.58  456.08 1067  453 1067  C 449.92 1067  447.5 1064.58  447.5 1061.5  C 447.5 1058.42  449.92 1056  453 1056  Z " stroke-width="1" stroke="#797979" fill="none" />
  <path d="M 453 1064.5  C 451.32 1064.5  450 1063.18  450 1061.5  C 450 1059.82  451.32 1058.5  453 1058.5  C 454.68 1058.5  456 1059.82  456 1061.5  C 456 1063.18  454.68 1064.5  453 1064.5  " fill-rule="nonzero" fill="#797979" stroke="none" />
</svg>