<?xml version="1.0" encoding="utf-8"?>
<svg version="1.1" xmlns:xlink="http://www.w3.org/1999/xlink" width="12px" height="12px" viewBox="387 1055.5  12 12" xmlns="http://www.w3.org/2000/svg">
  <path d="M 393 1055.5  C 396.36 1055.5  399 1058.14  399 1061.5  C 399 1064.86  396.36 1067.5  393 1067.5  C 389.64 1067.5  387 1064.86  387 1061.5  C 387 1058.14  389.64 1055.5  393 1055.5  Z " fill-rule="nonzero" fill="#ffffff" stroke="none" />
  <path d="M 393 1056  C 396.08 1056  398.5 1058.42  398.5 1061.5  C 398.5 1064.58  396.08 1067  393 1067  C 389.92 1067  387.5 1064.58  387.5 1061.5  C 387.5 1058.42  389.92 1056  393 1056  Z " stroke-width="1" stroke="#797979" fill="none" />
  <path d="M 393 1064.5  C 391.32 1064.5  390 1063.18  390 1061.5  C 390 1059.82  391.32 1058.5  393 1058.5  C 394.68 1058.5  396 1059.82  396 1061.5  C 396 1063.18  394.68 1064.5  393 1064.5  " fill-rule="nonzero" fill="#797979" stroke="none" />
</svg>