<?xml version="1.0" encoding="utf-8"?>
<svg version="1.1" xmlns:xlink="http://www.w3.org/1999/xlink" width="12px" height="12px" viewBox="888 888.5  12 12" xmlns="http://www.w3.org/2000/svg">
  <path d="M 894 888.5  C 897.36 888.5  900 891.14  900 894.5  C 900 897.86  897.36 900.5  894 900.5  C 890.64 900.5  888 897.86  888 894.5  C 888 891.14  890.64 888.5  894 888.5  Z " fill-rule="nonzero" fill="#ffffff" stroke="none" />
  <path d="M 894 889  C 897.08 889  899.5 891.42  899.5 894.5  C 899.5 897.58  897.08 900  894 900  C 890.92 900  888.5 897.58  888.5 894.5  C 888.5 891.42  890.92 889  894 889  Z " stroke-width="1" stroke="#797979" fill="none" />
  <path d="M 894 897.5  C 892.32 897.5  891 896.18  891 894.5  C 891 892.82  892.32 891.5  894 891.5  C 895.68 891.5  897 892.82  897 894.5  C 897 896.18  895.68 897.5  894 897.5  " fill-rule="nonzero" fill="#797979" stroke="none" />
</svg>