<?xml version="1.0" encoding="utf-8"?>
<svg version="1.1" xmlns:xlink="http://www.w3.org/1999/xlink" width="12px" height="12px" viewBox="764 958.5  12 12" xmlns="http://www.w3.org/2000/svg">
  <path d="M 770 958.5  C 773.36 958.5  776 961.14  776 964.5  C 776 967.86  773.36 970.5  770 970.5  C 766.64 970.5  764 967.86  764 964.5  C 764 961.14  766.64 958.5  770 958.5  Z " fill-rule="nonzero" fill="#f0f0f0" stroke="none" />
  <path d="M 770 959  C 773.08 959  775.5 961.42  775.5 964.5  C 775.5 967.58  773.08 970  770 970  C 766.92 970  764.5 967.58  764.5 964.5  C 764.5 961.42  766.92 959  770 959  Z " stroke-width="1" stroke="#797979" fill="none" />
  <path d="M 770 967.5  C 768.32 967.5  767 966.18  767 964.5  C 767 962.82  768.32 961.5  770 961.5  C 771.68 961.5  773 962.82  773 964.5  C 773 966.18  771.68 967.5  770 967.5  " fill-rule="nonzero" fill="#797979" stroke="none" />
</svg>