<?xml version="1.0" encoding="utf-8"?>
<svg version="1.1" xmlns:xlink="http://www.w3.org/1999/xlink" width="12px" height="12px" viewBox="764 888.5  12 12" xmlns="http://www.w3.org/2000/svg">
  <path d="M 770 888.5  C 773.36 888.5  776 891.14  776 894.5  C 776 897.86  773.36 900.5  770 900.5  C 766.64 900.5  764 897.86  764 894.5  C 764 891.14  766.64 888.5  770 888.5  Z " fill-rule="nonzero" fill="#ffffff" stroke="none" />
  <path d="M 770 889  C 773.08 889  775.5 891.42  775.5 894.5  C 775.5 897.58  773.08 900  770 900  C 766.92 900  764.5 897.58  764.5 894.5  C 764.5 891.42  766.92 889  770 889  Z " stroke-width="1" stroke="#797979" fill="none" />
  <path d="M 770 897.5  C 768.32 897.5  767 896.18  767 894.5  C 767 892.82  768.32 891.5  770 891.5  C 771.68 891.5  773 892.82  773 894.5  C 773 896.18  771.68 897.5  770 897.5  " fill-rule="nonzero" fill="#797979" stroke="none" />
</svg>