<?xml version="1.0" encoding="utf-8"?>
<svg version="1.1" xmlns:xlink="http://www.w3.org/1999/xlink" width="12px" height="12px" viewBox="605 557.5  12 12" xmlns="http://www.w3.org/2000/svg">
  <path d="M 611 557.5  C 614.36 557.5  617 560.14  617 563.5  C 617 566.86  614.36 569.5  611 569.5  C 607.64 569.5  605 566.86  605 563.5  C 605 560.14  607.64 557.5  611 557.5  Z " fill-rule="nonzero" fill="#ffffff" stroke="none" />
  <path d="M 611 558  C 614.08 558  616.5 560.42  616.5 563.5  C 616.5 566.58  614.08 569  611 569  C 607.92 569  605.5 566.58  605.5 563.5  C 605.5 560.42  607.92 558  611 558  Z " stroke-width="1" stroke="#797979" fill="none" />
  <path d="M 611 566.5  C 609.32 566.5  608 565.18  608 563.5  C 608 561.82  609.32 560.5  611 560.5  C 612.68 560.5  614 561.82  614 563.5  C 614 565.18  612.68 566.5  611 566.5  " fill-rule="nonzero" fill="#797979" stroke="none" />
</svg>