<?xml version="1.0" encoding="utf-8"?>
<svg version="1.1" xmlns:xlink="http://www.w3.org/1999/xlink" width="12px" height="12px" viewBox="529 662.5  12 12" xmlns="http://www.w3.org/2000/svg">
  <path d="M 535 662.5  C 538.36 662.5  541 665.14  541 668.5  C 541 671.86  538.36 674.5  535 674.5  C 531.64 674.5  529 671.86  529 668.5  C 529 665.14  531.64 662.5  535 662.5  Z " fill-rule="nonzero" fill="#ffffff" stroke="none" />
  <path d="M 535 663  C 538.08 663  540.5 665.42  540.5 668.5  C 540.5 671.58  538.08 674  535 674  C 531.92 674  529.5 671.58  529.5 668.5  C 529.5 665.42  531.92 663  535 663  Z " stroke-width="1" stroke="#333333" fill="none" />
  <path d="M 535 671.5  C 533.32 671.5  532 670.18  532 668.5  C 532 666.82  533.32 665.5  535 665.5  C 536.68 665.5  538 666.82  538 668.5  C 538 670.18  536.68 671.5  535 671.5  " fill-rule="nonzero" fill="#333333" stroke="none" />
</svg>