<?xml version="1.0" encoding="utf-8"?>
<svg version="1.1" xmlns:xlink="http://www.w3.org/1999/xlink" width="12px" height="12px" viewBox="439 748.5  12 12" xmlns="http://www.w3.org/2000/svg">
  <path d="M 445 748.5  C 448.36 748.5  451 751.14  451 754.5  C 451 757.86  448.36 760.5  445 760.5  C 441.64 760.5  439 757.86  439 754.5  C 439 751.14  441.64 748.5  445 748.5  Z " fill-rule="nonzero" fill="#ffffff" stroke="none" />
  <path d="M 445 749  C 448.08 749  450.5 751.42  450.5 754.5  C 450.5 757.58  448.08 760  445 760  C 441.92 760  439.5 757.58  439.5 754.5  C 439.5 751.42  441.92 749  445 749  Z " stroke-width="1" stroke="#333333" fill="none" />
  <path d="M 445 757.5  C 443.32 757.5  442 756.18  442 754.5  C 442 752.82  443.32 751.5  445 751.5  C 446.68 751.5  448 752.82  448 754.5  C 448 756.18  446.68 757.5  445 757.5  " fill-rule="nonzero" fill="#333333" stroke="none" />
</svg>