<?xml version="1.0" encoding="utf-8"?>
<svg version="1.1" xmlns:xlink="http://www.w3.org/1999/xlink" width="12px" height="12px" viewBox="487 1040.5  12 12" xmlns="http://www.w3.org/2000/svg">
  <path d="M 493 1040.5  C 496.36 1040.5  499 1043.14  499 1046.5  C 499 1049.86  496.36 1052.5  493 1052.5  C 489.64 1052.5  487 1049.86  487 1046.5  C 487 1043.14  489.64 1040.5  493 1040.5  Z " fill-rule="nonzero" fill="#f0f0f0" stroke="none" />
  <path d="M 493 1041  C 496.08 1041  498.5 1043.42  498.5 1046.5  C 498.5 1049.58  496.08 1052  493 1052  C 489.92 1052  487.5 1049.58  487.5 1046.5  C 487.5 1043.42  489.92 1041  493 1041  Z " stroke-width="1" stroke="#333333" fill="none" />
  <path d="M 493 1049.5  C 491.32 1049.5  490 1048.18  490 1046.5  C 490 1044.82  491.32 1043.5  493 1043.5  C 494.68 1043.5  496 1044.82  496 1046.5  C 496 1048.18  494.68 1049.5  493 1049.5  " fill-rule="nonzero" fill="#333333" stroke="none" />
</svg>