<?xml version="1.0" encoding="utf-8"?>
<svg version="1.1" xmlns:xlink="http://www.w3.org/1999/xlink" width="12px" height="12px" viewBox="342 1173.5  12 12" xmlns="http://www.w3.org/2000/svg">
  <path d="M 348 1173.5  C 351.36 1173.5  354 1176.14  354 1179.5  C 354 1182.86  351.36 1185.5  348 1185.5  C 344.64 1185.5  342 1182.86  342 1179.5  C 342 1176.14  344.64 1173.5  348 1173.5  Z " fill-rule="nonzero" fill="#f0f0f0" stroke="none" />
  <path d="M 348 1174  C 351.08 1174  353.5 1176.42  353.5 1179.5  C 353.5 1182.58  351.08 1185  348 1185  C 344.92 1185  342.5 1182.58  342.5 1179.5  C 342.5 1176.42  344.92 1174  348 1174  Z " stroke-width="1" stroke="#333333" fill="none" />
  <path d="M 348 1182.5  C 346.32 1182.5  345 1181.18  345 1179.5  C 345 1177.82  346.32 1176.5  348 1176.5  C 349.68 1176.5  351 1177.82  351 1179.5  C 351 1181.18  349.68 1182.5  348 1182.5  " fill-rule="nonzero" fill="#333333" stroke="none" />
</svg>