<?xml version="1.0" encoding="utf-8"?>
<svg version="1.1" xmlns:xlink="http://www.w3.org/1999/xlink" width="12px" height="12px" viewBox="413 1072.5  12 12" xmlns="http://www.w3.org/2000/svg">
  <path d="M 419 1072.5  C 422.36 1072.5  425 1075.14  425 1078.5  C 425 1081.86  422.36 1084.5  419 1084.5  C 415.64 1084.5  413 1081.86  413 1078.5  C 413 1075.14  415.64 1072.5  419 1072.5  Z " fill-rule="nonzero" fill="#f0f0f0" stroke="none" />
  <path d="M 419 1073  C 422.08 1073  424.5 1075.42  424.5 1078.5  C 424.5 1081.58  422.08 1084  419 1084  C 415.92 1084  413.5 1081.58  413.5 1078.5  C 413.5 1075.42  415.92 1073  419 1073  Z " stroke-width="1" stroke="#333333" fill="none" />
  <path d="M 419 1081.5  C 417.32 1081.5  416 1080.18  416 1078.5  C 416 1076.82  417.32 1075.5  419 1075.5  C 420.68 1075.5  422 1076.82  422 1078.5  C 422 1080.18  420.68 1081.5  419 1081.5  " fill-rule="nonzero" fill="#333333" stroke="none" />
</svg>