<?xml version="1.0" encoding="utf-8"?>
<svg version="1.1" xmlns:xlink="http://www.w3.org/1999/xlink" width="12px" height="12px" viewBox="439 843.5  12 12" xmlns="http://www.w3.org/2000/svg">
  <path d="M 445 843.5  C 448.36 843.5  451 846.14  451 849.5  C 451 852.86  448.36 855.5  445 855.5  C 441.64 855.5  439 852.86  439 849.5  C 439 846.14  441.64 843.5  445 843.5  Z " fill-rule="nonzero" fill="#f0f0f0" stroke="none" />
  <path d="M 445 844  C 448.08 844  450.5 846.42  450.5 849.5  C 450.5 852.58  448.08 855  445 855  C 441.92 855  439.5 852.58  439.5 849.5  C 439.5 846.42  441.92 844  445 844  Z " stroke-width="1" stroke="#333333" fill="none" />
  <path d="M 445 852.5  C 443.32 852.5  442 851.18  442 849.5  C 442 847.82  443.32 846.5  445 846.5  C 446.68 846.5  448 847.82  448 849.5  C 448 851.18  446.68 852.5  445 852.5  " fill-rule="nonzero" fill="#333333" stroke="none" />
</svg>