<?xml version="1.0" encoding="utf-8"?>
<svg version="1.1" xmlns:xlink="http://www.w3.org/1999/xlink" width="813px" height="273px" xmlns="http://www.w3.org/2000/svg">
  <defs>
    <mask fill="white" id="clip5">
      <path d="M 185 821  C 183.89 821  183 820.11  183 819  L 183 550  C 183 548.89  183.89 548  185 548  L 994 548  C 995.11 548  996 548.89  996 550  L 996 819  C 996 820.11  995.11 821  994 821  " fill-rule="evenodd" />
    </mask>
  </defs>
  <g transform="matrix(1 0 0 1 -183 -548 )">
    <path d="M 183 548  L 996 548  L 996 821  L 183 821  L 183 548  " fill-rule="nonzero" fill="#cccccc" stroke="none" mask="url(#clip5)" />
    <path d="M 202 567  L 977 567  L 977 802  L 202 802  L 202 567  " fill-rule="nonzero" fill="#ffffff" stroke="none" mask="url(#clip5)" />
    <path d="M 626.235 629.9  C 614.769 629.9  605.76 620.891  605.76 609.425  C 605.76 597.959  614.769 588.95  626.235 588.95  C 637.701 588.95  646.71 597.959  646.71 609.425  C 646.71 620.891  637.701 629.9  626.235 629.9  " fill-rule="nonzero" fill="#cccccc" stroke="none" mask="url(#clip5)" />
    <path d="M 209 795  L 209 673.45  L 399.25 618.2  L 665.6 750.473800738007  L 817.8 651.35  L 970 750.473800738007  L 970 795  L 209 795  " fill-rule="nonzero" fill="#169bd5" stroke="none" mask="url(#clip5)" />
  </g>
</svg>