<?xml version="1.0" encoding="utf-8"?>
<svg version="1.1" xmlns:xlink="http://www.w3.org/1999/xlink" width="12px" height="12px" viewBox="351 1052.5  12 12" xmlns="http://www.w3.org/2000/svg">
  <path d="M 357 1052.5  C 360.36 1052.5  363 1055.14  363 1058.5  C 363 1061.86  360.36 1064.5  357 1064.5  C 353.64 1064.5  351 1061.86  351 1058.5  C 351 1055.14  353.64 1052.5  357 1052.5  Z " fill-rule="nonzero" fill="#f0f0f0" stroke="none" />
  <path d="M 357 1053  C 360.08 1053  362.5 1055.42  362.5 1058.5  C 362.5 1061.58  360.08 1064  357 1064  C 353.92 1064  351.5 1061.58  351.5 1058.5  C 351.5 1055.42  353.92 1053  357 1053  Z " stroke-width="1" stroke="#797979" fill="none" />
  <path d="M 357 1061.5  C 355.32 1061.5  354 1060.18  354 1058.5  C 354 1056.82  355.32 1055.5  357 1055.5  C 358.68 1055.5  360 1056.82  360 1058.5  C 360 1060.18  358.68 1061.5  357 1061.5  " fill-rule="nonzero" fill="#797979" stroke="none" />
</svg>