<?xml version="1.0" encoding="utf-8"?>
<svg version="1.1" xmlns:xlink="http://www.w3.org/1999/xlink" width="12px" height="12px" viewBox="301 466.5  12 12" xmlns="http://www.w3.org/2000/svg">
  <path d="M 307 466.5  C 310.36 466.5  313 469.14  313 472.5  C 313 475.86  310.36 478.5  307 478.5  C 303.64 478.5  301 475.86  301 472.5  C 301 469.14  303.64 466.5  307 466.5  Z " fill-rule="nonzero" fill="#f0f0f0" stroke="none" />
  <path d="M 307 467  C 310.08 467  312.5 469.42  312.5 472.5  C 312.5 475.58  310.08 478  307 478  C 303.92 478  301.5 475.58  301.5 472.5  C 301.5 469.42  303.92 467  307 467  Z " stroke-width="1" stroke="#797979" fill="none" />
  <path d="M 307 475.5  C 305.32 475.5  304 474.18  304 472.5  C 304 470.82  305.32 469.5  307 469.5  C 308.68 469.5  310 470.82  310 472.5  C 310 474.18  308.68 475.5  307 475.5  " fill-rule="nonzero" fill="#797979" stroke="none" />
</svg>