<?xml version="1.0" encoding="utf-8"?>
<svg version="1.1" xmlns:xlink="http://www.w3.org/1999/xlink" width="12px" height="12px" viewBox="425 1082.5  12 12" xmlns="http://www.w3.org/2000/svg">
  <path d="M 431 1082.5  C 434.36 1082.5  437 1085.14  437 1088.5  C 437 1091.86  434.36 1094.5  431 1094.5  C 427.64 1094.5  425 1091.86  425 1088.5  C 425 1085.14  427.64 1082.5  431 1082.5  Z " fill-rule="nonzero" fill="#f0f0f0" stroke="none" />
  <path d="M 431 1083  C 434.08 1083  436.5 1085.42  436.5 1088.5  C 436.5 1091.58  434.08 1094  431 1094  C 427.92 1094  425.5 1091.58  425.5 1088.5  C 425.5 1085.42  427.92 1083  431 1083  Z " stroke-width="1" stroke="#333333" fill="none" />
  <path d="M 431 1091.5  C 429.32 1091.5  428 1090.18  428 1088.5  C 428 1086.82  429.32 1085.5  431 1085.5  C 432.68 1085.5  434 1086.82  434 1088.5  C 434 1090.18  432.68 1091.5  431 1091.5  " fill-rule="nonzero" fill="#333333" stroke="none" />
</svg>