<?xml version="1.0" encoding="utf-8"?>
<svg version="1.1" xmlns:xlink="http://www.w3.org/1999/xlink" width="12px" height="12px" viewBox="362 466.5  12 12" xmlns="http://www.w3.org/2000/svg">
  <path d="M 368 466.5  C 371.36 466.5  374 469.14  374 472.5  C 374 475.86  371.36 478.5  368 478.5  C 364.64 478.5  362 475.86  362 472.5  C 362 469.14  364.64 466.5  368 466.5  Z " fill-rule="nonzero" fill="#ffffff" stroke="none" />
  <path d="M 368 467  C 371.08 467  373.5 469.42  373.5 472.5  C 373.5 475.58  371.08 478  368 478  C 364.92 478  362.5 475.58  362.5 472.5  C 362.5 469.42  364.92 467  368 467  Z " stroke-width="1" stroke="#333333" fill="none" />
  <path d="M 368 475.5  C 366.32 475.5  365 474.18  365 472.5  C 365 470.82  366.32 469.5  368 469.5  C 369.68 469.5  371 470.82  371 472.5  C 371 474.18  369.68 475.5  368 475.5  " fill-rule="nonzero" fill="#333333" stroke="none" />
</svg>