<?xml version="1.0" encoding="utf-8"?>
<svg version="1.1" xmlns:xlink="http://www.w3.org/1999/xlink" width="12px" height="12px" viewBox="301 521.5  12 12" xmlns="http://www.w3.org/2000/svg">
  <path d="M 307 521.5  C 310.36 521.5  313 524.14  313 527.5  C 313 530.86  310.36 533.5  307 533.5  C 303.64 533.5  301 530.86  301 527.5  C 301 524.14  303.64 521.5  307 521.5  Z " fill-rule="nonzero" fill="#ffffff" stroke="none" />
  <path d="M 307 522  C 310.08 522  312.5 524.42  312.5 527.5  C 312.5 530.58  310.08 533  307 533  C 303.92 533  301.5 530.58  301.5 527.5  C 301.5 524.42  303.92 522  307 522  Z " stroke-width="1" stroke="#797979" fill="none" />
  <path d="M 307 530.5  C 305.32 530.5  304 529.18  304 527.5  C 304 525.82  305.32 524.5  307 524.5  C 308.68 524.5  310 525.82  310 527.5  C 310 529.18  308.68 530.5  307 530.5  " fill-rule="nonzero" fill="#797979" stroke="none" />
</svg>