<?xml version="1.0" encoding="utf-8"?>
<svg version="1.1" xmlns:xlink="http://www.w3.org/1999/xlink" width="12px" height="12px" viewBox="362 495.5  12 12" xmlns="http://www.w3.org/2000/svg">
  <path d="M 368 495.5  C 371.36 495.5  374 498.14  374 501.5  C 374 504.86  371.36 507.5  368 507.5  C 364.64 507.5  362 504.86  362 501.5  C 362 498.14  364.64 495.5  368 495.5  Z " fill-rule="nonzero" fill="#ffffff" stroke="none" />
  <path d="M 368 496  C 371.08 496  373.5 498.42  373.5 501.5  C 373.5 504.58  371.08 507  368 507  C 364.92 507  362.5 504.58  362.5 501.5  C 362.5 498.42  364.92 496  368 496  Z " stroke-width="1" stroke="#333333" fill="none" />
  <path d="M 368 504.5  C 366.32 504.5  365 503.18  365 501.5  C 365 499.82  366.32 498.5  368 498.5  C 369.68 498.5  371 499.82  371 501.5  C 371 503.18  369.68 504.5  368 504.5  " fill-rule="nonzero" fill="#333333" stroke="none" />
</svg>