<?xml version="1.0" encoding="utf-8"?>
<svg version="1.1" xmlns:xlink="http://www.w3.org/1999/xlink" width="12px" height="12px" viewBox="495 466.5  12 12" xmlns="http://www.w3.org/2000/svg">
  <path d="M 501 466.5  C 504.36 466.5  507 469.14  507 472.5  C 507 475.86  504.36 478.5  501 478.5  C 497.64 478.5  495 475.86  495 472.5  C 495 469.14  497.64 466.5  501 466.5  Z " fill-rule="nonzero" fill="#f0f0f0" stroke="none" />
  <path d="M 501 467  C 504.08 467  506.5 469.42  506.5 472.5  C 506.5 475.58  504.08 478  501 478  C 497.92 478  495.5 475.58  495.5 472.5  C 495.5 469.42  497.92 467  501 467  Z " stroke-width="1" stroke="#333333" fill="none" />
  <path d="M 501 475.5  C 499.32 475.5  498 474.18  498 472.5  C 498 470.82  499.32 469.5  501 469.5  C 502.68 469.5  504 470.82  504 472.5  C 504 474.18  502.68 475.5  501 475.5  " fill-rule="nonzero" fill="#333333" stroke="none" />
</svg>