<?xml version="1.0" encoding="utf-8"?>
<svg version="1.1" xmlns:xlink="http://www.w3.org/1999/xlink" width="12px" height="12px" viewBox="431 521.5  12 12" xmlns="http://www.w3.org/2000/svg">
  <path d="M 437 521.5  C 440.36 521.5  443 524.14  443 527.5  C 443 530.86  440.36 533.5  437 533.5  C 433.64 533.5  431 530.86  431 527.5  C 431 524.14  433.64 521.5  437 521.5  Z " fill-rule="nonzero" fill="#f0f0f0" stroke="none" />
  <path d="M 437 522  C 440.08 522  442.5 524.42  442.5 527.5  C 442.5 530.58  440.08 533  437 533  C 433.92 533  431.5 530.58  431.5 527.5  C 431.5 524.42  433.92 522  437 522  Z " stroke-width="1" stroke="#333333" fill="none" />
  <path d="M 437 530.5  C 435.32 530.5  434 529.18  434 527.5  C 434 525.82  435.32 524.5  437 524.5  C 438.68 524.5  440 525.82  440 527.5  C 440 529.18  438.68 530.5  437 530.5  " fill-rule="nonzero" fill="#333333" stroke="none" />
</svg>