<?xml version="1.0" encoding="utf-8"?>
<svg version="1.1" xmlns:xlink="http://www.w3.org/1999/xlink" width="12px" height="12px" viewBox="301 548.5  12 12" xmlns="http://www.w3.org/2000/svg">
  <path d="M 307 548.5  C 310.36 548.5  313 551.14  313 554.5  C 313 557.86  310.36 560.5  307 560.5  C 303.64 560.5  301 557.86  301 554.5  C 301 551.14  303.64 548.5  307 548.5  Z " fill-rule="nonzero" fill="#f0f0f0" stroke="none" />
  <path d="M 307 549  C 310.08 549  312.5 551.42  312.5 554.5  C 312.5 557.58  310.08 560  307 560  C 303.92 560  301.5 557.58  301.5 554.5  C 301.5 551.42  303.92 549  307 549  Z " stroke-width="1" stroke="#797979" fill="none" />
  <path d="M 307 557.5  C 305.32 557.5  304 556.18  304 554.5  C 304 552.82  305.32 551.5  307 551.5  C 308.68 551.5  310 552.82  310 554.5  C 310 556.18  308.68 557.5  307 557.5  " fill-rule="nonzero" fill="#797979" stroke="none" />
</svg>