<?xml version="1.0" encoding="utf-8"?>
<svg version="1.1" xmlns:xlink="http://www.w3.org/1999/xlink" width="12px" height="12px" viewBox="382 769.5  12 12" xmlns="http://www.w3.org/2000/svg">
  <path d="M 388 769.5  C 391.36 769.5  394 772.14  394 775.5  C 394 778.86  391.36 781.5  388 781.5  C 384.64 781.5  382 778.86  382 775.5  C 382 772.14  384.64 769.5  388 769.5  Z " fill-rule="nonzero" fill="#f0f0f0" stroke="none" />
  <path d="M 388 770  C 391.08 770  393.5 772.42  393.5 775.5  C 393.5 778.58  391.08 781  388 781  C 384.92 781  382.5 778.58  382.5 775.5  C 382.5 772.42  384.92 770  388 770  Z " stroke-width="1" stroke="#333333" fill="none" />
  <path d="M 388 778.5  C 386.32 778.5  385 777.18  385 775.5  C 385 773.82  386.32 772.5  388 772.5  C 389.68 772.5  391 773.82  391 775.5  C 391 777.18  389.68 778.5  388 778.5  " fill-rule="nonzero" fill="#333333" stroke="none" />
</svg>