<?xml version="1.0" encoding="utf-8"?>
<svg version="1.1" xmlns:xlink="http://www.w3.org/1999/xlink" width="12px" height="12px" viewBox="431 802.5  12 12" xmlns="http://www.w3.org/2000/svg">
  <path d="M 437 802.5  C 440.36 802.5  443 805.14  443 808.5  C 443 811.86  440.36 814.5  437 814.5  C 433.64 814.5  431 811.86  431 808.5  C 431 805.14  433.64 802.5  437 802.5  Z " fill-rule="nonzero" fill="#f0f0f0" stroke="none" />
  <path d="M 437 803  C 440.08 803  442.5 805.42  442.5 808.5  C 442.5 811.58  440.08 814  437 814  C 433.92 814  431.5 811.58  431.5 808.5  C 431.5 805.42  433.92 803  437 803  Z " stroke-width="1" stroke="#333333" fill="none" />
  <path d="M 437 811.5  C 435.32 811.5  434 810.18  434 808.5  C 434 806.82  435.32 805.5  437 805.5  C 438.68 805.5  440 806.82  440 808.5  C 440 810.18  438.68 811.5  437 811.5  " fill-rule="nonzero" fill="#333333" stroke="none" />
</svg>