<?xml version="1.0" encoding="utf-8"?>
<svg version="1.1" xmlns:xlink="http://www.w3.org/1999/xlink" width="12px" height="12px" viewBox="446 769.5  12 12" xmlns="http://www.w3.org/2000/svg">
  <path d="M 452 769.5  C 455.36 769.5  458 772.14  458 775.5  C 458 778.86  455.36 781.5  452 781.5  C 448.64 781.5  446 778.86  446 775.5  C 446 772.14  448.64 769.5  452 769.5  Z " fill-rule="nonzero" fill="#f0f0f0" stroke="none" />
  <path d="M 452 770  C 455.08 770  457.5 772.42  457.5 775.5  C 457.5 778.58  455.08 781  452 781  C 448.92 781  446.5 778.58  446.5 775.5  C 446.5 772.42  448.92 770  452 770  Z " stroke-width="1" stroke="#333333" fill="none" />
  <path d="M 452 778.5  C 450.32 778.5  449 777.18  449 775.5  C 449 773.82  450.32 772.5  452 772.5  C 453.68 772.5  455 773.82  455 775.5  C 455 777.18  453.68 778.5  452 778.5  " fill-rule="nonzero" fill="#333333" stroke="none" />
</svg>