<?xml version="1.0" encoding="utf-8"?>
<svg version="1.1" xmlns:xlink="http://www.w3.org/1999/xlink" width="12px" height="12px" viewBox="301 802.5  12 12" xmlns="http://www.w3.org/2000/svg">
  <path d="M 307 802.5  C 310.36 802.5  313 805.14  313 808.5  C 313 811.86  310.36 814.5  307 814.5  C 303.64 814.5  301 811.86  301 808.5  C 301 805.14  303.64 802.5  307 802.5  Z " fill-rule="nonzero" fill="#f0f0f0" stroke="none" />
  <path d="M 307 803  C 310.08 803  312.5 805.42  312.5 808.5  C 312.5 811.58  310.08 814  307 814  C 303.92 814  301.5 811.58  301.5 808.5  C 301.5 805.42  303.92 803  307 803  Z " stroke-width="1" stroke="#797979" fill="none" />
  <path d="M 307 811.5  C 305.32 811.5  304 810.18  304 808.5  C 304 806.82  305.32 805.5  307 805.5  C 308.68 805.5  310 806.82  310 808.5  C 310 810.18  308.68 811.5  307 811.5  " fill-rule="nonzero" fill="#797979" stroke="none" />
</svg>