<?xml version="1.0" encoding="utf-8"?>
<svg version="1.1" xmlns:xlink="http://www.w3.org/1999/xlink" width="12px" height="12px" viewBox="301 769.5  12 12" xmlns="http://www.w3.org/2000/svg">
  <path d="M 307 769.5  C 310.36 769.5  313 772.14  313 775.5  C 313 778.86  310.36 781.5  307 781.5  C 303.64 781.5  301 778.86  301 775.5  C 301 772.14  303.64 769.5  307 769.5  Z " fill-rule="nonzero" fill="#f0f0f0" stroke="none" />
  <path d="M 307 770  C 310.08 770  312.5 772.42  312.5 775.5  C 312.5 778.58  310.08 781  307 781  C 303.92 781  301.5 778.58  301.5 775.5  C 301.5 772.42  303.92 770  307 770  Z " stroke-width="1" stroke="#797979" fill="none" />
  <path d="M 307 778.5  C 305.32 778.5  304 777.18  304 775.5  C 304 773.82  305.32 772.5  307 772.5  C 308.68 772.5  310 773.82  310 775.5  C 310 777.18  308.68 778.5  307 778.5  " fill-rule="nonzero" fill="#797979" stroke="none" />
</svg>