<?xml version="1.0" encoding="utf-8"?>
<svg version="1.1" xmlns:xlink="http://www.w3.org/1999/xlink" width="12px" height="12px" viewBox="301 944.5  12 12" xmlns="http://www.w3.org/2000/svg">
  <path d="M 307 944.5  C 310.36 944.5  313 947.14  313 950.5  C 313 953.86  310.36 956.5  307 956.5  C 303.64 956.5  301 953.86  301 950.5  C 301 947.14  303.64 944.5  307 944.5  Z " fill-rule="nonzero" fill="#ffffff" stroke="none" />
  <path d="M 307 945  C 310.08 945  312.5 947.42  312.5 950.5  C 312.5 953.58  310.08 956  307 956  C 303.92 956  301.5 953.58  301.5 950.5  C 301.5 947.42  303.92 945  307 945  Z " stroke-width="1" stroke="#333333" fill="none" />
  <path d="M 307 953.5  C 305.32 953.5  304 952.18  304 950.5  C 304 948.82  305.32 947.5  307 947.5  C 308.68 947.5  310 948.82  310 950.5  C 310 952.18  308.68 953.5  307 953.5  " fill-rule="nonzero" fill="#333333" stroke="none" />
</svg>