<?xml version="1.0" encoding="utf-8"?>
<svg version="1.1" xmlns:xlink="http://www.w3.org/1999/xlink" width="12px" height="12px" viewBox="301 868.5  12 12" xmlns="http://www.w3.org/2000/svg">
  <path d="M 307 868.5  C 310.36 868.5  313 871.14  313 874.5  C 313 877.86  310.36 880.5  307 880.5  C 303.64 880.5  301 877.86  301 874.5  C 301 871.14  303.64 868.5  307 868.5  Z " fill-rule="nonzero" fill="#ffffff" stroke="none" />
  <path d="M 307 869  C 310.08 869  312.5 871.42  312.5 874.5  C 312.5 877.58  310.08 880  307 880  C 303.92 880  301.5 877.58  301.5 874.5  C 301.5 871.42  303.92 869  307 869  Z " stroke-width="1" stroke="#797979" fill="none" />
  <path d="M 307 877.5  C 305.32 877.5  304 876.18  304 874.5  C 304 872.82  305.32 871.5  307 871.5  C 308.68 871.5  310 872.82  310 874.5  C 310 876.18  308.68 877.5  307 877.5  " fill-rule="nonzero" fill="#797979" stroke="none" />
</svg>