<?xml version="1.0" encoding="utf-8"?>
<svg version="1.1" xmlns:xlink="http://www.w3.org/1999/xlink" width="12px" height="12px" viewBox="301 919.5  12 12" xmlns="http://www.w3.org/2000/svg">
  <path d="M 307 919.5  C 310.36 919.5  313 922.14  313 925.5  C 313 928.86  310.36 931.5  307 931.5  C 303.64 931.5  301 928.86  301 925.5  C 301 922.14  303.64 919.5  307 919.5  Z " fill-rule="nonzero" fill="#ffffff" stroke="none" />
  <path d="M 307 920  C 310.08 920  312.5 922.42  312.5 925.5  C 312.5 928.58  310.08 931  307 931  C 303.92 931  301.5 928.58  301.5 925.5  C 301.5 922.42  303.92 920  307 920  Z " stroke-width="1" stroke="#333333" fill="none" />
  <path d="M 307 928.5  C 305.32 928.5  304 927.18  304 925.5  C 304 923.82  305.32 922.5  307 922.5  C 308.68 922.5  310 923.82  310 925.5  C 310 927.18  308.68 928.5  307 928.5  " fill-rule="nonzero" fill="#333333" stroke="none" />
</svg>