<?xml version="1.0" encoding="utf-8"?>
<svg version="1.1" xmlns:xlink="http://www.w3.org/1999/xlink" width="12px" height="12px" viewBox="301 893.5  12 12" xmlns="http://www.w3.org/2000/svg">
  <path d="M 307 893.5  C 310.36 893.5  313 896.14  313 899.5  C 313 902.86  310.36 905.5  307 905.5  C 303.64 905.5  301 902.86  301 899.5  C 301 896.14  303.64 893.5  307 893.5  Z " fill-rule="nonzero" fill="#ffffff" stroke="none" />
  <path d="M 307 894  C 310.08 894  312.5 896.42  312.5 899.5  C 312.5 902.58  310.08 905  307 905  C 303.92 905  301.5 902.58  301.5 899.5  C 301.5 896.42  303.92 894  307 894  Z " stroke-width="1" stroke="#333333" fill="none" />
  <path d="M 307 902.5  C 305.32 902.5  304 901.18  304 899.5  C 304 897.82  305.32 896.5  307 896.5  C 308.68 896.5  310 897.82  310 899.5  C 310 901.18  308.68 902.5  307 902.5  " fill-rule="nonzero" fill="#333333" stroke="none" />
</svg>