<?xml version="1.0" encoding="utf-8"?>
<svg version="1.1" xmlns:xlink="http://www.w3.org/1999/xlink" width="12px" height="12px" viewBox="556 1188.5  12 12" xmlns="http://www.w3.org/2000/svg">
  <path d="M 562 1188.5  C 565.36 1188.5  568 1191.14  568 1194.5  C 568 1197.86  565.36 1200.5  562 1200.5  C 558.64 1200.5  556 1197.86  556 1194.5  C 556 1191.14  558.64 1188.5  562 1188.5  Z " fill-rule="nonzero" fill="#f0f0f0" stroke="none" />
  <path d="M 562 1189  C 565.08 1189  567.5 1191.42  567.5 1194.5  C 567.5 1197.58  565.08 1200  562 1200  C 558.92 1200  556.5 1197.58  556.5 1194.5  C 556.5 1191.42  558.92 1189  562 1189  Z " stroke-width="1" stroke="#333333" fill="none" />
  <path d="M 562 1197.5  C 560.32 1197.5  559 1196.18  559 1194.5  C 559 1192.82  560.32 1191.5  562 1191.5  C 563.68 1191.5  565 1192.82  565 1194.5  C 565 1196.18  563.68 1197.5  562 1197.5  " fill-rule="nonzero" fill="#333333" stroke="none" />
</svg>