<?xml version="1.0" encoding="utf-8"?>
<svg version="1.1" xmlns:xlink="http://www.w3.org/1999/xlink" width="12px" height="12px" viewBox="423 1188.5  12 12" xmlns="http://www.w3.org/2000/svg">
  <path d="M 429 1188.5  C 432.36 1188.5  435 1191.14  435 1194.5  C 435 1197.86  432.36 1200.5  429 1200.5  C 425.64 1200.5  423 1197.86  423 1194.5  C 423 1191.14  425.64 1188.5  429 1188.5  Z " fill-rule="nonzero" fill="#ffffff" stroke="none" />
  <path d="M 429 1189  C 432.08 1189  434.5 1191.42  434.5 1194.5  C 434.5 1197.58  432.08 1200  429 1200  C 425.92 1200  423.5 1197.58  423.5 1194.5  C 423.5 1191.42  425.92 1189  429 1189  Z " stroke-width="1" stroke="#333333" fill="none" />
  <path d="M 429 1197.5  C 427.32 1197.5  426 1196.18  426 1194.5  C 426 1192.82  427.32 1191.5  429 1191.5  C 430.68 1191.5  432 1192.82  432 1194.5  C 432 1196.18  430.68 1197.5  429 1197.5  " fill-rule="nonzero" fill="#333333" stroke="none" />
</svg>