<?xml version="1.0" encoding="utf-8"?>
<svg version="1.1" xmlns:xlink="http://www.w3.org/1999/xlink" width="12px" height="12px" viewBox="556 1218.5  12 12" xmlns="http://www.w3.org/2000/svg">
  <path d="M 562 1218.5  C 565.36 1218.5  568 1221.14  568 1224.5  C 568 1227.86  565.36 1230.5  562 1230.5  C 558.64 1230.5  556 1227.86  556 1224.5  C 556 1221.14  558.64 1218.5  562 1218.5  Z " fill-rule="nonzero" fill="#ffffff" stroke="none" />
  <path d="M 562 1219  C 565.08 1219  567.5 1221.42  567.5 1224.5  C 567.5 1227.58  565.08 1230  562 1230  C 558.92 1230  556.5 1227.58  556.5 1224.5  C 556.5 1221.42  558.92 1219  562 1219  Z " stroke-width="1" stroke="#333333" fill="none" />
  <path d="M 562 1227.5  C 560.32 1227.5  559 1226.18  559 1224.5  C 559 1222.82  560.32 1221.5  562 1221.5  C 563.68 1221.5  565 1222.82  565 1224.5  C 565 1226.18  563.68 1227.5  562 1227.5  " fill-rule="nonzero" fill="#333333" stroke="none" />
</svg>