<?xml version="1.0" encoding="utf-8"?>
<svg version="1.1" xmlns:xlink="http://www.w3.org/1999/xlink" width="12px" height="12px" viewBox="556 1246.5  12 12" xmlns="http://www.w3.org/2000/svg">
  <path d="M 562 1246.5  C 565.36 1246.5  568 1249.14  568 1252.5  C 568 1255.86  565.36 1258.5  562 1258.5  C 558.64 1258.5  556 1255.86  556 1252.5  C 556 1249.14  558.64 1246.5  562 1246.5  Z " fill-rule="nonzero" fill="#ffffff" stroke="none" />
  <path d="M 562 1247  C 565.08 1247  567.5 1249.42  567.5 1252.5  C 567.5 1255.58  565.08 1258  562 1258  C 558.92 1258  556.5 1255.58  556.5 1252.5  C 556.5 1249.42  558.92 1247  562 1247  Z " stroke-width="1" stroke="#333333" fill="none" />
  <path d="M 562 1255.5  C 560.32 1255.5  559 1254.18  559 1252.5  C 559 1250.82  560.32 1249.5  562 1249.5  C 563.68 1249.5  565 1250.82  565 1252.5  C 565 1254.18  563.68 1255.5  562 1255.5  " fill-rule="nonzero" fill="#333333" stroke="none" />
</svg>