<?xml version="1.0" encoding="utf-8"?>
<svg version="1.1" xmlns:xlink="http://www.w3.org/1999/xlink" width="12px" height="12px" viewBox="782 524.5  12 12" xmlns="http://www.w3.org/2000/svg">
  <path d="M 788 524.5  C 791.36 524.5  794 527.14  794 530.5  C 794 533.86  791.36 536.5  788 536.5  C 784.64 536.5  782 533.86  782 530.5  C 782 527.14  784.64 524.5  788 524.5  Z " fill-rule="nonzero" fill="#f0f0f0" stroke="none" />
  <path d="M 788 525  C 791.08 525  793.5 527.42  793.5 530.5  C 793.5 533.58  791.08 536  788 536  C 784.92 536  782.5 533.58  782.5 530.5  C 782.5 527.42  784.92 525  788 525  Z " stroke-width="1" stroke="#797979" fill="none" />
  <path d="M 788 533.5  C 786.32 533.5  785 532.18  785 530.5  C 785 528.82  786.32 527.5  788 527.5  C 789.68 527.5  791 528.82  791 530.5  C 791 532.18  789.68 533.5  788 533.5  " fill-rule="nonzero" fill="#797979" stroke="none" />
</svg>