<?xml version="1.0" encoding="utf-8"?>
<svg version="1.1" xmlns:xlink="http://www.w3.org/1999/xlink" width="12px" height="12px" viewBox="976 464.5  12 12" xmlns="http://www.w3.org/2000/svg">
  <path d="M 982 464.5  C 985.36 464.5  988 467.14  988 470.5  C 988 473.86  985.36 476.5  982 476.5  C 978.64 476.5  976 473.86  976 470.5  C 976 467.14  978.64 464.5  982 464.5  Z " fill-rule="nonzero" fill="#ffffff" stroke="none" />
  <path d="M 982 465  C 985.08 465  987.5 467.42  987.5 470.5  C 987.5 473.58  985.08 476  982 476  C 978.92 476  976.5 473.58  976.5 470.5  C 976.5 467.42  978.92 465  982 465  Z " stroke-width="1" stroke="#333333" fill="none" />
  <path d="M 982 473.5  C 980.32 473.5  979 472.18  979 470.5  C 979 468.82  980.32 467.5  982 467.5  C 983.68 467.5  985 468.82  985 470.5  C 985 472.18  983.68 473.5  982 473.5  " fill-rule="nonzero" fill="#333333" stroke="none" />
</svg>