<?xml version="1.0" encoding="utf-8"?>
<svg version="1.1" xmlns:xlink="http://www.w3.org/1999/xlink" width="12px" height="12px" viewBox="782 464.5  12 12" xmlns="http://www.w3.org/2000/svg">
  <path d="M 788 464.5  C 791.36 464.5  794 467.14  794 470.5  C 794 473.86  791.36 476.5  788 476.5  C 784.64 476.5  782 473.86  782 470.5  C 782 467.14  784.64 464.5  788 464.5  Z " fill-rule="nonzero" fill="#ffffff" stroke="none" />
  <path d="M 788 465  C 791.08 465  793.5 467.42  793.5 470.5  C 793.5 473.58  791.08 476  788 476  C 784.92 476  782.5 473.58  782.5 470.5  C 782.5 467.42  784.92 465  788 465  Z " stroke-width="1" stroke="#797979" fill="none" />
  <path d="M 788 473.5  C 786.32 473.5  785 472.18  785 470.5  C 785 468.82  786.32 467.5  788 467.5  C 789.68 467.5  791 468.82  791 470.5  C 791 472.18  789.68 473.5  788 473.5  " fill-rule="nonzero" fill="#797979" stroke="none" />
</svg>