<?xml version="1.0" encoding="utf-8"?>
<svg version="1.1" xmlns:xlink="http://www.w3.org/1999/xlink" width="12px" height="12px" viewBox="912 464.5  12 12" xmlns="http://www.w3.org/2000/svg">
  <path d="M 918 464.5  C 921.36 464.5  924 467.14  924 470.5  C 924 473.86  921.36 476.5  918 476.5  C 914.64 476.5  912 473.86  912 470.5  C 912 467.14  914.64 464.5  918 464.5  Z " fill-rule="nonzero" fill="#f0f0f0" stroke="none" />
  <path d="M 918 465  C 921.08 465  923.5 467.42  923.5 470.5  C 923.5 473.58  921.08 476  918 476  C 914.92 476  912.5 473.58  912.5 470.5  C 912.5 467.42  914.92 465  918 465  Z " stroke-width="1" stroke="#333333" fill="none" />
  <path d="M 918 473.5  C 916.32 473.5  915 472.18  915 470.5  C 915 468.82  916.32 467.5  918 467.5  C 919.68 467.5  921 468.82  921 470.5  C 921 472.18  919.68 473.5  918 473.5  " fill-rule="nonzero" fill="#333333" stroke="none" />
</svg>