<?xml version="1.0" encoding="utf-8"?>
<svg version="1.1" xmlns:xlink="http://www.w3.org/1999/xlink" width="12px" height="12px" viewBox="843 437.5  12 12" xmlns="http://www.w3.org/2000/svg">
  <path d="M 849 437.5  C 852.36 437.5  855 440.14  855 443.5  C 855 446.86  852.36 449.5  849 449.5  C 845.64 449.5  843 446.86  843 443.5  C 843 440.14  845.64 437.5  849 437.5  Z " fill-rule="nonzero" fill="#ffffff" stroke="none" />
  <path d="M 849 438  C 852.08 438  854.5 440.42  854.5 443.5  C 854.5 446.58  852.08 449  849 449  C 845.92 449  843.5 446.58  843.5 443.5  C 843.5 440.42  845.92 438  849 438  Z " stroke-width="1" stroke="#333333" fill="none" />
  <path d="M 849 446.5  C 847.32 446.5  846 445.18  846 443.5  C 846 441.82  847.32 440.5  849 440.5  C 850.68 440.5  852 441.82  852 443.5  C 852 445.18  850.68 446.5  849 446.5  " fill-rule="nonzero" fill="#333333" stroke="none" />
</svg>