<?xml version="1.0" encoding="utf-8"?>
<svg version="1.1" xmlns:xlink="http://www.w3.org/1999/xlink" width="12px" height="12px" viewBox="912 437.5  12 12" xmlns="http://www.w3.org/2000/svg">
  <path d="M 918 437.5  C 921.36 437.5  924 440.14  924 443.5  C 924 446.86  921.36 449.5  918 449.5  C 914.64 449.5  912 446.86  912 443.5  C 912 440.14  914.64 437.5  918 437.5  Z " fill-rule="nonzero" fill="#ffffff" stroke="none" />
  <path d="M 918 438  C 921.08 438  923.5 440.42  923.5 443.5  C 923.5 446.58  921.08 449  918 449  C 914.92 449  912.5 446.58  912.5 443.5  C 912.5 440.42  914.92 438  918 438  Z " stroke-width="1" stroke="#333333" fill="none" />
  <path d="M 918 446.5  C 916.32 446.5  915 445.18  915 443.5  C 915 441.82  916.32 440.5  918 440.5  C 919.68 440.5  921 441.82  921 443.5  C 921 445.18  919.68 446.5  918 446.5  " fill-rule="nonzero" fill="#333333" stroke="none" />
</svg>