<?xml version="1.0" encoding="utf-8"?>
<svg version="1.1" xmlns:xlink="http://www.w3.org/1999/xlink" width="12px" height="12px" viewBox="976 437.5  12 12" xmlns="http://www.w3.org/2000/svg">
  <path d="M 982 437.5  C 985.36 437.5  988 440.14  988 443.5  C 988 446.86  985.36 449.5  982 449.5  C 978.64 449.5  976 446.86  976 443.5  C 976 440.14  978.64 437.5  982 437.5  Z " fill-rule="nonzero" fill="#ffffff" stroke="none" />
  <path d="M 982 438  C 985.08 438  987.5 440.42  987.5 443.5  C 987.5 446.58  985.08 449  982 449  C 978.92 449  976.5 446.58  976.5 443.5  C 976.5 440.42  978.92 438  982 438  Z " stroke-width="1" stroke="#333333" fill="none" />
  <path d="M 982 446.5  C 980.32 446.5  979 445.18  979 443.5  C 979 441.82  980.32 440.5  982 440.5  C 983.68 440.5  985 441.82  985 443.5  C 985 445.18  983.68 446.5  982 446.5  " fill-rule="nonzero" fill="#333333" stroke="none" />
</svg>