<?xml version="1.0" encoding="utf-8"?>
<svg version="1.1" xmlns:xlink="http://www.w3.org/1999/xlink" width="12px" height="12px" viewBox="912 555.5  12 12" xmlns="http://www.w3.org/2000/svg">
  <path d="M 918 555.5  C 921.36 555.5  924 558.14  924 561.5  C 924 564.86  921.36 567.5  918 567.5  C 914.64 567.5  912 564.86  912 561.5  C 912 558.14  914.64 555.5  918 555.5  Z " fill-rule="nonzero" fill="#ffffff" stroke="none" />
  <path d="M 918 556  C 921.08 556  923.5 558.42  923.5 561.5  C 923.5 564.58  921.08 567  918 567  C 914.92 567  912.5 564.58  912.5 561.5  C 912.5 558.42  914.92 556  918 556  Z " stroke-width="1" stroke="#333333" fill="none" />
  <path d="M 918 564.5  C 916.32 564.5  915 563.18  915 561.5  C 915 559.82  916.32 558.5  918 558.5  C 919.68 558.5  921 559.82  921 561.5  C 921 563.18  919.68 564.5  918 564.5  " fill-rule="nonzero" fill="#333333" stroke="none" />
</svg>