<?xml version="1.0" encoding="utf-8"?>
<svg version="1.1" xmlns:xlink="http://www.w3.org/1999/xlink" width="12px" height="12px" viewBox="912 524.5  12 12" xmlns="http://www.w3.org/2000/svg">
  <path d="M 918 524.5  C 921.36 524.5  924 527.14  924 530.5  C 924 533.86  921.36 536.5  918 536.5  C 914.64 536.5  912 533.86  912 530.5  C 912 527.14  914.64 524.5  918 524.5  Z " fill-rule="nonzero" fill="#ffffff" stroke="none" />
  <path d="M 918 525  C 921.08 525  923.5 527.42  923.5 530.5  C 923.5 533.58  921.08 536  918 536  C 914.92 536  912.5 533.58  912.5 530.5  C 912.5 527.42  914.92 525  918 525  Z " stroke-width="1" stroke="#333333" fill="none" />
  <path d="M 918 533.5  C 916.32 533.5  915 532.18  915 530.5  C 915 528.82  916.32 527.5  918 527.5  C 919.68 527.5  921 528.82  921 530.5  C 921 532.18  919.68 533.5  918 533.5  " fill-rule="nonzero" fill="#333333" stroke="none" />
</svg>