<?xml version="1.0" encoding="utf-8"?>
<svg version="1.1" xmlns:xlink="http://www.w3.org/1999/xlink" width="12px" height="12px" viewBox="998 555.5  12 12" xmlns="http://www.w3.org/2000/svg">
  <path d="M 1004 555.5  C 1007.36 555.5  1010 558.14  1010 561.5  C 1010 564.86  1007.36 567.5  1004 567.5  C 1000.64 567.5  998 564.86  998 561.5  C 998 558.14  1000.64 555.5  1004 555.5  Z " fill-rule="nonzero" fill="#ffffff" stroke="none" />
  <path d="M 1004 556  C 1007.08 556  1009.5 558.42  1009.5 561.5  C 1009.5 564.58  1007.08 567  1004 567  C 1000.92 567  998.5 564.58  998.5 561.5  C 998.5 558.42  1000.92 556  1004 556  Z " stroke-width="1" stroke="#333333" fill="none" />
  <path d="M 1004 564.5  C 1002.32 564.5  1001 563.18  1001 561.5  C 1001 559.82  1002.32 558.5  1004 558.5  C 1005.68 558.5  1007 559.82  1007 561.5  C 1007 563.18  1005.68 564.5  1004 564.5  " fill-rule="nonzero" fill="#333333" stroke="none" />
</svg>