<?xml version="1.0" encoding="utf-8"?>
<svg version="1.1" xmlns:xlink="http://www.w3.org/1999/xlink" width="12px" height="12px" viewBox="843 524.5  12 12" xmlns="http://www.w3.org/2000/svg">
  <path d="M 849 524.5  C 852.36 524.5  855 527.14  855 530.5  C 855 533.86  852.36 536.5  849 536.5  C 845.64 536.5  843 533.86  843 530.5  C 843 527.14  845.64 524.5  849 524.5  Z " fill-rule="nonzero" fill="#ffffff" stroke="none" />
  <path d="M 849 525  C 852.08 525  854.5 527.42  854.5 530.5  C 854.5 533.58  852.08 536  849 536  C 845.92 536  843.5 533.58  843.5 530.5  C 843.5 527.42  845.92 525  849 525  Z " stroke-width="1" stroke="#333333" fill="none" />
  <path d="M 849 533.5  C 847.32 533.5  846 532.18  846 530.5  C 846 528.82  847.32 527.5  849 527.5  C 850.68 527.5  852 528.82  852 530.5  C 852 532.18  850.68 533.5  849 533.5  " fill-rule="nonzero" fill="#333333" stroke="none" />
</svg>