<?xml version="1.0" encoding="utf-8"?>
<svg version="1.1" xmlns:xlink="http://www.w3.org/1999/xlink" width="12px" height="12px" viewBox="843 555.5  12 12" xmlns="http://www.w3.org/2000/svg">
  <path d="M 849 555.5  C 852.36 555.5  855 558.14  855 561.5  C 855 564.86  852.36 567.5  849 567.5  C 845.64 567.5  843 564.86  843 561.5  C 843 558.14  845.64 555.5  849 555.5  Z " fill-rule="nonzero" fill="#ffffff" stroke="none" />
  <path d="M 849 556  C 852.08 556  854.5 558.42  854.5 561.5  C 854.5 564.58  852.08 567  849 567  C 845.92 567  843.5 564.58  843.5 561.5  C 843.5 558.42  845.92 556  849 556  Z " stroke-width="1" stroke="#333333" fill="none" />
  <path d="M 849 564.5  C 847.32 564.5  846 563.18  846 561.5  C 846 559.82  847.32 558.5  849 558.5  C 850.68 558.5  852 559.82  852 561.5  C 852 563.18  850.68 564.5  849 564.5  " fill-rule="nonzero" fill="#333333" stroke="none" />
</svg>