<?xml version="1.0" encoding="utf-8"?>
<svg version="1.1" xmlns:xlink="http://www.w3.org/1999/xlink" width="12px" height="12px" viewBox="805 708.5  12 12" xmlns="http://www.w3.org/2000/svg">
  <path d="M 811 708.5  C 814.36 708.5  817 711.14  817 714.5  C 817 717.86  814.36 720.5  811 720.5  C 807.64 720.5  805 717.86  805 714.5  C 805 711.14  807.64 708.5  811 708.5  Z " fill-rule="nonzero" fill="#ffffff" stroke="none" />
  <path d="M 811 709  C 814.08 709  816.5 711.42  816.5 714.5  C 816.5 717.58  814.08 720  811 720  C 807.92 720  805.5 717.58  805.5 714.5  C 805.5 711.42  807.92 709  811 709  Z " stroke-width="1" stroke="#333333" fill="none" />
  <path d="M 811 717.5  C 809.32 717.5  808 716.18  808 714.5  C 808 712.82  809.32 711.5  811 711.5  C 812.68 711.5  814 712.82  814 714.5  C 814 716.18  812.68 717.5  811 717.5  " fill-rule="nonzero" fill="#333333" stroke="none" />
</svg>