<?xml version="1.0" encoding="utf-8"?>
<svg version="1.1" xmlns:xlink="http://www.w3.org/1999/xlink" width="12px" height="12px" viewBox="1041 756.5  12 12" xmlns="http://www.w3.org/2000/svg">
  <path d="M 1047 756.5  C 1050.36 756.5  1053 759.14  1053 762.5  C 1053 765.86  1050.36 768.5  1047 768.5  C 1043.64 768.5  1041 765.86  1041 762.5  C 1041 759.14  1043.64 756.5  1047 756.5  Z " fill-rule="nonzero" fill="#ffffff" stroke="none" />
  <path d="M 1047 757  C 1050.08 757  1052.5 759.42  1052.5 762.5  C 1052.5 765.58  1050.08 768  1047 768  C 1043.92 768  1041.5 765.58  1041.5 762.5  C 1041.5 759.42  1043.92 757  1047 757  Z " stroke-width="1" stroke="#333333" fill="none" />
  <path d="M 1047 765.5  C 1045.32 765.5  1044 764.18  1044 762.5  C 1044 760.82  1045.32 759.5  1047 759.5  C 1048.68 759.5  1050 760.82  1050 762.5  C 1050 764.18  1048.68 765.5  1047 765.5  " fill-rule="nonzero" fill="#333333" stroke="none" />
</svg>