<?xml version="1.0" encoding="utf-8"?>
<svg version="1.1" xmlns:xlink="http://www.w3.org/1999/xlink" width="12px" height="12px" viewBox="976 708.5  12 12" xmlns="http://www.w3.org/2000/svg">
  <path d="M 982 708.5  C 985.36 708.5  988 711.14  988 714.5  C 988 717.86  985.36 720.5  982 720.5  C 978.64 720.5  976 717.86  976 714.5  C 976 711.14  978.64 708.5  982 708.5  Z " fill-rule="nonzero" fill="#ffffff" stroke="none" />
  <path d="M 982 709  C 985.08 709  987.5 711.42  987.5 714.5  C 987.5 717.58  985.08 720  982 720  C 978.92 720  976.5 717.58  976.5 714.5  C 976.5 711.42  978.92 709  982 709  Z " stroke-width="1" stroke="#333333" fill="none" />
  <path d="M 982 717.5  C 980.32 717.5  979 716.18  979 714.5  C 979 712.82  980.32 711.5  982 711.5  C 983.68 711.5  985 712.82  985 714.5  C 985 716.18  983.68 717.5  982 717.5  " fill-rule="nonzero" fill="#333333" stroke="none" />
</svg>