<?xml version="1.0" encoding="utf-8"?>
<svg version="1.1" xmlns:xlink="http://www.w3.org/1999/xlink" width="12px" height="12px" viewBox="927 756.5  12 12" xmlns="http://www.w3.org/2000/svg">
  <path d="M 933 756.5  C 936.36 756.5  939 759.14  939 762.5  C 939 765.86  936.36 768.5  933 768.5  C 929.64 768.5  927 765.86  927 762.5  C 927 759.14  929.64 756.5  933 756.5  Z " fill-rule="nonzero" fill="#f0f0f0" stroke="none" />
  <path d="M 933 757  C 936.08 757  938.5 759.42  938.5 762.5  C 938.5 765.58  936.08 768  933 768  C 929.92 768  927.5 765.58  927.5 762.5  C 927.5 759.42  929.92 757  933 757  Z " stroke-width="1" stroke="#333333" fill="none" />
  <path d="M 933 765.5  C 931.32 765.5  930 764.18  930 762.5  C 930 760.82  931.32 759.5  933 759.5  C 934.68 759.5  936 760.82  936 762.5  C 936 764.18  934.68 765.5  933 765.5  " fill-rule="nonzero" fill="#333333" stroke="none" />
</svg>