<?xml version="1.0" encoding="utf-8"?>
<svg version="1.1" xmlns:xlink="http://www.w3.org/1999/xlink" width="12px" height="12px" viewBox="805 756.5  12 12" xmlns="http://www.w3.org/2000/svg">
  <path d="M 811 756.5  C 814.36 756.5  817 759.14  817 762.5  C 817 765.86  814.36 768.5  811 768.5  C 807.64 768.5  805 765.86  805 762.5  C 805 759.14  807.64 756.5  811 756.5  Z " fill-rule="nonzero" fill="#f0f0f0" stroke="none" />
  <path d="M 811 757  C 814.08 757  816.5 759.42  816.5 762.5  C 816.5 765.58  814.08 768  811 768  C 807.92 768  805.5 765.58  805.5 762.5  C 805.5 759.42  807.92 757  811 757  Z " stroke-width="1" stroke="#333333" fill="none" />
  <path d="M 811 765.5  C 809.32 765.5  808 764.18  808 762.5  C 808 760.82  809.32 759.5  811 759.5  C 812.68 759.5  814 760.82  814 762.5  C 814 764.18  812.68 765.5  811 765.5  " fill-rule="nonzero" fill="#333333" stroke="none" />
</svg>