<?xml version="1.0" encoding="utf-8"?>
<svg version="1.1" xmlns:xlink="http://www.w3.org/1999/xlink" width="12px" height="12px" viewBox="893 708.5  12 12" xmlns="http://www.w3.org/2000/svg">
  <path d="M 899 708.5  C 902.36 708.5  905 711.14  905 714.5  C 905 717.86  902.36 720.5  899 720.5  C 895.64 720.5  893 717.86  893 714.5  C 893 711.14  895.64 708.5  899 708.5  Z " fill-rule="nonzero" fill="#f0f0f0" stroke="none" />
  <path d="M 899 709  C 902.08 709  904.5 711.42  904.5 714.5  C 904.5 717.58  902.08 720  899 720  C 895.92 720  893.5 717.58  893.5 714.5  C 893.5 711.42  895.92 709  899 709  Z " stroke-width="1" stroke="#333333" fill="none" />
  <path d="M 899 717.5  C 897.32 717.5  896 716.18  896 714.5  C 896 712.82  897.32 711.5  899 711.5  C 900.68 711.5  902 712.82  902 714.5  C 902 716.18  900.68 717.5  899 717.5  " fill-rule="nonzero" fill="#333333" stroke="none" />
</svg>