<?xml version="1.0" encoding="utf-8"?>
<svg version="1.1" xmlns:xlink="http://www.w3.org/1999/xlink" width="12px" height="12px" viewBox="960 837.5  12 12" xmlns="http://www.w3.org/2000/svg">
  <path d="M 966 837.5  C 969.36 837.5  972 840.14  972 843.5  C 972 846.86  969.36 849.5  966 849.5  C 962.64 849.5  960 846.86  960 843.5  C 960 840.14  962.64 837.5  966 837.5  Z " fill-rule="nonzero" fill="#f0f0f0" stroke="none" />
  <path d="M 966 838  C 969.08 838  971.5 840.42  971.5 843.5  C 971.5 846.58  969.08 849  966 849  C 962.92 849  960.5 846.58  960.5 843.5  C 960.5 840.42  962.92 838  966 838  Z " stroke-width="1" stroke="#333333" fill="none" />
  <path d="M 966 846.5  C 964.32 846.5  963 845.18  963 843.5  C 963 841.82  964.32 840.5  966 840.5  C 967.68 840.5  969 841.82  969 843.5  C 969 845.18  967.68 846.5  966 846.5  " fill-rule="nonzero" fill="#333333" stroke="none" />
</svg>