<?xml version="1.0" encoding="utf-8"?>
<svg version="1.1" xmlns:xlink="http://www.w3.org/1999/xlink" width="12px" height="12px" viewBox="1027 837.5  12 12" xmlns="http://www.w3.org/2000/svg">
  <path d="M 1033 837.5  C 1036.36 837.5  1039 840.14  1039 843.5  C 1039 846.86  1036.36 849.5  1033 849.5  C 1029.64 849.5  1027 846.86  1027 843.5  C 1027 840.14  1029.64 837.5  1033 837.5  Z " fill-rule="nonzero" fill="#ffffff" stroke="none" />
  <path d="M 1033 838  C 1036.08 838  1038.5 840.42  1038.5 843.5  C 1038.5 846.58  1036.08 849  1033 849  C 1029.92 849  1027.5 846.58  1027.5 843.5  C 1027.5 840.42  1029.92 838  1033 838  Z " stroke-width="1" stroke="#333333" fill="none" />
  <path d="M 1033 846.5  C 1031.32 846.5  1030 845.18  1030 843.5  C 1030 841.82  1031.32 840.5  1033 840.5  C 1034.68 840.5  1036 841.82  1036 843.5  C 1036 845.18  1034.68 846.5  1033 846.5  " fill-rule="nonzero" fill="#333333" stroke="none" />
</svg>