<?xml version="1.0" encoding="utf-8"?>
<svg version="1.1" xmlns:xlink="http://www.w3.org/1999/xlink" width="12px" height="12px" viewBox="874 810.5  12 12" xmlns="http://www.w3.org/2000/svg">
  <path d="M 880 810.5  C 883.36 810.5  886 813.14  886 816.5  C 886 819.86  883.36 822.5  880 822.5  C 876.64 822.5  874 819.86  874 816.5  C 874 813.14  876.64 810.5  880 810.5  Z " fill-rule="nonzero" fill="#ffffff" stroke="none" />
  <path d="M 880 811  C 883.08 811  885.5 813.42  885.5 816.5  C 885.5 819.58  883.08 822  880 822  C 876.92 822  874.5 819.58  874.5 816.5  C 874.5 813.42  876.92 811  880 811  Z " stroke-width="1" stroke="#333333" fill="none" />
  <path d="M 880 819.5  C 878.32 819.5  877 818.18  877 816.5  C 877 814.82  878.32 813.5  880 813.5  C 881.68 813.5  883 814.82  883 816.5  C 883 818.18  881.68 819.5  880 819.5  " fill-rule="nonzero" fill="#333333" stroke="none" />
</svg>