<?xml version="1.0" encoding="utf-8"?>
<svg version="1.1" xmlns:xlink="http://www.w3.org/1999/xlink" width="12px" height="12px" viewBox="935 810.5  12 12" xmlns="http://www.w3.org/2000/svg">
  <path d="M 941 810.5  C 944.36 810.5  947 813.14  947 816.5  C 947 819.86  944.36 822.5  941 822.5  C 937.64 822.5  935 819.86  935 816.5  C 935 813.14  937.64 810.5  941 810.5  Z " fill-rule="nonzero" fill="#ffffff" stroke="none" />
  <path d="M 941 811  C 944.08 811  946.5 813.42  946.5 816.5  C 946.5 819.58  944.08 822  941 822  C 937.92 822  935.5 819.58  935.5 816.5  C 935.5 813.42  937.92 811  941 811  Z " stroke-width="1" stroke="#333333" fill="none" />
  <path d="M 941 819.5  C 939.32 819.5  938 818.18  938 816.5  C 938 814.82  939.32 813.5  941 813.5  C 942.68 813.5  944 814.82  944 816.5  C 944 818.18  942.68 819.5  941 819.5  " fill-rule="nonzero" fill="#333333" stroke="none" />
</svg>