<?xml version="1.0" encoding="utf-8"?>
<svg version="1.1" xmlns:xlink="http://www.w3.org/1999/xlink" width="12px" height="12px" viewBox="874 929.5  12 12" xmlns="http://www.w3.org/2000/svg">
  <path d="M 880 929.5  C 883.36 929.5  886 932.14  886 935.5  C 886 938.86  883.36 941.5  880 941.5  C 876.64 941.5  874 938.86  874 935.5  C 874 932.14  876.64 929.5  880 929.5  Z " fill-rule="nonzero" fill="#f0f0f0" stroke="none" />
  <path d="M 880 930  C 883.08 930  885.5 932.42  885.5 935.5  C 885.5 938.58  883.08 941  880 941  C 876.92 941  874.5 938.58  874.5 935.5  C 874.5 932.42  876.92 930  880 930  Z " stroke-width="1" stroke="#333333" fill="none" />
  <path d="M 880 938.5  C 878.32 938.5  877 937.18  877 935.5  C 877 933.82  878.32 932.5  880 932.5  C 881.68 932.5  883 933.82  883 935.5  C 883 937.18  881.68 938.5  880 938.5  " fill-rule="nonzero" fill="#333333" stroke="none" />
</svg>