<?xml version="1.0" encoding="utf-8"?>
<svg version="1.1" xmlns:xlink="http://www.w3.org/1999/xlink" width="12px" height="12px" viewBox="960 956.5  12 12" xmlns="http://www.w3.org/2000/svg">
  <path d="M 966 956.5  C 969.36 956.5  972 959.14  972 962.5  C 972 965.86  969.36 968.5  966 968.5  C 962.64 968.5  960 965.86  960 962.5  C 960 959.14  962.64 956.5  966 956.5  Z " fill-rule="nonzero" fill="#f0f0f0" stroke="none" />
  <path d="M 966 957  C 969.08 957  971.5 959.42  971.5 962.5  C 971.5 965.58  969.08 968  966 968  C 962.92 968  960.5 965.58  960.5 962.5  C 960.5 959.42  962.92 957  966 957  Z " stroke-width="1" stroke="#333333" fill="none" />
  <path d="M 966 965.5  C 964.32 965.5  963 964.18  963 962.5  C 963 960.82  964.32 959.5  966 959.5  C 967.68 959.5  969 960.82  969 962.5  C 969 964.18  967.68 965.5  966 965.5  " fill-rule="nonzero" fill="#333333" stroke="none" />
</svg>