<?xml version="1.0" encoding="utf-8"?>
<svg version="1.1" xmlns:xlink="http://www.w3.org/1999/xlink" width="12px" height="12px" viewBox="1027 865.5  12 12" xmlns="http://www.w3.org/2000/svg">
  <path d="M 1033 865.5  C 1036.36 865.5  1039 868.14  1039 871.5  C 1039 874.86  1036.36 877.5  1033 877.5  C 1029.64 877.5  1027 874.86  1027 871.5  C 1027 868.14  1029.64 865.5  1033 865.5  Z " fill-rule="nonzero" fill="#f0f0f0" stroke="none" />
  <path d="M 1033 866  C 1036.08 866  1038.5 868.42  1038.5 871.5  C 1038.5 874.58  1036.08 877  1033 877  C 1029.92 877  1027.5 874.58  1027.5 871.5  C 1027.5 868.42  1029.92 866  1033 866  Z " stroke-width="1" stroke="#333333" fill="none" />
  <path d="M 1033 874.5  C 1031.32 874.5  1030 873.18  1030 871.5  C 1030 869.82  1031.32 868.5  1033 868.5  C 1034.68 868.5  1036 869.82  1036 871.5  C 1036 873.18  1034.68 874.5  1033 874.5  " fill-rule="nonzero" fill="#333333" stroke="none" />
</svg>