<?xml version="1.0" encoding="utf-8"?>
<svg version="1.1" xmlns:xlink="http://www.w3.org/1999/xlink" width="12px" height="12px" viewBox="893 956.5  12 12" xmlns="http://www.w3.org/2000/svg">
  <path d="M 899 956.5  C 902.36 956.5  905 959.14  905 962.5  C 905 965.86  902.36 968.5  899 968.5  C 895.64 968.5  893 965.86  893 962.5  C 893 959.14  895.64 956.5  899 956.5  Z " fill-rule="nonzero" fill="#ffffff" stroke="none" />
  <path d="M 899 957  C 902.08 957  904.5 959.42  904.5 962.5  C 904.5 965.58  902.08 968  899 968  C 895.92 968  893.5 965.58  893.5 962.5  C 893.5 959.42  895.92 957  899 957  Z " stroke-width="1" stroke="#333333" fill="none" />
  <path d="M 899 965.5  C 897.32 965.5  896 964.18  896 962.5  C 896 960.82  897.32 959.5  899 959.5  C 900.68 959.5  902 960.82  902 962.5  C 902 964.18  900.68 965.5  899 965.5  " fill-rule="nonzero" fill="#333333" stroke="none" />
</svg>