<?xml version="1.0" encoding="utf-8"?>
<svg version="1.1" xmlns:xlink="http://www.w3.org/1999/xlink" width="12px" height="12px" viewBox="695 1210.5  12 12" xmlns="http://www.w3.org/2000/svg">
  <path d="M 701 1210.5  C 704.36 1210.5  707 1213.14  707 1216.5  C 707 1219.86  704.36 1222.5  701 1222.5  C 697.64 1222.5  695 1219.86  695 1216.5  C 695 1213.14  697.64 1210.5  701 1210.5  Z " fill-rule="nonzero" fill="#ffffff" stroke="none" />
  <path d="M 701 1211  C 704.08 1211  706.5 1213.42  706.5 1216.5  C 706.5 1219.58  704.08 1222  701 1222  C 697.92 1222  695.5 1219.58  695.5 1216.5  C 695.5 1213.42  697.92 1211  701 1211  Z " stroke-width="1" stroke="#333333" fill="none" />
  <path d="M 701 1219.5  C 699.32 1219.5  698 1218.18  698 1216.5  C 698 1214.82  699.32 1213.5  701 1213.5  C 702.68 1213.5  704 1214.82  704 1216.5  C 704 1218.18  702.68 1219.5  701 1219.5  " fill-rule="nonzero" fill="#333333" stroke="none" />
</svg>