<?xml version="1.0" encoding="utf-8"?>
<svg version="1.1" xmlns:xlink="http://www.w3.org/1999/xlink" width="12px" height="12px" viewBox="695 1072.5  12 12" xmlns="http://www.w3.org/2000/svg">
  <path d="M 701 1072.5  C 704.36 1072.5  707 1075.14  707 1078.5  C 707 1081.86  704.36 1084.5  701 1084.5  C 697.64 1084.5  695 1081.86  695 1078.5  C 695 1075.14  697.64 1072.5  701 1072.5  Z " fill-rule="nonzero" fill="#f0f0f0" stroke="none" />
  <path d="M 701 1073  C 704.08 1073  706.5 1075.42  706.5 1078.5  C 706.5 1081.58  704.08 1084  701 1084  C 697.92 1084  695.5 1081.58  695.5 1078.5  C 695.5 1075.42  697.92 1073  701 1073  Z " stroke-width="1" stroke="#333333" fill="none" />
  <path d="M 701 1081.5  C 699.32 1081.5  698 1080.18  698 1078.5  C 698 1076.82  699.32 1075.5  701 1075.5  C 702.68 1075.5  704 1076.82  704 1078.5  C 704 1080.18  702.68 1081.5  701 1081.5  " fill-rule="nonzero" fill="#333333" stroke="none" />
</svg>