<?xml version="1.0" encoding="utf-8"?>
<svg version="1.1" xmlns:xlink="http://www.w3.org/1999/xlink" width="60px" height="60px" xmlns="http://www.w3.org/2000/svg">
  <defs>
    <mask fill="white" id="clip6">
      <path d="M 10 93  C 8.335 93  7 91.665  7 90  L 7 36  C 7 34.335  8.335 33  10 33  L 64 33  C 65.665 33  67 34.335  67 36  L 67 90  C 67 91.665  65.665 93  64 93  " fill-rule="evenodd" />
    </mask>
  </defs>
  <g transform="matrix(1 0 0 1 -7 -33 )">
    <path d="M 7 33  L 67 33  L 67 93  L 7 93  L 7 33  " fill-rule="nonzero" fill="#cccccc" stroke="none" mask="url(#clip6)" />
    <path d="M 11 37  L 63 37  L 63 89  L 11 89  L 11 37  " fill-rule="nonzero" fill="#ffffff" stroke="none" mask="url(#clip6)" />
    <path d="M 42.7 51  C 40.18 51  38.2 49.02  38.2 46.5  C 38.2 43.98  40.18 42  42.7 42  C 45.22 42  47.2 43.98  47.2 46.5  C 47.2 49.02  45.22 51  42.7 51  " fill-rule="nonzero" fill="#cccccc" stroke="none" mask="url(#clip6)" />
    <path d="M 13 88  L 13 61.05  L 25.25 48.8  L 42.4 58.6  L 52.2 56.15  L 62 58.6  L 62 88  L 13 88  " fill-rule="nonzero" fill="#169bd5" stroke="none" mask="url(#clip6)" />
  </g>
</svg>