<?xml version="1.0" encoding="utf-8"?>
<svg version="1.1" xmlns:xlink="http://www.w3.org/1999/xlink" width="12px" height="12px" viewBox="237 525.5  12 12" xmlns="http://www.w3.org/2000/svg">
  <path d="M 243 525.5  C 246.36 525.5  249 528.14  249 531.5  C 249 534.86  246.36 537.5  243 537.5  C 239.64 537.5  237 534.86  237 531.5  C 237 528.14  239.64 525.5  243 525.5  Z " fill-rule="nonzero" fill="#f0f0f0" stroke="none" />
  <path d="M 243 526  C 246.08 526  248.5 528.42  248.5 531.5  C 248.5 534.58  246.08 537  243 537  C 239.92 537  237.5 534.58  237.5 531.5  C 237.5 528.42  239.92 526  243 526  Z " stroke-width="1" stroke="#333333" fill="none" />
  <path d="M 243 534.5  C 241.32 534.5  240 533.18  240 531.5  C 240 529.82  241.32 528.5  243 528.5  C 244.68 528.5  246 529.82  246 531.5  C 246 533.18  244.68 534.5  243 534.5  " fill-rule="nonzero" fill="#333333" stroke="none" />
</svg>