<?xml version="1.0" encoding="utf-8"?>
<svg version="1.1" xmlns:xlink="http://www.w3.org/1999/xlink" width="12px" height="12px" viewBox="237 696.5  12 12" xmlns="http://www.w3.org/2000/svg">
  <path d="M 243 696.5  C 246.36 696.5  249 699.14  249 702.5  C 249 705.86  246.36 708.5  243 708.5  C 239.64 708.5  237 705.86  237 702.5  C 237 699.14  239.64 696.5  243 696.5  Z " fill-rule="nonzero" fill="#f0f0f0" stroke="none" />
  <path d="M 243 697  C 246.08 697  248.5 699.42  248.5 702.5  C 248.5 705.58  246.08 708  243 708  C 239.92 708  237.5 705.58  237.5 702.5  C 237.5 699.42  239.92 697  243 697  Z " stroke-width="1" stroke="#333333" fill="none" />
  <path d="M 243 705.5  C 241.32 705.5  240 704.18  240 702.5  C 240 700.82  241.32 699.5  243 699.5  C 244.68 699.5  246 700.82  246 702.5  C 246 704.18  244.68 705.5  243 705.5  " fill-rule="nonzero" fill="#333333" stroke="none" />
</svg>