<?xml version="1.0" encoding="utf-8"?>
<svg version="1.1" xmlns:xlink="http://www.w3.org/1999/xlink" width="12px" height="12px" viewBox="781 696.5  12 12" xmlns="http://www.w3.org/2000/svg">
  <path d="M 787 696.5  C 790.36 696.5  793 699.14  793 702.5  C 793 705.86  790.36 708.5  787 708.5  C 783.64 708.5  781 705.86  781 702.5  C 781 699.14  783.64 696.5  787 696.5  Z " fill-rule="nonzero" fill="#ffffff" stroke="none" />
  <path d="M 787 697  C 790.08 697  792.5 699.42  792.5 702.5  C 792.5 705.58  790.08 708  787 708  C 783.92 708  781.5 705.58  781.5 702.5  C 781.5 699.42  783.92 697  787 697  Z " stroke-width="1" stroke="#333333" fill="none" />
  <path d="M 787 705.5  C 785.32 705.5  784 704.18  784 702.5  C 784 700.82  785.32 699.5  787 699.5  C 788.68 699.5  790 700.82  790 702.5  C 790 704.18  788.68 705.5  787 705.5  " fill-rule="nonzero" fill="#333333" stroke="none" />
</svg>