<?xml version="1.0" encoding="utf-8"?>
<svg version="1.1" xmlns:xlink="http://www.w3.org/1999/xlink" width="12px" height="12px" viewBox="903 696.5  12 12" xmlns="http://www.w3.org/2000/svg">
  <path d="M 909 696.5  C 912.36 696.5  915 699.14  915 702.5  C 915 705.86  912.36 708.5  909 708.5  C 905.64 708.5  903 705.86  903 702.5  C 903 699.14  905.64 696.5  909 696.5  Z " fill-rule="nonzero" fill="#ffffff" stroke="none" />
  <path d="M 909 697  C 912.08 697  914.5 699.42  914.5 702.5  C 914.5 705.58  912.08 708  909 708  C 905.92 708  903.5 705.58  903.5 702.5  C 903.5 699.42  905.92 697  909 697  Z " stroke-width="1" stroke="#797979" fill="none" />
  <path d="M 909 705.5  C 907.32 705.5  906 704.18  906 702.5  C 906 700.82  907.32 699.5  909 699.5  C 910.68 699.5  912 700.82  912 702.5  C 912 704.18  910.68 705.5  909 705.5  " fill-rule="nonzero" fill="#797979" stroke="none" />
</svg>