<?xml version="1.0" encoding="utf-8"?>
<svg version="1.1" xmlns:xlink="http://www.w3.org/1999/xlink" width="12px" height="12px" viewBox="187 836.5  12 12" xmlns="http://www.w3.org/2000/svg">
  <path d="M 193 836.5  C 196.36 836.5  199 839.14  199 842.5  C 199 845.86  196.36 848.5  193 848.5  C 189.64 848.5  187 845.86  187 842.5  C 187 839.14  189.64 836.5  193 836.5  Z " fill-rule="nonzero" fill="#ffffff" stroke="none" />
  <path d="M 193 837  C 196.08 837  198.5 839.42  198.5 842.5  C 198.5 845.58  196.08 848  193 848  C 189.92 848  187.5 845.58  187.5 842.5  C 187.5 839.42  189.92 837  193 837  Z " stroke-width="1" stroke="#797979" fill="none" />
  <path d="M 193 845.5  C 191.32 845.5  190 844.18  190 842.5  C 190 840.82  191.32 839.5  193 839.5  C 194.68 839.5  196 840.82  196 842.5  C 196 844.18  194.68 845.5  193 845.5  " fill-rule="nonzero" fill="#797979" stroke="none" />
</svg>