<?xml version="1.0" encoding="utf-8"?>
<svg version="1.1" xmlns:xlink="http://www.w3.org/1999/xlink" width="12px" height="12px" viewBox="932 572.5  12 12" xmlns="http://www.w3.org/2000/svg">
  <path d="M 938 572.5  C 941.36 572.5  944 575.14  944 578.5  C 944 581.86  941.36 584.5  938 584.5  C 934.64 584.5  932 581.86  932 578.5  C 932 575.14  934.64 572.5  938 572.5  Z " fill-rule="nonzero" fill="#f0f0f0" stroke="none" />
  <path d="M 938 573  C 941.08 573  943.5 575.42  943.5 578.5  C 943.5 581.58  941.08 584  938 584  C 934.92 584  932.5 581.58  932.5 578.5  C 932.5 575.42  934.92 573  938 573  Z " stroke-width="1" stroke="#797979" fill="none" />
  <path d="M 938 581.5  C 936.32 581.5  935 580.18  935 578.5  C 935 576.82  936.32 575.5  938 575.5  C 939.68 575.5  941 576.82  941 578.5  C 941 580.18  939.68 581.5  938 581.5  " fill-rule="nonzero" fill="#797979" stroke="none" />
</svg>