<?xml version="1.0" encoding="utf-8"?>
<svg version="1.1" xmlns:xlink="http://www.w3.org/1999/xlink" width="12px" height="12px" viewBox="732 613.5  12 12" xmlns="http://www.w3.org/2000/svg">
  <path d="M 738 613.5  C 741.36 613.5  744 616.14  744 619.5  C 744 622.86  741.36 625.5  738 625.5  C 734.64 625.5  732 622.86  732 619.5  C 732 616.14  734.64 613.5  738 613.5  Z " fill-rule="nonzero" fill="#ffffff" stroke="none" />
  <path d="M 738 614  C 741.08 614  743.5 616.42  743.5 619.5  C 743.5 622.58  741.08 625  738 625  C 734.92 625  732.5 622.58  732.5 619.5  C 732.5 616.42  734.92 614  738 614  Z " stroke-width="1" stroke="#797979" fill="none" />
  <path d="M 738 622.5  C 736.32 622.5  735 621.18  735 619.5  C 735 617.82  736.32 616.5  738 616.5  C 739.68 616.5  741 617.82  741 619.5  C 741 621.18  739.68 622.5  738 622.5  " fill-rule="nonzero" fill="#797979" stroke="none" />
</svg>