<?xml version="1.0" encoding="utf-8"?>
<svg version="1.1" xmlns:xlink="http://www.w3.org/1999/xlink" width="12px" height="12px" viewBox="732 492.5  12 12" xmlns="http://www.w3.org/2000/svg">
  <path d="M 738 492.5  C 741.36 492.5  744 495.14  744 498.5  C 744 501.86  741.36 504.5  738 504.5  C 734.64 504.5  732 501.86  732 498.5  C 732 495.14  734.64 492.5  738 492.5  Z " fill-rule="nonzero" fill="#f0f0f0" stroke="none" />
  <path d="M 738 493  C 741.08 493  743.5 495.42  743.5 498.5  C 743.5 501.58  741.08 504  738 504  C 734.92 504  732.5 501.58  732.5 498.5  C 732.5 495.42  734.92 493  738 493  Z " stroke-width="1" stroke="#797979" fill="none" />
  <path d="M 738 501.5  C 736.32 501.5  735 500.18  735 498.5  C 735 496.82  736.32 495.5  738 495.5  C 739.68 495.5  741 496.82  741 498.5  C 741 500.18  739.68 501.5  738 501.5  " fill-rule="nonzero" fill="#797979" stroke="none" />
</svg>