<?xml version="1.0" encoding="utf-8"?>
<svg version="1.1" xmlns:xlink="http://www.w3.org/1999/xlink" width="12px" height="12px" viewBox="932 492.5  12 12" xmlns="http://www.w3.org/2000/svg">
  <path d="M 938 492.5  C 941.36 492.5  944 495.14  944 498.5  C 944 501.86  941.36 504.5  938 504.5  C 934.64 504.5  932 501.86  932 498.5  C 932 495.14  934.64 492.5  938 492.5  Z " fill-rule="nonzero" fill="#ffffff" stroke="none" />
  <path d="M 938 493  C 941.08 493  943.5 495.42  943.5 498.5  C 943.5 501.58  941.08 504  938 504  C 934.92 504  932.5 501.58  932.5 498.5  C 932.5 495.42  934.92 493  938 493  Z " stroke-width="1" stroke="#797979" fill="none" />
  <path d="M 938 501.5  C 936.32 501.5  935 500.18  935 498.5  C 935 496.82  936.32 495.5  938 495.5  C 939.68 495.5  941 496.82  941 498.5  C 941 500.18  939.68 501.5  938 501.5  " fill-rule="nonzero" fill="#797979" stroke="none" />
</svg>