<?xml version="1.0" encoding="utf-8"?>
<svg version="1.1" xmlns:xlink="http://www.w3.org/1999/xlink" width="12px" height="12px" viewBox="832 572.5  12 12" xmlns="http://www.w3.org/2000/svg">
  <path d="M 838 572.5  C 841.36 572.5  844 575.14  844 578.5  C 844 581.86  841.36 584.5  838 584.5  C 834.64 584.5  832 581.86  832 578.5  C 832 575.14  834.64 572.5  838 572.5  Z " fill-rule="nonzero" fill="#ffffff" stroke="none" />
  <path d="M 838 573  C 841.08 573  843.5 575.42  843.5 578.5  C 843.5 581.58  841.08 584  838 584  C 834.92 584  832.5 581.58  832.5 578.5  C 832.5 575.42  834.92 573  838 573  Z " stroke-width="1" stroke="#333333" fill="none" />
  <path d="M 838 581.5  C 836.32 581.5  835 580.18  835 578.5  C 835 576.82  836.32 575.5  838 575.5  C 839.68 575.5  841 576.82  841 578.5  C 841 580.18  839.68 581.5  838 581.5  " fill-rule="nonzero" fill="#333333" stroke="none" />
</svg>