<?xml version="1.0" encoding="utf-8"?>
<svg version="1.1" xmlns:xlink="http://www.w3.org/1999/xlink" width="12px" height="12px" viewBox="732 529.5  12 12" xmlns="http://www.w3.org/2000/svg">
  <path d="M 738 529.5  C 741.36 529.5  744 532.14  744 535.5  C 744 538.86  741.36 541.5  738 541.5  C 734.64 541.5  732 538.86  732 535.5  C 732 532.14  734.64 529.5  738 529.5  Z " fill-rule="nonzero" fill="#f0f0f0" stroke="none" />
  <path d="M 738 530  C 741.08 530  743.5 532.42  743.5 535.5  C 743.5 538.58  741.08 541  738 541  C 734.92 541  732.5 538.58  732.5 535.5  C 732.5 532.42  734.92 530  738 530  Z " stroke-width="1" stroke="#797979" fill="none" />
  <path d="M 738 538.5  C 736.32 538.5  735 537.18  735 535.5  C 735 533.82  736.32 532.5  738 532.5  C 739.68 532.5  741 533.82  741 535.5  C 741 537.18  739.68 538.5  738 538.5  " fill-rule="nonzero" fill="#797979" stroke="none" />
</svg>