<?xml version="1.0" encoding="utf-8"?>
<svg version="1.1" xmlns:xlink="http://www.w3.org/1999/xlink" width="12px" height="12px" viewBox="732 693.5  12 12" xmlns="http://www.w3.org/2000/svg">
  <path d="M 738 693.5  C 741.36 693.5  744 696.14  744 699.5  C 744 702.86  741.36 705.5  738 705.5  C 734.64 705.5  732 702.86  732 699.5  C 732 696.14  734.64 693.5  738 693.5  Z " fill-rule="nonzero" fill="#f0f0f0" stroke="none" />
  <path d="M 738 694  C 741.08 694  743.5 696.42  743.5 699.5  C 743.5 702.58  741.08 705  738 705  C 734.92 705  732.5 702.58  732.5 699.5  C 732.5 696.42  734.92 694  738 694  Z " stroke-width="1" stroke="#797979" fill="none" />
  <path d="M 738 702.5  C 736.32 702.5  735 701.18  735 699.5  C 735 697.82  736.32 696.5  738 696.5  C 739.68 696.5  741 697.82  741 699.5  C 741 701.18  739.68 702.5  738 702.5  " fill-rule="nonzero" fill="#797979" stroke="none" />
</svg>