<?xml version="1.0" encoding="utf-8"?>
<svg version="1.1" xmlns:xlink="http://www.w3.org/1999/xlink" width="12px" height="12px" viewBox="832 774.5  12 12" xmlns="http://www.w3.org/2000/svg">
  <path d="M 838 774.5  C 841.36 774.5  844 777.14  844 780.5  C 844 783.86  841.36 786.5  838 786.5  C 834.64 786.5  832 783.86  832 780.5  C 832 777.14  834.64 774.5  838 774.5  Z " fill-rule="nonzero" fill="#f0f0f0" stroke="none" />
  <path d="M 838 775  C 841.08 775  843.5 777.42  843.5 780.5  C 843.5 783.58  841.08 786  838 786  C 834.92 786  832.5 783.58  832.5 780.5  C 832.5 777.42  834.92 775  838 775  Z " stroke-width="1" stroke="#333333" fill="none" />
  <path d="M 838 783.5  C 836.32 783.5  835 782.18  835 780.5  C 835 778.82  836.32 777.5  838 777.5  C 839.68 777.5  841 778.82  841 780.5  C 841 782.18  839.68 783.5  838 783.5  " fill-rule="nonzero" fill="#333333" stroke="none" />
</svg>