<?xml version="1.0" encoding="utf-8"?>
<svg version="1.1" xmlns:xlink="http://www.w3.org/1999/xlink" width="12px" height="12px" viewBox="732 933.5  12 12" xmlns="http://www.w3.org/2000/svg">
  <path d="M 738 933.5  C 741.36 933.5  744 936.14  744 939.5  C 744 942.86  741.36 945.5  738 945.5  C 734.64 945.5  732 942.86  732 939.5  C 732 936.14  734.64 933.5  738 933.5  Z " fill-rule="nonzero" fill="#f0f0f0" stroke="none" />
  <path d="M 738 934  C 741.08 934  743.5 936.42  743.5 939.5  C 743.5 942.58  741.08 945  738 945  C 734.92 945  732.5 942.58  732.5 939.5  C 732.5 936.42  734.92 934  738 934  Z " stroke-width="1" stroke="#797979" fill="none" />
  <path d="M 738 942.5  C 736.32 942.5  735 941.18  735 939.5  C 735 937.82  736.32 936.5  738 936.5  C 739.68 936.5  741 937.82  741 939.5  C 741 941.18  739.68 942.5  738 942.5  " fill-rule="nonzero" fill="#797979" stroke="none" />
</svg>