<?xml version="1.0" encoding="utf-8"?>
<svg version="1.1" xmlns:xlink="http://www.w3.org/1999/xlink" width="12px" height="12px" viewBox="832 892.5  12 12" xmlns="http://www.w3.org/2000/svg">
  <path d="M 838 892.5  C 841.36 892.5  844 895.14  844 898.5  C 844 901.86  841.36 904.5  838 904.5  C 834.64 904.5  832 901.86  832 898.5  C 832 895.14  834.64 892.5  838 892.5  Z " fill-rule="nonzero" fill="#f0f0f0" stroke="none" />
  <path d="M 838 893  C 841.08 893  843.5 895.42  843.5 898.5  C 843.5 901.58  841.08 904  838 904  C 834.92 904  832.5 901.58  832.5 898.5  C 832.5 895.42  834.92 893  838 893  Z " stroke-width="1" stroke="#333333" fill="none" />
  <path d="M 838 901.5  C 836.32 901.5  835 900.18  835 898.5  C 835 896.82  836.32 895.5  838 895.5  C 839.68 895.5  841 896.82  841 898.5  C 841 900.18  839.68 901.5  838 901.5  " fill-rule="nonzero" fill="#333333" stroke="none" />
</svg>