<?xml version="1.0" encoding="utf-8"?>
<svg version="1.1" xmlns:xlink="http://www.w3.org/1999/xlink" width="12px" height="12px" viewBox="832 972.5  12 12" xmlns="http://www.w3.org/2000/svg">
  <path d="M 838 972.5  C 841.36 972.5  844 975.14  844 978.5  C 844 981.86  841.36 984.5  838 984.5  C 834.64 984.5  832 981.86  832 978.5  C 832 975.14  834.64 972.5  838 972.5  Z " fill-rule="nonzero" fill="#ffffff" stroke="none" />
  <path d="M 838 973  C 841.08 973  843.5 975.42  843.5 978.5  C 843.5 981.58  841.08 984  838 984  C 834.92 984  832.5 981.58  832.5 978.5  C 832.5 975.42  834.92 973  838 973  Z " stroke-width="1" stroke="#333333" fill="none" />
  <path d="M 838 981.5  C 836.32 981.5  835 980.18  835 978.5  C 835 976.82  836.32 975.5  838 975.5  C 839.68 975.5  841 976.82  841 978.5  C 841 980.18  839.68 981.5  838 981.5  " fill-rule="nonzero" fill="#333333" stroke="none" />
</svg>