<?xml version="1.0" encoding="utf-8"?>
<svg version="1.1" xmlns:xlink="http://www.w3.org/1999/xlink" width="12px" height="12px" viewBox="832 812.5  12 12" xmlns="http://www.w3.org/2000/svg">
  <path d="M 838 812.5  C 841.36 812.5  844 815.14  844 818.5  C 844 821.86  841.36 824.5  838 824.5  C 834.64 824.5  832 821.86  832 818.5  C 832 815.14  834.64 812.5  838 812.5  Z " fill-rule="nonzero" fill="#ffffff" stroke="none" />
  <path d="M 838 813  C 841.08 813  843.5 815.42  843.5 818.5  C 843.5 821.58  841.08 824  838 824  C 834.92 824  832.5 821.58  832.5 818.5  C 832.5 815.42  834.92 813  838 813  Z " stroke-width="1" stroke="#333333" fill="none" />
  <path d="M 838 821.5  C 836.32 821.5  835 820.18  835 818.5  C 835 816.82  836.32 815.5  838 815.5  C 839.68 815.5  841 816.82  841 818.5  C 841 820.18  839.68 821.5  838 821.5  " fill-rule="nonzero" fill="#333333" stroke="none" />
</svg>