<?xml version="1.0" encoding="utf-8"?>
<svg version="1.1" xmlns:xlink="http://www.w3.org/1999/xlink" width="12px" height="12px" viewBox="732 812.5  12 12" xmlns="http://www.w3.org/2000/svg">
  <path d="M 738 812.5  C 741.36 812.5  744 815.14  744 818.5  C 744 821.86  741.36 824.5  738 824.5  C 734.64 824.5  732 821.86  732 818.5  C 732 815.14  734.64 812.5  738 812.5  Z " fill-rule="nonzero" fill="#f0f0f0" stroke="none" />
  <path d="M 738 813  C 741.08 813  743.5 815.42  743.5 818.5  C 743.5 821.58  741.08 824  738 824  C 734.92 824  732.5 821.58  732.5 818.5  C 732.5 815.42  734.92 813  738 813  Z " stroke-width="1" stroke="#797979" fill="none" />
  <path d="M 738 821.5  C 736.32 821.5  735 820.18  735 818.5  C 735 816.82  736.32 815.5  738 815.5  C 739.68 815.5  741 816.82  741 818.5  C 741 820.18  739.68 821.5  738 821.5  " fill-rule="nonzero" fill="#797979" stroke="none" />
</svg>