<?xml version="1.0" encoding="utf-8"?>
<svg version="1.1" xmlns:xlink="http://www.w3.org/1999/xlink" width="12px" height="12px" viewBox="832 734.5  12 12" xmlns="http://www.w3.org/2000/svg">
  <path d="M 838 734.5  C 841.36 734.5  844 737.14  844 740.5  C 844 743.86  841.36 746.5  838 746.5  C 834.64 746.5  832 743.86  832 740.5  C 832 737.14  834.64 734.5  838 734.5  Z " fill-rule="nonzero" fill="#f0f0f0" stroke="none" />
  <path d="M 838 735  C 841.08 735  843.5 737.42  843.5 740.5  C 843.5 743.58  841.08 746  838 746  C 834.92 746  832.5 743.58  832.5 740.5  C 832.5 737.42  834.92 735  838 735  Z " stroke-width="1" stroke="#333333" fill="none" />
  <path d="M 838 743.5  C 836.32 743.5  835 742.18  835 740.5  C 835 738.82  836.32 737.5  838 737.5  C 839.68 737.5  841 738.82  841 740.5  C 841 742.18  839.68 743.5  838 743.5  " fill-rule="nonzero" fill="#333333" stroke="none" />
</svg>