<?xml version="1.0" encoding="utf-8"?>
<svg version="1.1" xmlns:xlink="http://www.w3.org/1999/xlink" width="12px" height="12px" viewBox="732 774.5  12 12" xmlns="http://www.w3.org/2000/svg">
  <path d="M 738 774.5  C 741.36 774.5  744 777.14  744 780.5  C 744 783.86  741.36 786.5  738 786.5  C 734.64 786.5  732 783.86  732 780.5  C 732 777.14  734.64 774.5  738 774.5  Z " fill-rule="nonzero" fill="#ffffff" stroke="none" />
  <path d="M 738 775  C 741.08 775  743.5 777.42  743.5 780.5  C 743.5 783.58  741.08 786  738 786  C 734.92 786  732.5 783.58  732.5 780.5  C 732.5 777.42  734.92 775  738 775  Z " stroke-width="1" stroke="#797979" fill="none" />
  <path d="M 738 783.5  C 736.32 783.5  735 782.18  735 780.5  C 735 778.82  736.32 777.5  738 777.5  C 739.68 777.5  741 778.82  741 780.5  C 741 782.18  739.68 783.5  738 783.5  " fill-rule="nonzero" fill="#797979" stroke="none" />
</svg>