<?xml version="1.0" encoding="utf-8"?>
<svg version="1.1" xmlns:xlink="http://www.w3.org/1999/xlink" width="12px" height="12px" viewBox="832 852.5  12 12" xmlns="http://www.w3.org/2000/svg">
  <path d="M 838 852.5  C 841.36 852.5  844 855.14  844 858.5  C 844 861.86  841.36 864.5  838 864.5  C 834.64 864.5  832 861.86  832 858.5  C 832 855.14  834.64 852.5  838 852.5  Z " fill-rule="nonzero" fill="#f0f0f0" stroke="none" />
  <path d="M 838 853  C 841.08 853  843.5 855.42  843.5 858.5  C 843.5 861.58  841.08 864  838 864  C 834.92 864  832.5 861.58  832.5 858.5  C 832.5 855.42  834.92 853  838 853  Z " stroke-width="1" stroke="#333333" fill="none" />
  <path d="M 838 861.5  C 836.32 861.5  835 860.18  835 858.5  C 835 856.82  836.32 855.5  838 855.5  C 839.68 855.5  841 856.82  841 858.5  C 841 860.18  839.68 861.5  838 861.5  " fill-rule="nonzero" fill="#333333" stroke="none" />
</svg>