<?xml version="1.0" encoding="utf-8"?>
<svg version="1.1" xmlns:xlink="http://www.w3.org/1999/xlink" width="12px" height="12px" viewBox="932 734.5  12 12" xmlns="http://www.w3.org/2000/svg">
  <path d="M 938 734.5  C 941.36 734.5  944 737.14  944 740.5  C 944 743.86  941.36 746.5  938 746.5  C 934.64 746.5  932 743.86  932 740.5  C 932 737.14  934.64 734.5  938 734.5  Z " fill-rule="nonzero" fill="#f0f0f0" stroke="none" />
  <path d="M 938 735  C 941.08 735  943.5 737.42  943.5 740.5  C 943.5 743.58  941.08 746  938 746  C 934.92 746  932.5 743.58  932.5 740.5  C 932.5 737.42  934.92 735  938 735  Z " stroke-width="1" stroke="#797979" fill="none" />
  <path d="M 938 743.5  C 936.32 743.5  935 742.18  935 740.5  C 935 738.82  936.32 737.5  938 737.5  C 939.68 737.5  941 738.82  941 740.5  C 941 742.18  939.68 743.5  938 743.5  " fill-rule="nonzero" fill="#797979" stroke="none" />
</svg>