<?xml version="1.0" encoding="utf-8"?>
<svg version="1.1" xmlns:xlink="http://www.w3.org/1999/xlink" width="12px" height="12px" viewBox="832 933.5  12 12" xmlns="http://www.w3.org/2000/svg">
  <path d="M 838 933.5  C 841.36 933.5  844 936.14  844 939.5  C 844 942.86  841.36 945.5  838 945.5  C 834.64 945.5  832 942.86  832 939.5  C 832 936.14  834.64 933.5  838 933.5  Z " fill-rule="nonzero" fill="#ffffff" stroke="none" />
  <path d="M 838 934  C 841.08 934  843.5 936.42  843.5 939.5  C 843.5 942.58  841.08 945  838 945  C 834.92 945  832.5 942.58  832.5 939.5  C 832.5 936.42  834.92 934  838 934  Z " stroke-width="1" stroke="#333333" fill="none" />
  <path d="M 838 942.5  C 836.32 942.5  835 941.18  835 939.5  C 835 937.82  836.32 936.5  838 936.5  C 839.68 936.5  841 937.82  841 939.5  C 841 941.18  839.68 942.5  838 942.5  " fill-rule="nonzero" fill="#333333" stroke="none" />
</svg>