<?xml version="1.0" encoding="utf-8"?>
<svg version="1.1" xmlns:xlink="http://www.w3.org/1999/xlink" width="12px" height="12px" viewBox="932 652.5  12 12" xmlns="http://www.w3.org/2000/svg">
  <path d="M 938 652.5  C 941.36 652.5  944 655.14  944 658.5  C 944 661.86  941.36 664.5  938 664.5  C 934.64 664.5  932 661.86  932 658.5  C 932 655.14  934.64 652.5  938 652.5  Z " fill-rule="nonzero" fill="#f0f0f0" stroke="none" />
  <path d="M 938 653  C 941.08 653  943.5 655.42  943.5 658.5  C 943.5 661.58  941.08 664  938 664  C 934.92 664  932.5 661.58  932.5 658.5  C 932.5 655.42  934.92 653  938 653  Z " stroke-width="1" stroke="#797979" fill="none" />
  <path d="M 938 661.5  C 936.32 661.5  935 660.18  935 658.5  C 935 656.82  936.32 655.5  938 655.5  C 939.68 655.5  941 656.82  941 658.5  C 941 660.18  939.68 661.5  938 661.5  " fill-rule="nonzero" fill="#797979" stroke="none" />
</svg>