<?xml version="1.0" encoding="utf-8"?>
<svg version="1.1" xmlns:xlink="http://www.w3.org/1999/xlink" width="12px" height="12px" viewBox="932 933.5  12 12" xmlns="http://www.w3.org/2000/svg">
  <path d="M 938 933.5  C 941.36 933.5  944 936.14  944 939.5  C 944 942.86  941.36 945.5  938 945.5  C 934.64 945.5  932 942.86  932 939.5  C 932 936.14  934.64 933.5  938 933.5  Z " fill-rule="nonzero" fill="#ffffff" stroke="none" />
  <path d="M 938 934  C 941.08 934  943.5 936.42  943.5 939.5  C 943.5 942.58  941.08 945  938 945  C 934.92 945  932.5 942.58  932.5 939.5  C 932.5 936.42  934.92 934  938 934  Z " stroke-width="1" stroke="#797979" fill="none" />
  <path d="M 938 942.5  C 936.32 942.5  935 941.18  935 939.5  C 935 937.82  936.32 936.5  938 936.5  C 939.68 936.5  941 937.82  941 939.5  C 941 941.18  939.68 942.5  938 942.5  " fill-rule="nonzero" fill="#797979" stroke="none" />
</svg>