<?xml version="1.0" encoding="utf-8"?>
<svg version="1.1" xmlns:xlink="http://www.w3.org/1999/xlink" width="12px" height="12px" viewBox="732 852.5  12 12" xmlns="http://www.w3.org/2000/svg">
  <path d="M 738 852.5  C 741.36 852.5  744 855.14  744 858.5  C 744 861.86  741.36 864.5  738 864.5  C 734.64 864.5  732 861.86  732 858.5  C 732 855.14  734.64 852.5  738 852.5  Z " fill-rule="nonzero" fill="#f0f0f0" stroke="none" />
  <path d="M 738 853  C 741.08 853  743.5 855.42  743.5 858.5  C 743.5 861.58  741.08 864  738 864  C 734.92 864  732.5 861.58  732.5 858.5  C 732.5 855.42  734.92 853  738 853  Z " stroke-width="1" stroke="#797979" fill="none" />
  <path d="M 738 861.5  C 736.32 861.5  735 860.18  735 858.5  C 735 856.82  736.32 855.5  738 855.5  C 739.68 855.5  741 856.82  741 858.5  C 741 860.18  739.68 861.5  738 861.5  " fill-rule="nonzero" fill="#797979" stroke="none" />
</svg>