<?xml version="1.0" encoding="utf-8"?>
<svg version="1.1" xmlns:xlink="http://www.w3.org/1999/xlink" width="12px" height="12px" viewBox="732 972.5  12 12" xmlns="http://www.w3.org/2000/svg">
  <path d="M 738 972.5  C 741.36 972.5  744 975.14  744 978.5  C 744 981.86  741.36 984.5  738 984.5  C 734.64 984.5  732 981.86  732 978.5  C 732 975.14  734.64 972.5  738 972.5  Z " fill-rule="nonzero" fill="#ffffff" stroke="none" />
  <path d="M 738 973  C 741.08 973  743.5 975.42  743.5 978.5  C 743.5 981.58  741.08 984  738 984  C 734.92 984  732.5 981.58  732.5 978.5  C 732.5 975.42  734.92 973  738 973  Z " stroke-width="1" stroke="#797979" fill="none" />
  <path d="M 738 981.5  C 736.32 981.5  735 980.18  735 978.5  C 735 976.82  736.32 975.5  738 975.5  C 739.68 975.5  741 976.82  741 978.5  C 741 980.18  739.68 981.5  738 981.5  " fill-rule="nonzero" fill="#797979" stroke="none" />
</svg>