<?xml version="1.0" encoding="utf-8"?>
<svg version="1.1" xmlns:xlink="http://www.w3.org/1999/xlink" width="12px" height="12px" viewBox="732 652.5  12 12" xmlns="http://www.w3.org/2000/svg">
  <path d="M 738 652.5  C 741.36 652.5  744 655.14  744 658.5  C 744 661.86  741.36 664.5  738 664.5  C 734.64 664.5  732 661.86  732 658.5  C 732 655.14  734.64 652.5  738 652.5  Z " fill-rule="nonzero" fill="#ffffff" stroke="none" />
  <path d="M 738 653  C 741.08 653  743.5 655.42  743.5 658.5  C 743.5 661.58  741.08 664  738 664  C 734.92 664  732.5 661.58  732.5 658.5  C 732.5 655.42  734.92 653  738 653  Z " stroke-width="1" stroke="#797979" fill="none" />
  <path d="M 738 661.5  C 736.32 661.5  735 660.18  735 658.5  C 735 656.82  736.32 655.5  738 655.5  C 739.68 655.5  741 656.82  741 658.5  C 741 660.18  739.68 661.5  738 661.5  " fill-rule="nonzero" fill="#797979" stroke="none" />
</svg>