<?xml version="1.0" encoding="utf-8"?>
<svg version="1.1" xmlns:xlink="http://www.w3.org/1999/xlink" width="12px" height="12px" viewBox="595 562.5  12 12" xmlns="http://www.w3.org/2000/svg">
  <path d="M 601 562.5  C 604.36 562.5  607 565.14  607 568.5  C 607 571.86  604.36 574.5  601 574.5  C 597.64 574.5  595 571.86  595 568.5  C 595 565.14  597.64 562.5  601 562.5  Z " fill-rule="nonzero" fill="#f0f0f0" stroke="none" />
  <path d="M 601 563  C 604.08 563  606.5 565.42  606.5 568.5  C 606.5 571.58  604.08 574  601 574  C 597.92 574  595.5 571.58  595.5 568.5  C 595.5 565.42  597.92 563  601 563  Z " stroke-width="1" stroke="#333333" fill="none" />
  <path d="M 601 571.5  C 599.32 571.5  598 570.18  598 568.5  C 598 566.82  599.32 565.5  601 565.5  C 602.68 565.5  604 566.82  604 568.5  C 604 570.18  602.68 571.5  601 571.5  " fill-rule="nonzero" fill="#333333" stroke="none" />
</svg>