<?xml version="1.0" encoding="utf-8"?>
<svg version="1.1" xmlns:xlink="http://www.w3.org/1999/xlink" width="12px" height="12px" viewBox="468 662.5  12 12" xmlns="http://www.w3.org/2000/svg">
  <path d="M 474 662.5  C 477.36 662.5  480 665.14  480 668.5  C 480 671.86  477.36 674.5  474 674.5  C 470.64 674.5  468 671.86  468 668.5  C 468 665.14  470.64 662.5  474 662.5  Z " fill-rule="nonzero" fill="#f0f0f0" stroke="none" />
  <path d="M 474 663  C 477.08 663  479.5 665.42  479.5 668.5  C 479.5 671.58  477.08 674  474 674  C 470.92 674  468.5 671.58  468.5 668.5  C 468.5 665.42  470.92 663  474 663  Z " stroke-width="1" stroke="#797979" fill="none" />
  <path d="M 474 671.5  C 472.32 671.5  471 670.18  471 668.5  C 471 666.82  472.32 665.5  474 665.5  C 475.68 665.5  477 666.82  477 668.5  C 477 670.18  475.68 671.5  474 671.5  " fill-rule="nonzero" fill="#797979" stroke="none" />
</svg>