<?xml version="1.0" encoding="utf-8"?>
<svg version="1.1" xmlns:xlink="http://www.w3.org/1999/xlink" width="12px" height="12px" viewBox="555 632.5  12 12" xmlns="http://www.w3.org/2000/svg">
  <path d="M 561 632.5  C 564.36 632.5  567 635.14  567 638.5  C 567 641.86  564.36 644.5  561 644.5  C 557.64 644.5  555 641.86  555 638.5  C 555 635.14  557.64 632.5  561 632.5  Z " fill-rule="nonzero" fill="#f0f0f0" stroke="none" />
  <path d="M 561 633  C 564.08 633  566.5 635.42  566.5 638.5  C 566.5 641.58  564.08 644  561 644  C 557.92 644  555.5 641.58  555.5 638.5  C 555.5 635.42  557.92 633  561 633  Z " stroke-width="1" stroke="#333333" fill="none" />
  <path d="M 561 641.5  C 559.32 641.5  558 640.18  558 638.5  C 558 636.82  559.32 635.5  561 635.5  C 562.68 635.5  564 636.82  564 638.5  C 564 640.18  562.68 641.5  561 641.5  " fill-rule="nonzero" fill="#333333" stroke="none" />
</svg>