<?xml version="1.0" encoding="utf-8"?>
<svg version="1.1" xmlns:xlink="http://www.w3.org/1999/xlink" width="12px" height="12px" viewBox="399 632.5  12 12" xmlns="http://www.w3.org/2000/svg">
  <path d="M 405 632.5  C 408.36 632.5  411 635.14  411 638.5  C 411 641.86  408.36 644.5  405 644.5  C 401.64 644.5  399 641.86  399 638.5  C 399 635.14  401.64 632.5  405 632.5  Z " fill-rule="nonzero" fill="#f0f0f0" stroke="none" />
  <path d="M 405 633  C 408.08 633  410.5 635.42  410.5 638.5  C 410.5 641.58  408.08 644  405 644  C 401.92 644  399.5 641.58  399.5 638.5  C 399.5 635.42  401.92 633  405 633  Z " stroke-width="1" stroke="#333333" fill="none" />
  <path d="M 405 641.5  C 403.32 641.5  402 640.18  402 638.5  C 402 636.82  403.32 635.5  405 635.5  C 406.68 635.5  408 636.82  408 638.5  C 408 640.18  406.68 641.5  405 641.5  " fill-rule="nonzero" fill="#333333" stroke="none" />
</svg>