<?xml version="1.0" encoding="utf-8"?>
<svg version="1.1" xmlns:xlink="http://www.w3.org/1999/xlink" width="12px" height="12px" viewBox="399 562.5  12 12" xmlns="http://www.w3.org/2000/svg">
  <path d="M 405 562.5  C 408.36 562.5  411 565.14  411 568.5  C 411 571.86  408.36 574.5  405 574.5  C 401.64 574.5  399 571.86  399 568.5  C 399 565.14  401.64 562.5  405 562.5  Z " fill-rule="nonzero" fill="#f0f0f0" stroke="none" />
  <path d="M 405 563  C 408.08 563  410.5 565.42  410.5 568.5  C 410.5 571.58  408.08 574  405 574  C 401.92 574  399.5 571.58  399.5 568.5  C 399.5 565.42  401.92 563  405 563  Z " stroke-width="1" stroke="#333333" fill="none" />
  <path d="M 405 571.5  C 403.32 571.5  402 570.18  402 568.5  C 402 566.82  403.32 565.5  405 565.5  C 406.68 565.5  408 566.82  408 568.5  C 408 570.18  406.68 571.5  405 571.5  " fill-rule="nonzero" fill="#333333" stroke="none" />
</svg>