<?xml version="1.0" encoding="utf-8"?>
<svg version="1.1" xmlns:xlink="http://www.w3.org/1999/xlink" width="12px" height="12px" viewBox="468 632.5  12 12" xmlns="http://www.w3.org/2000/svg">
  <path d="M 474 632.5  C 477.36 632.5  480 635.14  480 638.5  C 480 641.86  477.36 644.5  474 644.5  C 470.64 644.5  468 641.86  468 638.5  C 468 635.14  470.64 632.5  474 632.5  Z " fill-rule="nonzero" fill="#ffffff" stroke="none" />
  <path d="M 474 633  C 477.08 633  479.5 635.42  479.5 638.5  C 479.5 641.58  477.08 644  474 644  C 470.92 644  468.5 641.58  468.5 638.5  C 468.5 635.42  470.92 633  474 633  Z " stroke-width="1" stroke="#797979" fill="none" />
  <path d="M 474 641.5  C 472.32 641.5  471 640.18  471 638.5  C 471 636.82  472.32 635.5  474 635.5  C 475.68 635.5  477 636.82  477 638.5  C 477 640.18  475.68 641.5  474 641.5  " fill-rule="nonzero" fill="#797979" stroke="none" />
</svg>