<?xml version="1.0" encoding="utf-8"?>
<svg version="1.1" xmlns:xlink="http://www.w3.org/1999/xlink" width="12px" height="12px" viewBox="469 784.5  12 12" xmlns="http://www.w3.org/2000/svg">
  <path d="M 475 784.5  C 478.36 784.5  481 787.14  481 790.5  C 481 793.86  478.36 796.5  475 796.5  C 471.64 796.5  469 793.86  469 790.5  C 469 787.14  471.64 784.5  475 784.5  Z " fill-rule="nonzero" fill="#f0f0f0" stroke="none" />
  <path d="M 475 785  C 478.08 785  480.5 787.42  480.5 790.5  C 480.5 793.58  478.08 796  475 796  C 471.92 796  469.5 793.58  469.5 790.5  C 469.5 787.42  471.92 785  475 785  Z " stroke-width="1" stroke="#333333" fill="none" />
  <path d="M 475 793.5  C 473.32 793.5  472 792.18  472 790.5  C 472 788.82  473.32 787.5  475 787.5  C 476.68 787.5  478 788.82  478 790.5  C 478 792.18  476.68 793.5  475 793.5  " fill-rule="nonzero" fill="#333333" stroke="none" />
</svg>