<?xml version="1.0" encoding="utf-8"?>
<svg version="1.1" xmlns:xlink="http://www.w3.org/1999/xlink" width="12px" height="12px" viewBox="325 632.5  12 12" xmlns="http://www.w3.org/2000/svg">
  <path d="M 331 632.5  C 334.36 632.5  337 635.14  337 638.5  C 337 641.86  334.36 644.5  331 644.5  C 327.64 644.5  325 641.86  325 638.5  C 325 635.14  327.64 632.5  331 632.5  Z " fill-rule="nonzero" fill="#ffffff" stroke="none" />
  <path d="M 331 633  C 334.08 633  336.5 635.42  336.5 638.5  C 336.5 641.58  334.08 644  331 644  C 327.92 644  325.5 641.58  325.5 638.5  C 325.5 635.42  327.92 633  331 633  Z " stroke-width="1" stroke="#797979" fill="none" />
  <path d="M 331 641.5  C 329.32 641.5  328 640.18  328 638.5  C 328 636.82  329.32 635.5  331 635.5  C 332.68 635.5  334 636.82  334 638.5  C 334 640.18  332.68 641.5  331 641.5  " fill-rule="nonzero" fill="#797979" stroke="none" />
</svg>