<?xml version="1.0" encoding="utf-8"?>
<svg version="1.1" xmlns:xlink="http://www.w3.org/1999/xlink" width="12px" height="12px" viewBox="282 810.5  12 12" xmlns="http://www.w3.org/2000/svg">
  <path d="M 288 810.5  C 291.36 810.5  294 813.14  294 816.5  C 294 819.86  291.36 822.5  288 822.5  C 284.64 822.5  282 819.86  282 816.5  C 282 813.14  284.64 810.5  288 810.5  Z " fill-rule="nonzero" fill="#f0f0f0" stroke="none" />
  <path d="M 288 811  C 291.08 811  293.5 813.42  293.5 816.5  C 293.5 819.58  291.08 822  288 822  C 284.92 822  282.5 819.58  282.5 816.5  C 282.5 813.42  284.92 811  288 811  Z " stroke-width="1" stroke="#797979" fill="none" />
  <path d="M 288 819.5  C 286.32 819.5  285 818.18  285 816.5  C 285 814.82  286.32 813.5  288 813.5  C 289.68 813.5  291 814.82  291 816.5  C 291 818.18  289.68 819.5  288 819.5  " fill-rule="nonzero" fill="#797979" stroke="none" />
</svg>