<?xml version="1.0" encoding="utf-8"?>
<svg version="1.1" xmlns:xlink="http://www.w3.org/1999/xlink" width="12px" height="12px" viewBox="399 662.5  12 12" xmlns="http://www.w3.org/2000/svg">
  <path d="M 405 662.5  C 408.36 662.5  411 665.14  411 668.5  C 411 671.86  408.36 674.5  405 674.5  C 401.64 674.5  399 671.86  399 668.5  C 399 665.14  401.64 662.5  405 662.5  Z " fill-rule="nonzero" fill="#ffffff" stroke="none" />
  <path d="M 405 663  C 408.08 663  410.5 665.42  410.5 668.5  C 410.5 671.58  408.08 674  405 674  C 401.92 674  399.5 671.58  399.5 668.5  C 399.5 665.42  401.92 663  405 663  Z " stroke-width="1" stroke="#333333" fill="none" />
  <path d="M 405 671.5  C 403.32 671.5  402 670.18  402 668.5  C 402 666.82  403.32 665.5  405 665.5  C 406.68 665.5  408 666.82  408 668.5  C 408 670.18  406.68 671.5  405 671.5  " fill-rule="nonzero" fill="#333333" stroke="none" />
</svg>