<?xml version="1.0" encoding="utf-8"?>
<svg version="1.1" xmlns:xlink="http://www.w3.org/1999/xlink" width="12px" height="12px" viewBox="902 661.5  12 12" xmlns="http://www.w3.org/2000/svg">
  <path d="M 908 661.5  C 911.36 661.5  914 664.14  914 667.5  C 914 670.86  911.36 673.5  908 673.5  C 904.64 673.5  902 670.86  902 667.5  C 902 664.14  904.64 661.5  908 661.5  Z " fill-rule="nonzero" fill="#ffffff" stroke="none" />
  <path d="M 908 662  C 911.08 662  913.5 664.42  913.5 667.5  C 913.5 670.58  911.08 673  908 673  C 904.92 673  902.5 670.58  902.5 667.5  C 902.5 664.42  904.92 662  908 662  Z " stroke-width="1" stroke="#333333" fill="none" />
  <path d="M 908 670.5  C 906.32 670.5  905 669.18  905 667.5  C 905 665.82  906.32 664.5  908 664.5  C 909.68 664.5  911 665.82  911 667.5  C 911 669.18  909.68 670.5  908 670.5  " fill-rule="nonzero" fill="#333333" stroke="none" />
</svg>