<?xml version="1.0" encoding="utf-8"?>
<svg version="1.1" xmlns:xlink="http://www.w3.org/1999/xlink" width="12px" height="12px" viewBox="828 631.5  12 12" xmlns="http://www.w3.org/2000/svg">
  <path d="M 834 631.5  C 837.36 631.5  840 634.14  840 637.5  C 840 640.86  837.36 643.5  834 643.5  C 830.64 643.5  828 640.86  828 637.5  C 828 634.14  830.64 631.5  834 631.5  Z " fill-rule="nonzero" fill="#ffffff" stroke="none" />
  <path d="M 834 632  C 837.08 632  839.5 634.42  839.5 637.5  C 839.5 640.58  837.08 643  834 643  C 830.92 643  828.5 640.58  828.5 637.5  C 828.5 634.42  830.92 632  834 632  Z " stroke-width="1" stroke="#797979" fill="none" />
  <path d="M 834 640.5  C 832.32 640.5  831 639.18  831 637.5  C 831 635.82  832.32 634.5  834 634.5  C 835.68 634.5  837 635.82  837 637.5  C 837 639.18  835.68 640.5  834 640.5  " fill-rule="nonzero" fill="#797979" stroke="none" />
</svg>