<?xml version="1.0" encoding="utf-8"?>
<svg version="1.1" xmlns:xlink="http://www.w3.org/1999/xlink" width="12px" height="12px" viewBox="853 811.5  12 12" xmlns="http://www.w3.org/2000/svg">
  <path d="M 859 811.5  C 862.36 811.5  865 814.14  865 817.5  C 865 820.86  862.36 823.5  859 823.5  C 855.64 823.5  853 820.86  853 817.5  C 853 814.14  855.64 811.5  859 811.5  Z " fill-rule="nonzero" fill="#f0f0f0" stroke="none" />
  <path d="M 859 812  C 862.08 812  864.5 814.42  864.5 817.5  C 864.5 820.58  862.08 823  859 823  C 855.92 823  853.5 820.58  853.5 817.5  C 853.5 814.42  855.92 812  859 812  Z " stroke-width="1" stroke="#333333" fill="none" />
  <path d="M 859 820.5  C 857.32 820.5  856 819.18  856 817.5  C 856 815.82  857.32 814.5  859 814.5  C 860.68 814.5  862 815.82  862 817.5  C 862 819.18  860.68 820.5  859 820.5  " fill-rule="nonzero" fill="#333333" stroke="none" />
</svg>