<?xml version="1.0" encoding="utf-8"?>
<svg version="1.1" xmlns:xlink="http://www.w3.org/1999/xlink" width="12px" height="12px" viewBox="913 784.5  12 12" xmlns="http://www.w3.org/2000/svg">
  <path d="M 919 784.5  C 922.36 784.5  925 787.14  925 790.5  C 925 793.86  922.36 796.5  919 796.5  C 915.64 796.5  913 793.86  913 790.5  C 913 787.14  915.64 784.5  919 784.5  Z " fill-rule="nonzero" fill="#f0f0f0" stroke="none" />
  <path d="M 919 785  C 922.08 785  924.5 787.42  924.5 790.5  C 924.5 793.58  922.08 796  919 796  C 915.92 796  913.5 793.58  913.5 790.5  C 913.5 787.42  915.92 785  919 785  Z " stroke-width="1" stroke="#333333" fill="none" />
  <path d="M 919 793.5  C 917.32 793.5  916 792.18  916 790.5  C 916 788.82  917.32 787.5  919 787.5  C 920.68 787.5  922 788.82  922 790.5  C 922 792.18  920.68 793.5  919 793.5  " fill-rule="nonzero" fill="#333333" stroke="none" />
</svg>