<?xml version="1.0" encoding="utf-8"?>
<svg version="1.1" xmlns:xlink="http://www.w3.org/1999/xlink" width="12px" height="12px" viewBox="187 498.5  12 12" xmlns="http://www.w3.org/2000/svg">
  <path d="M 193 498.5  C 196.36 498.5  199 501.14  199 504.5  C 199 507.86  196.36 510.5  193 510.5  C 189.64 510.5  187 507.86  187 504.5  C 187 501.14  189.64 498.5  193 498.5  Z " fill-rule="nonzero" fill="#f0f0f0" stroke="none" />
  <path d="M 193 499  C 196.08 499  198.5 501.42  198.5 504.5  C 198.5 507.58  196.08 510  193 510  C 189.92 510  187.5 507.58  187.5 504.5  C 187.5 501.42  189.92 499  193 499  Z " stroke-width="1" stroke="#797979" fill="none" />
  <path d="M 193 507.5  C 191.32 507.5  190 506.18  190 504.5  C 190 502.82  191.32 501.5  193 501.5  C 194.68 501.5  196 502.82  196 504.5  C 196 506.18  194.68 507.5  193 507.5  " fill-rule="nonzero" fill="#797979" stroke="none" />
</svg>