<?xml version="1.0" encoding="utf-8"?>
<svg version="1.1" xmlns:xlink="http://www.w3.org/1999/xlink" width="12px" height="12px" viewBox="237 556.5  12 12" xmlns="http://www.w3.org/2000/svg">
  <path d="M 243 556.5  C 246.36 556.5  249 559.14  249 562.5  C 249 565.86  246.36 568.5  243 568.5  C 239.64 568.5  237 565.86  237 562.5  C 237 559.14  239.64 556.5  243 556.5  Z " fill-rule="nonzero" fill="#f0f0f0" stroke="none" />
  <path d="M 243 557  C 246.08 557  248.5 559.42  248.5 562.5  C 248.5 565.58  246.08 568  243 568  C 239.92 568  237.5 565.58  237.5 562.5  C 237.5 559.42  239.92 557  243 557  Z " stroke-width="1" stroke="#333333" fill="none" />
  <path d="M 243 565.5  C 241.32 565.5  240 564.18  240 562.5  C 240 560.82  241.32 559.5  243 559.5  C 244.68 559.5  246 560.82  246 562.5  C 246 564.18  244.68 565.5  243 565.5  " fill-rule="nonzero" fill="#333333" stroke="none" />
</svg>