<?xml version="1.0" encoding="utf-8"?>
<svg version="1.1" xmlns:xlink="http://www.w3.org/1999/xlink" width="12px" height="12px" viewBox="549 498.5  12 12" xmlns="http://www.w3.org/2000/svg">
  <path d="M 555 498.5  C 558.36 498.5  561 501.14  561 504.5  C 561 507.86  558.36 510.5  555 510.5  C 551.64 510.5  549 507.86  549 504.5  C 549 501.14  551.64 498.5  555 498.5  Z " fill-rule="nonzero" fill="#ffffff" stroke="none" />
  <path d="M 555 499  C 558.08 499  560.5 501.42  560.5 504.5  C 560.5 507.58  558.08 510  555 510  C 551.92 510  549.5 507.58  549.5 504.5  C 549.5 501.42  551.92 499  555 499  Z " stroke-width="1" stroke="#797979" fill="none" />
  <path d="M 555 507.5  C 553.32 507.5  552 506.18  552 504.5  C 552 502.82  553.32 501.5  555 501.5  C 556.68 501.5  558 502.82  558 504.5  C 558 506.18  556.68 507.5  555 507.5  " fill-rule="nonzero" fill="#797979" stroke="none" />
</svg>