<?xml version="1.0" encoding="utf-8"?>
<svg version="1.1" xmlns:xlink="http://www.w3.org/1999/xlink" width="12px" height="12px" viewBox="549 556.5  12 12" xmlns="http://www.w3.org/2000/svg">
  <path d="M 555 556.5  C 558.36 556.5  561 559.14  561 562.5  C 561 565.86  558.36 568.5  555 568.5  C 551.64 568.5  549 565.86  549 562.5  C 549 559.14  551.64 556.5  555 556.5  Z " fill-rule="nonzero" fill="#ffffff" stroke="none" />
  <path d="M 555 557  C 558.08 557  560.5 559.42  560.5 562.5  C 560.5 565.58  558.08 568  555 568  C 551.92 568  549.5 565.58  549.5 562.5  C 549.5 559.42  551.92 557  555 557  Z " stroke-width="1" stroke="#797979" fill="none" />
  <path d="M 555 565.5  C 553.32 565.5  552 564.18  552 562.5  C 552 560.82  553.32 559.5  555 559.5  C 556.68 559.5  558 560.82  558 562.5  C 558 564.18  556.68 565.5  555 565.5  " fill-rule="nonzero" fill="#797979" stroke="none" />
</svg>