<?xml version="1.0" encoding="utf-8"?>
<svg version="1.1" xmlns:xlink="http://www.w3.org/1999/xlink" width="12px" height="12px" viewBox="915 498.5  12 12" xmlns="http://www.w3.org/2000/svg">
  <path d="M 921 498.5  C 924.36 498.5  927 501.14  927 504.5  C 927 507.86  924.36 510.5  921 510.5  C 917.64 510.5  915 507.86  915 504.5  C 915 501.14  917.64 498.5  921 498.5  Z " fill-rule="nonzero" fill="#ffffff" stroke="none" />
  <path d="M 921 499  C 924.08 499  926.5 501.42  926.5 504.5  C 926.5 507.58  924.08 510  921 510  C 917.92 510  915.5 507.58  915.5 504.5  C 915.5 501.42  917.92 499  921 499  Z " stroke-width="1" stroke="#333333" fill="none" />
  <path d="M 921 507.5  C 919.32 507.5  918 506.18  918 504.5  C 918 502.82  919.32 501.5  921 501.5  C 922.68 501.5  924 502.82  924 504.5  C 924 506.18  922.68 507.5  921 507.5  " fill-rule="nonzero" fill="#333333" stroke="none" />
</svg>