<?xml version="1.0" encoding="utf-8"?>
<svg version="1.1" xmlns:xlink="http://www.w3.org/1999/xlink" width="12px" height="12px" viewBox="637 696.5  12 12" xmlns="http://www.w3.org/2000/svg">
  <path d="M 643 696.5  C 646.36 696.5  649 699.14  649 702.5  C 649 705.86  646.36 708.5  643 708.5  C 639.64 708.5  637 705.86  637 702.5  C 637 699.14  639.64 696.5  643 696.5  Z " fill-rule="nonzero" fill="#f0f0f0" stroke="none" />
  <path d="M 643 697  C 646.08 697  648.5 699.42  648.5 702.5  C 648.5 705.58  646.08 708  643 708  C 639.92 708  637.5 705.58  637.5 702.5  C 637.5 699.42  639.92 697  643 697  Z " stroke-width="1" stroke="#333333" fill="none" />
  <path d="M 643 705.5  C 641.32 705.5  640 704.18  640 702.5  C 640 700.82  641.32 699.5  643 699.5  C 644.68 699.5  646 700.82  646 702.5  C 646 704.18  644.68 705.5  643 705.5  " fill-rule="nonzero" fill="#333333" stroke="none" />
</svg>