<?xml version="1.0" encoding="utf-8"?>
<svg version="1.1" xmlns:xlink="http://www.w3.org/1999/xlink" width="12px" height="12px" viewBox="100 91.5  12 12" xmlns="http://www.w3.org/2000/svg">
  <path d="M 106 91.5  C 109.36 91.5  112 94.14  112 97.5  C 112 100.86  109.36 103.5  106 103.5  C 102.64 103.5  100 100.86  100 97.5  C 100 94.14  102.64 91.5  106 91.5  Z " fill-rule="nonzero" fill="#ffffff" stroke="none" />
  <path d="M 106 92  C 109.08 92  111.5 94.42  111.5 97.5  C 111.5 100.58  109.08 103  106 103  C 102.92 103  100.5 100.58  100.5 97.5  C 100.5 94.42  102.92 92  106 92  Z " stroke-width="1" stroke="#797979" fill="none" />
  <path d="M 106 100.5  C 104.32 100.5  103 99.18  103 97.5  C 103 95.82  104.32 94.5  106 94.5  C 107.68 94.5  109 95.82  109 97.5  C 109 99.18  107.68 100.5  106 100.5  " fill-rule="nonzero" fill="#797979" stroke="none" />
</svg>