<?xml version="1.0" encoding="utf-8"?>
<svg version="1.1" xmlns:xlink="http://www.w3.org/1999/xlink" width="12px" height="12px" viewBox="100 120.5  12 12" xmlns="http://www.w3.org/2000/svg">
  <path d="M 106 120.5  C 109.36 120.5  112 123.14  112 126.5  C 112 129.86  109.36 132.5  106 132.5  C 102.64 132.5  100 129.86  100 126.5  C 100 123.14  102.64 120.5  106 120.5  Z " fill-rule="nonzero" fill="#f0f0f0" stroke="none" />
  <path d="M 106 121  C 109.08 121  111.5 123.42  111.5 126.5  C 111.5 129.58  109.08 132  106 132  C 102.92 132  100.5 129.58  100.5 126.5  C 100.5 123.42  102.92 121  106 121  Z " stroke-width="1" stroke="#797979" fill="none" />
  <path d="M 106 129.5  C 104.32 129.5  103 128.18  103 126.5  C 103 124.82  104.32 123.5  106 123.5  C 107.68 123.5  109 124.82  109 126.5  C 109 128.18  107.68 129.5  106 129.5  " fill-rule="nonzero" fill="#797979" stroke="none" />
</svg>