<?xml version="1.0" encoding="utf-8"?>
<svg version="1.1" xmlns:xlink="http://www.w3.org/1999/xlink" width="12px" height="12px" viewBox="605 793.5  12 12" xmlns="http://www.w3.org/2000/svg">
  <path d="M 611 793.5  C 614.36 793.5  617 796.14  617 799.5  C 617 802.86  614.36 805.5  611 805.5  C 607.64 805.5  605 802.86  605 799.5  C 605 796.14  607.64 793.5  611 793.5  Z " fill-rule="nonzero" fill="#f0f0f0" stroke="none" />
  <path d="M 611 794  C 614.08 794  616.5 796.42  616.5 799.5  C 616.5 802.58  614.08 805  611 805  C 607.92 805  605.5 802.58  605.5 799.5  C 605.5 796.42  607.92 794  611 794  Z " stroke-width="1" stroke="#333333" fill="none" />
  <path d="M 611 802.5  C 609.32 802.5  608 801.18  608 799.5  C 608 797.82  609.32 796.5  611 796.5  C 612.68 796.5  614 797.82  614 799.5  C 614 801.18  612.68 802.5  611 802.5  " fill-rule="nonzero" fill="#333333" stroke="none" />
</svg>