<?xml version="1.0" encoding="utf-8"?>
<svg version="1.1" xmlns:xlink="http://www.w3.org/1999/xlink" width="12px" height="12px" viewBox="719 616.5  12 12" xmlns="http://www.w3.org/2000/svg">
  <path d="M 725 616.5  C 728.36 616.5  731 619.14  731 622.5  C 731 625.86  728.36 628.5  725 628.5  C 721.64 628.5  719 625.86  719 622.5  C 719 619.14  721.64 616.5  725 616.5  Z " fill-rule="nonzero" fill="#ffffff" stroke="none" />
  <path d="M 725 617  C 728.08 617  730.5 619.42  730.5 622.5  C 730.5 625.58  728.08 628  725 628  C 721.92 628  719.5 625.58  719.5 622.5  C 719.5 619.42  721.92 617  725 617  Z " stroke-width="1" stroke="#333333" fill="none" />
  <path d="M 725 625.5  C 723.32 625.5  722 624.18  722 622.5  C 722 620.82  723.32 619.5  725 619.5  C 726.68 619.5  728 620.82  728 622.5  C 728 624.18  726.68 625.5  725 625.5  " fill-rule="nonzero" fill="#333333" stroke="none" />
</svg>