<?xml version="1.0" encoding="utf-8"?>
<svg version="1.1" xmlns:xlink="http://www.w3.org/1999/xlink" width="12px" height="12px" viewBox="632 616.5  12 12" xmlns="http://www.w3.org/2000/svg">
  <path d="M 638 616.5  C 641.36 616.5  644 619.14  644 622.5  C 644 625.86  641.36 628.5  638 628.5  C 634.64 628.5  632 625.86  632 622.5  C 632 619.14  634.64 616.5  638 616.5  Z " fill-rule="nonzero" fill="#ffffff" stroke="none" />
  <path d="M 638 617  C 641.08 617  643.5 619.42  643.5 622.5  C 643.5 625.58  641.08 628  638 628  C 634.92 628  632.5 625.58  632.5 622.5  C 632.5 619.42  634.92 617  638 617  Z " stroke-width="1" stroke="#797979" fill="none" />
  <path d="M 638 625.5  C 636.32 625.5  635 624.18  635 622.5  C 635 620.82  636.32 619.5  638 619.5  C 639.68 619.5  641 620.82  641 622.5  C 641 624.18  639.68 625.5  638 625.5  " fill-rule="nonzero" fill="#797979" stroke="none" />
</svg>