<?xml version="1.0" encoding="utf-8"?>
<svg version="1.1" xmlns:xlink="http://www.w3.org/1999/xlink" width="12px" height="12px" viewBox="563 616.5  12 12" xmlns="http://www.w3.org/2000/svg">
  <path d="M 569 616.5  C 572.36 616.5  575 619.14  575 622.5  C 575 625.86  572.36 628.5  569 628.5  C 565.64 628.5  563 625.86  563 622.5  C 563 619.14  565.64 616.5  569 616.5  Z " fill-rule="nonzero" fill="#ffffff" stroke="none" />
  <path d="M 569 617  C 572.08 617  574.5 619.42  574.5 622.5  C 574.5 625.58  572.08 628  569 628  C 565.92 628  563.5 625.58  563.5 622.5  C 563.5 619.42  565.92 617  569 617  Z " stroke-width="1" stroke="#333333" fill="none" />
  <path d="M 569 625.5  C 567.32 625.5  566 624.18  566 622.5  C 566 620.82  567.32 619.5  569 619.5  C 570.68 619.5  572 620.82  572 622.5  C 572 624.18  570.68 625.5  569 625.5  " fill-rule="nonzero" fill="#333333" stroke="none" />
</svg>