<?xml version="1.0" encoding="utf-8"?>
<svg version="1.1" xmlns:xlink="http://www.w3.org/1999/xlink" width="12px" height="12px" viewBox="780 616.5  12 12" xmlns="http://www.w3.org/2000/svg">
  <path d="M 786 616.5  C 789.36 616.5  792 619.14  792 622.5  C 792 625.86  789.36 628.5  786 628.5  C 782.64 628.5  780 625.86  780 622.5  C 780 619.14  782.64 616.5  786 616.5  Z " fill-rule="nonzero" fill="#ffffff" stroke="none" />
  <path d="M 786 617  C 789.08 617  791.5 619.42  791.5 622.5  C 791.5 625.58  789.08 628  786 628  C 782.92 628  780.5 625.58  780.5 622.5  C 780.5 619.42  782.92 617  786 617  Z " stroke-width="1" stroke="#333333" fill="none" />
  <path d="M 786 625.5  C 784.32 625.5  783 624.18  783 622.5  C 783 620.82  784.32 619.5  786 619.5  C 787.68 619.5  789 620.82  789 622.5  C 789 624.18  787.68 625.5  786 625.5  " fill-rule="nonzero" fill="#333333" stroke="none" />
</svg>