<?xml version="1.0" encoding="utf-8"?>
<svg version="1.1" xmlns:xlink="http://www.w3.org/1999/xlink" width="12px" height="12px" viewBox="362 1000.5  12 12" xmlns="http://www.w3.org/2000/svg">
  <path d="M 368 1000.5  C 371.36 1000.5  374 1003.14  374 1006.5  C 374 1009.86  371.36 1012.5  368 1012.5  C 364.64 1012.5  362 1009.86  362 1006.5  C 362 1003.14  364.64 1000.5  368 1000.5  Z " fill-rule="nonzero" fill="#f0f0f0" stroke="none" />
  <path d="M 368 1001  C 371.08 1001  373.5 1003.42  373.5 1006.5  C 373.5 1009.58  371.08 1012  368 1012  C 364.92 1012  362.5 1009.58  362.5 1006.5  C 362.5 1003.42  364.92 1001  368 1001  Z " stroke-width="1" stroke="#333333" fill="none" />
  <path d="M 368 1009.5  C 366.32 1009.5  365 1008.18  365 1006.5  C 365 1004.82  366.32 1003.5  368 1003.5  C 369.68 1003.5  371 1004.82  371 1006.5  C 371 1008.18  369.68 1009.5  368 1009.5  " fill-rule="nonzero" fill="#333333" stroke="none" />
</svg>