<?xml version="1.0" encoding="utf-8"?>
<svg version="1.1" xmlns:xlink="http://www.w3.org/1999/xlink" width="12px" height="12px" viewBox="445 1000.5  12 12" xmlns="http://www.w3.org/2000/svg">
  <path d="M 451 1000.5  C 454.36 1000.5  457 1003.14  457 1006.5  C 457 1009.86  454.36 1012.5  451 1012.5  C 447.64 1012.5  445 1009.86  445 1006.5  C 445 1003.14  447.64 1000.5  451 1000.5  Z " fill-rule="nonzero" fill="#ffffff" stroke="none" />
  <path d="M 451 1001  C 454.08 1001  456.5 1003.42  456.5 1006.5  C 456.5 1009.58  454.08 1012  451 1012  C 447.92 1012  445.5 1009.58  445.5 1006.5  C 445.5 1003.42  447.92 1001  451 1001  Z " stroke-width="1" stroke="#797979" fill="none" />
  <path d="M 451 1009.5  C 449.32 1009.5  448 1008.18  448 1006.5  C 448 1004.82  449.32 1003.5  451 1003.5  C 452.68 1003.5  454 1004.82  454 1006.5  C 454 1008.18  452.68 1009.5  451 1009.5  " fill-rule="nonzero" fill="#797979" stroke="none" />
</svg>