<?xml version="1.0" encoding="utf-8"?>
<svg version="1.1" xmlns:xlink="http://www.w3.org/1999/xlink" width="12px" height="12px" viewBox="336 1030.5  12 12" xmlns="http://www.w3.org/2000/svg">
  <path d="M 342 1030.5  C 345.36 1030.5  348 1033.14  348 1036.5  C 348 1039.86  345.36 1042.5  342 1042.5  C 338.64 1042.5  336 1039.86  336 1036.5  C 336 1033.14  338.64 1030.5  342 1030.5  Z " fill-rule="nonzero" fill="#ffffff" stroke="none" />
  <path d="M 342 1031  C 345.08 1031  347.5 1033.42  347.5 1036.5  C 347.5 1039.58  345.08 1042  342 1042  C 338.92 1042  336.5 1039.58  336.5 1036.5  C 336.5 1033.42  338.92 1031  342 1031  Z " stroke-width="1" stroke="#333333" fill="none" />
  <path d="M 342 1039.5  C 340.32 1039.5  339 1038.18  339 1036.5  C 339 1034.82  340.32 1033.5  342 1033.5  C 343.68 1033.5  345 1034.82  345 1036.5  C 345 1038.18  343.68 1039.5  342 1039.5  " fill-rule="nonzero" fill="#333333" stroke="none" />
</svg>