<?xml version="1.0" encoding="utf-8"?>
<svg version="1.1" xmlns:xlink="http://www.w3.org/1999/xlink" width="12px" height="12px" viewBox="342 443.5  12 12" xmlns="http://www.w3.org/2000/svg">
  <path d="M 348 443.5  C 351.36 443.5  354 446.14  354 449.5  C 354 452.86  351.36 455.5  348 455.5  C 344.64 455.5  342 452.86  342 449.5  C 342 446.14  344.64 443.5  348 443.5  Z " fill-rule="nonzero" fill="#f0f0f0" stroke="none" />
  <path d="M 348 444  C 351.08 444  353.5 446.42  353.5 449.5  C 353.5 452.58  351.08 455  348 455  C 344.92 455  342.5 452.58  342.5 449.5  C 342.5 446.42  344.92 444  348 444  Z " stroke-width="1" stroke="#333333" fill="none" />
  <path d="M 348 452.5  C 346.32 452.5  345 451.18  345 449.5  C 345 447.82  346.32 446.5  348 446.5  C 349.68 446.5  351 447.82  351 449.5  C 351 451.18  349.68 452.5  348 452.5  " fill-rule="nonzero" fill="#333333" stroke="none" />
</svg>