<?xml version="1.0" encoding="utf-8"?>
<svg version="1.1" xmlns:xlink="http://www.w3.org/1999/xlink" width="12px" height="12px" viewBox="212 443.5  12 12" xmlns="http://www.w3.org/2000/svg">
  <path d="M 218 443.5  C 221.36 443.5  224 446.14  224 449.5  C 224 452.86  221.36 455.5  218 455.5  C 214.64 455.5  212 452.86  212 449.5  C 212 446.14  214.64 443.5  218 443.5  Z " fill-rule="nonzero" fill="#f0f0f0" stroke="none" />
  <path d="M 218 444  C 221.08 444  223.5 446.42  223.5 449.5  C 223.5 452.58  221.08 455  218 455  C 214.92 455  212.5 452.58  212.5 449.5  C 212.5 446.42  214.92 444  218 444  Z " stroke-width="1" stroke="#797979" fill="none" />
  <path d="M 218 452.5  C 216.32 452.5  215 451.18  215 449.5  C 215 447.82  216.32 446.5  218 446.5  C 219.68 446.5  221 447.82  221 449.5  C 221 451.18  219.68 452.5  218 452.5  " fill-rule="nonzero" fill="#797979" stroke="none" />
</svg>