<?xml version="1.0" encoding="utf-8"?>
<svg version="1.1" xmlns:xlink="http://www.w3.org/1999/xlink" width="12px" height="12px" viewBox="273 414.5  12 12" xmlns="http://www.w3.org/2000/svg">
  <path d="M 279 414.5  C 282.36 414.5  285 417.14  285 420.5  C 285 423.86  282.36 426.5  279 426.5  C 275.64 426.5  273 423.86  273 420.5  C 273 417.14  275.64 414.5  279 414.5  Z " fill-rule="nonzero" fill="#ffffff" stroke="none" />
  <path d="M 279 415  C 282.08 415  284.5 417.42  284.5 420.5  C 284.5 423.58  282.08 426  279 426  C 275.92 426  273.5 423.58  273.5 420.5  C 273.5 417.42  275.92 415  279 415  Z " stroke-width="1" stroke="#333333" fill="none" />
  <path d="M 279 423.5  C 277.32 423.5  276 422.18  276 420.5  C 276 418.82  277.32 417.5  279 417.5  C 280.68 417.5  282 418.82  282 420.5  C 282 422.18  280.68 423.5  279 423.5  " fill-rule="nonzero" fill="#333333" stroke="none" />
</svg>