<?xml version="1.0" encoding="utf-8"?>
<svg version="1.1" xmlns:xlink="http://www.w3.org/1999/xlink" width="12px" height="12px" viewBox="342 414.5  12 12" xmlns="http://www.w3.org/2000/svg">
  <path d="M 348 414.5  C 351.36 414.5  354 417.14  354 420.5  C 354 423.86  351.36 426.5  348 426.5  C 344.64 426.5  342 423.86  342 420.5  C 342 417.14  344.64 414.5  348 414.5  Z " fill-rule="nonzero" fill="#f0f0f0" stroke="none" />
  <path d="M 348 415  C 351.08 415  353.5 417.42  353.5 420.5  C 353.5 423.58  351.08 426  348 426  C 344.92 426  342.5 423.58  342.5 420.5  C 342.5 417.42  344.92 415  348 415  Z " stroke-width="1" stroke="#333333" fill="none" />
  <path d="M 348 423.5  C 346.32 423.5  345 422.18  345 420.5  C 345 418.82  346.32 417.5  348 417.5  C 349.68 417.5  351 418.82  351 420.5  C 351 422.18  349.68 423.5  348 423.5  " fill-rule="nonzero" fill="#333333" stroke="none" />
</svg>