<?xml version="1.0" encoding="utf-8"?>
<svg version="1.1" xmlns:xlink="http://www.w3.org/1999/xlink" width="12px" height="12px" viewBox="212 414.5  12 12" xmlns="http://www.w3.org/2000/svg">
  <path d="M 218 414.5  C 221.36 414.5  224 417.14  224 420.5  C 224 423.86  221.36 426.5  218 426.5  C 214.64 426.5  212 423.86  212 420.5  C 212 417.14  214.64 414.5  218 414.5  Z " fill-rule="nonzero" fill="#ffffff" stroke="none" />
  <path d="M 218 415  C 221.08 415  223.5 417.42  223.5 420.5  C 223.5 423.58  221.08 426  218 426  C 214.92 426  212.5 423.58  212.5 420.5  C 212.5 417.42  214.92 415  218 415  Z " stroke-width="1" stroke="#797979" fill="none" />
  <path d="M 218 423.5  C 216.32 423.5  215 422.18  215 420.5  C 215 418.82  216.32 417.5  218 417.5  C 219.68 417.5  221 418.82  221 420.5  C 221 422.18  219.68 423.5  218 423.5  " fill-rule="nonzero" fill="#797979" stroke="none" />
</svg>