<?xml version="1.0" encoding="utf-8"?>
<svg version="1.1" xmlns:xlink="http://www.w3.org/1999/xlink" width="12px" height="12px" viewBox="406 414.5  12 12" xmlns="http://www.w3.org/2000/svg">
  <path d="M 412 414.5  C 415.36 414.5  418 417.14  418 420.5  C 418 423.86  415.36 426.5  412 426.5  C 408.64 426.5  406 423.86  406 420.5  C 406 417.14  408.64 414.5  412 414.5  Z " fill-rule="nonzero" fill="#f0f0f0" stroke="none" />
  <path d="M 412 415  C 415.08 415  417.5 417.42  417.5 420.5  C 417.5 423.58  415.08 426  412 426  C 408.92 426  406.5 423.58  406.5 420.5  C 406.5 417.42  408.92 415  412 415  Z " stroke-width="1" stroke="#333333" fill="none" />
  <path d="M 412 423.5  C 410.32 423.5  409 422.18  409 420.5  C 409 418.82  410.32 417.5  412 417.5  C 413.68 417.5  415 418.82  415 420.5  C 415 422.18  413.68 423.5  412 423.5  " fill-rule="nonzero" fill="#333333" stroke="none" />
</svg>