<?xml version="1.0" encoding="utf-8"?>
<svg version="1.1" xmlns:xlink="http://www.w3.org/1999/xlink" width="12px" height="12px" viewBox="406 443.5  12 12" xmlns="http://www.w3.org/2000/svg">
  <path d="M 412 443.5  C 415.36 443.5  418 446.14  418 449.5  C 418 452.86  415.36 455.5  412 455.5  C 408.64 455.5  406 452.86  406 449.5  C 406 446.14  408.64 443.5  412 443.5  Z " fill-rule="nonzero" fill="#f0f0f0" stroke="none" />
  <path d="M 412 444  C 415.08 444  417.5 446.42  417.5 449.5  C 417.5 452.58  415.08 455  412 455  C 408.92 455  406.5 452.58  406.5 449.5  C 406.5 446.42  408.92 444  412 444  Z " stroke-width="1" stroke="#333333" fill="none" />
  <path d="M 412 452.5  C 410.32 452.5  409 451.18  409 449.5  C 409 447.82  410.32 446.5  412 446.5  C 413.68 446.5  415 447.82  415 449.5  C 415 451.18  413.68 452.5  412 452.5  " fill-rule="nonzero" fill="#333333" stroke="none" />
</svg>