<?xml version="1.0" encoding="utf-8"?>
<svg version="1.1" xmlns:xlink="http://www.w3.org/1999/xlink" width="12px" height="12px" viewBox="342 496.5  12 12" xmlns="http://www.w3.org/2000/svg">
  <path d="M 348 496.5  C 351.36 496.5  354 499.14  354 502.5  C 354 505.86  351.36 508.5  348 508.5  C 344.64 508.5  342 505.86  342 502.5  C 342 499.14  344.64 496.5  348 496.5  Z " fill-rule="nonzero" fill="#f0f0f0" stroke="none" />
  <path d="M 348 497  C 351.08 497  353.5 499.42  353.5 502.5  C 353.5 505.58  351.08 508  348 508  C 344.92 508  342.5 505.58  342.5 502.5  C 342.5 499.42  344.92 497  348 497  Z " stroke-width="1" stroke="#333333" fill="none" />
  <path d="M 348 505.5  C 346.32 505.5  345 504.18  345 502.5  C 345 500.82  346.32 499.5  348 499.5  C 349.68 499.5  351 500.82  351 502.5  C 351 504.18  349.68 505.5  348 505.5  " fill-rule="nonzero" fill="#333333" stroke="none" />
</svg>