<?xml version="1.0" encoding="utf-8"?>
<svg version="1.1" xmlns:xlink="http://www.w3.org/1999/xlink" width="12px" height="12px" viewBox="273 469.5  12 12" xmlns="http://www.w3.org/2000/svg">
  <path d="M 279 469.5  C 282.36 469.5  285 472.14  285 475.5  C 285 478.86  282.36 481.5  279 481.5  C 275.64 481.5  273 478.86  273 475.5  C 273 472.14  275.64 469.5  279 469.5  Z " fill-rule="nonzero" fill="#f0f0f0" stroke="none" />
  <path d="M 279 470  C 282.08 470  284.5 472.42  284.5 475.5  C 284.5 478.58  282.08 481  279 481  C 275.92 481  273.5 478.58  273.5 475.5  C 273.5 472.42  275.92 470  279 470  Z " stroke-width="1" stroke="#333333" fill="none" />
  <path d="M 279 478.5  C 277.32 478.5  276 477.18  276 475.5  C 276 473.82  277.32 472.5  279 472.5  C 280.68 472.5  282 473.82  282 475.5  C 282 477.18  280.68 478.5  279 478.5  " fill-rule="nonzero" fill="#333333" stroke="none" />
</svg>