<?xml version="1.0" encoding="utf-8"?>
<svg version="1.1" xmlns:xlink="http://www.w3.org/1999/xlink" width="12px" height="12px" viewBox="212 496.5  12 12" xmlns="http://www.w3.org/2000/svg">
  <path d="M 218 496.5  C 221.36 496.5  224 499.14  224 502.5  C 224 505.86  221.36 508.5  218 508.5  C 214.64 508.5  212 505.86  212 502.5  C 212 499.14  214.64 496.5  218 496.5  Z " fill-rule="nonzero" fill="#ffffff" stroke="none" />
  <path d="M 218 497  C 221.08 497  223.5 499.42  223.5 502.5  C 223.5 505.58  221.08 508  218 508  C 214.92 508  212.5 505.58  212.5 502.5  C 212.5 499.42  214.92 497  218 497  Z " stroke-width="1" stroke="#797979" fill="none" />
  <path d="M 218 505.5  C 216.32 505.5  215 504.18  215 502.5  C 215 500.82  216.32 499.5  218 499.5  C 219.68 499.5  221 500.82  221 502.5  C 221 504.18  219.68 505.5  218 505.5  " fill-rule="nonzero" fill="#797979" stroke="none" />
</svg>