<?xml version="1.0" encoding="utf-8"?>
<svg version="1.1" xmlns:xlink="http://www.w3.org/1999/xlink" width="12px" height="12px" viewBox="406 496.5  12 12" xmlns="http://www.w3.org/2000/svg">
  <path d="M 412 496.5  C 415.36 496.5  418 499.14  418 502.5  C 418 505.86  415.36 508.5  412 508.5  C 408.64 508.5  406 505.86  406 502.5  C 406 499.14  408.64 496.5  412 496.5  Z " fill-rule="nonzero" fill="#ffffff" stroke="none" />
  <path d="M 412 497  C 415.08 497  417.5 499.42  417.5 502.5  C 417.5 505.58  415.08 508  412 508  C 408.92 508  406.5 505.58  406.5 502.5  C 406.5 499.42  408.92 497  412 497  Z " stroke-width="1" stroke="#333333" fill="none" />
  <path d="M 412 505.5  C 410.32 505.5  409 504.18  409 502.5  C 409 500.82  410.32 499.5  412 499.5  C 413.68 499.5  415 500.82  415 502.5  C 415 504.18  413.68 505.5  412 505.5  " fill-rule="nonzero" fill="#333333" stroke="none" />
</svg>