<?xml version="1.0" encoding="utf-8"?>
<svg version="1.1" xmlns:xlink="http://www.w3.org/1999/xlink" width="12px" height="12px" viewBox="212 469.5  12 12" xmlns="http://www.w3.org/2000/svg">
  <path d="M 218 469.5  C 221.36 469.5  224 472.14  224 475.5  C 224 478.86  221.36 481.5  218 481.5  C 214.64 481.5  212 478.86  212 475.5  C 212 472.14  214.64 469.5  218 469.5  Z " fill-rule="nonzero" fill="#ffffff" stroke="none" />
  <path d="M 218 470  C 221.08 470  223.5 472.42  223.5 475.5  C 223.5 478.58  221.08 481  218 481  C 214.92 481  212.5 478.58  212.5 475.5  C 212.5 472.42  214.92 470  218 470  Z " stroke-width="1" stroke="#797979" fill="none" />
  <path d="M 218 478.5  C 216.32 478.5  215 477.18  215 475.5  C 215 473.82  216.32 472.5  218 472.5  C 219.68 472.5  221 473.82  221 475.5  C 221 477.18  219.68 478.5  218 478.5  " fill-rule="nonzero" fill="#797979" stroke="none" />
</svg>