<?xml version="1.0" encoding="utf-8"?>
<svg version="1.1" xmlns:xlink="http://www.w3.org/1999/xlink" width="12px" height="12px" viewBox="342 469.5  12 12" xmlns="http://www.w3.org/2000/svg">
  <path d="M 348 469.5  C 351.36 469.5  354 472.14  354 475.5  C 354 478.86  351.36 481.5  348 481.5  C 344.64 481.5  342 478.86  342 475.5  C 342 472.14  344.64 469.5  348 469.5  Z " fill-rule="nonzero" fill="#ffffff" stroke="none" />
  <path d="M 348 470  C 351.08 470  353.5 472.42  353.5 475.5  C 353.5 478.58  351.08 481  348 481  C 344.92 481  342.5 478.58  342.5 475.5  C 342.5 472.42  344.92 470  348 470  Z " stroke-width="1" stroke="#333333" fill="none" />
  <path d="M 348 478.5  C 346.32 478.5  345 477.18  345 475.5  C 345 473.82  346.32 472.5  348 472.5  C 349.68 472.5  351 473.82  351 475.5  C 351 477.18  349.68 478.5  348 478.5  " fill-rule="nonzero" fill="#333333" stroke="none" />
</svg>