<?xml version="1.0" encoding="utf-8"?>
<svg version="1.1" xmlns:xlink="http://www.w3.org/1999/xlink" width="12px" height="12px" viewBox="357 717.5  12 12" xmlns="http://www.w3.org/2000/svg">
  <path d="M 363 717.5  C 366.36 717.5  369 720.14  369 723.5  C 369 726.86  366.36 729.5  363 729.5  C 359.64 729.5  357 726.86  357 723.5  C 357 720.14  359.64 717.5  363 717.5  Z " fill-rule="nonzero" fill="#ffffff" stroke="none" />
  <path d="M 363 718  C 366.08 718  368.5 720.42  368.5 723.5  C 368.5 726.58  366.08 729  363 729  C 359.92 729  357.5 726.58  357.5 723.5  C 357.5 720.42  359.92 718  363 718  Z " stroke-width="1" stroke="#333333" fill="none" />
  <path d="M 363 726.5  C 361.32 726.5  360 725.18  360 723.5  C 360 721.82  361.32 720.5  363 720.5  C 364.68 720.5  366 721.82  366 723.5  C 366 725.18  364.68 726.5  363 726.5  " fill-rule="nonzero" fill="#333333" stroke="none" />
</svg>