<?xml version="1.0" encoding="utf-8"?>
<svg version="1.1" xmlns:xlink="http://www.w3.org/1999/xlink" width="12px" height="12px" viewBox="212 750.5  12 12" xmlns="http://www.w3.org/2000/svg">
  <path d="M 218 750.5  C 221.36 750.5  224 753.14  224 756.5  C 224 759.86  221.36 762.5  218 762.5  C 214.64 762.5  212 759.86  212 756.5  C 212 753.14  214.64 750.5  218 750.5  Z " fill-rule="nonzero" fill="#ffffff" stroke="none" />
  <path d="M 218 751  C 221.08 751  223.5 753.42  223.5 756.5  C 223.5 759.58  221.08 762  218 762  C 214.92 762  212.5 759.58  212.5 756.5  C 212.5 753.42  214.92 751  218 751  Z " stroke-width="1" stroke="#797979" fill="none" />
  <path d="M 218 759.5  C 216.32 759.5  215 758.18  215 756.5  C 215 754.82  216.32 753.5  218 753.5  C 219.68 753.5  221 754.82  221 756.5  C 221 758.18  219.68 759.5  218 759.5  " fill-rule="nonzero" fill="#797979" stroke="none" />
</svg>