<?xml version="1.0" encoding="utf-8"?>
<svg version="1.1" xmlns:xlink="http://www.w3.org/1999/xlink" width="12px" height="12px" viewBox="342 750.5  12 12" xmlns="http://www.w3.org/2000/svg">
  <path d="M 348 750.5  C 351.36 750.5  354 753.14  354 756.5  C 354 759.86  351.36 762.5  348 762.5  C 344.64 762.5  342 759.86  342 756.5  C 342 753.14  344.64 750.5  348 750.5  Z " fill-rule="nonzero" fill="#f0f0f0" stroke="none" />
  <path d="M 348 751  C 351.08 751  353.5 753.42  353.5 756.5  C 353.5 759.58  351.08 762  348 762  C 344.92 762  342.5 759.58  342.5 756.5  C 342.5 753.42  344.92 751  348 751  Z " stroke-width="1" stroke="#333333" fill="none" />
  <path d="M 348 759.5  C 346.32 759.5  345 758.18  345 756.5  C 345 754.82  346.32 753.5  348 753.5  C 349.68 753.5  351 754.82  351 756.5  C 351 758.18  349.68 759.5  348 759.5  " fill-rule="nonzero" fill="#333333" stroke="none" />
</svg>