<?xml version="1.0" encoding="utf-8"?>
<svg version="1.1" xmlns:xlink="http://www.w3.org/1999/xlink" width="12px" height="12px" viewBox="212 717.5  12 12" xmlns="http://www.w3.org/2000/svg">
  <path d="M 218 717.5  C 221.36 717.5  224 720.14  224 723.5  C 224 726.86  221.36 729.5  218 729.5  C 214.64 729.5  212 726.86  212 723.5  C 212 720.14  214.64 717.5  218 717.5  Z " fill-rule="nonzero" fill="#ffffff" stroke="none" />
  <path d="M 218 718  C 221.08 718  223.5 720.42  223.5 723.5  C 223.5 726.58  221.08 729  218 729  C 214.92 729  212.5 726.58  212.5 723.5  C 212.5 720.42  214.92 718  218 718  Z " stroke-width="1" stroke="#797979" fill="none" />
  <path d="M 218 726.5  C 216.32 726.5  215 725.18  215 723.5  C 215 721.82  216.32 720.5  218 720.5  C 219.68 720.5  221 721.82  221 723.5  C 221 725.18  219.68 726.5  218 726.5  " fill-rule="nonzero" fill="#797979" stroke="none" />
</svg>