<?xml version="1.0" encoding="utf-8"?>
<svg version="1.1" xmlns:xlink="http://www.w3.org/1999/xlink" width="12px" height="12px" viewBox="212 892.5  12 12" xmlns="http://www.w3.org/2000/svg">
  <path d="M 218 892.5  C 221.36 892.5  224 895.14  224 898.5  C 224 901.86  221.36 904.5  218 904.5  C 214.64 904.5  212 901.86  212 898.5  C 212 895.14  214.64 892.5  218 892.5  Z " fill-rule="nonzero" fill="#f0f0f0" stroke="none" />
  <path d="M 218 893  C 221.08 893  223.5 895.42  223.5 898.5  C 223.5 901.58  221.08 904  218 904  C 214.92 904  212.5 901.58  212.5 898.5  C 212.5 895.42  214.92 893  218 893  Z " stroke-width="1" stroke="#333333" fill="none" />
  <path d="M 218 901.5  C 216.32 901.5  215 900.18  215 898.5  C 215 896.82  216.32 895.5  218 895.5  C 219.68 895.5  221 896.82  221 898.5  C 221 900.18  219.68 901.5  218 901.5  " fill-rule="nonzero" fill="#333333" stroke="none" />
</svg>