<?xml version="1.0" encoding="utf-8"?>
<svg version="1.1" xmlns:xlink="http://www.w3.org/1999/xlink" width="12px" height="12px" viewBox="212 867.5  12 12" xmlns="http://www.w3.org/2000/svg">
  <path d="M 218 867.5  C 221.36 867.5  224 870.14  224 873.5  C 224 876.86  221.36 879.5  218 879.5  C 214.64 879.5  212 876.86  212 873.5  C 212 870.14  214.64 867.5  218 867.5  Z " fill-rule="nonzero" fill="#ffffff" stroke="none" />
  <path d="M 218 868  C 221.08 868  223.5 870.42  223.5 873.5  C 223.5 876.58  221.08 879  218 879  C 214.92 879  212.5 876.58  212.5 873.5  C 212.5 870.42  214.92 868  218 868  Z " stroke-width="1" stroke="#333333" fill="none" />
  <path d="M 218 876.5  C 216.32 876.5  215 875.18  215 873.5  C 215 871.82  216.32 870.5  218 870.5  C 219.68 870.5  221 871.82  221 873.5  C 221 875.18  219.68 876.5  218 876.5  " fill-rule="nonzero" fill="#333333" stroke="none" />
</svg>