<?xml version="1.0" encoding="utf-8"?>
<svg version="1.1" xmlns:xlink="http://www.w3.org/1999/xlink" width="12px" height="12px" viewBox="212 841.5  12 12" xmlns="http://www.w3.org/2000/svg">
  <path d="M 218 841.5  C 221.36 841.5  224 844.14  224 847.5  C 224 850.86  221.36 853.5  218 853.5  C 214.64 853.5  212 850.86  212 847.5  C 212 844.14  214.64 841.5  218 841.5  Z " fill-rule="nonzero" fill="#f0f0f0" stroke="none" />
  <path d="M 218 842  C 221.08 842  223.5 844.42  223.5 847.5  C 223.5 850.58  221.08 853  218 853  C 214.92 853  212.5 850.58  212.5 847.5  C 212.5 844.42  214.92 842  218 842  Z " stroke-width="1" stroke="#333333" fill="none" />
  <path d="M 218 850.5  C 216.32 850.5  215 849.18  215 847.5  C 215 845.82  216.32 844.5  218 844.5  C 219.68 844.5  221 845.82  221 847.5  C 221 849.18  219.68 850.5  218 850.5  " fill-rule="nonzero" fill="#333333" stroke="none" />
</svg>