<?xml version="1.0" encoding="utf-8"?>
<svg version="1.1" xmlns:xlink="http://www.w3.org/1999/xlink" width="12px" height="12px" viewBox="212 816.5  12 12" xmlns="http://www.w3.org/2000/svg">
  <path d="M 218 816.5  C 221.36 816.5  224 819.14  224 822.5  C 224 825.86  221.36 828.5  218 828.5  C 214.64 828.5  212 825.86  212 822.5  C 212 819.14  214.64 816.5  218 816.5  Z " fill-rule="nonzero" fill="#ffffff" stroke="none" />
  <path d="M 218 817  C 221.08 817  223.5 819.42  223.5 822.5  C 223.5 825.58  221.08 828  218 828  C 214.92 828  212.5 825.58  212.5 822.5  C 212.5 819.42  214.92 817  218 817  Z " stroke-width="1" stroke="#797979" fill="none" />
  <path d="M 218 825.5  C 216.32 825.5  215 824.18  215 822.5  C 215 820.82  216.32 819.5  218 819.5  C 219.68 819.5  221 820.82  221 822.5  C 221 824.18  219.68 825.5  218 825.5  " fill-rule="nonzero" fill="#797979" stroke="none" />
</svg>