<?xml version="1.0" encoding="utf-8"?>
<svg version="1.1" xmlns:xlink="http://www.w3.org/1999/xlink" width="12px" height="12px" viewBox="334 1136.5  12 12" xmlns="http://www.w3.org/2000/svg">
  <path d="M 340 1136.5  C 343.36 1136.5  346 1139.14  346 1142.5  C 346 1145.86  343.36 1148.5  340 1148.5  C 336.64 1148.5  334 1145.86  334 1142.5  C 334 1139.14  336.64 1136.5  340 1136.5  Z " fill-rule="nonzero" fill="#ffffff" stroke="none" />
  <path d="M 340 1137  C 343.08 1137  345.5 1139.42  345.5 1142.5  C 345.5 1145.58  343.08 1148  340 1148  C 336.92 1148  334.5 1145.58  334.5 1142.5  C 334.5 1139.42  336.92 1137  340 1137  Z " stroke-width="1" stroke="#333333" fill="none" />
  <path d="M 340 1145.5  C 338.32 1145.5  337 1144.18  337 1142.5  C 337 1140.82  338.32 1139.5  340 1139.5  C 341.68 1139.5  343 1140.82  343 1142.5  C 343 1144.18  341.68 1145.5  340 1145.5  " fill-rule="nonzero" fill="#333333" stroke="none" />
</svg>