<?xml version="1.0" encoding="utf-8"?>
<svg version="1.1" xmlns:xlink="http://www.w3.org/1999/xlink" width="12px" height="12px" viewBox="467 1136.5  12 12" xmlns="http://www.w3.org/2000/svg">
  <path d="M 473 1136.5  C 476.36 1136.5  479 1139.14  479 1142.5  C 479 1145.86  476.36 1148.5  473 1148.5  C 469.64 1148.5  467 1145.86  467 1142.5  C 467 1139.14  469.64 1136.5  473 1136.5  Z " fill-rule="nonzero" fill="#f0f0f0" stroke="none" />
  <path d="M 473 1137  C 476.08 1137  478.5 1139.42  478.5 1142.5  C 478.5 1145.58  476.08 1148  473 1148  C 469.92 1148  467.5 1145.58  467.5 1142.5  C 467.5 1139.42  469.92 1137  473 1137  Z " stroke-width="1" stroke="#333333" fill="none" />
  <path d="M 473 1145.5  C 471.32 1145.5  470 1144.18  470 1142.5  C 470 1140.82  471.32 1139.5  473 1139.5  C 474.68 1139.5  476 1140.82  476 1142.5  C 476 1144.18  474.68 1145.5  473 1145.5  " fill-rule="nonzero" fill="#333333" stroke="none" />
</svg>