<?xml version="1.0" encoding="utf-8"?>
<svg version="1.1" xmlns:xlink="http://www.w3.org/1999/xlink" width="12px" height="12px" viewBox="334 1166.5  12 12" xmlns="http://www.w3.org/2000/svg">
  <path d="M 340 1166.5  C 343.36 1166.5  346 1169.14  346 1172.5  C 346 1175.86  343.36 1178.5  340 1178.5  C 336.64 1178.5  334 1175.86  334 1172.5  C 334 1169.14  336.64 1166.5  340 1166.5  Z " fill-rule="nonzero" fill="#ffffff" stroke="none" />
  <path d="M 340 1167  C 343.08 1167  345.5 1169.42  345.5 1172.5  C 345.5 1175.58  343.08 1178  340 1178  C 336.92 1178  334.5 1175.58  334.5 1172.5  C 334.5 1169.42  336.92 1167  340 1167  Z " stroke-width="1" stroke="#333333" fill="none" />
  <path d="M 340 1175.5  C 338.32 1175.5  337 1174.18  337 1172.5  C 337 1170.82  338.32 1169.5  340 1169.5  C 341.68 1169.5  343 1170.82  343 1172.5  C 343 1174.18  341.68 1175.5  340 1175.5  " fill-rule="nonzero" fill="#333333" stroke="none" />
</svg>