<?xml version="1.0" encoding="utf-8"?>
<svg version="1.1" xmlns:xlink="http://www.w3.org/1999/xlink" width="12px" height="12px" viewBox="403 1166.5  12 12" xmlns="http://www.w3.org/2000/svg">
  <path d="M 409 1166.5  C 412.36 1166.5  415 1169.14  415 1172.5  C 415 1175.86  412.36 1178.5  409 1178.5  C 405.64 1178.5  403 1175.86  403 1172.5  C 403 1169.14  405.64 1166.5  409 1166.5  Z " fill-rule="nonzero" fill="#ffffff" stroke="none" />
  <path d="M 409 1167  C 412.08 1167  414.5 1169.42  414.5 1172.5  C 414.5 1175.58  412.08 1178  409 1178  C 405.92 1178  403.5 1175.58  403.5 1172.5  C 403.5 1169.42  405.92 1167  409 1167  Z " stroke-width="1" stroke="#333333" fill="none" />
  <path d="M 409 1175.5  C 407.32 1175.5  406 1174.18  406 1172.5  C 406 1170.82  407.32 1169.5  409 1169.5  C 410.68 1169.5  412 1170.82  412 1172.5  C 412 1174.18  410.68 1175.5  409 1175.5  " fill-rule="nonzero" fill="#333333" stroke="none" />
</svg>