<?xml version="1.0" encoding="utf-8"?>
<svg version="1.1" xmlns:xlink="http://www.w3.org/1999/xlink" width="12px" height="12px" viewBox="334 1194.5  12 12" xmlns="http://www.w3.org/2000/svg">
  <path d="M 340 1194.5  C 343.36 1194.5  346 1197.14  346 1200.5  C 346 1203.86  343.36 1206.5  340 1206.5  C 336.64 1206.5  334 1203.86  334 1200.5  C 334 1197.14  336.64 1194.5  340 1194.5  Z " fill-rule="nonzero" fill="#f0f0f0" stroke="none" />
  <path d="M 340 1195  C 343.08 1195  345.5 1197.42  345.5 1200.5  C 345.5 1203.58  343.08 1206  340 1206  C 336.92 1206  334.5 1203.58  334.5 1200.5  C 334.5 1197.42  336.92 1195  340 1195  Z " stroke-width="1" stroke="#333333" fill="none" />
  <path d="M 340 1203.5  C 338.32 1203.5  337 1202.18  337 1200.5  C 337 1198.82  338.32 1197.5  340 1197.5  C 341.68 1197.5  343 1198.82  343 1200.5  C 343 1202.18  341.68 1203.5  340 1203.5  " fill-rule="nonzero" fill="#333333" stroke="none" />
</svg>