<?xml version="1.0" encoding="utf-8"?>
<svg version="1.1" xmlns:xlink="http://www.w3.org/1999/xlink" width="12px" height="12px" viewBox="693 385.5  12 12" xmlns="http://www.w3.org/2000/svg">
  <path d="M 699 385.5  C 702.36 385.5  705 388.14  705 391.5  C 705 394.86  702.36 397.5  699 397.5  C 695.64 397.5  693 394.86  693 391.5  C 693 388.14  695.64 385.5  699 385.5  Z " fill-rule="nonzero" fill="#ffffff" stroke="none" />
  <path d="M 699 386  C 702.08 386  704.5 388.42  704.5 391.5  C 704.5 394.58  702.08 397  699 397  C 695.92 397  693.5 394.58  693.5 391.5  C 693.5 388.42  695.92 386  699 386  Z " stroke-width="1" stroke="#797979" fill="none" />
  <path d="M 699 394.5  C 697.32 394.5  696 393.18  696 391.5  C 696 389.82  697.32 388.5  699 388.5  C 700.68 388.5  702 389.82  702 391.5  C 702 393.18  700.68 394.5  699 394.5  " fill-rule="nonzero" fill="#797979" stroke="none" />
</svg>