<?xml version="1.0" encoding="utf-8"?>
<svg version="1.1" xmlns:xlink="http://www.w3.org/1999/xlink" width="12px" height="12px" viewBox="754 412.5  12 12" xmlns="http://www.w3.org/2000/svg">
  <path d="M 760 412.5  C 763.36 412.5  766 415.14  766 418.5  C 766 421.86  763.36 424.5  760 424.5  C 756.64 424.5  754 421.86  754 418.5  C 754 415.14  756.64 412.5  760 412.5  Z " fill-rule="nonzero" fill="#ffffff" stroke="none" />
  <path d="M 760 413  C 763.08 413  765.5 415.42  765.5 418.5  C 765.5 421.58  763.08 424  760 424  C 756.92 424  754.5 421.58  754.5 418.5  C 754.5 415.42  756.92 413  760 413  Z " stroke-width="1" stroke="#333333" fill="none" />
  <path d="M 760 421.5  C 758.32 421.5  757 420.18  757 418.5  C 757 416.82  758.32 415.5  760 415.5  C 761.68 415.5  763 416.82  763 418.5  C 763 420.18  761.68 421.5  760 421.5  " fill-rule="nonzero" fill="#333333" stroke="none" />
</svg>