<?xml version="1.0" encoding="utf-8"?>
<svg version="1.1" xmlns:xlink="http://www.w3.org/1999/xlink" width="12px" height="12px" viewBox="693 412.5  12 12" xmlns="http://www.w3.org/2000/svg">
  <path d="M 699 412.5  C 702.36 412.5  705 415.14  705 418.5  C 705 421.86  702.36 424.5  699 424.5  C 695.64 424.5  693 421.86  693 418.5  C 693 415.14  695.64 412.5  699 412.5  Z " fill-rule="nonzero" fill="#ffffff" stroke="none" />
  <path d="M 699 413  C 702.08 413  704.5 415.42  704.5 418.5  C 704.5 421.58  702.08 424  699 424  C 695.92 424  693.5 421.58  693.5 418.5  C 693.5 415.42  695.92 413  699 413  Z " stroke-width="1" stroke="#797979" fill="none" />
  <path d="M 699 421.5  C 697.32 421.5  696 420.18  696 418.5  C 696 416.82  697.32 415.5  699 415.5  C 700.68 415.5  702 416.82  702 418.5  C 702 420.18  700.68 421.5  699 421.5  " fill-rule="nonzero" fill="#797979" stroke="none" />
</svg>