<?xml version="1.0" encoding="utf-8"?>
<svg version="1.1" xmlns:xlink="http://www.w3.org/1999/xlink" width="12px" height="12px" viewBox="823 412.5  12 12" xmlns="http://www.w3.org/2000/svg">
  <path d="M 829 412.5  C 832.36 412.5  835 415.14  835 418.5  C 835 421.86  832.36 424.5  829 424.5  C 825.64 424.5  823 421.86  823 418.5  C 823 415.14  825.64 412.5  829 412.5  Z " fill-rule="nonzero" fill="#ffffff" stroke="none" />
  <path d="M 829 413  C 832.08 413  834.5 415.42  834.5 418.5  C 834.5 421.58  832.08 424  829 424  C 825.92 424  823.5 421.58  823.5 418.5  C 823.5 415.42  825.92 413  829 413  Z " stroke-width="1" stroke="#333333" fill="none" />
  <path d="M 829 421.5  C 827.32 421.5  826 420.18  826 418.5  C 826 416.82  827.32 415.5  829 415.5  C 830.68 415.5  832 416.82  832 418.5  C 832 420.18  830.68 421.5  829 421.5  " fill-rule="nonzero" fill="#333333" stroke="none" />
</svg>