<?xml version="1.0" encoding="utf-8"?>
<svg version="1.1" xmlns:xlink="http://www.w3.org/1999/xlink" width="12px" height="12px" viewBox="909 472.5  12 12" xmlns="http://www.w3.org/2000/svg">
  <path d="M 915 472.5  C 918.36 472.5  921 475.14  921 478.5  C 921 481.86  918.36 484.5  915 484.5  C 911.64 484.5  909 481.86  909 478.5  C 909 475.14  911.64 472.5  915 472.5  Z " fill-rule="nonzero" fill="#ffffff" stroke="none" />
  <path d="M 915 473  C 918.08 473  920.5 475.42  920.5 478.5  C 920.5 481.58  918.08 484  915 484  C 911.92 484  909.5 481.58  909.5 478.5  C 909.5 475.42  911.92 473  915 473  Z " stroke-width="1" stroke="#333333" fill="none" />
  <path d="M 915 481.5  C 913.32 481.5  912 480.18  912 478.5  C 912 476.82  913.32 475.5  915 475.5  C 916.68 475.5  918 476.82  918 478.5  C 918 480.18  916.68 481.5  915 481.5  " fill-rule="nonzero" fill="#333333" stroke="none" />
</svg>