<?xml version="1.0" encoding="utf-8"?>
<svg version="1.1" xmlns:xlink="http://www.w3.org/1999/xlink" width="12px" height="12px" viewBox="823 472.5  12 12" xmlns="http://www.w3.org/2000/svg">
  <path d="M 829 472.5  C 832.36 472.5  835 475.14  835 478.5  C 835 481.86  832.36 484.5  829 484.5  C 825.64 484.5  823 481.86  823 478.5  C 823 475.14  825.64 472.5  829 472.5  Z " fill-rule="nonzero" fill="#f0f0f0" stroke="none" />
  <path d="M 829 473  C 832.08 473  834.5 475.42  834.5 478.5  C 834.5 481.58  832.08 484  829 484  C 825.92 484  823.5 481.58  823.5 478.5  C 823.5 475.42  825.92 473  829 473  Z " stroke-width="1" stroke="#333333" fill="none" />
  <path d="M 829 481.5  C 827.32 481.5  826 480.18  826 478.5  C 826 476.82  827.32 475.5  829 475.5  C 830.68 475.5  832 476.82  832 478.5  C 832 480.18  830.68 481.5  829 481.5  " fill-rule="nonzero" fill="#333333" stroke="none" />
</svg>