<?xml version="1.0" encoding="utf-8"?>
<svg version="1.1" xmlns:xlink="http://www.w3.org/1999/xlink" width="12px" height="12px" viewBox="804 656.5  12 12" xmlns="http://www.w3.org/2000/svg">
  <path d="M 810 656.5  C 813.36 656.5  816 659.14  816 662.5  C 816 665.86  813.36 668.5  810 668.5  C 806.64 668.5  804 665.86  804 662.5  C 804 659.14  806.64 656.5  810 656.5  Z " fill-rule="nonzero" fill="#f0f0f0" stroke="none" />
  <path d="M 810 657  C 813.08 657  815.5 659.42  815.5 662.5  C 815.5 665.58  813.08 668  810 668  C 806.92 668  804.5 665.58  804.5 662.5  C 804.5 659.42  806.92 657  810 657  Z " stroke-width="1" stroke="#333333" fill="none" />
  <path d="M 810 665.5  C 808.32 665.5  807 664.18  807 662.5  C 807 660.82  808.32 659.5  810 659.5  C 811.68 659.5  813 660.82  813 662.5  C 813 664.18  811.68 665.5  810 665.5  " fill-rule="nonzero" fill="#333333" stroke="none" />
</svg>