<?xml version="1.0" encoding="utf-8"?>
<svg version="1.1" xmlns:xlink="http://www.w3.org/1999/xlink" width="12px" height="12px" viewBox="716 656.5  12 12" xmlns="http://www.w3.org/2000/svg">
  <path d="M 722 656.5  C 725.36 656.5  728 659.14  728 662.5  C 728 665.86  725.36 668.5  722 668.5  C 718.64 668.5  716 665.86  716 662.5  C 716 659.14  718.64 656.5  722 656.5  Z " fill-rule="nonzero" fill="#f0f0f0" stroke="none" />
  <path d="M 722 657  C 725.08 657  727.5 659.42  727.5 662.5  C 727.5 665.58  725.08 668  722 668  C 718.92 668  716.5 665.58  716.5 662.5  C 716.5 659.42  718.92 657  722 657  Z " stroke-width="1" stroke="#333333" fill="none" />
  <path d="M 722 665.5  C 720.32 665.5  719 664.18  719 662.5  C 719 660.82  720.32 659.5  722 659.5  C 723.68 659.5  725 660.82  725 662.5  C 725 664.18  723.68 665.5  722 665.5  " fill-rule="nonzero" fill="#333333" stroke="none" />
</svg>