<?xml version="1.0" encoding="utf-8"?>
<svg version="1.1" xmlns:xlink="http://www.w3.org/1999/xlink" width="12px" height="12px" viewBox="938 785.5  12 12" xmlns="http://www.w3.org/2000/svg">
  <path d="M 944 785.5  C 947.36 785.5  950 788.14  950 791.5  C 950 794.86  947.36 797.5  944 797.5  C 940.64 797.5  938 794.86  938 791.5  C 938 788.14  940.64 785.5  944 785.5  Z " fill-rule="nonzero" fill="#ffffff" stroke="none" />
  <path d="M 944 786  C 947.08 786  949.5 788.42  949.5 791.5  C 949.5 794.58  947.08 797  944 797  C 940.92 797  938.5 794.58  938.5 791.5  C 938.5 788.42  940.92 786  944 786  Z " stroke-width="1" stroke="#333333" fill="none" />
  <path d="M 944 794.5  C 942.32 794.5  941 793.18  941 791.5  C 941 789.82  942.32 788.5  944 788.5  C 945.68 788.5  947 789.82  947 791.5  C 947 793.18  945.68 794.5  944 794.5  " fill-rule="nonzero" fill="#333333" stroke="none" />
</svg>