<?xml version="1.0" encoding="utf-8"?>
<svg version="1.1" xmlns:xlink="http://www.w3.org/1999/xlink" width="12px" height="12px" viewBox="716 758.5  12 12" xmlns="http://www.w3.org/2000/svg">
  <path d="M 722 758.5  C 725.36 758.5  728 761.14  728 764.5  C 728 767.86  725.36 770.5  722 770.5  C 718.64 770.5  716 767.86  716 764.5  C 716 761.14  718.64 758.5  722 758.5  Z " fill-rule="nonzero" fill="#f0f0f0" stroke="none" />
  <path d="M 722 759  C 725.08 759  727.5 761.42  727.5 764.5  C 727.5 767.58  725.08 770  722 770  C 718.92 770  716.5 767.58  716.5 764.5  C 716.5 761.42  718.92 759  722 759  Z " stroke-width="1" stroke="#333333" fill="none" />
  <path d="M 722 767.5  C 720.32 767.5  719 766.18  719 764.5  C 719 762.82  720.32 761.5  722 761.5  C 723.68 761.5  725 762.82  725 764.5  C 725 766.18  723.68 767.5  722 767.5  " fill-rule="nonzero" fill="#333333" stroke="none" />
</svg>