<?xml version="1.0" encoding="utf-8"?>
<svg version="1.1" xmlns:xlink="http://www.w3.org/1999/xlink" width="12px" height="12px" viewBox="952 704.5  12 12" xmlns="http://www.w3.org/2000/svg">
  <path d="M 958 704.5  C 961.36 704.5  964 707.14  964 710.5  C 964 713.86  961.36 716.5  958 716.5  C 954.64 716.5  952 713.86  952 710.5  C 952 707.14  954.64 704.5  958 704.5  Z " fill-rule="nonzero" fill="#ffffff" stroke="none" />
  <path d="M 958 705  C 961.08 705  963.5 707.42  963.5 710.5  C 963.5 713.58  961.08 716  958 716  C 954.92 716  952.5 713.58  952.5 710.5  C 952.5 707.42  954.92 705  958 705  Z " stroke-width="1" stroke="#333333" fill="none" />
  <path d="M 958 713.5  C 956.32 713.5  955 712.18  955 710.5  C 955 708.82  956.32 707.5  958 707.5  C 959.68 707.5  961 708.82  961 710.5  C 961 712.18  959.68 713.5  958 713.5  " fill-rule="nonzero" fill="#333333" stroke="none" />
</svg>