<?xml version="1.0" encoding="utf-8"?>
<svg version="1.1" xmlns:xlink="http://www.w3.org/1999/xlink" width="12px" height="12px" viewBox="785 758.5  12 12" xmlns="http://www.w3.org/2000/svg">
  <path d="M 791 758.5  C 794.36 758.5  797 761.14  797 764.5  C 797 767.86  794.36 770.5  791 770.5  C 787.64 770.5  785 767.86  785 764.5  C 785 761.14  787.64 758.5  791 758.5  Z " fill-rule="nonzero" fill="#f0f0f0" stroke="none" />
  <path d="M 791 759  C 794.08 759  796.5 761.42  796.5 764.5  C 796.5 767.58  794.08 770  791 770  C 787.92 770  785.5 767.58  785.5 764.5  C 785.5 761.42  787.92 759  791 759  Z " stroke-width="1" stroke="#333333" fill="none" />
  <path d="M 791 767.5  C 789.32 767.5  788 766.18  788 764.5  C 788 762.82  789.32 761.5  791 761.5  C 792.68 761.5  794 762.82  794 764.5  C 794 766.18  792.68 767.5  791 767.5  " fill-rule="nonzero" fill="#333333" stroke="none" />
</svg>