<?xml version="1.0" encoding="utf-8"?>
<svg version="1.1" xmlns:xlink="http://www.w3.org/1999/xlink" width="12px" height="12px" viewBox="804 785.5  12 12" xmlns="http://www.w3.org/2000/svg">
  <path d="M 810 785.5  C 813.36 785.5  816 788.14  816 791.5  C 816 794.86  813.36 797.5  810 797.5  C 806.64 797.5  804 794.86  804 791.5  C 804 788.14  806.64 785.5  810 785.5  Z " fill-rule="nonzero" fill="#ffffff" stroke="none" />
  <path d="M 810 786  C 813.08 786  815.5 788.42  815.5 791.5  C 815.5 794.58  813.08 797  810 797  C 806.92 797  804.5 794.58  804.5 791.5  C 804.5 788.42  806.92 786  810 786  Z " stroke-width="1" stroke="#333333" fill="none" />
  <path d="M 810 794.5  C 808.32 794.5  807 793.18  807 791.5  C 807 789.82  808.32 788.5  810 788.5  C 811.68 788.5  813 789.82  813 791.5  C 813 793.18  811.68 794.5  810 794.5  " fill-rule="nonzero" fill="#333333" stroke="none" />
</svg>