<?xml version="1.0" encoding="utf-8"?>
<svg version="1.1" xmlns:xlink="http://www.w3.org/1999/xlink" width="12px" height="12px" viewBox="785 877.5  12 12" xmlns="http://www.w3.org/2000/svg">
  <path d="M 791 877.5  C 794.36 877.5  797 880.14  797 883.5  C 797 886.86  794.36 889.5  791 889.5  C 787.64 889.5  785 886.86  785 883.5  C 785 880.14  787.64 877.5  791 877.5  Z " fill-rule="nonzero" fill="#ffffff" stroke="none" />
  <path d="M 791 878  C 794.08 878  796.5 880.42  796.5 883.5  C 796.5 886.58  794.08 889  791 889  C 787.92 889  785.5 886.58  785.5 883.5  C 785.5 880.42  787.92 878  791 878  Z " stroke-width="1" stroke="#333333" fill="none" />
  <path d="M 791 886.5  C 789.32 886.5  788 885.18  788 883.5  C 788 881.82  789.32 880.5  791 880.5  C 792.68 880.5  794 881.82  794 883.5  C 794 885.18  792.68 886.5  791 886.5  " fill-rule="nonzero" fill="#333333" stroke="none" />
</svg>