<?xml version="1.0" encoding="utf-8"?>
<svg version="1.1" xmlns:xlink="http://www.w3.org/1999/xlink" width="12px" height="12px" viewBox="938 813.5  12 12" xmlns="http://www.w3.org/2000/svg">
  <path d="M 944 813.5  C 947.36 813.5  950 816.14  950 819.5  C 950 822.86  947.36 825.5  944 825.5  C 940.64 825.5  938 822.86  938 819.5  C 938 816.14  940.64 813.5  944 813.5  Z " fill-rule="nonzero" fill="#ffffff" stroke="none" />
  <path d="M 944 814  C 947.08 814  949.5 816.42  949.5 819.5  C 949.5 822.58  947.08 825  944 825  C 940.92 825  938.5 822.58  938.5 819.5  C 938.5 816.42  940.92 814  944 814  Z " stroke-width="1" stroke="#333333" fill="none" />
  <path d="M 944 822.5  C 942.32 822.5  941 821.18  941 819.5  C 941 817.82  942.32 816.5  944 816.5  C 945.68 816.5  947 817.82  947 819.5  C 947 821.18  945.68 822.5  944 822.5  " fill-rule="nonzero" fill="#333333" stroke="none" />
</svg>