<?xml version="1.0" encoding="utf-8"?>
<svg version="1.1" xmlns:xlink="http://www.w3.org/1999/xlink" width="12px" height="12px" viewBox="871 813.5  12 12" xmlns="http://www.w3.org/2000/svg">
  <path d="M 877 813.5  C 880.36 813.5  883 816.14  883 819.5  C 883 822.86  880.36 825.5  877 825.5  C 873.64 825.5  871 822.86  871 819.5  C 871 816.14  873.64 813.5  877 813.5  Z " fill-rule="nonzero" fill="#ffffff" stroke="none" />
  <path d="M 877 814  C 880.08 814  882.5 816.42  882.5 819.5  C 882.5 822.58  880.08 825  877 825  C 873.92 825  871.5 822.58  871.5 819.5  C 871.5 816.42  873.92 814  877 814  Z " stroke-width="1" stroke="#333333" fill="none" />
  <path d="M 877 822.5  C 875.32 822.5  874 821.18  874 819.5  C 874 817.82  875.32 816.5  877 816.5  C 878.68 816.5  880 817.82  880 819.5  C 880 821.18  878.68 822.5  877 822.5  " fill-rule="nonzero" fill="#333333" stroke="none" />
</svg>