<?xml version="1.0" encoding="utf-8"?>
<svg version="1.1" xmlns:xlink="http://www.w3.org/1999/xlink" width="12px" height="12px" viewBox="804 813.5  12 12" xmlns="http://www.w3.org/2000/svg">
  <path d="M 810 813.5  C 813.36 813.5  816 816.14  816 819.5  C 816 822.86  813.36 825.5  810 825.5  C 806.64 825.5  804 822.86  804 819.5  C 804 816.14  806.64 813.5  810 813.5  Z " fill-rule="nonzero" fill="#ffffff" stroke="none" />
  <path d="M 810 814  C 813.08 814  815.5 816.42  815.5 819.5  C 815.5 822.58  813.08 825  810 825  C 806.92 825  804.5 822.58  804.5 819.5  C 804.5 816.42  806.92 814  810 814  Z " stroke-width="1" stroke="#333333" fill="none" />
  <path d="M 810 822.5  C 808.32 822.5  807 821.18  807 819.5  C 807 817.82  808.32 816.5  810 816.5  C 811.68 816.5  813 817.82  813 819.5  C 813 821.18  811.68 822.5  810 822.5  " fill-rule="nonzero" fill="#333333" stroke="none" />
</svg>