<?xml version="1.0" encoding="utf-8"?>
<svg version="1.1" xmlns:xlink="http://www.w3.org/1999/xlink" width="12px" height="12px" viewBox="804 904.5  12 12" xmlns="http://www.w3.org/2000/svg">
  <path d="M 810 904.5  C 813.36 904.5  816 907.14  816 910.5  C 816 913.86  813.36 916.5  810 916.5  C 806.64 916.5  804 913.86  804 910.5  C 804 907.14  806.64 904.5  810 904.5  Z " fill-rule="nonzero" fill="#f0f0f0" stroke="none" />
  <path d="M 810 905  C 813.08 905  815.5 907.42  815.5 910.5  C 815.5 913.58  813.08 916  810 916  C 806.92 916  804.5 913.58  804.5 910.5  C 804.5 907.42  806.92 905  810 905  Z " stroke-width="1" stroke="#333333" fill="none" />
  <path d="M 810 913.5  C 808.32 913.5  807 912.18  807 910.5  C 807 908.82  808.32 907.5  810 907.5  C 811.68 907.5  813 908.82  813 910.5  C 813 912.18  811.68 913.5  810 913.5  " fill-rule="nonzero" fill="#333333" stroke="none" />
</svg>