<?xml version="1.0" encoding="utf-8"?>
<svg version="1.1" xmlns:xlink="http://www.w3.org/1999/xlink" width="12px" height="12px" viewBox="606 1294.5  12 12" xmlns="http://www.w3.org/2000/svg">
  <path d="M 612 1294.5  C 615.36 1294.5  618 1297.14  618 1300.5  C 618 1303.86  615.36 1306.5  612 1306.5  C 608.64 1306.5  606 1303.86  606 1300.5  C 606 1297.14  608.64 1294.5  612 1294.5  Z " fill-rule="nonzero" fill="#ffffff" stroke="none" />
  <path d="M 612 1295  C 615.08 1295  617.5 1297.42  617.5 1300.5  C 617.5 1303.58  615.08 1306  612 1306  C 608.92 1306  606.5 1303.58  606.5 1300.5  C 606.5 1297.42  608.92 1295  612 1295  Z " stroke-width="1" stroke="#333333" fill="none" />
  <path d="M 612 1303.5  C 610.32 1303.5  609 1302.18  609 1300.5  C 609 1298.82  610.32 1297.5  612 1297.5  C 613.68 1297.5  615 1298.82  615 1300.5  C 615 1302.18  613.68 1303.5  612 1303.5  " fill-rule="nonzero" fill="#333333" stroke="none" />
</svg>