<?xml version="1.0" encoding="utf-8"?>
<svg version="1.1" xmlns:xlink="http://www.w3.org/1999/xlink" width="12px" height="12px" viewBox="606 1158.5  12 12" xmlns="http://www.w3.org/2000/svg">
  <path d="M 612 1158.5  C 615.36 1158.5  618 1161.14  618 1164.5  C 618 1167.86  615.36 1170.5  612 1170.5  C 608.64 1170.5  606 1167.86  606 1164.5  C 606 1161.14  608.64 1158.5  612 1158.5  Z " fill-rule="nonzero" fill="#f0f0f0" stroke="none" />
  <path d="M 612 1159  C 615.08 1159  617.5 1161.42  617.5 1164.5  C 617.5 1167.58  615.08 1170  612 1170  C 608.92 1170  606.5 1167.58  606.5 1164.5  C 606.5 1161.42  608.92 1159  612 1159  Z " stroke-width="1" stroke="#333333" fill="none" />
  <path d="M 612 1167.5  C 610.32 1167.5  609 1166.18  609 1164.5  C 609 1162.82  610.32 1161.5  612 1161.5  C 613.68 1161.5  615 1162.82  615 1164.5  C 615 1166.18  613.68 1167.5  612 1167.5  " fill-rule="nonzero" fill="#333333" stroke="none" />
</svg>