<?xml version="1.0" encoding="utf-8"?>
<svg version="1.1" xmlns:xlink="http://www.w3.org/1999/xlink" width="12px" height="12px" viewBox="871 904.5  12 12" xmlns="http://www.w3.org/2000/svg">
  <path d="M 877 904.5  C 880.36 904.5  883 907.14  883 910.5  C 883 913.86  880.36 916.5  877 916.5  C 873.64 916.5  871 913.86  871 910.5  C 871 907.14  873.64 904.5  877 904.5  Z " fill-rule="nonzero" fill="#ffffff" stroke="none" />
  <path d="M 877 905  C 880.08 905  882.5 907.42  882.5 910.5  C 882.5 913.58  880.08 916  877 916  C 873.92 916  871.5 913.58  871.5 910.5  C 871.5 907.42  873.92 905  877 905  Z " stroke-width="1" stroke="#333333" fill="none" />
  <path d="M 877 913.5  C 875.32 913.5  874 912.18  874 910.5  C 874 908.82  875.32 907.5  877 907.5  C 878.68 907.5  880 908.82  880 910.5  C 880 912.18  878.68 913.5  877 913.5  " fill-rule="nonzero" fill="#333333" stroke="none" />
</svg>