<?xml version="1.0" encoding="utf-8"?>
<svg version="1.1" xmlns:xlink="http://www.w3.org/1999/xlink" width="12px" height="12px" viewBox="349 673.5  12 12" xmlns="http://www.w3.org/2000/svg">
  <path d="M 355 673.5  C 358.36 673.5  361 676.14  361 679.5  C 361 682.86  358.36 685.5  355 685.5  C 351.64 685.5  349 682.86  349 679.5  C 349 676.14  351.64 673.5  355 673.5  Z " fill-rule="nonzero" fill="#f0f0f0" stroke="none" />
  <path d="M 355 674  C 358.08 674  360.5 676.42  360.5 679.5  C 360.5 682.58  358.08 685  355 685  C 351.92 685  349.5 682.58  349.5 679.5  C 349.5 676.42  351.92 674  355 674  Z " stroke-width="1" stroke="#333333" fill="none" />
  <path d="M 355 682.5  C 353.32 682.5  352 681.18  352 679.5  C 352 677.82  353.32 676.5  355 676.5  C 356.68 676.5  358 677.82  358 679.5  C 358 681.18  356.68 682.5  355 682.5  " fill-rule="nonzero" fill="#333333" stroke="none" />
</svg>