<?xml version="1.0" encoding="utf-8"?>
<svg version="1.1" xmlns:xlink="http://www.w3.org/1999/xlink" width="12px" height="12px" viewBox="193 598.5  12 12" xmlns="http://www.w3.org/2000/svg">
  <path d="M 199 598.5  C 202.36 598.5  205 601.14  205 604.5  C 205 607.86  202.36 610.5  199 610.5  C 195.64 610.5  193 607.86  193 604.5  C 193 601.14  195.64 598.5  199 598.5  Z " fill-rule="nonzero" fill="#f0f0f0" stroke="none" />
  <path d="M 199 599  C 202.08 599  204.5 601.42  204.5 604.5  C 204.5 607.58  202.08 610  199 610  C 195.92 610  193.5 607.58  193.5 604.5  C 193.5 601.42  195.92 599  199 599  Z " stroke-width="1" stroke="#797979" fill="none" />
  <path d="M 199 607.5  C 197.32 607.5  196 606.18  196 604.5  C 196 602.82  197.32 601.5  199 601.5  C 200.68 601.5  202 602.82  202 604.5  C 202 606.18  200.68 607.5  199 607.5  " fill-rule="nonzero" fill="#797979" stroke="none" />
</svg>