<?xml version="1.0" encoding="utf-8"?>
<svg version="1.1" xmlns:xlink="http://www.w3.org/1999/xlink" width="12px" height="12px" viewBox="276 1367.5  12 12" xmlns="http://www.w3.org/2000/svg">
  <path d="M 282 1367.5  C 285.36 1367.5  288 1370.14  288 1373.5  C 288 1376.86  285.36 1379.5  282 1379.5  C 278.64 1379.5  276 1376.86  276 1373.5  C 276 1370.14  278.64 1367.5  282 1367.5  Z " fill-rule="nonzero" fill="#ffffff" stroke="none" />
  <path d="M 282 1368  C 285.08 1368  287.5 1370.42  287.5 1373.5  C 287.5 1376.58  285.08 1379  282 1379  C 278.92 1379  276.5 1376.58  276.5 1373.5  C 276.5 1370.42  278.92 1368  282 1368  Z " stroke-width="1" stroke="#333333" fill="none" />
  <path d="M 282 1376.5  C 280.32 1376.5  279 1375.18  279 1373.5  C 279 1371.82  280.32 1370.5  282 1370.5  C 283.68 1370.5  285 1371.82  285 1373.5  C 285 1375.18  283.68 1376.5  282 1376.5  " fill-rule="nonzero" fill="#333333" stroke="none" />
</svg>