<?xml version="1.0" encoding="utf-8"?>
<svg version="1.1" xmlns:xlink="http://www.w3.org/1999/xlink" width="12px" height="12px" viewBox="873 1928.5  12 12" xmlns="http://www.w3.org/2000/svg">
  <path d="M 879 1928.5  C 882.36 1928.5  885 1931.14  885 1934.5  C 885 1937.86  882.36 1940.5  879 1940.5  C 875.64 1940.5  873 1937.86  873 1934.5  C 873 1931.14  875.64 1928.5  879 1928.5  Z " fill-rule="nonzero" fill="#f0f0f0" stroke="none" />
  <path d="M 879 1929  C 882.08 1929  884.5 1931.42  884.5 1934.5  C 884.5 1937.58  882.08 1940  879 1940  C 875.92 1940  873.5 1937.58  873.5 1934.5  C 873.5 1931.42  875.92 1929  879 1929  Z " stroke-width="1" stroke="#797979" fill="none" />
  <path d="M 879 1937.5  C 877.32 1937.5  876 1936.18  876 1934.5  C 876 1932.82  877.32 1931.5  879 1931.5  C 880.68 1931.5  882 1932.82  882 1934.5  C 882 1936.18  880.68 1937.5  879 1937.5  " fill-rule="nonzero" fill="#797979" stroke="none" />
</svg>