<?xml version="1.0" encoding="utf-8"?>
<svg version="1.1" xmlns:xlink="http://www.w3.org/1999/xlink" width="12px" height="12px" viewBox="808 2278.5  12 12" xmlns="http://www.w3.org/2000/svg">
  <path d="M 814 2278.5  C 817.36 2278.5  820 2281.14  820 2284.5  C 820 2287.86  817.36 2290.5  814 2290.5  C 810.64 2290.5  808 2287.86  808 2284.5  C 808 2281.14  810.64 2278.5  814 2278.5  Z " fill-rule="nonzero" fill="#ffffff" stroke="none" />
  <path d="M 814 2279  C 817.08 2279  819.5 2281.42  819.5 2284.5  C 819.5 2287.58  817.08 2290  814 2290  C 810.92 2290  808.5 2287.58  808.5 2284.5  C 808.5 2281.42  810.92 2279  814 2279  Z " stroke-width="1" stroke="#333333" fill="none" />
  <path d="M 814 2287.5  C 812.32 2287.5  811 2286.18  811 2284.5  C 811 2282.82  812.32 2281.5  814 2281.5  C 815.68 2281.5  817 2282.82  817 2284.5  C 817 2286.18  815.68 2287.5  814 2287.5  " fill-rule="nonzero" fill="#333333" stroke="none" />
</svg>