<?xml version="1.0" encoding="utf-8"?>
<svg version="1.1" xmlns:xlink="http://www.w3.org/1999/xlink" width="12px" height="12px" viewBox="439 637.5  12 12" xmlns="http://www.w3.org/2000/svg">
  <path d="M 445 637.5  C 448.36 637.5  451 640.14  451 643.5  C 451 646.86  448.36 649.5  445 649.5  C 441.64 649.5  439 646.86  439 643.5  C 439 640.14  441.64 637.5  445 637.5  Z " fill-rule="nonzero" fill="#f0f0f0" stroke="none" />
  <path d="M 445 638  C 448.08 638  450.5 640.42  450.5 643.5  C 450.5 646.58  448.08 649  445 649  C 441.92 649  439.5 646.58  439.5 643.5  C 439.5 640.42  441.92 638  445 638  Z " stroke-width="1" stroke="#797979" fill="none" />
  <path d="M 445 646.5  C 443.32 646.5  442 645.18  442 643.5  C 442 641.82  443.32 640.5  445 640.5  C 446.68 640.5  448 641.82  448 643.5  C 448 645.18  446.68 646.5  445 646.5  " fill-rule="nonzero" fill="#797979" stroke="none" />
</svg>