<?xml version="1.0" encoding="utf-8"?>
<svg version="1.1" xmlns:xlink="http://www.w3.org/1999/xlink" width="12px" height="12px" viewBox="529 610.5  12 12" xmlns="http://www.w3.org/2000/svg">
  <path d="M 535 610.5  C 538.36 610.5  541 613.14  541 616.5  C 541 619.86  538.36 622.5  535 622.5  C 531.64 622.5  529 619.86  529 616.5  C 529 613.14  531.64 610.5  535 610.5  Z " fill-rule="nonzero" fill="#ffffff" stroke="none" />
  <path d="M 535 611  C 538.08 611  540.5 613.42  540.5 616.5  C 540.5 619.58  538.08 622  535 622  C 531.92 622  529.5 619.58  529.5 616.5  C 529.5 613.42  531.92 611  535 611  Z " stroke-width="1" stroke="#333333" fill="none" />
  <path d="M 535 619.5  C 533.32 619.5  532 618.18  532 616.5  C 532 614.82  533.32 613.5  535 613.5  C 536.68 613.5  538 614.82  538 616.5  C 538 618.18  536.68 619.5  535 619.5  " fill-rule="nonzero" fill="#333333" stroke="none" />
</svg>