<?xml version="1.0" encoding="utf-8"?>
<svg version="1.1" xmlns:xlink="http://www.w3.org/1999/xlink" width="12px" height="12px" viewBox="529 875.5  12 12" xmlns="http://www.w3.org/2000/svg">
  <path d="M 535 875.5  C 538.36 875.5  541 878.14  541 881.5  C 541 884.86  538.36 887.5  535 887.5  C 531.64 887.5  529 884.86  529 881.5  C 529 878.14  531.64 875.5  535 875.5  Z " fill-rule="nonzero" fill="#ffffff" stroke="none" />
  <path d="M 535 876  C 538.08 876  540.5 878.42  540.5 881.5  C 540.5 884.58  538.08 887  535 887  C 531.92 887  529.5 884.58  529.5 881.5  C 529.5 878.42  531.92 876  535 876  Z " stroke-width="1" stroke="#333333" fill="none" />
  <path d="M 535 884.5  C 533.32 884.5  532 883.18  532 881.5  C 532 879.82  533.32 878.5  535 878.5  C 536.68 878.5  538 879.82  538 881.5  C 538 883.18  536.68 884.5  535 884.5  " fill-rule="nonzero" fill="#333333" stroke="none" />
</svg>