<?xml version="1.0" encoding="utf-8"?>
<svg version="1.1" xmlns:xlink="http://www.w3.org/1999/xlink" width="12px" height="12px" viewBox="487 1072.5  12 12" xmlns="http://www.w3.org/2000/svg">
  <path d="M 493 1072.5  C 496.36 1072.5  499 1075.14  499 1078.5  C 499 1081.86  496.36 1084.5  493 1084.5  C 489.64 1084.5  487 1081.86  487 1078.5  C 487 1075.14  489.64 1072.5  493 1072.5  Z " fill-rule="nonzero" fill="#ffffff" stroke="none" />
  <path d="M 493 1073  C 496.08 1073  498.5 1075.42  498.5 1078.5  C 498.5 1081.58  496.08 1084  493 1084  C 489.92 1084  487.5 1081.58  487.5 1078.5  C 487.5 1075.42  489.92 1073  493 1073  Z " stroke-width="1" stroke="#333333" fill="none" />
  <path d="M 493 1081.5  C 491.32 1081.5  490 1080.18  490 1078.5  C 490 1076.82  491.32 1075.5  493 1075.5  C 494.68 1075.5  496 1076.82  496 1078.5  C 496 1080.18  494.68 1081.5  493 1081.5  " fill-rule="nonzero" fill="#333333" stroke="none" />
</svg>