<?xml version="1.0" encoding="utf-8"?>
<svg version="1.1" xmlns:xlink="http://www.w3.org/1999/xlink" width="12px" height="12px" viewBox="342 1072.5  12 12" xmlns="http://www.w3.org/2000/svg">
  <path d="M 348 1072.5  C 351.36 1072.5  354 1075.14  354 1078.5  C 354 1081.86  351.36 1084.5  348 1084.5  C 344.64 1084.5  342 1081.86  342 1078.5  C 342 1075.14  344.64 1072.5  348 1072.5  Z " fill-rule="nonzero" fill="#ffffff" stroke="none" />
  <path d="M 348 1073  C 351.08 1073  353.5 1075.42  353.5 1078.5  C 353.5 1081.58  351.08 1084  348 1084  C 344.92 1084  342.5 1081.58  342.5 1078.5  C 342.5 1075.42  344.92 1073  348 1073  Z " stroke-width="1" stroke="#333333" fill="none" />
  <path d="M 348 1081.5  C 346.32 1081.5  345 1080.18  345 1078.5  C 345 1076.82  346.32 1075.5  348 1075.5  C 349.68 1075.5  351 1076.82  351 1078.5  C 351 1080.18  349.68 1081.5  348 1081.5  " fill-rule="nonzero" fill="#333333" stroke="none" />
</svg>