<?xml version="1.0" encoding="utf-8"?>
<svg version="1.1" xmlns:xlink="http://www.w3.org/1999/xlink" width="12px" height="12px" viewBox="272 626.5  12 12" xmlns="http://www.w3.org/2000/svg">
  <path d="M 278 626.5  C 281.36 626.5  284 629.14  284 632.5  C 284 635.86  281.36 638.5  278 638.5  C 274.64 638.5  272 635.86  272 632.5  C 272 629.14  274.64 626.5  278 626.5  Z " fill-rule="nonzero" fill="#ffffff" stroke="none" />
  <path d="M 278 627  C 281.08 627  283.5 629.42  283.5 632.5  C 283.5 635.58  281.08 638  278 638  C 274.92 638  272.5 635.58  272.5 632.5  C 272.5 629.42  274.92 627  278 627  Z " stroke-width="1" stroke="#797979" fill="none" />
  <path d="M 278 635.5  C 276.32 635.5  275 634.18  275 632.5  C 275 630.82  276.32 629.5  278 629.5  C 279.68 629.5  281 630.82  281 632.5  C 281 634.18  279.68 635.5  278 635.5  " fill-rule="nonzero" fill="#797979" stroke="none" />
</svg>