<?xml version="1.0" encoding="utf-8"?>
<svg version="1.1" xmlns:xlink="http://www.w3.org/1999/xlink" width="12px" height="12px" viewBox="595 382.5  12 12" xmlns="http://www.w3.org/2000/svg">
  <path d="M 601 382.5  C 604.36 382.5  607 385.14  607 388.5  C 607 391.86  604.36 394.5  601 394.5  C 597.64 394.5  595 391.86  595 388.5  C 595 385.14  597.64 382.5  601 382.5  Z " fill-rule="nonzero" fill="#f0f0f0" stroke="none" />
  <path d="M 601 383  C 604.08 383  606.5 385.42  606.5 388.5  C 606.5 391.58  604.08 394  601 394  C 597.92 394  595.5 391.58  595.5 388.5  C 595.5 385.42  597.92 383  601 383  Z " stroke-width="1" stroke="#797979" fill="none" />
  <path d="M 601 391.5  C 599.32 391.5  598 390.18  598 388.5  C 598 386.82  599.32 385.5  601 385.5  C 602.68 385.5  604 386.82  604 388.5  C 604 390.18  602.68 391.5  601 391.5  " fill-rule="nonzero" fill="#797979" stroke="none" />
</svg>