<?xml version="1.0" encoding="utf-8"?>
<svg version="1.1" xmlns:xlink="http://www.w3.org/1999/xlink" width="12px" height="12px" viewBox="619 548.5  12 12" xmlns="http://www.w3.org/2000/svg">
  <path d="M 625 548.5  C 628.36 548.5  631 551.14  631 554.5  C 631 557.86  628.36 560.5  625 560.5  C 621.64 560.5  619 557.86  619 554.5  C 619 551.14  621.64 548.5  625 548.5  Z " fill-rule="nonzero" fill="#ffffff" stroke="none" />
  <path d="M 625 549  C 628.08 549  630.5 551.42  630.5 554.5  C 630.5 557.58  628.08 560  625 560  C 621.92 560  619.5 557.58  619.5 554.5  C 619.5 551.42  621.92 549  625 549  Z " stroke-width="1" stroke="#797979" fill="none" />
  <path d="M 625 557.5  C 623.32 557.5  622 556.18  622 554.5  C 622 552.82  623.32 551.5  625 551.5  C 626.68 551.5  628 552.82  628 554.5  C 628 556.18  626.68 557.5  625 557.5  " fill-rule="nonzero" fill="#797979" stroke="none" />
</svg>