<?xml version="1.0" encoding="utf-8"?>
<svg version="1.1" xmlns:xlink="http://www.w3.org/1999/xlink" width="12px" height="12px" viewBox="780 547.5  12 12" xmlns="http://www.w3.org/2000/svg">
  <path d="M 786 547.5  C 789.36 547.5  792 550.14  792 553.5  C 792 556.86  789.36 559.5  786 559.5  C 782.64 559.5  780 556.86  780 553.5  C 780 550.14  782.64 547.5  786 547.5  Z " fill-rule="nonzero" fill="#ffffff" stroke="none" />
  <path d="M 786 548  C 789.08 548  791.5 550.42  791.5 553.5  C 791.5 556.58  789.08 559  786 559  C 782.92 559  780.5 556.58  780.5 553.5  C 780.5 550.42  782.92 548  786 548  Z " stroke-width="1" stroke="#797979" fill="none" />
  <path d="M 786 556.5  C 784.32 556.5  783 555.18  783 553.5  C 783 551.82  784.32 550.5  786 550.5  C 787.68 550.5  789 551.82  789 553.5  C 789 555.18  787.68 556.5  786 556.5  " fill-rule="nonzero" fill="#797979" stroke="none" />
</svg>