<?xml version="1.0" encoding="utf-8"?>
<svg version="1.1" xmlns:xlink="http://www.w3.org/1999/xlink" width="12px" height="12px" viewBox="619 516.5  12 12" xmlns="http://www.w3.org/2000/svg">
  <path d="M 625 516.5  C 628.36 516.5  631 519.14  631 522.5  C 631 525.86  628.36 528.5  625 528.5  C 621.64 528.5  619 525.86  619 522.5  C 619 519.14  621.64 516.5  625 516.5  Z " fill-rule="nonzero" fill="#ffffff" stroke="none" />
  <path d="M 625 517  C 628.08 517  630.5 519.42  630.5 522.5  C 630.5 525.58  628.08 528  625 528  C 621.92 528  619.5 525.58  619.5 522.5  C 619.5 519.42  621.92 517  625 517  Z " stroke-width="1" stroke="#797979" fill="none" />
  <path d="M 625 525.5  C 623.32 525.5  622 524.18  622 522.5  C 622 520.82  623.32 519.5  625 519.5  C 626.68 519.5  628 520.82  628 522.5  C 628 524.18  626.68 525.5  625 525.5  " fill-rule="nonzero" fill="#797979" stroke="none" />
</svg>