<?xml version="1.0" encoding="utf-8"?>
<svg version="1.1" xmlns:xlink="http://www.w3.org/1999/xlink" width="12px" height="12px" viewBox="684 516.5  12 12" xmlns="http://www.w3.org/2000/svg">
  <path d="M 690 516.5  C 693.36 516.5  696 519.14  696 522.5  C 696 525.86  693.36 528.5  690 528.5  C 686.64 528.5  684 525.86  684 522.5  C 684 519.14  686.64 516.5  690 516.5  Z " fill-rule="nonzero" fill="#ffffff" stroke="none" />
  <path d="M 690 517  C 693.08 517  695.5 519.42  695.5 522.5  C 695.5 525.58  693.08 528  690 528  C 686.92 528  684.5 525.58  684.5 522.5  C 684.5 519.42  686.92 517  690 517  Z " stroke-width="1" stroke="#797979" fill="none" />
  <path d="M 690 525.5  C 688.32 525.5  687 524.18  687 522.5  C 687 520.82  688.32 519.5  690 519.5  C 691.68 519.5  693 520.82  693 522.5  C 693 524.18  691.68 525.5  690 525.5  " fill-rule="nonzero" fill="#797979" stroke="none" />
</svg>