<?xml version="1.0" encoding="utf-8"?>
<svg version="1.1" xmlns:xlink="http://www.w3.org/1999/xlink" width="12px" height="12px" viewBox="739 516.5  12 12" xmlns="http://www.w3.org/2000/svg">
  <path d="M 745 516.5  C 748.36 516.5  751 519.14  751 522.5  C 751 525.86  748.36 528.5  745 528.5  C 741.64 528.5  739 525.86  739 522.5  C 739 519.14  741.64 516.5  745 516.5  Z " fill-rule="nonzero" fill="#f0f0f0" stroke="none" />
  <path d="M 745 517  C 748.08 517  750.5 519.42  750.5 522.5  C 750.5 525.58  748.08 528  745 528  C 741.92 528  739.5 525.58  739.5 522.5  C 739.5 519.42  741.92 517  745 517  Z " stroke-width="1" stroke="#797979" fill="none" />
  <path d="M 745 525.5  C 743.32 525.5  742 524.18  742 522.5  C 742 520.82  743.32 519.5  745 519.5  C 746.68 519.5  748 520.82  748 522.5  C 748 524.18  746.68 525.5  745 525.5  " fill-rule="nonzero" fill="#797979" stroke="none" />
</svg>