<?xml version="1.0" encoding="utf-8"?>
<svg version="1.1" xmlns:xlink="http://www.w3.org/1999/xlink" width="12px" height="12px" viewBox="684 548.5  12 12" xmlns="http://www.w3.org/2000/svg">
  <path d="M 690 548.5  C 693.36 548.5  696 551.14  696 554.5  C 696 557.86  693.36 560.5  690 560.5  C 686.64 560.5  684 557.86  684 554.5  C 684 551.14  686.64 548.5  690 548.5  Z " fill-rule="nonzero" fill="#ffffff" stroke="none" />
  <path d="M 690 549  C 693.08 549  695.5 551.42  695.5 554.5  C 695.5 557.58  693.08 560  690 560  C 686.92 560  684.5 557.58  684.5 554.5  C 684.5 551.42  686.92 549  690 549  Z " stroke-width="1" stroke="#8080ff" fill="none" />
  <path d="M 690 557.5  C 688.32 557.5  687 556.18  687 554.5  C 687 552.82  688.32 551.5  690 551.5  C 691.68 551.5  693 552.82  693 554.5  C 693 556.18  691.68 557.5  690 557.5  " fill-rule="nonzero" fill="#8080ff" stroke="none" />
</svg>