<?xml version="1.0" encoding="utf-8"?>
<svg version="1.1" xmlns:xlink="http://www.w3.org/1999/xlink" width="12px" height="12px" viewBox="619 575.5  12 12" xmlns="http://www.w3.org/2000/svg">
  <path d="M 625 575.5  C 628.36 575.5  631 578.14  631 581.5  C 631 584.86  628.36 587.5  625 587.5  C 621.64 587.5  619 584.86  619 581.5  C 619 578.14  621.64 575.5  625 575.5  Z " fill-rule="nonzero" fill="#f0f0f0" stroke="none" />
  <path d="M 625 576  C 628.08 576  630.5 578.42  630.5 581.5  C 630.5 584.58  628.08 587  625 587  C 621.92 587  619.5 584.58  619.5 581.5  C 619.5 578.42  621.92 576  625 576  Z " stroke-width="1" stroke="#797979" fill="none" />
  <path d="M 625 584.5  C 623.32 584.5  622 583.18  622 581.5  C 622 579.82  623.32 578.5  625 578.5  C 626.68 578.5  628 579.82  628 581.5  C 628 583.18  626.68 584.5  625 584.5  " fill-rule="nonzero" fill="#797979" stroke="none" />
</svg>