<?xml version="1.0" encoding="utf-8"?>
<svg version="1.1" xmlns:xlink="http://www.w3.org/1999/xlink" width="12px" height="12px" viewBox="928 516.5  12 12" xmlns="http://www.w3.org/2000/svg">
  <path d="M 934 516.5  C 937.36 516.5  940 519.14  940 522.5  C 940 525.86  937.36 528.5  934 528.5  C 930.64 528.5  928 525.86  928 522.5  C 928 519.14  930.64 516.5  934 516.5  Z " fill-rule="nonzero" fill="#f0f0f0" stroke="none" />
  <path d="M 934 517  C 937.08 517  939.5 519.42  939.5 522.5  C 939.5 525.58  937.08 528  934 528  C 930.92 528  928.5 525.58  928.5 522.5  C 928.5 519.42  930.92 517  934 517  Z " stroke-width="1" stroke="#797979" fill="none" />
  <path d="M 934 525.5  C 932.32 525.5  931 524.18  931 522.5  C 931 520.82  932.32 519.5  934 519.5  C 935.68 519.5  937 520.82  937 522.5  C 937 524.18  935.68 525.5  934 525.5  " fill-rule="nonzero" fill="#797979" stroke="none" />
</svg>