<?xml version="1.0" encoding="utf-8"?>
<svg version="1.1" xmlns:xlink="http://www.w3.org/1999/xlink" width="12px" height="12px" viewBox="928 583.5  12 12" xmlns="http://www.w3.org/2000/svg">
  <path d="M 934 583.5  C 937.36 583.5  940 586.14  940 589.5  C 940 592.86  937.36 595.5  934 595.5  C 930.64 595.5  928 592.86  928 589.5  C 928 586.14  930.64 583.5  934 583.5  Z " fill-rule="nonzero" fill="#f0f0f0" stroke="none" />
  <path d="M 934 584  C 937.08 584  939.5 586.42  939.5 589.5  C 939.5 592.58  937.08 595  934 595  C 930.92 595  928.5 592.58  928.5 589.5  C 928.5 586.42  930.92 584  934 584  Z " stroke-width="1" stroke="#797979" fill="none" />
  <path d="M 934 592.5  C 932.32 592.5  931 591.18  931 589.5  C 931 587.82  932.32 586.5  934 586.5  C 935.68 586.5  937 587.82  937 589.5  C 937 591.18  935.68 592.5  934 592.5  " fill-rule="nonzero" fill="#797979" stroke="none" />
</svg>