<?xml version="1.0" encoding="utf-8"?>
<svg version="1.1" xmlns:xlink="http://www.w3.org/1999/xlink" width="12px" height="12px" viewBox="980 547.5  12 12" xmlns="http://www.w3.org/2000/svg">
  <path d="M 986 547.5  C 989.36 547.5  992 550.14  992 553.5  C 992 556.86  989.36 559.5  986 559.5  C 982.64 559.5  980 556.86  980 553.5  C 980 550.14  982.64 547.5  986 547.5  Z " fill-rule="nonzero" fill="#ffffff" stroke="none" />
  <path d="M 986 548  C 989.08 548  991.5 550.42  991.5 553.5  C 991.5 556.58  989.08 559  986 559  C 982.92 559  980.5 556.58  980.5 553.5  C 980.5 550.42  982.92 548  986 548  Z " stroke-width="1" stroke="#8080ff" fill="none" />
  <path d="M 986 556.5  C 984.32 556.5  983 555.18  983 553.5  C 983 551.82  984.32 550.5  986 550.5  C 987.68 550.5  989 551.82  989 553.5  C 989 555.18  987.68 556.5  986 556.5  " fill-rule="nonzero" fill="#8080ff" stroke="none" />
</svg>