<?xml version="1.0" encoding="utf-8"?>
<svg version="1.1" xmlns:xlink="http://www.w3.org/1999/xlink" width="12px" height="12px" viewBox="981 516.5  12 12" xmlns="http://www.w3.org/2000/svg">
  <path d="M 987 516.5  C 990.36 516.5  993 519.14  993 522.5  C 993 525.86  990.36 528.5  987 528.5  C 983.64 528.5  981 525.86  981 522.5  C 981 519.14  983.64 516.5  987 516.5  Z " fill-rule="nonzero" fill="#ffffff" stroke="none" />
  <path d="M 987 517  C 990.08 517  992.5 519.42  992.5 522.5  C 992.5 525.58  990.08 528  987 528  C 983.92 528  981.5 525.58  981.5 522.5  C 981.5 519.42  983.92 517  987 517  Z " stroke-width="1" stroke="#797979" fill="none" />
  <path d="M 987 525.5  C 985.32 525.5  984 524.18  984 522.5  C 984 520.82  985.32 519.5  987 519.5  C 988.68 519.5  990 520.82  990 522.5  C 990 524.18  988.68 525.5  987 525.5  " fill-rule="nonzero" fill="#797979" stroke="none" />
</svg>