<?xml version="1.0" encoding="utf-8"?>
<svg version="1.1" xmlns:xlink="http://www.w3.org/1999/xlink" width="12px" height="12px" viewBox="980 583.5  12 12" xmlns="http://www.w3.org/2000/svg">
  <path d="M 986 583.5  C 989.36 583.5  992 586.14  992 589.5  C 992 592.86  989.36 595.5  986 595.5  C 982.64 595.5  980 592.86  980 589.5  C 980 586.14  982.64 583.5  986 583.5  Z " fill-rule="nonzero" fill="#f0f0f0" stroke="none" />
  <path d="M 986 584  C 989.08 584  991.5 586.42  991.5 589.5  C 991.5 592.58  989.08 595  986 595  C 982.92 595  980.5 592.58  980.5 589.5  C 980.5 586.42  982.92 584  986 584  Z " stroke-width="1" stroke="#797979" fill="none" />
  <path d="M 986 592.5  C 984.32 592.5  983 591.18  983 589.5  C 983 587.82  984.32 586.5  986 586.5  C 987.68 586.5  989 587.82  989 589.5  C 989 591.18  987.68 592.5  986 592.5  " fill-rule="nonzero" fill="#797979" stroke="none" />
</svg>