<?xml version="1.0" encoding="utf-8"?>
<svg version="1.1" xmlns:xlink="http://www.w3.org/1999/xlink" width="12px" height="12px" viewBox="438 1153.5  12 12" xmlns="http://www.w3.org/2000/svg">
  <path d="M 444 1153.5  C 447.36 1153.5  450 1156.14  450 1159.5  C 450 1162.86  447.36 1165.5  444 1165.5  C 440.64 1165.5  438 1162.86  438 1159.5  C 438 1156.14  440.64 1153.5  444 1153.5  Z " fill-rule="nonzero" fill="#f0f0f0" stroke="none" />
  <path d="M 444 1154  C 447.08 1154  449.5 1156.42  449.5 1159.5  C 449.5 1162.58  447.08 1165  444 1165  C 440.92 1165  438.5 1162.58  438.5 1159.5  C 438.5 1156.42  440.92 1154  444 1154  Z " stroke-width="1" stroke="#797979" fill="none" />
  <path d="M 444 1162.5  C 442.32 1162.5  441 1161.18  441 1159.5  C 441 1157.82  442.32 1156.5  444 1156.5  C 445.68 1156.5  447 1157.82  447 1159.5  C 447 1161.18  445.68 1162.5  444 1162.5  " fill-rule="nonzero" fill="#797979" stroke="none" />
</svg>