<?xml version="1.0" encoding="utf-8"?>
<svg version="1.1" xmlns:xlink="http://www.w3.org/1999/xlink" width="12px" height="12px" viewBox="438 1214.5  12 12" xmlns="http://www.w3.org/2000/svg">
  <path d="M 444 1214.5  C 447.36 1214.5  450 1217.14  450 1220.5  C 450 1223.86  447.36 1226.5  444 1226.5  C 440.64 1226.5  438 1223.86  438 1220.5  C 438 1217.14  440.64 1214.5  444 1214.5  Z " fill-rule="nonzero" fill="#ffffff" stroke="none" />
  <path d="M 444 1215  C 447.08 1215  449.5 1217.42  449.5 1220.5  C 449.5 1223.58  447.08 1226  444 1226  C 440.92 1226  438.5 1223.58  438.5 1220.5  C 438.5 1217.42  440.92 1215  444 1215  Z " stroke-width="1" stroke="#797979" fill="none" />
  <path d="M 444 1223.5  C 442.32 1223.5  441 1222.18  441 1220.5  C 441 1218.82  442.32 1217.5  444 1217.5  C 445.68 1217.5  447 1218.82  447 1220.5  C 447 1222.18  445.68 1223.5  444 1223.5  " fill-rule="nonzero" fill="#797979" stroke="none" />
</svg>