<?xml version="1.0" encoding="utf-8"?>
<svg version="1.1" xmlns:xlink="http://www.w3.org/1999/xlink" width="12px" height="12px" viewBox="530 1153.5  12 12" xmlns="http://www.w3.org/2000/svg">
  <path d="M 536 1153.5  C 539.36 1153.5  542 1156.14  542 1159.5  C 542 1162.86  539.36 1165.5  536 1165.5  C 532.64 1165.5  530 1162.86  530 1159.5  C 530 1156.14  532.64 1153.5  536 1153.5  Z " fill-rule="nonzero" fill="#f0f0f0" stroke="none" />
  <path d="M 536 1154  C 539.08 1154  541.5 1156.42  541.5 1159.5  C 541.5 1162.58  539.08 1165  536 1165  C 532.92 1165  530.5 1162.58  530.5 1159.5  C 530.5 1156.42  532.92 1154  536 1154  Z " stroke-width="1" stroke="#797979" fill="none" />
  <path d="M 536 1162.5  C 534.32 1162.5  533 1161.18  533 1159.5  C 533 1157.82  534.32 1156.5  536 1156.5  C 537.68 1156.5  539 1157.82  539 1159.5  C 539 1161.18  537.68 1162.5  536 1162.5  " fill-rule="nonzero" fill="#797979" stroke="none" />
</svg>