<?xml version="1.0" encoding="utf-8"?>
<svg version="1.1" xmlns:xlink="http://www.w3.org/1999/xlink" width="12px" height="12px" viewBox="355 1153.5  12 12" xmlns="http://www.w3.org/2000/svg">
  <path d="M 361 1153.5  C 364.36 1153.5  367 1156.14  367 1159.5  C 367 1162.86  364.36 1165.5  361 1165.5  C 357.64 1165.5  355 1162.86  355 1159.5  C 355 1156.14  357.64 1153.5  361 1153.5  Z " fill-rule="nonzero" fill="#f0f0f0" stroke="none" />
  <path d="M 361 1154  C 364.08 1154  366.5 1156.42  366.5 1159.5  C 366.5 1162.58  364.08 1165  361 1165  C 357.92 1165  355.5 1162.58  355.5 1159.5  C 355.5 1156.42  357.92 1154  361 1154  Z " stroke-width="1" stroke="#797979" fill="none" />
  <path d="M 361 1162.5  C 359.32 1162.5  358 1161.18  358 1159.5  C 358 1157.82  359.32 1156.5  361 1156.5  C 362.68 1156.5  364 1157.82  364 1159.5  C 364 1161.18  362.68 1162.5  361 1162.5  " fill-rule="nonzero" fill="#797979" stroke="none" />
</svg>