<?xml version="1.0" encoding="utf-8"?>
<svg version="1.1" xmlns:xlink="http://www.w3.org/1999/xlink" width="12px" height="12px" viewBox="438 1184.5  12 12" xmlns="http://www.w3.org/2000/svg">
  <path d="M 444 1184.5  C 447.36 1184.5  450 1187.14  450 1190.5  C 450 1193.86  447.36 1196.5  444 1196.5  C 440.64 1196.5  438 1193.86  438 1190.5  C 438 1187.14  440.64 1184.5  444 1184.5  Z " fill-rule="nonzero" fill="#ffffff" stroke="none" />
  <path d="M 444 1185  C 447.08 1185  449.5 1187.42  449.5 1190.5  C 449.5 1193.58  447.08 1196  444 1196  C 440.92 1196  438.5 1193.58  438.5 1190.5  C 438.5 1187.42  440.92 1185  444 1185  Z " stroke-width="1" stroke="#8080ff" fill="none" />
  <path d="M 444 1193.5  C 442.32 1193.5  441 1192.18  441 1190.5  C 441 1188.82  442.32 1187.5  444 1187.5  C 445.68 1187.5  447 1188.82  447 1190.5  C 447 1192.18  445.68 1193.5  444 1193.5  " fill-rule="nonzero" fill="#8080ff" stroke="none" />
</svg>