<?xml version="1.0" encoding="utf-8"?>
<svg version="1.1" xmlns:xlink="http://www.w3.org/1999/xlink" width="12px" height="12px" viewBox="337 516.5  12 12" xmlns="http://www.w3.org/2000/svg">
  <path d="M 343 516.5  C 346.36 516.5  349 519.14  349 522.5  C 349 525.86  346.36 528.5  343 528.5  C 339.64 528.5  337 525.86  337 522.5  C 337 519.14  339.64 516.5  343 516.5  Z " fill-rule="nonzero" fill="#f0f0f0" stroke="none" />
  <path d="M 343 517  C 346.08 517  348.5 519.42  348.5 522.5  C 348.5 525.58  346.08 528  343 528  C 339.92 528  337.5 525.58  337.5 522.5  C 337.5 519.42  339.92 517  343 517  Z " stroke-width="1" stroke="#8080ff" fill="none" />
  <path d="M 343 525.5  C 341.32 525.5  340 524.18  340 522.5  C 340 520.82  341.32 519.5  343 519.5  C 344.68 519.5  346 520.82  346 522.5  C 346 524.18  344.68 525.5  343 525.5  " fill-rule="nonzero" fill="#8080ff" stroke="none" />
</svg>