<?xml version="1.0" encoding="utf-8"?>
<svg version="1.1" xmlns:xlink="http://www.w3.org/1999/xlink" width="12px" height="12px" viewBox="337 547.5  12 12" xmlns="http://www.w3.org/2000/svg">
  <path d="M 343 547.5  C 346.36 547.5  349 550.14  349 553.5  C 349 556.86  346.36 559.5  343 559.5  C 339.64 559.5  337 556.86  337 553.5  C 337 550.14  339.64 547.5  343 547.5  Z " fill-rule="nonzero" fill="#f0f0f0" stroke="none" />
  <path d="M 343 548  C 346.08 548  348.5 550.42  348.5 553.5  C 348.5 556.58  346.08 559  343 559  C 339.92 559  337.5 556.58  337.5 553.5  C 337.5 550.42  339.92 548  343 548  Z " stroke-width="1" stroke="#8080ff" fill="none" />
  <path d="M 343 556.5  C 341.32 556.5  340 555.18  340 553.5  C 340 551.82  341.32 550.5  343 550.5  C 344.68 550.5  346 551.82  346 553.5  C 346 555.18  344.68 556.5  343 556.5  " fill-rule="nonzero" fill="#8080ff" stroke="none" />
</svg>