<?xml version="1.0" encoding="utf-8"?>
<svg version="1.1" xmlns:xlink="http://www.w3.org/1999/xlink" width="12px" height="12px" viewBox="1030 583.5  12 12" xmlns="http://www.w3.org/2000/svg">
  <path d="M 1036 583.5  C 1039.36 583.5  1042 586.14  1042 589.5  C 1042 592.86  1039.36 595.5  1036 595.5  C 1032.64 595.5  1030 592.86  1030 589.5  C 1030 586.14  1032.64 583.5  1036 583.5  Z " fill-rule="nonzero" fill="#f0f0f0" stroke="none" />
  <path d="M 1036 584  C 1039.08 584  1041.5 586.42  1041.5 589.5  C 1041.5 592.58  1039.08 595  1036 595  C 1032.92 595  1030.5 592.58  1030.5 589.5  C 1030.5 586.42  1032.92 584  1036 584  Z " stroke-width="1" stroke="#797979" fill="none" />
  <path d="M 1036 592.5  C 1034.32 592.5  1033 591.18  1033 589.5  C 1033 587.82  1034.32 586.5  1036 586.5  C 1037.68 586.5  1039 587.82  1039 589.5  C 1039 591.18  1037.68 592.5  1036 592.5  " fill-rule="nonzero" fill="#797979" stroke="none" />
</svg>