<?xml version="1.0" encoding="utf-8"?>
<svg version="1.1" xmlns:xlink="http://www.w3.org/1999/xlink" width="12px" height="12px" viewBox="405 547.5  12 12" xmlns="http://www.w3.org/2000/svg">
  <path d="M 411 547.5  C 414.36 547.5  417 550.14  417 553.5  C 417 556.86  414.36 559.5  411 559.5  C 407.64 559.5  405 556.86  405 553.5  C 405 550.14  407.64 547.5  411 547.5  Z " fill-rule="nonzero" fill="#ffffff" stroke="none" />
  <path d="M 411 548  C 414.08 548  416.5 550.42  416.5 553.5  C 416.5 556.58  414.08 559  411 559  C 407.92 559  405.5 556.58  405.5 553.5  C 405.5 550.42  407.92 548  411 548  Z " stroke-width="1" stroke="#797979" fill="none" />
  <path d="M 411 556.5  C 409.32 556.5  408 555.18  408 553.5  C 408 551.82  409.32 550.5  411 550.5  C 412.68 550.5  414 551.82  414 553.5  C 414 555.18  412.68 556.5  411 556.5  " fill-rule="nonzero" fill="#797979" stroke="none" />
</svg>