<?xml version="1.0" encoding="utf-8"?>
<svg version="1.1" xmlns:xlink="http://www.w3.org/1999/xlink" width="12px" height="12px" viewBox="405 516.5  12 12" xmlns="http://www.w3.org/2000/svg">
  <path d="M 411 516.5  C 414.36 516.5  417 519.14  417 522.5  C 417 525.86  414.36 528.5  411 528.5  C 407.64 528.5  405 525.86  405 522.5  C 405 519.14  407.64 516.5  411 516.5  Z " fill-rule="nonzero" fill="#f0f0f0" stroke="none" />
  <path d="M 411 517  C 414.08 517  416.5 519.42  416.5 522.5  C 416.5 525.58  414.08 528  411 528  C 407.92 528  405.5 525.58  405.5 522.5  C 405.5 519.42  407.92 517  411 517  Z " stroke-width="1" stroke="#797979" fill="none" />
  <path d="M 411 525.5  C 409.32 525.5  408 524.18  408 522.5  C 408 520.82  409.32 519.5  411 519.5  C 412.68 519.5  414 520.82  414 522.5  C 414 524.18  412.68 525.5  411 525.5  " fill-rule="nonzero" fill="#797979" stroke="none" />
</svg>