<?xml version="1.0" encoding="utf-8"?>
<svg version="1.1" xmlns:xlink="http://www.w3.org/1999/xlink" width="12px" height="12px" viewBox="530 1184.5  12 12" xmlns="http://www.w3.org/2000/svg">
  <path d="M 536 1184.5  C 539.36 1184.5  542 1187.14  542 1190.5  C 542 1193.86  539.36 1196.5  536 1196.5  C 532.64 1196.5  530 1193.86  530 1190.5  C 530 1187.14  532.64 1184.5  536 1184.5  Z " fill-rule="nonzero" fill="#f0f0f0" stroke="none" />
  <path d="M 536 1185  C 539.08 1185  541.5 1187.42  541.5 1190.5  C 541.5 1193.58  539.08 1196  536 1196  C 532.92 1196  530.5 1193.58  530.5 1190.5  C 530.5 1187.42  532.92 1185  536 1185  Z " stroke-width="1" stroke="#8080ff" fill="none" />
  <path d="M 536 1193.5  C 534.32 1193.5  533 1192.18  533 1190.5  C 533 1188.82  534.32 1187.5  536 1187.5  C 537.68 1187.5  539 1188.82  539 1190.5  C 539 1192.18  537.68 1193.5  536 1193.5  " fill-rule="nonzero" fill="#8080ff" stroke="none" />
</svg>