<?xml version="1.0" encoding="utf-8"?>
<svg version="1.1" xmlns:xlink="http://www.w3.org/1999/xlink" width="12px" height="12px" viewBox="287 598.5  12 12" xmlns="http://www.w3.org/2000/svg">
  <path d="M 293 598.5  C 296.36 598.5  299 601.14  299 604.5  C 299 607.86  296.36 610.5  293 610.5  C 289.64 610.5  287 607.86  287 604.5  C 287 601.14  289.64 598.5  293 598.5  Z " fill-rule="nonzero" fill="#ffffff" stroke="none" />
  <path d="M 293 599  C 296.08 599  298.5 601.42  298.5 604.5  C 298.5 607.58  296.08 610  293 610  C 289.92 610  287.5 607.58  287.5 604.5  C 287.5 601.42  289.92 599  293 599  Z " stroke-width="1" stroke="#8080ff" fill="none" />
  <path d="M 293 607.5  C 291.32 607.5  290 606.18  290 604.5  C 290 602.82  291.32 601.5  293 601.5  C 294.68 601.5  296 602.82  296 604.5  C 296 606.18  294.68 607.5  293 607.5  " fill-rule="nonzero" fill="#8080ff" stroke="none" />
</svg>