<?xml version="1.0" encoding="utf-8"?>
<svg version="1.1" xmlns:xlink="http://www.w3.org/1999/xlink" width="12px" height="12px" viewBox="595 570.5  12 12" xmlns="http://www.w3.org/2000/svg">
  <path d="M 601 570.5  C 604.36 570.5  607 573.14  607 576.5  C 607 579.86  604.36 582.5  601 582.5  C 597.64 582.5  595 579.86  595 576.5  C 595 573.14  597.64 570.5  601 570.5  Z " fill-rule="nonzero" fill="#ffffff" stroke="none" />
  <path d="M 601 571  C 604.08 571  606.5 573.42  606.5 576.5  C 606.5 579.58  604.08 582  601 582  C 597.92 582  595.5 579.58  595.5 576.5  C 595.5 573.42  597.92 571  601 571  Z " stroke-width="1" stroke="#797979" fill="none" />
  <path d="M 601 579.5  C 599.32 579.5  598 578.18  598 576.5  C 598 574.82  599.32 573.5  601 573.5  C 602.68 573.5  604 574.82  604 576.5  C 604 578.18  602.68 579.5  601 579.5  " fill-rule="nonzero" fill="#797979" stroke="none" />
</svg>