<?xml version="1.0" encoding="utf-8"?>
<svg version="1.1" xmlns:xlink="http://www.w3.org/1999/xlink" width="12px" height="12px" viewBox="475 671.5  12 12" xmlns="http://www.w3.org/2000/svg">
  <path d="M 481 671.5  C 484.36 671.5  487 674.14  487 677.5  C 487 680.86  484.36 683.5  481 683.5  C 477.64 683.5  475 680.86  475 677.5  C 475 674.14  477.64 671.5  481 671.5  Z " fill-rule="nonzero" fill="#ffffff" stroke="none" />
  <path d="M 481 672  C 484.08 672  486.5 674.42  486.5 677.5  C 486.5 680.58  484.08 683  481 683  C 477.92 683  475.5 680.58  475.5 677.5  C 475.5 674.42  477.92 672  481 672  Z " stroke-width="1" stroke="#8080ff" fill="none" />
  <path d="M 481 680.5  C 479.32 680.5  478 679.18  478 677.5  C 478 675.82  479.32 674.5  481 674.5  C 482.68 674.5  484 675.82  484 677.5  C 484 679.18  482.68 680.5  481 680.5  " fill-rule="nonzero" fill="#8080ff" stroke="none" />
</svg>