<?xml version="1.0" encoding="utf-8"?>
<svg version="1.1" xmlns:xlink="http://www.w3.org/1999/xlink" width="12px" height="12px" viewBox="454 1326.5  12 12" xmlns="http://www.w3.org/2000/svg">
  <path d="M 460 1326.5  C 463.36 1326.5  466 1329.14  466 1332.5  C 466 1335.86  463.36 1338.5  460 1338.5  C 456.64 1338.5  454 1335.86  454 1332.5  C 454 1329.14  456.64 1326.5  460 1326.5  Z " fill-rule="nonzero" fill="#ffffff" stroke="none" />
  <path d="M 460 1327  C 463.08 1327  465.5 1329.42  465.5 1332.5  C 465.5 1335.58  463.08 1338  460 1338  C 456.92 1338  454.5 1335.58  454.5 1332.5  C 454.5 1329.42  456.92 1327  460 1327  Z " stroke-width="1" stroke="#8080ff" fill="none" />
  <path d="M 460 1335.5  C 458.32 1335.5  457 1334.18  457 1332.5  C 457 1330.82  458.32 1329.5  460 1329.5  C 461.68 1329.5  463 1330.82  463 1332.5  C 463 1334.18  461.68 1335.5  460 1335.5  " fill-rule="nonzero" fill="#8080ff" stroke="none" />
</svg>