<?xml version="1.0" encoding="utf-8"?>
<svg version="1.1" xmlns:xlink="http://www.w3.org/1999/xlink" width="12px" height="12px" viewBox="362 1356.5  12 12" xmlns="http://www.w3.org/2000/svg">
  <path d="M 368 1356.5  C 371.36 1356.5  374 1359.14  374 1362.5  C 374 1365.86  371.36 1368.5  368 1368.5  C 364.64 1368.5  362 1365.86  362 1362.5  C 362 1359.14  364.64 1356.5  368 1356.5  Z " fill-rule="nonzero" fill="#ffffff" stroke="none" />
  <path d="M 368 1357  C 371.08 1357  373.5 1359.42  373.5 1362.5  C 373.5 1365.58  371.08 1368  368 1368  C 364.92 1368  362.5 1365.58  362.5 1362.5  C 362.5 1359.42  364.92 1357  368 1357  Z " stroke-width="1" stroke="#797979" fill="none" />
  <path d="M 368 1365.5  C 366.32 1365.5  365 1364.18  365 1362.5  C 365 1360.82  366.32 1359.5  368 1359.5  C 369.68 1359.5  371 1360.82  371 1362.5  C 371 1364.18  369.68 1365.5  368 1365.5  " fill-rule="nonzero" fill="#797979" stroke="none" />
</svg>