<?xml version="1.0" encoding="utf-8"?>
<svg version="1.1" xmlns:xlink="http://www.w3.org/1999/xlink" width="12px" height="12px" viewBox="287 562.5  12 12" xmlns="http://www.w3.org/2000/svg">
  <path d="M 293 562.5  C 296.36 562.5  299 565.14  299 568.5  C 299 571.86  296.36 574.5  293 574.5  C 289.64 574.5  287 571.86  287 568.5  C 287 565.14  289.64 562.5  293 562.5  Z " fill-rule="nonzero" fill="#f0f0f0" stroke="none" />
  <path d="M 293 563  C 296.08 563  298.5 565.42  298.5 568.5  C 298.5 571.58  296.08 574  293 574  C 289.92 574  287.5 571.58  287.5 568.5  C 287.5 565.42  289.92 563  293 563  Z " stroke-width="1" stroke="#797979" fill="none" />
  <path d="M 293 571.5  C 291.32 571.5  290 570.18  290 568.5  C 290 566.82  291.32 565.5  293 565.5  C 294.68 565.5  296 566.82  296 568.5  C 296 570.18  294.68 571.5  293 571.5  " fill-rule="nonzero" fill="#797979" stroke="none" />
</svg>