<?xml version="1.0" encoding="utf-8"?>
<svg version="1.1" xmlns:xlink="http://www.w3.org/1999/xlink" width="12px" height="12px" viewBox="965 504.5  12 12" xmlns="http://www.w3.org/2000/svg">
  <path d="M 971 504.5  C 974.36 504.5  977 507.14  977 510.5  C 977 513.86  974.36 516.5  971 516.5  C 967.64 516.5  965 513.86  965 510.5  C 965 507.14  967.64 504.5  971 504.5  Z " fill-rule="nonzero" fill="#f0f0f0" stroke="none" />
  <path d="M 971 505  C 974.08 505  976.5 507.42  976.5 510.5  C 976.5 513.58  974.08 516  971 516  C 967.92 516  965.5 513.58  965.5 510.5  C 965.5 507.42  967.92 505  971 505  Z " stroke-width="1" stroke="#797979" fill="none" />
  <path d="M 971 513.5  C 969.32 513.5  968 512.18  968 510.5  C 968 508.82  969.32 507.5  971 507.5  C 972.68 507.5  974 508.82  974 510.5  C 974 512.18  972.68 513.5  971 513.5  " fill-rule="nonzero" fill="#797979" stroke="none" />
</svg>