<?xml version="1.0" encoding="utf-8"?>
<svg version="1.1" xmlns:xlink="http://www.w3.org/1999/xlink" width="12px" height="12px" viewBox="838 702.5  12 12" xmlns="http://www.w3.org/2000/svg">
  <path d="M 844 702.5  C 847.36 702.5  850 705.14  850 708.5  C 850 711.86  847.36 714.5  844 714.5  C 840.64 714.5  838 711.86  838 708.5  C 838 705.14  840.64 702.5  844 702.5  Z " fill-rule="nonzero" fill="#ffffff" stroke="none" />
  <path d="M 844 703  C 847.08 703  849.5 705.42  849.5 708.5  C 849.5 711.58  847.08 714  844 714  C 840.92 714  838.5 711.58  838.5 708.5  C 838.5 705.42  840.92 703  844 703  Z " stroke-width="1" stroke="#333333" fill="none" />
  <path d="M 844 711.5  C 842.32 711.5  841 710.18  841 708.5  C 841 706.82  842.32 705.5  844 705.5  C 845.68 705.5  847 706.82  847 708.5  C 847 710.18  845.68 711.5  844 711.5  " fill-rule="nonzero" fill="#333333" stroke="none" />
</svg>