<?xml version="1.0" encoding="utf-8"?>
<svg version="1.1" xmlns:xlink="http://www.w3.org/1999/xlink" width="12px" height="12px" viewBox="337 872.5  12 12" xmlns="http://www.w3.org/2000/svg">
  <path d="M 343 872.5  C 346.36 872.5  349 875.14  349 878.5  C 349 881.86  346.36 884.5  343 884.5  C 339.64 884.5  337 881.86  337 878.5  C 337 875.14  339.64 872.5  343 872.5  Z " fill-rule="nonzero" fill="#f0f0f0" stroke="none" />
  <path d="M 343 873  C 346.08 873  348.5 875.42  348.5 878.5  C 348.5 881.58  346.08 884  343 884  C 339.92 884  337.5 881.58  337.5 878.5  C 337.5 875.42  339.92 873  343 873  Z " stroke-width="1" stroke="#333333" fill="none" />
  <path d="M 343 881.5  C 341.32 881.5  340 880.18  340 878.5  C 340 876.82  341.32 875.5  343 875.5  C 344.68 875.5  346 876.82  346 878.5  C 346 880.18  344.68 881.5  343 881.5  " fill-rule="nonzero" fill="#333333" stroke="none" />
</svg>