<?xml version="1.0" encoding="utf-8"?>
<svg version="1.1" xmlns:xlink="http://www.w3.org/1999/xlink" width="12px" height="12px" viewBox="1053 671.5  12 12" xmlns="http://www.w3.org/2000/svg">
  <path d="M 1059 671.5  C 1062.36 671.5  1065 674.14  1065 677.5  C 1065 680.86  1062.36 683.5  1059 683.5  C 1055.64 683.5  1053 680.86  1053 677.5  C 1053 674.14  1055.64 671.5  1059 671.5  Z " fill-rule="nonzero" fill="#f0f0f0" stroke="none" />
  <path d="M 1059 672  C 1062.08 672  1064.5 674.42  1064.5 677.5  C 1064.5 680.58  1062.08 683  1059 683  C 1055.92 683  1053.5 680.58  1053.5 677.5  C 1053.5 674.42  1055.92 672  1059 672  Z " stroke-width="1" stroke="#333333" fill="none" />
  <path d="M 1059 680.5  C 1057.32 680.5  1056 679.18  1056 677.5  C 1056 675.82  1057.32 674.5  1059 674.5  C 1060.68 674.5  1062 675.82  1062 677.5  C 1062 679.18  1060.68 680.5  1059 680.5  " fill-rule="nonzero" fill="#333333" stroke="none" />
</svg>