<?xml version="1.0" encoding="utf-8"?>
<svg version="1.1" xmlns:xlink="http://www.w3.org/1999/xlink" width="12px" height="12px" viewBox="337 841.5  12 12" xmlns="http://www.w3.org/2000/svg">
  <path d="M 343 841.5  C 346.36 841.5  349 844.14  349 847.5  C 349 850.86  346.36 853.5  343 853.5  C 339.64 853.5  337 850.86  337 847.5  C 337 844.14  339.64 841.5  343 841.5  Z " fill-rule="nonzero" fill="#f0f0f0" stroke="none" />
  <path d="M 343 842  C 346.08 842  348.5 844.42  348.5 847.5  C 348.5 850.58  346.08 853  343 853  C 339.92 853  337.5 850.58  337.5 847.5  C 337.5 844.42  339.92 842  343 842  Z " stroke-width="1" stroke="#333333" fill="none" />
  <path d="M 343 850.5  C 341.32 850.5  340 849.18  340 847.5  C 340 845.82  341.32 844.5  343 844.5  C 344.68 844.5  346 845.82  346 847.5  C 346 849.18  344.68 850.5  343 850.5  " fill-rule="nonzero" fill="#333333" stroke="none" />
</svg>