<?xml version="1.0" encoding="utf-8"?>
<svg version="1.1" xmlns:xlink="http://www.w3.org/1999/xlink" width="12px" height="12px" viewBox="337 946.5  12 12" xmlns="http://www.w3.org/2000/svg">
  <path d="M 343 946.5  C 346.36 946.5  349 949.14  349 952.5  C 349 955.86  346.36 958.5  343 958.5  C 339.64 958.5  337 955.86  337 952.5  C 337 949.14  339.64 946.5  343 946.5  Z " fill-rule="nonzero" fill="#ffffff" stroke="none" />
  <path d="M 343 947  C 346.08 947  348.5 949.42  348.5 952.5  C 348.5 955.58  346.08 958  343 958  C 339.92 958  337.5 955.58  337.5 952.5  C 337.5 949.42  339.92 947  343 947  Z " stroke-width="1" stroke="#333333" fill="none" />
  <path d="M 343 955.5  C 341.32 955.5  340 954.18  340 952.5  C 340 950.82  341.32 949.5  343 949.5  C 344.68 949.5  346 950.82  346 952.5  C 346 954.18  344.68 955.5  343 955.5  " fill-rule="nonzero" fill="#333333" stroke="none" />
</svg>