<?xml version="1.0" encoding="utf-8"?>
<svg version="1.1" xmlns:xlink="http://www.w3.org/1999/xlink" width="108px" height="106px" xmlns="http://www.w3.org/2000/svg">
  <defs>
    <mask fill="white" id="clip8">
      <path d="M 0 97.8461538461539  L 0 8.15384615384616  C 0 3.58769230769244  1.75999999999999 0  4 0  L 104 0  C 106.24 0  108 3.58769230769244  108 8.15384615384616  L 108 97.8461538461539  C 108 102.412307692308  106.24 106  104 106  L 40.6349206349206 106  L 4 106  C 1.75999999999999 106  0 102.412307692308  0 97.8461538461539  Z " fill-rule="evenodd" />
    </mask>
  </defs>
  <g transform="matrix(1 0 0 1 -627 -646 )">
    <path d="M 0 97.8461538461539  L 0 8.15384615384616  C 0 3.58769230769244  1.75999999999999 0  4 0  L 104 0  C 106.24 0  108 3.58769230769244  108 8.15384615384616  L 108 97.8461538461539  C 108 102.412307692308  106.24 106  104 106  L 40.6349206349206 106  L 4 106  C 1.75999999999999 106  0 102.412307692308  0 97.8461538461539  Z " fill-rule="nonzero" fill="#ffffff" stroke="none" transform="matrix(1 0 0 1 627 646 )" />
    <path d="M 0 97.8461538461539  L 0 8.15384615384616  C 0 3.58769230769244  1.75999999999999 0  4 0  L 104 0  C 106.24 0  108 3.58769230769244  108 8.15384615384616  L 108 97.8461538461539  C 108 102.412307692308  106.24 106  104 106  L 40.6349206349206 106  L 4 106  C 1.75999999999999 106  0 102.412307692308  0 97.8461538461539  Z " stroke-width="2" stroke="#d7d7d7" fill="none" transform="matrix(1 0 0 1 627 646 )" mask="url(#clip8)" />
  </g>
</svg>