<?xml version="1.0" encoding="utf-8"?>
<svg version="1.1" xmlns:xlink="http://www.w3.org/1999/xlink" width="12px" height="12px" viewBox="527 505.5  12 12" xmlns="http://www.w3.org/2000/svg">
  <path d="M 533 505.5  C 536.36 505.5  539 508.14  539 511.5  C 539 514.86  536.36 517.5  533 517.5  C 529.64 517.5  527 514.86  527 511.5  C 527 508.14  529.64 505.5  533 505.5  Z " fill-rule="nonzero" fill="#f0f0f0" stroke="none" />
  <path d="M 533 506  C 536.08 506  538.5 508.42  538.5 511.5  C 538.5 514.58  536.08 517  533 517  C 529.92 517  527.5 514.58  527.5 511.5  C 527.5 508.42  529.92 506  533 506  Z " stroke-width="1" stroke="#797979" fill="none" />
  <path d="M 533 514.5  C 531.32 514.5  530 513.18  530 511.5  C 530 509.82  531.32 508.5  533 508.5  C 534.68 508.5  536 509.82  536 511.5  C 536 513.18  534.68 514.5  533 514.5  " fill-rule="nonzero" fill="#797979" stroke="none" />
</svg>