<?xml version="1.0" encoding="utf-8"?>
<svg version="1.1" xmlns:xlink="http://www.w3.org/1999/xlink" width="12px" height="12px" viewBox="592 505.5  12 12" xmlns="http://www.w3.org/2000/svg">
  <path d="M 598 505.5  C 601.36 505.5  604 508.14  604 511.5  C 604 514.86  601.36 517.5  598 517.5  C 594.64 517.5  592 514.86  592 511.5  C 592 508.14  594.64 505.5  598 505.5  Z " fill-rule="nonzero" fill="#ffffff" stroke="none" />
  <path d="M 598 506  C 601.08 506  603.5 508.42  603.5 511.5  C 603.5 514.58  601.08 517  598 517  C 594.92 517  592.5 514.58  592.5 511.5  C 592.5 508.42  594.92 506  598 506  Z " stroke-width="1" stroke="#797979" fill="none" />
  <path d="M 598 514.5  C 596.32 514.5  595 513.18  595 511.5  C 595 509.82  596.32 508.5  598 508.5  C 599.68 508.5  601 509.82  601 511.5  C 601 513.18  599.68 514.5  598 514.5  " fill-rule="nonzero" fill="#797979" stroke="none" />
</svg>