<?xml version="1.0" encoding="utf-8"?>
<svg version="1.1" xmlns:xlink="http://www.w3.org/1999/xlink" width="12px" height="12px" viewBox="939 446.5  12 12" xmlns="http://www.w3.org/2000/svg">
  <path d="M 945 446.5  C 948.36 446.5  951 449.14  951 452.5  C 951 455.86  948.36 458.5  945 458.5  C 941.64 458.5  939 455.86  939 452.5  C 939 449.14  941.64 446.5  945 446.5  Z " fill-rule="nonzero" fill="#f0f0f0" stroke="none" />
  <path d="M 945 447  C 948.08 447  950.5 449.42  950.5 452.5  C 950.5 455.58  948.08 458  945 458  C 941.92 458  939.5 455.58  939.5 452.5  C 939.5 449.42  941.92 447  945 447  Z " stroke-width="1" stroke="#797979" fill="none" />
  <path d="M 945 455.5  C 943.32 455.5  942 454.18  942 452.5  C 942 450.82  943.32 449.5  945 449.5  C 946.68 449.5  948 450.82  948 452.5  C 948 454.18  946.68 455.5  945 455.5  " fill-rule="nonzero" fill="#797979" stroke="none" />
</svg>