<?xml version="1.0" encoding="utf-8"?>
<svg version="1.1" xmlns:xlink="http://www.w3.org/1999/xlink" width="12px" height="12px" viewBox="687 599.5  12 12" xmlns="http://www.w3.org/2000/svg">
  <path d="M 693 599.5  C 696.36 599.5  699 602.14  699 605.5  C 699 608.86  696.36 611.5  693 611.5  C 689.64 611.5  687 608.86  687 605.5  C 687 602.14  689.64 599.5  693 599.5  Z " fill-rule="nonzero" fill="#f0f0f0" stroke="none" />
  <path d="M 693 600  C 696.08 600  698.5 602.42  698.5 605.5  C 698.5 608.58  696.08 611  693 611  C 689.92 611  687.5 608.58  687.5 605.5  C 687.5 602.42  689.92 600  693 600  Z " stroke-width="1" stroke="#797979" fill="none" />
  <path d="M 693 608.5  C 691.32 608.5  690 607.18  690 605.5  C 690 603.82  691.32 602.5  693 602.5  C 694.68 602.5  696 603.82  696 605.5  C 696 607.18  694.68 608.5  693 608.5  " fill-rule="nonzero" fill="#797979" stroke="none" />
</svg>