<?xml version="1.0" encoding="utf-8"?>
<svg version="1.1" xmlns:xlink="http://www.w3.org/1999/xlink" width="12px" height="12px" viewBox="567 668.5  12 12" xmlns="http://www.w3.org/2000/svg">
  <path d="M 573 668.5  C 576.36 668.5  579 671.14  579 674.5  C 579 677.86  576.36 680.5  573 680.5  C 569.64 680.5  567 677.86  567 674.5  C 567 671.14  569.64 668.5  573 668.5  Z " fill-rule="nonzero" fill="#ffffff" stroke="none" />
  <path d="M 573 669  C 576.08 669  578.5 671.42  578.5 674.5  C 578.5 677.58  576.08 680  573 680  C 569.92 680  567.5 677.58  567.5 674.5  C 567.5 671.42  569.92 669  573 669  Z " stroke-width="1" stroke="#8080ff" fill="none" />
  <path d="M 573 677.5  C 571.32 677.5  570 676.18  570 674.5  C 570 672.82  571.32 671.5  573 671.5  C 574.68 671.5  576 672.82  576 674.5  C 576 676.18  574.68 677.5  573 677.5  " fill-rule="nonzero" fill="#8080ff" stroke="none" />
</svg>