<?xml version="1.0" encoding="utf-8"?>
<svg version="1.1" xmlns:xlink="http://www.w3.org/1999/xlink" width="12px" height="12px" viewBox="3205 498.5  12 12" xmlns="http://www.w3.org/2000/svg">
  <path d="M 3211 498.5  C 3214.36 498.5  3217 501.14  3217 504.5  C 3217 507.86  3214.36 510.5  3211 510.5  C 3207.64 510.5  3205 507.86  3205 504.5  C 3205 501.14  3207.64 498.5  3211 498.5  Z " fill-rule="nonzero" fill="#ffffff" stroke="none" />
  <path d="M 3211 499  C 3214.08 499  3216.5 501.42  3216.5 504.5  C 3216.5 507.58  3214.08 510  3211 510  C 3207.92 510  3205.5 507.58  3205.5 504.5  C 3205.5 501.42  3207.92 499  3211 499  Z " stroke-width="1" stroke="#797979" fill="none" />
  <path d="M 3211 507.5  C 3209.32 507.5  3208 506.18  3208 504.5  C 3208 502.82  3209.32 501.5  3211 501.5  C 3212.68 501.5  3214 502.82  3214 504.5  C 3214 506.18  3212.68 507.5  3211 507.5  " fill-rule="nonzero" fill="#797979" stroke="none" />
</svg>