<?xml version="1.0" encoding="utf-8"?>
<svg version="1.1" xmlns:xlink="http://www.w3.org/1999/xlink" width="12px" height="12px" viewBox="3255 556.5  12 12" xmlns="http://www.w3.org/2000/svg">
  <path d="M 3261 556.5  C 3264.36 556.5  3267 559.14  3267 562.5  C 3267 565.86  3264.36 568.5  3261 568.5  C 3257.64 568.5  3255 565.86  3255 562.5  C 3255 559.14  3257.64 556.5  3261 556.5  Z " fill-rule="nonzero" fill="#f0f0f0" stroke="none" />
  <path d="M 3261 557  C 3264.08 557  3266.5 559.42  3266.5 562.5  C 3266.5 565.58  3264.08 568  3261 568  C 3257.92 568  3255.5 565.58  3255.5 562.5  C 3255.5 559.42  3257.92 557  3261 557  Z " stroke-width="1" stroke="#333333" fill="none" />
  <path d="M 3261 565.5  C 3259.32 565.5  3258 564.18  3258 562.5  C 3258 560.82  3259.32 559.5  3261 559.5  C 3262.68 559.5  3264 560.82  3264 562.5  C 3264 564.18  3262.68 565.5  3261 565.5  " fill-rule="nonzero" fill="#333333" stroke="none" />
</svg>