<?xml version="1.0" encoding="utf-8"?>
<svg version="1.1" xmlns:xlink="http://www.w3.org/1999/xlink" width="12px" height="12px" viewBox="2927 754.5  12 12" xmlns="http://www.w3.org/2000/svg">
  <path d="M 2933 754.5  C 2936.36 754.5  2939 757.14  2939 760.5  C 2939 763.86  2936.36 766.5  2933 766.5  C 2929.64 766.5  2927 763.86  2927 760.5  C 2927 757.14  2929.64 754.5  2933 754.5  Z " fill-rule="nonzero" fill="#ffffff" stroke="none" />
  <path d="M 2933 755  C 2936.08 755  2938.5 757.42  2938.5 760.5  C 2938.5 763.58  2936.08 766  2933 766  C 2929.92 766  2927.5 763.58  2927.5 760.5  C 2927.5 757.42  2929.92 755  2933 755  Z " stroke-width="1" stroke="#797979" fill="none" />
  <path d="M 2933 763.5  C 2931.32 763.5  2930 762.18  2930 760.5  C 2930 758.82  2931.32 757.5  2933 757.5  C 2934.68 757.5  2936 758.82  2936 760.5  C 2936 762.18  2934.68 763.5  2933 763.5  " fill-rule="nonzero" fill="#797979" stroke="none" />
</svg>