<?xml version="1.0" encoding="utf-8"?>
<svg version="1.1" xmlns:xlink="http://www.w3.org/1999/xlink" width="12px" height="12px" viewBox="3121 696.5  12 12" xmlns="http://www.w3.org/2000/svg">
  <path d="M 3127 696.5  C 3130.36 696.5  3133 699.14  3133 702.5  C 3133 705.86  3130.36 708.5  3127 708.5  C 3123.64 708.5  3121 705.86  3121 702.5  C 3121 699.14  3123.64 696.5  3127 696.5  Z " fill-rule="nonzero" fill="#ffffff" stroke="none" />
  <path d="M 3127 697  C 3130.08 697  3132.5 699.42  3132.5 702.5  C 3132.5 705.58  3130.08 708  3127 708  C 3123.92 708  3121.5 705.58  3121.5 702.5  C 3121.5 699.42  3123.92 697  3127 697  Z " stroke-width="1" stroke="#333333" fill="none" />
  <path d="M 3127 705.5  C 3125.32 705.5  3124 704.18  3124 702.5  C 3124 700.82  3125.32 699.5  3127 699.5  C 3128.68 699.5  3130 700.82  3130 702.5  C 3130 704.18  3128.68 705.5  3127 705.5  " fill-rule="nonzero" fill="#333333" stroke="none" />
</svg>