<?xml version="1.0" encoding="utf-8"?>
<svg version="1.1" xmlns:xlink="http://www.w3.org/1999/xlink" width="12px" height="12px" viewBox="193 1155.5  12 12" xmlns="http://www.w3.org/2000/svg">
  <path d="M 199 1155.5  C 202.36 1155.5  205 1158.14  205 1161.5  C 205 1164.86  202.36 1167.5  199 1167.5  C 195.64 1167.5  193 1164.86  193 1161.5  C 193 1158.14  195.64 1155.5  199 1155.5  Z " fill-rule="nonzero" fill="#ffffff" stroke="none" />
  <path d="M 199 1156  C 202.08 1156  204.5 1158.42  204.5 1161.5  C 204.5 1164.58  202.08 1167  199 1167  C 195.92 1167  193.5 1164.58  193.5 1161.5  C 193.5 1158.42  195.92 1156  199 1156  Z " stroke-width="1" stroke="#797979" fill="none" />
  <path d="M 199 1164.5  C 197.32 1164.5  196 1163.18  196 1161.5  C 196 1159.82  197.32 1158.5  199 1158.5  C 200.68 1158.5  202 1159.82  202 1161.5  C 202 1163.18  200.68 1164.5  199 1164.5  " fill-rule="nonzero" fill="#797979" stroke="none" />
</svg>