<?xml version="1.0" encoding="utf-8"?>
<svg version="1.1" xmlns:xlink="http://www.w3.org/1999/xlink" width="12px" height="12px" viewBox="267 1442.5  12 12" xmlns="http://www.w3.org/2000/svg">
  <path d="M 273 1442.5  C 276.36 1442.5  279 1445.14  279 1448.5  C 279 1451.86  276.36 1454.5  273 1454.5  C 269.64 1454.5  267 1451.86  267 1448.5  C 267 1445.14  269.64 1442.5  273 1442.5  Z " fill-rule="nonzero" fill="#f0f0f0" stroke="none" />
  <path d="M 273 1443  C 276.08 1443  278.5 1445.42  278.5 1448.5  C 278.5 1451.58  276.08 1454  273 1454  C 269.92 1454  267.5 1451.58  267.5 1448.5  C 267.5 1445.42  269.92 1443  273 1443  Z " stroke-width="1" stroke="#333333" fill="none" />
  <path d="M 273 1451.5  C 271.32 1451.5  270 1450.18  270 1448.5  C 270 1446.82  271.32 1445.5  273 1445.5  C 274.68 1445.5  276 1446.82  276 1448.5  C 276 1450.18  274.68 1451.5  273 1451.5  " fill-rule="nonzero" fill="#333333" stroke="none" />
</svg>