<?xml version="1.0" encoding="utf-8"?>
<svg version="1.1" xmlns:xlink="http://www.w3.org/1999/xlink" width="12px" height="12px" viewBox="996 567.5  12 12" xmlns="http://www.w3.org/2000/svg">
  <path d="M 1002 567.5  C 1005.36 567.5  1008 570.14  1008 573.5  C 1008 576.86  1005.36 579.5  1002 579.5  C 998.64 579.5  996 576.86  996 573.5  C 996 570.14  998.64 567.5  1002 567.5  Z " fill-rule="nonzero" fill="#ffffff" stroke="none" />
  <path d="M 1002 568  C 1005.08 568  1007.5 570.42  1007.5 573.5  C 1007.5 576.58  1005.08 579  1002 579  C 998.92 579  996.5 576.58  996.5 573.5  C 996.5 570.42  998.92 568  1002 568  Z " stroke-width="1" stroke="#797979" fill="none" />
  <path d="M 1002 576.5  C 1000.32 576.5  999 575.18  999 573.5  C 999 571.82  1000.32 570.5  1002 570.5  C 1003.68 570.5  1005 571.82  1005 573.5  C 1005 575.18  1003.68 576.5  1002 576.5  " fill-rule="nonzero" fill="#797979" stroke="none" />
</svg>