<?xml version="1.0" encoding="utf-8"?>
<svg version="1.1" xmlns:xlink="http://www.w3.org/1999/xlink" width="12px" height="12px" viewBox="355 1116.5  12 12" xmlns="http://www.w3.org/2000/svg">
  <path d="M 361 1116.5  C 364.36 1116.5  367 1119.14  367 1122.5  C 367 1125.86  364.36 1128.5  361 1128.5  C 357.64 1128.5  355 1125.86  355 1122.5  C 355 1119.14  357.64 1116.5  361 1116.5  Z " fill-rule="nonzero" fill="#f0f0f0" stroke="none" />
  <path d="M 361 1117  C 364.08 1117  366.5 1119.42  366.5 1122.5  C 366.5 1125.58  364.08 1128  361 1128  C 357.92 1128  355.5 1125.58  355.5 1122.5  C 355.5 1119.42  357.92 1117  361 1117  Z " stroke-width="1" stroke="#797979" fill="none" />
  <path d="M 361 1125.5  C 359.32 1125.5  358 1124.18  358 1122.5  C 358 1120.82  359.32 1119.5  361 1119.5  C 362.68 1119.5  364 1120.82  364 1122.5  C 364 1124.18  362.68 1125.5  361 1125.5  " fill-rule="nonzero" fill="#797979" stroke="none" />
</svg>