<?xml version="1.0" encoding="utf-8"?>
<svg version="1.1" xmlns:xlink="http://www.w3.org/1999/xlink" width="12px" height="12px" viewBox="355 1177.5  12 12" xmlns="http://www.w3.org/2000/svg">
  <path d="M 361 1177.5  C 364.36 1177.5  367 1180.14  367 1183.5  C 367 1186.86  364.36 1189.5  361 1189.5  C 357.64 1189.5  355 1186.86  355 1183.5  C 355 1180.14  357.64 1177.5  361 1177.5  Z " fill-rule="nonzero" fill="#f0f0f0" stroke="none" />
  <path d="M 361 1178  C 364.08 1178  366.5 1180.42  366.5 1183.5  C 366.5 1186.58  364.08 1189  361 1189  C 357.92 1189  355.5 1186.58  355.5 1183.5  C 355.5 1180.42  357.92 1178  361 1178  Z " stroke-width="1" stroke="#797979" fill="none" />
  <path d="M 361 1186.5  C 359.32 1186.5  358 1185.18  358 1183.5  C 358 1181.82  359.32 1180.5  361 1180.5  C 362.68 1180.5  364 1181.82  364 1183.5  C 364 1185.18  362.68 1186.5  361 1186.5  " fill-rule="nonzero" fill="#797979" stroke="none" />
</svg>