<?xml version="1.0" encoding="utf-8"?>
<svg version="1.1" xmlns:xlink="http://www.w3.org/1999/xlink" width="12px" height="12px" viewBox="530 1206.5  12 12" xmlns="http://www.w3.org/2000/svg">
  <path d="M 536 1206.5  C 539.36 1206.5  542 1209.14  542 1212.5  C 542 1215.86  539.36 1218.5  536 1218.5  C 532.64 1218.5  530 1215.86  530 1212.5  C 530 1209.14  532.64 1206.5  536 1206.5  Z " fill-rule="nonzero" fill="#ffffff" stroke="none" />
  <path d="M 536 1207  C 539.08 1207  541.5 1209.42  541.5 1212.5  C 541.5 1215.58  539.08 1218  536 1218  C 532.92 1218  530.5 1215.58  530.5 1212.5  C 530.5 1209.42  532.92 1207  536 1207  Z " stroke-width="1" stroke="#797979" fill="none" />
  <path d="M 536 1215.5  C 534.32 1215.5  533 1214.18  533 1212.5  C 533 1210.82  534.32 1209.5  536 1209.5  C 537.68 1209.5  539 1210.82  539 1212.5  C 539 1214.18  537.68 1215.5  536 1215.5  " fill-rule="nonzero" fill="#797979" stroke="none" />
</svg>