<?xml version="1.0" encoding="utf-8"?>
<svg version="1.1" xmlns:xlink="http://www.w3.org/1999/xlink" width="12px" height="12px" viewBox="528 213.5  12 12" xmlns="http://www.w3.org/2000/svg">
  <path d="M 534 213.5  C 537.36 213.5  540 216.14  540 219.5  C 540 222.86  537.36 225.5  534 225.5  C 530.64 225.5  528 222.86  528 219.5  C 528 216.14  530.64 213.5  534 213.5  Z " fill-rule="nonzero" fill="#f0f0f0" stroke="none" />
  <path d="M 534 214  C 537.08 214  539.5 216.42  539.5 219.5  C 539.5 222.58  537.08 225  534 225  C 530.92 225  528.5 222.58  528.5 219.5  C 528.5 216.42  530.92 214  534 214  Z " stroke-width="1" stroke="#797979" fill="none" />
  <path d="M 534 222.5  C 532.32 222.5  531 221.18  531 219.5  C 531 217.82  532.32 216.5  534 216.5  C 535.68 216.5  537 217.82  537 219.5  C 537 221.18  535.68 222.5  534 222.5  " fill-rule="nonzero" fill="#797979" stroke="none" />
</svg>