<?xml version="1.0" encoding="utf-8"?>
<svg version="1.1" xmlns:xlink="http://www.w3.org/1999/xlink" width="12px" height="12px" viewBox="248 1049.5  12 12" xmlns="http://www.w3.org/2000/svg">
  <path d="M 254 1049.5  C 257.36 1049.5  260 1052.14  260 1055.5  C 260 1058.86  257.36 1061.5  254 1061.5  C 250.64 1061.5  248 1058.86  248 1055.5  C 248 1052.14  250.64 1049.5  254 1049.5  Z " fill-rule="nonzero" fill="#ffffff" stroke="none" />
  <path d="M 254 1050  C 257.08 1050  259.5 1052.42  259.5 1055.5  C 259.5 1058.58  257.08 1061  254 1061  C 250.92 1061  248.5 1058.58  248.5 1055.5  C 248.5 1052.42  250.92 1050  254 1050  Z " stroke-width="1" stroke="#797979" fill="none" />
  <path d="M 254 1058.5  C 252.32 1058.5  251 1057.18  251 1055.5  C 251 1053.82  252.32 1052.5  254 1052.5  C 255.68 1052.5  257 1053.82  257 1055.5  C 257 1057.18  255.68 1058.5  254 1058.5  " fill-rule="nonzero" fill="#797979" stroke="none" />
</svg>