<?xml version="1.0" encoding="utf-8"?>
<svg version="1.1" xmlns:xlink="http://www.w3.org/1999/xlink" width="12px" height="12px" viewBox="348 1049.5  12 12" xmlns="http://www.w3.org/2000/svg">
  <path d="M 354 1049.5  C 357.36 1049.5  360 1052.14  360 1055.5  C 360 1058.86  357.36 1061.5  354 1061.5  C 350.64 1061.5  348 1058.86  348 1055.5  C 348 1052.14  350.64 1049.5  354 1049.5  Z " fill-rule="nonzero" fill="#ffffff" stroke="none" />
  <path d="M 354 1050  C 357.08 1050  359.5 1052.42  359.5 1055.5  C 359.5 1058.58  357.08 1061  354 1061  C 350.92 1061  348.5 1058.58  348.5 1055.5  C 348.5 1052.42  350.92 1050  354 1050  Z " stroke-width="1" stroke="#797979" fill="none" />
  <path d="M 354 1058.5  C 352.32 1058.5  351 1057.18  351 1055.5  C 351 1053.82  352.32 1052.5  354 1052.5  C 355.68 1052.5  357 1053.82  357 1055.5  C 357 1057.18  355.68 1058.5  354 1058.5  " fill-rule="nonzero" fill="#797979" stroke="none" />
</svg>