<?xml version="1.0" encoding="utf-8"?>
<svg version="1.1" xmlns:xlink="http://www.w3.org/1999/xlink" width="12px" height="12px" viewBox="440 1049.5  12 12" xmlns="http://www.w3.org/2000/svg">
  <path d="M 446 1049.5  C 449.36 1049.5  452 1052.14  452 1055.5  C 452 1058.86  449.36 1061.5  446 1061.5  C 442.64 1061.5  440 1058.86  440 1055.5  C 440 1052.14  442.64 1049.5  446 1049.5  Z " fill-rule="nonzero" fill="#f0f0f0" stroke="none" />
  <path d="M 446 1050  C 449.08 1050  451.5 1052.42  451.5 1055.5  C 451.5 1058.58  449.08 1061  446 1061  C 442.92 1061  440.5 1058.58  440.5 1055.5  C 440.5 1052.42  442.92 1050  446 1050  Z " stroke-width="1" stroke="#797979" fill="none" />
  <path d="M 446 1058.5  C 444.32 1058.5  443 1057.18  443 1055.5  C 443 1053.82  444.32 1052.5  446 1052.5  C 447.68 1052.5  449 1053.82  449 1055.5  C 449 1057.18  447.68 1058.5  446 1058.5  " fill-rule="nonzero" fill="#797979" stroke="none" />
</svg>