<?xml version="1.0" encoding="utf-8"?>
<svg version="1.1" xmlns:xlink="http://www.w3.org/1999/xlink" width="12px" height="12px" viewBox="540 1049.5  12 12" xmlns="http://www.w3.org/2000/svg">
  <path d="M 546 1049.5  C 549.36 1049.5  552 1052.14  552 1055.5  C 552 1058.86  549.36 1061.5  546 1061.5  C 542.64 1061.5  540 1058.86  540 1055.5  C 540 1052.14  542.64 1049.5  546 1049.5  Z " fill-rule="nonzero" fill="#ffffff" stroke="none" />
  <path d="M 546 1050  C 549.08 1050  551.5 1052.42  551.5 1055.5  C 551.5 1058.58  549.08 1061  546 1061  C 542.92 1061  540.5 1058.58  540.5 1055.5  C 540.5 1052.42  542.92 1050  546 1050  Z " stroke-width="1" stroke="#797979" fill="none" />
  <path d="M 546 1058.5  C 544.32 1058.5  543 1057.18  543 1055.5  C 543 1053.82  544.32 1052.5  546 1052.5  C 547.68 1052.5  549 1053.82  549 1055.5  C 549 1057.18  547.68 1058.5  546 1058.5  " fill-rule="nonzero" fill="#797979" stroke="none" />
</svg>