<?xml version="1.0" encoding="utf-8"?>
<svg version="1.1" xmlns:xlink="http://www.w3.org/1999/xlink" width="12px" height="12px" viewBox="298 1115.5  12 12" xmlns="http://www.w3.org/2000/svg">
  <path d="M 304 1115.5  C 307.36 1115.5  310 1118.14  310 1121.5  C 310 1124.86  307.36 1127.5  304 1127.5  C 300.64 1127.5  298 1124.86  298 1121.5  C 298 1118.14  300.64 1115.5  304 1115.5  Z " fill-rule="nonzero" fill="#ffffff" stroke="none" />
  <path d="M 304 1116  C 307.08 1116  309.5 1118.42  309.5 1121.5  C 309.5 1124.58  307.08 1127  304 1127  C 300.92 1127  298.5 1124.58  298.5 1121.5  C 298.5 1118.42  300.92 1116  304 1116  Z " stroke-width="1" stroke="#797979" fill="none" />
  <path d="M 304 1124.5  C 302.32 1124.5  301 1123.18  301 1121.5  C 301 1119.82  302.32 1118.5  304 1118.5  C 305.68 1118.5  307 1119.82  307 1121.5  C 307 1123.18  305.68 1124.5  304 1124.5  " fill-rule="nonzero" fill="#797979" stroke="none" />
</svg>