<?xml version="1.0" encoding="utf-8"?>
<svg version="1.1" xmlns:xlink="http://www.w3.org/1999/xlink" width="12px" height="12px" viewBox="302 666.5  12 12" xmlns="http://www.w3.org/2000/svg">
  <path d="M 308 666.5  C 311.36 666.5  314 669.14  314 672.5  C 314 675.86  311.36 678.5  308 678.5  C 304.64 678.5  302 675.86  302 672.5  C 302 669.14  304.64 666.5  308 666.5  Z " fill-rule="nonzero" fill="#f0f0f0" stroke="none" />
  <path d="M 308 667  C 311.08 667  313.5 669.42  313.5 672.5  C 313.5 675.58  311.08 678  308 678  C 304.92 678  302.5 675.58  302.5 672.5  C 302.5 669.42  304.92 667  308 667  Z " stroke-width="1" stroke="#797979" fill="none" />
  <path d="M 308 675.5  C 306.32 675.5  305 674.18  305 672.5  C 305 670.82  306.32 669.5  308 669.5  C 309.68 669.5  311 670.82  311 672.5  C 311 674.18  309.68 675.5  308 675.5  " fill-rule="nonzero" fill="#797979" stroke="none" />
</svg>