<?xml version="1.0" encoding="utf-8"?>
<svg version="1.1" xmlns:xlink="http://www.w3.org/1999/xlink" width="12px" height="12px" viewBox="412 1162.5  12 12" xmlns="http://www.w3.org/2000/svg">
  <path d="M 418 1162.5  C 421.36 1162.5  424 1165.14  424 1168.5  C 424 1171.86  421.36 1174.5  418 1174.5  C 414.64 1174.5  412 1171.86  412 1168.5  C 412 1165.14  414.64 1162.5  418 1162.5  Z " fill-rule="nonzero" fill="#ffffff" stroke="none" />
  <path d="M 418 1163  C 421.08 1163  423.5 1165.42  423.5 1168.5  C 423.5 1171.58  421.08 1174  418 1174  C 414.92 1174  412.5 1171.58  412.5 1168.5  C 412.5 1165.42  414.92 1163  418 1163  Z " stroke-width="1" stroke="#333333" fill="none" />
  <path d="M 418 1171.5  C 416.32 1171.5  415 1170.18  415 1168.5  C 415 1166.82  416.32 1165.5  418 1165.5  C 419.68 1165.5  421 1166.82  421 1168.5  C 421 1170.18  419.68 1171.5  418 1171.5  " fill-rule="nonzero" fill="#333333" stroke="none" />
</svg>