<?xml version="1.0" encoding="utf-8"?>
<svg version="1.1" xmlns:xlink="http://www.w3.org/1999/xlink" width="12px" height="12px" viewBox="780 403.5  12 12" xmlns="http://www.w3.org/2000/svg">
  <path d="M 786 403.5  C 789.36 403.5  792 406.14  792 409.5  C 792 412.86  789.36 415.5  786 415.5  C 782.64 415.5  780 412.86  780 409.5  C 780 406.14  782.64 403.5  786 403.5  Z " fill-rule="nonzero" fill="#f0f0f0" stroke="none" />
  <path d="M 786 404  C 789.08 404  791.5 406.42  791.5 409.5  C 791.5 412.58  789.08 415  786 415  C 782.92 415  780.5 412.58  780.5 409.5  C 780.5 406.42  782.92 404  786 404  Z " stroke-width="1" stroke="#797979" fill="none" />
  <path d="M 786 412.5  C 784.32 412.5  783 411.18  783 409.5  C 783 407.82  784.32 406.5  786 406.5  C 787.68 406.5  789 407.82  789 409.5  C 789 411.18  787.68 412.5  786 412.5  " fill-rule="nonzero" fill="#797979" stroke="none" />
</svg>