<?xml version="1.0" encoding="utf-8"?>
<svg version="1.1" xmlns:xlink="http://www.w3.org/1999/xlink" width="12px" height="12px" viewBox="880 403.5  12 12" xmlns="http://www.w3.org/2000/svg">
  <path d="M 886 403.5  C 889.36 403.5  892 406.14  892 409.5  C 892 412.86  889.36 415.5  886 415.5  C 882.64 415.5  880 412.86  880 409.5  C 880 406.14  882.64 403.5  886 403.5  Z " fill-rule="nonzero" fill="#ffffff" stroke="none" />
  <path d="M 886 404  C 889.08 404  891.5 406.42  891.5 409.5  C 891.5 412.58  889.08 415  886 415  C 882.92 415  880.5 412.58  880.5 409.5  C 880.5 406.42  882.92 404  886 404  Z " stroke-width="1" stroke="#797979" fill="none" />
  <path d="M 886 412.5  C 884.32 412.5  883 411.18  883 409.5  C 883 407.82  884.32 406.5  886 406.5  C 887.68 406.5  889 407.82  889 409.5  C 889 411.18  887.68 412.5  886 412.5  " fill-rule="nonzero" fill="#797979" stroke="none" />
</svg>