<?xml version="1.0" encoding="utf-8"?>
<svg version="1.1" xmlns:xlink="http://www.w3.org/1999/xlink" width="12px" height="12px" viewBox="830 403.5  12 12" xmlns="http://www.w3.org/2000/svg">
  <path d="M 836 403.5  C 839.36 403.5  842 406.14  842 409.5  C 842 412.86  839.36 415.5  836 415.5  C 832.64 415.5  830 412.86  830 409.5  C 830 406.14  832.64 403.5  836 403.5  Z " fill-rule="nonzero" fill="#ffffff" stroke="none" />
  <path d="M 836 404  C 839.08 404  841.5 406.42  841.5 409.5  C 841.5 412.58  839.08 415  836 415  C 832.92 415  830.5 412.58  830.5 409.5  C 830.5 406.42  832.92 404  836 404  Z " stroke-width="1" stroke="#797979" fill="none" />
  <path d="M 836 412.5  C 834.32 412.5  833 411.18  833 409.5  C 833 407.82  834.32 406.5  836 406.5  C 837.68 406.5  839 407.82  839 409.5  C 839 411.18  837.68 412.5  836 412.5  " fill-rule="nonzero" fill="#797979" stroke="none" />
</svg>