<?xml version="1.0" encoding="utf-8"?>
<svg version="1.1" xmlns:xlink="http://www.w3.org/1999/xlink" width="12px" height="12px" viewBox="1058 439.5  12 12" xmlns="http://www.w3.org/2000/svg">
  <path d="M 1064 439.5  C 1067.36 439.5  1070 442.14  1070 445.5  C 1070 448.86  1067.36 451.5  1064 451.5  C 1060.64 451.5  1058 448.86  1058 445.5  C 1058 442.14  1060.64 439.5  1064 439.5  Z " fill-rule="nonzero" fill="#ffffff" stroke="none" />
  <path d="M 1064 440  C 1067.08 440  1069.5 442.42  1069.5 445.5  C 1069.5 448.58  1067.08 451  1064 451  C 1060.92 451  1058.5 448.58  1058.5 445.5  C 1058.5 442.42  1060.92 440  1064 440  Z " stroke-width="1" stroke="#797979" fill="none" />
  <path d="M 1064 448.5  C 1062.32 448.5  1061 447.18  1061 445.5  C 1061 443.82  1062.32 442.5  1064 442.5  C 1065.68 442.5  1067 443.82  1067 445.5  C 1067 447.18  1065.68 448.5  1064 448.5  " fill-rule="nonzero" fill="#797979" stroke="none" />
</svg>