<?xml version="1.0" encoding="utf-8"?>
<svg version="1.1" xmlns:xlink="http://www.w3.org/1999/xlink" width="12px" height="12px" viewBox="935 403.5  12 12" xmlns="http://www.w3.org/2000/svg">
  <path d="M 941 403.5  C 944.36 403.5  947 406.14  947 409.5  C 947 412.86  944.36 415.5  941 415.5  C 937.64 415.5  935 412.86  935 409.5  C 935 406.14  937.64 403.5  941 403.5  Z " fill-rule="nonzero" fill="#f0f0f0" stroke="none" />
  <path d="M 941 404  C 944.08 404  946.5 406.42  946.5 409.5  C 946.5 412.58  944.08 415  941 415  C 937.92 415  935.5 412.58  935.5 409.5  C 935.5 406.42  937.92 404  941 404  Z " stroke-width="1" stroke="#797979" fill="none" />
  <path d="M 941 412.5  C 939.32 412.5  938 411.18  938 409.5  C 938 407.82  939.32 406.5  941 406.5  C 942.68 406.5  944 407.82  944 409.5  C 944 411.18  942.68 412.5  941 412.5  " fill-rule="nonzero" fill="#797979" stroke="none" />
</svg>