<?xml version="1.0" encoding="utf-8"?>
<svg version="1.1" xmlns:xlink="http://www.w3.org/1999/xlink" width="12px" height="12px" viewBox="901 477.5  12 12" xmlns="http://www.w3.org/2000/svg">
  <path d="M 907 477.5  C 910.36 477.5  913 480.14  913 483.5  C 913 486.86  910.36 489.5  907 489.5  C 903.64 489.5  901 486.86  901 483.5  C 901 480.14  903.64 477.5  907 477.5  Z " fill-rule="nonzero" fill="#f0f0f0" stroke="none" />
  <path d="M 907 478  C 910.08 478  912.5 480.42  912.5 483.5  C 912.5 486.58  910.08 489  907 489  C 903.92 489  901.5 486.58  901.5 483.5  C 901.5 480.42  903.92 478  907 478  Z " stroke-width="1" stroke="#797979" fill="none" />
  <path d="M 907 486.5  C 905.32 486.5  904 485.18  904 483.5  C 904 481.82  905.32 480.5  907 480.5  C 908.68 480.5  910 481.82  910 483.5  C 910 485.18  908.68 486.5  907 486.5  " fill-rule="nonzero" fill="#797979" stroke="none" />
</svg>