<?xml version="1.0" encoding="utf-8"?>
<svg version="1.1" xmlns:xlink="http://www.w3.org/1999/xlink" width="12px" height="12px" viewBox="801 477.5  12 12" xmlns="http://www.w3.org/2000/svg">
  <path d="M 807 477.5  C 810.36 477.5  813 480.14  813 483.5  C 813 486.86  810.36 489.5  807 489.5  C 803.64 489.5  801 486.86  801 483.5  C 801 480.14  803.64 477.5  807 477.5  Z " fill-rule="nonzero" fill="#ffffff" stroke="none" />
  <path d="M 807 478  C 810.08 478  812.5 480.42  812.5 483.5  C 812.5 486.58  810.08 489  807 489  C 803.92 489  801.5 486.58  801.5 483.5  C 801.5 480.42  803.92 478  807 478  Z " stroke-width="1" stroke="#797979" fill="none" />
  <path d="M 807 486.5  C 805.32 486.5  804 485.18  804 483.5  C 804 481.82  805.32 480.5  807 480.5  C 808.68 480.5  810 481.82  810 483.5  C 810 485.18  808.68 486.5  807 486.5  " fill-rule="nonzero" fill="#797979" stroke="none" />
</svg>