<?xml version="1.0" encoding="utf-8"?>
<svg version="1.1" xmlns:xlink="http://www.w3.org/1999/xlink" width="12px" height="12px" viewBox="899 439.5  12 12" xmlns="http://www.w3.org/2000/svg">
  <path d="M 905 439.5  C 908.36 439.5  911 442.14  911 445.5  C 911 448.86  908.36 451.5  905 451.5  C 901.64 451.5  899 448.86  899 445.5  C 899 442.14  901.64 439.5  905 439.5  Z " fill-rule="nonzero" fill="#ffffff" stroke="none" />
  <path d="M 905 440  C 908.08 440  910.5 442.42  910.5 445.5  C 910.5 448.58  908.08 451  905 451  C 901.92 451  899.5 448.58  899.5 445.5  C 899.5 442.42  901.92 440  905 440  Z " stroke-width="1" stroke="#797979" fill="none" />
  <path d="M 905 448.5  C 903.32 448.5  902 447.18  902 445.5  C 902 443.82  903.32 442.5  905 442.5  C 906.68 442.5  908 443.82  908 445.5  C 908 447.18  906.68 448.5  905 448.5  " fill-rule="nonzero" fill="#797979" stroke="none" />
</svg>