<?xml version="1.0" encoding="utf-8"?>
<svg version="1.1" xmlns:xlink="http://www.w3.org/1999/xlink" width="12px" height="12px" viewBox="377 847.5  12 12" xmlns="http://www.w3.org/2000/svg">
  <path d="M 383 847.5  C 386.36 847.5  389 850.14  389 853.5  C 389 856.86  386.36 859.5  383 859.5  C 379.64 859.5  377 856.86  377 853.5  C 377 850.14  379.64 847.5  383 847.5  Z " fill-rule="nonzero" fill="#ffffff" stroke="none" />
  <path d="M 383 848  C 386.08 848  388.5 850.42  388.5 853.5  C 388.5 856.58  386.08 859  383 859  C 379.92 859  377.5 856.58  377.5 853.5  C 377.5 850.42  379.92 848  383 848  Z " stroke-width="1" stroke="#797979" fill="none" />
  <path d="M 383 856.5  C 381.32 856.5  380 855.18  380 853.5  C 380 851.82  381.32 850.5  383 850.5  C 384.68 850.5  386 851.82  386 853.5  C 386 855.18  384.68 856.5  383 856.5  " fill-rule="nonzero" fill="#797979" stroke="none" />
</svg>