<?xml version="1.0" encoding="utf-8"?>
<svg version="1.1" xmlns:xlink="http://www.w3.org/1999/xlink" width="12px" height="12px" viewBox="435 847.5  12 12" xmlns="http://www.w3.org/2000/svg">
  <path d="M 441 847.5  C 444.36 847.5  447 850.14  447 853.5  C 447 856.86  444.36 859.5  441 859.5  C 437.64 859.5  435 856.86  435 853.5  C 435 850.14  437.64 847.5  441 847.5  Z " fill-rule="nonzero" fill="#f0f0f0" stroke="none" />
  <path d="M 441 848  C 444.08 848  446.5 850.42  446.5 853.5  C 446.5 856.58  444.08 859  441 859  C 437.92 859  435.5 856.58  435.5 853.5  C 435.5 850.42  437.92 848  441 848  Z " stroke-width="1" stroke="#797979" fill="none" />
  <path d="M 441 856.5  C 439.32 856.5  438 855.18  438 853.5  C 438 851.82  439.32 850.5  441 850.5  C 442.68 850.5  444 851.82  444 853.5  C 444 855.18  442.68 856.5  441 856.5  " fill-rule="nonzero" fill="#797979" stroke="none" />
</svg>