<?xml version="1.0" encoding="utf-8"?>
<svg version="1.1" xmlns:xlink="http://www.w3.org/1999/xlink" width="12px" height="12px" viewBox="335 897.5  12 12" xmlns="http://www.w3.org/2000/svg">
  <path d="M 341 897.5  C 344.36 897.5  347 900.14  347 903.5  C 347 906.86  344.36 909.5  341 909.5  C 337.64 909.5  335 906.86  335 903.5  C 335 900.14  337.64 897.5  341 897.5  Z " fill-rule="nonzero" fill="#f0f0f0" stroke="none" />
  <path d="M 341 898  C 344.08 898  346.5 900.42  346.5 903.5  C 346.5 906.58  344.08 909  341 909  C 337.92 909  335.5 906.58  335.5 903.5  C 335.5 900.42  337.92 898  341 898  Z " stroke-width="1" stroke="#797979" fill="none" />
  <path d="M 341 906.5  C 339.32 906.5  338 905.18  338 903.5  C 338 901.82  339.32 900.5  341 900.5  C 342.68 900.5  344 901.82  344 903.5  C 344 905.18  342.68 906.5  341 906.5  " fill-rule="nonzero" fill="#797979" stroke="none" />
</svg>