<?xml version="1.0" encoding="utf-8"?>
<svg version="1.1" xmlns:xlink="http://www.w3.org/1999/xlink" width="12px" height="12px" viewBox="377 897.5  12 12" xmlns="http://www.w3.org/2000/svg">
  <path d="M 383 897.5  C 386.36 897.5  389 900.14  389 903.5  C 389 906.86  386.36 909.5  383 909.5  C 379.64 909.5  377 906.86  377 903.5  C 377 900.14  379.64 897.5  383 897.5  Z " fill-rule="nonzero" fill="#f0f0f0" stroke="none" />
  <path d="M 383 898  C 386.08 898  388.5 900.42  388.5 903.5  C 388.5 906.58  386.08 909  383 909  C 379.92 909  377.5 906.58  377.5 903.5  C 377.5 900.42  379.92 898  383 898  Z " stroke-width="1" stroke="#797979" fill="none" />
  <path d="M 383 906.5  C 381.32 906.5  380 905.18  380 903.5  C 380 901.82  381.32 900.5  383 900.5  C 384.68 900.5  386 901.82  386 903.5  C 386 905.18  384.68 906.5  383 906.5  " fill-rule="nonzero" fill="#797979" stroke="none" />
</svg>