<?xml version="1.0" encoding="utf-8"?>
<svg version="1.1" xmlns:xlink="http://www.w3.org/1999/xlink" width="12px" height="12px" viewBox="469 1012.5  12 12" xmlns="http://www.w3.org/2000/svg">
  <path d="M 475 1012.5  C 478.36 1012.5  481 1015.14  481 1018.5  C 481 1021.86  478.36 1024.5  475 1024.5  C 471.64 1024.5  469 1021.86  469 1018.5  C 469 1015.14  471.64 1012.5  475 1012.5  Z " fill-rule="nonzero" fill="#ffffff" stroke="none" />
  <path d="M 475 1013  C 478.08 1013  480.5 1015.42  480.5 1018.5  C 480.5 1021.58  478.08 1024  475 1024  C 471.92 1024  469.5 1021.58  469.5 1018.5  C 469.5 1015.42  471.92 1013  475 1013  Z " stroke-width="1" stroke="#797979" fill="none" />
  <path d="M 475 1021.5  C 473.32 1021.5  472 1020.18  472 1018.5  C 472 1016.82  473.32 1015.5  475 1015.5  C 476.68 1015.5  478 1016.82  478 1018.5  C 478 1020.18  476.68 1021.5  475 1021.5  " fill-rule="nonzero" fill="#797979" stroke="none" />
</svg>