<?xml version="1.0" encoding="utf-8"?>
<svg version="1.1" xmlns:xlink="http://www.w3.org/1999/xlink" width="12px" height="12px" viewBox="427 982.5  12 12" xmlns="http://www.w3.org/2000/svg">
  <path d="M 433 982.5  C 436.36 982.5  439 985.14  439 988.5  C 439 991.86  436.36 994.5  433 994.5  C 429.64 994.5  427 991.86  427 988.5  C 427 985.14  429.64 982.5  433 982.5  Z " fill-rule="nonzero" fill="#f0f0f0" stroke="none" />
  <path d="M 433 983  C 436.08 983  438.5 985.42  438.5 988.5  C 438.5 991.58  436.08 994  433 994  C 429.92 994  427.5 991.58  427.5 988.5  C 427.5 985.42  429.92 983  433 983  Z " stroke-width="1" stroke="#797979" fill="none" />
  <path d="M 433 991.5  C 431.32 991.5  430 990.18  430 988.5  C 430 986.82  431.32 985.5  433 985.5  C 434.68 985.5  436 986.82  436 988.5  C 436 990.18  434.68 991.5  433 991.5  " fill-rule="nonzero" fill="#797979" stroke="none" />
</svg>