<?xml version="1.0" encoding="utf-8"?>
<svg version="1.1" xmlns:xlink="http://www.w3.org/1999/xlink" width="12px" height="12px" viewBox="469 982.5  12 12" xmlns="http://www.w3.org/2000/svg">
  <path d="M 475 982.5  C 478.36 982.5  481 985.14  481 988.5  C 481 991.86  478.36 994.5  475 994.5  C 471.64 994.5  469 991.86  469 988.5  C 469 985.14  471.64 982.5  475 982.5  Z " fill-rule="nonzero" fill="#f0f0f0" stroke="none" />
  <path d="M 475 983  C 478.08 983  480.5 985.42  480.5 988.5  C 480.5 991.58  478.08 994  475 994  C 471.92 994  469.5 991.58  469.5 988.5  C 469.5 985.42  471.92 983  475 983  Z " stroke-width="1" stroke="#797979" fill="none" />
  <path d="M 475 991.5  C 473.32 991.5  472 990.18  472 988.5  C 472 986.82  473.32 985.5  475 985.5  C 476.68 985.5  478 986.82  478 988.5  C 478 990.18  476.68 991.5  475 991.5  " fill-rule="nonzero" fill="#797979" stroke="none" />
</svg>