<?xml version="1.0" encoding="utf-8"?>
<svg version="1.1" xmlns:xlink="http://www.w3.org/1999/xlink" width="12px" height="12px" viewBox="427 1012.5  12 12" xmlns="http://www.w3.org/2000/svg">
  <path d="M 433 1012.5  C 436.36 1012.5  439 1015.14  439 1018.5  C 439 1021.86  436.36 1024.5  433 1024.5  C 429.64 1024.5  427 1021.86  427 1018.5  C 427 1015.14  429.64 1012.5  433 1012.5  Z " fill-rule="nonzero" fill="#ffffff" stroke="none" />
  <path d="M 433 1013  C 436.08 1013  438.5 1015.42  438.5 1018.5  C 438.5 1021.58  436.08 1024  433 1024  C 429.92 1024  427.5 1021.58  427.5 1018.5  C 427.5 1015.42  429.92 1013  433 1013  Z " stroke-width="1" stroke="#797979" fill="none" />
  <path d="M 433 1021.5  C 431.32 1021.5  430 1020.18  430 1018.5  C 430 1016.82  431.32 1015.5  433 1015.5  C 434.68 1015.5  436 1016.82  436 1018.5  C 436 1020.18  434.68 1021.5  433 1021.5  " fill-rule="nonzero" fill="#797979" stroke="none" />
</svg>