<?xml version="1.0" encoding="utf-8"?>
<svg version="1.1" xmlns:xlink="http://www.w3.org/1999/xlink" width="12px" height="12px" viewBox="932 682.5  12 12" xmlns="http://www.w3.org/2000/svg">
  <path d="M 938 682.5  C 941.36 682.5  944 685.14  944 688.5  C 944 691.86  941.36 694.5  938 694.5  C 934.64 694.5  932 691.86  932 688.5  C 932 685.14  934.64 682.5  938 682.5  Z " fill-rule="nonzero" fill="#ffffff" stroke="none" />
  <path d="M 938 683  C 941.08 683  943.5 685.42  943.5 688.5  C 943.5 691.58  941.08 694  938 694  C 934.92 694  932.5 691.58  932.5 688.5  C 932.5 685.42  934.92 683  938 683  Z " stroke-width="1" stroke="#797979" fill="none" />
  <path d="M 938 691.5  C 936.32 691.5  935 690.18  935 688.5  C 935 686.82  936.32 685.5  938 685.5  C 939.68 685.5  941 686.82  941 688.5  C 941 690.18  939.68 691.5  938 691.5  " fill-rule="nonzero" fill="#797979" stroke="none" />
</svg>