<?xml version="1.0" encoding="utf-8"?>
<svg version="1.1" xmlns:xlink="http://www.w3.org/1999/xlink" width="12px" height="12px" viewBox="780 624.5  12 12" xmlns="http://www.w3.org/2000/svg">
  <path d="M 786 624.5  C 789.36 624.5  792 627.14  792 630.5  C 792 633.86  789.36 636.5  786 636.5  C 782.64 636.5  780 633.86  780 630.5  C 780 627.14  782.64 624.5  786 624.5  Z " fill-rule="nonzero" fill="#ffffff" stroke="none" />
  <path d="M 786 625  C 789.08 625  791.5 627.42  791.5 630.5  C 791.5 633.58  789.08 636  786 636  C 782.92 636  780.5 633.58  780.5 630.5  C 780.5 627.42  782.92 625  786 625  Z " stroke-width="1" stroke="#797979" fill="none" />
  <path d="M 786 633.5  C 784.32 633.5  783 632.18  783 630.5  C 783 628.82  784.32 627.5  786 627.5  C 787.68 627.5  789 628.82  789 630.5  C 789 632.18  787.68 633.5  786 633.5  " fill-rule="nonzero" fill="#797979" stroke="none" />
</svg>