<?xml version="1.0" encoding="utf-8"?>
<svg version="1.1" xmlns:xlink="http://www.w3.org/1999/xlink" width="12px" height="12px" viewBox="773 682.5  12 12" xmlns="http://www.w3.org/2000/svg">
  <path d="M 779 682.5  C 782.36 682.5  785 685.14  785 688.5  C 785 691.86  782.36 694.5  779 694.5  C 775.64 694.5  773 691.86  773 688.5  C 773 685.14  775.64 682.5  779 682.5  Z " fill-rule="nonzero" fill="#ffffff" stroke="none" />
  <path d="M 779 683  C 782.08 683  784.5 685.42  784.5 688.5  C 784.5 691.58  782.08 694  779 694  C 775.92 694  773.5 691.58  773.5 688.5  C 773.5 685.42  775.92 683  779 683  Z " stroke-width="1" stroke="#797979" fill="none" />
  <path d="M 779 691.5  C 777.32 691.5  776 690.18  776 688.5  C 776 686.82  777.32 685.5  779 685.5  C 780.68 685.5  782 686.82  782 688.5  C 782 690.18  780.68 691.5  779 691.5  " fill-rule="nonzero" fill="#797979" stroke="none" />
</svg>