<?xml version="1.0" encoding="utf-8"?>
<svg version="1.1" xmlns:xlink="http://www.w3.org/1999/xlink" width="12px" height="12px" viewBox="906 624.5  12 12" xmlns="http://www.w3.org/2000/svg">
  <path d="M 912 624.5  C 915.36 624.5  918 627.14  918 630.5  C 918 633.86  915.36 636.5  912 636.5  C 908.64 636.5  906 633.86  906 630.5  C 906 627.14  908.64 624.5  912 624.5  Z " fill-rule="nonzero" fill="#f0f0f0" stroke="none" />
  <path d="M 912 625  C 915.08 625  917.5 627.42  917.5 630.5  C 917.5 633.58  915.08 636  912 636  C 908.92 636  906.5 633.58  906.5 630.5  C 906.5 627.42  908.92 625  912 625  Z " stroke-width="1" stroke="#797979" fill="none" />
  <path d="M 912 633.5  C 910.32 633.5  909 632.18  909 630.5  C 909 628.82  910.32 627.5  912 627.5  C 913.68 627.5  915 628.82  915 630.5  C 915 632.18  913.68 633.5  912 633.5  " fill-rule="nonzero" fill="#797979" stroke="none" />
</svg>