<?xml version="1.0" encoding="utf-8"?>
<svg version="1.1" xmlns:xlink="http://www.w3.org/1999/xlink" width="12px" height="12px" viewBox="853 682.5  12 12" xmlns="http://www.w3.org/2000/svg">
  <path d="M 859 682.5  C 862.36 682.5  865 685.14  865 688.5  C 865 691.86  862.36 694.5  859 694.5  C 855.64 694.5  853 691.86  853 688.5  C 853 685.14  855.64 682.5  859 682.5  Z " fill-rule="nonzero" fill="#ffffff" stroke="none" />
  <path d="M 859 683  C 862.08 683  864.5 685.42  864.5 688.5  C 864.5 691.58  862.08 694  859 694  C 855.92 694  853.5 691.58  853.5 688.5  C 853.5 685.42  855.92 683  859 683  Z " stroke-width="1" stroke="#797979" fill="none" />
  <path d="M 859 691.5  C 857.32 691.5  856 690.18  856 688.5  C 856 686.82  857.32 685.5  859 685.5  C 860.68 685.5  862 686.82  862 688.5  C 862 690.18  860.68 691.5  859 691.5  " fill-rule="nonzero" fill="#797979" stroke="none" />
</svg>