<?xml version="1.0" encoding="utf-8"?>
<svg version="1.1" xmlns:xlink="http://www.w3.org/1999/xlink" width="12px" height="12px" viewBox="881 650.5  12 12" xmlns="http://www.w3.org/2000/svg">
  <path d="M 887 650.5  C 890.36 650.5  893 653.14  893 656.5  C 893 659.86  890.36 662.5  887 662.5  C 883.64 662.5  881 659.86  881 656.5  C 881 653.14  883.64 650.5  887 650.5  Z " fill-rule="nonzero" fill="#f0f0f0" stroke="none" />
  <path d="M 887 651  C 890.08 651  892.5 653.42  892.5 656.5  C 892.5 659.58  890.08 662  887 662  C 883.92 662  881.5 659.58  881.5 656.5  C 881.5 653.42  883.92 651  887 651  Z " stroke-width="1" stroke="#797979" fill="none" />
  <path d="M 887 659.5  C 885.32 659.5  884 658.18  884 656.5  C 884 654.82  885.32 653.5  887 653.5  C 888.68 653.5  890 654.82  890 656.5  C 890 658.18  888.68 659.5  887 659.5  " fill-rule="nonzero" fill="#797979" stroke="none" />
</svg>