<?xml version="1.0" encoding="utf-8"?>
<svg version="1.1" xmlns:xlink="http://www.w3.org/1999/xlink" width="12px" height="12px" viewBox="830 713.5  12 12" xmlns="http://www.w3.org/2000/svg">
  <path d="M 836 713.5  C 839.36 713.5  842 716.14  842 719.5  C 842 722.86  839.36 725.5  836 725.5  C 832.64 725.5  830 722.86  830 719.5  C 830 716.14  832.64 713.5  836 713.5  Z " fill-rule="nonzero" fill="#f0f0f0" stroke="none" />
  <path d="M 836 714  C 839.08 714  841.5 716.42  841.5 719.5  C 841.5 722.58  839.08 725  836 725  C 832.92 725  830.5 722.58  830.5 719.5  C 830.5 716.42  832.92 714  836 714  Z " stroke-width="1" stroke="#797979" fill="none" />
  <path d="M 836 722.5  C 834.32 722.5  833 721.18  833 719.5  C 833 717.82  834.32 716.5  836 716.5  C 837.68 716.5  839 717.82  839 719.5  C 839 721.18  837.68 722.5  836 722.5  " fill-rule="nonzero" fill="#797979" stroke="none" />
</svg>