<?xml version="1.0" encoding="utf-8"?>
<svg version="1.1" xmlns:xlink="http://www.w3.org/1999/xlink" width="12px" height="12px" viewBox="780 831.5  12 12" xmlns="http://www.w3.org/2000/svg">
  <path d="M 786 831.5  C 789.36 831.5  792 834.14  792 837.5  C 792 840.86  789.36 843.5  786 843.5  C 782.64 843.5  780 840.86  780 837.5  C 780 834.14  782.64 831.5  786 831.5  Z " fill-rule="nonzero" fill="#ffffff" stroke="none" />
  <path d="M 786 832  C 789.08 832  791.5 834.42  791.5 837.5  C 791.5 840.58  789.08 843  786 843  C 782.92 843  780.5 840.58  780.5 837.5  C 780.5 834.42  782.92 832  786 832  Z " stroke-width="1" stroke="#797979" fill="none" />
  <path d="M 786 840.5  C 784.32 840.5  783 839.18  783 837.5  C 783 835.82  784.32 834.5  786 834.5  C 787.68 834.5  789 835.82  789 837.5  C 789 839.18  787.68 840.5  786 840.5  " fill-rule="nonzero" fill="#797979" stroke="none" />
</svg>