<?xml version="1.0" encoding="utf-8"?>
<svg version="1.1" xmlns:xlink="http://www.w3.org/1999/xlink" width="12px" height="12px" viewBox="780 713.5  12 12" xmlns="http://www.w3.org/2000/svg">
  <path d="M 786 713.5  C 789.36 713.5  792 716.14  792 719.5  C 792 722.86  789.36 725.5  786 725.5  C 782.64 725.5  780 722.86  780 719.5  C 780 716.14  782.64 713.5  786 713.5  Z " fill-rule="nonzero" fill="#f0f0f0" stroke="none" />
  <path d="M 786 714  C 789.08 714  791.5 716.42  791.5 719.5  C 791.5 722.58  789.08 725  786 725  C 782.92 725  780.5 722.58  780.5 719.5  C 780.5 716.42  782.92 714  786 714  Z " stroke-width="1" stroke="#797979" fill="none" />
  <path d="M 786 722.5  C 784.32 722.5  783 721.18  783 719.5  C 783 717.82  784.32 716.5  786 716.5  C 787.68 716.5  789 717.82  789 719.5  C 789 721.18  787.68 722.5  786 722.5  " fill-rule="nonzero" fill="#797979" stroke="none" />
</svg>