<?xml version="1.0" encoding="utf-8"?>
<svg version="1.1" xmlns:xlink="http://www.w3.org/1999/xlink" width="12px" height="12px" viewBox="927 904.5  12 12" xmlns="http://www.w3.org/2000/svg">
  <path d="M 933 904.5  C 936.36 904.5  939 907.14  939 910.5  C 939 913.86  936.36 916.5  933 916.5  C 929.64 916.5  927 913.86  927 910.5  C 927 907.14  929.64 904.5  933 904.5  Z " fill-rule="nonzero" fill="#ffffff" stroke="none" />
  <path d="M 933 905  C 936.08 905  938.5 907.42  938.5 910.5  C 938.5 913.58  936.08 916  933 916  C 929.92 916  927.5 913.58  927.5 910.5  C 927.5 907.42  929.92 905  933 905  Z " stroke-width="1" stroke="#797979" fill="none" />
  <path d="M 933 913.5  C 931.32 913.5  930 912.18  930 910.5  C 930 908.82  931.32 907.5  933 907.5  C 934.68 907.5  936 908.82  936 910.5  C 936 912.18  934.68 913.5  933 913.5  " fill-rule="nonzero" fill="#797979" stroke="none" />
</svg>