<?xml version="1.0" encoding="utf-8"?>
<svg version="1.1" xmlns:xlink="http://www.w3.org/1999/xlink" width="12px" height="12px" viewBox="869 904.5  12 12" xmlns="http://www.w3.org/2000/svg">
  <path d="M 875 904.5  C 878.36 904.5  881 907.14  881 910.5  C 881 913.86  878.36 916.5  875 916.5  C 871.64 916.5  869 913.86  869 910.5  C 869 907.14  871.64 904.5  875 904.5  Z " fill-rule="nonzero" fill="#ffffff" stroke="none" />
  <path d="M 875 905  C 878.08 905  880.5 907.42  880.5 910.5  C 880.5 913.58  878.08 916  875 916  C 871.92 916  869.5 913.58  869.5 910.5  C 869.5 907.42  871.92 905  875 905  Z " stroke-width="1" stroke="#797979" fill="none" />
  <path d="M 875 913.5  C 873.32 913.5  872 912.18  872 910.5  C 872 908.82  873.32 907.5  875 907.5  C 876.68 907.5  878 908.82  878 910.5  C 878 912.18  876.68 913.5  875 913.5  " fill-rule="nonzero" fill="#797979" stroke="none" />
</svg>