<?xml version="1.0" encoding="utf-8"?>
<svg version="1.1" xmlns:xlink="http://www.w3.org/1999/xlink" width="12px" height="12px" viewBox="904 831.5  12 12" xmlns="http://www.w3.org/2000/svg">
  <path d="M 910 831.5  C 913.36 831.5  916 834.14  916 837.5  C 916 840.86  913.36 843.5  910 843.5  C 906.64 843.5  904 840.86  904 837.5  C 904 834.14  906.64 831.5  910 831.5  Z " fill-rule="nonzero" fill="#ffffff" stroke="none" />
  <path d="M 910 832  C 913.08 832  915.5 834.42  915.5 837.5  C 915.5 840.58  913.08 843  910 843  C 906.92 843  904.5 840.58  904.5 837.5  C 904.5 834.42  906.92 832  910 832  Z " stroke-width="1" stroke="#797979" fill="none" />
  <path d="M 910 840.5  C 908.32 840.5  907 839.18  907 837.5  C 907 835.82  908.32 834.5  910 834.5  C 911.68 834.5  913 835.82  913 837.5  C 913 839.18  911.68 840.5  910 840.5  " fill-rule="nonzero" fill="#797979" stroke="none" />
</svg>