<?xml version="1.0" encoding="utf-8"?>
<svg version="1.1" xmlns:xlink="http://www.w3.org/1999/xlink" width="12px" height="12px" viewBox="846 831.5  12 12" xmlns="http://www.w3.org/2000/svg">
  <path d="M 852 831.5  C 855.36 831.5  858 834.14  858 837.5  C 858 840.86  855.36 843.5  852 843.5  C 848.64 843.5  846 840.86  846 837.5  C 846 834.14  848.64 831.5  852 831.5  Z " fill-rule="nonzero" fill="#ffffff" stroke="none" />
  <path d="M 852 832  C 855.08 832  857.5 834.42  857.5 837.5  C 857.5 840.58  855.08 843  852 843  C 848.92 843  846.5 840.58  846.5 837.5  C 846.5 834.42  848.92 832  852 832  Z " stroke-width="1" stroke="#797979" fill="none" />
  <path d="M 852 840.5  C 850.32 840.5  849 839.18  849 837.5  C 849 835.82  850.32 834.5  852 834.5  C 853.68 834.5  855 835.82  855 837.5  C 855 839.18  853.68 840.5  852 840.5  " fill-rule="nonzero" fill="#797979" stroke="none" />
</svg>