<?xml version="1.0" encoding="utf-8"?>
<svg version="1.1" xmlns:xlink="http://www.w3.org/1999/xlink" width="12px" height="12px" viewBox="803 974.5  12 12" xmlns="http://www.w3.org/2000/svg">
  <path d="M 809 974.5  C 812.36 974.5  815 977.14  815 980.5  C 815 983.86  812.36 986.5  809 986.5  C 805.64 986.5  803 983.86  803 980.5  C 803 977.14  805.64 974.5  809 974.5  Z " fill-rule="nonzero" fill="#f0f0f0" stroke="none" />
  <path d="M 809 975  C 812.08 975  814.5 977.42  814.5 980.5  C 814.5 983.58  812.08 986  809 986  C 805.92 986  803.5 983.58  803.5 980.5  C 803.5 977.42  805.92 975  809 975  Z " stroke-width="1" stroke="#797979" fill="none" />
  <path d="M 809 983.5  C 807.32 983.5  806 982.18  806 980.5  C 806 978.82  807.32 977.5  809 977.5  C 810.68 977.5  812 978.82  812 980.5  C 812 982.18  810.68 983.5  809 983.5  " fill-rule="nonzero" fill="#797979" stroke="none" />
</svg>