<?xml version="1.0" encoding="utf-8"?>
<svg version="1.1" xmlns:xlink="http://www.w3.org/1999/xlink" width="12px" height="12px" viewBox="869 974.5  12 12" xmlns="http://www.w3.org/2000/svg">
  <path d="M 875 974.5  C 878.36 974.5  881 977.14  881 980.5  C 881 983.86  878.36 986.5  875 986.5  C 871.64 986.5  869 983.86  869 980.5  C 869 977.14  871.64 974.5  875 974.5  Z " fill-rule="nonzero" fill="#f0f0f0" stroke="none" />
  <path d="M 875 975  C 878.08 975  880.5 977.42  880.5 980.5  C 880.5 983.58  878.08 986  875 986  C 871.92 986  869.5 983.58  869.5 980.5  C 869.5 977.42  871.92 975  875 975  Z " stroke-width="1" stroke="#797979" fill="none" />
  <path d="M 875 983.5  C 873.32 983.5  872 982.18  872 980.5  C 872 978.82  873.32 977.5  875 977.5  C 876.68 977.5  878 978.82  878 980.5  C 878 982.18  876.68 983.5  875 983.5  " fill-rule="nonzero" fill="#797979" stroke="none" />
</svg>