<?xml version="1.0" encoding="utf-8"?>
<svg version="1.1" xmlns:xlink="http://www.w3.org/1999/xlink" width="12px" height="12px" viewBox="630 419.5  12 12" xmlns="http://www.w3.org/2000/svg">
  <path d="M 636 419.5  C 639.36 419.5  642 422.14  642 425.5  C 642 428.86  639.36 431.5  636 431.5  C 632.64 431.5  630 428.86  630 425.5  C 630 422.14  632.64 419.5  636 419.5  Z " fill-rule="nonzero" fill="#f0f0f0" stroke="none" />
  <path d="M 636 420  C 639.08 420  641.5 422.42  641.5 425.5  C 641.5 428.58  639.08 431  636 431  C 632.92 431  630.5 428.58  630.5 425.5  C 630.5 422.42  632.92 420  636 420  Z " stroke-width="1" stroke="#797979" fill="none" />
  <path d="M 636 428.5  C 634.32 428.5  633 427.18  633 425.5  C 633 423.82  634.32 422.5  636 422.5  C 637.68 422.5  639 423.82  639 425.5  C 639 427.18  637.68 428.5  636 428.5  " fill-rule="nonzero" fill="#797979" stroke="none" />
</svg>