<?xml version="1.0" encoding="utf-8"?>
<svg version="1.1" xmlns:xlink="http://www.w3.org/1999/xlink" width="12px" height="12px" viewBox="540 418.5  12 12" xmlns="http://www.w3.org/2000/svg">
  <path d="M 546 418.5  C 549.36 418.5  552 421.14  552 424.5  C 552 427.86  549.36 430.5  546 430.5  C 542.64 430.5  540 427.86  540 424.5  C 540 421.14  542.64 418.5  546 418.5  Z " fill-rule="nonzero" fill="#f0f0f0" stroke="none" />
  <path d="M 546 419  C 549.08 419  551.5 421.42  551.5 424.5  C 551.5 427.58  549.08 430  546 430  C 542.92 430  540.5 427.58  540.5 424.5  C 540.5 421.42  542.92 419  546 419  Z " stroke-width="1" stroke="#333333" fill="none" />
  <path d="M 546 427.5  C 544.32 427.5  543 426.18  543 424.5  C 543 422.82  544.32 421.5  546 421.5  C 547.68 421.5  549 422.82  549 424.5  C 549 426.18  547.68 427.5  546 427.5  " fill-rule="nonzero" fill="#333333" stroke="none" />
</svg>