<?xml version="1.0" encoding="utf-8"?>
<svg version="1.1" xmlns:xlink="http://www.w3.org/1999/xlink" width="12px" height="12px" viewBox="540 489.5  12 12" xmlns="http://www.w3.org/2000/svg">
  <path d="M 546 489.5  C 549.36 489.5  552 492.14  552 495.5  C 552 498.86  549.36 501.5  546 501.5  C 542.64 501.5  540 498.86  540 495.5  C 540 492.14  542.64 489.5  546 489.5  Z " fill-rule="nonzero" fill="#ffffff" stroke="none" />
  <path d="M 546 490  C 549.08 490  551.5 492.42  551.5 495.5  C 551.5 498.58  549.08 501  546 501  C 542.92 501  540.5 498.58  540.5 495.5  C 540.5 492.42  542.92 490  546 490  Z " stroke-width="1" stroke="#333333" fill="none" />
  <path d="M 546 498.5  C 544.32 498.5  543 497.18  543 495.5  C 543 493.82  544.32 492.5  546 492.5  C 547.68 492.5  549 493.82  549 495.5  C 549 497.18  547.68 498.5  546 498.5  " fill-rule="nonzero" fill="#333333" stroke="none" />
</svg>