<?xml version="1.0" encoding="utf-8"?>
<svg version="1.1" xmlns:xlink="http://www.w3.org/1999/xlink" width="12px" height="12px" viewBox="630 455.5  12 12" xmlns="http://www.w3.org/2000/svg">
  <path d="M 636 455.5  C 639.36 455.5  642 458.14  642 461.5  C 642 464.86  639.36 467.5  636 467.5  C 632.64 467.5  630 464.86  630 461.5  C 630 458.14  632.64 455.5  636 455.5  Z " fill-rule="nonzero" fill="#f0f0f0" stroke="none" />
  <path d="M 636 456  C 639.08 456  641.5 458.42  641.5 461.5  C 641.5 464.58  639.08 467  636 467  C 632.92 467  630.5 464.58  630.5 461.5  C 630.5 458.42  632.92 456  636 456  Z " stroke-width="1" stroke="#333333" fill="none" />
  <path d="M 636 464.5  C 634.32 464.5  633 463.18  633 461.5  C 633 459.82  634.32 458.5  636 458.5  C 637.68 458.5  639 459.82  639 461.5  C 639 463.18  637.68 464.5  636 464.5  " fill-rule="nonzero" fill="#333333" stroke="none" />
</svg>