<?xml version="1.0" encoding="utf-8"?>
<svg version="1.1" xmlns:xlink="http://www.w3.org/1999/xlink" width="12px" height="12px" viewBox="706 489.5  12 12" xmlns="http://www.w3.org/2000/svg">
  <path d="M 712 489.5  C 715.36 489.5  718 492.14  718 495.5  C 718 498.86  715.36 501.5  712 501.5  C 708.64 501.5  706 498.86  706 495.5  C 706 492.14  708.64 489.5  712 489.5  Z " fill-rule="nonzero" fill="#ffffff" stroke="none" />
  <path d="M 712 490  C 715.08 490  717.5 492.42  717.5 495.5  C 717.5 498.58  715.08 501  712 501  C 708.92 501  706.5 498.58  706.5 495.5  C 706.5 492.42  708.92 490  712 490  Z " stroke-width="1" stroke="#333333" fill="none" />
  <path d="M 712 498.5  C 710.32 498.5  709 497.18  709 495.5  C 709 493.82  710.32 492.5  712 492.5  C 713.68 492.5  715 493.82  715 495.5  C 715 497.18  713.68 498.5  712 498.5  " fill-rule="nonzero" fill="#333333" stroke="none" />
</svg>