<?xml version="1.0" encoding="utf-8"?>
<svg version="1.1" xmlns:xlink="http://www.w3.org/1999/xlink" width="12px" height="12px" viewBox="540 597.5  12 12" xmlns="http://www.w3.org/2000/svg">
  <path d="M 546 597.5  C 549.36 597.5  552 600.14  552 603.5  C 552 606.86  549.36 609.5  546 609.5  C 542.64 609.5  540 606.86  540 603.5  C 540 600.14  542.64 597.5  546 597.5  Z " fill-rule="nonzero" fill="#f0f0f0" stroke="none" />
  <path d="M 546 598  C 549.08 598  551.5 600.42  551.5 603.5  C 551.5 606.58  549.08 609  546 609  C 542.92 609  540.5 606.58  540.5 603.5  C 540.5 600.42  542.92 598  546 598  Z " stroke-width="1" stroke="#333333" fill="none" />
  <path d="M 546 606.5  C 544.32 606.5  543 605.18  543 603.5  C 543 601.82  544.32 600.5  546 600.5  C 547.68 600.5  549 601.82  549 603.5  C 549 605.18  547.68 606.5  546 606.5  " fill-rule="nonzero" fill="#333333" stroke="none" />
</svg>