<?xml version="1.0" encoding="utf-8"?>
<svg version="1.1" xmlns:xlink="http://www.w3.org/1999/xlink" width="12px" height="12px" viewBox="630 669.5  12 12" xmlns="http://www.w3.org/2000/svg">
  <path d="M 636 669.5  C 639.36 669.5  642 672.14  642 675.5  C 642 678.86  639.36 681.5  636 681.5  C 632.64 681.5  630 678.86  630 675.5  C 630 672.14  632.64 669.5  636 669.5  Z " fill-rule="nonzero" fill="#f0f0f0" stroke="none" />
  <path d="M 636 670  C 639.08 670  641.5 672.42  641.5 675.5  C 641.5 678.58  639.08 681  636 681  C 632.92 681  630.5 678.58  630.5 675.5  C 630.5 672.42  632.92 670  636 670  Z " stroke-width="1" stroke="#333333" fill="none" />
  <path d="M 636 678.5  C 634.32 678.5  633 677.18  633 675.5  C 633 673.82  634.32 672.5  636 672.5  C 637.68 672.5  639 673.82  639 675.5  C 639 677.18  637.68 678.5  636 678.5  " fill-rule="nonzero" fill="#333333" stroke="none" />
</svg>