<?xml version="1.0" encoding="utf-8"?>
<svg version="1.1" xmlns:xlink="http://www.w3.org/1999/xlink" width="12px" height="12px" viewBox="540 668.5  12 12" xmlns="http://www.w3.org/2000/svg">
  <path d="M 546 668.5  C 549.36 668.5  552 671.14  552 674.5  C 552 677.86  549.36 680.5  546 680.5  C 542.64 680.5  540 677.86  540 674.5  C 540 671.14  542.64 668.5  546 668.5  Z " fill-rule="nonzero" fill="#f0f0f0" stroke="none" />
  <path d="M 546 669  C 549.08 669  551.5 671.42  551.5 674.5  C 551.5 677.58  549.08 680  546 680  C 542.92 680  540.5 677.58  540.5 674.5  C 540.5 671.42  542.92 669  546 669  Z " stroke-width="1" stroke="#333333" fill="none" />
  <path d="M 546 677.5  C 544.32 677.5  543 676.18  543 674.5  C 543 672.82  544.32 671.5  546 671.5  C 547.68 671.5  549 672.82  549 674.5  C 549 676.18  547.68 677.5  546 677.5  " fill-rule="nonzero" fill="#333333" stroke="none" />
</svg>