<?xml version="1.0" encoding="utf-8"?>
<svg version="1.1" xmlns:xlink="http://www.w3.org/1999/xlink" width="12px" height="12px" viewBox="307 463.5  12 12" xmlns="http://www.w3.org/2000/svg">
  <path d="M 313 463.5  C 316.36 463.5  319 466.14  319 469.5  C 319 472.86  316.36 475.5  313 475.5  C 309.64 475.5  307 472.86  307 469.5  C 307 466.14  309.64 463.5  313 463.5  Z " fill-rule="nonzero" fill="#f0f0f0" stroke="none" />
  <path d="M 313 464  C 316.08 464  318.5 466.42  318.5 469.5  C 318.5 472.58  316.08 475  313 475  C 309.92 475  307.5 472.58  307.5 469.5  C 307.5 466.42  309.92 464  313 464  Z " stroke-width="1" stroke="#797979" fill="none" />
  <path d="M 313 472.5  C 311.32 472.5  310 471.18  310 469.5  C 310 467.82  311.32 466.5  313 466.5  C 314.68 466.5  316 467.82  316 469.5  C 316 471.18  314.68 472.5  313 472.5  " fill-rule="nonzero" fill="#797979" stroke="none" />
</svg>