<?xml version="1.0" encoding="utf-8"?>
<svg version="1.1" xmlns:xlink="http://www.w3.org/1999/xlink" width="12px" height="12px" viewBox="202 1.5  12 12" xmlns="http://www.w3.org/2000/svg">
  <path d="M 208 1.5  C 211.36 1.5  214 4.14  214 7.5  C 214 10.86  211.36 13.5  208 13.5  C 204.64 13.5  202 10.86  202 7.5  C 202 4.14  204.64 1.5  208 1.5  Z " fill-rule="nonzero" fill="#f0f0f0" stroke="none" />
  <path d="M 208 2  C 211.08 2  213.5 4.42  213.5 7.5  C 213.5 10.58  211.08 13  208 13  C 204.92 13  202.5 10.58  202.5 7.5  C 202.5 4.42  204.92 2  208 2  Z " stroke-width="1" stroke="#797979" fill="none" />
  <path d="M 208 10.5  C 206.32 10.5  205 9.18  205 7.5  C 205 5.82  206.32 4.5  208 4.5  C 209.68 4.5  211 5.82  211 7.5  C 211 9.18  209.68 10.5  208 10.5  " fill-rule="nonzero" fill="#797979" stroke="none" />
</svg>