<?xml version="1.0" encoding="utf-8"?>
<svg version="1.1" xmlns:xlink="http://www.w3.org/1999/xlink" width="12px" height="12px" viewBox="152 62.5  12 12" xmlns="http://www.w3.org/2000/svg">
  <path d="M 158 62.5  C 161.36 62.5  164 65.14  164 68.5  C 164 71.86  161.36 74.5  158 74.5  C 154.64 74.5  152 71.86  152 68.5  C 152 65.14  154.64 62.5  158 62.5  Z " fill-rule="nonzero" fill="#ffffff" stroke="none" />
  <path d="M 158 63  C 161.08 63  163.5 65.42  163.5 68.5  C 163.5 71.58  161.08 74  158 74  C 154.92 74  152.5 71.58  152.5 68.5  C 152.5 65.42  154.92 63  158 63  Z " stroke-width="1" stroke="#797979" fill="none" />
  <path d="M 158 71.5  C 156.32 71.5  155 70.18  155 68.5  C 155 66.82  156.32 65.5  158 65.5  C 159.68 65.5  161 66.82  161 68.5  C 161 70.18  159.68 71.5  158 71.5  " fill-rule="nonzero" fill="#797979" stroke="none" />
</svg>