<?xml version="1.0" encoding="utf-8"?>
<svg version="1.1" xmlns:xlink="http://www.w3.org/1999/xlink" width="12px" height="12px" viewBox="231 531.5  12 12" xmlns="http://www.w3.org/2000/svg">
  <path d="M 237 531.5  C 240.36 531.5  243 534.14  243 537.5  C 243 540.86  240.36 543.5  237 543.5  C 233.64 543.5  231 540.86  231 537.5  C 231 534.14  233.64 531.5  237 531.5  Z " fill-rule="nonzero" fill="#f0f0f0" stroke="none" />
  <path d="M 237 532  C 240.08 532  242.5 534.42  242.5 537.5  C 242.5 540.58  240.08 543  237 543  C 233.92 543  231.5 540.58  231.5 537.5  C 231.5 534.42  233.92 532  237 532  Z " stroke-width="1" stroke="#797979" fill="none" />
  <path d="M 237 540.5  C 235.32 540.5  234 539.18  234 537.5  C 234 535.82  235.32 534.5  237 534.5  C 238.68 534.5  240 535.82  240 537.5  C 240 539.18  238.68 540.5  237 540.5  " fill-rule="nonzero" fill="#797979" stroke="none" />
</svg>