<?xml version="1.0" encoding="utf-8"?>
<svg version="1.1" xmlns:xlink="http://www.w3.org/1999/xlink" width="12px" height="12px" viewBox="100 32.5  12 12" xmlns="http://www.w3.org/2000/svg">
  <path d="M 106 32.5  C 109.36 32.5  112 35.14  112 38.5  C 112 41.86  109.36 44.5  106 44.5  C 102.64 44.5  100 41.86  100 38.5  C 100 35.14  102.64 32.5  106 32.5  Z " fill-rule="nonzero" fill="#ffffff" stroke="none" />
  <path d="M 106 33  C 109.08 33  111.5 35.42  111.5 38.5  C 111.5 41.58  109.08 44  106 44  C 102.92 44  100.5 41.58  100.5 38.5  C 100.5 35.42  102.92 33  106 33  Z " stroke-width="1" stroke="#00bfbf" fill="none" />
  <path d="M 106 41.5  C 104.32 41.5  103 40.18  103 38.5  C 103 36.82  104.32 35.5  106 35.5  C 107.68 35.5  109 36.82  109 38.5  C 109 40.18  107.68 41.5  106 41.5  " fill-rule="nonzero" fill="#00bfbf" stroke="none" />
</svg>