<?xml version="1.0" encoding="utf-8"?>
<svg version="1.1" xmlns:xlink="http://www.w3.org/1999/xlink" width="12px" height="12px" viewBox="48 91.5  12 12" xmlns="http://www.w3.org/2000/svg">
  <path d="M 54 91.5  C 57.36 91.5  60 94.14  60 97.5  C 60 100.86  57.36 103.5  54 103.5  C 50.64 103.5  48 100.86  48 97.5  C 48 94.14  50.64 91.5  54 91.5  Z " fill-rule="nonzero" fill="#ffffff" stroke="none" />
  <path d="M 54 92  C 57.08 92  59.5 94.42  59.5 97.5  C 59.5 100.58  57.08 103  54 103  C 50.92 103  48.5 100.58  48.5 97.5  C 48.5 94.42  50.92 92  54 92  Z " stroke-width="1" stroke="#00bfbf" fill="none" />
  <path d="M 54 100.5  C 52.32 100.5  51 99.18  51 97.5  C 51 95.82  52.32 94.5  54 94.5  C 55.68 94.5  57 95.82  57 97.5  C 57 99.18  55.68 100.5  54 100.5  " fill-rule="nonzero" fill="#00bfbf" stroke="none" />
</svg>