<?xml version="1.0" encoding="utf-8"?>
<svg version="1.1" xmlns:xlink="http://www.w3.org/1999/xlink" width="12px" height="12px" viewBox="100 62.5  12 12" xmlns="http://www.w3.org/2000/svg">
  <path d="M 106 62.5  C 109.36 62.5  112 65.14  112 68.5  C 112 71.86  109.36 74.5  106 74.5  C 102.64 74.5  100 71.86  100 68.5  C 100 65.14  102.64 62.5  106 62.5  Z " fill-rule="nonzero" fill="#f0f0f0" stroke="none" />
  <path d="M 106 63  C 109.08 63  111.5 65.42  111.5 68.5  C 111.5 71.58  109.08 74  106 74  C 102.92 74  100.5 71.58  100.5 68.5  C 100.5 65.42  102.92 63  106 63  Z " stroke-width="1" stroke="#797979" fill="none" />
  <path d="M 106 71.5  C 104.32 71.5  103 70.18  103 68.5  C 103 66.82  104.32 65.5  106 65.5  C 107.68 65.5  109 66.82  109 68.5  C 109 70.18  107.68 71.5  106 71.5  " fill-rule="nonzero" fill="#797979" stroke="none" />
</svg>