<?xml version="1.0" encoding="utf-8"?>
<svg version="1.1" xmlns:xlink="http://www.w3.org/1999/xlink" width="12px" height="12px" viewBox="928 535.5  12 12" xmlns="http://www.w3.org/2000/svg">
  <path d="M 934 535.5  C 937.36 535.5  940 538.14  940 541.5  C 940 544.86  937.36 547.5  934 547.5  C 930.64 547.5  928 544.86  928 541.5  C 928 538.14  930.64 535.5  934 535.5  Z " fill-rule="nonzero" fill="#f0f0f0" stroke="none" />
  <path d="M 934 536  C 937.08 536  939.5 538.42  939.5 541.5  C 939.5 544.58  937.08 547  934 547  C 930.92 547  928.5 544.58  928.5 541.5  C 928.5 538.42  930.92 536  934 536  Z " stroke-width="1" stroke="#797979" fill="none" />
  <path d="M 934 544.5  C 932.32 544.5  931 543.18  931 541.5  C 931 539.82  932.32 538.5  934 538.5  C 935.68 538.5  937 539.82  937 541.5  C 937 543.18  935.68 544.5  934 544.5  " fill-rule="nonzero" fill="#797979" stroke="none" />
</svg>