<?xml version="1.0" encoding="utf-8"?>
<svg version="1.1" xmlns:xlink="http://www.w3.org/1999/xlink" width="12px" height="12px" viewBox="980 499.5  12 12" xmlns="http://www.w3.org/2000/svg">
  <path d="M 986 499.5  C 989.36 499.5  992 502.14  992 505.5  C 992 508.86  989.36 511.5  986 511.5  C 982.64 511.5  980 508.86  980 505.5  C 980 502.14  982.64 499.5  986 499.5  Z " fill-rule="nonzero" fill="#f0f0f0" stroke="none" />
  <path d="M 986 500  C 989.08 500  991.5 502.42  991.5 505.5  C 991.5 508.58  989.08 511  986 511  C 982.92 511  980.5 508.58  980.5 505.5  C 980.5 502.42  982.92 500  986 500  Z " stroke-width="1" stroke="#8080ff" fill="none" />
  <path d="M 986 508.5  C 984.32 508.5  983 507.18  983 505.5  C 983 503.82  984.32 502.5  986 502.5  C 987.68 502.5  989 503.82  989 505.5  C 989 507.18  987.68 508.5  986 508.5  " fill-rule="nonzero" fill="#8080ff" stroke="none" />
</svg>