<?xml version="1.0" encoding="utf-8"?>
<svg version="1.1" xmlns:xlink="http://www.w3.org/1999/xlink" width="12px" height="12px" viewBox="405 468.5  12 12" xmlns="http://www.w3.org/2000/svg">
  <path d="M 411 468.5  C 414.36 468.5  417 471.14  417 474.5  C 417 477.86  414.36 480.5  411 480.5  C 407.64 480.5  405 477.86  405 474.5  C 405 471.14  407.64 468.5  411 468.5  Z " fill-rule="nonzero" fill="#ffffff" stroke="none" />
  <path d="M 411 469  C 414.08 469  416.5 471.42  416.5 474.5  C 416.5 477.58  414.08 480  411 480  C 407.92 480  405.5 477.58  405.5 474.5  C 405.5 471.42  407.92 469  411 469  Z " stroke-width="1" stroke="#797979" fill="none" />
  <path d="M 411 477.5  C 409.32 477.5  408 476.18  408 474.5  C 408 472.82  409.32 471.5  411 471.5  C 412.68 471.5  414 472.82  414 474.5  C 414 476.18  412.68 477.5  411 477.5  " fill-rule="nonzero" fill="#797979" stroke="none" />
</svg>