<?xml version="1.0" encoding="utf-8"?>
<svg version="1.1" xmlns:xlink="http://www.w3.org/1999/xlink" width="12px" height="12px" viewBox="405 526.5  12 12" xmlns="http://www.w3.org/2000/svg">
  <path d="M 411 526.5  C 414.36 526.5  417 529.14  417 532.5  C 417 535.86  414.36 538.5  411 538.5  C 407.64 538.5  405 535.86  405 532.5  C 405 529.14  407.64 526.5  411 526.5  Z " fill-rule="nonzero" fill="#ffffff" stroke="none" />
  <path d="M 411 527  C 414.08 527  416.5 529.42  416.5 532.5  C 416.5 535.58  414.08 538  411 538  C 407.92 538  405.5 535.58  405.5 532.5  C 405.5 529.42  407.92 527  411 527  Z " stroke-width="1" stroke="#797979" fill="none" />
  <path d="M 411 535.5  C 409.32 535.5  408 534.18  408 532.5  C 408 530.82  409.32 529.5  411 529.5  C 412.68 529.5  414 530.82  414 532.5  C 414 534.18  412.68 535.5  411 535.5  " fill-rule="nonzero" fill="#797979" stroke="none" />
</svg>