<?xml version="1.0" encoding="utf-8"?>
<svg version="1.1" xmlns:xlink="http://www.w3.org/1999/xlink" width="12px" height="12px" viewBox="765 568.5  12 12" xmlns="http://www.w3.org/2000/svg">
  <path d="M 771 568.5  C 774.36 568.5  777 571.14  777 574.5  C 777 577.86  774.36 580.5  771 580.5  C 767.64 580.5  765 577.86  765 574.5  C 765 571.14  767.64 568.5  771 568.5  Z " fill-rule="nonzero" fill="#f0f0f0" stroke="none" />
  <path d="M 771 569  C 774.08 569  776.5 571.42  776.5 574.5  C 776.5 577.58  774.08 580  771 580  C 767.92 580  765.5 577.58  765.5 574.5  C 765.5 571.42  767.92 569  771 569  Z " stroke-width="1" stroke="#797979" fill="none" />
  <path d="M 771 577.5  C 769.32 577.5  768 576.18  768 574.5  C 768 572.82  769.32 571.5  771 571.5  C 772.68 571.5  774 572.82  774 574.5  C 774 576.18  772.68 577.5  771 577.5  " fill-rule="nonzero" fill="#797979" stroke="none" />
</svg>