<?xml version="1.0" encoding="utf-8"?>
<svg version="1.1" xmlns:xlink="http://www.w3.org/1999/xlink" width="12px" height="12px" viewBox="765 847.5  12 12" xmlns="http://www.w3.org/2000/svg">
  <path d="M 771 847.5  C 774.36 847.5  777 850.14  777 853.5  C 777 856.86  774.36 859.5  771 859.5  C 767.64 859.5  765 856.86  765 853.5  C 765 850.14  767.64 847.5  771 847.5  Z " fill-rule="nonzero" fill="#f0f0f0" stroke="none" />
  <path d="M 771 848  C 774.08 848  776.5 850.42  776.5 853.5  C 776.5 856.58  774.08 859  771 859  C 767.92 859  765.5 856.58  765.5 853.5  C 765.5 850.42  767.92 848  771 848  Z " stroke-width="1" stroke="#797979" fill="none" />
  <path d="M 771 856.5  C 769.32 856.5  768 855.18  768 853.5  C 768 851.82  769.32 850.5  771 850.5  C 772.68 850.5  774 851.82  774 853.5  C 774 855.18  772.68 856.5  771 856.5  " fill-rule="nonzero" fill="#797979" stroke="none" />
</svg>