<?xml version="1.0" encoding="utf-8"?>
<svg version="1.1" xmlns:xlink="http://www.w3.org/1999/xlink" width="12px" height="12px" viewBox="665 847.5  12 12" xmlns="http://www.w3.org/2000/svg">
  <path d="M 671 847.5  C 674.36 847.5  677 850.14  677 853.5  C 677 856.86  674.36 859.5  671 859.5  C 667.64 859.5  665 856.86  665 853.5  C 665 850.14  667.64 847.5  671 847.5  Z " fill-rule="nonzero" fill="#f0f0f0" stroke="none" />
  <path d="M 671 848  C 674.08 848  676.5 850.42  676.5 853.5  C 676.5 856.58  674.08 859  671 859  C 667.92 859  665.5 856.58  665.5 853.5  C 665.5 850.42  667.92 848  671 848  Z " stroke-width="1" stroke="#333333" fill="none" />
  <path d="M 671 856.5  C 669.32 856.5  668 855.18  668 853.5  C 668 851.82  669.32 850.5  671 850.5  C 672.68 850.5  674 851.82  674 853.5  C 674 855.18  672.68 856.5  671 856.5  " fill-rule="nonzero" fill="#333333" stroke="none" />
</svg>