<?xml version="1.0" encoding="utf-8"?>
<svg version="1.1" xmlns:xlink="http://www.w3.org/1999/xlink" width="12px" height="12px" viewBox="665 927.5  12 12" xmlns="http://www.w3.org/2000/svg">
  <path d="M 671 927.5  C 674.36 927.5  677 930.14  677 933.5  C 677 936.86  674.36 939.5  671 939.5  C 667.64 939.5  665 936.86  665 933.5  C 665 930.14  667.64 927.5  671 927.5  Z " fill-rule="nonzero" fill="#ffffff" stroke="none" />
  <path d="M 671 928  C 674.08 928  676.5 930.42  676.5 933.5  C 676.5 936.58  674.08 939  671 939  C 667.92 939  665.5 936.58  665.5 933.5  C 665.5 930.42  667.92 928  671 928  Z " stroke-width="1" stroke="#333333" fill="none" />
  <path d="M 671 936.5  C 669.32 936.5  668 935.18  668 933.5  C 668 931.82  669.32 930.5  671 930.5  C 672.68 930.5  674 931.82  674 933.5  C 674 935.18  672.68 936.5  671 936.5  " fill-rule="nonzero" fill="#333333" stroke="none" />
</svg>