<?xml version="1.0" encoding="utf-8"?>
<svg version="1.1" xmlns:xlink="http://www.w3.org/1999/xlink" width="12px" height="12px" viewBox="765 527.5  12 12" xmlns="http://www.w3.org/2000/svg">
  <path d="M 771 527.5  C 774.36 527.5  777 530.14  777 533.5  C 777 536.86  774.36 539.5  771 539.5  C 767.64 539.5  765 536.86  765 533.5  C 765 530.14  767.64 527.5  771 527.5  Z " fill-rule="nonzero" fill="#f0f0f0" stroke="none" />
  <path d="M 771 528  C 774.08 528  776.5 530.42  776.5 533.5  C 776.5 536.58  774.08 539  771 539  C 767.92 539  765.5 536.58  765.5 533.5  C 765.5 530.42  767.92 528  771 528  Z " stroke-width="1" stroke="#797979" fill="none" />
  <path d="M 771 536.5  C 769.32 536.5  768 535.18  768 533.5  C 768 531.82  769.32 530.5  771 530.5  C 772.68 530.5  774 531.82  774 533.5  C 774 535.18  772.68 536.5  771 536.5  " fill-rule="nonzero" fill="#797979" stroke="none" />
</svg>