<?xml version="1.0" encoding="utf-8"?>
<svg version="1.1" xmlns:xlink="http://www.w3.org/1999/xlink" width="12px" height="12px" viewBox="665 807.5  12 12" xmlns="http://www.w3.org/2000/svg">
  <path d="M 671 807.5  C 674.36 807.5  677 810.14  677 813.5  C 677 816.86  674.36 819.5  671 819.5  C 667.64 819.5  665 816.86  665 813.5  C 665 810.14  667.64 807.5  671 807.5  Z " fill-rule="nonzero" fill="#ffffff" stroke="none" />
  <path d="M 671 808  C 674.08 808  676.5 810.42  676.5 813.5  C 676.5 816.58  674.08 819  671 819  C 667.92 819  665.5 816.58  665.5 813.5  C 665.5 810.42  667.92 808  671 808  Z " stroke-width="1" stroke="#333333" fill="none" />
  <path d="M 671 816.5  C 669.32 816.5  668 815.18  668 813.5  C 668 811.82  669.32 810.5  671 810.5  C 672.68 810.5  674 811.82  674 813.5  C 674 815.18  672.68 816.5  671 816.5  " fill-rule="nonzero" fill="#333333" stroke="none" />
</svg>