<?xml version="1.0" encoding="utf-8"?>
<svg version="1.1" xmlns:xlink="http://www.w3.org/1999/xlink" width="12px" height="12px" viewBox="665 648.5  12 12" xmlns="http://www.w3.org/2000/svg">
  <path d="M 671 648.5  C 674.36 648.5  677 651.14  677 654.5  C 677 657.86  674.36 660.5  671 660.5  C 667.64 660.5  665 657.86  665 654.5  C 665 651.14  667.64 648.5  671 648.5  Z " fill-rule="nonzero" fill="#f0f0f0" stroke="none" />
  <path d="M 671 649  C 674.08 649  676.5 651.42  676.5 654.5  C 676.5 657.58  674.08 660  671 660  C 667.92 660  665.5 657.58  665.5 654.5  C 665.5 651.42  667.92 649  671 649  Z " stroke-width="1" stroke="#333333" fill="none" />
  <path d="M 671 657.5  C 669.32 657.5  668 656.18  668 654.5  C 668 652.82  669.32 651.5  671 651.5  C 672.68 651.5  674 652.82  674 654.5  C 674 656.18  672.68 657.5  671 657.5  " fill-rule="nonzero" fill="#333333" stroke="none" />
</svg>