<?xml version="1.0" encoding="utf-8"?>
<svg version="1.1" xmlns:xlink="http://www.w3.org/1999/xlink" width="12px" height="12px" viewBox="565 767.5  12 12" xmlns="http://www.w3.org/2000/svg">
  <path d="M 571 767.5  C 574.36 767.5  577 770.14  577 773.5  C 577 776.86  574.36 779.5  571 779.5  C 567.64 779.5  565 776.86  565 773.5  C 565 770.14  567.64 767.5  571 767.5  Z " fill-rule="nonzero" fill="#ffffff" stroke="none" />
  <path d="M 571 768  C 574.08 768  576.5 770.42  576.5 773.5  C 576.5 776.58  574.08 779  571 779  C 567.92 779  565.5 776.58  565.5 773.5  C 565.5 770.42  567.92 768  571 768  Z " stroke-width="1" stroke="#797979" fill="none" />
  <path d="M 571 776.5  C 569.32 776.5  568 775.18  568 773.5  C 568 771.82  569.32 770.5  571 770.5  C 572.68 770.5  574 771.82  574 773.5  C 574 775.18  572.68 776.5  571 776.5  " fill-rule="nonzero" fill="#797979" stroke="none" />
</svg>