<?xml version="1.0" encoding="utf-8"?>
<svg version="1.1" xmlns:xlink="http://www.w3.org/1999/xlink" width="12px" height="12px" viewBox="765 484.5  12 12" xmlns="http://www.w3.org/2000/svg">
  <path d="M 771 484.5  C 774.36 484.5  777 487.14  777 490.5  C 777 493.86  774.36 496.5  771 496.5  C 767.64 496.5  765 493.86  765 490.5  C 765 487.14  767.64 484.5  771 484.5  Z " fill-rule="nonzero" fill="#ffffff" stroke="none" />
  <path d="M 771 485  C 774.08 485  776.5 487.42  776.5 490.5  C 776.5 493.58  774.08 496  771 496  C 767.92 496  765.5 493.58  765.5 490.5  C 765.5 487.42  767.92 485  771 485  Z " stroke-width="1" stroke="#797979" fill="none" />
  <path d="M 771 493.5  C 769.32 493.5  768 492.18  768 490.5  C 768 488.82  769.32 487.5  771 487.5  C 772.68 487.5  774 488.82  774 490.5  C 774 492.18  772.68 493.5  771 493.5  " fill-rule="nonzero" fill="#797979" stroke="none" />
</svg>