<?xml version="1.0" encoding="utf-8"?>
<svg version="1.1" xmlns:xlink="http://www.w3.org/1999/xlink" width="12px" height="12px" viewBox="565 648.5  12 12" xmlns="http://www.w3.org/2000/svg">
  <path d="M 571 648.5  C 574.36 648.5  577 651.14  577 654.5  C 577 657.86  574.36 660.5  571 660.5  C 567.64 660.5  565 657.86  565 654.5  C 565 651.14  567.64 648.5  571 648.5  Z " fill-rule="nonzero" fill="#ffffff" stroke="none" />
  <path d="M 571 649  C 574.08 649  576.5 651.42  576.5 654.5  C 576.5 657.58  574.08 660  571 660  C 567.92 660  565.5 657.58  565.5 654.5  C 565.5 651.42  567.92 649  571 649  Z " stroke-width="1" stroke="#797979" fill="none" />
  <path d="M 571 657.5  C 569.32 657.5  568 656.18  568 654.5  C 568 652.82  569.32 651.5  571 651.5  C 572.68 651.5  574 652.82  574 654.5  C 574 656.18  572.68 657.5  571 657.5  " fill-rule="nonzero" fill="#797979" stroke="none" />
</svg>