<?xml version="1.0" encoding="utf-8"?>
<svg version="1.1" xmlns:xlink="http://www.w3.org/1999/xlink" width="12px" height="12px" viewBox="565 689.5  12 12" xmlns="http://www.w3.org/2000/svg">
  <path d="M 571 689.5  C 574.36 689.5  577 692.14  577 695.5  C 577 698.86  574.36 701.5  571 701.5  C 567.64 701.5  565 698.86  565 695.5  C 565 692.14  567.64 689.5  571 689.5  Z " fill-rule="nonzero" fill="#ffffff" stroke="none" />
  <path d="M 571 690  C 574.08 690  576.5 692.42  576.5 695.5  C 576.5 698.58  574.08 701  571 701  C 567.92 701  565.5 698.58  565.5 695.5  C 565.5 692.42  567.92 690  571 690  Z " stroke-width="1" stroke="#797979" fill="none" />
  <path d="M 571 698.5  C 569.32 698.5  568 697.18  568 695.5  C 568 693.82  569.32 692.5  571 692.5  C 572.68 692.5  574 693.82  574 695.5  C 574 697.18  572.68 698.5  571 698.5  " fill-rule="nonzero" fill="#797979" stroke="none" />
</svg>