<?xml version="1.0" encoding="utf-8"?>
<svg version="1.1" xmlns:xlink="http://www.w3.org/1999/xlink" width="12px" height="12px" viewBox="565 729.5  12 12" xmlns="http://www.w3.org/2000/svg">
  <path d="M 571 729.5  C 574.36 729.5  577 732.14  577 735.5  C 577 738.86  574.36 741.5  571 741.5  C 567.64 741.5  565 738.86  565 735.5  C 565 732.14  567.64 729.5  571 729.5  Z " fill-rule="nonzero" fill="#ffffff" stroke="none" />
  <path d="M 571 730  C 574.08 730  576.5 732.42  576.5 735.5  C 576.5 738.58  574.08 741  571 741  C 567.92 741  565.5 738.58  565.5 735.5  C 565.5 732.42  567.92 730  571 730  Z " stroke-width="1" stroke="#797979" fill="none" />
  <path d="M 571 738.5  C 569.32 738.5  568 737.18  568 735.5  C 568 733.82  569.32 732.5  571 732.5  C 572.68 732.5  574 733.82  574 735.5  C 574 737.18  572.68 738.5  571 738.5  " fill-rule="nonzero" fill="#797979" stroke="none" />
</svg>