<?xml version="1.0" encoding="utf-8"?>
<svg version="1.1" xmlns:xlink="http://www.w3.org/1999/xlink" width="12px" height="12px" viewBox="765 607.5  12 12" xmlns="http://www.w3.org/2000/svg">
  <path d="M 771 607.5  C 774.36 607.5  777 610.14  777 613.5  C 777 616.86  774.36 619.5  771 619.5  C 767.64 619.5  765 616.86  765 613.5  C 765 610.14  767.64 607.5  771 607.5  Z " fill-rule="nonzero" fill="#f0f0f0" stroke="none" />
  <path d="M 771 608  C 774.08 608  776.5 610.42  776.5 613.5  C 776.5 616.58  774.08 619  771 619  C 767.92 619  765.5 616.58  765.5 613.5  C 765.5 610.42  767.92 608  771 608  Z " stroke-width="1" stroke="#797979" fill="none" />
  <path d="M 771 616.5  C 769.32 616.5  768 615.18  768 613.5  C 768 611.82  769.32 610.5  771 610.5  C 772.68 610.5  774 611.82  774 613.5  C 774 615.18  772.68 616.5  771 616.5  " fill-rule="nonzero" fill="#797979" stroke="none" />
</svg>