<?xml version="1.0" encoding="utf-8"?>
<svg version="1.1" xmlns:xlink="http://www.w3.org/1999/xlink" width="12px" height="12px" viewBox="565 888.5  12 12" xmlns="http://www.w3.org/2000/svg">
  <path d="M 571 888.5  C 574.36 888.5  577 891.14  577 894.5  C 577 897.86  574.36 900.5  571 900.5  C 567.64 900.5  565 897.86  565 894.5  C 565 891.14  567.64 888.5  571 888.5  Z " fill-rule="nonzero" fill="#ffffff" stroke="none" />
  <path d="M 571 889  C 574.08 889  576.5 891.42  576.5 894.5  C 576.5 897.58  574.08 900  571 900  C 567.92 900  565.5 897.58  565.5 894.5  C 565.5 891.42  567.92 889  571 889  Z " stroke-width="1" stroke="#797979" fill="none" />
  <path d="M 571 897.5  C 569.32 897.5  568 896.18  568 894.5  C 568 892.82  569.32 891.5  571 891.5  C 572.68 891.5  574 892.82  574 894.5  C 574 896.18  572.68 897.5  571 897.5  " fill-rule="nonzero" fill="#797979" stroke="none" />
</svg>