<?xml version="1.0" encoding="utf-8"?>
<svg version="1.1" xmlns:xlink="http://www.w3.org/1999/xlink" width="12px" height="12px" viewBox="665 607.5  12 12" xmlns="http://www.w3.org/2000/svg">
  <path d="M 671 607.5  C 674.36 607.5  677 610.14  677 613.5  C 677 616.86  674.36 619.5  671 619.5  C 667.64 619.5  665 616.86  665 613.5  C 665 610.14  667.64 607.5  671 607.5  Z " fill-rule="nonzero" fill="#ffffff" stroke="none" />
  <path d="M 671 608  C 674.08 608  676.5 610.42  676.5 613.5  C 676.5 616.58  674.08 619  671 619  C 667.92 619  665.5 616.58  665.5 613.5  C 665.5 610.42  667.92 608  671 608  Z " stroke-width="1" stroke="#333333" fill="none" />
  <path d="M 671 616.5  C 669.32 616.5  668 615.18  668 613.5  C 668 611.82  669.32 610.5  671 610.5  C 672.68 610.5  674 611.82  674 613.5  C 674 615.18  672.68 616.5  671 616.5  " fill-rule="nonzero" fill="#333333" stroke="none" />
</svg>