<?xml version="1.0" encoding="utf-8"?>
<svg version="1.1" xmlns:xlink="http://www.w3.org/1999/xlink" width="12px" height="12px" viewBox="565 568.5  12 12" xmlns="http://www.w3.org/2000/svg">
  <path d="M 571 568.5  C 574.36 568.5  577 571.14  577 574.5  C 577 577.86  574.36 580.5  571 580.5  C 567.64 580.5  565 577.86  565 574.5  C 565 571.14  567.64 568.5  571 568.5  Z " fill-rule="nonzero" fill="#f0f0f0" stroke="none" />
  <path d="M 571 569  C 574.08 569  576.5 571.42  576.5 574.5  C 576.5 577.58  574.08 580  571 580  C 567.92 580  565.5 577.58  565.5 574.5  C 565.5 571.42  567.92 569  571 569  Z " stroke-width="1" stroke="#797979" fill="none" />
  <path d="M 571 577.5  C 569.32 577.5  568 576.18  568 574.5  C 568 572.82  569.32 571.5  571 571.5  C 572.68 571.5  574 572.82  574 574.5  C 574 576.18  572.68 577.5  571 577.5  " fill-rule="nonzero" fill="#797979" stroke="none" />
</svg>