<?xml version="1.0" encoding="utf-8"?>
<svg version="1.1" xmlns:xlink="http://www.w3.org/1999/xlink" width="12px" height="12px" viewBox="565 527.5  12 12" xmlns="http://www.w3.org/2000/svg">
  <path d="M 571 527.5  C 574.36 527.5  577 530.14  577 533.5  C 577 536.86  574.36 539.5  571 539.5  C 567.64 539.5  565 536.86  565 533.5  C 565 530.14  567.64 527.5  571 527.5  Z " fill-rule="nonzero" fill="#ffffff" stroke="none" />
  <path d="M 571 528  C 574.08 528  576.5 530.42  576.5 533.5  C 576.5 536.58  574.08 539  571 539  C 567.92 539  565.5 536.58  565.5 533.5  C 565.5 530.42  567.92 528  571 528  Z " stroke-width="1" stroke="#797979" fill="none" />
  <path d="M 571 536.5  C 569.32 536.5  568 535.18  568 533.5  C 568 531.82  569.32 530.5  571 530.5  C 572.68 530.5  574 531.82  574 533.5  C 574 535.18  572.68 536.5  571 536.5  " fill-rule="nonzero" fill="#797979" stroke="none" />
</svg>