<?xml version="1.0" encoding="utf-8"?>
<svg version="1.1" xmlns:xlink="http://www.w3.org/1999/xlink" width="12px" height="12px" viewBox="765 447.5  12 12" xmlns="http://www.w3.org/2000/svg">
  <path d="M 771 447.5  C 774.36 447.5  777 450.14  777 453.5  C 777 456.86  774.36 459.5  771 459.5  C 767.64 459.5  765 456.86  765 453.5  C 765 450.14  767.64 447.5  771 447.5  Z " fill-rule="nonzero" fill="#f0f0f0" stroke="none" />
  <path d="M 771 448  C 774.08 448  776.5 450.42  776.5 453.5  C 776.5 456.58  774.08 459  771 459  C 767.92 459  765.5 456.58  765.5 453.5  C 765.5 450.42  767.92 448  771 448  Z " stroke-width="1" stroke="#797979" fill="none" />
  <path d="M 771 456.5  C 769.32 456.5  768 455.18  768 453.5  C 768 451.82  769.32 450.5  771 450.5  C 772.68 450.5  774 451.82  774 453.5  C 774 455.18  772.68 456.5  771 456.5  " fill-rule="nonzero" fill="#797979" stroke="none" />
</svg>