<?xml version="1.0" encoding="utf-8"?>
<svg version="1.1" xmlns:xlink="http://www.w3.org/1999/xlink" width="12px" height="12px" viewBox="765 729.5  12 12" xmlns="http://www.w3.org/2000/svg">
  <path d="M 771 729.5  C 774.36 729.5  777 732.14  777 735.5  C 777 738.86  774.36 741.5  771 741.5  C 767.64 741.5  765 738.86  765 735.5  C 765 732.14  767.64 729.5  771 729.5  Z " fill-rule="nonzero" fill="#ffffff" stroke="none" />
  <path d="M 771 730  C 774.08 730  776.5 732.42  776.5 735.5  C 776.5 738.58  774.08 741  771 741  C 767.92 741  765.5 738.58  765.5 735.5  C 765.5 732.42  767.92 730  771 730  Z " stroke-width="1" stroke="#797979" fill="none" />
  <path d="M 771 738.5  C 769.32 738.5  768 737.18  768 735.5  C 768 733.82  769.32 732.5  771 732.5  C 772.68 732.5  774 733.82  774 735.5  C 774 737.18  772.68 738.5  771 738.5  " fill-rule="nonzero" fill="#797979" stroke="none" />
</svg>