<?xml version="1.0" encoding="utf-8"?>
<svg version="1.1" xmlns:xlink="http://www.w3.org/1999/xlink" width="12px" height="12px" viewBox="565 807.5  12 12" xmlns="http://www.w3.org/2000/svg">
  <path d="M 571 807.5  C 574.36 807.5  577 810.14  577 813.5  C 577 816.86  574.36 819.5  571 819.5  C 567.64 819.5  565 816.86  565 813.5  C 565 810.14  567.64 807.5  571 807.5  Z " fill-rule="nonzero" fill="#f0f0f0" stroke="none" />
  <path d="M 571 808  C 574.08 808  576.5 810.42  576.5 813.5  C 576.5 816.58  574.08 819  571 819  C 567.92 819  565.5 816.58  565.5 813.5  C 565.5 810.42  567.92 808  571 808  Z " stroke-width="1" stroke="#797979" fill="none" />
  <path d="M 571 816.5  C 569.32 816.5  568 815.18  568 813.5  C 568 811.82  569.32 810.5  571 810.5  C 572.68 810.5  574 811.82  574 813.5  C 574 815.18  572.68 816.5  571 816.5  " fill-rule="nonzero" fill="#797979" stroke="none" />
</svg>