<?xml version="1.0" encoding="utf-8"?>
<svg version="1.1" xmlns:xlink="http://www.w3.org/1999/xlink" width="12px" height="12px" viewBox="665 484.5  12 12" xmlns="http://www.w3.org/2000/svg">
  <path d="M 671 484.5  C 674.36 484.5  677 487.14  677 490.5  C 677 493.86  674.36 496.5  671 496.5  C 667.64 496.5  665 493.86  665 490.5  C 665 487.14  667.64 484.5  671 484.5  Z " fill-rule="nonzero" fill="#ffffff" stroke="none" />
  <path d="M 671 485  C 674.08 485  676.5 487.42  676.5 490.5  C 676.5 493.58  674.08 496  671 496  C 667.92 496  665.5 493.58  665.5 490.5  C 665.5 487.42  667.92 485  671 485  Z " stroke-width="1" stroke="#333333" fill="none" />
  <path d="M 671 493.5  C 669.32 493.5  668 492.18  668 490.5  C 668 488.82  669.32 487.5  671 487.5  C 672.68 487.5  674 488.82  674 490.5  C 674 492.18  672.68 493.5  671 493.5  " fill-rule="nonzero" fill="#333333" stroke="none" />
</svg>