<?xml version="1.0" encoding="utf-8"?>
<svg version="1.1" xmlns:xlink="http://www.w3.org/1999/xlink" width="12px" height="12px" viewBox="665 447.5  12 12" xmlns="http://www.w3.org/2000/svg">
  <path d="M 671 447.5  C 674.36 447.5  677 450.14  677 453.5  C 677 456.86  674.36 459.5  671 459.5  C 667.64 459.5  665 456.86  665 453.5  C 665 450.14  667.64 447.5  671 447.5  Z " fill-rule="nonzero" fill="#f0f0f0" stroke="none" />
  <path d="M 671 448  C 674.08 448  676.5 450.42  676.5 453.5  C 676.5 456.58  674.08 459  671 459  C 667.92 459  665.5 456.58  665.5 453.5  C 665.5 450.42  667.92 448  671 448  Z " stroke-width="1" stroke="#333333" fill="none" />
  <path d="M 671 456.5  C 669.32 456.5  668 455.18  668 453.5  C 668 451.82  669.32 450.5  671 450.5  C 672.68 450.5  674 451.82  674 453.5  C 674 455.18  672.68 456.5  671 456.5  " fill-rule="nonzero" fill="#333333" stroke="none" />
</svg>