<?xml version="1.0" encoding="utf-8"?>
<svg version="1.1" xmlns:xlink="http://www.w3.org/1999/xlink" width="12px" height="12px" viewBox="665 729.5  12 12" xmlns="http://www.w3.org/2000/svg">
  <path d="M 671 729.5  C 674.36 729.5  677 732.14  677 735.5  C 677 738.86  674.36 741.5  671 741.5  C 667.64 741.5  665 738.86  665 735.5  C 665 732.14  667.64 729.5  671 729.5  Z " fill-rule="nonzero" fill="#f0f0f0" stroke="none" />
  <path d="M 671 730  C 674.08 730  676.5 732.42  676.5 735.5  C 676.5 738.58  674.08 741  671 741  C 667.92 741  665.5 738.58  665.5 735.5  C 665.5 732.42  667.92 730  671 730  Z " stroke-width="1" stroke="#333333" fill="none" />
  <path d="M 671 738.5  C 669.32 738.5  668 737.18  668 735.5  C 668 733.82  669.32 732.5  671 732.5  C 672.68 732.5  674 733.82  674 735.5  C 674 737.18  672.68 738.5  671 738.5  " fill-rule="nonzero" fill="#333333" stroke="none" />
</svg>