<?xml version="1.0" encoding="utf-8"?>
<svg version="1.1" xmlns:xlink="http://www.w3.org/1999/xlink" width="12px" height="12px" viewBox="665 767.5  12 12" xmlns="http://www.w3.org/2000/svg">
  <path d="M 671 767.5  C 674.36 767.5  677 770.14  677 773.5  C 677 776.86  674.36 779.5  671 779.5  C 667.64 779.5  665 776.86  665 773.5  C 665 770.14  667.64 767.5  671 767.5  Z " fill-rule="nonzero" fill="#f0f0f0" stroke="none" />
  <path d="M 671 768  C 674.08 768  676.5 770.42  676.5 773.5  C 676.5 776.58  674.08 779  671 779  C 667.92 779  665.5 776.58  665.5 773.5  C 665.5 770.42  667.92 768  671 768  Z " stroke-width="1" stroke="#333333" fill="none" />
  <path d="M 671 776.5  C 669.32 776.5  668 775.18  668 773.5  C 668 771.82  669.32 770.5  671 770.5  C 672.68 770.5  674 771.82  674 773.5  C 674 775.18  672.68 776.5  671 776.5  " fill-rule="nonzero" fill="#333333" stroke="none" />
</svg>