<?xml version="1.0" encoding="utf-8"?>
<svg version="1.1" xmlns:xlink="http://www.w3.org/1999/xlink" width="12px" height="12px" viewBox="565 607.5  12 12" xmlns="http://www.w3.org/2000/svg">
  <path d="M 571 607.5  C 574.36 607.5  577 610.14  577 613.5  C 577 616.86  574.36 619.5  571 619.5  C 567.64 619.5  565 616.86  565 613.5  C 565 610.14  567.64 607.5  571 607.5  Z " fill-rule="nonzero" fill="#ffffff" stroke="none" />
  <path d="M 571 608  C 574.08 608  576.5 610.42  576.5 613.5  C 576.5 616.58  574.08 619  571 619  C 567.92 619  565.5 616.58  565.5 613.5  C 565.5 610.42  567.92 608  571 608  Z " stroke-width="1" stroke="#797979" fill="none" />
  <path d="M 571 616.5  C 569.32 616.5  568 615.18  568 613.5  C 568 611.82  569.32 610.5  571 610.5  C 572.68 610.5  574 611.82  574 613.5  C 574 615.18  572.68 616.5  571 616.5  " fill-rule="nonzero" fill="#797979" stroke="none" />
</svg>