<?xml version="1.0" encoding="utf-8"?>
<svg version="1.1" xmlns:xlink="http://www.w3.org/1999/xlink" width="12px" height="12px" viewBox="665 888.5  12 12" xmlns="http://www.w3.org/2000/svg">
  <path d="M 671 888.5  C 674.36 888.5  677 891.14  677 894.5  C 677 897.86  674.36 900.5  671 900.5  C 667.64 900.5  665 897.86  665 894.5  C 665 891.14  667.64 888.5  671 888.5  Z " fill-rule="nonzero" fill="#ffffff" stroke="none" />
  <path d="M 671 889  C 674.08 889  676.5 891.42  676.5 894.5  C 676.5 897.58  674.08 900  671 900  C 667.92 900  665.5 897.58  665.5 894.5  C 665.5 891.42  667.92 889  671 889  Z " stroke-width="1" stroke="#333333" fill="none" />
  <path d="M 671 897.5  C 669.32 897.5  668 896.18  668 894.5  C 668 892.82  669.32 891.5  671 891.5  C 672.68 891.5  674 892.82  674 894.5  C 674 896.18  672.68 897.5  671 897.5  " fill-rule="nonzero" fill="#333333" stroke="none" />
</svg>