<?xml version="1.0" encoding="utf-8"?>
<svg version="1.1" xmlns:xlink="http://www.w3.org/1999/xlink" width="12px" height="12px" viewBox="565 847.5  12 12" xmlns="http://www.w3.org/2000/svg">
  <path d="M 571 847.5  C 574.36 847.5  577 850.14  577 853.5  C 577 856.86  574.36 859.5  571 859.5  C 567.64 859.5  565 856.86  565 853.5  C 565 850.14  567.64 847.5  571 847.5  Z " fill-rule="nonzero" fill="#ffffff" stroke="none" />
  <path d="M 571 848  C 574.08 848  576.5 850.42  576.5 853.5  C 576.5 856.58  574.08 859  571 859  C 567.92 859  565.5 856.58  565.5 853.5  C 565.5 850.42  567.92 848  571 848  Z " stroke-width="1" stroke="#797979" fill="none" />
  <path d="M 571 856.5  C 569.32 856.5  568 855.18  568 853.5  C 568 851.82  569.32 850.5  571 850.5  C 572.68 850.5  574 851.82  574 853.5  C 574 855.18  572.68 856.5  571 856.5  " fill-rule="nonzero" fill="#797979" stroke="none" />
</svg>