<?xml version="1.0" encoding="utf-8"?>
<svg version="1.1" xmlns:xlink="http://www.w3.org/1999/xlink" width="12px" height="12px" viewBox="426 670.5  12 12" xmlns="http://www.w3.org/2000/svg">
  <path d="M 432 670.5  C 435.36 670.5  438 673.14  438 676.5  C 438 679.86  435.36 682.5  432 682.5  C 428.64 682.5  426 679.86  426 676.5  C 426 673.14  428.64 670.5  432 670.5  Z " fill-rule="nonzero" fill="#ffffff" stroke="none" />
  <path d="M 432 671  C 435.08 671  437.5 673.42  437.5 676.5  C 437.5 679.58  435.08 682  432 682  C 428.92 682  426.5 679.58  426.5 676.5  C 426.5 673.42  428.92 671  432 671  Z " stroke-width="1" stroke="#797979" fill="none" />
  <path d="M 432 679.5  C 430.32 679.5  429 678.18  429 676.5  C 429 674.82  430.32 673.5  432 673.5  C 433.68 673.5  435 674.82  435 676.5  C 435 678.18  433.68 679.5  432 679.5  " fill-rule="nonzero" fill="#797979" stroke="none" />
</svg>