<?xml version="1.0" encoding="utf-8"?>
<svg version="1.1" xmlns:xlink="http://www.w3.org/1999/xlink" width="12px" height="12px" viewBox="358 670.5  12 12" xmlns="http://www.w3.org/2000/svg">
  <path d="M 364 670.5  C 367.36 670.5  370 673.14  370 676.5  C 370 679.86  367.36 682.5  364 682.5  C 360.64 682.5  358 679.86  358 676.5  C 358 673.14  360.64 670.5  364 670.5  Z " fill-rule="nonzero" fill="#f0f0f0" stroke="none" />
  <path d="M 364 671  C 367.08 671  369.5 673.42  369.5 676.5  C 369.5 679.58  367.08 682  364 682  C 360.92 682  358.5 679.58  358.5 676.5  C 358.5 673.42  360.92 671  364 671  Z " stroke-width="1" stroke="#333333" fill="none" />
  <path d="M 364 679.5  C 362.32 679.5  361 678.18  361 676.5  C 361 674.82  362.32 673.5  364 673.5  C 365.68 673.5  367 674.82  367 676.5  C 367 678.18  365.68 679.5  364 679.5  " fill-rule="nonzero" fill="#333333" stroke="none" />
</svg>