<?xml version="1.0" encoding="utf-8"?>
<svg version="1.1" xmlns:xlink="http://www.w3.org/1999/xlink" width="12px" height="12px" viewBox="830 451.5  12 12" xmlns="http://www.w3.org/2000/svg">
  <path d="M 836 451.5  C 839.36 451.5  842 454.14  842 457.5  C 842 460.86  839.36 463.5  836 463.5  C 832.64 463.5  830 460.86  830 457.5  C 830 454.14  832.64 451.5  836 451.5  Z " fill-rule="nonzero" fill="#ffffff" stroke="none" />
  <path d="M 836 452  C 839.08 452  841.5 454.42  841.5 457.5  C 841.5 460.58  839.08 463  836 463  C 832.92 463  830.5 460.58  830.5 457.5  C 830.5 454.42  832.92 452  836 452  Z " stroke-width="1" stroke="#8080ff" fill="none" />
  <path d="M 836 460.5  C 834.32 460.5  833 459.18  833 457.5  C 833 455.82  834.32 454.5  836 454.5  C 837.68 454.5  839 455.82  839 457.5  C 839 459.18  837.68 460.5  836 460.5  " fill-rule="nonzero" fill="#8080ff" stroke="none" />
</svg>