<?xml version="1.0" encoding="utf-8"?>
<svg version="1.1" xmlns:xlink="http://www.w3.org/1999/xlink" width="12px" height="12px" viewBox="300 518.5  12 12" xmlns="http://www.w3.org/2000/svg">
  <path d="M 306 518.5  C 309.36 518.5  312 521.14  312 524.5  C 312 527.86  309.36 530.5  306 530.5  C 302.64 530.5  300 527.86  300 524.5  C 300 521.14  302.64 518.5  306 518.5  Z " fill-rule="nonzero" fill="#ffffff" stroke="none" />
  <path d="M 306 519  C 309.08 519  311.5 521.42  311.5 524.5  C 311.5 527.58  309.08 530  306 530  C 302.92 530  300.5 527.58  300.5 524.5  C 300.5 521.42  302.92 519  306 519  Z " stroke-width="1" stroke="#797979" fill="none" />
  <path d="M 306 527.5  C 304.32 527.5  303 526.18  303 524.5  C 303 522.82  304.32 521.5  306 521.5  C 307.68 521.5  309 522.82  309 524.5  C 309 526.18  307.68 527.5  306 527.5  " fill-rule="nonzero" fill="#797979" stroke="none" />
</svg>