<?xml version="1.0" encoding="utf-8"?>
<svg version="1.1" xmlns:xlink="http://www.w3.org/1999/xlink" width="12px" height="12px" viewBox="400 518.5  12 12" xmlns="http://www.w3.org/2000/svg">
  <path d="M 406 518.5  C 409.36 518.5  412 521.14  412 524.5  C 412 527.86  409.36 530.5  406 530.5  C 402.64 530.5  400 527.86  400 524.5  C 400 521.14  402.64 518.5  406 518.5  Z " fill-rule="nonzero" fill="#ffffff" stroke="none" />
  <path d="M 406 519  C 409.08 519  411.5 521.42  411.5 524.5  C 411.5 527.58  409.08 530  406 530  C 402.92 530  400.5 527.58  400.5 524.5  C 400.5 521.42  402.92 519  406 519  Z " stroke-width="1" stroke="#797979" fill="none" />
  <path d="M 406 527.5  C 404.32 527.5  403 526.18  403 524.5  C 403 522.82  404.32 521.5  406 521.5  C 407.68 521.5  409 522.82  409 524.5  C 409 526.18  407.68 527.5  406 527.5  " fill-rule="nonzero" fill="#797979" stroke="none" />
</svg>