<?xml version="1.0" encoding="utf-8"?>
<svg version="1.1" xmlns:xlink="http://www.w3.org/1999/xlink" width="12px" height="12px" viewBox="518 492.5  12 12" xmlns="http://www.w3.org/2000/svg">
  <path d="M 524 492.5  C 527.36 492.5  530 495.14  530 498.5  C 530 501.86  527.36 504.5  524 504.5  C 520.64 504.5  518 501.86  518 498.5  C 518 495.14  520.64 492.5  524 492.5  Z " fill-rule="nonzero" fill="#f0f0f0" stroke="none" />
  <path d="M 524 493  C 527.08 493  529.5 495.42  529.5 498.5  C 529.5 501.58  527.08 504  524 504  C 520.92 504  518.5 501.58  518.5 498.5  C 518.5 495.42  520.92 493  524 493  Z " stroke-width="1" stroke="#797979" fill="none" />
  <path d="M 524 501.5  C 522.32 501.5  521 500.18  521 498.5  C 521 496.82  522.32 495.5  524 495.5  C 525.68 495.5  527 496.82  527 498.5  C 527 500.18  525.68 501.5  524 501.5  " fill-rule="nonzero" fill="#797979" stroke="none" />
</svg>