<?xml version="1.0" encoding="utf-8"?>
<svg version="1.1" xmlns:xlink="http://www.w3.org/1999/xlink" width="12px" height="12px" viewBox="358 720.5  12 12" xmlns="http://www.w3.org/2000/svg">
  <path d="M 364 720.5  C 367.36 720.5  370 723.14  370 726.5  C 370 729.86  367.36 732.5  364 732.5  C 360.64 732.5  358 729.86  358 726.5  C 358 723.14  360.64 720.5  364 720.5  Z " fill-rule="nonzero" fill="#f0f0f0" stroke="none" />
  <path d="M 364 721  C 367.08 721  369.5 723.42  369.5 726.5  C 369.5 729.58  367.08 732  364 732  C 360.92 732  358.5 729.58  358.5 726.5  C 358.5 723.42  360.92 721  364 721  Z " stroke-width="1" stroke="#797979" fill="none" />
  <path d="M 364 729.5  C 362.32 729.5  361 728.18  361 726.5  C 361 724.82  362.32 723.5  364 723.5  C 365.68 723.5  367 724.82  367 726.5  C 367 728.18  365.68 729.5  364 729.5  " fill-rule="nonzero" fill="#797979" stroke="none" />
</svg>