<?xml version="1.0" encoding="utf-8"?>
<svg version="1.1" xmlns:xlink="http://www.w3.org/1999/xlink" width="12px" height="12px" viewBox="358 696.5  12 12" xmlns="http://www.w3.org/2000/svg">
  <path d="M 364 696.5  C 367.36 696.5  370 699.14  370 702.5  C 370 705.86  367.36 708.5  364 708.5  C 360.64 708.5  358 705.86  358 702.5  C 358 699.14  360.64 696.5  364 696.5  Z " fill-rule="nonzero" fill="#f0f0f0" stroke="none" />
  <path d="M 364 697  C 367.08 697  369.5 699.42  369.5 702.5  C 369.5 705.58  367.08 708  364 708  C 360.92 708  358.5 705.58  358.5 702.5  C 358.5 699.42  360.92 697  364 697  Z " stroke-width="1" stroke="#333333" fill="none" />
  <path d="M 364 705.5  C 362.32 705.5  361 704.18  361 702.5  C 361 700.82  362.32 699.5  364 699.5  C 365.68 699.5  367 700.82  367 702.5  C 367 704.18  365.68 705.5  364 705.5  " fill-rule="nonzero" fill="#333333" stroke="none" />
</svg>