<?xml version="1.0" encoding="utf-8"?>
<svg version="1.1" xmlns:xlink="http://www.w3.org/1999/xlink" width="12px" height="12px" viewBox="489 696.5  12 12" xmlns="http://www.w3.org/2000/svg">
  <path d="M 495 696.5  C 498.36 696.5  501 699.14  501 702.5  C 501 705.86  498.36 708.5  495 708.5  C 491.64 708.5  489 705.86  489 702.5  C 489 699.14  491.64 696.5  495 696.5  Z " fill-rule="nonzero" fill="#ffffff" stroke="none" />
  <path d="M 495 697  C 498.08 697  500.5 699.42  500.5 702.5  C 500.5 705.58  498.08 708  495 708  C 491.92 708  489.5 705.58  489.5 702.5  C 489.5 699.42  491.92 697  495 697  Z " stroke-width="1" stroke="#797979" fill="none" />
  <path d="M 495 705.5  C 493.32 705.5  492 704.18  492 702.5  C 492 700.82  493.32 699.5  495 699.5  C 496.68 699.5  498 700.82  498 702.5  C 498 704.18  496.68 705.5  495 705.5  " fill-rule="nonzero" fill="#797979" stroke="none" />
</svg>