<?xml version="1.0" encoding="utf-8"?>
<svg version="1.1" xmlns:xlink="http://www.w3.org/1999/xlink" width="12px" height="12px" viewBox="880 451.5  12 12" xmlns="http://www.w3.org/2000/svg">
  <path d="M 886 451.5  C 889.36 451.5  892 454.14  892 457.5  C 892 460.86  889.36 463.5  886 463.5  C 882.64 463.5  880 460.86  880 457.5  C 880 454.14  882.64 451.5  886 451.5  Z " fill-rule="nonzero" fill="#ffffff" stroke="none" />
  <path d="M 886 452  C 889.08 452  891.5 454.42  891.5 457.5  C 891.5 460.58  889.08 463  886 463  C 882.92 463  880.5 460.58  880.5 457.5  C 880.5 454.42  882.92 452  886 452  Z " stroke-width="1" stroke="#8080ff" fill="none" />
  <path d="M 886 460.5  C 884.32 460.5  883 459.18  883 457.5  C 883 455.82  884.32 454.5  886 454.5  C 887.68 454.5  889 455.82  889 457.5  C 889 459.18  887.68 460.5  886 460.5  " fill-rule="nonzero" fill="#8080ff" stroke="none" />
</svg>