<?xml version="1.0" encoding="utf-8"?>
<svg version="1.1" xmlns:xlink="http://www.w3.org/1999/xlink" width="12px" height="12px" viewBox="426 696.5  12 12" xmlns="http://www.w3.org/2000/svg">
  <path d="M 432 696.5  C 435.36 696.5  438 699.14  438 702.5  C 438 705.86  435.36 708.5  432 708.5  C 428.64 708.5  426 705.86  426 702.5  C 426 699.14  428.64 696.5  432 696.5  Z " fill-rule="nonzero" fill="#f0f0f0" stroke="none" />
  <path d="M 432 697  C 435.08 697  437.5 699.42  437.5 702.5  C 437.5 705.58  435.08 708  432 708  C 428.92 708  426.5 705.58  426.5 702.5  C 426.5 699.42  428.92 697  432 697  Z " stroke-width="1" stroke="#797979" fill="none" />
  <path d="M 432 705.5  C 430.32 705.5  429 704.18  429 702.5  C 429 700.82  430.32 699.5  432 699.5  C 433.68 699.5  435 700.82  435 702.5  C 435 704.18  433.68 705.5  432 705.5  " fill-rule="nonzero" fill="#797979" stroke="none" />
</svg>