<?xml version="1.0" encoding="utf-8"?>
<svg version="1.1" xmlns:xlink="http://www.w3.org/1999/xlink" width="12px" height="12px" viewBox="321 1066.5  12 12" xmlns="http://www.w3.org/2000/svg">
  <path d="M 327 1066.5  C 330.36 1066.5  333 1069.14  333 1072.5  C 333 1075.86  330.36 1078.5  327 1078.5  C 323.64 1078.5  321 1075.86  321 1072.5  C 321 1069.14  323.64 1066.5  327 1066.5  Z " fill-rule="nonzero" fill="#ffffff" stroke="none" />
  <path d="M 327 1067  C 330.08 1067  332.5 1069.42  332.5 1072.5  C 332.5 1075.58  330.08 1078  327 1078  C 323.92 1078  321.5 1075.58  321.5 1072.5  C 321.5 1069.42  323.92 1067  327 1067  Z " stroke-width="1" stroke="#797979" fill="none" />
  <path d="M 327 1075.5  C 325.32 1075.5  324 1074.18  324 1072.5  C 324 1070.82  325.32 1069.5  327 1069.5  C 328.68 1069.5  330 1070.82  330 1072.5  C 330 1074.18  328.68 1075.5  327 1075.5  " fill-rule="nonzero" fill="#797979" stroke="none" />
</svg>