<?xml version="1.0" encoding="utf-8"?>
<svg version="1.1" xmlns:xlink="http://www.w3.org/1999/xlink" width="12px" height="12px" viewBox="371 1066.5  12 12" xmlns="http://www.w3.org/2000/svg">
  <path d="M 377 1066.5  C 380.36 1066.5  383 1069.14  383 1072.5  C 383 1075.86  380.36 1078.5  377 1078.5  C 373.64 1078.5  371 1075.86  371 1072.5  C 371 1069.14  373.64 1066.5  377 1066.5  Z " fill-rule="nonzero" fill="#f0f0f0" stroke="none" />
  <path d="M 377 1067  C 380.08 1067  382.5 1069.42  382.5 1072.5  C 382.5 1075.58  380.08 1078  377 1078  C 373.92 1078  371.5 1075.58  371.5 1072.5  C 371.5 1069.42  373.92 1067  377 1067  Z " stroke-width="1" stroke="#333333" fill="none" />
  <path d="M 377 1075.5  C 375.32 1075.5  374 1074.18  374 1072.5  C 374 1070.82  375.32 1069.5  377 1069.5  C 378.68 1069.5  380 1070.82  380 1072.5  C 380 1074.18  378.68 1075.5  377 1075.5  " fill-rule="nonzero" fill="#333333" stroke="none" />
</svg>