<?xml version="1.0" encoding="utf-8"?>
<svg version="1.1" xmlns:xlink="http://www.w3.org/1999/xlink" width="12px" height="12px" viewBox="592 446.5  12 12" xmlns="http://www.w3.org/2000/svg">
  <path d="M 598 446.5  C 601.36 446.5  604 449.14  604 452.5  C 604 455.86  601.36 458.5  598 458.5  C 594.64 458.5  592 455.86  592 452.5  C 592 449.14  594.64 446.5  598 446.5  Z " fill-rule="nonzero" fill="#ffffff" stroke="none" />
  <path d="M 598 447  C 601.08 447  603.5 449.42  603.5 452.5  C 603.5 455.58  601.08 458  598 458  C 594.92 458  592.5 455.58  592.5 452.5  C 592.5 449.42  594.92 447  598 447  Z " stroke-width="1" stroke="#797979" fill="none" />
  <path d="M 598 455.5  C 596.32 455.5  595 454.18  595 452.5  C 595 450.82  596.32 449.5  598 449.5  C 599.68 449.5  601 450.82  601 452.5  C 601 454.18  599.68 455.5  598 455.5  " fill-rule="nonzero" fill="#797979" stroke="none" />
</svg>