<?xml version="1.0" encoding="utf-8"?>
<svg version="1.1" xmlns:xlink="http://www.w3.org/1999/xlink" width="12px" height="12px" viewBox="688 477.5  12 12" xmlns="http://www.w3.org/2000/svg">
  <path d="M 694 477.5  C 697.36 477.5  700 480.14  700 483.5  C 700 486.86  697.36 489.5  694 489.5  C 690.64 489.5  688 486.86  688 483.5  C 688 480.14  690.64 477.5  694 477.5  Z " fill-rule="nonzero" fill="#ffffff" stroke="none" />
  <path d="M 694 478  C 697.08 478  699.5 480.42  699.5 483.5  C 699.5 486.58  697.08 489  694 489  C 690.92 489  688.5 486.58  688.5 483.5  C 688.5 480.42  690.92 478  694 478  Z " stroke-width="1" stroke="#797979" fill="none" />
  <path d="M 694 486.5  C 692.32 486.5  691 485.18  691 483.5  C 691 481.82  692.32 480.5  694 480.5  C 695.68 480.5  697 481.82  697 483.5  C 697 485.18  695.68 486.5  694 486.5  " fill-rule="nonzero" fill="#797979" stroke="none" />
</svg>