<?xml version="1.0" encoding="utf-8"?>
<svg version="1.1" xmlns:xlink="http://www.w3.org/1999/xlink" width="12px" height="12px" viewBox="836 513.5  12 12" xmlns="http://www.w3.org/2000/svg">
  <path d="M 842 513.5  C 845.36 513.5  848 516.14  848 519.5  C 848 522.86  845.36 525.5  842 525.5  C 838.64 525.5  836 522.86  836 519.5  C 836 516.14  838.64 513.5  842 513.5  Z " fill-rule="nonzero" fill="#f0f0f0" stroke="none" />
  <path d="M 842 514  C 845.08 514  847.5 516.42  847.5 519.5  C 847.5 522.58  845.08 525  842 525  C 838.92 525  836.5 522.58  836.5 519.5  C 836.5 516.42  838.92 514  842 514  Z " stroke-width="1" stroke="#797979" fill="none" />
  <path d="M 842 522.5  C 840.32 522.5  839 521.18  839 519.5  C 839 517.82  840.32 516.5  842 516.5  C 843.68 516.5  845 517.82  845 519.5  C 845 521.18  843.68 522.5  842 522.5  " fill-rule="nonzero" fill="#797979" stroke="none" />
</svg>