<?xml version="1.0" encoding="utf-8"?>
<svg version="1.1" xmlns:xlink="http://www.w3.org/1999/xlink" width="12px" height="12px" viewBox="888 513.5  12 12" xmlns="http://www.w3.org/2000/svg">
  <path d="M 894 513.5  C 897.36 513.5  900 516.14  900 519.5  C 900 522.86  897.36 525.5  894 525.5  C 890.64 525.5  888 522.86  888 519.5  C 888 516.14  890.64 513.5  894 513.5  Z " fill-rule="nonzero" fill="#ffffff" stroke="none" />
  <path d="M 894 514  C 897.08 514  899.5 516.42  899.5 519.5  C 899.5 522.58  897.08 525  894 525  C 890.92 525  888.5 522.58  888.5 519.5  C 888.5 516.42  890.92 514  894 514  Z " stroke-width="1" stroke="#797979" fill="none" />
  <path d="M 894 522.5  C 892.32 522.5  891 521.18  891 519.5  C 891 517.82  892.32 516.5  894 516.5  C 895.68 516.5  897 517.82  897 519.5  C 897 521.18  895.68 522.5  894 522.5  " fill-rule="nonzero" fill="#797979" stroke="none" />
</svg>