<?xml version="1.0" encoding="utf-8"?>
<svg version="1.1" xmlns:xlink="http://www.w3.org/1999/xlink" width="12px" height="12px" viewBox="438 1339.5  12 12" xmlns="http://www.w3.org/2000/svg">
  <path d="M 444 1339.5  C 447.36 1339.5  450 1342.14  450 1345.5  C 450 1348.86  447.36 1351.5  444 1351.5  C 440.64 1351.5  438 1348.86  438 1345.5  C 438 1342.14  440.64 1339.5  444 1339.5  Z " fill-rule="nonzero" fill="#f0f0f0" stroke="none" />
  <path d="M 444 1340  C 447.08 1340  449.5 1342.42  449.5 1345.5  C 449.5 1348.58  447.08 1351  444 1351  C 440.92 1351  438.5 1348.58  438.5 1345.5  C 438.5 1342.42  440.92 1340  444 1340  Z " stroke-width="1" stroke="#8080ff" fill="none" />
  <path d="M 444 1348.5  C 442.32 1348.5  441 1347.18  441 1345.5  C 441 1343.82  442.32 1342.5  444 1342.5  C 445.68 1342.5  447 1343.82  447 1345.5  C 447 1347.18  445.68 1348.5  444 1348.5  " fill-rule="nonzero" fill="#8080ff" stroke="none" />
</svg>