<?xml version="1.0" encoding="utf-8"?>
<svg version="1.1" xmlns:xlink="http://www.w3.org/1999/xlink" width="12px" height="12px" viewBox="313 446.5  12 12" xmlns="http://www.w3.org/2000/svg">
  <path d="M 319 446.5  C 322.36 446.5  325 449.14  325 452.5  C 325 455.86  322.36 458.5  319 458.5  C 315.64 458.5  313 455.86  313 452.5  C 313 449.14  315.64 446.5  319 446.5  Z " fill-rule="nonzero" fill="#f0f0f0" stroke="none" />
  <path d="M 319 447  C 322.08 447  324.5 449.42  324.5 452.5  C 324.5 455.58  322.08 458  319 458  C 315.92 458  313.5 455.58  313.5 452.5  C 313.5 449.42  315.92 447  319 447  Z " stroke-width="1" stroke="#797979" fill="none" />
  <path d="M 319 455.5  C 317.32 455.5  316 454.18  316 452.5  C 316 450.82  317.32 449.5  319 449.5  C 320.68 449.5  322 450.82  322 452.5  C 322 454.18  320.68 455.5  319 455.5  " fill-rule="nonzero" fill="#797979" stroke="none" />
</svg>