<?xml version="1.0" encoding="utf-8"?>
<svg version="1.1" xmlns:xlink="http://www.w3.org/1999/xlink" width="12px" height="12px" viewBox="394 672.5  12 12" xmlns="http://www.w3.org/2000/svg">
  <path d="M 400 672.5  C 403.36 672.5  406 675.14  406 678.5  C 406 681.86  403.36 684.5  400 684.5  C 396.64 684.5  394 681.86  394 678.5  C 394 675.14  396.64 672.5  400 672.5  Z " fill-rule="nonzero" fill="#ffffff" stroke="none" />
  <path d="M 400 673  C 403.08 673  405.5 675.42  405.5 678.5  C 405.5 681.58  403.08 684  400 684  C 396.92 684  394.5 681.58  394.5 678.5  C 394.5 675.42  396.92 673  400 673  Z " stroke-width="1" stroke="#333333" fill="none" />
  <path d="M 400 681.5  C 398.32 681.5  397 680.18  397 678.5  C 397 676.82  398.32 675.5  400 675.5  C 401.68 675.5  403 676.82  403 678.5  C 403 680.18  401.68 681.5  400 681.5  " fill-rule="nonzero" fill="#333333" stroke="none" />
</svg>