<?xml version="1.0" encoding="utf-8"?>
<svg version="1.1" xmlns:xlink="http://www.w3.org/1999/xlink" width="12px" height="12px" viewBox="232 475.5  12 12" xmlns="http://www.w3.org/2000/svg">
  <path d="M 238 475.5  C 241.36 475.5  244 478.14  244 481.5  C 244 484.86  241.36 487.5  238 487.5  C 234.64 487.5  232 484.86  232 481.5  C 232 478.14  234.64 475.5  238 475.5  Z " fill-rule="nonzero" fill="#f0f0f0" stroke="none" />
  <path d="M 238 476  C 241.08 476  243.5 478.42  243.5 481.5  C 243.5 484.58  241.08 487  238 487  C 234.92 487  232.5 484.58  232.5 481.5  C 232.5 478.42  234.92 476  238 476  Z " stroke-width="1" stroke="#797979" fill="none" />
  <path d="M 238 484.5  C 236.32 484.5  235 483.18  235 481.5  C 235 479.82  236.32 478.5  238 478.5  C 239.68 478.5  241 479.82  241 481.5  C 241 483.18  239.68 484.5  238 484.5  " fill-rule="nonzero" fill="#797979" stroke="none" />
</svg>