<?xml version="1.0" encoding="utf-8"?>
<svg version="1.1" xmlns:xlink="http://www.w3.org/1999/xlink" width="12px" height="12px" viewBox="475 602.5  12 12" xmlns="http://www.w3.org/2000/svg">
  <path d="M 481 602.5  C 484.36 602.5  487 605.14  487 608.5  C 487 611.86  484.36 614.5  481 614.5  C 477.64 614.5  475 611.86  475 608.5  C 475 605.14  477.64 602.5  481 602.5  Z " fill-rule="nonzero" fill="#ffffff" stroke="none" />
  <path d="M 481 603  C 484.08 603  486.5 605.42  486.5 608.5  C 486.5 611.58  484.08 614  481 614  C 477.92 614  475.5 611.58  475.5 608.5  C 475.5 605.42  477.92 603  481 603  Z " stroke-width="1" stroke="#797979" fill="none" />
  <path d="M 481 611.5  C 479.32 611.5  478 610.18  478 608.5  C 478 606.82  479.32 605.5  481 605.5  C 482.68 605.5  484 606.82  484 608.5  C 484 610.18  482.68 611.5  481 611.5  " fill-rule="nonzero" fill="#797979" stroke="none" />
</svg>