<?xml version="1.0" encoding="utf-8"?>
<svg version="1.1" xmlns:xlink="http://www.w3.org/1999/xlink" width="12px" height="12px" viewBox="784 570.5  12 12" xmlns="http://www.w3.org/2000/svg">
  <path d="M 790 570.5  C 793.36 570.5  796 573.14  796 576.5  C 796 579.86  793.36 582.5  790 582.5  C 786.64 582.5  784 579.86  784 576.5  C 784 573.14  786.64 570.5  790 570.5  Z " fill-rule="nonzero" fill="#f0f0f0" stroke="none" />
  <path d="M 790 571  C 793.08 571  795.5 573.42  795.5 576.5  C 795.5 579.58  793.08 582  790 582  C 786.92 582  784.5 579.58  784.5 576.5  C 784.5 573.42  786.92 571  790 571  Z " stroke-width="1" stroke="#797979" fill="none" />
  <path d="M 790 579.5  C 788.32 579.5  787 578.18  787 576.5  C 787 574.82  788.32 573.5  790 573.5  C 791.68 573.5  793 574.82  793 576.5  C 793 578.18  791.68 579.5  790 579.5  " fill-rule="nonzero" fill="#797979" stroke="none" />
</svg>