<?xml version="1.0" encoding="utf-8"?>
<svg version="1.1" xmlns:xlink="http://www.w3.org/1999/xlink" width="12px" height="12px" viewBox="784 637.5  12 12" xmlns="http://www.w3.org/2000/svg">
  <path d="M 790 637.5  C 793.36 637.5  796 640.14  796 643.5  C 796 646.86  793.36 649.5  790 649.5  C 786.64 649.5  784 646.86  784 643.5  C 784 640.14  786.64 637.5  790 637.5  Z " fill-rule="nonzero" fill="#ffffff" stroke="none" />
  <path d="M 790 638  C 793.08 638  795.5 640.42  795.5 643.5  C 795.5 646.58  793.08 649  790 649  C 786.92 649  784.5 646.58  784.5 643.5  C 784.5 640.42  786.92 638  790 638  Z " stroke-width="1" stroke="#797979" fill="none" />
  <path d="M 790 646.5  C 788.32 646.5  787 645.18  787 643.5  C 787 641.82  788.32 640.5  790 640.5  C 791.68 640.5  793 641.82  793 643.5  C 793 645.18  791.68 646.5  790 646.5  " fill-rule="nonzero" fill="#797979" stroke="none" />
</svg>