<?xml version="1.0" encoding="utf-8"?>
<svg version="1.1" xmlns:xlink="http://www.w3.org/1999/xlink" width="12px" height="12px" viewBox="836 601.5  12 12" xmlns="http://www.w3.org/2000/svg">
  <path d="M 842 601.5  C 845.36 601.5  848 604.14  848 607.5  C 848 610.86  845.36 613.5  842 613.5  C 838.64 613.5  836 610.86  836 607.5  C 836 604.14  838.64 601.5  842 601.5  Z " fill-rule="nonzero" fill="#f0f0f0" stroke="none" />
  <path d="M 842 602  C 845.08 602  847.5 604.42  847.5 607.5  C 847.5 610.58  845.08 613  842 613  C 838.92 613  836.5 610.58  836.5 607.5  C 836.5 604.42  838.92 602  842 602  Z " stroke-width="1" stroke="#8080ff" fill="none" />
  <path d="M 842 610.5  C 840.32 610.5  839 609.18  839 607.5  C 839 605.82  840.32 604.5  842 604.5  C 843.68 604.5  845 605.82  845 607.5  C 845 609.18  843.68 610.5  842 610.5  " fill-rule="nonzero" fill="#8080ff" stroke="none" />
</svg>