<?xml version="1.0" encoding="utf-8"?>
<svg version="1.1" xmlns:xlink="http://www.w3.org/1999/xlink" width="12px" height="12px" viewBox="333 590.5  12 12" xmlns="http://www.w3.org/2000/svg">
  <path d="M 339 590.5  C 342.36 590.5  345 593.14  345 596.5  C 345 599.86  342.36 602.5  339 602.5  C 335.64 602.5  333 599.86  333 596.5  C 333 593.14  335.64 590.5  339 590.5  Z " fill-rule="nonzero" fill="#ffffff" stroke="none" />
  <path d="M 339 591  C 342.08 591  344.5 593.42  344.5 596.5  C 344.5 599.58  342.08 602  339 602  C 335.92 602  333.5 599.58  333.5 596.5  C 333.5 593.42  335.92 591  339 591  Z " stroke-width="1" stroke="#333333" fill="none" />
  <path d="M 339 599.5  C 337.32 599.5  336 598.18  336 596.5  C 336 594.82  337.32 593.5  339 593.5  C 340.68 593.5  342 594.82  342 596.5  C 342 598.18  340.68 599.5  339 599.5  " fill-rule="nonzero" fill="#333333" stroke="none" />
</svg>