<?xml version="1.0" encoding="utf-8"?>
<svg version="1.1" xmlns:xlink="http://www.w3.org/1999/xlink" width="12px" height="12px" viewBox="402 590.5  12 12" xmlns="http://www.w3.org/2000/svg">
  <path d="M 408 590.5  C 411.36 590.5  414 593.14  414 596.5  C 414 599.86  411.36 602.5  408 602.5  C 404.64 602.5  402 599.86  402 596.5  C 402 593.14  404.64 590.5  408 590.5  Z " fill-rule="nonzero" fill="#ffffff" stroke="none" />
  <path d="M 408 591  C 411.08 591  413.5 593.42  413.5 596.5  C 413.5 599.58  411.08 602  408 602  C 404.92 602  402.5 599.58  402.5 596.5  C 402.5 593.42  404.92 591  408 591  Z " stroke-width="1" stroke="#797979" fill="none" />
  <path d="M 408 599.5  C 406.32 599.5  405 598.18  405 596.5  C 405 594.82  406.32 593.5  408 593.5  C 409.68 593.5  411 594.82  411 596.5  C 411 598.18  409.68 599.5  408 599.5  " fill-rule="nonzero" fill="#797979" stroke="none" />
</svg>