<?xml version="1.0" encoding="utf-8"?>
<svg version="1.1" xmlns:xlink="http://www.w3.org/1999/xlink" width="12px" height="12px" viewBox="259 590.5  12 12" xmlns="http://www.w3.org/2000/svg">
  <path d="M 265 590.5  C 268.36 590.5  271 593.14  271 596.5  C 271 599.86  268.36 602.5  265 602.5  C 261.64 602.5  259 599.86  259 596.5  C 259 593.14  261.64 590.5  265 590.5  Z " fill-rule="nonzero" fill="#ffffff" stroke="none" />
  <path d="M 265 591  C 268.08 591  270.5 593.42  270.5 596.5  C 270.5 599.58  268.08 602  265 602  C 261.92 602  259.5 599.58  259.5 596.5  C 259.5 593.42  261.92 591  265 591  Z " stroke-width="1" stroke="#797979" fill="none" />
  <path d="M 265 599.5  C 263.32 599.5  262 598.18  262 596.5  C 262 594.82  263.32 593.5  265 593.5  C 266.68 593.5  268 594.82  268 596.5  C 268 598.18  266.68 599.5  265 599.5  " fill-rule="nonzero" fill="#797979" stroke="none" />
</svg>