<?xml version="1.0" encoding="utf-8"?>
<svg version="1.1" xmlns:xlink="http://www.w3.org/1999/xlink" width="16px" height="16px" xmlns="http://www.w3.org/2000/svg">
  <g transform="matrix(1 0 0 1 -1241 -284 )">
    <path d="M 1247.56715935768 290.027864045  L 1249 285.61803398875  L 1250.43284064232 290.027864045  L 1255.06961036177 290.027864045  L 1251.31838485973 292.753288904374  L 1252.75122550204 297.163118960625  L 1249 294.437694101251  L 1245.24877449796 297.163118960625  L 1246.68161514027 292.753288904374  L 1242.93038963823 290.027864045  L 1247.56715935768 290.027864045  Z " fill-rule="nonzero" fill="#d9001b" stroke="none" />
    <path d="M 1247.20388809368 289.527864045  L 1249 284  L 1250.79611190632 289.527864045  L 1256.60845213036 289.527864045  L 1251.90617011202 292.944271909999  L 1253.70228201834 298.472135955  L 1249 295.055728090001  L 1244.29771798166 298.472135955  L 1246.09382988798 292.944271909999  L 1241.39154786964 289.527864045  L 1247.20388809368 289.527864045  Z M 1249 287.2360679775  L 1247.93043062169 290.527864045  L 1244.46923140681 290.527864045  L 1247.26940039256 292.562305898749  L 1246.19983101425 295.85410196625  L 1249 293.819660112501  L 1251.80016898575 295.85410196625  L 1250.73059960744 292.562305898749  L 1253.53076859319 290.527864045  L 1250.06956937831 290.527864045  L 1249 287.2360679775  Z " fill-rule="nonzero" fill="#d9001b" stroke="none" />
  </g>
</svg>