<?xml version="1.0" encoding="utf-8"?>
<svg version="1.1" xmlns:xlink="http://www.w3.org/1999/xlink" width="12px" height="12px" viewBox="592 537.5  12 12" xmlns="http://www.w3.org/2000/svg">
  <path d="M 598 537.5  C 601.36 537.5  604 540.14  604 543.5  C 604 546.86  601.36 549.5  598 549.5  C 594.64 549.5  592 546.86  592 543.5  C 592 540.14  594.64 537.5  598 537.5  Z " fill-rule="nonzero" fill="#f0f0f0" stroke="none" />
  <path d="M 598 538  C 601.08 538  603.5 540.42  603.5 543.5  C 603.5 546.58  601.08 549  598 549  C 594.92 549  592.5 546.58  592.5 543.5  C 592.5 540.42  594.92 538  598 538  Z " stroke-width="1" stroke="#797979" fill="none" />
  <path d="M 598 546.5  C 596.32 546.5  595 545.18  595 543.5  C 595 541.82  596.32 540.5  598 540.5  C 599.68 540.5  601 541.82  601 543.5  C 601 545.18  599.68 546.5  598 546.5  " fill-rule="nonzero" fill="#797979" stroke="none" />
</svg>