<?xml version="1.0" encoding="utf-8"?>
<svg version="1.1" xmlns:xlink="http://www.w3.org/1999/xlink" width="12px" height="12px" viewBox="836 446.5  12 12" xmlns="http://www.w3.org/2000/svg">
  <path d="M 842 446.5  C 845.36 446.5  848 449.14  848 452.5  C 848 455.86  845.36 458.5  842 458.5  C 838.64 458.5  836 455.86  836 452.5  C 836 449.14  838.64 446.5  842 446.5  Z " fill-rule="nonzero" fill="#ffffff" stroke="none" />
  <path d="M 842 447  C 845.08 447  847.5 449.42  847.5 452.5  C 847.5 455.58  845.08 458  842 458  C 838.92 458  836.5 455.58  836.5 452.5  C 836.5 449.42  838.92 447  842 447  Z " stroke-width="1" stroke="#797979" fill="none" />
  <path d="M 842 455.5  C 840.32 455.5  839 454.18  839 452.5  C 839 450.82  840.32 449.5  842 449.5  C 843.68 449.5  845 450.82  845 452.5  C 845 454.18  843.68 455.5  842 455.5  " fill-rule="nonzero" fill="#797979" stroke="none" />
</svg>