<?xml version="1.0" encoding="utf-8"?>
<svg version="1.1" xmlns:xlink="http://www.w3.org/1999/xlink" width="12px" height="12px" viewBox="195 504.5  12 12" xmlns="http://www.w3.org/2000/svg">
  <path d="M 201 504.5  C 204.36 504.5  207 507.14  207 510.5  C 207 513.86  204.36 516.5  201 516.5  C 197.64 516.5  195 513.86  195 510.5  C 195 507.14  197.64 504.5  201 504.5  Z " fill-rule="nonzero" fill="#f0f0f0" stroke="none" />
  <path d="M 201 505  C 204.08 505  206.5 507.42  206.5 510.5  C 206.5 513.58  204.08 516  201 516  C 197.92 516  195.5 513.58  195.5 510.5  C 195.5 507.42  197.92 505  201 505  Z " stroke-width="1" stroke="#797979" fill="none" />
  <path d="M 201 513.5  C 199.32 513.5  198 512.18  198 510.5  C 198 508.82  199.32 507.5  201 507.5  C 202.68 507.5  204 508.82  204 510.5  C 204 512.18  202.68 513.5  201 513.5  " fill-rule="nonzero" fill="#797979" stroke="none" />
</svg>