<?xml version="1.0" encoding="utf-8"?>
<svg version="1.1" xmlns:xlink="http://www.w3.org/1999/xlink" width="63px" height="63px" xmlns="http://www.w3.org/2000/svg">
  <g transform="matrix(1 0 0 1 -785 -290 )">
    <path d="M 809.791080632874 312.265964677189  L 816.5 291.61803398875  L 823.208919367126 312.265964677189  L 844.91943849471 312.265964677189  L 827.355259563792 325.027087639997  L 834.064178930918 345.675018328436  L 816.5 332.913895365628  L 798.935821069082 345.675018328436  L 805.644740436208 325.027087639997  L 788.08056150529 312.265964677189  L 809.791080632874 312.265964677189  Z " fill-rule="nonzero" fill="#8080ff" stroke="none" />
    <path d="M 809.427809368872 311.765964677189  L 816.5 290  L 823.572190631128 311.765964677189  L 846.458280263297 311.765964677189  L 827.943044816084 325.218070645622  L 835.015235447213 346.984035322811  L 816.5 333.531929354378  L 797.984764552787 346.984035322811  L 805.056955183916 325.218070645622  L 786.541719736703 311.765964677189  L 809.427809368872 311.765964677189  Z M 816.5 293.2360679775  L 810.154351896877 312.765964677189  L 789.619403273878 312.765964677189  L 806.2325256885 324.836104634372  L 799.886877585377 344.366001334061  L 816.5 332.295861376879  L 833.113122414623 344.366001334061  L 826.7674743115 324.836104634372  L 843.380596726122 312.765964677189  L 822.845648103123 312.765964677189  L 816.5 293.2360679775  Z " fill-rule="nonzero" fill="#797979" stroke="none" />
  </g>
</svg>