<?xml version="1.0" encoding="utf-8"?>
<svg version="1.1" xmlns:xlink="http://www.w3.org/1999/xlink" width="63px" height="63px" xmlns="http://www.w3.org/2000/svg">
  <g transform="matrix(1 0 0 1 -940 -290 )">
    <path d="M 964.791080632874 312.265964677189  L 971.5 291.61803398875  L 978.208919367126 312.265964677189  L 999.91943849471 312.265964677189  L 982.355259563792 325.027087639997  L 989.064178930918 345.675018328436  L 971.5 332.913895365628  L 953.935821069082 345.675018328436  L 960.644740436208 325.027087639997  L 943.08056150529 312.265964677189  L 964.791080632874 312.265964677189  Z " fill-rule="nonzero" fill="#aaaaaa" stroke="none" />
    <path d="M 964.427809368872 311.765964677189  L 971.5 290  L 978.572190631128 311.765964677189  L 1001.4582802633 311.765964677189  L 982.943044816084 325.218070645622  L 990.015235447213 346.984035322811  L 971.5 333.531929354378  L 952.984764552787 346.984035322811  L 960.056955183916 325.218070645622  L 941.541719736703 311.765964677189  L 964.427809368872 311.765964677189  Z M 971.5 293.2360679775  L 965.154351896877 312.765964677189  L 944.619403273878 312.765964677189  L 961.2325256885 324.836104634372  L 954.886877585377 344.366001334061  L 971.5 332.295861376879  L 988.113122414623 344.366001334061  L 981.7674743115 324.836104634372  L 998.380596726122 312.765964677189  L 977.845648103123 312.765964677189  L 971.5 293.2360679775  Z " fill-rule="nonzero" fill="#aaaaaa" stroke="none" />
  </g>
</svg>