<?xml version="1.0" encoding="utf-8"?>
<svg version="1.1" xmlns:xlink="http://www.w3.org/1999/xlink" width="12px" height="12px" viewBox="454 1295.5  12 12" xmlns="http://www.w3.org/2000/svg">
  <path d="M 460 1295.5  C 463.36 1295.5  466 1298.14  466 1301.5  C 466 1304.86  463.36 1307.5  460 1307.5  C 456.64 1307.5  454 1304.86  454 1301.5  C 454 1298.14  456.64 1295.5  460 1295.5  Z " fill-rule="nonzero" fill="#ffffff" stroke="none" />
  <path d="M 460 1296  C 463.08 1296  465.5 1298.42  465.5 1301.5  C 465.5 1304.58  463.08 1307  460 1307  C 456.92 1307  454.5 1304.58  454.5 1301.5  C 454.5 1298.42  456.92 1296  460 1296  Z " stroke-width="1" stroke="#797979" fill="none" />
  <path d="M 460 1304.5  C 458.32 1304.5  457 1303.18  457 1301.5  C 457 1299.82  458.32 1298.5  460 1298.5  C 461.68 1298.5  463 1299.82  463 1301.5  C 463 1303.18  461.68 1304.5  460 1304.5  " fill-rule="nonzero" fill="#797979" stroke="none" />
</svg>