<?xml version="1.0" encoding="utf-8"?>
<svg version="1.1" xmlns:xlink="http://www.w3.org/1999/xlink" width="12px" height="12px" viewBox="362 1295.5  12 12" xmlns="http://www.w3.org/2000/svg">
  <path d="M 368 1295.5  C 371.36 1295.5  374 1298.14  374 1301.5  C 374 1304.86  371.36 1307.5  368 1307.5  C 364.64 1307.5  362 1304.86  362 1301.5  C 362 1298.14  364.64 1295.5  368 1295.5  Z " fill-rule="nonzero" fill="#f0f0f0" stroke="none" />
  <path d="M 368 1296  C 371.08 1296  373.5 1298.42  373.5 1301.5  C 373.5 1304.58  371.08 1307  368 1307  C 364.92 1307  362.5 1304.58  362.5 1301.5  C 362.5 1298.42  364.92 1296  368 1296  Z " stroke-width="1" stroke="#797979" fill="none" />
  <path d="M 368 1304.5  C 366.32 1304.5  365 1303.18  365 1301.5  C 365 1299.82  366.32 1298.5  368 1298.5  C 369.68 1298.5  371 1299.82  371 1301.5  C 371 1303.18  369.68 1304.5  368 1304.5  " fill-rule="nonzero" fill="#797979" stroke="none" />
</svg>