<?xml version="1.0" encoding="utf-8"?>
<svg version="1.1" xmlns:xlink="http://www.w3.org/1999/xlink" width="12px" height="12px" viewBox="529 601.5  12 12" xmlns="http://www.w3.org/2000/svg">
  <path d="M 535 601.5  C 538.36 601.5  541 604.14  541 607.5  C 541 610.86  538.36 613.5  535 613.5  C 531.64 613.5  529 610.86  529 607.5  C 529 604.14  531.64 601.5  535 601.5  Z " fill-rule="nonzero" fill="#ffffff" stroke="none" />
  <path d="M 535 602  C 538.08 602  540.5 604.42  540.5 607.5  C 540.5 610.58  538.08 613  535 613  C 531.92 613  529.5 610.58  529.5 607.5  C 529.5 604.42  531.92 602  535 602  Z " stroke-width="1" stroke="#333333" fill="none" />
  <path d="M 535 610.5  C 533.32 610.5  532 609.18  532 607.5  C 532 605.82  533.32 604.5  535 604.5  C 536.68 604.5  538 605.82  538 607.5  C 538 609.18  536.68 610.5  535 610.5  " fill-rule="nonzero" fill="#333333" stroke="none" />
</svg>