<?xml version="1.0" encoding="utf-8"?>
<svg version="1.1" xmlns:xlink="http://www.w3.org/1999/xlink" width="12px" height="12px" viewBox="439 681.5  12 12" xmlns="http://www.w3.org/2000/svg">
  <path d="M 445 681.5  C 448.36 681.5  451 684.14  451 687.5  C 451 690.86  448.36 693.5  445 693.5  C 441.64 693.5  439 690.86  439 687.5  C 439 684.14  441.64 681.5  445 681.5  Z " fill-rule="nonzero" fill="#ffffff" stroke="none" />
  <path d="M 445 682  C 448.08 682  450.5 684.42  450.5 687.5  C 450.5 690.58  448.08 693  445 693  C 441.92 693  439.5 690.58  439.5 687.5  C 439.5 684.42  441.92 682  445 682  Z " stroke-width="1" stroke="#797979" fill="none" />
  <path d="M 445 690.5  C 443.32 690.5  442 689.18  442 687.5  C 442 685.82  443.32 684.5  445 684.5  C 446.68 684.5  448 685.82  448 687.5  C 448 689.18  446.68 690.5  445 690.5  " fill-rule="nonzero" fill="#797979" stroke="none" />
</svg>