<?xml version="1.0" encoding="utf-8"?>
<svg version="1.1" xmlns:xlink="http://www.w3.org/1999/xlink" width="12px" height="12px" viewBox="605 654.5  12 12" xmlns="http://www.w3.org/2000/svg">
  <path d="M 611 654.5  C 614.36 654.5  617 657.14  617 660.5  C 617 663.86  614.36 666.5  611 666.5  C 607.64 666.5  605 663.86  605 660.5  C 605 657.14  607.64 654.5  611 654.5  Z " fill-rule="nonzero" fill="#ffffff" stroke="none" />
  <path d="M 611 655  C 614.08 655  616.5 657.42  616.5 660.5  C 616.5 663.58  614.08 666  611 666  C 607.92 666  605.5 663.58  605.5 660.5  C 605.5 657.42  607.92 655  611 655  Z " stroke-width="1" stroke="#797979" fill="none" />
  <path d="M 611 663.5  C 609.32 663.5  608 662.18  608 660.5  C 608 658.82  609.32 657.5  611 657.5  C 612.68 657.5  614 658.82  614 660.5  C 614 662.18  612.68 663.5  611 663.5  " fill-rule="nonzero" fill="#797979" stroke="none" />
</svg>