<?xml version="1.0" encoding="utf-8"?>
<svg version="1.1" xmlns:xlink="http://www.w3.org/1999/xlink" width="12px" height="12px" viewBox="529 760.5  12 12" xmlns="http://www.w3.org/2000/svg">
  <path d="M 535 760.5  C 538.36 760.5  541 763.14  541 766.5  C 541 769.86  538.36 772.5  535 772.5  C 531.64 772.5  529 769.86  529 766.5  C 529 763.14  531.64 760.5  535 760.5  Z " fill-rule="nonzero" fill="#ffffff" stroke="none" />
  <path d="M 535 761  C 538.08 761  540.5 763.42  540.5 766.5  C 540.5 769.58  538.08 772  535 772  C 531.92 772  529.5 769.58  529.5 766.5  C 529.5 763.42  531.92 761  535 761  Z " stroke-width="1" stroke="#797979" fill="none" />
  <path d="M 535 769.5  C 533.32 769.5  532 768.18  532 766.5  C 532 764.82  533.32 763.5  535 763.5  C 536.68 763.5  538 764.82  538 766.5  C 538 768.18  536.68 769.5  535 769.5  " fill-rule="nonzero" fill="#797979" stroke="none" />
</svg>