<?xml version="1.0" encoding="utf-8"?>
<svg version="1.1" xmlns:xlink="http://www.w3.org/1999/xlink" width="12px" height="12px" viewBox="439 919.5  12 12" xmlns="http://www.w3.org/2000/svg">
  <path d="M 445 919.5  C 448.36 919.5  451 922.14  451 925.5  C 451 928.86  448.36 931.5  445 931.5  C 441.64 931.5  439 928.86  439 925.5  C 439 922.14  441.64 919.5  445 919.5  Z " fill-rule="nonzero" fill="#f0f0f0" stroke="none" />
  <path d="M 445 920  C 448.08 920  450.5 922.42  450.5 925.5  C 450.5 928.58  448.08 931  445 931  C 441.92 931  439.5 928.58  439.5 925.5  C 439.5 922.42  441.92 920  445 920  Z " stroke-width="1" stroke="#333333" fill="none" />
  <path d="M 445 928.5  C 443.32 928.5  442 927.18  442 925.5  C 442 923.82  443.32 922.5  445 922.5  C 446.68 922.5  448 923.82  448 925.5  C 448 927.18  446.68 928.5  445 928.5  " fill-rule="nonzero" fill="#333333" stroke="none" />
</svg>