<?xml version="1.0" encoding="utf-8"?>
<svg version="1.1" xmlns:xlink="http://www.w3.org/1999/xlink" width="12px" height="12px" viewBox="342 1084.5  12 12" xmlns="http://www.w3.org/2000/svg">
  <path d="M 348 1084.5  C 351.36 1084.5  354 1087.14  354 1090.5  C 354 1093.86  351.36 1096.5  348 1096.5  C 344.64 1096.5  342 1093.86  342 1090.5  C 342 1087.14  344.64 1084.5  348 1084.5  Z " fill-rule="nonzero" fill="#f0f0f0" stroke="none" />
  <path d="M 348 1085  C 351.08 1085  353.5 1087.42  353.5 1090.5  C 353.5 1093.58  351.08 1096  348 1096  C 344.92 1096  342.5 1093.58  342.5 1090.5  C 342.5 1087.42  344.92 1085  348 1085  Z " stroke-width="1" stroke="#333333" fill="none" />
  <path d="M 348 1093.5  C 346.32 1093.5  345 1092.18  345 1090.5  C 345 1088.82  346.32 1087.5  348 1087.5  C 349.68 1087.5  351 1088.82  351 1090.5  C 351 1092.18  349.68 1093.5  348 1093.5  " fill-rule="nonzero" fill="#333333" stroke="none" />
</svg>