<?xml version="1.0" encoding="utf-8"?>
<svg version="1.1" xmlns:xlink="http://www.w3.org/1999/xlink" width="12px" height="12px" viewBox="413 1185.5  12 12" xmlns="http://www.w3.org/2000/svg">
  <path d="M 419 1185.5  C 422.36 1185.5  425 1188.14  425 1191.5  C 425 1194.86  422.36 1197.5  419 1197.5  C 415.64 1197.5  413 1194.86  413 1191.5  C 413 1188.14  415.64 1185.5  419 1185.5  Z " fill-rule="nonzero" fill="#f0f0f0" stroke="none" />
  <path d="M 419 1186  C 422.08 1186  424.5 1188.42  424.5 1191.5  C 424.5 1194.58  422.08 1197  419 1197  C 415.92 1197  413.5 1194.58  413.5 1191.5  C 413.5 1188.42  415.92 1186  419 1186  Z " stroke-width="1" stroke="#333333" fill="none" />
  <path d="M 419 1194.5  C 417.32 1194.5  416 1193.18  416 1191.5  C 416 1189.82  417.32 1188.5  419 1188.5  C 420.68 1188.5  422 1189.82  422 1191.5  C 422 1193.18  420.68 1194.5  419 1194.5  " fill-rule="nonzero" fill="#333333" stroke="none" />
</svg>