<?xml version="1.0" encoding="utf-8"?>
<svg version="1.1" xmlns:xlink="http://www.w3.org/1999/xlink" width="12px" height="12px" viewBox="558 1217.5  12 12" xmlns="http://www.w3.org/2000/svg">
  <path d="M 564 1217.5  C 567.36 1217.5  570 1220.14  570 1223.5  C 570 1226.86  567.36 1229.5  564 1229.5  C 560.64 1229.5  558 1226.86  558 1223.5  C 558 1220.14  560.64 1217.5  564 1217.5  Z " fill-rule="nonzero" fill="#f0f0f0" stroke="none" />
  <path d="M 564 1218  C 567.08 1218  569.5 1220.42  569.5 1223.5  C 569.5 1226.58  567.08 1229  564 1229  C 560.92 1229  558.5 1226.58  558.5 1223.5  C 558.5 1220.42  560.92 1218  564 1218  Z " stroke-width="1" stroke="#333333" fill="none" />
  <path d="M 564 1226.5  C 562.32 1226.5  561 1225.18  561 1223.5  C 561 1221.82  562.32 1220.5  564 1220.5  C 565.68 1220.5  567 1221.82  567 1223.5  C 567 1225.18  565.68 1226.5  564 1226.5  " fill-rule="nonzero" fill="#333333" stroke="none" />
</svg>