<?xml version="1.0" encoding="utf-8"?>
<svg version="1.1" xmlns:xlink="http://www.w3.org/1999/xlink" width="12px" height="12px" viewBox="647 446.5  12 12" xmlns="http://www.w3.org/2000/svg">
  <path d="M 653 446.5  C 656.36 446.5  659 449.14  659 452.5  C 659 455.86  656.36 458.5  653 458.5  C 649.64 458.5  647 455.86  647 452.5  C 647 449.14  649.64 446.5  653 446.5  Z " fill-rule="nonzero" fill="#f0f0f0" stroke="none" />
  <path d="M 653 447  C 656.08 447  658.5 449.42  658.5 452.5  C 658.5 455.58  656.08 458  653 458  C 649.92 458  647.5 455.58  647.5 452.5  C 647.5 449.42  649.92 447  653 447  Z " stroke-width="1" stroke="#797979" fill="none" />
  <path d="M 653 455.5  C 651.32 455.5  650 454.18  650 452.5  C 650 450.82  651.32 449.5  653 449.5  C 654.68 449.5  656 450.82  656 452.5  C 656 454.18  654.68 455.5  653 455.5  " fill-rule="nonzero" fill="#797979" stroke="none" />
</svg>