<?xml version="1.0" encoding="utf-8"?>
<svg version="1.1" xmlns:xlink="http://www.w3.org/1999/xlink" width="12px" height="12px" viewBox="889 446.5  12 12" xmlns="http://www.w3.org/2000/svg">
  <path d="M 895 446.5  C 898.36 446.5  901 449.14  901 452.5  C 901 455.86  898.36 458.5  895 458.5  C 891.64 458.5  889 455.86  889 452.5  C 889 449.14  891.64 446.5  895 446.5  Z " fill-rule="nonzero" fill="#ffffff" stroke="none" />
  <path d="M 895 447  C 898.08 447  900.5 449.42  900.5 452.5  C 900.5 455.58  898.08 458  895 458  C 891.92 458  889.5 455.58  889.5 452.5  C 889.5 449.42  891.92 447  895 447  Z " stroke-width="1" stroke="#797979" fill="none" />
  <path d="M 895 455.5  C 893.32 455.5  892 454.18  892 452.5  C 892 450.82  893.32 449.5  895 449.5  C 896.68 449.5  898 450.82  898 452.5  C 898 454.18  896.68 455.5  895 455.5  " fill-rule="nonzero" fill="#797979" stroke="none" />
</svg>