<?xml version="1.0" encoding="utf-8"?>
<svg version="1.1" xmlns:xlink="http://www.w3.org/1999/xlink" width="12px" height="12px" viewBox="346 1369.5  12 12" xmlns="http://www.w3.org/2000/svg">
  <path d="M 352 1369.5  C 355.36 1369.5  358 1372.14  358 1375.5  C 358 1378.86  355.36 1381.5  352 1381.5  C 348.64 1381.5  346 1378.86  346 1375.5  C 346 1372.14  348.64 1369.5  352 1369.5  Z " fill-rule="nonzero" fill="#f0f0f0" stroke="none" />
  <path d="M 352 1370  C 355.08 1370  357.5 1372.42  357.5 1375.5  C 357.5 1378.58  355.08 1381  352 1381  C 348.92 1381  346.5 1378.58  346.5 1375.5  C 346.5 1372.42  348.92 1370  352 1370  Z " stroke-width="1" stroke="#797979" fill="none" />
  <path d="M 352 1378.5  C 350.32 1378.5  349 1377.18  349 1375.5  C 349 1373.82  350.32 1372.5  352 1372.5  C 353.68 1372.5  355 1373.82  355 1375.5  C 355 1377.18  353.68 1378.5  352 1378.5  " fill-rule="nonzero" fill="#797979" stroke="none" />
</svg>