<?xml version="1.0" encoding="utf-8"?>
<svg version="1.1" xmlns:xlink="http://www.w3.org/1999/xlink" width="12px" height="12px" viewBox="438 1369.5  12 12" xmlns="http://www.w3.org/2000/svg">
  <path d="M 444 1369.5  C 447.36 1369.5  450 1372.14  450 1375.5  C 450 1378.86  447.36 1381.5  444 1381.5  C 440.64 1381.5  438 1378.86  438 1375.5  C 438 1372.14  440.64 1369.5  444 1369.5  Z " fill-rule="nonzero" fill="#f0f0f0" stroke="none" />
  <path d="M 444 1370  C 447.08 1370  449.5 1372.42  449.5 1375.5  C 449.5 1378.58  447.08 1381  444 1381  C 440.92 1381  438.5 1378.58  438.5 1375.5  C 438.5 1372.42  440.92 1370  444 1370  Z " stroke-width="1" stroke="#797979" fill="none" />
  <path d="M 444 1378.5  C 442.32 1378.5  441 1377.18  441 1375.5  C 441 1373.82  442.32 1372.5  444 1372.5  C 445.68 1372.5  447 1373.82  447 1375.5  C 447 1377.18  445.68 1378.5  444 1378.5  " fill-rule="nonzero" fill="#797979" stroke="none" />
</svg>