<?xml version="1.0" encoding="utf-8"?>
<svg version="1.1" xmlns:xlink="http://www.w3.org/1999/xlink" width="12px" height="12px" viewBox="195 446.5  12 12" xmlns="http://www.w3.org/2000/svg">
  <path d="M 201 446.5  C 204.36 446.5  207 449.14  207 452.5  C 207 455.86  204.36 458.5  201 458.5  C 197.64 458.5  195 455.86  195 452.5  C 195 449.14  197.64 446.5  201 446.5  Z " fill-rule="nonzero" fill="#f0f0f0" stroke="none" />
  <path d="M 201 447  C 204.08 447  206.5 449.42  206.5 452.5  C 206.5 455.58  204.08 458  201 458  C 197.92 458  195.5 455.58  195.5 452.5  C 195.5 449.42  197.92 447  201 447  Z " stroke-width="1" stroke="#797979" fill="none" />
  <path d="M 201 455.5  C 199.32 455.5  198 454.18  198 452.5  C 198 450.82  199.32 449.5  201 449.5  C 202.68 449.5  204 450.82  204 452.5  C 204 454.18  202.68 455.5  201 455.5  " fill-rule="nonzero" fill="#797979" stroke="none" />
</svg>