<?xml version="1.0" encoding="utf-8"?>
<svg version="1.1" xmlns:xlink="http://www.w3.org/1999/xlink" width="12px" height="12px" viewBox="803 397.5  12 12" xmlns="http://www.w3.org/2000/svg">
  <path d="M 809 397.5  C 812.36 397.5  815 400.14  815 403.5  C 815 406.86  812.36 409.5  809 409.5  C 805.64 409.5  803 406.86  803 403.5  C 803 400.14  805.64 397.5  809 397.5  Z " fill-rule="nonzero" fill="#ffffff" stroke="none" />
  <path d="M 809 398  C 812.08 398  814.5 400.42  814.5 403.5  C 814.5 406.58  812.08 409  809 409  C 805.92 409  803.5 406.58  803.5 403.5  C 803.5 400.42  805.92 398  809 398  Z " stroke-width="1" stroke="#797979" fill="none" />
  <path d="M 809 406.5  C 807.32 406.5  806 405.18  806 403.5  C 806 401.82  807.32 400.5  809 400.5  C 810.68 400.5  812 401.82  812 403.5  C 812 405.18  810.68 406.5  809 406.5  " fill-rule="nonzero" fill="#797979" stroke="none" />
</svg>