<?xml version="1.0" encoding="utf-8"?>
<svg version="1.1" xmlns:xlink="http://www.w3.org/1999/xlink" width="12px" height="12px" viewBox="784 361.5  12 12" xmlns="http://www.w3.org/2000/svg">
  <path d="M 790 361.5  C 793.36 361.5  796 364.14  796 367.5  C 796 370.86  793.36 373.5  790 373.5  C 786.64 373.5  784 370.86  784 367.5  C 784 364.14  786.64 361.5  790 361.5  Z " fill-rule="nonzero" fill="#f0f0f0" stroke="none" />
  <path d="M 790 362  C 793.08 362  795.5 364.42  795.5 367.5  C 795.5 370.58  793.08 373  790 373  C 786.92 373  784.5 370.58  784.5 367.5  C 784.5 364.42  786.92 362  790 362  Z " stroke-width="1" stroke="#797979" fill="none" />
  <path d="M 790 370.5  C 788.32 370.5  787 369.18  787 367.5  C 787 365.82  788.32 364.5  790 364.5  C 791.68 364.5  793 365.82  793 367.5  C 793 369.18  791.68 370.5  790 370.5  " fill-rule="nonzero" fill="#797979" stroke="none" />
</svg>