<?xml version="1.0" encoding="utf-8"?>
<svg version="1.1" xmlns:xlink="http://www.w3.org/1999/xlink" width="12px" height="12px" viewBox="734 361.5  12 12" xmlns="http://www.w3.org/2000/svg">
  <path d="M 740 361.5  C 743.36 361.5  746 364.14  746 367.5  C 746 370.86  743.36 373.5  740 373.5  C 736.64 373.5  734 370.86  734 367.5  C 734 364.14  736.64 361.5  740 361.5  Z " fill-rule="nonzero" fill="#ffffff" stroke="none" />
  <path d="M 740 362  C 743.08 362  745.5 364.42  745.5 367.5  C 745.5 370.58  743.08 373  740 373  C 736.92 373  734.5 370.58  734.5 367.5  C 734.5 364.42  736.92 362  740 362  Z " stroke-width="1" stroke="#797979" fill="none" />
  <path d="M 740 370.5  C 738.32 370.5  737 369.18  737 367.5  C 737 365.82  738.32 364.5  740 364.5  C 741.68 364.5  743 365.82  743 367.5  C 743 369.18  741.68 370.5  740 370.5  " fill-rule="nonzero" fill="#797979" stroke="none" />
</svg>