<?xml version="1.0" encoding="utf-8"?>
<svg version="1.1" xmlns:xlink="http://www.w3.org/1999/xlink" width="12px" height="12px" viewBox="883 397.5  12 12" xmlns="http://www.w3.org/2000/svg">
  <path d="M 889 397.5  C 892.36 397.5  895 400.14  895 403.5  C 895 406.86  892.36 409.5  889 409.5  C 885.64 409.5  883 406.86  883 403.5  C 883 400.14  885.64 397.5  889 397.5  Z " fill-rule="nonzero" fill="#f0f0f0" stroke="none" />
  <path d="M 889 398  C 892.08 398  894.5 400.42  894.5 403.5  C 894.5 406.58  892.08 409  889 409  C 885.92 409  883.5 406.58  883.5 403.5  C 883.5 400.42  885.92 398  889 398  Z " stroke-width="1" stroke="#797979" fill="none" />
  <path d="M 889 406.5  C 887.32 406.5  886 405.18  886 403.5  C 886 401.82  887.32 400.5  889 400.5  C 890.68 400.5  892 401.82  892 403.5  C 892 405.18  890.68 406.5  889 406.5  " fill-rule="nonzero" fill="#797979" stroke="none" />
</svg>