<?xml version="1.0" encoding="utf-8"?>
<svg version="1.1" xmlns:xlink="http://www.w3.org/1999/xlink" width="12px" height="12px" viewBox="684 361.5  12 12" xmlns="http://www.w3.org/2000/svg">
  <path d="M 690 361.5  C 693.36 361.5  696 364.14  696 367.5  C 696 370.86  693.36 373.5  690 373.5  C 686.64 373.5  684 370.86  684 367.5  C 684 364.14  686.64 361.5  690 361.5  Z " fill-rule="nonzero" fill="#ffffff" stroke="none" />
  <path d="M 690 362  C 693.08 362  695.5 364.42  695.5 367.5  C 695.5 370.58  693.08 373  690 373  C 686.92 373  684.5 370.58  684.5 367.5  C 684.5 364.42  686.92 362  690 362  Z " stroke-width="1" stroke="#797979" fill="none" />
  <path d="M 690 370.5  C 688.32 370.5  687 369.18  687 367.5  C 687 365.82  688.32 364.5  690 364.5  C 691.68 364.5  693 365.82  693 367.5  C 693 369.18  691.68 370.5  690 370.5  " fill-rule="nonzero" fill="#797979" stroke="none" />
</svg>