<?xml version="1.0" encoding="utf-8"?>
<svg version="1.1" xmlns:xlink="http://www.w3.org/1999/xlink" width="12px" height="12px" viewBox="962 397.5  12 12" xmlns="http://www.w3.org/2000/svg">
  <path d="M 968 397.5  C 971.36 397.5  974 400.14  974 403.5  C 974 406.86  971.36 409.5  968 409.5  C 964.64 409.5  962 406.86  962 403.5  C 962 400.14  964.64 397.5  968 397.5  Z " fill-rule="nonzero" fill="#f0f0f0" stroke="none" />
  <path d="M 968 398  C 971.08 398  973.5 400.42  973.5 403.5  C 973.5 406.58  971.08 409  968 409  C 964.92 409  962.5 406.58  962.5 403.5  C 962.5 400.42  964.92 398  968 398  Z " stroke-width="1" stroke="#797979" fill="none" />
  <path d="M 968 406.5  C 966.32 406.5  965 405.18  965 403.5  C 965 401.82  966.32 400.5  968 400.5  C 969.68 400.5  971 401.82  971 403.5  C 971 405.18  969.68 406.5  968 406.5  " fill-rule="nonzero" fill="#797979" stroke="none" />
</svg>