<?xml version="1.0" encoding="utf-8"?>
<svg version="1.1" xmlns:xlink="http://www.w3.org/1999/xlink" width="12px" height="12px" viewBox="239 805.5  12 12" xmlns="http://www.w3.org/2000/svg">
  <path d="M 245 805.5  C 248.36 805.5  251 808.14  251 811.5  C 251 814.86  248.36 817.5  245 817.5  C 241.64 817.5  239 814.86  239 811.5  C 239 808.14  241.64 805.5  245 805.5  Z " fill-rule="nonzero" fill="#ffffff" stroke="none" />
  <path d="M 245 806  C 248.08 806  250.5 808.42  250.5 811.5  C 250.5 814.58  248.08 817  245 817  C 241.92 817  239.5 814.58  239.5 811.5  C 239.5 808.42  241.92 806  245 806  Z " stroke-width="1" stroke="#797979" fill="none" />
  <path d="M 245 814.5  C 243.32 814.5  242 813.18  242 811.5  C 242 809.82  243.32 808.5  245 808.5  C 246.68 808.5  248 809.82  248 811.5  C 248 813.18  246.68 814.5  245 814.5  " fill-rule="nonzero" fill="#797979" stroke="none" />
</svg>