<?xml version="1.0" encoding="utf-8"?>
<svg version="1.1" xmlns:xlink="http://www.w3.org/1999/xlink" width="12px" height="12px" viewBox="339 805.5  12 12" xmlns="http://www.w3.org/2000/svg">
  <path d="M 345 805.5  C 348.36 805.5  351 808.14  351 811.5  C 351 814.86  348.36 817.5  345 817.5  C 341.64 817.5  339 814.86  339 811.5  C 339 808.14  341.64 805.5  345 805.5  Z " fill-rule="nonzero" fill="#ffffff" stroke="none" />
  <path d="M 345 806  C 348.08 806  350.5 808.42  350.5 811.5  C 350.5 814.58  348.08 817  345 817  C 341.92 817  339.5 814.58  339.5 811.5  C 339.5 808.42  341.92 806  345 806  Z " stroke-width="1" stroke="#797979" fill="none" />
  <path d="M 345 814.5  C 343.32 814.5  342 813.18  342 811.5  C 342 809.82  343.32 808.5  345 808.5  C 346.68 808.5  348 809.82  348 811.5  C 348 813.18  346.68 814.5  345 814.5  " fill-rule="nonzero" fill="#797979" stroke="none" />
</svg>