<?xml version="1.0" encoding="utf-8"?>
<svg version="1.1" xmlns:xlink="http://www.w3.org/1999/xlink" width="12px" height="12px" viewBox="281 805.5  12 12" xmlns="http://www.w3.org/2000/svg">
  <path d="M 287 805.5  C 290.36 805.5  293 808.14  293 811.5  C 293 814.86  290.36 817.5  287 817.5  C 283.64 817.5  281 814.86  281 811.5  C 281 808.14  283.64 805.5  287 805.5  Z " fill-rule="nonzero" fill="#ffffff" stroke="none" />
  <path d="M 287 806  C 290.08 806  292.5 808.42  292.5 811.5  C 292.5 814.58  290.08 817  287 817  C 283.92 817  281.5 814.58  281.5 811.5  C 281.5 808.42  283.92 806  287 806  Z " stroke-width="1" stroke="#797979" fill="none" />
  <path d="M 287 814.5  C 285.32 814.5  284 813.18  284 811.5  C 284 809.82  285.32 808.5  287 808.5  C 288.68 808.5  290 809.82  290 811.5  C 290 813.18  288.68 814.5  287 814.5  " fill-rule="nonzero" fill="#797979" stroke="none" />
</svg>