<?xml version="1.0" encoding="utf-8"?>
<svg version="1.1" xmlns:xlink="http://www.w3.org/1999/xlink" width="12px" height="12px" viewBox="805 435.5  12 12" xmlns="http://www.w3.org/2000/svg">
  <path d="M 811 435.5  C 814.36 435.5  817 438.14  817 441.5  C 817 444.86  814.36 447.5  811 447.5  C 807.64 447.5  805 444.86  805 441.5  C 805 438.14  807.64 435.5  811 435.5  Z " fill-rule="nonzero" fill="#ffffff" stroke="none" />
  <path d="M 811 436  C 814.08 436  816.5 438.42  816.5 441.5  C 816.5 444.58  814.08 447  811 447  C 807.92 447  805.5 444.58  805.5 441.5  C 805.5 438.42  807.92 436  811 436  Z " stroke-width="1" stroke="#797979" fill="none" />
  <path d="M 811 444.5  C 809.32 444.5  808 443.18  808 441.5  C 808 439.82  809.32 438.5  811 438.5  C 812.68 438.5  814 439.82  814 441.5  C 814 443.18  812.68 444.5  811 444.5  " fill-rule="nonzero" fill="#797979" stroke="none" />
</svg>