<?xml version="1.0" encoding="utf-8"?>
<svg version="1.1" xmlns:xlink="http://www.w3.org/1999/xlink" width="12px" height="12px" viewBox="755 435.5  12 12" xmlns="http://www.w3.org/2000/svg">
  <path d="M 761 435.5  C 764.36 435.5  767 438.14  767 441.5  C 767 444.86  764.36 447.5  761 447.5  C 757.64 447.5  755 444.86  755 441.5  C 755 438.14  757.64 435.5  761 435.5  Z " fill-rule="nonzero" fill="#ffffff" stroke="none" />
  <path d="M 761 436  C 764.08 436  766.5 438.42  766.5 441.5  C 766.5 444.58  764.08 447  761 447  C 757.92 447  755.5 444.58  755.5 441.5  C 755.5 438.42  757.92 436  761 436  Z " stroke-width="1" stroke="#797979" fill="none" />
  <path d="M 761 444.5  C 759.32 444.5  758 443.18  758 441.5  C 758 439.82  759.32 438.5  761 438.5  C 762.68 438.5  764 439.82  764 441.5  C 764 443.18  762.68 444.5  761 444.5  " fill-rule="nonzero" fill="#797979" stroke="none" />
</svg>