<?xml version="1.0" encoding="utf-8"?>
<svg version="1.1" xmlns:xlink="http://www.w3.org/1999/xlink" width="12px" height="12px" viewBox="239 829.5  12 12" xmlns="http://www.w3.org/2000/svg">
  <path d="M 245 829.5  C 248.36 829.5  251 832.14  251 835.5  C 251 838.86  248.36 841.5  245 841.5  C 241.64 841.5  239 838.86  239 835.5  C 239 832.14  241.64 829.5  245 829.5  Z " fill-rule="nonzero" fill="#ffffff" stroke="none" />
  <path d="M 245 830  C 248.08 830  250.5 832.42  250.5 835.5  C 250.5 838.58  248.08 841  245 841  C 241.92 841  239.5 838.58  239.5 835.5  C 239.5 832.42  241.92 830  245 830  Z " stroke-width="1" stroke="#797979" fill="none" />
  <path d="M 245 838.5  C 243.32 838.5  242 837.18  242 835.5  C 242 833.82  243.32 832.5  245 832.5  C 246.68 832.5  248 833.82  248 835.5  C 248 837.18  246.68 838.5  245 838.5  " fill-rule="nonzero" fill="#797979" stroke="none" />
</svg>