<?xml version="1.0" encoding="utf-8"?>
<svg version="1.1" xmlns:xlink="http://www.w3.org/1999/xlink" width="12px" height="12px" viewBox="281 829.5  12 12" xmlns="http://www.w3.org/2000/svg">
  <path d="M 287 829.5  C 290.36 829.5  293 832.14  293 835.5  C 293 838.86  290.36 841.5  287 841.5  C 283.64 841.5  281 838.86  281 835.5  C 281 832.14  283.64 829.5  287 829.5  Z " fill-rule="nonzero" fill="#f0f0f0" stroke="none" />
  <path d="M 287 830  C 290.08 830  292.5 832.42  292.5 835.5  C 292.5 838.58  290.08 841  287 841  C 283.92 841  281.5 838.58  281.5 835.5  C 281.5 832.42  283.92 830  287 830  Z " stroke-width="1" stroke="#797979" fill="none" />
  <path d="M 287 838.5  C 285.32 838.5  284 837.18  284 835.5  C 284 833.82  285.32 832.5  287 832.5  C 288.68 832.5  290 833.82  290 835.5  C 290 837.18  288.68 838.5  287 838.5  " fill-rule="nonzero" fill="#797979" stroke="none" />
</svg>