<?xml version="1.0" encoding="utf-8"?>
<svg version="1.1" xmlns:xlink="http://www.w3.org/1999/xlink" width="12px" height="12px" viewBox="339 829.5  12 12" xmlns="http://www.w3.org/2000/svg">
  <path d="M 345 829.5  C 348.36 829.5  351 832.14  351 835.5  C 351 838.86  348.36 841.5  345 841.5  C 341.64 841.5  339 838.86  339 835.5  C 339 832.14  341.64 829.5  345 829.5  Z " fill-rule="nonzero" fill="#f0f0f0" stroke="none" />
  <path d="M 345 830  C 348.08 830  350.5 832.42  350.5 835.5  C 350.5 838.58  348.08 841  345 841  C 341.92 841  339.5 838.58  339.5 835.5  C 339.5 832.42  341.92 830  345 830  Z " stroke-width="1" stroke="#797979" fill="none" />
  <path d="M 345 838.5  C 343.32 838.5  342 837.18  342 835.5  C 342 833.82  343.32 832.5  345 832.5  C 346.68 832.5  348 833.82  348 835.5  C 348 837.18  346.68 838.5  345 838.5  " fill-rule="nonzero" fill="#797979" stroke="none" />
</svg>