<?xml version="1.0" encoding="utf-8"?>
<svg version="1.1" xmlns:xlink="http://www.w3.org/1999/xlink" width="12px" height="12px" viewBox="394 805.5  12 12" xmlns="http://www.w3.org/2000/svg">
  <path d="M 400 805.5  C 403.36 805.5  406 808.14  406 811.5  C 406 814.86  403.36 817.5  400 817.5  C 396.64 817.5  394 814.86  394 811.5  C 394 808.14  396.64 805.5  400 805.5  Z " fill-rule="nonzero" fill="#ffffff" stroke="none" />
  <path d="M 400 806  C 403.08 806  405.5 808.42  405.5 811.5  C 405.5 814.58  403.08 817  400 817  C 396.92 817  394.5 814.58  394.5 811.5  C 394.5 808.42  396.92 806  400 806  Z " stroke-width="1" stroke="#797979" fill="none" />
  <path d="M 400 814.5  C 398.32 814.5  397 813.18  397 811.5  C 397 809.82  398.32 808.5  400 808.5  C 401.68 808.5  403 809.82  403 811.5  C 403 813.18  401.68 814.5  400 814.5  " fill-rule="nonzero" fill="#797979" stroke="none" />
</svg>