<?xml version="1.0" encoding="utf-8"?>
<svg version="1.1" xmlns:xlink="http://www.w3.org/1999/xlink" width="12px" height="12px" viewBox="394 829.5  12 12" xmlns="http://www.w3.org/2000/svg">
  <path d="M 400 829.5  C 403.36 829.5  406 832.14  406 835.5  C 406 838.86  403.36 841.5  400 841.5  C 396.64 841.5  394 838.86  394 835.5  C 394 832.14  396.64 829.5  400 829.5  Z " fill-rule="nonzero" fill="#ffffff" stroke="none" />
  <path d="M 400 830  C 403.08 830  405.5 832.42  405.5 835.5  C 405.5 838.58  403.08 841  400 841  C 396.92 841  394.5 838.58  394.5 835.5  C 394.5 832.42  396.92 830  400 830  Z " stroke-width="1" stroke="#797979" fill="none" />
  <path d="M 400 838.5  C 398.32 838.5  397 837.18  397 835.5  C 397 833.82  398.32 832.5  400 832.5  C 401.68 832.5  403 833.82  403 835.5  C 403 837.18  401.68 838.5  400 838.5  " fill-rule="nonzero" fill="#797979" stroke="none" />
</svg>