<?xml version="1.0" encoding="utf-8"?>
<svg version="1.1" xmlns:xlink="http://www.w3.org/1999/xlink" width="12px" height="12px" viewBox="394 855.5  12 12" xmlns="http://www.w3.org/2000/svg">
  <path d="M 400 855.5  C 403.36 855.5  406 858.14  406 861.5  C 406 864.86  403.36 867.5  400 867.5  C 396.64 867.5  394 864.86  394 861.5  C 394 858.14  396.64 855.5  400 855.5  Z " fill-rule="nonzero" fill="#f0f0f0" stroke="none" />
  <path d="M 400 856  C 403.08 856  405.5 858.42  405.5 861.5  C 405.5 864.58  403.08 867  400 867  C 396.92 867  394.5 864.58  394.5 861.5  C 394.5 858.42  396.92 856  400 856  Z " stroke-width="1" stroke="#797979" fill="none" />
  <path d="M 400 864.5  C 398.32 864.5  397 863.18  397 861.5  C 397 859.82  398.32 858.5  400 858.5  C 401.68 858.5  403 859.82  403 861.5  C 403 863.18  401.68 864.5  400 864.5  " fill-rule="nonzero" fill="#797979" stroke="none" />
</svg>