<?xml version="1.0" encoding="utf-8"?>
<svg version="1.1" xmlns:xlink="http://www.w3.org/1999/xlink" width="12px" height="12px" viewBox="331 970.5  12 12" xmlns="http://www.w3.org/2000/svg">
  <path d="M 337 970.5  C 340.36 970.5  343 973.14  343 976.5  C 343 979.86  340.36 982.5  337 982.5  C 333.64 982.5  331 979.86  331 976.5  C 331 973.14  333.64 970.5  337 970.5  Z " fill-rule="nonzero" fill="#f0f0f0" stroke="none" />
  <path d="M 337 971  C 340.08 971  342.5 973.42  342.5 976.5  C 342.5 979.58  340.08 982  337 982  C 333.92 982  331.5 979.58  331.5 976.5  C 331.5 973.42  333.92 971  337 971  Z " stroke-width="1" stroke="#797979" fill="none" />
  <path d="M 337 979.5  C 335.32 979.5  334 978.18  334 976.5  C 334 974.82  335.32 973.5  337 973.5  C 338.68 973.5  340 974.82  340 976.5  C 340 978.18  338.68 979.5  337 979.5  " fill-rule="nonzero" fill="#797979" stroke="none" />
</svg>