<?xml version="1.0" encoding="utf-8"?>
<svg version="1.1" xmlns:xlink="http://www.w3.org/1999/xlink" width="12px" height="12px" viewBox="281 855.5  12 12" xmlns="http://www.w3.org/2000/svg">
  <path d="M 287 855.5  C 290.36 855.5  293 858.14  293 861.5  C 293 864.86  290.36 867.5  287 867.5  C 283.64 867.5  281 864.86  281 861.5  C 281 858.14  283.64 855.5  287 855.5  Z " fill-rule="nonzero" fill="#ffffff" stroke="none" />
  <path d="M 287 856  C 290.08 856  292.5 858.42  292.5 861.5  C 292.5 864.58  290.08 867  287 867  C 283.92 867  281.5 864.58  281.5 861.5  C 281.5 858.42  283.92 856  287 856  Z " stroke-width="1" stroke="#797979" fill="none" />
  <path d="M 287 864.5  C 285.32 864.5  284 863.18  284 861.5  C 284 859.82  285.32 858.5  287 858.5  C 288.68 858.5  290 859.82  290 861.5  C 290 863.18  288.68 864.5  287 864.5  " fill-rule="nonzero" fill="#797979" stroke="none" />
</svg>