<?xml version="1.0" encoding="utf-8"?>
<svg version="1.1" xmlns:xlink="http://www.w3.org/1999/xlink" width="12px" height="12px" viewBox="239 855.5  12 12" xmlns="http://www.w3.org/2000/svg">
  <path d="M 245 855.5  C 248.36 855.5  251 858.14  251 861.5  C 251 864.86  248.36 867.5  245 867.5  C 241.64 867.5  239 864.86  239 861.5  C 239 858.14  241.64 855.5  245 855.5  Z " fill-rule="nonzero" fill="#ffffff" stroke="none" />
  <path d="M 245 856  C 248.08 856  250.5 858.42  250.5 861.5  C 250.5 864.58  248.08 867  245 867  C 241.92 867  239.5 864.58  239.5 861.5  C 239.5 858.42  241.92 856  245 856  Z " stroke-width="1" stroke="#797979" fill="none" />
  <path d="M 245 864.5  C 243.32 864.5  242 863.18  242 861.5  C 242 859.82  243.32 858.5  245 858.5  C 246.68 858.5  248 859.82  248 861.5  C 248 863.18  246.68 864.5  245 864.5  " fill-rule="nonzero" fill="#797979" stroke="none" />
</svg>