<?xml version="1.0" encoding="utf-8"?>
<svg version="1.1" xmlns:xlink="http://www.w3.org/1999/xlink" width="12px" height="12px" viewBox="339 855.5  12 12" xmlns="http://www.w3.org/2000/svg">
  <path d="M 345 855.5  C 348.36 855.5  351 858.14  351 861.5  C 351 864.86  348.36 867.5  345 867.5  C 341.64 867.5  339 864.86  339 861.5  C 339 858.14  341.64 855.5  345 855.5  Z " fill-rule="nonzero" fill="#f0f0f0" stroke="none" />
  <path d="M 345 856  C 348.08 856  350.5 858.42  350.5 861.5  C 350.5 864.58  348.08 867  345 867  C 341.92 867  339.5 864.58  339.5 861.5  C 339.5 858.42  341.92 856  345 856  Z " stroke-width="1" stroke="#797979" fill="none" />
  <path d="M 345 864.5  C 343.32 864.5  342 863.18  342 861.5  C 342 859.82  343.32 858.5  345 858.5  C 346.68 858.5  348 859.82  348 861.5  C 348 863.18  346.68 864.5  345 864.5  " fill-rule="nonzero" fill="#797979" stroke="none" />
</svg>