<?xml version="1.0" encoding="utf-8"?>
<svg version="1.1" xmlns:xlink="http://www.w3.org/1999/xlink" width="12px" height="12px" viewBox="734 582.5  12 12" xmlns="http://www.w3.org/2000/svg">
  <path d="M 740 582.5  C 743.36 582.5  746 585.14  746 588.5  C 746 591.86  743.36 594.5  740 594.5  C 736.64 594.5  734 591.86  734 588.5  C 734 585.14  736.64 582.5  740 582.5  Z " fill-rule="nonzero" fill="#ffffff" stroke="none" />
  <path d="M 740 583  C 743.08 583  745.5 585.42  745.5 588.5  C 745.5 591.58  743.08 594  740 594  C 736.92 594  734.5 591.58  734.5 588.5  C 734.5 585.42  736.92 583  740 583  Z " stroke-width="1" stroke="#797979" fill="none" />
  <path d="M 740 591.5  C 738.32 591.5  737 590.18  737 588.5  C 737 586.82  738.32 585.5  740 585.5  C 741.68 585.5  743 586.82  743 588.5  C 743 590.18  741.68 591.5  740 591.5  " fill-rule="nonzero" fill="#797979" stroke="none" />
</svg>