<?xml version="1.0" encoding="utf-8"?>
<svg version="1.1" xmlns:xlink="http://www.w3.org/1999/xlink" width="12px" height="12px" viewBox="373 970.5  12 12" xmlns="http://www.w3.org/2000/svg">
  <path d="M 379 970.5  C 382.36 970.5  385 973.14  385 976.5  C 385 979.86  382.36 982.5  379 982.5  C 375.64 982.5  373 979.86  373 976.5  C 373 973.14  375.64 970.5  379 970.5  Z " fill-rule="nonzero" fill="#ffffff" stroke="none" />
  <path d="M 379 971  C 382.08 971  384.5 973.42  384.5 976.5  C 384.5 979.58  382.08 982  379 982  C 375.92 982  373.5 979.58  373.5 976.5  C 373.5 973.42  375.92 971  379 971  Z " stroke-width="1" stroke="#797979" fill="none" />
  <path d="M 379 979.5  C 377.32 979.5  376 978.18  376 976.5  C 376 974.82  377.32 973.5  379 973.5  C 380.68 973.5  382 974.82  382 976.5  C 382 978.18  380.68 979.5  379 979.5  " fill-rule="nonzero" fill="#797979" stroke="none" />
</svg>