<?xml version="1.0" encoding="utf-8"?>
<svg version="1.1" xmlns:xlink="http://www.w3.org/1999/xlink" width="12px" height="12px" viewBox="757 640.5  12 12" xmlns="http://www.w3.org/2000/svg">
  <path d="M 763 640.5  C 766.36 640.5  769 643.14  769 646.5  C 769 649.86  766.36 652.5  763 652.5  C 759.64 652.5  757 649.86  757 646.5  C 757 643.14  759.64 640.5  763 640.5  Z " fill-rule="nonzero" fill="#f0f0f0" stroke="none" />
  <path d="M 763 641  C 766.08 641  768.5 643.42  768.5 646.5  C 768.5 649.58  766.08 652  763 652  C 759.92 652  757.5 649.58  757.5 646.5  C 757.5 643.42  759.92 641  763 641  Z " stroke-width="1" stroke="#797979" fill="none" />
  <path d="M 763 649.5  C 761.32 649.5  760 648.18  760 646.5  C 760 644.82  761.32 643.5  763 643.5  C 764.68 643.5  766 644.82  766 646.5  C 766 648.18  764.68 649.5  763 649.5  " fill-rule="nonzero" fill="#797979" stroke="none" />
</svg>