<?xml version="1.0" encoding="utf-8"?>
<svg version="1.1" xmlns:xlink="http://www.w3.org/1999/xlink" width="12px" height="12px" viewBox="836 640.5  12 12" xmlns="http://www.w3.org/2000/svg">
  <path d="M 842 640.5  C 845.36 640.5  848 643.14  848 646.5  C 848 649.86  845.36 652.5  842 652.5  C 838.64 652.5  836 649.86  836 646.5  C 836 643.14  838.64 640.5  842 640.5  Z " fill-rule="nonzero" fill="#f0f0f0" stroke="none" />
  <path d="M 842 641  C 845.08 641  847.5 643.42  847.5 646.5  C 847.5 649.58  845.08 652  842 652  C 838.92 652  836.5 649.58  836.5 646.5  C 836.5 643.42  838.92 641  842 641  Z " stroke-width="1" stroke="#797979" fill="none" />
  <path d="M 842 649.5  C 840.32 649.5  839 648.18  839 646.5  C 839 644.82  840.32 643.5  842 643.5  C 843.68 643.5  845 644.82  845 646.5  C 845 648.18  843.68 649.5  842 649.5  " fill-rule="nonzero" fill="#797979" stroke="none" />
</svg>