<?xml version="1.0" encoding="utf-8"?>
<svg version="1.1" xmlns:xlink="http://www.w3.org/1999/xlink" width="12px" height="12px" viewBox="677 640.5  12 12" xmlns="http://www.w3.org/2000/svg">
  <path d="M 683 640.5  C 686.36 640.5  689 643.14  689 646.5  C 689 649.86  686.36 652.5  683 652.5  C 679.64 652.5  677 649.86  677 646.5  C 677 643.14  679.64 640.5  683 640.5  Z " fill-rule="nonzero" fill="#ffffff" stroke="none" />
  <path d="M 683 641  C 686.08 641  688.5 643.42  688.5 646.5  C 688.5 649.58  686.08 652  683 652  C 679.92 652  677.5 649.58  677.5 646.5  C 677.5 643.42  679.92 641  683 641  Z " stroke-width="1" stroke="#797979" fill="none" />
  <path d="M 683 649.5  C 681.32 649.5  680 648.18  680 646.5  C 680 644.82  681.32 643.5  683 643.5  C 684.68 643.5  686 644.82  686 646.5  C 686 648.18  684.68 649.5  683 649.5  " fill-rule="nonzero" fill="#797979" stroke="none" />
</svg>