<?xml version="1.0" encoding="utf-8"?>
<svg version="1.1" xmlns:xlink="http://www.w3.org/1999/xlink" width="12px" height="12px" viewBox="808 789.5  12 12" xmlns="http://www.w3.org/2000/svg">
  <path d="M 814 789.5  C 817.36 789.5  820 792.14  820 795.5  C 820 798.86  817.36 801.5  814 801.5  C 810.64 801.5  808 798.86  808 795.5  C 808 792.14  810.64 789.5  814 789.5  Z " fill-rule="nonzero" fill="#ffffff" stroke="none" />
  <path d="M 814 790  C 817.08 790  819.5 792.42  819.5 795.5  C 819.5 798.58  817.08 801  814 801  C 810.92 801  808.5 798.58  808.5 795.5  C 808.5 792.42  810.92 790  814 790  Z " stroke-width="1" stroke="#797979" fill="none" />
  <path d="M 814 798.5  C 812.32 798.5  811 797.18  811 795.5  C 811 793.82  812.32 792.5  814 792.5  C 815.68 792.5  817 793.82  817 795.5  C 817 797.18  815.68 798.5  814 798.5  " fill-rule="nonzero" fill="#797979" stroke="none" />
</svg>