<?xml version="1.0" encoding="utf-8"?>
<svg version="1.1" xmlns:xlink="http://www.w3.org/1999/xlink" width="12px" height="12px" viewBox="905 608.5  12 12" xmlns="http://www.w3.org/2000/svg">
  <path d="M 911 608.5  C 914.36 608.5  917 611.14  917 614.5  C 917 617.86  914.36 620.5  911 620.5  C 907.64 620.5  905 617.86  905 614.5  C 905 611.14  907.64 608.5  911 608.5  Z " fill-rule="nonzero" fill="#ffffff" stroke="none" />
  <path d="M 911 609  C 914.08 609  916.5 611.42  916.5 614.5  C 916.5 617.58  914.08 620  911 620  C 907.92 620  905.5 617.58  905.5 614.5  C 905.5 611.42  907.92 609  911 609  Z " stroke-width="1" stroke="#797979" fill="none" />
  <path d="M 911 617.5  C 909.32 617.5  908 616.18  908 614.5  C 908 612.82  909.32 611.5  911 611.5  C 912.68 611.5  914 612.82  914 614.5  C 914 616.18  912.68 617.5  911 617.5  " fill-rule="nonzero" fill="#797979" stroke="none" />
</svg>