<?xml version="1.0" encoding="utf-8"?>
<svg version="1.1" xmlns:xlink="http://www.w3.org/1999/xlink" width="12px" height="12px" viewBox="750 789.5  12 12" xmlns="http://www.w3.org/2000/svg">
  <path d="M 756 789.5  C 759.36 789.5  762 792.14  762 795.5  C 762 798.86  759.36 801.5  756 801.5  C 752.64 801.5  750 798.86  750 795.5  C 750 792.14  752.64 789.5  756 789.5  Z " fill-rule="nonzero" fill="#f0f0f0" stroke="none" />
  <path d="M 756 790  C 759.08 790  761.5 792.42  761.5 795.5  C 761.5 798.58  759.08 801  756 801  C 752.92 801  750.5 798.58  750.5 795.5  C 750.5 792.42  752.92 790  756 790  Z " stroke-width="1" stroke="#797979" fill="none" />
  <path d="M 756 798.5  C 754.32 798.5  753 797.18  753 795.5  C 753 793.82  754.32 792.5  756 792.5  C 757.68 792.5  759 793.82  759 795.5  C 759 797.18  757.68 798.5  756 798.5  " fill-rule="nonzero" fill="#797979" stroke="none" />
</svg>