<?xml version="1.0" encoding="utf-8"?>
<svg version="1.1" xmlns:xlink="http://www.w3.org/1999/xlink" width="12px" height="12px" viewBox="707 862.5  12 12" xmlns="http://www.w3.org/2000/svg">
  <path d="M 713 862.5  C 716.36 862.5  719 865.14  719 868.5  C 719 871.86  716.36 874.5  713 874.5  C 709.64 874.5  707 871.86  707 868.5  C 707 865.14  709.64 862.5  713 862.5  Z " fill-rule="nonzero" fill="#ffffff" stroke="none" />
  <path d="M 713 863  C 716.08 863  718.5 865.42  718.5 868.5  C 718.5 871.58  716.08 874  713 874  C 709.92 874  707.5 871.58  707.5 868.5  C 707.5 865.42  709.92 863  713 863  Z " stroke-width="1" stroke="#797979" fill="none" />
  <path d="M 713 871.5  C 711.32 871.5  710 870.18  710 868.5  C 710 866.82  711.32 865.5  713 865.5  C 714.68 865.5  716 866.82  716 868.5  C 716 870.18  714.68 871.5  713 871.5  " fill-rule="nonzero" fill="#797979" stroke="none" />
</svg>