<?xml version="1.0" encoding="utf-8"?>
<svg version="1.1" xmlns:xlink="http://www.w3.org/1999/xlink" width="12px" height="12px" viewBox="773 862.5  12 12" xmlns="http://www.w3.org/2000/svg">
  <path d="M 779 862.5  C 782.36 862.5  785 865.14  785 868.5  C 785 871.86  782.36 874.5  779 874.5  C 775.64 874.5  773 871.86  773 868.5  C 773 865.14  775.64 862.5  779 862.5  Z " fill-rule="nonzero" fill="#ffffff" stroke="none" />
  <path d="M 779 863  C 782.08 863  784.5 865.42  784.5 868.5  C 784.5 871.58  782.08 874  779 874  C 775.92 874  773.5 871.58  773.5 868.5  C 773.5 865.42  775.92 863  779 863  Z " stroke-width="1" stroke="#797979" fill="none" />
  <path d="M 779 871.5  C 777.32 871.5  776 870.18  776 868.5  C 776 866.82  777.32 865.5  779 865.5  C 780.68 865.5  782 866.82  782 868.5  C 782 870.18  780.68 871.5  779 871.5  " fill-rule="nonzero" fill="#797979" stroke="none" />
</svg>