<?xml version="1.0" encoding="utf-8"?>
<svg version="1.1" xmlns:xlink="http://www.w3.org/1999/xlink" width="12px" height="12px" viewBox="831 862.5  12 12" xmlns="http://www.w3.org/2000/svg">
  <path d="M 837 862.5  C 840.36 862.5  843 865.14  843 868.5  C 843 871.86  840.36 874.5  837 874.5  C 833.64 874.5  831 871.86  831 868.5  C 831 865.14  833.64 862.5  837 862.5  Z " fill-rule="nonzero" fill="#f0f0f0" stroke="none" />
  <path d="M 837 863  C 840.08 863  842.5 865.42  842.5 868.5  C 842.5 871.58  840.08 874  837 874  C 833.92 874  831.5 871.58  831.5 868.5  C 831.5 865.42  833.92 863  837 863  Z " stroke-width="1" stroke="#797979" fill="none" />
  <path d="M 837 871.5  C 835.32 871.5  834 870.18  834 868.5  C 834 866.82  835.32 865.5  837 865.5  C 838.68 865.5  840 866.82  840 868.5  C 840 870.18  838.68 871.5  837 871.5  " fill-rule="nonzero" fill="#797979" stroke="none" />
</svg>