<?xml version="1.0" encoding="utf-8"?>
<svg version="1.1" xmlns:xlink="http://www.w3.org/1999/xlink" width="12px" height="12px" viewBox="707 932.5  12 12" xmlns="http://www.w3.org/2000/svg">
  <path d="M 713 932.5  C 716.36 932.5  719 935.14  719 938.5  C 719 941.86  716.36 944.5  713 944.5  C 709.64 944.5  707 941.86  707 938.5  C 707 935.14  709.64 932.5  713 932.5  Z " fill-rule="nonzero" fill="#ffffff" stroke="none" />
  <path d="M 713 933  C 716.08 933  718.5 935.42  718.5 938.5  C 718.5 941.58  716.08 944  713 944  C 709.92 944  707.5 941.58  707.5 938.5  C 707.5 935.42  709.92 933  713 933  Z " stroke-width="1" stroke="#797979" fill="none" />
  <path d="M 713 941.5  C 711.32 941.5  710 940.18  710 938.5  C 710 936.82  711.32 935.5  713 935.5  C 714.68 935.5  716 936.82  716 938.5  C 716 940.18  714.68 941.5  713 941.5  " fill-rule="nonzero" fill="#797979" stroke="none" />
</svg>